G04 #@! TF.GenerationSoftware,KiCad,Pcbnew,5.0.2-bee76a0~70~ubuntu18.04.1*
G04 #@! TF.CreationDate,2019-09-07T22:00:11+02:00*
G04 #@! TF.ProjectId,mainPCB,6d61696e-5043-4422-9e6b-696361645f70,rev?*
G04 #@! TF.SameCoordinates,Original*
G04 #@! TF.FileFunction,Copper,L4,Bot*
G04 #@! TF.FilePolarity,Positive*
%FSLAX46Y46*%
G04 Gerber Fmt 4.6, Leading zero omitted, Abs format (unit mm)*
G04 Created by KiCad (PCBNEW 5.0.2-bee76a0~70~ubuntu18.04.1) date Sa 07 Sep 2019 22:00:11 CEST*
%MOMM*%
%LPD*%
G01*
G04 APERTURE LIST*
G04 #@! TA.AperFunction,NonConductor*
%ADD10C,0.150000*%
G04 #@! TD*
G04 #@! TA.AperFunction,ComponentPad*
%ADD11O,1.700000X1.700000*%
G04 #@! TD*
G04 #@! TA.AperFunction,ComponentPad*
%ADD12R,1.700000X1.700000*%
G04 #@! TD*
G04 #@! TA.AperFunction,ComponentPad*
%ADD13C,1.800000*%
G04 #@! TD*
G04 #@! TA.AperFunction,ComponentPad*
%ADD14C,2.400000*%
G04 #@! TD*
G04 #@! TA.AperFunction,ComponentPad*
%ADD15C,1.700000*%
G04 #@! TD*
G04 #@! TA.AperFunction,ComponentPad*
%ADD16C,4.600000*%
G04 #@! TD*
G04 #@! TA.AperFunction,ComponentPad*
%ADD17C,1.450000*%
G04 #@! TD*
G04 #@! TA.AperFunction,ComponentPad*
%ADD18O,1.900000X1.200000*%
G04 #@! TD*
G04 #@! TA.AperFunction,ComponentPad*
%ADD19C,2.600000*%
G04 #@! TD*
G04 #@! TA.AperFunction,ComponentPad*
%ADD20C,1.890000*%
G04 #@! TD*
G04 #@! TA.AperFunction,ComponentPad*
%ADD21C,1.900000*%
G04 #@! TD*
G04 #@! TA.AperFunction,ComponentPad*
%ADD22R,1.900000X1.900000*%
G04 #@! TD*
G04 #@! TA.AperFunction,ViaPad*
%ADD23C,0.800000*%
G04 #@! TD*
G04 #@! TA.AperFunction,Conductor*
%ADD24C,0.250000*%
G04 #@! TD*
G04 #@! TA.AperFunction,Conductor*
%ADD25C,2.000000*%
G04 #@! TD*
G04 #@! TA.AperFunction,Conductor*
%ADD26C,0.150000*%
G04 #@! TD*
G04 #@! TA.AperFunction,Conductor*
%ADD27C,0.200000*%
G04 #@! TD*
G04 #@! TA.AperFunction,Conductor*
%ADD28C,2.500000*%
G04 #@! TD*
G04 #@! TA.AperFunction,Conductor*
%ADD29C,0.205000*%
G04 #@! TD*
G04 #@! TA.AperFunction,Conductor*
%ADD30C,0.254000*%
G04 #@! TD*
G04 #@! TA.AperFunction,Conductor*
%ADD31C,0.750000*%
G04 #@! TD*
G04 APERTURE END LIST*
D10*
X17462500Y-37465000D02*
X17462500Y-110617000D01*
X177482500Y-37465000D02*
X17462500Y-37465000D01*
X177482500Y-110617000D02*
X177482500Y-37465000D01*
X17462500Y-110617000D02*
X177482500Y-110617000D01*
D11*
G04 #@! TO.P,J2,2*
G04 #@! TO.N,/RXD03*
X170200320Y-60558680D03*
D12*
G04 #@! TO.P,J2,1*
G04 #@! TO.N,/TXD03*
X167660320Y-60558680D03*
G04 #@! TD*
D13*
G04 #@! TO.P,J5,5*
G04 #@! TO.N,Net-(J5-Pad5)*
X152744160Y-45006000D03*
G04 #@! TO.P,J5,4*
G04 #@! TO.N,Net-(J5-Pad4)*
X155244160Y-45006000D03*
G04 #@! TO.P,J5,3*
G04 #@! TO.N,GND*
X157744160Y-45006000D03*
G04 #@! TO.P,J5,2*
G04 #@! TO.N,Net-(J5-Pad2)*
X160244160Y-45006000D03*
G04 #@! TO.P,J5,1*
G04 #@! TO.N,Net-(J5-Pad1)*
X162744160Y-45006000D03*
G04 #@! TD*
G04 #@! TO.P,J1,6*
G04 #@! TO.N,/Input_3/input*
X130005760Y-45031160D03*
G04 #@! TO.P,J1,5*
G04 #@! TO.N,Net-(C1-Pad2)*
X132505760Y-45031160D03*
G04 #@! TO.P,J1,4*
G04 #@! TO.N,/Input_2/input*
X135005760Y-45031160D03*
G04 #@! TO.P,J1,3*
G04 #@! TO.N,Net-(C1-Pad2)*
X137505760Y-45031160D03*
G04 #@! TO.P,J1,2*
G04 #@! TO.N,/Input_1/input*
X140005760Y-45031160D03*
G04 #@! TO.P,J1,1*
G04 #@! TO.N,Net-(C1-Pad2)*
X142505760Y-45031160D03*
G04 #@! TD*
G04 #@! TO.P,J18,2*
G04 #@! TO.N,Net-(IC2-Pad6)*
X119344760Y-44714840D03*
G04 #@! TO.P,J18,1*
G04 #@! TO.N,Net-(IC2-Pad7)*
X116844760Y-44714840D03*
G04 #@! TD*
G04 #@! TO.P,J3,7*
G04 #@! TO.N,GND*
X71617000Y-44976040D03*
G04 #@! TO.P,J3,6*
G04 #@! TO.N,/sheet5C9DA53F/outA*
X74117000Y-44976040D03*
G04 #@! TO.P,J3,5*
G04 #@! TO.N,GND*
X76617000Y-44976040D03*
G04 #@! TO.P,J3,4*
G04 #@! TO.N,/sheet5C9DA53F/outB*
X79117000Y-44976040D03*
G04 #@! TO.P,J3,3*
G04 #@! TO.N,/Relais/NO*
X81617000Y-44976040D03*
G04 #@! TO.P,J3,2*
G04 #@! TO.N,/Relais/NC*
X84117000Y-44976040D03*
G04 #@! TO.P,J3,1*
G04 #@! TO.N,/Relais/COM*
X86617000Y-44976040D03*
G04 #@! TD*
D14*
G04 #@! TO.P,J4,1*
G04 #@! TO.N,GND*
X56562640Y-47578400D03*
G04 #@! TO.P,J4,2*
G04 #@! TO.N,/powerSupply/V_In_12V*
X51562640Y-47578400D03*
G04 #@! TO.P,J4,3*
G04 #@! TO.N,/motorDriverA/outA*
X46562640Y-47578400D03*
G04 #@! TO.P,J4,4*
G04 #@! TO.N,/motorDriverA/outB*
X41562640Y-47578400D03*
G04 #@! TD*
D15*
G04 #@! TO.P,J16,1*
G04 #@! TO.N,Net-(J16-Pad1)*
X168180480Y-85210600D03*
G04 #@! TO.P,J16,2*
G04 #@! TO.N,Net-(IC3-Pad8)*
X168180480Y-82470600D03*
G04 #@! TO.P,J16,3*
G04 #@! TO.N,Net-(IC3-Pad13)*
X168180480Y-79730600D03*
G04 #@! TO.P,J16,4*
G04 #@! TO.N,Net-(J16-Pad4)*
X168180480Y-76990600D03*
G04 #@! TO.P,J16,5*
G04 #@! TO.N,GND*
X168180480Y-74250600D03*
G04 #@! TO.P,J16,6*
G04 #@! TO.N,Net-(J16-Pad6)*
X171020480Y-83840600D03*
G04 #@! TO.P,J16,7*
G04 #@! TO.N,Net-(J16-Pad7)*
X171020480Y-81100600D03*
G04 #@! TO.P,J16,8*
G04 #@! TO.N,Net-(J16-Pad8)*
X171020480Y-78360600D03*
G04 #@! TO.P,J16,9*
G04 #@! TO.N,Net-(J16-Pad9)*
X171020480Y-75620600D03*
D16*
G04 #@! TO.P,J16,0*
G04 #@! TO.N,GND*
X169600480Y-92225600D03*
X169600480Y-67235600D03*
G04 #@! TD*
D17*
G04 #@! TO.P,J14,6*
G04 #@! TO.N,GND*
X172890720Y-56292120D03*
X172890720Y-51292120D03*
D18*
X175590720Y-57292120D03*
X175590720Y-50292120D03*
G04 #@! TD*
D11*
G04 #@! TO.P,J12,4*
G04 #@! TO.N,Net-(J12-Pad4)*
X121602500Y-61404500D03*
G04 #@! TO.P,J12,3*
G04 #@! TO.N,Net-(IC2-Pad6)*
X121602500Y-58864500D03*
G04 #@! TO.P,J12,2*
G04 #@! TO.N,/CAN_TXD*
X124142500Y-61404500D03*
D12*
G04 #@! TO.P,J12,1*
G04 #@! TO.N,Net-(IC2-Pad1)*
X124142500Y-58864500D03*
G04 #@! TD*
D19*
G04 #@! TO.P,J15,13*
G04 #@! TO.N,Net-(C34-Pad2)*
X94714000Y-51574000D03*
X110264000Y-51574000D03*
D20*
G04 #@! TO.P,J15,L4*
G04 #@! TO.N,Net-(J15-PadL4)*
X108814000Y-43624000D03*
G04 #@! TO.P,J15,L3*
G04 #@! TO.N,Net-(J15-PadL3)*
X106274000Y-45144000D03*
G04 #@! TO.P,J15,L2*
G04 #@! TO.N,Net-(J15-PadL2)*
X98704000Y-43624000D03*
G04 #@! TO.P,J15,L1*
G04 #@! TO.N,Net-(J15-PadL1)*
X96164000Y-45144000D03*
D21*
G04 #@! TO.P,J15,R8*
G04 #@! TO.N,Net-(C34-Pad1)*
X98044000Y-57404000D03*
G04 #@! TO.P,J15,R7*
G04 #@! TO.N,Net-(J15-PadR7)*
X99314000Y-54864000D03*
G04 #@! TO.P,J15,R6*
G04 #@! TO.N,/LAN8720/RD-*
X100584000Y-57404000D03*
G04 #@! TO.P,J15,R5*
G04 #@! TO.N,Net-(C35-Pad2)*
X101854000Y-54864000D03*
G04 #@! TO.P,J15,R4*
X103124000Y-57404000D03*
G04 #@! TO.P,J15,R3*
G04 #@! TO.N,/LAN8720/RD+*
X104394000Y-54864000D03*
G04 #@! TO.P,J15,R2*
G04 #@! TO.N,/LAN8720/TD-*
X105664000Y-57404000D03*
D22*
G04 #@! TO.P,J15,R1*
G04 #@! TO.N,Net-(J15-PadR1)*
X106934000Y-54864000D03*
G04 #@! TD*
D11*
G04 #@! TO.P,J8,4*
G04 #@! TO.N,/I2C_3_SCL*
X78816200Y-75016360D03*
G04 #@! TO.P,J8,3*
G04 #@! TO.N,/I2C_3_SDA*
X76276200Y-75016360D03*
G04 #@! TO.P,J8,2*
G04 #@! TO.N,GND*
X73736200Y-75016360D03*
D12*
G04 #@! TO.P,J8,1*
G04 #@! TO.N,+3V3*
X71196200Y-75016360D03*
G04 #@! TD*
D11*
G04 #@! TO.P,J7,4*
G04 #@! TO.N,/I2C_5_SCL*
X134556500Y-99695000D03*
G04 #@! TO.P,J7,3*
G04 #@! TO.N,/I2C_5_SDA*
X137096500Y-99695000D03*
G04 #@! TO.P,J7,2*
G04 #@! TO.N,GND*
X139636500Y-99695000D03*
D12*
G04 #@! TO.P,J7,1*
G04 #@! TO.N,+5V*
X142176500Y-99695000D03*
G04 #@! TD*
D11*
G04 #@! TO.P,J11,8*
G04 #@! TO.N,Net-(J11-Pad8)*
X115189000Y-67691000D03*
G04 #@! TO.P,J11,7*
G04 #@! TO.N,+3V3*
X115189000Y-70231000D03*
G04 #@! TO.P,J11,6*
G04 #@! TO.N,Net-(J11-Pad6)*
X115189000Y-72771000D03*
G04 #@! TO.P,J11,5*
G04 #@! TO.N,Net-(J11-Pad5)*
X115189000Y-75311000D03*
G04 #@! TO.P,J11,4*
G04 #@! TO.N,+5V*
X115189000Y-77851000D03*
G04 #@! TO.P,J11,3*
G04 #@! TO.N,GND*
X115189000Y-80391000D03*
G04 #@! TO.P,J11,2*
X115189000Y-82931000D03*
D12*
G04 #@! TO.P,J11,1*
G04 #@! TO.N,Net-(J11-Pad1)*
X115189000Y-85471000D03*
G04 #@! TD*
D11*
G04 #@! TO.P,J10,8*
G04 #@! TO.N,Net-(J10-Pad8)*
X163449000Y-63627000D03*
G04 #@! TO.P,J10,7*
G04 #@! TO.N,GND*
X163449000Y-66167000D03*
G04 #@! TO.P,J10,6*
G04 #@! TO.N,Net-(J10-Pad6)*
X163449000Y-68707000D03*
G04 #@! TO.P,J10,5*
G04 #@! TO.N,Net-(J10-Pad5)*
X163449000Y-71247000D03*
G04 #@! TO.P,J10,4*
G04 #@! TO.N,Net-(J10-Pad4)*
X163449000Y-73787000D03*
G04 #@! TO.P,J10,3*
G04 #@! TO.N,Net-(J10-Pad3)*
X163449000Y-76327000D03*
G04 #@! TO.P,J10,2*
G04 #@! TO.N,Net-(J10-Pad2)*
X163449000Y-78867000D03*
D12*
G04 #@! TO.P,J10,1*
G04 #@! TO.N,/F9P/RX2*
X163449000Y-81407000D03*
G04 #@! TD*
D11*
G04 #@! TO.P,J9,8*
G04 #@! TO.N,Net-(J9-Pad8)*
X163449000Y-85471000D03*
G04 #@! TO.P,J9,7*
G04 #@! TO.N,Net-(J9-Pad7)*
X163449000Y-88011000D03*
G04 #@! TO.P,J9,6*
G04 #@! TO.N,Net-(J9-Pad6)*
X163449000Y-90551000D03*
G04 #@! TO.P,J9,5*
G04 #@! TO.N,Net-(J9-Pad5)*
X163449000Y-93091000D03*
G04 #@! TO.P,J9,4*
G04 #@! TO.N,Net-(J9-Pad4)*
X163449000Y-95631000D03*
G04 #@! TO.P,J9,3*
G04 #@! TO.N,/F9P/TX2*
X163449000Y-98171000D03*
G04 #@! TO.P,J9,2*
G04 #@! TO.N,/TXD01*
X163449000Y-100711000D03*
D12*
G04 #@! TO.P,J9,1*
G04 #@! TO.N,/RXD01*
X163449000Y-103251000D03*
G04 #@! TD*
D23*
G04 #@! TO.N,GND*
X157289500Y-57277000D03*
X157289500Y-55816500D03*
X155765500Y-55816500D03*
X124904500Y-106172000D03*
X101981000Y-71501000D03*
X103505000Y-71501000D03*
X103505000Y-69977000D03*
X101981000Y-69977000D03*
X69088000Y-53467000D03*
X54914800Y-45847000D03*
X54914800Y-49631600D03*
X54914800Y-48387000D03*
X54914800Y-47117000D03*
X56540400Y-45847000D03*
X56337200Y-49657000D03*
X57658000Y-49657000D03*
X59182000Y-49657000D03*
X60452000Y-49657000D03*
X60452000Y-47752000D03*
X60579000Y-45847000D03*
X59182000Y-45847000D03*
X57912000Y-45847000D03*
X59182000Y-47752000D03*
X33528000Y-52197000D03*
X28321000Y-52324000D03*
X24130000Y-52324000D03*
X33528000Y-53594000D03*
X25654000Y-68135500D03*
X31115000Y-63246000D03*
X31115000Y-68135500D03*
X33655000Y-63246000D03*
X33655000Y-67437000D03*
X29210000Y-72009000D03*
X46482000Y-66167000D03*
X41656000Y-66294000D03*
X48387000Y-63344000D03*
X46355000Y-94615000D03*
X41783000Y-94615000D03*
X39751000Y-94615000D03*
X48260000Y-94615000D03*
X46482000Y-91821000D03*
X41910000Y-91821000D03*
X41910000Y-97536000D03*
X46482000Y-97536000D03*
X46482000Y-63373000D03*
X41656000Y-63500000D03*
X41529000Y-69342000D03*
X46355000Y-69469000D03*
X35179000Y-95631000D03*
X35179000Y-97282000D03*
X22098000Y-97409000D03*
X22098000Y-104013000D03*
X35179000Y-104140000D03*
X24384000Y-80137000D03*
X24384000Y-84836000D03*
X32258000Y-84836000D03*
X35306000Y-84836000D03*
X35306000Y-80137000D03*
X32258000Y-80137000D03*
X29210000Y-89281000D03*
X59809510Y-89535000D03*
X59809510Y-87037990D03*
X61376500Y-85471000D03*
X62484000Y-84363500D03*
X60960000Y-94615000D03*
X82296000Y-109474000D03*
X99822000Y-109474000D03*
X90170000Y-109474000D03*
X109347000Y-109093000D03*
X104648000Y-109474000D03*
X72136000Y-96520000D03*
X76708000Y-94488000D03*
X69850000Y-71247000D03*
X112141000Y-67310000D03*
X95758000Y-73152000D03*
X90932000Y-58293000D03*
X96852500Y-67564000D03*
X25617010Y-63119000D03*
X75083565Y-99317631D03*
X33655000Y-65405000D03*
X35306000Y-82613500D03*
X81978500Y-71628000D03*
X81978500Y-79692500D03*
X101409500Y-91948000D03*
X127063500Y-81470500D03*
X154940000Y-106108500D03*
X135763000Y-82105500D03*
X136588500Y-75565000D03*
X142494000Y-75565000D03*
X112828311Y-58515011D03*
X128841500Y-53530500D03*
X138430000Y-50673000D03*
X159385000Y-90360500D03*
X151130000Y-94361000D03*
X151305260Y-77670660D03*
X154543760Y-86052660D03*
X160718500Y-66103500D03*
X155777500Y-57328500D03*
X31432500Y-97282000D03*
X25654000Y-97345500D03*
X91694000Y-48704504D03*
X130810000Y-62293500D03*
X129451436Y-75265073D03*
X144058640Y-48519080D03*
X105573737Y-74612608D03*
X48392080Y-66197480D03*
X148854160Y-87431880D03*
X77591920Y-107701080D03*
X73060560Y-83106700D03*
X153954480Y-49850040D03*
X147310059Y-82744301D03*
X160446720Y-100741480D03*
G04 #@! TO.N,/powerSupply/V_In_12V*
X50292000Y-54203600D03*
X50292000Y-53136800D03*
X50292000Y-52120800D03*
G04 #@! TO.N,+3V3*
X125928500Y-106172000D03*
X107061000Y-107315000D03*
X90297000Y-80454500D03*
X91567000Y-80454500D03*
X89027000Y-80454500D03*
X72263000Y-94488000D03*
X114046000Y-109093000D03*
X102616000Y-76073000D03*
X87820500Y-80454500D03*
X86741000Y-80454500D03*
X77962003Y-102108000D03*
X92964000Y-80454500D03*
X156019500Y-106108500D03*
X125603000Y-82613500D03*
X155559760Y-77607160D03*
X157480000Y-64643000D03*
X111225490Y-71628000D03*
X122819160Y-48021240D03*
X121772680Y-93974920D03*
X148051520Y-80878672D03*
X78760322Y-95356680D03*
X154960320Y-100741480D03*
G04 #@! TO.N,+12V*
X89281000Y-67437000D03*
X35052000Y-57277000D03*
X27305000Y-56134000D03*
X27305000Y-57404000D03*
X28956000Y-57023000D03*
X35028990Y-74216500D03*
X27432000Y-74549000D03*
X27432000Y-73279000D03*
X29083000Y-74549000D03*
X24320500Y-74549000D03*
X24320500Y-73342500D03*
X57640998Y-69596000D03*
X60960000Y-71247000D03*
X61087000Y-73279000D03*
X61214000Y-75819000D03*
X54610000Y-67437000D03*
X51562000Y-67310000D03*
X51435000Y-71628000D03*
X54483000Y-71628000D03*
X56769000Y-71501000D03*
X56642000Y-75946000D03*
X51435000Y-76073000D03*
X46418500Y-78994000D03*
X41973500Y-78994000D03*
X42291000Y-86614000D03*
X46609000Y-86360000D03*
X46799500Y-73533000D03*
X46482000Y-54864000D03*
X48260000Y-54864000D03*
X48260000Y-52197000D03*
X46355000Y-52197000D03*
X35306000Y-91694000D03*
X32512000Y-91694000D03*
X29591000Y-91948000D03*
X27178000Y-91948000D03*
X27305000Y-90424000D03*
X24130000Y-57404000D03*
X24130000Y-56134000D03*
X145288000Y-40767000D03*
X24066500Y-90551000D03*
X24066500Y-91884500D03*
X46418500Y-81216500D03*
X41973500Y-81216500D03*
X41973500Y-73533000D03*
X43624500Y-73533000D03*
X45148500Y-73533000D03*
X48641000Y-71691500D03*
X53086000Y-67246500D03*
X56324500Y-67310000D03*
X58593498Y-68643500D03*
X60007500Y-69913500D03*
X54864000Y-75946000D03*
X53149500Y-75946000D03*
X61087000Y-74549000D03*
X41973500Y-74930000D03*
X41910000Y-77597000D03*
X41910000Y-82867500D03*
X41910000Y-84836000D03*
X43624500Y-86614000D03*
X45148500Y-86550500D03*
X44069000Y-52578000D03*
G04 #@! TO.N,+5V*
X67818000Y-94361000D03*
X66675000Y-94361000D03*
X66802000Y-91821000D03*
X67818000Y-91821000D03*
X80772000Y-76581000D03*
X126428494Y-45720000D03*
X125920477Y-77724024D03*
X142176500Y-91313000D03*
X164632640Y-45034200D03*
X142179040Y-77729080D03*
X131282440Y-42964100D03*
G04 #@! TO.N,/motorDriverA/PWM*
X35115500Y-58674000D03*
X35052000Y-75819000D03*
X55181500Y-98234500D03*
G04 #@! TO.N,/motorDriverA/InB*
X28003500Y-58674000D03*
X55138320Y-101960680D03*
X27858720Y-75849480D03*
G04 #@! TO.N,/motorDriverA/INA*
X27114500Y-54864000D03*
X24384000Y-72009000D03*
X53614320Y-104145080D03*
G04 #@! TO.N,/LAN8720/EMAC_RXD1:GPIO26*
X109347000Y-96202500D03*
X109347000Y-78994006D03*
G04 #@! TO.N,/LAN8720/+3V3LAN*
X99822000Y-68707000D03*
X107569000Y-67691000D03*
X113446560Y-50647600D03*
X111866680Y-61722000D03*
G04 #@! TO.N,/sheet5C9DA53F/INA*
X28067000Y-89281000D03*
X53329840Y-107594400D03*
G04 #@! TO.N,/sheet5C9DA53F/InB*
X50546000Y-106299000D03*
X27813000Y-93091000D03*
G04 #@! TO.N,/sheet5C9DA53F/PWM*
X34925000Y-93091000D03*
X51772512Y-101175513D03*
G04 #@! TO.N,/M2_PWM*
X79184500Y-85026500D03*
X79184506Y-93916500D03*
X104364950Y-85344000D03*
X104364950Y-92900500D03*
G04 #@! TO.N,/ESP_EN*
X150312120Y-69794120D03*
X150317200Y-108234480D03*
G04 #@! TO.N,/LAN8720/EMAC_RX_CRS_DV:GPIO27*
X103822500Y-76073000D03*
X105219500Y-95313500D03*
G04 #@! TO.N,/LAN8720/EMAC_RXD0:GPIO25*
X107759500Y-97409002D03*
X107762041Y-76789280D03*
G04 #@! TO.N,/usbUart/TX*
X83121500Y-104394000D03*
X84461223Y-88736006D03*
X143256000Y-60706000D03*
X145714720Y-88549480D03*
G04 #@! TO.N,Net-(Q2-Pad2)*
X153098500Y-55128500D03*
X150939500Y-60373260D03*
G04 #@! TO.N,/Input_3/output*
X131508500Y-75501500D03*
X130047988Y-102870000D03*
G04 #@! TO.N,/Input_3/input*
X129552510Y-68199000D03*
G04 #@! TO.N,/I2C_3_SDA*
X74231500Y-81407000D03*
X74231500Y-95504000D03*
X125106358Y-83508967D03*
X128841500Y-92138502D03*
X128841500Y-101536500D03*
X128841500Y-104775000D03*
X144368520Y-104775000D03*
X147879259Y-81922088D03*
G04 #@! TO.N,/I2C_3_SCL*
X126936500Y-106172000D03*
X76598502Y-84836000D03*
X126873000Y-100748000D03*
X124042010Y-84264500D03*
X124767013Y-90170000D03*
X149572035Y-82324885D03*
X156964000Y-107005500D03*
X145560997Y-105991999D03*
X75935840Y-96118681D03*
G04 #@! TO.N,/I2C_5_SDA*
X136652000Y-83629500D03*
X137096500Y-90170000D03*
X133604000Y-54102000D03*
G04 #@! TO.N,/I2C_5_SCL*
X134493000Y-84899500D03*
X134493000Y-92456000D03*
X132588000Y-54165500D03*
G04 #@! TO.N,/usbUart/RX*
X83566000Y-88010481D03*
X140970000Y-60579000D03*
X82270600Y-105679240D03*
X145040510Y-87530541D03*
G04 #@! TO.N,/Input_1/input*
X142430500Y-68770500D03*
G04 #@! TO.N,/Input_1/output*
X140970000Y-106717000D03*
X140652500Y-75755500D03*
G04 #@! TO.N,/Input_2/output*
X138366500Y-103632000D03*
X138369038Y-75788520D03*
G04 #@! TO.N,/Input_2/input*
X136525000Y-68453000D03*
G04 #@! TO.N,/CAN_RXD*
X124236480Y-49596040D03*
X122773438Y-102336600D03*
G04 #@! TO.N,/RXD02*
X83697242Y-95784500D03*
X83693000Y-89535000D03*
G04 #@! TO.N,/LAN8720/EMAC_CLK_OUT_180:GPIO17*
X95006112Y-71484951D03*
X80821492Y-96774000D03*
X80835500Y-82132000D03*
X94996000Y-82132000D03*
G04 #@! TO.N,/CAN_TXD*
X81546492Y-98044000D03*
X85084148Y-86487000D03*
X123508610Y-86603840D03*
G04 #@! TO.N,/LAN8720/EMAC_TXD0:GPIO19*
X84645504Y-100584000D03*
X106426000Y-69747370D03*
G04 #@! TO.N,/LAN8720/EMAC_TX_EN:GPIO21*
X107746009Y-70485000D03*
X84645498Y-103124000D03*
G04 #@! TO.N,/LAN8720/EMAC_TXD1:GPIO22*
X107569000Y-69178000D03*
X84582006Y-106934000D03*
G04 #@! TO.N,/LAN8720/MDC:GPIO23*
X84582000Y-108077000D03*
X110934500Y-73215500D03*
G04 #@! TO.N,Net-(J14-Pad2)*
X167760769Y-55436976D03*
X157209831Y-62422000D03*
G04 #@! TO.N,Net-(J14-Pad3)*
X168003220Y-53919120D03*
X156273500Y-61658500D03*
G04 #@! TO.N,/sheet5C9DA53F/outA*
X22225000Y-87757000D03*
X21717000Y-83439000D03*
X21701760Y-84937600D03*
X21717000Y-86614000D03*
G04 #@! TO.N,/sheet5C9DA53F/outB*
X22860000Y-93980000D03*
X19524990Y-90644990D03*
X21844000Y-92964000D03*
X20828000Y-92075000D03*
G04 #@! TO.N,Net-(J15-PadL1)*
X94996000Y-70485000D03*
G04 #@! TO.N,Net-(J15-PadL3)*
X96139000Y-69977000D03*
G04 #@! TO.N,/Relais/Enable*
X69723000Y-69342000D03*
X73731120Y-101706680D03*
G04 #@! TO.N,Net-(IC3-Pad13)*
X165100000Y-96837500D03*
G04 #@! TO.N,Net-(IC3-Pad8)*
X165862000Y-94361000D03*
G04 #@! TO.N,Net-(IC2-Pad6)*
X121640600Y-50866040D03*
G04 #@! TO.N,/LAN8720/RD+*
X101854000Y-64262000D03*
G04 #@! TO.N,Net-(IC1-Pad12)*
X76474895Y-96960954D03*
X77439520Y-88498680D03*
G04 #@! TO.N,/LAN8720/MDIO*
X84645500Y-99377498D03*
X107137200Y-73578716D03*
G04 #@! TO.N,/PHY_RST*
X105994200Y-71248430D03*
X80015080Y-83413600D03*
X105267760Y-83103720D03*
X80001968Y-97347048D03*
G04 #@! TO.N,/TXD03*
X84500720Y-92969080D03*
X85787744Y-87212000D03*
X144590499Y-72801480D03*
X144068938Y-87293744D03*
G04 #@! TO.N,/RXD03*
X147340320Y-75392280D03*
X143377920Y-96728280D03*
G04 #@! TD*
D24*
G04 #@! TO.N,GND*
X167482751Y-74007749D02*
X167856001Y-74380999D01*
D25*
G04 #@! TO.N,+5V*
X126320476Y-77324025D02*
X125920477Y-77724024D01*
X126428494Y-45720000D02*
X126428494Y-77216007D01*
D24*
X142176500Y-99695000D02*
X142176500Y-91313000D01*
X142176500Y-77731620D02*
X142179040Y-77729080D01*
X142176500Y-91313000D02*
X142176500Y-77731620D01*
G04 #@! TO.N,/motorDriverA/PWM*
X55181500Y-84328000D02*
X55181500Y-98234500D01*
X46672500Y-75819000D02*
X55181500Y-84328000D01*
X35753991Y-59312491D02*
X35753991Y-75815509D01*
X35115500Y-58674000D02*
X35753991Y-59312491D01*
X35753991Y-75815509D02*
X35750500Y-75819000D01*
X35750500Y-75819000D02*
X46672500Y-75819000D01*
X35052000Y-75819000D02*
X35750500Y-75819000D01*
G04 #@! TO.N,/motorDriverA/InB*
X31840001Y-62701001D02*
X28403499Y-59264499D01*
X28403499Y-59073999D02*
X28003500Y-58674000D01*
X54356000Y-101178360D02*
X54356000Y-85598000D01*
X28403499Y-59264499D02*
X28403499Y-59073999D01*
X54356000Y-85598000D02*
X45402500Y-76644500D01*
X45402500Y-76644500D02*
X32518498Y-76644500D01*
X31840001Y-75966003D02*
X31840001Y-62701001D01*
X55138320Y-101960680D02*
X54356000Y-101178360D01*
X32518498Y-76644500D02*
X31840001Y-75966003D01*
X31840001Y-75966003D02*
X27975243Y-75966003D01*
X27975243Y-75966003D02*
X27858720Y-75849480D01*
G04 #@! TO.N,/motorDriverA/INA*
X27114500Y-54864000D02*
X24855001Y-57123499D01*
X25654000Y-73279000D02*
X24855001Y-72480001D01*
X25654000Y-77025500D02*
X25654000Y-73279000D01*
X27622500Y-78994000D02*
X25654000Y-77025500D01*
X40900498Y-78994000D02*
X27622500Y-78994000D01*
X53630999Y-99604999D02*
X53630999Y-86396999D01*
X53630999Y-86396999D02*
X47725499Y-80491499D01*
X47725499Y-80491499D02*
X42397997Y-80491499D01*
X42397997Y-80491499D02*
X40900498Y-78994000D01*
X24728001Y-72009000D02*
X24855001Y-72136000D01*
X24855001Y-72480001D02*
X24855001Y-72136000D01*
X24384000Y-72009000D02*
X24728001Y-72009000D01*
X24855001Y-72136000D02*
X24855001Y-57123499D01*
X53614320Y-99621678D02*
X53630999Y-99604999D01*
X53614320Y-104145080D02*
X53614320Y-99621678D01*
D26*
G04 #@! TO.N,/LAN8720/EMAC_RXD1:GPIO26*
X109347000Y-96202500D02*
X109347000Y-78994006D01*
D24*
G04 #@! TO.N,/LAN8720/+3V3LAN*
X99822000Y-68707000D02*
X104775000Y-68707000D01*
X104775000Y-68707000D02*
X105791000Y-67691000D01*
X105791000Y-67691000D02*
X107569000Y-67691000D01*
X111866680Y-54158758D02*
X111866680Y-61722000D01*
X113446560Y-50647600D02*
X113446560Y-52578878D01*
X113446560Y-52578878D02*
X111866680Y-54158758D01*
G04 #@! TO.N,/sheet5C9DA53F/INA*
X33052999Y-94266999D02*
X38329997Y-94266999D01*
X39402999Y-95340001D02*
X41075441Y-95340001D01*
X41075441Y-95340001D02*
X53329840Y-107594400D01*
X38329997Y-94266999D02*
X39402999Y-95340001D01*
X28067000Y-89281000D02*
X33052999Y-94266999D01*
G04 #@! TO.N,/sheet5C9DA53F/InB*
X50546000Y-106299000D02*
X41586002Y-106299000D01*
X28378002Y-93091000D02*
X27813000Y-93091000D01*
X41586002Y-106299000D02*
X28378002Y-93091000D01*
G04 #@! TO.N,/sheet5C9DA53F/PWM*
X43688000Y-93091000D02*
X34925000Y-93091000D01*
X51772512Y-101175513D02*
X43688000Y-93091000D01*
G04 #@! TO.N,/M2_PWM*
X79184500Y-85026500D02*
X79184500Y-93916494D01*
X79184500Y-93916494D02*
X79184506Y-93916500D01*
X104364950Y-85344000D02*
X104364950Y-92900500D01*
G04 #@! TO.N,/ESP_EN*
X150312120Y-69794120D02*
X150312120Y-108229400D01*
X150312120Y-108229400D02*
X150317200Y-108234480D01*
G04 #@! TO.N,/LAN8720/EMAC_RX_CRS_DV:GPIO27*
X104482900Y-76733400D02*
X103822500Y-76073000D01*
X104482900Y-84388948D02*
X104482900Y-76733400D01*
X105219500Y-85125548D02*
X104482900Y-84388948D01*
X105219500Y-95313500D02*
X105219500Y-85125548D01*
G04 #@! TO.N,/LAN8720/EMAC_RXD0:GPIO25*
X107759500Y-76791821D02*
X107762041Y-76789280D01*
X107759500Y-97409002D02*
X107759500Y-76791821D01*
G04 #@! TO.N,/usbUart/TX*
X83418992Y-88736006D02*
X84461223Y-88736006D01*
X83121500Y-104394000D02*
X82721501Y-103994001D01*
X82721501Y-89433497D02*
X83418992Y-88736006D01*
X82721501Y-103994001D02*
X82721501Y-89433497D01*
X143256000Y-60706000D02*
X145765520Y-63215520D01*
X145765520Y-63215520D02*
X145765520Y-87800282D01*
X145714720Y-87851082D02*
X145714720Y-88549480D01*
X145765520Y-87800282D02*
X145714720Y-87851082D01*
D27*
G04 #@! TO.N,Net-(Q2-Pad2)*
X153098500Y-55128500D02*
X150939500Y-57287500D01*
D24*
X150939500Y-57287500D02*
X150939500Y-60373260D01*
G04 #@! TO.N,/Input_3/output*
X131508500Y-101409488D02*
X130047988Y-102870000D01*
X131508500Y-75501500D02*
X131508500Y-101409488D01*
G04 #@! TO.N,/Input_3/input*
X129994000Y-67757510D02*
X129552510Y-68199000D01*
X129994000Y-45085000D02*
X129994000Y-67757510D01*
D27*
G04 #@! TO.N,/I2C_3_SDA*
X74231500Y-95504000D02*
X74231500Y-79883000D01*
D24*
X128841500Y-87244109D02*
X128841500Y-92138502D01*
X125106358Y-83508967D02*
X128841500Y-87244109D01*
X128841500Y-101536500D02*
X128841500Y-92138502D01*
X128841500Y-101536500D02*
X128841500Y-104775000D01*
D26*
X74231500Y-77061060D02*
X76276200Y-75016360D01*
X74231500Y-79883000D02*
X74231500Y-77061060D01*
D24*
X148279258Y-82322087D02*
X147879259Y-81922088D01*
X144368520Y-104775000D02*
X147677710Y-101465810D01*
X147677710Y-84148485D02*
X148279258Y-83546937D01*
X147677710Y-101465810D02*
X147677710Y-84148485D01*
X148279258Y-83546937D02*
X148279258Y-82322087D01*
G04 #@! TO.N,/I2C_3_SCL*
X126873000Y-106108500D02*
X126936500Y-106172000D01*
X126873000Y-100748000D02*
X126873000Y-106108500D01*
X124767013Y-84989503D02*
X124042010Y-84264500D01*
X124767013Y-90170000D02*
X124767013Y-84989503D01*
X148127720Y-102168960D02*
X145560997Y-104735683D01*
X148127720Y-84334885D02*
X148127720Y-102168960D01*
X145560997Y-104735683D02*
X145560997Y-105991999D01*
X149572035Y-82324885D02*
X149572035Y-82890570D01*
X149572035Y-82890570D02*
X148127720Y-84334885D01*
D26*
X78816200Y-82618302D02*
X78816200Y-75016360D01*
X76598502Y-84836000D02*
X78816200Y-82618302D01*
D24*
X126873000Y-92275987D02*
X124767013Y-90170000D01*
X126873000Y-100748000D02*
X126873000Y-92275987D01*
D27*
X76598502Y-84836000D02*
X75935840Y-85498662D01*
X75935840Y-85498662D02*
X75935840Y-96118681D01*
D24*
G04 #@! TO.N,/I2C_5_SDA*
X137096500Y-84074000D02*
X136652000Y-83629500D01*
X137096500Y-99695000D02*
X137096500Y-90170000D01*
X137096500Y-90170000D02*
X137096500Y-84074000D01*
X133604000Y-81089500D02*
X133604000Y-54102000D01*
X136652000Y-83629500D02*
X136144000Y-83629500D01*
X136144000Y-83629500D02*
X133604000Y-81089500D01*
G04 #@! TO.N,/I2C_5_SCL*
X134493000Y-99631500D02*
X134556500Y-99695000D01*
X134493000Y-84899500D02*
X134493000Y-92456000D01*
X134493000Y-92456000D02*
X134493000Y-99631500D01*
X132588000Y-82994500D02*
X132588000Y-54165500D01*
X134493000Y-84899500D02*
X132588000Y-82994500D01*
G04 #@! TO.N,/usbUart/RX*
X82271492Y-89247096D02*
X82271492Y-105112663D01*
X82270600Y-105113555D02*
X82270600Y-105679240D01*
X82271492Y-105112663D02*
X82270600Y-105113555D01*
X83508107Y-88010481D02*
X82271492Y-89247096D01*
X83566000Y-88010481D02*
X83508107Y-88010481D01*
X140970000Y-60579000D02*
X145315509Y-64924509D01*
X145315509Y-64924509D02*
X145315509Y-86689857D01*
X145040510Y-86964856D02*
X145040510Y-87530541D01*
X145315509Y-86689857D02*
X145040510Y-86964856D01*
G04 #@! TO.N,/Input_1/input*
X139994000Y-45085000D02*
X139994000Y-66334000D01*
X139994000Y-66334000D02*
X142430500Y-68770500D01*
G04 #@! TO.N,/Input_1/output*
X140970000Y-99289498D02*
X140970000Y-106717000D01*
X140652500Y-75755500D02*
X140652500Y-98971998D01*
X140652500Y-98971998D02*
X140970000Y-99289498D01*
G04 #@! TO.N,/Input_2/output*
X138366500Y-75791058D02*
X138369038Y-75788520D01*
X138366500Y-103632000D02*
X138366500Y-75791058D01*
G04 #@! TO.N,/Input_2/input*
X134994000Y-45085000D02*
X134994000Y-66922000D01*
X134994000Y-66922000D02*
X136525000Y-68453000D01*
G04 #@! TO.N,/CAN_RXD*
X122967499Y-61778503D02*
X122967499Y-50865021D01*
X122773438Y-102336600D02*
X122773438Y-61972564D01*
X122773438Y-61972564D02*
X122967499Y-61778503D01*
X122967499Y-50865021D02*
X124236480Y-49596040D01*
G04 #@! TO.N,/RXD02*
X83697242Y-95784500D02*
X83697242Y-89539242D01*
X83697242Y-89539242D02*
X83693000Y-89535000D01*
G04 #@! TO.N,/LAN8720/EMAC_CLK_OUT_180:GPIO17*
X94996000Y-71495063D02*
X95006112Y-71484951D01*
X94996000Y-82132000D02*
X94996000Y-71495063D01*
X80821492Y-96774000D02*
X80821492Y-82146008D01*
X80821492Y-82146008D02*
X80835500Y-82132000D01*
G04 #@! TO.N,/CAN_TXD*
X81546492Y-98044000D02*
X81546492Y-88956831D01*
X81546492Y-88956831D02*
X84016323Y-86487000D01*
X84016323Y-86487000D02*
X85084148Y-86487000D01*
X123292501Y-62254499D02*
X123292501Y-86387731D01*
X123292501Y-86387731D02*
X123508610Y-86603840D01*
X124142500Y-61404500D02*
X123292501Y-62254499D01*
G04 #@! TO.N,/LAN8720/EMAC_TXD0:GPIO19*
X107020999Y-76373499D02*
X108051600Y-75342898D01*
X84645504Y-100584000D02*
X105410000Y-100584000D01*
X106426000Y-70313055D02*
X106426000Y-69747370D01*
X105410000Y-100584000D02*
X107020999Y-98973001D01*
X108051600Y-71938655D02*
X106426000Y-70313055D01*
X108051600Y-75342898D02*
X108051600Y-71938655D01*
X107020999Y-98973001D02*
X107020999Y-76373499D01*
G04 #@! TO.N,/LAN8720/EMAC_TX_EN:GPIO21*
X108521500Y-77148542D02*
X108521500Y-98178575D01*
X108521500Y-98178575D02*
X103576075Y-103124000D01*
X103576075Y-103124000D02*
X84645498Y-103124000D01*
X108522601Y-71261592D02*
X108522601Y-77147441D01*
X108522601Y-77147441D02*
X108521500Y-77148542D01*
X107746009Y-70485000D02*
X108522601Y-71261592D01*
G04 #@! TO.N,/LAN8720/EMAC_TXD1:GPIO22*
X110099515Y-76046519D02*
X110099515Y-97236971D01*
X100402486Y-106934000D02*
X84582006Y-106934000D01*
X110099515Y-97236971D02*
X100402486Y-106934000D01*
X108984694Y-74931698D02*
X110099515Y-76046519D01*
X108984694Y-70593694D02*
X108984694Y-74931698D01*
X107569000Y-69178000D02*
X108984694Y-70593694D01*
G04 #@! TO.N,/LAN8720/MDC:GPIO23*
X110934500Y-101847502D02*
X110934500Y-73215500D01*
X104705002Y-108077000D02*
X110934500Y-101847502D01*
X84582000Y-108077000D02*
X104705002Y-108077000D01*
D27*
G04 #@! TO.N,Net-(J14-Pad2)*
X157209831Y-62422000D02*
X157264830Y-62476999D01*
X164593200Y-62476999D02*
X157264830Y-62476999D01*
X167760769Y-55436976D02*
X167691864Y-55436976D01*
X165544500Y-61525699D02*
X164593200Y-62476999D01*
D24*
X165544500Y-58218930D02*
X165544500Y-61525699D01*
X167760769Y-55436976D02*
X167760769Y-56002661D01*
X167760769Y-56002661D02*
X165544500Y-58218930D01*
D27*
G04 #@! TO.N,Net-(J14-Pad3)*
X156337000Y-61722000D02*
X156273500Y-61658500D01*
X163639500Y-61722000D02*
X164782500Y-60579000D01*
X163639500Y-61722000D02*
X156337000Y-61722000D01*
D24*
X164782500Y-57139840D02*
X164782500Y-60579000D01*
X168003220Y-53919120D02*
X164782500Y-57139840D01*
D28*
G04 #@! TO.N,/sheet5C9DA53F/outA*
X22225000Y-51308000D02*
X22225000Y-87757000D01*
X23622000Y-49911000D02*
X22225000Y-51308000D01*
X35306998Y-49911000D02*
X23622000Y-49911000D01*
X74114000Y-44958000D02*
X74114000Y-43791274D01*
X72745806Y-42423080D02*
X42794918Y-42423080D01*
X42794918Y-42423080D02*
X35306998Y-49911000D01*
X74114000Y-43791274D02*
X72745806Y-42423080D01*
G04 #@! TO.N,/sheet5C9DA53F/outB*
X19524990Y-90644990D02*
X21844000Y-92964000D01*
X21844000Y-92964000D02*
X22860000Y-93980000D01*
X19524990Y-45118010D02*
X19524990Y-90079305D01*
X19524990Y-90079305D02*
X19524990Y-90644990D01*
X24919930Y-39723070D02*
X19524990Y-45118010D01*
X75045796Y-39723070D02*
X24919930Y-39723070D01*
X79114000Y-43791274D02*
X75045796Y-39723070D01*
X79114000Y-44958000D02*
X79114000Y-43791274D01*
D29*
G04 #@! TO.N,Net-(J15-PadR1)*
X106934000Y-54864000D02*
X106426000Y-54864000D01*
G04 #@! TO.N,Net-(J15-PadL1)*
X94615000Y-56230230D02*
X94615000Y-70104000D01*
X94615000Y-70104000D02*
X94996000Y-70485000D01*
X98701501Y-52143729D02*
X94615000Y-56230230D01*
X96164000Y-45144000D02*
X98701501Y-47681501D01*
X98701501Y-47681501D02*
X98701501Y-52143729D01*
G04 #@! TO.N,Net-(J15-PadL3)*
X106274000Y-45144000D02*
X96139000Y-55279000D01*
X96139000Y-55279000D02*
X96139000Y-69977000D01*
D27*
G04 #@! TO.N,/Relais/Enable*
X69149999Y-97125559D02*
X73731120Y-101706680D01*
X69723000Y-69342000D02*
X69149999Y-69915001D01*
X69149999Y-69915001D02*
X69149999Y-97125559D01*
D24*
G04 #@! TO.N,Net-(IC3-Pad13)*
X165100000Y-96837500D02*
X165100000Y-82811080D01*
X165100000Y-82811080D02*
X168180480Y-79730600D01*
G04 #@! TO.N,Net-(IC3-Pad8)*
X167330481Y-83320599D02*
X167321521Y-83320599D01*
X167321521Y-83320599D02*
X165862000Y-84780120D01*
X165862000Y-94361000D02*
X165862000Y-84780120D01*
X168180480Y-82470600D02*
X167330481Y-83320599D01*
G04 #@! TO.N,Net-(IC2-Pad6)*
X121602500Y-50904140D02*
X121640600Y-50866040D01*
X121602500Y-58864500D02*
X121602500Y-50904140D01*
G04 #@! TO.N,Net-(J16-Pad4)*
X167743000Y-76668500D02*
X167743000Y-76351000D01*
D29*
G04 #@! TO.N,/LAN8720/RD+*
X103141499Y-56116501D02*
X104394000Y-54864000D01*
X102522799Y-56116501D02*
X103141499Y-56116501D01*
X101854000Y-64262000D02*
X101854000Y-56785300D01*
X101854000Y-56785300D02*
X102522799Y-56116501D01*
D27*
G04 #@! TO.N,Net-(IC1-Pad12)*
X77439520Y-95651003D02*
X77439520Y-88498680D01*
X76474895Y-96960954D02*
X77439520Y-95996329D01*
X77439520Y-95996329D02*
X77439520Y-95651003D01*
D26*
G04 #@! TO.N,/LAN8720/MDIO*
X84709002Y-99441000D02*
X84645500Y-99377498D01*
D24*
X84709002Y-99441000D02*
X105854500Y-99441000D01*
X105854500Y-99441000D02*
X106346042Y-98949458D01*
X106346042Y-98949458D02*
X106346042Y-76139040D01*
X106346042Y-76139040D02*
X107137200Y-75347882D01*
X107137200Y-75347882D02*
X107137200Y-73578716D01*
G04 #@! TO.N,/PHY_RST*
X105994200Y-71248430D02*
X106394199Y-71648429D01*
X106394199Y-75454473D02*
X105876039Y-75972633D01*
X106394199Y-71648429D02*
X106394199Y-75454473D01*
X105876039Y-82495441D02*
X105267760Y-83103720D01*
X105876039Y-75972633D02*
X105876039Y-82495441D01*
X80015080Y-83413600D02*
X80001968Y-97347048D01*
G04 #@! TO.N,/TXD03*
X84500720Y-92969080D02*
X85787744Y-91682056D01*
X85787744Y-91682056D02*
X85787744Y-87212000D01*
X144590499Y-72801480D02*
X144068938Y-73323041D01*
X144068938Y-73323041D02*
X144068938Y-86728059D01*
X144068938Y-86728059D02*
X144068938Y-87293744D01*
G04 #@! TO.N,/RXD03*
X146585058Y-93521142D02*
X143377920Y-96728280D01*
X147340320Y-75392280D02*
X146585058Y-76147542D01*
X146585058Y-76147542D02*
X146585058Y-93521142D01*
G04 #@! TD*
D30*
G04 #@! TO.N,GND*
G36*
X60960000Y-50165000D02*
X54229000Y-50165000D01*
X54229000Y-45339000D01*
X60960000Y-45339000D01*
X60960000Y-50165000D01*
X60960000Y-50165000D01*
G37*
X60960000Y-50165000D02*
X54229000Y-50165000D01*
X54229000Y-45339000D01*
X60960000Y-45339000D01*
X60960000Y-50165000D01*
G04 #@! TO.N,/powerSupply/V_In_12V*
G36*
X53416200Y-50165000D02*
X52832000Y-50165000D01*
X52783399Y-50174667D01*
X52742197Y-50202197D01*
X52714667Y-50243399D01*
X52705000Y-50292000D01*
X52705000Y-54483000D01*
X49962504Y-54483000D01*
X50011900Y-45542200D01*
X53416200Y-45542200D01*
X53416200Y-50165000D01*
X53416200Y-50165000D01*
G37*
X53416200Y-50165000D02*
X52832000Y-50165000D01*
X52783399Y-50174667D01*
X52742197Y-50202197D01*
X52714667Y-50243399D01*
X52705000Y-50292000D01*
X52705000Y-54483000D01*
X49962504Y-54483000D01*
X50011900Y-45542200D01*
X53416200Y-45542200D01*
X53416200Y-50165000D01*
D31*
G04 #@! TO.N,GND*
G36*
X48537363Y-99354577D02*
X48385367Y-99456137D01*
X48112063Y-99510500D01*
X46660153Y-99510500D01*
X41852195Y-94702543D01*
X41796401Y-94619041D01*
X41465622Y-94398022D01*
X41173931Y-94340001D01*
X41075441Y-94320410D01*
X40976951Y-94340001D01*
X39817212Y-94340001D01*
X39568210Y-94091000D01*
X43273788Y-94091000D01*
X48537363Y-99354577D01*
X48537363Y-99354577D01*
G37*
X48537363Y-99354577D02*
X48385367Y-99456137D01*
X48112063Y-99510500D01*
X46660153Y-99510500D01*
X41852195Y-94702543D01*
X41796401Y-94619041D01*
X41465622Y-94398022D01*
X41173931Y-94340001D01*
X41075441Y-94320410D01*
X40976951Y-94340001D01*
X39817212Y-94340001D01*
X39568210Y-94091000D01*
X43273788Y-94091000D01*
X48537363Y-99354577D01*
G36*
X32276249Y-94904462D02*
X32332039Y-94987959D01*
X32441193Y-95060893D01*
X32662818Y-95208978D01*
X33052998Y-95286590D01*
X33151488Y-95266999D01*
X37915785Y-95266999D01*
X38626246Y-95977461D01*
X38682039Y-96060961D01*
X39012818Y-96281980D01*
X39402999Y-96359592D01*
X39501489Y-96340001D01*
X40661229Y-96340001D01*
X43831727Y-99510500D01*
X36211715Y-99510500D01*
X29900899Y-93199685D01*
X30313230Y-93028893D01*
X30356955Y-92985168D01*
X32276249Y-94904462D01*
X32276249Y-94904462D01*
G37*
X32276249Y-94904462D02*
X32332039Y-94987959D01*
X32441193Y-95060893D01*
X32662818Y-95208978D01*
X33052998Y-95286590D01*
X33151488Y-95266999D01*
X37915785Y-95266999D01*
X38626246Y-95977461D01*
X38682039Y-96060961D01*
X39012818Y-96281980D01*
X39402999Y-96359592D01*
X39501489Y-96340001D01*
X40661229Y-96340001D01*
X43831727Y-99510500D01*
X36211715Y-99510500D01*
X29900899Y-93199685D01*
X30313230Y-93028893D01*
X30356955Y-92985168D01*
X32276249Y-94904462D01*
G36*
X24654000Y-76927010D02*
X24634409Y-77025500D01*
X24685423Y-77281963D01*
X24712021Y-77415680D01*
X24933040Y-77746460D01*
X25016542Y-77802254D01*
X26845749Y-79631463D01*
X26901540Y-79714960D01*
X27232319Y-79935979D01*
X27622499Y-80013591D01*
X27720989Y-79994000D01*
X27971638Y-79994000D01*
X27173025Y-80324796D01*
X26476796Y-81021025D01*
X26100000Y-81930692D01*
X26100000Y-82915308D01*
X26476796Y-83824975D01*
X27173025Y-84521204D01*
X28082692Y-84898000D01*
X29067308Y-84898000D01*
X29976975Y-84521204D01*
X30673204Y-83824975D01*
X31050000Y-82915308D01*
X31050000Y-81930692D01*
X30673204Y-81021025D01*
X29976975Y-80324796D01*
X29178362Y-79994000D01*
X40486286Y-79994000D01*
X40939581Y-80447296D01*
X40892607Y-80494270D01*
X40698500Y-80962887D01*
X40698500Y-81470113D01*
X40892607Y-81938730D01*
X40964127Y-82010250D01*
X40829107Y-82145270D01*
X40635000Y-82613887D01*
X40635000Y-83121113D01*
X40829107Y-83589730D01*
X41091127Y-83851750D01*
X40829107Y-84113770D01*
X40635000Y-84582387D01*
X40635000Y-85089613D01*
X40829107Y-85558230D01*
X41187770Y-85916893D01*
X41197954Y-85921111D01*
X41016000Y-86360387D01*
X41016000Y-86867613D01*
X41210107Y-87336230D01*
X41568770Y-87694893D01*
X42037387Y-87889000D01*
X42544613Y-87889000D01*
X42957750Y-87717874D01*
X43370887Y-87889000D01*
X43878113Y-87889000D01*
X44346730Y-87694893D01*
X44418250Y-87623373D01*
X44426270Y-87631393D01*
X44894887Y-87825500D01*
X45402113Y-87825500D01*
X45870730Y-87631393D01*
X46010132Y-87491991D01*
X46355387Y-87635000D01*
X46862613Y-87635000D01*
X47331230Y-87440893D01*
X47689893Y-87082230D01*
X47884000Y-86613613D01*
X47884000Y-86106387D01*
X47689893Y-85637770D01*
X47331230Y-85279107D01*
X46862613Y-85085000D01*
X46355387Y-85085000D01*
X45886770Y-85279107D01*
X45747368Y-85418509D01*
X45402113Y-85275500D01*
X44894887Y-85275500D01*
X44426270Y-85469607D01*
X44354750Y-85541127D01*
X44346730Y-85533107D01*
X43878113Y-85339000D01*
X43370887Y-85339000D01*
X43021809Y-85483593D01*
X43185000Y-85089613D01*
X43185000Y-84582387D01*
X42990893Y-84113770D01*
X42728873Y-83851750D01*
X42990893Y-83589730D01*
X43185000Y-83121113D01*
X43185000Y-82613887D01*
X42990893Y-82145270D01*
X42919373Y-82073750D01*
X43054393Y-81938730D01*
X43239642Y-81491499D01*
X45152358Y-81491499D01*
X45337607Y-81938730D01*
X45696270Y-82297393D01*
X46164887Y-82491500D01*
X46672113Y-82491500D01*
X47140730Y-82297393D01*
X47499393Y-81938730D01*
X47575289Y-81755501D01*
X48774000Y-82954212D01*
X48774000Y-96762788D01*
X44464754Y-92453542D01*
X44408960Y-92370040D01*
X44078181Y-92149021D01*
X43786490Y-92091000D01*
X43688000Y-92071409D01*
X43589510Y-92091000D01*
X36521607Y-92091000D01*
X36581000Y-91947613D01*
X36581000Y-91440387D01*
X36386893Y-90971770D01*
X36028230Y-90613107D01*
X35559613Y-90419000D01*
X35052387Y-90419000D01*
X34583770Y-90613107D01*
X34225107Y-90971770D01*
X34031000Y-91440387D01*
X34031000Y-91947613D01*
X34099614Y-92113263D01*
X33844107Y-92368770D01*
X33650000Y-92837387D01*
X33650000Y-93266999D01*
X33467213Y-93266999D01*
X33051002Y-92850788D01*
X33234230Y-92774893D01*
X33592893Y-92416230D01*
X33787000Y-91947613D01*
X33787000Y-91440387D01*
X33592893Y-90971770D01*
X33234230Y-90613107D01*
X32765613Y-90419000D01*
X32258387Y-90419000D01*
X31789770Y-90613107D01*
X31431107Y-90971770D01*
X31355211Y-91154998D01*
X29342000Y-89141788D01*
X29342000Y-89027387D01*
X29147893Y-88558770D01*
X28789230Y-88200107D01*
X28320613Y-88006000D01*
X27813387Y-88006000D01*
X27344770Y-88200107D01*
X26986107Y-88558770D01*
X26792000Y-89027387D01*
X26792000Y-89256441D01*
X26582770Y-89343107D01*
X26224107Y-89701770D01*
X26030000Y-90170387D01*
X26030000Y-90677613D01*
X26210206Y-91112671D01*
X26097107Y-91225770D01*
X25903000Y-91694387D01*
X25903000Y-92201613D01*
X26097107Y-92670230D01*
X26455770Y-93028893D01*
X26538000Y-93062954D01*
X26538000Y-93344613D01*
X26732107Y-93813230D01*
X27090770Y-94171893D01*
X27559387Y-94366000D01*
X28066613Y-94366000D01*
X28188361Y-94315571D01*
X33383290Y-99510500D01*
X24785937Y-99510500D01*
X24512633Y-99456137D01*
X24312253Y-99322247D01*
X24178363Y-99121867D01*
X24124000Y-98848563D01*
X24124000Y-95691137D01*
X24392039Y-95512039D01*
X24861706Y-94809133D01*
X25026630Y-93980000D01*
X24861706Y-93150866D01*
X24748822Y-92981923D01*
X24788730Y-92965393D01*
X25147393Y-92606730D01*
X25341500Y-92138113D01*
X25341500Y-91630887D01*
X25170374Y-91217750D01*
X25341500Y-90804613D01*
X25341500Y-90297387D01*
X25147393Y-89828770D01*
X24788730Y-89470107D01*
X24320113Y-89276000D01*
X24124000Y-89276000D01*
X24124000Y-88739844D01*
X24226706Y-88586134D01*
X24350000Y-87966293D01*
X24350000Y-75824000D01*
X24574113Y-75824000D01*
X24654000Y-75790910D01*
X24654000Y-76927010D01*
X24654000Y-76927010D01*
G37*
X24654000Y-76927010D02*
X24634409Y-77025500D01*
X24685423Y-77281963D01*
X24712021Y-77415680D01*
X24933040Y-77746460D01*
X25016542Y-77802254D01*
X26845749Y-79631463D01*
X26901540Y-79714960D01*
X27232319Y-79935979D01*
X27622499Y-80013591D01*
X27720989Y-79994000D01*
X27971638Y-79994000D01*
X27173025Y-80324796D01*
X26476796Y-81021025D01*
X26100000Y-81930692D01*
X26100000Y-82915308D01*
X26476796Y-83824975D01*
X27173025Y-84521204D01*
X28082692Y-84898000D01*
X29067308Y-84898000D01*
X29976975Y-84521204D01*
X30673204Y-83824975D01*
X31050000Y-82915308D01*
X31050000Y-81930692D01*
X30673204Y-81021025D01*
X29976975Y-80324796D01*
X29178362Y-79994000D01*
X40486286Y-79994000D01*
X40939581Y-80447296D01*
X40892607Y-80494270D01*
X40698500Y-80962887D01*
X40698500Y-81470113D01*
X40892607Y-81938730D01*
X40964127Y-82010250D01*
X40829107Y-82145270D01*
X40635000Y-82613887D01*
X40635000Y-83121113D01*
X40829107Y-83589730D01*
X41091127Y-83851750D01*
X40829107Y-84113770D01*
X40635000Y-84582387D01*
X40635000Y-85089613D01*
X40829107Y-85558230D01*
X41187770Y-85916893D01*
X41197954Y-85921111D01*
X41016000Y-86360387D01*
X41016000Y-86867613D01*
X41210107Y-87336230D01*
X41568770Y-87694893D01*
X42037387Y-87889000D01*
X42544613Y-87889000D01*
X42957750Y-87717874D01*
X43370887Y-87889000D01*
X43878113Y-87889000D01*
X44346730Y-87694893D01*
X44418250Y-87623373D01*
X44426270Y-87631393D01*
X44894887Y-87825500D01*
X45402113Y-87825500D01*
X45870730Y-87631393D01*
X46010132Y-87491991D01*
X46355387Y-87635000D01*
X46862613Y-87635000D01*
X47331230Y-87440893D01*
X47689893Y-87082230D01*
X47884000Y-86613613D01*
X47884000Y-86106387D01*
X47689893Y-85637770D01*
X47331230Y-85279107D01*
X46862613Y-85085000D01*
X46355387Y-85085000D01*
X45886770Y-85279107D01*
X45747368Y-85418509D01*
X45402113Y-85275500D01*
X44894887Y-85275500D01*
X44426270Y-85469607D01*
X44354750Y-85541127D01*
X44346730Y-85533107D01*
X43878113Y-85339000D01*
X43370887Y-85339000D01*
X43021809Y-85483593D01*
X43185000Y-85089613D01*
X43185000Y-84582387D01*
X42990893Y-84113770D01*
X42728873Y-83851750D01*
X42990893Y-83589730D01*
X43185000Y-83121113D01*
X43185000Y-82613887D01*
X42990893Y-82145270D01*
X42919373Y-82073750D01*
X43054393Y-81938730D01*
X43239642Y-81491499D01*
X45152358Y-81491499D01*
X45337607Y-81938730D01*
X45696270Y-82297393D01*
X46164887Y-82491500D01*
X46672113Y-82491500D01*
X47140730Y-82297393D01*
X47499393Y-81938730D01*
X47575289Y-81755501D01*
X48774000Y-82954212D01*
X48774000Y-96762788D01*
X44464754Y-92453542D01*
X44408960Y-92370040D01*
X44078181Y-92149021D01*
X43786490Y-92091000D01*
X43688000Y-92071409D01*
X43589510Y-92091000D01*
X36521607Y-92091000D01*
X36581000Y-91947613D01*
X36581000Y-91440387D01*
X36386893Y-90971770D01*
X36028230Y-90613107D01*
X35559613Y-90419000D01*
X35052387Y-90419000D01*
X34583770Y-90613107D01*
X34225107Y-90971770D01*
X34031000Y-91440387D01*
X34031000Y-91947613D01*
X34099614Y-92113263D01*
X33844107Y-92368770D01*
X33650000Y-92837387D01*
X33650000Y-93266999D01*
X33467213Y-93266999D01*
X33051002Y-92850788D01*
X33234230Y-92774893D01*
X33592893Y-92416230D01*
X33787000Y-91947613D01*
X33787000Y-91440387D01*
X33592893Y-90971770D01*
X33234230Y-90613107D01*
X32765613Y-90419000D01*
X32258387Y-90419000D01*
X31789770Y-90613107D01*
X31431107Y-90971770D01*
X31355211Y-91154998D01*
X29342000Y-89141788D01*
X29342000Y-89027387D01*
X29147893Y-88558770D01*
X28789230Y-88200107D01*
X28320613Y-88006000D01*
X27813387Y-88006000D01*
X27344770Y-88200107D01*
X26986107Y-88558770D01*
X26792000Y-89027387D01*
X26792000Y-89256441D01*
X26582770Y-89343107D01*
X26224107Y-89701770D01*
X26030000Y-90170387D01*
X26030000Y-90677613D01*
X26210206Y-91112671D01*
X26097107Y-91225770D01*
X25903000Y-91694387D01*
X25903000Y-92201613D01*
X26097107Y-92670230D01*
X26455770Y-93028893D01*
X26538000Y-93062954D01*
X26538000Y-93344613D01*
X26732107Y-93813230D01*
X27090770Y-94171893D01*
X27559387Y-94366000D01*
X28066613Y-94366000D01*
X28188361Y-94315571D01*
X33383290Y-99510500D01*
X24785937Y-99510500D01*
X24512633Y-99456137D01*
X24312253Y-99322247D01*
X24178363Y-99121867D01*
X24124000Y-98848563D01*
X24124000Y-95691137D01*
X24392039Y-95512039D01*
X24861706Y-94809133D01*
X25026630Y-93980000D01*
X24861706Y-93150866D01*
X24748822Y-92981923D01*
X24788730Y-92965393D01*
X25147393Y-92606730D01*
X25341500Y-92138113D01*
X25341500Y-91630887D01*
X25170374Y-91217750D01*
X25341500Y-90804613D01*
X25341500Y-90297387D01*
X25147393Y-89828770D01*
X24788730Y-89470107D01*
X24320113Y-89276000D01*
X24124000Y-89276000D01*
X24124000Y-88739844D01*
X24226706Y-88586134D01*
X24350000Y-87966293D01*
X24350000Y-75824000D01*
X24574113Y-75824000D01*
X24654000Y-75790910D01*
X24654000Y-76927010D01*
G36*
X42794000Y-52324387D02*
X42794000Y-52831613D01*
X42988107Y-53300230D01*
X43346770Y-53658893D01*
X43815387Y-53853000D01*
X44322613Y-53853000D01*
X44791230Y-53658893D01*
X45149893Y-53300230D01*
X45297866Y-52942989D01*
X45632770Y-53277893D01*
X46101387Y-53472000D01*
X46608613Y-53472000D01*
X47077230Y-53277893D01*
X47307500Y-53047623D01*
X47537770Y-53277893D01*
X48006387Y-53472000D01*
X48513613Y-53472000D01*
X48774000Y-53364144D01*
X48774000Y-53696856D01*
X48513613Y-53589000D01*
X48006387Y-53589000D01*
X47537770Y-53783107D01*
X47371000Y-53949877D01*
X47204230Y-53783107D01*
X46735613Y-53589000D01*
X46228387Y-53589000D01*
X45759770Y-53783107D01*
X45401107Y-54141770D01*
X45207000Y-54610387D01*
X45207000Y-55117613D01*
X45401107Y-55586230D01*
X45759770Y-55944893D01*
X46228387Y-56139000D01*
X46735613Y-56139000D01*
X47204230Y-55944893D01*
X47371000Y-55778123D01*
X47537770Y-55944893D01*
X48006387Y-56139000D01*
X48513613Y-56139000D01*
X48774000Y-56031144D01*
X48774000Y-70416500D01*
X48387387Y-70416500D01*
X47918770Y-70610607D01*
X47560107Y-70969270D01*
X47366000Y-71437887D01*
X47366000Y-71945113D01*
X47560107Y-72413730D01*
X47918770Y-72772393D01*
X48387387Y-72966500D01*
X48774000Y-72966500D01*
X48774000Y-76506288D01*
X47449254Y-75181542D01*
X47393460Y-75098040D01*
X47062681Y-74877021D01*
X46770990Y-74819000D01*
X46715690Y-74808000D01*
X47053113Y-74808000D01*
X47521730Y-74613893D01*
X47880393Y-74255230D01*
X48074500Y-73786613D01*
X48074500Y-73279387D01*
X47880393Y-72810770D01*
X47521730Y-72452107D01*
X47053113Y-72258000D01*
X46545887Y-72258000D01*
X46077270Y-72452107D01*
X45974000Y-72555377D01*
X45870730Y-72452107D01*
X45402113Y-72258000D01*
X44894887Y-72258000D01*
X44426270Y-72452107D01*
X44386500Y-72491877D01*
X44346730Y-72452107D01*
X43878113Y-72258000D01*
X43370887Y-72258000D01*
X42902270Y-72452107D01*
X42799000Y-72555377D01*
X42695730Y-72452107D01*
X42227113Y-72258000D01*
X41719887Y-72258000D01*
X41251270Y-72452107D01*
X40892607Y-72810770D01*
X40698500Y-73279387D01*
X40698500Y-73786613D01*
X40882778Y-74231500D01*
X40698500Y-74676387D01*
X40698500Y-74819000D01*
X36753991Y-74819000D01*
X36753991Y-59410981D01*
X36773582Y-59312491D01*
X36695970Y-58922311D01*
X36695970Y-58922310D01*
X36474951Y-58591531D01*
X36391452Y-58535739D01*
X36390500Y-58534787D01*
X36390500Y-58420387D01*
X36196393Y-57951770D01*
X36165392Y-57920769D01*
X36327000Y-57530613D01*
X36327000Y-57023387D01*
X36132893Y-56554770D01*
X35774230Y-56196107D01*
X35305613Y-56002000D01*
X34798387Y-56002000D01*
X34329770Y-56196107D01*
X33971107Y-56554770D01*
X33777000Y-57023387D01*
X33777000Y-57530613D01*
X33971107Y-57999230D01*
X34002108Y-58030231D01*
X33840500Y-58420387D01*
X33840500Y-58927613D01*
X34034607Y-59396230D01*
X34393270Y-59754893D01*
X34753991Y-59904308D01*
X34753992Y-72950358D01*
X34306760Y-73135607D01*
X33948097Y-73494270D01*
X33753990Y-73962887D01*
X33753990Y-74470113D01*
X33948097Y-74938730D01*
X34038622Y-75029255D01*
X33971107Y-75096770D01*
X33777000Y-75565387D01*
X33777000Y-75644500D01*
X32932711Y-75644500D01*
X32840001Y-75551791D01*
X32840001Y-62799491D01*
X32859592Y-62701001D01*
X32781980Y-62310821D01*
X32781980Y-62310820D01*
X32560961Y-61980041D01*
X32477461Y-61924249D01*
X29372406Y-58819194D01*
X29345478Y-58683818D01*
X29338918Y-58674000D01*
X29278500Y-58583578D01*
X29278500Y-58420387D01*
X29225142Y-58291568D01*
X29678230Y-58103893D01*
X30036893Y-57745230D01*
X30231000Y-57276613D01*
X30231000Y-56769387D01*
X30036893Y-56300770D01*
X29678230Y-55942107D01*
X29209613Y-55748000D01*
X28702387Y-55748000D01*
X28551117Y-55810658D01*
X28385893Y-55411770D01*
X28302287Y-55328164D01*
X28389500Y-55117613D01*
X28389500Y-54610387D01*
X28195393Y-54141770D01*
X27836730Y-53783107D01*
X27368113Y-53589000D01*
X26860887Y-53589000D01*
X26392270Y-53783107D01*
X26033607Y-54141770D01*
X25839500Y-54610387D01*
X25839500Y-54724787D01*
X25181705Y-55382582D01*
X24852230Y-55053107D01*
X24383613Y-54859000D01*
X24350000Y-54859000D01*
X24350000Y-52188203D01*
X24502204Y-52036000D01*
X35097709Y-52036000D01*
X35306998Y-52077630D01*
X35516287Y-52036000D01*
X35516291Y-52036000D01*
X36013998Y-51937000D01*
X42954461Y-51937000D01*
X42794000Y-52324387D01*
X42794000Y-52324387D01*
G37*
X42794000Y-52324387D02*
X42794000Y-52831613D01*
X42988107Y-53300230D01*
X43346770Y-53658893D01*
X43815387Y-53853000D01*
X44322613Y-53853000D01*
X44791230Y-53658893D01*
X45149893Y-53300230D01*
X45297866Y-52942989D01*
X45632770Y-53277893D01*
X46101387Y-53472000D01*
X46608613Y-53472000D01*
X47077230Y-53277893D01*
X47307500Y-53047623D01*
X47537770Y-53277893D01*
X48006387Y-53472000D01*
X48513613Y-53472000D01*
X48774000Y-53364144D01*
X48774000Y-53696856D01*
X48513613Y-53589000D01*
X48006387Y-53589000D01*
X47537770Y-53783107D01*
X47371000Y-53949877D01*
X47204230Y-53783107D01*
X46735613Y-53589000D01*
X46228387Y-53589000D01*
X45759770Y-53783107D01*
X45401107Y-54141770D01*
X45207000Y-54610387D01*
X45207000Y-55117613D01*
X45401107Y-55586230D01*
X45759770Y-55944893D01*
X46228387Y-56139000D01*
X46735613Y-56139000D01*
X47204230Y-55944893D01*
X47371000Y-55778123D01*
X47537770Y-55944893D01*
X48006387Y-56139000D01*
X48513613Y-56139000D01*
X48774000Y-56031144D01*
X48774000Y-70416500D01*
X48387387Y-70416500D01*
X47918770Y-70610607D01*
X47560107Y-70969270D01*
X47366000Y-71437887D01*
X47366000Y-71945113D01*
X47560107Y-72413730D01*
X47918770Y-72772393D01*
X48387387Y-72966500D01*
X48774000Y-72966500D01*
X48774000Y-76506288D01*
X47449254Y-75181542D01*
X47393460Y-75098040D01*
X47062681Y-74877021D01*
X46770990Y-74819000D01*
X46715690Y-74808000D01*
X47053113Y-74808000D01*
X47521730Y-74613893D01*
X47880393Y-74255230D01*
X48074500Y-73786613D01*
X48074500Y-73279387D01*
X47880393Y-72810770D01*
X47521730Y-72452107D01*
X47053113Y-72258000D01*
X46545887Y-72258000D01*
X46077270Y-72452107D01*
X45974000Y-72555377D01*
X45870730Y-72452107D01*
X45402113Y-72258000D01*
X44894887Y-72258000D01*
X44426270Y-72452107D01*
X44386500Y-72491877D01*
X44346730Y-72452107D01*
X43878113Y-72258000D01*
X43370887Y-72258000D01*
X42902270Y-72452107D01*
X42799000Y-72555377D01*
X42695730Y-72452107D01*
X42227113Y-72258000D01*
X41719887Y-72258000D01*
X41251270Y-72452107D01*
X40892607Y-72810770D01*
X40698500Y-73279387D01*
X40698500Y-73786613D01*
X40882778Y-74231500D01*
X40698500Y-74676387D01*
X40698500Y-74819000D01*
X36753991Y-74819000D01*
X36753991Y-59410981D01*
X36773582Y-59312491D01*
X36695970Y-58922311D01*
X36695970Y-58922310D01*
X36474951Y-58591531D01*
X36391452Y-58535739D01*
X36390500Y-58534787D01*
X36390500Y-58420387D01*
X36196393Y-57951770D01*
X36165392Y-57920769D01*
X36327000Y-57530613D01*
X36327000Y-57023387D01*
X36132893Y-56554770D01*
X35774230Y-56196107D01*
X35305613Y-56002000D01*
X34798387Y-56002000D01*
X34329770Y-56196107D01*
X33971107Y-56554770D01*
X33777000Y-57023387D01*
X33777000Y-57530613D01*
X33971107Y-57999230D01*
X34002108Y-58030231D01*
X33840500Y-58420387D01*
X33840500Y-58927613D01*
X34034607Y-59396230D01*
X34393270Y-59754893D01*
X34753991Y-59904308D01*
X34753992Y-72950358D01*
X34306760Y-73135607D01*
X33948097Y-73494270D01*
X33753990Y-73962887D01*
X33753990Y-74470113D01*
X33948097Y-74938730D01*
X34038622Y-75029255D01*
X33971107Y-75096770D01*
X33777000Y-75565387D01*
X33777000Y-75644500D01*
X32932711Y-75644500D01*
X32840001Y-75551791D01*
X32840001Y-62799491D01*
X32859592Y-62701001D01*
X32781980Y-62310821D01*
X32781980Y-62310820D01*
X32560961Y-61980041D01*
X32477461Y-61924249D01*
X29372406Y-58819194D01*
X29345478Y-58683818D01*
X29338918Y-58674000D01*
X29278500Y-58583578D01*
X29278500Y-58420387D01*
X29225142Y-58291568D01*
X29678230Y-58103893D01*
X30036893Y-57745230D01*
X30231000Y-57276613D01*
X30231000Y-56769387D01*
X30036893Y-56300770D01*
X29678230Y-55942107D01*
X29209613Y-55748000D01*
X28702387Y-55748000D01*
X28551117Y-55810658D01*
X28385893Y-55411770D01*
X28302287Y-55328164D01*
X28389500Y-55117613D01*
X28389500Y-54610387D01*
X28195393Y-54141770D01*
X27836730Y-53783107D01*
X27368113Y-53589000D01*
X26860887Y-53589000D01*
X26392270Y-53783107D01*
X26033607Y-54141770D01*
X25839500Y-54610387D01*
X25839500Y-54724787D01*
X25181705Y-55382582D01*
X24852230Y-55053107D01*
X24383613Y-54859000D01*
X24350000Y-54859000D01*
X24350000Y-52188203D01*
X24502204Y-52036000D01*
X35097709Y-52036000D01*
X35306998Y-52077630D01*
X35516287Y-52036000D01*
X35516291Y-52036000D01*
X36013998Y-51937000D01*
X42954461Y-51937000D01*
X42794000Y-52324387D01*
G36*
X26030000Y-57657613D02*
X26224107Y-58126230D01*
X26582770Y-58484893D01*
X26728500Y-58545256D01*
X26728500Y-58927613D01*
X26922607Y-59396230D01*
X27281270Y-59754893D01*
X27623083Y-59896476D01*
X27682539Y-59985459D01*
X27766041Y-60041253D01*
X30840002Y-63115215D01*
X30840002Y-64532711D01*
X30673204Y-64130025D01*
X29976975Y-63433796D01*
X29067308Y-63057000D01*
X28082692Y-63057000D01*
X27173025Y-63433796D01*
X26476796Y-64130025D01*
X26100000Y-65039692D01*
X26100000Y-66024308D01*
X26476796Y-66933975D01*
X27173025Y-67630204D01*
X28082692Y-68007000D01*
X29067308Y-68007000D01*
X29976975Y-67630204D01*
X30673204Y-66933975D01*
X30840002Y-66531289D01*
X30840001Y-74966003D01*
X30290322Y-74966003D01*
X30358000Y-74802613D01*
X30358000Y-74295387D01*
X30163893Y-73826770D01*
X29805230Y-73468107D01*
X29336613Y-73274000D01*
X28829387Y-73274000D01*
X28707000Y-73324694D01*
X28707000Y-73025387D01*
X28512893Y-72556770D01*
X28154230Y-72198107D01*
X27685613Y-72004000D01*
X27178387Y-72004000D01*
X26709770Y-72198107D01*
X26359900Y-72547977D01*
X26291460Y-72502247D01*
X25862023Y-72072811D01*
X25855001Y-72037509D01*
X25855001Y-57537711D01*
X26030000Y-57362712D01*
X26030000Y-57657613D01*
X26030000Y-57657613D01*
G37*
X26030000Y-57657613D02*
X26224107Y-58126230D01*
X26582770Y-58484893D01*
X26728500Y-58545256D01*
X26728500Y-58927613D01*
X26922607Y-59396230D01*
X27281270Y-59754893D01*
X27623083Y-59896476D01*
X27682539Y-59985459D01*
X27766041Y-60041253D01*
X30840002Y-63115215D01*
X30840002Y-64532711D01*
X30673204Y-64130025D01*
X29976975Y-63433796D01*
X29067308Y-63057000D01*
X28082692Y-63057000D01*
X27173025Y-63433796D01*
X26476796Y-64130025D01*
X26100000Y-65039692D01*
X26100000Y-66024308D01*
X26476796Y-66933975D01*
X27173025Y-67630204D01*
X28082692Y-68007000D01*
X29067308Y-68007000D01*
X29976975Y-67630204D01*
X30673204Y-66933975D01*
X30840002Y-66531289D01*
X30840001Y-74966003D01*
X30290322Y-74966003D01*
X30358000Y-74802613D01*
X30358000Y-74295387D01*
X30163893Y-73826770D01*
X29805230Y-73468107D01*
X29336613Y-73274000D01*
X28829387Y-73274000D01*
X28707000Y-73324694D01*
X28707000Y-73025387D01*
X28512893Y-72556770D01*
X28154230Y-72198107D01*
X27685613Y-72004000D01*
X27178387Y-72004000D01*
X26709770Y-72198107D01*
X26359900Y-72547977D01*
X26291460Y-72502247D01*
X25862023Y-72072811D01*
X25855001Y-72037509D01*
X25855001Y-57537711D01*
X26030000Y-57362712D01*
X26030000Y-57657613D01*
G04 #@! TD*
M02*
