G04 #@! TF.GenerationSoftware,KiCad,Pcbnew,5.0.2-bee76a0~70~ubuntu18.04.1*
G04 #@! TF.CreationDate,2019-09-07T22:00:11+02:00*
G04 #@! TF.ProjectId,mainPCB,6d61696e-5043-4422-9e6b-696361645f70,rev?*
G04 #@! TF.SameCoordinates,Original*
G04 #@! TF.FileFunction,Soldermask,Bot*
G04 #@! TF.FilePolarity,Negative*
%FSLAX46Y46*%
G04 Gerber Fmt 4.6, Leading zero omitted, Abs format (unit mm)*
G04 Created by KiCad (PCBNEW 5.0.2-bee76a0~70~ubuntu18.04.1) date Sa 07 Sep 2019 22:00:11 CEST*
%MOMM*%
%LPD*%
G01*
G04 APERTURE LIST*
%ADD10C,0.150000*%
%ADD11C,0.100000*%
G04 APERTURE END LIST*
D10*
X17462500Y-37465000D02*
X17462500Y-110617000D01*
X177482500Y-37465000D02*
X17462500Y-37465000D01*
X177482500Y-110617000D02*
X177482500Y-37465000D01*
X17462500Y-110617000D02*
X177482500Y-110617000D01*
D11*
G36*
X148528948Y-104182512D02*
X148687371Y-104214025D01*
X148985831Y-104337651D01*
X149254439Y-104517129D01*
X149482871Y-104745561D01*
X149662349Y-105014169D01*
X149785975Y-105312629D01*
X149849000Y-105629475D01*
X149849000Y-105952525D01*
X149785975Y-106269371D01*
X149662349Y-106567831D01*
X149482871Y-106836439D01*
X149254439Y-107064871D01*
X148985831Y-107244349D01*
X148687371Y-107367975D01*
X148528948Y-107399488D01*
X148370526Y-107431000D01*
X148047474Y-107431000D01*
X147889052Y-107399488D01*
X147730629Y-107367975D01*
X147432169Y-107244349D01*
X147163561Y-107064871D01*
X146935129Y-106836439D01*
X146755651Y-106567831D01*
X146632025Y-106269371D01*
X146569000Y-105952525D01*
X146569000Y-105629475D01*
X146632025Y-105312629D01*
X146755651Y-105014169D01*
X146935129Y-104745561D01*
X147163561Y-104517129D01*
X147432169Y-104337651D01*
X147730629Y-104214025D01*
X147889052Y-104182513D01*
X148047474Y-104151000D01*
X148370526Y-104151000D01*
X148528948Y-104182512D01*
X148528948Y-104182512D01*
G37*
G36*
X170543747Y-102754080D02*
X170755300Y-102796161D01*
X171153854Y-102961247D01*
X171512543Y-103200916D01*
X171817584Y-103505957D01*
X172057253Y-103864646D01*
X172222339Y-104263200D01*
X172306500Y-104686305D01*
X172306500Y-105117695D01*
X172222339Y-105540800D01*
X172057253Y-105939354D01*
X171817584Y-106298043D01*
X171512543Y-106603084D01*
X171153854Y-106842753D01*
X170755300Y-107007839D01*
X170543747Y-107049920D01*
X170332196Y-107092000D01*
X169900804Y-107092000D01*
X169689253Y-107049920D01*
X169477700Y-107007839D01*
X169079146Y-106842753D01*
X168720457Y-106603084D01*
X168415416Y-106298043D01*
X168175747Y-105939354D01*
X168010661Y-105540800D01*
X167926500Y-105117695D01*
X167926500Y-104686305D01*
X168010661Y-104263200D01*
X168175747Y-103864646D01*
X168415416Y-103505957D01*
X168720457Y-103200916D01*
X169079146Y-102961247D01*
X169477700Y-102796161D01*
X169689253Y-102754080D01*
X169900804Y-102712000D01*
X170332196Y-102712000D01*
X170543747Y-102754080D01*
X170543747Y-102754080D01*
G37*
G36*
X28748247Y-102754080D02*
X28959800Y-102796161D01*
X29358354Y-102961247D01*
X29717043Y-103200916D01*
X30022084Y-103505957D01*
X30261753Y-103864646D01*
X30426839Y-104263200D01*
X30511000Y-104686305D01*
X30511000Y-105117695D01*
X30426839Y-105540800D01*
X30261753Y-105939354D01*
X30022084Y-106298043D01*
X29717043Y-106603084D01*
X29358354Y-106842753D01*
X28959800Y-107007839D01*
X28748247Y-107049920D01*
X28536696Y-107092000D01*
X28105304Y-107092000D01*
X27893753Y-107049920D01*
X27682200Y-107007839D01*
X27283646Y-106842753D01*
X26924957Y-106603084D01*
X26619916Y-106298043D01*
X26380247Y-105939354D01*
X26215161Y-105540800D01*
X26131000Y-105117695D01*
X26131000Y-104686305D01*
X26215161Y-104263200D01*
X26380247Y-103864646D01*
X26619916Y-103505957D01*
X26924957Y-103200916D01*
X27283646Y-102961247D01*
X27682200Y-102796161D01*
X27893753Y-102754080D01*
X28105304Y-102712000D01*
X28536696Y-102712000D01*
X28748247Y-102754080D01*
X28748247Y-102754080D01*
G37*
G36*
X164339000Y-104141000D02*
X162559000Y-104141000D01*
X162559000Y-102361000D01*
X164339000Y-102361000D01*
X164339000Y-104141000D01*
X164339000Y-104141000D01*
G37*
G36*
X163623474Y-99833878D02*
X163791233Y-99884768D01*
X163791236Y-99884769D01*
X163945850Y-99967412D01*
X164081370Y-100078630D01*
X164192588Y-100214150D01*
X164275231Y-100368764D01*
X164275232Y-100368767D01*
X164326122Y-100536526D01*
X164343306Y-100711000D01*
X164326122Y-100885474D01*
X164275232Y-101053233D01*
X164275231Y-101053236D01*
X164192588Y-101207850D01*
X164081370Y-101343370D01*
X163945850Y-101454588D01*
X163791236Y-101537231D01*
X163791233Y-101537232D01*
X163623474Y-101588122D01*
X163492719Y-101601000D01*
X163405281Y-101601000D01*
X163274526Y-101588122D01*
X163106767Y-101537232D01*
X163106764Y-101537231D01*
X162952150Y-101454588D01*
X162816630Y-101343370D01*
X162705412Y-101207850D01*
X162622769Y-101053236D01*
X162622768Y-101053233D01*
X162571878Y-100885474D01*
X162554694Y-100711000D01*
X162571878Y-100536526D01*
X162622768Y-100368767D01*
X162622769Y-100368764D01*
X162705412Y-100214150D01*
X162816630Y-100078630D01*
X162952150Y-99967412D01*
X163106764Y-99884769D01*
X163106767Y-99884768D01*
X163274526Y-99833878D01*
X163405281Y-99821000D01*
X163492719Y-99821000D01*
X163623474Y-99833878D01*
X163623474Y-99833878D01*
G37*
G36*
X139810974Y-98817878D02*
X139978733Y-98868768D01*
X139978736Y-98868769D01*
X140133350Y-98951412D01*
X140268870Y-99062630D01*
X140380088Y-99198150D01*
X140462731Y-99352764D01*
X140462732Y-99352767D01*
X140513622Y-99520526D01*
X140530806Y-99695000D01*
X140513622Y-99869474D01*
X140462732Y-100037233D01*
X140462731Y-100037236D01*
X140380088Y-100191850D01*
X140268870Y-100327370D01*
X140133350Y-100438588D01*
X139978736Y-100521231D01*
X139978733Y-100521232D01*
X139810974Y-100572122D01*
X139680219Y-100585000D01*
X139592781Y-100585000D01*
X139462026Y-100572122D01*
X139294267Y-100521232D01*
X139294264Y-100521231D01*
X139139650Y-100438588D01*
X139004130Y-100327370D01*
X138892912Y-100191850D01*
X138810269Y-100037236D01*
X138810268Y-100037233D01*
X138759378Y-99869474D01*
X138742194Y-99695000D01*
X138759378Y-99520526D01*
X138810268Y-99352767D01*
X138810269Y-99352764D01*
X138892912Y-99198150D01*
X139004130Y-99062630D01*
X139139650Y-98951412D01*
X139294264Y-98868769D01*
X139294267Y-98868768D01*
X139462026Y-98817878D01*
X139592781Y-98805000D01*
X139680219Y-98805000D01*
X139810974Y-98817878D01*
X139810974Y-98817878D01*
G37*
G36*
X143066500Y-100585000D02*
X141286500Y-100585000D01*
X141286500Y-98805000D01*
X143066500Y-98805000D01*
X143066500Y-100585000D01*
X143066500Y-100585000D01*
G37*
G36*
X137270974Y-98817878D02*
X137438733Y-98868768D01*
X137438736Y-98868769D01*
X137593350Y-98951412D01*
X137728870Y-99062630D01*
X137840088Y-99198150D01*
X137922731Y-99352764D01*
X137922732Y-99352767D01*
X137973622Y-99520526D01*
X137990806Y-99695000D01*
X137973622Y-99869474D01*
X137922732Y-100037233D01*
X137922731Y-100037236D01*
X137840088Y-100191850D01*
X137728870Y-100327370D01*
X137593350Y-100438588D01*
X137438736Y-100521231D01*
X137438733Y-100521232D01*
X137270974Y-100572122D01*
X137140219Y-100585000D01*
X137052781Y-100585000D01*
X136922026Y-100572122D01*
X136754267Y-100521232D01*
X136754264Y-100521231D01*
X136599650Y-100438588D01*
X136464130Y-100327370D01*
X136352912Y-100191850D01*
X136270269Y-100037236D01*
X136270268Y-100037233D01*
X136219378Y-99869474D01*
X136202194Y-99695000D01*
X136219378Y-99520526D01*
X136270268Y-99352767D01*
X136270269Y-99352764D01*
X136352912Y-99198150D01*
X136464130Y-99062630D01*
X136599650Y-98951412D01*
X136754264Y-98868769D01*
X136754267Y-98868768D01*
X136922026Y-98817878D01*
X137052781Y-98805000D01*
X137140219Y-98805000D01*
X137270974Y-98817878D01*
X137270974Y-98817878D01*
G37*
G36*
X134730974Y-98817878D02*
X134898733Y-98868768D01*
X134898736Y-98868769D01*
X135053350Y-98951412D01*
X135188870Y-99062630D01*
X135300088Y-99198150D01*
X135382731Y-99352764D01*
X135382732Y-99352767D01*
X135433622Y-99520526D01*
X135450806Y-99695000D01*
X135433622Y-99869474D01*
X135382732Y-100037233D01*
X135382731Y-100037236D01*
X135300088Y-100191850D01*
X135188870Y-100327370D01*
X135053350Y-100438588D01*
X134898736Y-100521231D01*
X134898733Y-100521232D01*
X134730974Y-100572122D01*
X134600219Y-100585000D01*
X134512781Y-100585000D01*
X134382026Y-100572122D01*
X134214267Y-100521232D01*
X134214264Y-100521231D01*
X134059650Y-100438588D01*
X133924130Y-100327370D01*
X133812912Y-100191850D01*
X133730269Y-100037236D01*
X133730268Y-100037233D01*
X133679378Y-99869474D01*
X133662194Y-99695000D01*
X133679378Y-99520526D01*
X133730268Y-99352767D01*
X133730269Y-99352764D01*
X133812912Y-99198150D01*
X133924130Y-99062630D01*
X134059650Y-98951412D01*
X134214264Y-98868769D01*
X134214267Y-98868768D01*
X134382026Y-98817878D01*
X134512781Y-98805000D01*
X134600219Y-98805000D01*
X134730974Y-98817878D01*
X134730974Y-98817878D01*
G37*
G36*
X163623474Y-97293878D02*
X163791233Y-97344768D01*
X163791236Y-97344769D01*
X163945850Y-97427412D01*
X164081370Y-97538630D01*
X164192588Y-97674150D01*
X164275231Y-97828764D01*
X164275232Y-97828767D01*
X164326122Y-97996526D01*
X164343306Y-98171000D01*
X164326122Y-98345474D01*
X164275232Y-98513233D01*
X164275231Y-98513236D01*
X164192588Y-98667850D01*
X164081370Y-98803370D01*
X163945850Y-98914588D01*
X163791236Y-98997231D01*
X163791233Y-98997232D01*
X163623474Y-99048122D01*
X163492719Y-99061000D01*
X163405281Y-99061000D01*
X163274526Y-99048122D01*
X163106767Y-98997232D01*
X163106764Y-98997231D01*
X162952150Y-98914588D01*
X162816630Y-98803370D01*
X162705412Y-98667850D01*
X162622769Y-98513236D01*
X162622768Y-98513233D01*
X162571878Y-98345474D01*
X162554694Y-98171000D01*
X162571878Y-97996526D01*
X162622768Y-97828767D01*
X162622769Y-97828764D01*
X162705412Y-97674150D01*
X162816630Y-97538630D01*
X162952150Y-97427412D01*
X163106764Y-97344769D01*
X163106767Y-97344768D01*
X163274526Y-97293878D01*
X163405281Y-97281000D01*
X163492719Y-97281000D01*
X163623474Y-97293878D01*
X163623474Y-97293878D01*
G37*
G36*
X163623474Y-94753878D02*
X163791233Y-94804768D01*
X163791236Y-94804769D01*
X163945850Y-94887412D01*
X164081370Y-94998630D01*
X164192588Y-95134150D01*
X164275231Y-95288764D01*
X164275232Y-95288767D01*
X164326122Y-95456526D01*
X164343306Y-95631000D01*
X164326122Y-95805474D01*
X164275232Y-95973233D01*
X164275231Y-95973236D01*
X164192588Y-96127850D01*
X164081370Y-96263370D01*
X163945850Y-96374588D01*
X163791236Y-96457231D01*
X163791233Y-96457232D01*
X163623474Y-96508122D01*
X163492719Y-96521000D01*
X163405281Y-96521000D01*
X163274526Y-96508122D01*
X163106767Y-96457232D01*
X163106764Y-96457231D01*
X162952150Y-96374588D01*
X162816630Y-96263370D01*
X162705412Y-96127850D01*
X162622769Y-95973236D01*
X162622768Y-95973233D01*
X162571878Y-95805474D01*
X162554694Y-95631000D01*
X162571878Y-95456526D01*
X162622768Y-95288767D01*
X162622769Y-95288764D01*
X162705412Y-95134150D01*
X162816630Y-94998630D01*
X162952150Y-94887412D01*
X163106764Y-94804769D01*
X163106767Y-94804768D01*
X163274526Y-94753878D01*
X163405281Y-94741000D01*
X163492719Y-94741000D01*
X163623474Y-94753878D01*
X163623474Y-94753878D01*
G37*
G36*
X170283033Y-89975525D02*
X170708886Y-90151919D01*
X170862397Y-90254492D01*
X171092143Y-90408003D01*
X171418077Y-90733937D01*
X171524515Y-90893233D01*
X171674161Y-91117194D01*
X171850555Y-91543047D01*
X171940480Y-91995130D01*
X171940480Y-92456070D01*
X171850555Y-92908153D01*
X171674161Y-93334006D01*
X171607859Y-93433233D01*
X171418077Y-93717263D01*
X171092143Y-94043197D01*
X170862397Y-94196708D01*
X170708886Y-94299281D01*
X170283033Y-94475675D01*
X169830950Y-94565600D01*
X169370010Y-94565600D01*
X168917927Y-94475675D01*
X168492074Y-94299281D01*
X168338563Y-94196708D01*
X168108817Y-94043197D01*
X167782883Y-93717263D01*
X167593101Y-93433233D01*
X167526799Y-93334006D01*
X167350405Y-92908153D01*
X167260480Y-92456070D01*
X167260480Y-91995130D01*
X167350405Y-91543047D01*
X167526799Y-91117194D01*
X167676445Y-90893233D01*
X167782883Y-90733937D01*
X168108817Y-90408003D01*
X168338563Y-90254492D01*
X168492074Y-90151919D01*
X168917927Y-89975525D01*
X169370010Y-89885600D01*
X169830950Y-89885600D01*
X170283033Y-89975525D01*
X170283033Y-89975525D01*
G37*
G36*
X163623474Y-92213878D02*
X163791233Y-92264768D01*
X163791236Y-92264769D01*
X163945850Y-92347412D01*
X164081370Y-92458630D01*
X164192588Y-92594150D01*
X164275231Y-92748764D01*
X164275232Y-92748767D01*
X164326122Y-92916526D01*
X164343306Y-93091000D01*
X164326122Y-93265474D01*
X164275232Y-93433233D01*
X164275231Y-93433236D01*
X164192588Y-93587850D01*
X164081370Y-93723370D01*
X163945850Y-93834588D01*
X163791236Y-93917231D01*
X163791233Y-93917232D01*
X163623474Y-93968122D01*
X163492719Y-93981000D01*
X163405281Y-93981000D01*
X163274526Y-93968122D01*
X163106767Y-93917232D01*
X163106764Y-93917231D01*
X162952150Y-93834588D01*
X162816630Y-93723370D01*
X162705412Y-93587850D01*
X162622769Y-93433236D01*
X162622768Y-93433233D01*
X162571878Y-93265474D01*
X162554694Y-93091000D01*
X162571878Y-92916526D01*
X162622768Y-92748767D01*
X162622769Y-92748764D01*
X162705412Y-92594150D01*
X162816630Y-92458630D01*
X162952150Y-92347412D01*
X163106764Y-92264769D01*
X163106767Y-92264768D01*
X163274526Y-92213878D01*
X163405281Y-92201000D01*
X163492719Y-92201000D01*
X163623474Y-92213878D01*
X163623474Y-92213878D01*
G37*
G36*
X163623474Y-89673878D02*
X163791233Y-89724768D01*
X163791236Y-89724769D01*
X163945850Y-89807412D01*
X164081370Y-89918630D01*
X164192588Y-90054150D01*
X164275231Y-90208764D01*
X164275232Y-90208767D01*
X164326122Y-90376526D01*
X164343306Y-90551000D01*
X164326122Y-90725474D01*
X164275232Y-90893233D01*
X164275231Y-90893236D01*
X164192588Y-91047850D01*
X164081370Y-91183370D01*
X163945850Y-91294588D01*
X163791236Y-91377231D01*
X163791233Y-91377232D01*
X163623474Y-91428122D01*
X163492719Y-91441000D01*
X163405281Y-91441000D01*
X163274526Y-91428122D01*
X163106767Y-91377232D01*
X163106764Y-91377231D01*
X162952150Y-91294588D01*
X162816630Y-91183370D01*
X162705412Y-91047850D01*
X162622769Y-90893236D01*
X162622768Y-90893233D01*
X162571878Y-90725474D01*
X162554694Y-90551000D01*
X162571878Y-90376526D01*
X162622768Y-90208767D01*
X162622769Y-90208764D01*
X162705412Y-90054150D01*
X162816630Y-89918630D01*
X162952150Y-89807412D01*
X163106764Y-89724769D01*
X163106767Y-89724768D01*
X163274526Y-89673878D01*
X163405281Y-89661000D01*
X163492719Y-89661000D01*
X163623474Y-89673878D01*
X163623474Y-89673878D01*
G37*
G36*
X163623474Y-87133878D02*
X163791233Y-87184768D01*
X163791236Y-87184769D01*
X163945850Y-87267412D01*
X164081370Y-87378630D01*
X164192588Y-87514150D01*
X164275231Y-87668764D01*
X164275232Y-87668767D01*
X164326122Y-87836526D01*
X164343306Y-88011000D01*
X164326122Y-88185474D01*
X164275232Y-88353233D01*
X164275231Y-88353236D01*
X164192588Y-88507850D01*
X164081370Y-88643370D01*
X163945850Y-88754588D01*
X163791236Y-88837231D01*
X163791233Y-88837232D01*
X163623474Y-88888122D01*
X163492719Y-88901000D01*
X163405281Y-88901000D01*
X163274526Y-88888122D01*
X163106767Y-88837232D01*
X163106764Y-88837231D01*
X162952150Y-88754588D01*
X162816630Y-88643370D01*
X162705412Y-88507850D01*
X162622769Y-88353236D01*
X162622768Y-88353233D01*
X162571878Y-88185474D01*
X162554694Y-88011000D01*
X162571878Y-87836526D01*
X162622768Y-87668767D01*
X162622769Y-87668764D01*
X162705412Y-87514150D01*
X162816630Y-87378630D01*
X162952150Y-87267412D01*
X163106764Y-87184769D01*
X163106767Y-87184768D01*
X163274526Y-87133878D01*
X163405281Y-87121000D01*
X163492719Y-87121000D01*
X163623474Y-87133878D01*
X163623474Y-87133878D01*
G37*
G36*
X163623474Y-84593878D02*
X163786255Y-84643258D01*
X163791236Y-84644769D01*
X163945850Y-84727412D01*
X164081370Y-84838630D01*
X164192588Y-84974150D01*
X164275231Y-85128764D01*
X164275232Y-85128767D01*
X164326122Y-85296526D01*
X164343306Y-85471000D01*
X164326122Y-85645474D01*
X164275232Y-85813233D01*
X164275231Y-85813236D01*
X164192588Y-85967850D01*
X164081370Y-86103370D01*
X163945850Y-86214588D01*
X163791236Y-86297231D01*
X163791233Y-86297232D01*
X163623474Y-86348122D01*
X163492719Y-86361000D01*
X163405281Y-86361000D01*
X163274526Y-86348122D01*
X163106767Y-86297232D01*
X163106764Y-86297231D01*
X162952150Y-86214588D01*
X162816630Y-86103370D01*
X162705412Y-85967850D01*
X162622769Y-85813236D01*
X162622768Y-85813233D01*
X162571878Y-85645474D01*
X162554694Y-85471000D01*
X162571878Y-85296526D01*
X162622768Y-85128767D01*
X162622769Y-85128764D01*
X162705412Y-84974150D01*
X162816630Y-84838630D01*
X162952150Y-84727412D01*
X163106764Y-84644769D01*
X163111745Y-84643258D01*
X163274526Y-84593878D01*
X163405281Y-84581000D01*
X163492719Y-84581000D01*
X163623474Y-84593878D01*
X163623474Y-84593878D01*
G37*
G36*
X116079000Y-86361000D02*
X114299000Y-86361000D01*
X114299000Y-84581000D01*
X116079000Y-84581000D01*
X116079000Y-86361000D01*
X116079000Y-86361000D01*
G37*
G36*
X168354110Y-84337702D02*
X168440084Y-84354803D01*
X168602053Y-84421892D01*
X168747822Y-84519292D01*
X168871788Y-84643258D01*
X168969188Y-84789027D01*
X169036277Y-84950996D01*
X169070480Y-85122944D01*
X169070480Y-85298256D01*
X169036277Y-85470204D01*
X168969188Y-85632173D01*
X168871788Y-85777942D01*
X168747822Y-85901908D01*
X168602053Y-85999308D01*
X168440084Y-86066397D01*
X168354110Y-86083499D01*
X168268137Y-86100600D01*
X168092823Y-86100600D01*
X168006850Y-86083498D01*
X167920876Y-86066397D01*
X167758907Y-85999308D01*
X167613138Y-85901908D01*
X167489172Y-85777942D01*
X167391772Y-85632173D01*
X167324683Y-85470204D01*
X167290480Y-85298256D01*
X167290480Y-85122944D01*
X167324683Y-84950996D01*
X167391772Y-84789027D01*
X167489172Y-84643258D01*
X167613138Y-84519292D01*
X167758907Y-84421892D01*
X167920876Y-84354803D01*
X168006850Y-84337702D01*
X168092823Y-84320600D01*
X168268137Y-84320600D01*
X168354110Y-84337702D01*
X168354110Y-84337702D01*
G37*
G36*
X171194110Y-82967702D02*
X171280084Y-82984803D01*
X171442053Y-83051892D01*
X171587822Y-83149292D01*
X171711788Y-83273258D01*
X171809188Y-83419027D01*
X171876277Y-83580996D01*
X171910480Y-83752944D01*
X171910480Y-83928256D01*
X171876277Y-84100204D01*
X171809188Y-84262173D01*
X171711788Y-84407942D01*
X171587822Y-84531908D01*
X171442053Y-84629308D01*
X171280084Y-84696397D01*
X171194110Y-84713499D01*
X171108137Y-84730600D01*
X170932823Y-84730600D01*
X170846850Y-84713499D01*
X170760876Y-84696397D01*
X170598907Y-84629308D01*
X170453138Y-84531908D01*
X170329172Y-84407942D01*
X170231772Y-84262173D01*
X170164683Y-84100204D01*
X170130480Y-83928256D01*
X170130480Y-83752944D01*
X170164683Y-83580996D01*
X170231772Y-83419027D01*
X170329172Y-83273258D01*
X170453138Y-83149292D01*
X170598907Y-83051892D01*
X170760876Y-82984803D01*
X170846850Y-82967702D01*
X170932823Y-82950600D01*
X171108137Y-82950600D01*
X171194110Y-82967702D01*
X171194110Y-82967702D01*
G37*
G36*
X28894948Y-80814512D02*
X29053371Y-80846025D01*
X29351831Y-80969651D01*
X29620439Y-81149129D01*
X29848871Y-81377561D01*
X30028349Y-81646169D01*
X30151975Y-81944629D01*
X30215000Y-82261475D01*
X30215000Y-82584525D01*
X30151975Y-82901371D01*
X30028349Y-83199831D01*
X29848871Y-83468439D01*
X29620439Y-83696871D01*
X29351831Y-83876349D01*
X29053371Y-83999975D01*
X28894948Y-84031487D01*
X28736526Y-84063000D01*
X28413474Y-84063000D01*
X28255052Y-84031487D01*
X28096629Y-83999975D01*
X27798169Y-83876349D01*
X27529561Y-83696871D01*
X27301129Y-83468439D01*
X27121651Y-83199831D01*
X26998025Y-82901371D01*
X26935000Y-82584525D01*
X26935000Y-82261475D01*
X26998025Y-81944629D01*
X27121651Y-81646169D01*
X27301129Y-81377561D01*
X27529561Y-81149129D01*
X27798169Y-80969651D01*
X28096629Y-80846025D01*
X28255052Y-80814512D01*
X28413474Y-80783000D01*
X28736526Y-80783000D01*
X28894948Y-80814512D01*
X28894948Y-80814512D01*
G37*
G36*
X115363474Y-82053878D02*
X115531233Y-82104768D01*
X115531236Y-82104769D01*
X115685850Y-82187412D01*
X115821370Y-82298630D01*
X115932588Y-82434150D01*
X116015231Y-82588764D01*
X116015232Y-82588767D01*
X116066122Y-82756526D01*
X116083306Y-82931000D01*
X116066122Y-83105474D01*
X116019456Y-83259307D01*
X116015231Y-83273236D01*
X115932588Y-83427850D01*
X115821370Y-83563370D01*
X115685850Y-83674588D01*
X115531236Y-83757231D01*
X115531233Y-83757232D01*
X115363474Y-83808122D01*
X115232719Y-83821000D01*
X115145281Y-83821000D01*
X115014526Y-83808122D01*
X114846767Y-83757232D01*
X114846764Y-83757231D01*
X114692150Y-83674588D01*
X114556630Y-83563370D01*
X114445412Y-83427850D01*
X114362769Y-83273236D01*
X114358544Y-83259307D01*
X114311878Y-83105474D01*
X114294694Y-82931000D01*
X114311878Y-82756526D01*
X114362768Y-82588767D01*
X114362769Y-82588764D01*
X114445412Y-82434150D01*
X114556630Y-82298630D01*
X114692150Y-82187412D01*
X114846764Y-82104769D01*
X114846767Y-82104768D01*
X115014526Y-82053878D01*
X115145281Y-82041000D01*
X115232719Y-82041000D01*
X115363474Y-82053878D01*
X115363474Y-82053878D01*
G37*
G36*
X168354110Y-81597702D02*
X168440084Y-81614803D01*
X168602053Y-81681892D01*
X168747822Y-81779292D01*
X168871788Y-81903258D01*
X168969188Y-82049027D01*
X169036277Y-82210996D01*
X169070480Y-82382944D01*
X169070480Y-82558256D01*
X169036277Y-82730204D01*
X168969188Y-82892173D01*
X168871788Y-83037942D01*
X168747822Y-83161908D01*
X168602053Y-83259308D01*
X168440084Y-83326397D01*
X168354110Y-83343499D01*
X168268137Y-83360600D01*
X168092823Y-83360600D01*
X168006850Y-83343498D01*
X167920876Y-83326397D01*
X167758907Y-83259308D01*
X167613138Y-83161908D01*
X167489172Y-83037942D01*
X167391772Y-82892173D01*
X167324683Y-82730204D01*
X167290480Y-82558256D01*
X167290480Y-82382944D01*
X167324683Y-82210996D01*
X167391772Y-82049027D01*
X167489172Y-81903258D01*
X167613138Y-81779292D01*
X167758907Y-81681892D01*
X167920876Y-81614803D01*
X168006850Y-81597702D01*
X168092823Y-81580600D01*
X168268137Y-81580600D01*
X168354110Y-81597702D01*
X168354110Y-81597702D01*
G37*
G36*
X164339000Y-82297000D02*
X162559000Y-82297000D01*
X162559000Y-80517000D01*
X164339000Y-80517000D01*
X164339000Y-82297000D01*
X164339000Y-82297000D01*
G37*
G36*
X171137928Y-80216526D02*
X171280084Y-80244803D01*
X171442053Y-80311892D01*
X171587822Y-80409292D01*
X171711788Y-80533258D01*
X171809188Y-80679027D01*
X171876277Y-80840996D01*
X171876277Y-80840997D01*
X171910480Y-81012943D01*
X171910480Y-81188257D01*
X171904716Y-81217232D01*
X171876277Y-81360204D01*
X171809188Y-81522173D01*
X171711788Y-81667942D01*
X171587822Y-81791908D01*
X171442053Y-81889308D01*
X171280084Y-81956397D01*
X171194110Y-81973499D01*
X171108137Y-81990600D01*
X170932823Y-81990600D01*
X170846850Y-81973498D01*
X170760876Y-81956397D01*
X170598907Y-81889308D01*
X170453138Y-81791908D01*
X170329172Y-81667942D01*
X170231772Y-81522173D01*
X170164683Y-81360204D01*
X170136244Y-81217232D01*
X170130480Y-81188257D01*
X170130480Y-81012943D01*
X170164683Y-80840997D01*
X170164683Y-80840996D01*
X170231772Y-80679027D01*
X170329172Y-80533258D01*
X170453138Y-80409292D01*
X170598907Y-80311892D01*
X170760876Y-80244803D01*
X170903032Y-80216526D01*
X170932823Y-80210600D01*
X171108137Y-80210600D01*
X171137928Y-80216526D01*
X171137928Y-80216526D01*
G37*
G36*
X115363474Y-79513878D02*
X115531233Y-79564768D01*
X115531236Y-79564769D01*
X115685850Y-79647412D01*
X115821370Y-79758630D01*
X115932588Y-79894150D01*
X116015231Y-80048764D01*
X116015232Y-80048767D01*
X116066122Y-80216526D01*
X116083306Y-80391000D01*
X116066122Y-80565474D01*
X116049399Y-80620600D01*
X116015231Y-80733236D01*
X115932588Y-80887850D01*
X115821370Y-81023370D01*
X115685850Y-81134588D01*
X115531236Y-81217231D01*
X115531233Y-81217232D01*
X115363474Y-81268122D01*
X115232719Y-81281000D01*
X115145281Y-81281000D01*
X115014526Y-81268122D01*
X114846767Y-81217232D01*
X114846764Y-81217231D01*
X114692150Y-81134588D01*
X114556630Y-81023370D01*
X114445412Y-80887850D01*
X114362769Y-80733236D01*
X114328601Y-80620600D01*
X114311878Y-80565474D01*
X114294694Y-80391000D01*
X114311878Y-80216526D01*
X114362768Y-80048767D01*
X114362769Y-80048764D01*
X114445412Y-79894150D01*
X114556630Y-79758630D01*
X114692150Y-79647412D01*
X114846764Y-79564769D01*
X114846767Y-79564768D01*
X115014526Y-79513878D01*
X115145281Y-79501000D01*
X115232719Y-79501000D01*
X115363474Y-79513878D01*
X115363474Y-79513878D01*
G37*
G36*
X168354110Y-78857701D02*
X168440084Y-78874803D01*
X168602053Y-78941892D01*
X168747822Y-79039292D01*
X168871788Y-79163258D01*
X168969188Y-79309027D01*
X169036277Y-79470996D01*
X169070480Y-79642944D01*
X169070480Y-79818256D01*
X169036277Y-79990204D01*
X168969188Y-80152173D01*
X168871788Y-80297942D01*
X168747822Y-80421908D01*
X168602053Y-80519308D01*
X168440084Y-80586397D01*
X168354110Y-80603498D01*
X168268137Y-80620600D01*
X168092823Y-80620600D01*
X168006850Y-80603498D01*
X167920876Y-80586397D01*
X167758907Y-80519308D01*
X167613138Y-80421908D01*
X167489172Y-80297942D01*
X167391772Y-80152173D01*
X167324683Y-79990204D01*
X167290480Y-79818256D01*
X167290480Y-79642944D01*
X167324683Y-79470996D01*
X167391772Y-79309027D01*
X167489172Y-79163258D01*
X167613138Y-79039292D01*
X167758907Y-78941892D01*
X167920876Y-78874803D01*
X168006850Y-78857702D01*
X168092823Y-78840600D01*
X168268137Y-78840600D01*
X168354110Y-78857701D01*
X168354110Y-78857701D01*
G37*
G36*
X163623474Y-77989878D02*
X163791233Y-78040768D01*
X163791236Y-78040769D01*
X163945850Y-78123412D01*
X164081370Y-78234630D01*
X164192588Y-78370150D01*
X164275231Y-78524764D01*
X164275232Y-78524767D01*
X164326122Y-78692526D01*
X164343306Y-78867000D01*
X164326122Y-79041474D01*
X164275232Y-79209233D01*
X164275231Y-79209236D01*
X164192588Y-79363850D01*
X164081370Y-79499370D01*
X163945850Y-79610588D01*
X163791236Y-79693231D01*
X163791233Y-79693232D01*
X163623474Y-79744122D01*
X163492719Y-79757000D01*
X163405281Y-79757000D01*
X163274526Y-79744122D01*
X163106767Y-79693232D01*
X163106764Y-79693231D01*
X162952150Y-79610588D01*
X162816630Y-79499370D01*
X162705412Y-79363850D01*
X162622769Y-79209236D01*
X162622768Y-79209233D01*
X162571878Y-79041474D01*
X162554694Y-78867000D01*
X162571878Y-78692526D01*
X162622768Y-78524767D01*
X162622769Y-78524764D01*
X162705412Y-78370150D01*
X162816630Y-78234630D01*
X162952150Y-78123412D01*
X163106764Y-78040769D01*
X163106767Y-78040768D01*
X163274526Y-77989878D01*
X163405281Y-77977000D01*
X163492719Y-77977000D01*
X163623474Y-77989878D01*
X163623474Y-77989878D01*
G37*
G36*
X171194110Y-77487702D02*
X171280084Y-77504803D01*
X171442053Y-77571892D01*
X171587822Y-77669292D01*
X171711788Y-77793258D01*
X171809188Y-77939027D01*
X171876277Y-78100996D01*
X171910480Y-78272944D01*
X171910480Y-78448256D01*
X171876277Y-78620204D01*
X171809188Y-78782173D01*
X171711788Y-78927942D01*
X171587822Y-79051908D01*
X171442053Y-79149308D01*
X171280084Y-79216397D01*
X171194110Y-79233499D01*
X171108137Y-79250600D01*
X170932823Y-79250600D01*
X170846850Y-79233498D01*
X170760876Y-79216397D01*
X170598907Y-79149308D01*
X170453138Y-79051908D01*
X170329172Y-78927942D01*
X170231772Y-78782173D01*
X170164683Y-78620204D01*
X170130480Y-78448256D01*
X170130480Y-78272944D01*
X170164683Y-78100996D01*
X170231772Y-77939027D01*
X170329172Y-77793258D01*
X170453138Y-77669292D01*
X170598907Y-77571892D01*
X170760876Y-77504803D01*
X170846850Y-77487702D01*
X170932823Y-77470600D01*
X171108137Y-77470600D01*
X171194110Y-77487702D01*
X171194110Y-77487702D01*
G37*
G36*
X115363474Y-76973878D02*
X115531233Y-77024768D01*
X115531236Y-77024769D01*
X115685850Y-77107412D01*
X115821370Y-77218630D01*
X115932588Y-77354150D01*
X116015231Y-77508764D01*
X116015232Y-77508767D01*
X116066122Y-77676526D01*
X116083306Y-77851000D01*
X116066122Y-78025474D01*
X116015232Y-78193233D01*
X116015231Y-78193236D01*
X115932588Y-78347850D01*
X115821370Y-78483370D01*
X115685850Y-78594588D01*
X115531236Y-78677231D01*
X115531233Y-78677232D01*
X115363474Y-78728122D01*
X115232719Y-78741000D01*
X115145281Y-78741000D01*
X115014526Y-78728122D01*
X114846767Y-78677232D01*
X114846764Y-78677231D01*
X114692150Y-78594588D01*
X114556630Y-78483370D01*
X114445412Y-78347850D01*
X114362769Y-78193236D01*
X114362768Y-78193233D01*
X114311878Y-78025474D01*
X114294694Y-77851000D01*
X114311878Y-77676526D01*
X114362768Y-77508767D01*
X114362769Y-77508764D01*
X114445412Y-77354150D01*
X114556630Y-77218630D01*
X114692150Y-77107412D01*
X114846764Y-77024769D01*
X114846767Y-77024768D01*
X115014526Y-76973878D01*
X115145281Y-76961000D01*
X115232719Y-76961000D01*
X115363474Y-76973878D01*
X115363474Y-76973878D01*
G37*
G36*
X168354110Y-76117702D02*
X168440084Y-76134803D01*
X168602053Y-76201892D01*
X168747822Y-76299292D01*
X168871788Y-76423258D01*
X168969188Y-76569027D01*
X169010694Y-76669233D01*
X169036277Y-76730997D01*
X169070480Y-76902943D01*
X169070480Y-77078257D01*
X169064680Y-77107413D01*
X169036277Y-77250204D01*
X168969188Y-77412173D01*
X168871788Y-77557942D01*
X168747822Y-77681908D01*
X168602053Y-77779308D01*
X168440084Y-77846397D01*
X168416943Y-77851000D01*
X168268137Y-77880600D01*
X168092823Y-77880600D01*
X167944017Y-77851000D01*
X167920876Y-77846397D01*
X167758907Y-77779308D01*
X167613138Y-77681908D01*
X167489172Y-77557942D01*
X167391772Y-77412173D01*
X167324683Y-77250204D01*
X167296280Y-77107413D01*
X167290480Y-77078257D01*
X167290480Y-76902943D01*
X167324683Y-76730997D01*
X167350266Y-76669233D01*
X167391772Y-76569027D01*
X167489172Y-76423258D01*
X167613138Y-76299292D01*
X167758907Y-76201892D01*
X167920876Y-76134803D01*
X168006850Y-76117702D01*
X168092823Y-76100600D01*
X168268137Y-76100600D01*
X168354110Y-76117702D01*
X168354110Y-76117702D01*
G37*
G36*
X163623474Y-75449878D02*
X163791233Y-75500768D01*
X163791236Y-75500769D01*
X163945850Y-75583412D01*
X164081370Y-75694630D01*
X164192588Y-75830150D01*
X164275231Y-75984764D01*
X164275232Y-75984767D01*
X164326122Y-76152526D01*
X164343306Y-76327000D01*
X164326122Y-76501474D01*
X164275232Y-76669233D01*
X164275231Y-76669236D01*
X164192588Y-76823850D01*
X164081370Y-76959370D01*
X163945850Y-77070588D01*
X163791236Y-77153231D01*
X163791233Y-77153232D01*
X163623474Y-77204122D01*
X163492719Y-77217000D01*
X163405281Y-77217000D01*
X163274526Y-77204122D01*
X163106767Y-77153232D01*
X163106764Y-77153231D01*
X162952150Y-77070588D01*
X162816630Y-76959370D01*
X162705412Y-76823850D01*
X162622769Y-76669236D01*
X162622768Y-76669233D01*
X162571878Y-76501474D01*
X162554694Y-76327000D01*
X162571878Y-76152526D01*
X162622768Y-75984767D01*
X162622769Y-75984764D01*
X162705412Y-75830150D01*
X162816630Y-75694630D01*
X162952150Y-75583412D01*
X163106764Y-75500769D01*
X163106767Y-75500768D01*
X163274526Y-75449878D01*
X163405281Y-75437000D01*
X163492719Y-75437000D01*
X163623474Y-75449878D01*
X163623474Y-75449878D01*
G37*
G36*
X171194110Y-74747701D02*
X171280084Y-74764803D01*
X171442053Y-74831892D01*
X171587822Y-74929292D01*
X171711788Y-75053258D01*
X171809188Y-75199027D01*
X171876277Y-75360996D01*
X171910480Y-75532944D01*
X171910480Y-75708256D01*
X171876277Y-75880204D01*
X171809188Y-76042173D01*
X171711788Y-76187942D01*
X171587822Y-76311908D01*
X171442053Y-76409308D01*
X171280084Y-76476397D01*
X171194110Y-76493499D01*
X171108137Y-76510600D01*
X170932823Y-76510600D01*
X170846850Y-76493499D01*
X170760876Y-76476397D01*
X170598907Y-76409308D01*
X170453138Y-76311908D01*
X170329172Y-76187942D01*
X170231772Y-76042173D01*
X170164683Y-75880204D01*
X170130480Y-75708256D01*
X170130480Y-75532944D01*
X170164683Y-75360996D01*
X170231772Y-75199027D01*
X170329172Y-75053258D01*
X170453138Y-74929292D01*
X170598907Y-74831892D01*
X170760876Y-74764803D01*
X170846850Y-74747702D01*
X170932823Y-74730600D01*
X171108137Y-74730600D01*
X171194110Y-74747701D01*
X171194110Y-74747701D01*
G37*
G36*
X115363474Y-74433878D02*
X115531233Y-74484768D01*
X115531236Y-74484769D01*
X115685850Y-74567412D01*
X115821370Y-74678630D01*
X115932588Y-74814150D01*
X116015231Y-74968764D01*
X116015232Y-74968767D01*
X116066122Y-75136526D01*
X116083306Y-75311000D01*
X116066122Y-75485474D01*
X116016598Y-75648730D01*
X116015231Y-75653236D01*
X115932588Y-75807850D01*
X115821370Y-75943370D01*
X115685850Y-76054588D01*
X115531236Y-76137231D01*
X115531233Y-76137232D01*
X115363474Y-76188122D01*
X115232719Y-76201000D01*
X115145281Y-76201000D01*
X115014526Y-76188122D01*
X114846767Y-76137232D01*
X114846764Y-76137231D01*
X114692150Y-76054588D01*
X114556630Y-75943370D01*
X114445412Y-75807850D01*
X114362769Y-75653236D01*
X114361402Y-75648730D01*
X114311878Y-75485474D01*
X114294694Y-75311000D01*
X114311878Y-75136526D01*
X114362768Y-74968767D01*
X114362769Y-74968764D01*
X114445412Y-74814150D01*
X114556630Y-74678630D01*
X114692150Y-74567412D01*
X114846764Y-74484769D01*
X114846767Y-74484768D01*
X115014526Y-74433878D01*
X115145281Y-74421000D01*
X115232719Y-74421000D01*
X115363474Y-74433878D01*
X115363474Y-74433878D01*
G37*
G36*
X76450674Y-74139238D02*
X76618433Y-74190128D01*
X76618436Y-74190129D01*
X76773050Y-74272772D01*
X76908570Y-74383990D01*
X77019788Y-74519510D01*
X77102431Y-74674124D01*
X77102432Y-74674127D01*
X77153322Y-74841886D01*
X77170506Y-75016360D01*
X77153322Y-75190834D01*
X77116869Y-75311000D01*
X77102431Y-75358596D01*
X77019788Y-75513210D01*
X76908570Y-75648730D01*
X76773050Y-75759948D01*
X76618436Y-75842591D01*
X76618433Y-75842592D01*
X76450674Y-75893482D01*
X76319919Y-75906360D01*
X76232481Y-75906360D01*
X76101726Y-75893482D01*
X75933967Y-75842592D01*
X75933964Y-75842591D01*
X75779350Y-75759948D01*
X75643830Y-75648730D01*
X75532612Y-75513210D01*
X75449969Y-75358596D01*
X75435531Y-75311000D01*
X75399078Y-75190834D01*
X75381894Y-75016360D01*
X75399078Y-74841886D01*
X75449968Y-74674127D01*
X75449969Y-74674124D01*
X75532612Y-74519510D01*
X75643830Y-74383990D01*
X75779350Y-74272772D01*
X75933964Y-74190129D01*
X75933967Y-74190128D01*
X76101726Y-74139238D01*
X76232481Y-74126360D01*
X76319919Y-74126360D01*
X76450674Y-74139238D01*
X76450674Y-74139238D01*
G37*
G36*
X78990674Y-74139238D02*
X79158433Y-74190128D01*
X79158436Y-74190129D01*
X79313050Y-74272772D01*
X79448570Y-74383990D01*
X79559788Y-74519510D01*
X79642431Y-74674124D01*
X79642432Y-74674127D01*
X79693322Y-74841886D01*
X79710506Y-75016360D01*
X79693322Y-75190834D01*
X79656869Y-75311000D01*
X79642431Y-75358596D01*
X79559788Y-75513210D01*
X79448570Y-75648730D01*
X79313050Y-75759948D01*
X79158436Y-75842591D01*
X79158433Y-75842592D01*
X78990674Y-75893482D01*
X78859919Y-75906360D01*
X78772481Y-75906360D01*
X78641726Y-75893482D01*
X78473967Y-75842592D01*
X78473964Y-75842591D01*
X78319350Y-75759948D01*
X78183830Y-75648730D01*
X78072612Y-75513210D01*
X77989969Y-75358596D01*
X77975531Y-75311000D01*
X77939078Y-75190834D01*
X77921894Y-75016360D01*
X77939078Y-74841886D01*
X77989968Y-74674127D01*
X77989969Y-74674124D01*
X78072612Y-74519510D01*
X78183830Y-74383990D01*
X78319350Y-74272772D01*
X78473964Y-74190129D01*
X78473967Y-74190128D01*
X78641726Y-74139238D01*
X78772481Y-74126360D01*
X78859919Y-74126360D01*
X78990674Y-74139238D01*
X78990674Y-74139238D01*
G37*
G36*
X73910674Y-74139238D02*
X74078433Y-74190128D01*
X74078436Y-74190129D01*
X74233050Y-74272772D01*
X74368570Y-74383990D01*
X74479788Y-74519510D01*
X74562431Y-74674124D01*
X74562432Y-74674127D01*
X74613322Y-74841886D01*
X74630506Y-75016360D01*
X74613322Y-75190834D01*
X74576869Y-75311000D01*
X74562431Y-75358596D01*
X74479788Y-75513210D01*
X74368570Y-75648730D01*
X74233050Y-75759948D01*
X74078436Y-75842591D01*
X74078433Y-75842592D01*
X73910674Y-75893482D01*
X73779919Y-75906360D01*
X73692481Y-75906360D01*
X73561726Y-75893482D01*
X73393967Y-75842592D01*
X73393964Y-75842591D01*
X73239350Y-75759948D01*
X73103830Y-75648730D01*
X72992612Y-75513210D01*
X72909969Y-75358596D01*
X72895531Y-75311000D01*
X72859078Y-75190834D01*
X72841894Y-75016360D01*
X72859078Y-74841886D01*
X72909968Y-74674127D01*
X72909969Y-74674124D01*
X72992612Y-74519510D01*
X73103830Y-74383990D01*
X73239350Y-74272772D01*
X73393964Y-74190129D01*
X73393967Y-74190128D01*
X73561726Y-74139238D01*
X73692481Y-74126360D01*
X73779919Y-74126360D01*
X73910674Y-74139238D01*
X73910674Y-74139238D01*
G37*
G36*
X72086200Y-75906360D02*
X70306200Y-75906360D01*
X70306200Y-74126360D01*
X72086200Y-74126360D01*
X72086200Y-75906360D01*
X72086200Y-75906360D01*
G37*
G36*
X168354110Y-73377701D02*
X168440084Y-73394803D01*
X168602053Y-73461892D01*
X168747822Y-73559292D01*
X168871788Y-73683258D01*
X168969188Y-73829027D01*
X169036277Y-73990996D01*
X169036277Y-73990997D01*
X169063775Y-74129233D01*
X169070480Y-74162944D01*
X169070480Y-74338256D01*
X169036277Y-74510204D01*
X168969188Y-74672173D01*
X168871788Y-74817942D01*
X168747822Y-74941908D01*
X168602053Y-75039308D01*
X168440084Y-75106397D01*
X168354110Y-75123499D01*
X168268137Y-75140600D01*
X168092823Y-75140600D01*
X168006850Y-75123498D01*
X167920876Y-75106397D01*
X167758907Y-75039308D01*
X167613138Y-74941908D01*
X167489172Y-74817942D01*
X167391772Y-74672173D01*
X167324683Y-74510204D01*
X167290480Y-74338256D01*
X167290480Y-74162944D01*
X167297186Y-74129233D01*
X167324683Y-73990997D01*
X167324683Y-73990996D01*
X167391772Y-73829027D01*
X167489172Y-73683258D01*
X167613138Y-73559292D01*
X167758907Y-73461892D01*
X167920876Y-73394803D01*
X168006850Y-73377701D01*
X168092823Y-73360600D01*
X168268137Y-73360600D01*
X168354110Y-73377701D01*
X168354110Y-73377701D01*
G37*
G36*
X163623474Y-72909878D02*
X163791233Y-72960768D01*
X163791236Y-72960769D01*
X163945850Y-73043412D01*
X164081370Y-73154630D01*
X164192588Y-73290150D01*
X164275231Y-73444764D01*
X164275232Y-73444767D01*
X164326122Y-73612526D01*
X164343306Y-73787000D01*
X164326122Y-73961474D01*
X164275232Y-74129233D01*
X164275231Y-74129236D01*
X164192588Y-74283850D01*
X164081370Y-74419370D01*
X163945850Y-74530588D01*
X163791236Y-74613231D01*
X163791233Y-74613232D01*
X163623474Y-74664122D01*
X163492719Y-74677000D01*
X163405281Y-74677000D01*
X163274526Y-74664122D01*
X163106767Y-74613232D01*
X163106764Y-74613231D01*
X162952150Y-74530588D01*
X162816630Y-74419370D01*
X162705412Y-74283850D01*
X162622769Y-74129236D01*
X162622768Y-74129233D01*
X162571878Y-73961474D01*
X162554694Y-73787000D01*
X162571878Y-73612526D01*
X162622768Y-73444767D01*
X162622769Y-73444764D01*
X162705412Y-73290150D01*
X162816630Y-73154630D01*
X162952150Y-73043412D01*
X163106764Y-72960769D01*
X163106767Y-72960768D01*
X163274526Y-72909878D01*
X163405281Y-72897000D01*
X163492719Y-72897000D01*
X163623474Y-72909878D01*
X163623474Y-72909878D01*
G37*
G36*
X115363474Y-71893878D02*
X115531233Y-71944768D01*
X115531236Y-71944769D01*
X115685850Y-72027412D01*
X115821370Y-72138630D01*
X115932588Y-72274150D01*
X116015231Y-72428764D01*
X116015232Y-72428767D01*
X116066122Y-72596526D01*
X116083306Y-72771000D01*
X116066122Y-72945474D01*
X116015232Y-73113233D01*
X116015231Y-73113236D01*
X115932588Y-73267850D01*
X115821370Y-73403370D01*
X115685850Y-73514588D01*
X115531236Y-73597231D01*
X115531233Y-73597232D01*
X115363474Y-73648122D01*
X115232719Y-73661000D01*
X115145281Y-73661000D01*
X115014526Y-73648122D01*
X114846767Y-73597232D01*
X114846764Y-73597231D01*
X114692150Y-73514588D01*
X114556630Y-73403370D01*
X114445412Y-73267850D01*
X114362769Y-73113236D01*
X114362768Y-73113233D01*
X114311878Y-72945474D01*
X114294694Y-72771000D01*
X114311878Y-72596526D01*
X114362768Y-72428767D01*
X114362769Y-72428764D01*
X114445412Y-72274150D01*
X114556630Y-72138630D01*
X114692150Y-72027412D01*
X114846764Y-71944769D01*
X114846767Y-71944768D01*
X115014526Y-71893878D01*
X115145281Y-71881000D01*
X115232719Y-71881000D01*
X115363474Y-71893878D01*
X115363474Y-71893878D01*
G37*
G36*
X163623474Y-70369878D02*
X163791233Y-70420768D01*
X163791236Y-70420769D01*
X163945850Y-70503412D01*
X164081370Y-70614630D01*
X164192588Y-70750150D01*
X164275231Y-70904764D01*
X164275232Y-70904767D01*
X164326122Y-71072526D01*
X164343306Y-71247000D01*
X164326122Y-71421474D01*
X164275232Y-71589233D01*
X164275231Y-71589236D01*
X164192588Y-71743850D01*
X164081370Y-71879370D01*
X163945850Y-71990588D01*
X163791236Y-72073231D01*
X163791233Y-72073232D01*
X163623474Y-72124122D01*
X163492719Y-72137000D01*
X163405281Y-72137000D01*
X163274526Y-72124122D01*
X163106767Y-72073232D01*
X163106764Y-72073231D01*
X162952150Y-71990588D01*
X162816630Y-71879370D01*
X162705412Y-71743850D01*
X162622769Y-71589236D01*
X162622768Y-71589233D01*
X162571878Y-71421474D01*
X162554694Y-71247000D01*
X162571878Y-71072526D01*
X162622768Y-70904767D01*
X162622769Y-70904764D01*
X162705412Y-70750150D01*
X162816630Y-70614630D01*
X162952150Y-70503412D01*
X163106764Y-70420769D01*
X163106767Y-70420768D01*
X163274526Y-70369878D01*
X163405281Y-70357000D01*
X163492719Y-70357000D01*
X163623474Y-70369878D01*
X163623474Y-70369878D01*
G37*
G36*
X115363474Y-69353878D02*
X115531233Y-69404768D01*
X115531236Y-69404769D01*
X115685850Y-69487412D01*
X115821370Y-69598630D01*
X115932588Y-69734150D01*
X116015231Y-69888764D01*
X116015232Y-69888767D01*
X116066122Y-70056526D01*
X116083306Y-70231000D01*
X116066122Y-70405474D01*
X116015232Y-70573233D01*
X116015231Y-70573236D01*
X115932588Y-70727850D01*
X115821370Y-70863370D01*
X115685850Y-70974588D01*
X115531236Y-71057231D01*
X115531233Y-71057232D01*
X115363474Y-71108122D01*
X115232719Y-71121000D01*
X115145281Y-71121000D01*
X115014526Y-71108122D01*
X114846767Y-71057232D01*
X114846764Y-71057231D01*
X114692150Y-70974588D01*
X114556630Y-70863370D01*
X114445412Y-70727850D01*
X114362769Y-70573236D01*
X114362768Y-70573233D01*
X114311878Y-70405474D01*
X114294694Y-70231000D01*
X114311878Y-70056526D01*
X114362768Y-69888767D01*
X114362769Y-69888764D01*
X114445412Y-69734150D01*
X114556630Y-69598630D01*
X114692150Y-69487412D01*
X114846764Y-69404769D01*
X114846767Y-69404768D01*
X115014526Y-69353878D01*
X115145281Y-69341000D01*
X115232719Y-69341000D01*
X115363474Y-69353878D01*
X115363474Y-69353878D01*
G37*
G36*
X163623474Y-67829878D02*
X163791233Y-67880768D01*
X163791236Y-67880769D01*
X163945850Y-67963412D01*
X164081370Y-68074630D01*
X164192588Y-68210150D01*
X164275231Y-68364764D01*
X164275232Y-68364767D01*
X164326122Y-68532526D01*
X164343306Y-68707000D01*
X164326122Y-68881474D01*
X164275232Y-69049233D01*
X164275231Y-69049236D01*
X164192588Y-69203850D01*
X164081370Y-69339370D01*
X163945850Y-69450588D01*
X163791236Y-69533231D01*
X163791233Y-69533232D01*
X163623474Y-69584122D01*
X163492719Y-69597000D01*
X163405281Y-69597000D01*
X163274526Y-69584122D01*
X163106767Y-69533232D01*
X163106764Y-69533231D01*
X162952150Y-69450588D01*
X162816630Y-69339370D01*
X162705412Y-69203850D01*
X162622769Y-69049236D01*
X162622768Y-69049233D01*
X162571878Y-68881474D01*
X162554694Y-68707000D01*
X162571878Y-68532526D01*
X162622768Y-68364767D01*
X162622769Y-68364764D01*
X162705412Y-68210150D01*
X162816630Y-68074630D01*
X162952150Y-67963412D01*
X163106764Y-67880769D01*
X163106767Y-67880768D01*
X163274526Y-67829878D01*
X163405281Y-67817000D01*
X163492719Y-67817000D01*
X163623474Y-67829878D01*
X163623474Y-67829878D01*
G37*
G36*
X170283033Y-64985525D02*
X170708886Y-65161919D01*
X170862397Y-65264492D01*
X171092143Y-65418003D01*
X171418077Y-65743937D01*
X171571588Y-65973683D01*
X171674161Y-66127194D01*
X171850555Y-66553047D01*
X171940480Y-67005130D01*
X171940480Y-67466070D01*
X171850555Y-67918153D01*
X171674161Y-68344006D01*
X171613636Y-68434588D01*
X171418077Y-68727263D01*
X171092143Y-69053197D01*
X170866674Y-69203850D01*
X170708886Y-69309281D01*
X170283033Y-69485675D01*
X169830950Y-69575600D01*
X169370010Y-69575600D01*
X168917927Y-69485675D01*
X168492074Y-69309281D01*
X168334286Y-69203850D01*
X168108817Y-69053197D01*
X167782883Y-68727263D01*
X167587324Y-68434588D01*
X167526799Y-68344006D01*
X167350405Y-67918153D01*
X167260480Y-67466070D01*
X167260480Y-67005130D01*
X167350405Y-66553047D01*
X167526799Y-66127194D01*
X167629372Y-65973683D01*
X167782883Y-65743937D01*
X168108817Y-65418003D01*
X168338563Y-65264492D01*
X168492074Y-65161919D01*
X168917927Y-64985525D01*
X169370010Y-64895600D01*
X169830950Y-64895600D01*
X170283033Y-64985525D01*
X170283033Y-64985525D01*
G37*
G36*
X115363474Y-66813878D02*
X115531233Y-66864768D01*
X115531236Y-66864769D01*
X115685850Y-66947412D01*
X115821370Y-67058630D01*
X115932588Y-67194150D01*
X116015231Y-67348764D01*
X116015232Y-67348767D01*
X116066122Y-67516526D01*
X116083306Y-67691000D01*
X116066122Y-67865474D01*
X116015232Y-68033233D01*
X116015231Y-68033236D01*
X115932588Y-68187850D01*
X115821370Y-68323370D01*
X115685850Y-68434588D01*
X115531236Y-68517231D01*
X115531233Y-68517232D01*
X115363474Y-68568122D01*
X115232719Y-68581000D01*
X115145281Y-68581000D01*
X115014526Y-68568122D01*
X114846767Y-68517232D01*
X114846764Y-68517231D01*
X114692150Y-68434588D01*
X114556630Y-68323370D01*
X114445412Y-68187850D01*
X114362769Y-68033236D01*
X114362768Y-68033233D01*
X114311878Y-67865474D01*
X114294694Y-67691000D01*
X114311878Y-67516526D01*
X114362768Y-67348767D01*
X114362769Y-67348764D01*
X114445412Y-67194150D01*
X114556630Y-67058630D01*
X114692150Y-66947412D01*
X114846764Y-66864769D01*
X114846767Y-66864768D01*
X115014526Y-66813878D01*
X115145281Y-66801000D01*
X115232719Y-66801000D01*
X115363474Y-66813878D01*
X115363474Y-66813878D01*
G37*
G36*
X28894948Y-63923512D02*
X29053371Y-63955025D01*
X29351831Y-64078651D01*
X29620439Y-64258129D01*
X29848871Y-64486561D01*
X30028349Y-64755169D01*
X30151975Y-65053629D01*
X30215000Y-65370475D01*
X30215000Y-65693525D01*
X30151975Y-66010371D01*
X30028349Y-66308831D01*
X29848871Y-66577439D01*
X29620439Y-66805871D01*
X29351831Y-66985349D01*
X29053371Y-67108975D01*
X28894948Y-67140487D01*
X28736526Y-67172000D01*
X28413474Y-67172000D01*
X28255052Y-67140487D01*
X28096629Y-67108975D01*
X27798169Y-66985349D01*
X27529561Y-66805871D01*
X27301129Y-66577439D01*
X27121651Y-66308831D01*
X26998025Y-66010371D01*
X26935000Y-65693525D01*
X26935000Y-65370475D01*
X26998025Y-65053629D01*
X27121651Y-64755169D01*
X27301129Y-64486561D01*
X27529561Y-64258129D01*
X27798169Y-64078651D01*
X28096629Y-63955025D01*
X28255052Y-63923512D01*
X28413474Y-63892000D01*
X28736526Y-63892000D01*
X28894948Y-63923512D01*
X28894948Y-63923512D01*
G37*
G36*
X163623474Y-65289878D02*
X163791233Y-65340768D01*
X163791236Y-65340769D01*
X163945850Y-65423412D01*
X164081370Y-65534630D01*
X164192588Y-65670150D01*
X164275231Y-65824764D01*
X164275232Y-65824767D01*
X164326122Y-65992526D01*
X164343306Y-66167000D01*
X164326122Y-66341474D01*
X164275232Y-66509233D01*
X164275231Y-66509236D01*
X164192588Y-66663850D01*
X164081370Y-66799370D01*
X163945850Y-66910588D01*
X163791236Y-66993231D01*
X163791233Y-66993232D01*
X163623474Y-67044122D01*
X163492719Y-67057000D01*
X163405281Y-67057000D01*
X163274526Y-67044122D01*
X163106767Y-66993232D01*
X163106764Y-66993231D01*
X162952150Y-66910588D01*
X162816630Y-66799370D01*
X162705412Y-66663850D01*
X162622769Y-66509236D01*
X162622768Y-66509233D01*
X162571878Y-66341474D01*
X162554694Y-66167000D01*
X162571878Y-65992526D01*
X162622768Y-65824767D01*
X162622769Y-65824764D01*
X162705412Y-65670150D01*
X162816630Y-65534630D01*
X162952150Y-65423412D01*
X163106764Y-65340769D01*
X163106767Y-65340768D01*
X163274526Y-65289878D01*
X163405281Y-65277000D01*
X163492719Y-65277000D01*
X163623474Y-65289878D01*
X163623474Y-65289878D01*
G37*
G36*
X163623474Y-62749878D02*
X163791233Y-62800768D01*
X163791236Y-62800769D01*
X163945850Y-62883412D01*
X164081370Y-62994630D01*
X164192588Y-63130150D01*
X164275231Y-63284764D01*
X164275232Y-63284767D01*
X164326122Y-63452526D01*
X164343306Y-63627000D01*
X164326122Y-63801474D01*
X164279542Y-63955025D01*
X164275231Y-63969236D01*
X164192588Y-64123850D01*
X164081370Y-64259370D01*
X163945850Y-64370588D01*
X163791236Y-64453231D01*
X163791233Y-64453232D01*
X163623474Y-64504122D01*
X163492719Y-64517000D01*
X163405281Y-64517000D01*
X163274526Y-64504122D01*
X163106767Y-64453232D01*
X163106764Y-64453231D01*
X162952150Y-64370588D01*
X162816630Y-64259370D01*
X162705412Y-64123850D01*
X162622769Y-63969236D01*
X162618458Y-63955025D01*
X162571878Y-63801474D01*
X162554694Y-63627000D01*
X162571878Y-63452526D01*
X162622768Y-63284767D01*
X162622769Y-63284764D01*
X162705412Y-63130150D01*
X162816630Y-62994630D01*
X162952150Y-62883412D01*
X163106764Y-62800769D01*
X163106767Y-62800768D01*
X163274526Y-62749878D01*
X163405281Y-62737000D01*
X163492719Y-62737000D01*
X163623474Y-62749878D01*
X163623474Y-62749878D01*
G37*
G36*
X121776974Y-60527378D02*
X121944733Y-60578268D01*
X121944736Y-60578269D01*
X122099350Y-60660912D01*
X122234870Y-60772130D01*
X122346088Y-60907650D01*
X122428731Y-61062264D01*
X122428732Y-61062267D01*
X122479622Y-61230026D01*
X122496806Y-61404500D01*
X122479622Y-61578974D01*
X122428732Y-61746733D01*
X122428731Y-61746736D01*
X122346088Y-61901350D01*
X122234870Y-62036870D01*
X122099350Y-62148088D01*
X121944736Y-62230731D01*
X121944733Y-62230732D01*
X121776974Y-62281622D01*
X121646219Y-62294500D01*
X121558781Y-62294500D01*
X121428026Y-62281622D01*
X121260267Y-62230732D01*
X121260264Y-62230731D01*
X121105650Y-62148088D01*
X120970130Y-62036870D01*
X120858912Y-61901350D01*
X120776269Y-61746736D01*
X120776268Y-61746733D01*
X120725378Y-61578974D01*
X120708194Y-61404500D01*
X120725378Y-61230026D01*
X120776268Y-61062267D01*
X120776269Y-61062264D01*
X120858912Y-60907650D01*
X120970130Y-60772130D01*
X121105650Y-60660912D01*
X121260264Y-60578269D01*
X121260267Y-60578268D01*
X121428026Y-60527378D01*
X121558781Y-60514500D01*
X121646219Y-60514500D01*
X121776974Y-60527378D01*
X121776974Y-60527378D01*
G37*
G36*
X124316974Y-60527378D02*
X124484733Y-60578268D01*
X124484736Y-60578269D01*
X124639350Y-60660912D01*
X124774870Y-60772130D01*
X124886088Y-60907650D01*
X124968731Y-61062264D01*
X124968732Y-61062267D01*
X125019622Y-61230026D01*
X125036806Y-61404500D01*
X125019622Y-61578974D01*
X124968732Y-61746733D01*
X124968731Y-61746736D01*
X124886088Y-61901350D01*
X124774870Y-62036870D01*
X124639350Y-62148088D01*
X124484736Y-62230731D01*
X124484733Y-62230732D01*
X124316974Y-62281622D01*
X124186219Y-62294500D01*
X124098781Y-62294500D01*
X123968026Y-62281622D01*
X123800267Y-62230732D01*
X123800264Y-62230731D01*
X123645650Y-62148088D01*
X123510130Y-62036870D01*
X123398912Y-61901350D01*
X123316269Y-61746736D01*
X123316268Y-61746733D01*
X123265378Y-61578974D01*
X123248194Y-61404500D01*
X123265378Y-61230026D01*
X123316268Y-61062267D01*
X123316269Y-61062264D01*
X123398912Y-60907650D01*
X123510130Y-60772130D01*
X123645650Y-60660912D01*
X123800264Y-60578269D01*
X123800267Y-60578268D01*
X123968026Y-60527378D01*
X124098781Y-60514500D01*
X124186219Y-60514500D01*
X124316974Y-60527378D01*
X124316974Y-60527378D01*
G37*
G36*
X168550320Y-61448680D02*
X166770320Y-61448680D01*
X166770320Y-59668680D01*
X168550320Y-59668680D01*
X168550320Y-61448680D01*
X168550320Y-61448680D01*
G37*
G36*
X170374794Y-59681558D02*
X170542553Y-59732448D01*
X170542556Y-59732449D01*
X170697170Y-59815092D01*
X170832690Y-59926310D01*
X170943908Y-60061830D01*
X171026551Y-60216444D01*
X171026552Y-60216447D01*
X171077442Y-60384206D01*
X171094626Y-60558680D01*
X171077442Y-60733154D01*
X171026552Y-60900913D01*
X171026551Y-60900916D01*
X170943908Y-61055530D01*
X170832690Y-61191050D01*
X170697170Y-61302268D01*
X170542556Y-61384911D01*
X170542553Y-61384912D01*
X170374794Y-61435802D01*
X170244039Y-61448680D01*
X170156601Y-61448680D01*
X170025846Y-61435802D01*
X169858087Y-61384912D01*
X169858084Y-61384911D01*
X169703470Y-61302268D01*
X169567950Y-61191050D01*
X169456732Y-61055530D01*
X169374089Y-60900916D01*
X169374088Y-60900913D01*
X169323198Y-60733154D01*
X169306014Y-60558680D01*
X169323198Y-60384206D01*
X169374088Y-60216447D01*
X169374089Y-60216444D01*
X169456732Y-60061830D01*
X169567950Y-59926310D01*
X169703470Y-59815092D01*
X169858084Y-59732449D01*
X169858087Y-59732448D01*
X170025846Y-59681558D01*
X170156601Y-59668680D01*
X170244039Y-59668680D01*
X170374794Y-59681558D01*
X170374794Y-59681558D01*
G37*
G36*
X121776974Y-57987378D02*
X121934250Y-58035088D01*
X121944736Y-58038269D01*
X122099350Y-58120912D01*
X122234870Y-58232130D01*
X122346088Y-58367650D01*
X122428731Y-58522264D01*
X122428732Y-58522267D01*
X122479622Y-58690026D01*
X122496806Y-58864500D01*
X122479622Y-59038974D01*
X122428732Y-59206733D01*
X122428731Y-59206736D01*
X122346088Y-59361350D01*
X122234870Y-59496870D01*
X122099350Y-59608088D01*
X121944736Y-59690731D01*
X121944733Y-59690732D01*
X121776974Y-59741622D01*
X121646219Y-59754500D01*
X121558781Y-59754500D01*
X121428026Y-59741622D01*
X121260267Y-59690732D01*
X121260264Y-59690731D01*
X121105650Y-59608088D01*
X120970130Y-59496870D01*
X120858912Y-59361350D01*
X120776269Y-59206736D01*
X120776268Y-59206733D01*
X120725378Y-59038974D01*
X120708194Y-58864500D01*
X120725378Y-58690026D01*
X120776268Y-58522267D01*
X120776269Y-58522264D01*
X120858912Y-58367650D01*
X120970130Y-58232130D01*
X121105650Y-58120912D01*
X121260264Y-58038269D01*
X121270750Y-58035088D01*
X121428026Y-57987378D01*
X121558781Y-57974500D01*
X121646219Y-57974500D01*
X121776974Y-57987378D01*
X121776974Y-57987378D01*
G37*
G36*
X125032500Y-59754500D02*
X123252500Y-59754500D01*
X123252500Y-57974500D01*
X125032500Y-57974500D01*
X125032500Y-59754500D01*
X125032500Y-59754500D01*
G37*
G36*
X105857139Y-56433022D02*
X105952773Y-56452045D01*
X106132941Y-56526673D01*
X106295088Y-56635017D01*
X106432983Y-56772912D01*
X106541327Y-56935059D01*
X106615955Y-57115227D01*
X106634977Y-57210861D01*
X106654000Y-57306494D01*
X106654000Y-57501506D01*
X106634978Y-57597139D01*
X106615955Y-57692773D01*
X106541327Y-57872941D01*
X106432983Y-58035088D01*
X106295088Y-58172983D01*
X106132941Y-58281327D01*
X105952773Y-58355955D01*
X105893982Y-58367649D01*
X105761506Y-58394000D01*
X105566494Y-58394000D01*
X105434018Y-58367649D01*
X105375227Y-58355955D01*
X105195059Y-58281327D01*
X105032912Y-58172983D01*
X104895017Y-58035088D01*
X104786673Y-57872941D01*
X104712045Y-57692773D01*
X104693022Y-57597139D01*
X104674000Y-57501506D01*
X104674000Y-57306494D01*
X104693023Y-57210861D01*
X104712045Y-57115227D01*
X104786673Y-56935059D01*
X104895017Y-56772912D01*
X105032912Y-56635017D01*
X105195059Y-56526673D01*
X105375227Y-56452045D01*
X105470861Y-56433022D01*
X105566494Y-56414000D01*
X105761506Y-56414000D01*
X105857139Y-56433022D01*
X105857139Y-56433022D01*
G37*
G36*
X98237139Y-56433022D02*
X98332773Y-56452045D01*
X98512941Y-56526673D01*
X98675088Y-56635017D01*
X98812983Y-56772912D01*
X98921327Y-56935059D01*
X98995955Y-57115227D01*
X99014977Y-57210861D01*
X99034000Y-57306494D01*
X99034000Y-57501506D01*
X99014978Y-57597139D01*
X98995955Y-57692773D01*
X98921327Y-57872941D01*
X98812983Y-58035088D01*
X98675088Y-58172983D01*
X98512941Y-58281327D01*
X98332773Y-58355955D01*
X98273982Y-58367649D01*
X98141506Y-58394000D01*
X97946494Y-58394000D01*
X97814018Y-58367649D01*
X97755227Y-58355955D01*
X97575059Y-58281327D01*
X97412912Y-58172983D01*
X97275017Y-58035088D01*
X97166673Y-57872941D01*
X97092045Y-57692773D01*
X97073022Y-57597139D01*
X97054000Y-57501506D01*
X97054000Y-57306494D01*
X97073023Y-57210861D01*
X97092045Y-57115227D01*
X97166673Y-56935059D01*
X97275017Y-56772912D01*
X97412912Y-56635017D01*
X97575059Y-56526673D01*
X97755227Y-56452045D01*
X97850861Y-56433022D01*
X97946494Y-56414000D01*
X98141506Y-56414000D01*
X98237139Y-56433022D01*
X98237139Y-56433022D01*
G37*
G36*
X100777139Y-56433022D02*
X100872773Y-56452045D01*
X101052941Y-56526673D01*
X101215088Y-56635017D01*
X101352983Y-56772912D01*
X101461327Y-56935059D01*
X101535955Y-57115227D01*
X101554977Y-57210861D01*
X101574000Y-57306494D01*
X101574000Y-57501506D01*
X101554978Y-57597139D01*
X101535955Y-57692773D01*
X101461327Y-57872941D01*
X101352983Y-58035088D01*
X101215088Y-58172983D01*
X101052941Y-58281327D01*
X100872773Y-58355955D01*
X100813982Y-58367649D01*
X100681506Y-58394000D01*
X100486494Y-58394000D01*
X100354018Y-58367649D01*
X100295227Y-58355955D01*
X100115059Y-58281327D01*
X99952912Y-58172983D01*
X99815017Y-58035088D01*
X99706673Y-57872941D01*
X99632045Y-57692773D01*
X99613022Y-57597139D01*
X99594000Y-57501506D01*
X99594000Y-57306494D01*
X99613023Y-57210861D01*
X99632045Y-57115227D01*
X99706673Y-56935059D01*
X99815017Y-56772912D01*
X99952912Y-56635017D01*
X100115059Y-56526673D01*
X100295227Y-56452045D01*
X100390861Y-56433022D01*
X100486494Y-56414000D01*
X100681506Y-56414000D01*
X100777139Y-56433022D01*
X100777139Y-56433022D01*
G37*
G36*
X103317139Y-56433022D02*
X103412773Y-56452045D01*
X103592941Y-56526673D01*
X103755088Y-56635017D01*
X103892983Y-56772912D01*
X104001327Y-56935059D01*
X104075955Y-57115227D01*
X104094977Y-57210861D01*
X104114000Y-57306494D01*
X104114000Y-57501506D01*
X104094978Y-57597139D01*
X104075955Y-57692773D01*
X104001327Y-57872941D01*
X103892983Y-58035088D01*
X103755088Y-58172983D01*
X103592941Y-58281327D01*
X103412773Y-58355955D01*
X103353982Y-58367649D01*
X103221506Y-58394000D01*
X103026494Y-58394000D01*
X102894018Y-58367649D01*
X102835227Y-58355955D01*
X102655059Y-58281327D01*
X102492912Y-58172983D01*
X102355017Y-58035088D01*
X102246673Y-57872941D01*
X102172045Y-57692773D01*
X102153022Y-57597139D01*
X102134000Y-57501506D01*
X102134000Y-57306494D01*
X102153023Y-57210861D01*
X102172045Y-57115227D01*
X102246673Y-56935059D01*
X102355017Y-56772912D01*
X102492912Y-56635017D01*
X102655059Y-56526673D01*
X102835227Y-56452045D01*
X102930861Y-56433022D01*
X103026494Y-56414000D01*
X103221506Y-56414000D01*
X103317139Y-56433022D01*
X103317139Y-56433022D01*
G37*
G36*
X176066182Y-56661381D02*
X176146609Y-56685778D01*
X176186823Y-56697977D01*
X176239041Y-56725889D01*
X176298005Y-56757405D01*
X176395458Y-56837382D01*
X176475435Y-56934835D01*
X176494260Y-56970054D01*
X176534863Y-57046017D01*
X176534863Y-57046018D01*
X176571459Y-57166658D01*
X176583816Y-57292120D01*
X176571459Y-57417582D01*
X176547062Y-57498009D01*
X176534863Y-57538223D01*
X176506951Y-57590441D01*
X176475435Y-57649405D01*
X176395458Y-57746858D01*
X176298005Y-57826835D01*
X176239041Y-57858351D01*
X176186823Y-57886263D01*
X176146609Y-57898462D01*
X176066182Y-57922859D01*
X175972154Y-57932120D01*
X175209286Y-57932120D01*
X175115258Y-57922859D01*
X175034831Y-57898462D01*
X174994617Y-57886263D01*
X174942399Y-57858351D01*
X174883435Y-57826835D01*
X174785982Y-57746858D01*
X174706005Y-57649405D01*
X174674489Y-57590441D01*
X174646577Y-57538223D01*
X174634378Y-57498009D01*
X174609981Y-57417582D01*
X174597624Y-57292120D01*
X174609981Y-57166658D01*
X174646577Y-57046018D01*
X174646577Y-57046017D01*
X174687180Y-56970054D01*
X174706005Y-56934835D01*
X174785982Y-56837382D01*
X174883435Y-56757405D01*
X174942399Y-56725889D01*
X174994617Y-56697977D01*
X175034831Y-56685778D01*
X175115258Y-56661381D01*
X175209286Y-56652120D01*
X175972154Y-56652120D01*
X176066182Y-56661381D01*
X176066182Y-56661381D01*
G37*
G36*
X173113862Y-55556518D02*
X173253084Y-55614185D01*
X173378379Y-55697905D01*
X173484935Y-55804461D01*
X173568655Y-55929756D01*
X173626322Y-56068978D01*
X173655720Y-56216774D01*
X173655720Y-56367466D01*
X173626322Y-56515262D01*
X173568655Y-56654484D01*
X173484935Y-56779779D01*
X173378379Y-56886335D01*
X173253084Y-56970055D01*
X173113862Y-57027722D01*
X172966066Y-57057120D01*
X172815374Y-57057120D01*
X172667578Y-57027722D01*
X172528356Y-56970055D01*
X172403061Y-56886335D01*
X172296505Y-56779779D01*
X172212785Y-56654484D01*
X172155118Y-56515262D01*
X172125720Y-56367466D01*
X172125720Y-56216774D01*
X172155118Y-56068978D01*
X172212785Y-55929756D01*
X172296505Y-55804461D01*
X172403061Y-55697905D01*
X172528356Y-55614185D01*
X172667578Y-55556518D01*
X172815374Y-55527120D01*
X172966066Y-55527120D01*
X173113862Y-55556518D01*
X173113862Y-55556518D01*
G37*
G36*
X102047139Y-53893023D02*
X102142773Y-53912045D01*
X102322941Y-53986673D01*
X102485088Y-54095017D01*
X102622983Y-54232912D01*
X102731327Y-54395059D01*
X102805955Y-54575227D01*
X102805955Y-54575228D01*
X102840958Y-54751199D01*
X102844000Y-54766495D01*
X102844000Y-54961505D01*
X102805955Y-55152773D01*
X102731327Y-55332941D01*
X102622983Y-55495088D01*
X102485088Y-55632983D01*
X102322941Y-55741327D01*
X102142773Y-55815955D01*
X102047139Y-55834978D01*
X101951506Y-55854000D01*
X101756494Y-55854000D01*
X101660861Y-55834978D01*
X101565227Y-55815955D01*
X101385059Y-55741327D01*
X101222912Y-55632983D01*
X101085017Y-55495088D01*
X100976673Y-55332941D01*
X100902045Y-55152773D01*
X100864000Y-54961505D01*
X100864000Y-54766495D01*
X100867043Y-54751199D01*
X100902045Y-54575228D01*
X100902045Y-54575227D01*
X100976673Y-54395059D01*
X101085017Y-54232912D01*
X101222912Y-54095017D01*
X101385059Y-53986673D01*
X101565227Y-53912045D01*
X101660861Y-53893023D01*
X101756494Y-53874000D01*
X101951506Y-53874000D01*
X102047139Y-53893023D01*
X102047139Y-53893023D01*
G37*
G36*
X99507139Y-53893023D02*
X99602773Y-53912045D01*
X99782941Y-53986673D01*
X99945088Y-54095017D01*
X100082983Y-54232912D01*
X100191327Y-54395059D01*
X100265955Y-54575227D01*
X100265955Y-54575228D01*
X100300958Y-54751199D01*
X100304000Y-54766495D01*
X100304000Y-54961505D01*
X100265955Y-55152773D01*
X100191327Y-55332941D01*
X100082983Y-55495088D01*
X99945088Y-55632983D01*
X99782941Y-55741327D01*
X99602773Y-55815955D01*
X99507139Y-55834978D01*
X99411506Y-55854000D01*
X99216494Y-55854000D01*
X99120861Y-55834978D01*
X99025227Y-55815955D01*
X98845059Y-55741327D01*
X98682912Y-55632983D01*
X98545017Y-55495088D01*
X98436673Y-55332941D01*
X98362045Y-55152773D01*
X98324000Y-54961505D01*
X98324000Y-54766495D01*
X98327043Y-54751199D01*
X98362045Y-54575228D01*
X98362045Y-54575227D01*
X98436673Y-54395059D01*
X98545017Y-54232912D01*
X98682912Y-54095017D01*
X98845059Y-53986673D01*
X99025227Y-53912045D01*
X99120861Y-53893023D01*
X99216494Y-53874000D01*
X99411506Y-53874000D01*
X99507139Y-53893023D01*
X99507139Y-53893023D01*
G37*
G36*
X104587139Y-53893023D02*
X104682773Y-53912045D01*
X104862941Y-53986673D01*
X105025088Y-54095017D01*
X105162983Y-54232912D01*
X105271327Y-54395059D01*
X105345955Y-54575227D01*
X105345955Y-54575228D01*
X105380958Y-54751199D01*
X105384000Y-54766495D01*
X105384000Y-54961505D01*
X105345955Y-55152773D01*
X105271327Y-55332941D01*
X105162983Y-55495088D01*
X105025088Y-55632983D01*
X104862941Y-55741327D01*
X104682773Y-55815955D01*
X104587139Y-55834978D01*
X104491506Y-55854000D01*
X104296494Y-55854000D01*
X104200861Y-55834978D01*
X104105227Y-55815955D01*
X103925059Y-55741327D01*
X103762912Y-55632983D01*
X103625017Y-55495088D01*
X103516673Y-55332941D01*
X103442045Y-55152773D01*
X103404000Y-54961505D01*
X103404000Y-54766495D01*
X103407043Y-54751199D01*
X103442045Y-54575228D01*
X103442045Y-54575227D01*
X103516673Y-54395059D01*
X103625017Y-54232912D01*
X103762912Y-54095017D01*
X103925059Y-53986673D01*
X104105227Y-53912045D01*
X104200861Y-53893023D01*
X104296494Y-53874000D01*
X104491506Y-53874000D01*
X104587139Y-53893023D01*
X104587139Y-53893023D01*
G37*
G36*
X107924000Y-55854000D02*
X105944000Y-55854000D01*
X105944000Y-53874000D01*
X107924000Y-53874000D01*
X107924000Y-55854000D01*
X107924000Y-55854000D01*
G37*
G36*
X115488628Y-52097273D02*
X115647051Y-52128785D01*
X115945511Y-52252411D01*
X116214119Y-52431889D01*
X116442551Y-52660321D01*
X116622029Y-52928929D01*
X116745655Y-53227389D01*
X116808680Y-53544235D01*
X116808680Y-53867285D01*
X116745655Y-54184131D01*
X116622029Y-54482591D01*
X116442551Y-54751199D01*
X116214119Y-54979631D01*
X115945511Y-55159109D01*
X115647051Y-55282735D01*
X115488628Y-55314247D01*
X115330206Y-55345760D01*
X115007154Y-55345760D01*
X114848732Y-55314247D01*
X114690309Y-55282735D01*
X114391849Y-55159109D01*
X114123241Y-54979631D01*
X113894809Y-54751199D01*
X113715331Y-54482591D01*
X113591705Y-54184131D01*
X113528680Y-53867285D01*
X113528680Y-53544235D01*
X113591705Y-53227389D01*
X113715331Y-52928929D01*
X113894809Y-52660321D01*
X114123241Y-52431889D01*
X114391849Y-52252411D01*
X114690309Y-52128785D01*
X114848732Y-52097273D01*
X115007154Y-52065760D01*
X115330206Y-52065760D01*
X115488628Y-52097273D01*
X115488628Y-52097273D01*
G37*
G36*
X95104864Y-50285495D02*
X95348728Y-50386507D01*
X95568200Y-50533153D01*
X95754847Y-50719800D01*
X95901493Y-50939272D01*
X96002505Y-51183136D01*
X96054000Y-51442023D01*
X96054000Y-51705977D01*
X96002505Y-51964864D01*
X95901493Y-52208728D01*
X95754847Y-52428200D01*
X95568200Y-52614847D01*
X95348728Y-52761493D01*
X95104864Y-52862505D01*
X94845979Y-52914000D01*
X94582021Y-52914000D01*
X94323136Y-52862505D01*
X94079272Y-52761493D01*
X93859800Y-52614847D01*
X93673153Y-52428200D01*
X93526507Y-52208728D01*
X93425495Y-51964864D01*
X93374000Y-51705977D01*
X93374000Y-51442023D01*
X93425495Y-51183136D01*
X93526507Y-50939272D01*
X93673153Y-50719800D01*
X93859800Y-50533153D01*
X94079272Y-50386507D01*
X94323136Y-50285495D01*
X94582021Y-50234000D01*
X94845979Y-50234000D01*
X95104864Y-50285495D01*
X95104864Y-50285495D01*
G37*
G36*
X110654864Y-50285495D02*
X110898728Y-50386507D01*
X111118200Y-50533153D01*
X111304847Y-50719800D01*
X111451493Y-50939272D01*
X111552505Y-51183136D01*
X111604000Y-51442023D01*
X111604000Y-51705977D01*
X111552505Y-51964864D01*
X111451493Y-52208728D01*
X111304847Y-52428200D01*
X111118200Y-52614847D01*
X110898728Y-52761493D01*
X110654864Y-52862505D01*
X110395979Y-52914000D01*
X110132021Y-52914000D01*
X109873136Y-52862505D01*
X109629272Y-52761493D01*
X109409800Y-52614847D01*
X109223153Y-52428200D01*
X109076507Y-52208728D01*
X108975495Y-51964864D01*
X108924000Y-51705977D01*
X108924000Y-51442023D01*
X108975495Y-51183136D01*
X109076507Y-50939272D01*
X109223153Y-50719800D01*
X109409800Y-50533153D01*
X109629272Y-50386507D01*
X109873136Y-50285495D01*
X110132021Y-50234000D01*
X110395979Y-50234000D01*
X110654864Y-50285495D01*
X110654864Y-50285495D01*
G37*
G36*
X173113862Y-50556518D02*
X173253084Y-50614185D01*
X173378379Y-50697905D01*
X173484935Y-50804461D01*
X173568655Y-50929756D01*
X173626322Y-51068978D01*
X173655720Y-51216774D01*
X173655720Y-51367466D01*
X173626322Y-51515262D01*
X173568655Y-51654484D01*
X173484935Y-51779779D01*
X173378379Y-51886335D01*
X173253084Y-51970055D01*
X173113862Y-52027722D01*
X172966066Y-52057120D01*
X172815374Y-52057120D01*
X172667578Y-52027722D01*
X172528356Y-51970055D01*
X172403061Y-51886335D01*
X172296505Y-51779779D01*
X172212785Y-51654484D01*
X172155118Y-51515262D01*
X172125720Y-51367466D01*
X172125720Y-51216774D01*
X172155118Y-51068978D01*
X172212785Y-50929756D01*
X172296505Y-50804461D01*
X172403061Y-50697905D01*
X172528356Y-50614185D01*
X172667578Y-50556518D01*
X172815374Y-50527120D01*
X172966066Y-50527120D01*
X173113862Y-50556518D01*
X173113862Y-50556518D01*
G37*
G36*
X176066182Y-49661381D02*
X176146609Y-49685778D01*
X176186823Y-49697977D01*
X176239041Y-49725889D01*
X176298005Y-49757405D01*
X176395458Y-49837382D01*
X176475435Y-49934835D01*
X176506951Y-49993799D01*
X176534863Y-50046017D01*
X176534863Y-50046018D01*
X176571459Y-50166658D01*
X176583816Y-50292120D01*
X176571459Y-50417582D01*
X176547062Y-50498009D01*
X176534863Y-50538223D01*
X176525084Y-50556518D01*
X176475435Y-50649405D01*
X176395458Y-50746858D01*
X176298005Y-50826835D01*
X176239041Y-50858351D01*
X176186823Y-50886263D01*
X176146609Y-50898462D01*
X176066182Y-50922859D01*
X175972154Y-50932120D01*
X175209286Y-50932120D01*
X175115258Y-50922859D01*
X175034831Y-50898462D01*
X174994617Y-50886263D01*
X174942399Y-50858351D01*
X174883435Y-50826835D01*
X174785982Y-50746858D01*
X174706005Y-50649405D01*
X174656356Y-50556518D01*
X174646577Y-50538223D01*
X174634378Y-50498009D01*
X174609981Y-50417582D01*
X174597624Y-50292120D01*
X174609981Y-50166658D01*
X174646577Y-50046018D01*
X174646577Y-50046017D01*
X174674489Y-49993799D01*
X174706005Y-49934835D01*
X174785982Y-49837382D01*
X174883435Y-49757405D01*
X174942399Y-49725889D01*
X174994617Y-49697977D01*
X175034831Y-49685778D01*
X175115258Y-49661381D01*
X175209286Y-49652120D01*
X175972154Y-49652120D01*
X176066182Y-49661381D01*
X176066182Y-49661381D01*
G37*
G36*
X97259663Y-46922985D02*
X97562673Y-47048496D01*
X97835375Y-47230710D01*
X98067290Y-47462625D01*
X98249504Y-47735327D01*
X98375015Y-48038337D01*
X98439000Y-48360012D01*
X98439000Y-48687988D01*
X98375015Y-49009663D01*
X98249504Y-49312673D01*
X98067290Y-49585375D01*
X97835375Y-49817290D01*
X97562673Y-49999504D01*
X97259663Y-50125015D01*
X96937988Y-50189000D01*
X96610012Y-50189000D01*
X96288337Y-50125015D01*
X95985327Y-49999504D01*
X95712625Y-49817290D01*
X95480710Y-49585375D01*
X95298496Y-49312673D01*
X95172985Y-49009663D01*
X95109000Y-48687988D01*
X95109000Y-48360012D01*
X95172985Y-48038337D01*
X95298496Y-47735327D01*
X95480710Y-47462625D01*
X95712625Y-47230710D01*
X95985327Y-47048496D01*
X96288337Y-46922985D01*
X96610012Y-46859000D01*
X96937988Y-46859000D01*
X97259663Y-46922985D01*
X97259663Y-46922985D01*
G37*
G36*
X108689663Y-46922985D02*
X108992673Y-47048496D01*
X109265375Y-47230710D01*
X109497290Y-47462625D01*
X109679504Y-47735327D01*
X109805015Y-48038337D01*
X109869000Y-48360012D01*
X109869000Y-48687988D01*
X109805015Y-49009663D01*
X109679504Y-49312673D01*
X109497290Y-49585375D01*
X109265375Y-49817290D01*
X108992673Y-49999504D01*
X108689663Y-50125015D01*
X108367988Y-50189000D01*
X108040012Y-50189000D01*
X107718337Y-50125015D01*
X107415327Y-49999504D01*
X107142625Y-49817290D01*
X106910710Y-49585375D01*
X106728496Y-49312673D01*
X106602985Y-49009663D01*
X106539000Y-48687988D01*
X106539000Y-48360012D01*
X106602985Y-48038337D01*
X106728496Y-47735327D01*
X106910710Y-47462625D01*
X107142625Y-47230710D01*
X107415327Y-47048496D01*
X107718337Y-46922985D01*
X108040012Y-46859000D01*
X108367988Y-46859000D01*
X108689663Y-46922985D01*
X108689663Y-46922985D01*
G37*
G36*
X41924335Y-46386052D02*
X42150000Y-46479526D01*
X42353094Y-46615229D01*
X42525811Y-46787946D01*
X42661514Y-46991040D01*
X42754988Y-47216705D01*
X42802640Y-47456271D01*
X42802640Y-47700529D01*
X42754988Y-47940095D01*
X42661514Y-48165760D01*
X42525811Y-48368854D01*
X42353094Y-48541571D01*
X42150000Y-48677274D01*
X41924335Y-48770748D01*
X41684769Y-48818400D01*
X41440511Y-48818400D01*
X41200945Y-48770748D01*
X40975280Y-48677274D01*
X40772186Y-48541571D01*
X40599469Y-48368854D01*
X40463766Y-48165760D01*
X40370292Y-47940095D01*
X40322640Y-47700529D01*
X40322640Y-47456271D01*
X40370292Y-47216705D01*
X40463766Y-46991040D01*
X40599469Y-46787946D01*
X40772186Y-46615229D01*
X40975280Y-46479526D01*
X41200945Y-46386052D01*
X41440511Y-46338400D01*
X41684769Y-46338400D01*
X41924335Y-46386052D01*
X41924335Y-46386052D01*
G37*
G36*
X46924335Y-46386052D02*
X47150000Y-46479526D01*
X47353094Y-46615229D01*
X47525811Y-46787946D01*
X47661514Y-46991040D01*
X47754988Y-47216705D01*
X47802640Y-47456271D01*
X47802640Y-47700529D01*
X47754988Y-47940095D01*
X47661514Y-48165760D01*
X47525811Y-48368854D01*
X47353094Y-48541571D01*
X47150000Y-48677274D01*
X46924335Y-48770748D01*
X46684769Y-48818400D01*
X46440511Y-48818400D01*
X46200945Y-48770748D01*
X45975280Y-48677274D01*
X45772186Y-48541571D01*
X45599469Y-48368854D01*
X45463766Y-48165760D01*
X45370292Y-47940095D01*
X45322640Y-47700529D01*
X45322640Y-47456271D01*
X45370292Y-47216705D01*
X45463766Y-46991040D01*
X45599469Y-46787946D01*
X45772186Y-46615229D01*
X45975280Y-46479526D01*
X46200945Y-46386052D01*
X46440511Y-46338400D01*
X46684769Y-46338400D01*
X46924335Y-46386052D01*
X46924335Y-46386052D01*
G37*
G36*
X51924335Y-46386052D02*
X52150000Y-46479526D01*
X52353094Y-46615229D01*
X52525811Y-46787946D01*
X52661514Y-46991040D01*
X52754988Y-47216705D01*
X52802640Y-47456271D01*
X52802640Y-47700529D01*
X52754988Y-47940095D01*
X52661514Y-48165760D01*
X52525811Y-48368854D01*
X52353094Y-48541571D01*
X52150000Y-48677274D01*
X51924335Y-48770748D01*
X51684769Y-48818400D01*
X51440511Y-48818400D01*
X51200945Y-48770748D01*
X50975280Y-48677274D01*
X50772186Y-48541571D01*
X50599469Y-48368854D01*
X50463766Y-48165760D01*
X50370292Y-47940095D01*
X50322640Y-47700529D01*
X50322640Y-47456271D01*
X50370292Y-47216705D01*
X50463766Y-46991040D01*
X50599469Y-46787946D01*
X50772186Y-46615229D01*
X50975280Y-46479526D01*
X51200945Y-46386052D01*
X51440511Y-46338400D01*
X51684769Y-46338400D01*
X51924335Y-46386052D01*
X51924335Y-46386052D01*
G37*
G36*
X56924335Y-46386052D02*
X57150000Y-46479526D01*
X57353094Y-46615229D01*
X57525811Y-46787946D01*
X57661514Y-46991040D01*
X57754988Y-47216705D01*
X57802640Y-47456271D01*
X57802640Y-47700529D01*
X57754988Y-47940095D01*
X57661514Y-48165760D01*
X57525811Y-48368854D01*
X57353094Y-48541571D01*
X57150000Y-48677274D01*
X56924335Y-48770748D01*
X56684769Y-48818400D01*
X56440511Y-48818400D01*
X56200945Y-48770748D01*
X55975280Y-48677274D01*
X55772186Y-48541571D01*
X55599469Y-48368854D01*
X55463766Y-48165760D01*
X55370292Y-47940095D01*
X55322640Y-47700529D01*
X55322640Y-47456271D01*
X55370292Y-47216705D01*
X55463766Y-46991040D01*
X55599469Y-46787946D01*
X55772186Y-46615229D01*
X55975280Y-46479526D01*
X56200945Y-46386052D01*
X56440511Y-46338400D01*
X56684769Y-46338400D01*
X56924335Y-46386052D01*
X56924335Y-46386052D01*
G37*
G36*
X28938747Y-42810080D02*
X29150300Y-42852161D01*
X29548854Y-43017247D01*
X29907543Y-43256916D01*
X30212584Y-43561957D01*
X30452253Y-43920646D01*
X30617339Y-44319200D01*
X30617339Y-44319201D01*
X30701500Y-44742304D01*
X30701500Y-45173696D01*
X30680317Y-45280188D01*
X30617339Y-45596800D01*
X30452253Y-45995354D01*
X30212584Y-46354043D01*
X29907543Y-46659084D01*
X29548854Y-46898753D01*
X29150300Y-47063839D01*
X28938747Y-47105920D01*
X28727196Y-47148000D01*
X28295804Y-47148000D01*
X28084253Y-47105920D01*
X27872700Y-47063839D01*
X27474146Y-46898753D01*
X27115457Y-46659084D01*
X26810416Y-46354043D01*
X26570747Y-45995354D01*
X26405661Y-45596800D01*
X26342683Y-45280188D01*
X26321500Y-45173696D01*
X26321500Y-44742304D01*
X26405661Y-44319201D01*
X26405661Y-44319200D01*
X26570747Y-43920646D01*
X26810416Y-43561957D01*
X27115457Y-43256916D01*
X27474146Y-43017247D01*
X27872700Y-42852161D01*
X28084253Y-42810080D01*
X28295804Y-42768000D01*
X28727196Y-42768000D01*
X28938747Y-42810080D01*
X28938747Y-42810080D01*
G37*
G36*
X170353247Y-42810080D02*
X170564800Y-42852161D01*
X170963354Y-43017247D01*
X171322043Y-43256916D01*
X171627084Y-43561957D01*
X171866753Y-43920646D01*
X172031839Y-44319200D01*
X172031839Y-44319201D01*
X172116000Y-44742304D01*
X172116000Y-45173696D01*
X172094817Y-45280188D01*
X172031839Y-45596800D01*
X171866753Y-45995354D01*
X171627084Y-46354043D01*
X171322043Y-46659084D01*
X170963354Y-46898753D01*
X170564800Y-47063839D01*
X170353247Y-47105920D01*
X170141696Y-47148000D01*
X169710304Y-47148000D01*
X169498753Y-47105920D01*
X169287200Y-47063839D01*
X168888646Y-46898753D01*
X168529957Y-46659084D01*
X168224916Y-46354043D01*
X167985247Y-45995354D01*
X167820161Y-45596800D01*
X167757183Y-45280188D01*
X167736000Y-45173696D01*
X167736000Y-44742304D01*
X167820161Y-44319201D01*
X167820161Y-44319200D01*
X167985247Y-43920646D01*
X168224916Y-43561957D01*
X168529957Y-43256916D01*
X168888646Y-43017247D01*
X169287200Y-42852161D01*
X169498752Y-42810081D01*
X169710304Y-42768000D01*
X170141696Y-42768000D01*
X170353247Y-42810080D01*
X170353247Y-42810080D01*
G37*
G36*
X106441311Y-44172983D02*
X106561315Y-44196853D01*
X106740572Y-44271104D01*
X106901901Y-44378900D01*
X107039100Y-44516099D01*
X107146896Y-44677428D01*
X107221147Y-44856685D01*
X107232432Y-44913418D01*
X107259000Y-45046986D01*
X107259000Y-45241014D01*
X107246203Y-45305348D01*
X107221147Y-45431315D01*
X107146896Y-45610572D01*
X107039100Y-45771901D01*
X106901901Y-45909100D01*
X106740572Y-46016896D01*
X106561315Y-46091147D01*
X106466164Y-46110074D01*
X106371014Y-46129000D01*
X106176986Y-46129000D01*
X106081836Y-46110074D01*
X105986685Y-46091147D01*
X105807428Y-46016896D01*
X105646099Y-45909100D01*
X105508900Y-45771901D01*
X105401104Y-45610572D01*
X105326853Y-45431315D01*
X105301797Y-45305348D01*
X105289000Y-45241014D01*
X105289000Y-45046986D01*
X105315568Y-44913418D01*
X105326853Y-44856685D01*
X105401104Y-44677428D01*
X105508900Y-44516099D01*
X105646099Y-44378900D01*
X105807428Y-44271104D01*
X105986685Y-44196853D01*
X106106689Y-44172983D01*
X106176986Y-44159000D01*
X106371014Y-44159000D01*
X106441311Y-44172983D01*
X106441311Y-44172983D01*
G37*
G36*
X96331311Y-44172983D02*
X96451315Y-44196853D01*
X96630572Y-44271104D01*
X96791901Y-44378900D01*
X96929100Y-44516099D01*
X97036896Y-44677428D01*
X97111147Y-44856685D01*
X97122432Y-44913418D01*
X97149000Y-45046986D01*
X97149000Y-45241014D01*
X97136203Y-45305348D01*
X97111147Y-45431315D01*
X97036896Y-45610572D01*
X96929100Y-45771901D01*
X96791901Y-45909100D01*
X96630572Y-46016896D01*
X96451315Y-46091147D01*
X96356164Y-46110074D01*
X96261014Y-46129000D01*
X96066986Y-46129000D01*
X95971836Y-46110074D01*
X95876685Y-46091147D01*
X95697428Y-46016896D01*
X95536099Y-45909100D01*
X95398900Y-45771901D01*
X95291104Y-45610572D01*
X95216853Y-45431315D01*
X95191797Y-45305348D01*
X95179000Y-45241014D01*
X95179000Y-45046986D01*
X95205568Y-44913418D01*
X95216853Y-44856685D01*
X95291104Y-44677428D01*
X95398900Y-44516099D01*
X95536099Y-44378900D01*
X95697428Y-44271104D01*
X95876685Y-44196853D01*
X95996689Y-44172983D01*
X96066986Y-44159000D01*
X96261014Y-44159000D01*
X96331311Y-44172983D01*
X96331311Y-44172983D01*
G37*
G36*
X132653461Y-44102124D02*
X132779949Y-44127284D01*
X132951017Y-44198143D01*
X133104975Y-44301014D01*
X133235906Y-44431945D01*
X133338777Y-44585903D01*
X133403561Y-44742304D01*
X133409636Y-44756972D01*
X133440756Y-44913419D01*
X133445760Y-44938579D01*
X133445760Y-45123741D01*
X133409636Y-45305349D01*
X133338777Y-45476417D01*
X133235906Y-45630375D01*
X133104975Y-45761306D01*
X132951017Y-45864177D01*
X132779949Y-45935036D01*
X132724829Y-45946000D01*
X132598342Y-45971160D01*
X132413178Y-45971160D01*
X132286691Y-45946000D01*
X132231571Y-45935036D01*
X132060503Y-45864177D01*
X131906545Y-45761306D01*
X131775614Y-45630375D01*
X131672743Y-45476417D01*
X131601884Y-45305349D01*
X131565760Y-45123741D01*
X131565760Y-44938579D01*
X131570765Y-44913419D01*
X131601884Y-44756972D01*
X131607960Y-44742304D01*
X131672743Y-44585903D01*
X131775614Y-44431945D01*
X131906545Y-44301014D01*
X132060503Y-44198143D01*
X132231571Y-44127284D01*
X132358059Y-44102124D01*
X132413178Y-44091160D01*
X132598342Y-44091160D01*
X132653461Y-44102124D01*
X132653461Y-44102124D01*
G37*
G36*
X130153461Y-44102124D02*
X130279949Y-44127284D01*
X130451017Y-44198143D01*
X130604975Y-44301014D01*
X130735906Y-44431945D01*
X130838777Y-44585903D01*
X130903561Y-44742304D01*
X130909636Y-44756972D01*
X130940756Y-44913419D01*
X130945760Y-44938579D01*
X130945760Y-45123741D01*
X130909636Y-45305349D01*
X130838777Y-45476417D01*
X130735906Y-45630375D01*
X130604975Y-45761306D01*
X130451017Y-45864177D01*
X130279949Y-45935036D01*
X130224829Y-45946000D01*
X130098342Y-45971160D01*
X129913178Y-45971160D01*
X129786691Y-45946000D01*
X129731571Y-45935036D01*
X129560503Y-45864177D01*
X129406545Y-45761306D01*
X129275614Y-45630375D01*
X129172743Y-45476417D01*
X129101884Y-45305349D01*
X129065760Y-45123741D01*
X129065760Y-44938579D01*
X129070765Y-44913419D01*
X129101884Y-44756972D01*
X129107960Y-44742304D01*
X129172743Y-44585903D01*
X129275614Y-44431945D01*
X129406545Y-44301014D01*
X129560503Y-44198143D01*
X129731571Y-44127284D01*
X129858059Y-44102124D01*
X129913178Y-44091160D01*
X130098342Y-44091160D01*
X130153461Y-44102124D01*
X130153461Y-44102124D01*
G37*
G36*
X135153461Y-44102124D02*
X135279949Y-44127284D01*
X135451017Y-44198143D01*
X135604975Y-44301014D01*
X135735906Y-44431945D01*
X135838777Y-44585903D01*
X135903561Y-44742304D01*
X135909636Y-44756972D01*
X135940756Y-44913419D01*
X135945760Y-44938579D01*
X135945760Y-45123741D01*
X135909636Y-45305349D01*
X135838777Y-45476417D01*
X135735906Y-45630375D01*
X135604975Y-45761306D01*
X135451017Y-45864177D01*
X135279949Y-45935036D01*
X135224829Y-45946000D01*
X135098342Y-45971160D01*
X134913178Y-45971160D01*
X134786691Y-45946000D01*
X134731571Y-45935036D01*
X134560503Y-45864177D01*
X134406545Y-45761306D01*
X134275614Y-45630375D01*
X134172743Y-45476417D01*
X134101884Y-45305349D01*
X134065760Y-45123741D01*
X134065760Y-44938579D01*
X134070765Y-44913419D01*
X134101884Y-44756972D01*
X134107960Y-44742304D01*
X134172743Y-44585903D01*
X134275614Y-44431945D01*
X134406545Y-44301014D01*
X134560503Y-44198143D01*
X134731571Y-44127284D01*
X134858059Y-44102124D01*
X134913178Y-44091160D01*
X135098342Y-44091160D01*
X135153461Y-44102124D01*
X135153461Y-44102124D01*
G37*
G36*
X142653461Y-44102124D02*
X142779949Y-44127284D01*
X142951017Y-44198143D01*
X143104975Y-44301014D01*
X143235906Y-44431945D01*
X143338777Y-44585903D01*
X143403561Y-44742304D01*
X143409636Y-44756972D01*
X143440756Y-44913419D01*
X143445760Y-44938579D01*
X143445760Y-45123741D01*
X143409636Y-45305349D01*
X143338777Y-45476417D01*
X143235906Y-45630375D01*
X143104975Y-45761306D01*
X142951017Y-45864177D01*
X142779949Y-45935036D01*
X142724829Y-45946000D01*
X142598342Y-45971160D01*
X142413178Y-45971160D01*
X142286691Y-45946000D01*
X142231571Y-45935036D01*
X142060503Y-45864177D01*
X141906545Y-45761306D01*
X141775614Y-45630375D01*
X141672743Y-45476417D01*
X141601884Y-45305349D01*
X141565760Y-45123741D01*
X141565760Y-44938579D01*
X141570765Y-44913419D01*
X141601884Y-44756972D01*
X141607960Y-44742304D01*
X141672743Y-44585903D01*
X141775614Y-44431945D01*
X141906545Y-44301014D01*
X142060503Y-44198143D01*
X142231571Y-44127284D01*
X142358059Y-44102124D01*
X142413178Y-44091160D01*
X142598342Y-44091160D01*
X142653461Y-44102124D01*
X142653461Y-44102124D01*
G37*
G36*
X140153461Y-44102124D02*
X140279949Y-44127284D01*
X140451017Y-44198143D01*
X140604975Y-44301014D01*
X140735906Y-44431945D01*
X140838777Y-44585903D01*
X140903561Y-44742304D01*
X140909636Y-44756972D01*
X140940756Y-44913419D01*
X140945760Y-44938579D01*
X140945760Y-45123741D01*
X140909636Y-45305349D01*
X140838777Y-45476417D01*
X140735906Y-45630375D01*
X140604975Y-45761306D01*
X140451017Y-45864177D01*
X140279949Y-45935036D01*
X140224829Y-45946000D01*
X140098342Y-45971160D01*
X139913178Y-45971160D01*
X139786691Y-45946000D01*
X139731571Y-45935036D01*
X139560503Y-45864177D01*
X139406545Y-45761306D01*
X139275614Y-45630375D01*
X139172743Y-45476417D01*
X139101884Y-45305349D01*
X139065760Y-45123741D01*
X139065760Y-44938579D01*
X139070765Y-44913419D01*
X139101884Y-44756972D01*
X139107960Y-44742304D01*
X139172743Y-44585903D01*
X139275614Y-44431945D01*
X139406545Y-44301014D01*
X139560503Y-44198143D01*
X139731571Y-44127284D01*
X139858059Y-44102124D01*
X139913178Y-44091160D01*
X140098342Y-44091160D01*
X140153461Y-44102124D01*
X140153461Y-44102124D01*
G37*
G36*
X137653461Y-44102124D02*
X137779949Y-44127284D01*
X137951017Y-44198143D01*
X138104975Y-44301014D01*
X138235906Y-44431945D01*
X138338777Y-44585903D01*
X138403561Y-44742304D01*
X138409636Y-44756972D01*
X138440756Y-44913419D01*
X138445760Y-44938579D01*
X138445760Y-45123741D01*
X138409636Y-45305349D01*
X138338777Y-45476417D01*
X138235906Y-45630375D01*
X138104975Y-45761306D01*
X137951017Y-45864177D01*
X137779949Y-45935036D01*
X137724829Y-45946000D01*
X137598342Y-45971160D01*
X137413178Y-45971160D01*
X137286691Y-45946000D01*
X137231571Y-45935036D01*
X137060503Y-45864177D01*
X136906545Y-45761306D01*
X136775614Y-45630375D01*
X136672743Y-45476417D01*
X136601884Y-45305349D01*
X136565760Y-45123741D01*
X136565760Y-44938579D01*
X136570765Y-44913419D01*
X136601884Y-44756972D01*
X136607960Y-44742304D01*
X136672743Y-44585903D01*
X136775614Y-44431945D01*
X136906545Y-44301014D01*
X137060503Y-44198143D01*
X137231571Y-44127284D01*
X137358059Y-44102124D01*
X137413178Y-44091160D01*
X137598342Y-44091160D01*
X137653461Y-44102124D01*
X137653461Y-44102124D01*
G37*
G36*
X160367730Y-44072164D02*
X160518349Y-44102124D01*
X160689417Y-44172983D01*
X160843375Y-44275854D01*
X160974306Y-44406785D01*
X161077177Y-44560743D01*
X161148036Y-44731811D01*
X161153041Y-44756972D01*
X161184160Y-44913418D01*
X161184160Y-45098582D01*
X161179155Y-45123742D01*
X161148036Y-45280189D01*
X161077177Y-45451257D01*
X160974306Y-45605215D01*
X160843375Y-45736146D01*
X160689417Y-45839017D01*
X160518349Y-45909876D01*
X160487360Y-45916040D01*
X160336742Y-45946000D01*
X160151578Y-45946000D01*
X160000960Y-45916040D01*
X159969971Y-45909876D01*
X159798903Y-45839017D01*
X159644945Y-45736146D01*
X159514014Y-45605215D01*
X159411143Y-45451257D01*
X159340284Y-45280189D01*
X159309165Y-45123742D01*
X159304160Y-45098582D01*
X159304160Y-44913418D01*
X159335279Y-44756972D01*
X159340284Y-44731811D01*
X159411143Y-44560743D01*
X159514014Y-44406785D01*
X159644945Y-44275854D01*
X159798903Y-44172983D01*
X159969971Y-44102124D01*
X160120590Y-44072164D01*
X160151578Y-44066000D01*
X160336742Y-44066000D01*
X160367730Y-44072164D01*
X160367730Y-44072164D01*
G37*
G36*
X162867730Y-44072164D02*
X163018349Y-44102124D01*
X163189417Y-44172983D01*
X163343375Y-44275854D01*
X163474306Y-44406785D01*
X163577177Y-44560743D01*
X163648036Y-44731811D01*
X163653041Y-44756972D01*
X163684160Y-44913418D01*
X163684160Y-45098582D01*
X163679155Y-45123742D01*
X163648036Y-45280189D01*
X163577177Y-45451257D01*
X163474306Y-45605215D01*
X163343375Y-45736146D01*
X163189417Y-45839017D01*
X163018349Y-45909876D01*
X162987360Y-45916040D01*
X162836742Y-45946000D01*
X162651578Y-45946000D01*
X162500960Y-45916040D01*
X162469971Y-45909876D01*
X162298903Y-45839017D01*
X162144945Y-45736146D01*
X162014014Y-45605215D01*
X161911143Y-45451257D01*
X161840284Y-45280189D01*
X161809165Y-45123742D01*
X161804160Y-45098582D01*
X161804160Y-44913418D01*
X161835279Y-44756972D01*
X161840284Y-44731811D01*
X161911143Y-44560743D01*
X162014014Y-44406785D01*
X162144945Y-44275854D01*
X162298903Y-44172983D01*
X162469971Y-44102124D01*
X162620590Y-44072164D01*
X162651578Y-44066000D01*
X162836742Y-44066000D01*
X162867730Y-44072164D01*
X162867730Y-44072164D01*
G37*
G36*
X157867730Y-44072164D02*
X158018349Y-44102124D01*
X158189417Y-44172983D01*
X158343375Y-44275854D01*
X158474306Y-44406785D01*
X158577177Y-44560743D01*
X158648036Y-44731811D01*
X158653041Y-44756972D01*
X158684160Y-44913418D01*
X158684160Y-45098582D01*
X158679155Y-45123742D01*
X158648036Y-45280189D01*
X158577177Y-45451257D01*
X158474306Y-45605215D01*
X158343375Y-45736146D01*
X158189417Y-45839017D01*
X158018349Y-45909876D01*
X157987360Y-45916040D01*
X157836742Y-45946000D01*
X157651578Y-45946000D01*
X157500960Y-45916040D01*
X157469971Y-45909876D01*
X157298903Y-45839017D01*
X157144945Y-45736146D01*
X157014014Y-45605215D01*
X156911143Y-45451257D01*
X156840284Y-45280189D01*
X156809165Y-45123742D01*
X156804160Y-45098582D01*
X156804160Y-44913418D01*
X156835279Y-44756972D01*
X156840284Y-44731811D01*
X156911143Y-44560743D01*
X157014014Y-44406785D01*
X157144945Y-44275854D01*
X157298903Y-44172983D01*
X157469971Y-44102124D01*
X157620590Y-44072164D01*
X157651578Y-44066000D01*
X157836742Y-44066000D01*
X157867730Y-44072164D01*
X157867730Y-44072164D01*
G37*
G36*
X155367730Y-44072164D02*
X155518349Y-44102124D01*
X155689417Y-44172983D01*
X155843375Y-44275854D01*
X155974306Y-44406785D01*
X156077177Y-44560743D01*
X156148036Y-44731811D01*
X156153041Y-44756972D01*
X156184160Y-44913418D01*
X156184160Y-45098582D01*
X156179155Y-45123742D01*
X156148036Y-45280189D01*
X156077177Y-45451257D01*
X155974306Y-45605215D01*
X155843375Y-45736146D01*
X155689417Y-45839017D01*
X155518349Y-45909876D01*
X155487360Y-45916040D01*
X155336742Y-45946000D01*
X155151578Y-45946000D01*
X155000960Y-45916040D01*
X154969971Y-45909876D01*
X154798903Y-45839017D01*
X154644945Y-45736146D01*
X154514014Y-45605215D01*
X154411143Y-45451257D01*
X154340284Y-45280189D01*
X154309165Y-45123742D01*
X154304160Y-45098582D01*
X154304160Y-44913418D01*
X154335279Y-44756972D01*
X154340284Y-44731811D01*
X154411143Y-44560743D01*
X154514014Y-44406785D01*
X154644945Y-44275854D01*
X154798903Y-44172983D01*
X154969971Y-44102124D01*
X155120590Y-44072164D01*
X155151578Y-44066000D01*
X155336742Y-44066000D01*
X155367730Y-44072164D01*
X155367730Y-44072164D01*
G37*
G36*
X152867730Y-44072164D02*
X153018349Y-44102124D01*
X153189417Y-44172983D01*
X153343375Y-44275854D01*
X153474306Y-44406785D01*
X153577177Y-44560743D01*
X153648036Y-44731811D01*
X153653041Y-44756972D01*
X153684160Y-44913418D01*
X153684160Y-45098582D01*
X153679155Y-45123742D01*
X153648036Y-45280189D01*
X153577177Y-45451257D01*
X153474306Y-45605215D01*
X153343375Y-45736146D01*
X153189417Y-45839017D01*
X153018349Y-45909876D01*
X152987360Y-45916040D01*
X152836742Y-45946000D01*
X152651578Y-45946000D01*
X152500960Y-45916040D01*
X152469971Y-45909876D01*
X152298903Y-45839017D01*
X152144945Y-45736146D01*
X152014014Y-45605215D01*
X151911143Y-45451257D01*
X151840284Y-45280189D01*
X151809165Y-45123742D01*
X151804160Y-45098582D01*
X151804160Y-44913418D01*
X151835279Y-44756972D01*
X151840284Y-44731811D01*
X151911143Y-44560743D01*
X152014014Y-44406785D01*
X152144945Y-44275854D01*
X152298903Y-44172983D01*
X152469971Y-44102124D01*
X152620590Y-44072164D01*
X152651578Y-44066000D01*
X152836742Y-44066000D01*
X152867730Y-44072164D01*
X152867730Y-44072164D01*
G37*
G36*
X81800385Y-44054102D02*
X81891189Y-44072164D01*
X82062257Y-44143023D01*
X82216215Y-44245894D01*
X82347146Y-44376825D01*
X82450017Y-44530783D01*
X82520876Y-44701851D01*
X82528923Y-44742305D01*
X82557000Y-44883458D01*
X82557000Y-45068622D01*
X82546036Y-45123741D01*
X82520876Y-45250229D01*
X82450017Y-45421297D01*
X82347146Y-45575255D01*
X82216215Y-45706186D01*
X82062257Y-45809057D01*
X81891189Y-45879916D01*
X81800385Y-45897978D01*
X81709582Y-45916040D01*
X81524418Y-45916040D01*
X81433615Y-45897978D01*
X81342811Y-45879916D01*
X81171743Y-45809057D01*
X81017785Y-45706186D01*
X80886854Y-45575255D01*
X80783983Y-45421297D01*
X80713124Y-45250229D01*
X80687964Y-45123741D01*
X80677000Y-45068622D01*
X80677000Y-44883458D01*
X80705077Y-44742305D01*
X80713124Y-44701851D01*
X80783983Y-44530783D01*
X80886854Y-44376825D01*
X81017785Y-44245894D01*
X81171743Y-44143023D01*
X81342811Y-44072164D01*
X81433615Y-44054102D01*
X81524418Y-44036040D01*
X81709582Y-44036040D01*
X81800385Y-44054102D01*
X81800385Y-44054102D01*
G37*
G36*
X86800385Y-44054102D02*
X86891189Y-44072164D01*
X87062257Y-44143023D01*
X87216215Y-44245894D01*
X87347146Y-44376825D01*
X87450017Y-44530783D01*
X87520876Y-44701851D01*
X87528923Y-44742305D01*
X87557000Y-44883458D01*
X87557000Y-45068622D01*
X87546036Y-45123741D01*
X87520876Y-45250229D01*
X87450017Y-45421297D01*
X87347146Y-45575255D01*
X87216215Y-45706186D01*
X87062257Y-45809057D01*
X86891189Y-45879916D01*
X86800385Y-45897978D01*
X86709582Y-45916040D01*
X86524418Y-45916040D01*
X86433615Y-45897978D01*
X86342811Y-45879916D01*
X86171743Y-45809057D01*
X86017785Y-45706186D01*
X85886854Y-45575255D01*
X85783983Y-45421297D01*
X85713124Y-45250229D01*
X85687964Y-45123741D01*
X85677000Y-45068622D01*
X85677000Y-44883458D01*
X85705077Y-44742305D01*
X85713124Y-44701851D01*
X85783983Y-44530783D01*
X85886854Y-44376825D01*
X86017785Y-44245894D01*
X86171743Y-44143023D01*
X86342811Y-44072164D01*
X86433615Y-44054102D01*
X86524418Y-44036040D01*
X86709582Y-44036040D01*
X86800385Y-44054102D01*
X86800385Y-44054102D01*
G37*
G36*
X79300385Y-44054102D02*
X79391189Y-44072164D01*
X79562257Y-44143023D01*
X79716215Y-44245894D01*
X79847146Y-44376825D01*
X79950017Y-44530783D01*
X80020876Y-44701851D01*
X80028923Y-44742305D01*
X80057000Y-44883458D01*
X80057000Y-45068622D01*
X80046036Y-45123741D01*
X80020876Y-45250229D01*
X79950017Y-45421297D01*
X79847146Y-45575255D01*
X79716215Y-45706186D01*
X79562257Y-45809057D01*
X79391189Y-45879916D01*
X79300385Y-45897978D01*
X79209582Y-45916040D01*
X79024418Y-45916040D01*
X78933615Y-45897978D01*
X78842811Y-45879916D01*
X78671743Y-45809057D01*
X78517785Y-45706186D01*
X78386854Y-45575255D01*
X78283983Y-45421297D01*
X78213124Y-45250229D01*
X78187964Y-45123741D01*
X78177000Y-45068622D01*
X78177000Y-44883458D01*
X78205077Y-44742305D01*
X78213124Y-44701851D01*
X78283983Y-44530783D01*
X78386854Y-44376825D01*
X78517785Y-44245894D01*
X78671743Y-44143023D01*
X78842811Y-44072164D01*
X78933615Y-44054102D01*
X79024418Y-44036040D01*
X79209582Y-44036040D01*
X79300385Y-44054102D01*
X79300385Y-44054102D01*
G37*
G36*
X84300385Y-44054102D02*
X84391189Y-44072164D01*
X84562257Y-44143023D01*
X84716215Y-44245894D01*
X84847146Y-44376825D01*
X84950017Y-44530783D01*
X85020876Y-44701851D01*
X85028923Y-44742305D01*
X85057000Y-44883458D01*
X85057000Y-45068622D01*
X85046036Y-45123741D01*
X85020876Y-45250229D01*
X84950017Y-45421297D01*
X84847146Y-45575255D01*
X84716215Y-45706186D01*
X84562257Y-45809057D01*
X84391189Y-45879916D01*
X84300385Y-45897978D01*
X84209582Y-45916040D01*
X84024418Y-45916040D01*
X83933615Y-45897978D01*
X83842811Y-45879916D01*
X83671743Y-45809057D01*
X83517785Y-45706186D01*
X83386854Y-45575255D01*
X83283983Y-45421297D01*
X83213124Y-45250229D01*
X83187964Y-45123741D01*
X83177000Y-45068622D01*
X83177000Y-44883458D01*
X83205077Y-44742305D01*
X83213124Y-44701851D01*
X83283983Y-44530783D01*
X83386854Y-44376825D01*
X83517785Y-44245894D01*
X83671743Y-44143023D01*
X83842811Y-44072164D01*
X83933615Y-44054102D01*
X84024418Y-44036040D01*
X84209582Y-44036040D01*
X84300385Y-44054102D01*
X84300385Y-44054102D01*
G37*
G36*
X76800385Y-44054102D02*
X76891189Y-44072164D01*
X77062257Y-44143023D01*
X77216215Y-44245894D01*
X77347146Y-44376825D01*
X77450017Y-44530783D01*
X77520876Y-44701851D01*
X77528923Y-44742305D01*
X77557000Y-44883458D01*
X77557000Y-45068622D01*
X77546036Y-45123741D01*
X77520876Y-45250229D01*
X77450017Y-45421297D01*
X77347146Y-45575255D01*
X77216215Y-45706186D01*
X77062257Y-45809057D01*
X76891189Y-45879916D01*
X76800385Y-45897978D01*
X76709582Y-45916040D01*
X76524418Y-45916040D01*
X76433615Y-45897978D01*
X76342811Y-45879916D01*
X76171743Y-45809057D01*
X76017785Y-45706186D01*
X75886854Y-45575255D01*
X75783983Y-45421297D01*
X75713124Y-45250229D01*
X75687964Y-45123741D01*
X75677000Y-45068622D01*
X75677000Y-44883458D01*
X75705077Y-44742305D01*
X75713124Y-44701851D01*
X75783983Y-44530783D01*
X75886854Y-44376825D01*
X76017785Y-44245894D01*
X76171743Y-44143023D01*
X76342811Y-44072164D01*
X76433615Y-44054102D01*
X76524418Y-44036040D01*
X76709582Y-44036040D01*
X76800385Y-44054102D01*
X76800385Y-44054102D01*
G37*
G36*
X74300385Y-44054102D02*
X74391189Y-44072164D01*
X74562257Y-44143023D01*
X74716215Y-44245894D01*
X74847146Y-44376825D01*
X74950017Y-44530783D01*
X75020876Y-44701851D01*
X75028923Y-44742305D01*
X75057000Y-44883458D01*
X75057000Y-45068622D01*
X75046036Y-45123741D01*
X75020876Y-45250229D01*
X74950017Y-45421297D01*
X74847146Y-45575255D01*
X74716215Y-45706186D01*
X74562257Y-45809057D01*
X74391189Y-45879916D01*
X74300385Y-45897978D01*
X74209582Y-45916040D01*
X74024418Y-45916040D01*
X73933615Y-45897978D01*
X73842811Y-45879916D01*
X73671743Y-45809057D01*
X73517785Y-45706186D01*
X73386854Y-45575255D01*
X73283983Y-45421297D01*
X73213124Y-45250229D01*
X73187964Y-45123741D01*
X73177000Y-45068622D01*
X73177000Y-44883458D01*
X73205077Y-44742305D01*
X73213124Y-44701851D01*
X73283983Y-44530783D01*
X73386854Y-44376825D01*
X73517785Y-44245894D01*
X73671743Y-44143023D01*
X73842811Y-44072164D01*
X73933615Y-44054102D01*
X74024418Y-44036040D01*
X74209582Y-44036040D01*
X74300385Y-44054102D01*
X74300385Y-44054102D01*
G37*
G36*
X71800385Y-44054102D02*
X71891189Y-44072164D01*
X72062257Y-44143023D01*
X72216215Y-44245894D01*
X72347146Y-44376825D01*
X72450017Y-44530783D01*
X72520876Y-44701851D01*
X72528923Y-44742305D01*
X72557000Y-44883458D01*
X72557000Y-45068622D01*
X72546036Y-45123741D01*
X72520876Y-45250229D01*
X72450017Y-45421297D01*
X72347146Y-45575255D01*
X72216215Y-45706186D01*
X72062257Y-45809057D01*
X71891189Y-45879916D01*
X71800385Y-45897978D01*
X71709582Y-45916040D01*
X71524418Y-45916040D01*
X71433615Y-45897978D01*
X71342811Y-45879916D01*
X71171743Y-45809057D01*
X71017785Y-45706186D01*
X70886854Y-45575255D01*
X70783983Y-45421297D01*
X70713124Y-45250229D01*
X70687964Y-45123741D01*
X70677000Y-45068622D01*
X70677000Y-44883458D01*
X70705077Y-44742305D01*
X70713124Y-44701851D01*
X70783983Y-44530783D01*
X70886854Y-44376825D01*
X71017785Y-44245894D01*
X71171743Y-44143023D01*
X71342811Y-44072164D01*
X71433615Y-44054102D01*
X71524418Y-44036040D01*
X71709582Y-44036040D01*
X71800385Y-44054102D01*
X71800385Y-44054102D01*
G37*
G36*
X117028145Y-43792902D02*
X117118949Y-43810964D01*
X117290017Y-43881823D01*
X117443975Y-43984694D01*
X117574906Y-44115625D01*
X117677777Y-44269583D01*
X117748636Y-44440651D01*
X117784760Y-44622259D01*
X117784760Y-44807421D01*
X117748636Y-44989029D01*
X117677777Y-45160097D01*
X117574906Y-45314055D01*
X117443975Y-45444986D01*
X117290017Y-45547857D01*
X117118949Y-45618716D01*
X117060335Y-45630375D01*
X116937342Y-45654840D01*
X116752178Y-45654840D01*
X116629185Y-45630375D01*
X116570571Y-45618716D01*
X116399503Y-45547857D01*
X116245545Y-45444986D01*
X116114614Y-45314055D01*
X116011743Y-45160097D01*
X115940884Y-44989029D01*
X115904760Y-44807421D01*
X115904760Y-44622259D01*
X115940884Y-44440651D01*
X116011743Y-44269583D01*
X116114614Y-44115625D01*
X116245545Y-43984694D01*
X116399503Y-43881823D01*
X116570571Y-43810964D01*
X116661375Y-43792902D01*
X116752178Y-43774840D01*
X116937342Y-43774840D01*
X117028145Y-43792902D01*
X117028145Y-43792902D01*
G37*
G36*
X119528145Y-43792902D02*
X119618949Y-43810964D01*
X119790017Y-43881823D01*
X119943975Y-43984694D01*
X120074906Y-44115625D01*
X120177777Y-44269583D01*
X120248636Y-44440651D01*
X120284760Y-44622259D01*
X120284760Y-44807421D01*
X120248636Y-44989029D01*
X120177777Y-45160097D01*
X120074906Y-45314055D01*
X119943975Y-45444986D01*
X119790017Y-45547857D01*
X119618949Y-45618716D01*
X119560335Y-45630375D01*
X119437342Y-45654840D01*
X119252178Y-45654840D01*
X119129185Y-45630375D01*
X119070571Y-45618716D01*
X118899503Y-45547857D01*
X118745545Y-45444986D01*
X118614614Y-45314055D01*
X118511743Y-45160097D01*
X118440884Y-44989029D01*
X118404760Y-44807421D01*
X118404760Y-44622259D01*
X118440884Y-44440651D01*
X118511743Y-44269583D01*
X118614614Y-44115625D01*
X118745545Y-43984694D01*
X118899503Y-43881823D01*
X119070571Y-43810964D01*
X119161375Y-43792902D01*
X119252178Y-43774840D01*
X119437342Y-43774840D01*
X119528145Y-43792902D01*
X119528145Y-43792902D01*
G37*
G36*
X109006164Y-42657926D02*
X109101315Y-42676853D01*
X109280572Y-42751104D01*
X109441901Y-42858900D01*
X109579100Y-42996099D01*
X109686896Y-43157428D01*
X109761147Y-43336685D01*
X109799000Y-43526987D01*
X109799000Y-43721013D01*
X109761147Y-43911315D01*
X109686896Y-44090572D01*
X109579100Y-44251901D01*
X109441901Y-44389100D01*
X109280572Y-44496896D01*
X109101315Y-44571147D01*
X109027131Y-44585903D01*
X108911014Y-44609000D01*
X108716986Y-44609000D01*
X108600869Y-44585903D01*
X108526685Y-44571147D01*
X108347428Y-44496896D01*
X108186099Y-44389100D01*
X108048900Y-44251901D01*
X107941104Y-44090572D01*
X107866853Y-43911315D01*
X107829000Y-43721013D01*
X107829000Y-43526987D01*
X107866853Y-43336685D01*
X107941104Y-43157428D01*
X108048900Y-42996099D01*
X108186099Y-42858900D01*
X108347428Y-42751104D01*
X108526685Y-42676853D01*
X108621836Y-42657926D01*
X108716986Y-42639000D01*
X108911014Y-42639000D01*
X109006164Y-42657926D01*
X109006164Y-42657926D01*
G37*
G36*
X98896164Y-42657926D02*
X98991315Y-42676853D01*
X99170572Y-42751104D01*
X99331901Y-42858900D01*
X99469100Y-42996099D01*
X99576896Y-43157428D01*
X99651147Y-43336685D01*
X99689000Y-43526987D01*
X99689000Y-43721013D01*
X99651147Y-43911315D01*
X99576896Y-44090572D01*
X99469100Y-44251901D01*
X99331901Y-44389100D01*
X99170572Y-44496896D01*
X98991315Y-44571147D01*
X98917131Y-44585903D01*
X98801014Y-44609000D01*
X98606986Y-44609000D01*
X98490869Y-44585903D01*
X98416685Y-44571147D01*
X98237428Y-44496896D01*
X98076099Y-44389100D01*
X97938900Y-44251901D01*
X97831104Y-44090572D01*
X97756853Y-43911315D01*
X97719000Y-43721013D01*
X97719000Y-43526987D01*
X97756853Y-43336685D01*
X97831104Y-43157428D01*
X97938900Y-42996099D01*
X98076099Y-42858900D01*
X98237428Y-42751104D01*
X98416685Y-42676853D01*
X98511836Y-42657926D01*
X98606986Y-42639000D01*
X98801014Y-42639000D01*
X98896164Y-42657926D01*
X98896164Y-42657926D01*
G37*
M02*
