G04 #@! TF.GenerationSoftware,KiCad,Pcbnew,5.0.2-bee76a0~70~ubuntu18.04.1*
G04 #@! TF.CreationDate,2019-04-30T23:13:31+02:00*
G04 #@! TF.ProjectId,mainPCB,6d61696e-5043-4422-9e6b-696361645f70,rev?*
G04 #@! TF.SameCoordinates,Original*
G04 #@! TF.FileFunction,Soldermask,Bot*
G04 #@! TF.FilePolarity,Negative*
%FSLAX46Y46*%
G04 Gerber Fmt 4.6, Leading zero omitted, Abs format (unit mm)*
G04 Created by KiCad (PCBNEW 5.0.2-bee76a0~70~ubuntu18.04.1) date Di 30 Apr 2019 23:13:31 CEST*
%MOMM*%
%LPD*%
G01*
G04 APERTURE LIST*
%ADD10C,0.150000*%
%ADD11C,0.100000*%
G04 APERTURE END LIST*
D10*
X17462500Y-37465000D02*
X17462500Y-110617000D01*
X177482500Y-37465000D02*
X17462500Y-37465000D01*
X177482500Y-110617000D02*
X177482500Y-37465000D01*
X17462500Y-110617000D02*
X177482500Y-110617000D01*
D11*
G36*
X148432523Y-104173528D02*
X148684457Y-104223640D01*
X148981093Y-104346512D01*
X148981095Y-104346513D01*
X149248065Y-104524896D01*
X149475104Y-104751935D01*
X149653487Y-105018905D01*
X149653488Y-105018907D01*
X149776360Y-105315543D01*
X149839000Y-105630460D01*
X149839000Y-105951540D01*
X149776360Y-106266457D01*
X149653488Y-106563093D01*
X149653487Y-106563095D01*
X149475104Y-106830065D01*
X149248065Y-107057104D01*
X148981095Y-107235487D01*
X148981094Y-107235488D01*
X148981093Y-107235488D01*
X148684457Y-107358360D01*
X148432523Y-107408472D01*
X148369541Y-107421000D01*
X148048459Y-107421000D01*
X147985477Y-107408472D01*
X147733543Y-107358360D01*
X147436907Y-107235488D01*
X147436906Y-107235488D01*
X147436905Y-107235487D01*
X147169935Y-107057104D01*
X146942896Y-106830065D01*
X146764513Y-106563095D01*
X146764512Y-106563093D01*
X146641640Y-106266457D01*
X146579000Y-105951540D01*
X146579000Y-105630460D01*
X146641640Y-105315543D01*
X146764512Y-105018907D01*
X146764513Y-105018905D01*
X146942896Y-104751935D01*
X147169935Y-104524896D01*
X147436905Y-104346513D01*
X147436907Y-104346512D01*
X147733543Y-104223640D01*
X147985477Y-104173528D01*
X148048459Y-104161000D01*
X148369541Y-104161000D01*
X148432523Y-104173528D01*
X148432523Y-104173528D01*
G37*
G36*
X170752383Y-102805776D02*
X170752385Y-102805777D01*
X170752386Y-102805777D01*
X171149116Y-102970108D01*
X171506170Y-103208684D01*
X171809816Y-103512330D01*
X172048392Y-103869384D01*
X172212723Y-104266114D01*
X172212724Y-104266117D01*
X172264198Y-104524896D01*
X172296500Y-104687290D01*
X172296500Y-105116710D01*
X172212723Y-105537886D01*
X172048392Y-105934616D01*
X172037083Y-105951541D01*
X171826666Y-106266453D01*
X171809816Y-106291670D01*
X171506170Y-106595316D01*
X171149116Y-106833892D01*
X170752386Y-106998223D01*
X170752385Y-106998223D01*
X170752383Y-106998224D01*
X170331211Y-107082000D01*
X169901789Y-107082000D01*
X169480617Y-106998224D01*
X169480615Y-106998223D01*
X169480614Y-106998223D01*
X169083884Y-106833892D01*
X168726830Y-106595316D01*
X168423184Y-106291670D01*
X168406335Y-106266453D01*
X168195917Y-105951541D01*
X168184608Y-105934616D01*
X168020277Y-105537886D01*
X167936500Y-105116710D01*
X167936500Y-104687290D01*
X167968802Y-104524896D01*
X168020276Y-104266117D01*
X168020277Y-104266114D01*
X168184608Y-103869384D01*
X168423184Y-103512330D01*
X168726830Y-103208684D01*
X169083884Y-102970108D01*
X169480614Y-102805777D01*
X169480615Y-102805777D01*
X169480617Y-102805776D01*
X169901789Y-102722000D01*
X170331211Y-102722000D01*
X170752383Y-102805776D01*
X170752383Y-102805776D01*
G37*
G36*
X28956883Y-102805776D02*
X28956885Y-102805777D01*
X28956886Y-102805777D01*
X29353616Y-102970108D01*
X29710670Y-103208684D01*
X30014316Y-103512330D01*
X30252892Y-103869384D01*
X30417223Y-104266114D01*
X30417224Y-104266117D01*
X30468698Y-104524896D01*
X30501000Y-104687290D01*
X30501000Y-105116710D01*
X30417223Y-105537886D01*
X30252892Y-105934616D01*
X30241583Y-105951541D01*
X30031166Y-106266453D01*
X30014316Y-106291670D01*
X29710670Y-106595316D01*
X29353616Y-106833892D01*
X28956886Y-106998223D01*
X28956885Y-106998223D01*
X28956883Y-106998224D01*
X28535711Y-107082000D01*
X28106289Y-107082000D01*
X27685117Y-106998224D01*
X27685115Y-106998223D01*
X27685114Y-106998223D01*
X27288384Y-106833892D01*
X26931330Y-106595316D01*
X26627684Y-106291670D01*
X26610835Y-106266453D01*
X26400417Y-105951541D01*
X26389108Y-105934616D01*
X26224777Y-105537886D01*
X26141000Y-105116710D01*
X26141000Y-104687290D01*
X26173302Y-104524896D01*
X26224776Y-104266117D01*
X26224777Y-104266114D01*
X26389108Y-103869384D01*
X26627684Y-103512330D01*
X26931330Y-103208684D01*
X27288384Y-102970108D01*
X27685114Y-102805777D01*
X27685115Y-102805777D01*
X27685117Y-102805776D01*
X28106289Y-102722000D01*
X28535711Y-102722000D01*
X28956883Y-102805776D01*
X28956883Y-102805776D01*
G37*
G36*
X164329000Y-104131000D02*
X162569000Y-104131000D01*
X162569000Y-102371000D01*
X164329000Y-102371000D01*
X164329000Y-104131000D01*
X164329000Y-104131000D01*
G37*
G36*
X163621507Y-99843733D02*
X163787391Y-99894053D01*
X163940269Y-99975767D01*
X164074265Y-100085735D01*
X164184233Y-100219731D01*
X164265947Y-100372609D01*
X164316267Y-100538493D01*
X164333258Y-100711000D01*
X164316267Y-100883507D01*
X164265947Y-101049391D01*
X164184233Y-101202269D01*
X164074265Y-101336265D01*
X163940269Y-101446233D01*
X163787391Y-101527947D01*
X163621507Y-101578267D01*
X163492232Y-101591000D01*
X163405768Y-101591000D01*
X163276493Y-101578267D01*
X163110609Y-101527947D01*
X162957731Y-101446233D01*
X162823735Y-101336265D01*
X162713767Y-101202269D01*
X162632053Y-101049391D01*
X162581733Y-100883507D01*
X162564742Y-100711000D01*
X162581733Y-100538493D01*
X162632053Y-100372609D01*
X162713767Y-100219731D01*
X162823735Y-100085735D01*
X162957731Y-99975767D01*
X163110609Y-99894053D01*
X163276493Y-99843733D01*
X163405768Y-99831000D01*
X163492232Y-99831000D01*
X163621507Y-99843733D01*
X163621507Y-99843733D01*
G37*
G36*
X139809007Y-98827733D02*
X139974891Y-98878053D01*
X140127769Y-98959767D01*
X140261765Y-99069735D01*
X140371733Y-99203731D01*
X140453447Y-99356609D01*
X140503767Y-99522493D01*
X140520758Y-99695000D01*
X140503767Y-99867507D01*
X140453447Y-100033391D01*
X140371733Y-100186269D01*
X140261765Y-100320265D01*
X140127769Y-100430233D01*
X139974891Y-100511947D01*
X139809007Y-100562267D01*
X139679732Y-100575000D01*
X139593268Y-100575000D01*
X139463993Y-100562267D01*
X139298109Y-100511947D01*
X139145231Y-100430233D01*
X139011235Y-100320265D01*
X138901267Y-100186269D01*
X138819553Y-100033391D01*
X138769233Y-99867507D01*
X138752242Y-99695000D01*
X138769233Y-99522493D01*
X138819553Y-99356609D01*
X138901267Y-99203731D01*
X139011235Y-99069735D01*
X139145231Y-98959767D01*
X139298109Y-98878053D01*
X139463993Y-98827733D01*
X139593268Y-98815000D01*
X139679732Y-98815000D01*
X139809007Y-98827733D01*
X139809007Y-98827733D01*
G37*
G36*
X143056500Y-100575000D02*
X141296500Y-100575000D01*
X141296500Y-98815000D01*
X143056500Y-98815000D01*
X143056500Y-100575000D01*
X143056500Y-100575000D01*
G37*
G36*
X137269007Y-98827733D02*
X137434891Y-98878053D01*
X137587769Y-98959767D01*
X137721765Y-99069735D01*
X137831733Y-99203731D01*
X137913447Y-99356609D01*
X137963767Y-99522493D01*
X137980758Y-99695000D01*
X137963767Y-99867507D01*
X137913447Y-100033391D01*
X137831733Y-100186269D01*
X137721765Y-100320265D01*
X137587769Y-100430233D01*
X137434891Y-100511947D01*
X137269007Y-100562267D01*
X137139732Y-100575000D01*
X137053268Y-100575000D01*
X136923993Y-100562267D01*
X136758109Y-100511947D01*
X136605231Y-100430233D01*
X136471235Y-100320265D01*
X136361267Y-100186269D01*
X136279553Y-100033391D01*
X136229233Y-99867507D01*
X136212242Y-99695000D01*
X136229233Y-99522493D01*
X136279553Y-99356609D01*
X136361267Y-99203731D01*
X136471235Y-99069735D01*
X136605231Y-98959767D01*
X136758109Y-98878053D01*
X136923993Y-98827733D01*
X137053268Y-98815000D01*
X137139732Y-98815000D01*
X137269007Y-98827733D01*
X137269007Y-98827733D01*
G37*
G36*
X134729007Y-98827733D02*
X134894891Y-98878053D01*
X135047769Y-98959767D01*
X135181765Y-99069735D01*
X135291733Y-99203731D01*
X135373447Y-99356609D01*
X135423767Y-99522493D01*
X135440758Y-99695000D01*
X135423767Y-99867507D01*
X135373447Y-100033391D01*
X135291733Y-100186269D01*
X135181765Y-100320265D01*
X135047769Y-100430233D01*
X134894891Y-100511947D01*
X134729007Y-100562267D01*
X134599732Y-100575000D01*
X134513268Y-100575000D01*
X134383993Y-100562267D01*
X134218109Y-100511947D01*
X134065231Y-100430233D01*
X133931235Y-100320265D01*
X133821267Y-100186269D01*
X133739553Y-100033391D01*
X133689233Y-99867507D01*
X133672242Y-99695000D01*
X133689233Y-99522493D01*
X133739553Y-99356609D01*
X133821267Y-99203731D01*
X133931235Y-99069735D01*
X134065231Y-98959767D01*
X134218109Y-98878053D01*
X134383993Y-98827733D01*
X134513268Y-98815000D01*
X134599732Y-98815000D01*
X134729007Y-98827733D01*
X134729007Y-98827733D01*
G37*
G36*
X163621507Y-97303733D02*
X163787391Y-97354053D01*
X163940269Y-97435767D01*
X164074265Y-97545735D01*
X164184233Y-97679731D01*
X164265947Y-97832609D01*
X164316267Y-97998493D01*
X164333258Y-98171000D01*
X164316267Y-98343507D01*
X164265947Y-98509391D01*
X164184233Y-98662269D01*
X164074265Y-98796265D01*
X163940269Y-98906233D01*
X163787391Y-98987947D01*
X163621507Y-99038267D01*
X163492232Y-99051000D01*
X163405768Y-99051000D01*
X163276493Y-99038267D01*
X163110609Y-98987947D01*
X162957731Y-98906233D01*
X162823735Y-98796265D01*
X162713767Y-98662269D01*
X162632053Y-98509391D01*
X162581733Y-98343507D01*
X162564742Y-98171000D01*
X162581733Y-97998493D01*
X162632053Y-97832609D01*
X162713767Y-97679731D01*
X162823735Y-97545735D01*
X162957731Y-97435767D01*
X163110609Y-97354053D01*
X163276493Y-97303733D01*
X163405768Y-97291000D01*
X163492232Y-97291000D01*
X163621507Y-97303733D01*
X163621507Y-97303733D01*
G37*
G36*
X163621507Y-94763733D02*
X163787391Y-94814053D01*
X163940269Y-94895767D01*
X164074265Y-95005735D01*
X164184233Y-95139731D01*
X164265947Y-95292609D01*
X164316267Y-95458493D01*
X164333258Y-95631000D01*
X164316267Y-95803507D01*
X164265947Y-95969391D01*
X164184233Y-96122269D01*
X164074265Y-96256265D01*
X163940269Y-96366233D01*
X163787391Y-96447947D01*
X163621507Y-96498267D01*
X163492232Y-96511000D01*
X163405768Y-96511000D01*
X163276493Y-96498267D01*
X163110609Y-96447947D01*
X162957731Y-96366233D01*
X162823735Y-96256265D01*
X162713767Y-96122269D01*
X162632053Y-95969391D01*
X162581733Y-95803507D01*
X162564742Y-95631000D01*
X162581733Y-95458493D01*
X162632053Y-95292609D01*
X162713767Y-95139731D01*
X162823735Y-95005735D01*
X162957731Y-94895767D01*
X163110609Y-94814053D01*
X163276493Y-94763733D01*
X163405768Y-94751000D01*
X163492232Y-94751000D01*
X163621507Y-94763733D01*
X163621507Y-94763733D01*
G37*
G36*
X163621507Y-92223733D02*
X163787391Y-92274053D01*
X163940269Y-92355767D01*
X164074265Y-92465735D01*
X164184233Y-92599731D01*
X164265947Y-92752609D01*
X164316267Y-92918493D01*
X164333258Y-93091000D01*
X164316267Y-93263507D01*
X164265947Y-93429391D01*
X164184233Y-93582269D01*
X164074265Y-93716265D01*
X163940269Y-93826233D01*
X163787391Y-93907947D01*
X163621507Y-93958267D01*
X163492232Y-93971000D01*
X163405768Y-93971000D01*
X163276493Y-93958267D01*
X163110609Y-93907947D01*
X162957731Y-93826233D01*
X162823735Y-93716265D01*
X162713767Y-93582269D01*
X162632053Y-93429391D01*
X162581733Y-93263507D01*
X162564742Y-93091000D01*
X162581733Y-92918493D01*
X162632053Y-92752609D01*
X162713767Y-92599731D01*
X162823735Y-92465735D01*
X162957731Y-92355767D01*
X163110609Y-92274053D01*
X163276493Y-92223733D01*
X163405768Y-92211000D01*
X163492232Y-92211000D01*
X163621507Y-92223733D01*
X163621507Y-92223733D01*
G37*
G36*
X163621507Y-89683733D02*
X163787391Y-89734053D01*
X163940269Y-89815767D01*
X164074265Y-89925735D01*
X164184233Y-90059731D01*
X164265947Y-90212609D01*
X164316267Y-90378493D01*
X164333258Y-90551000D01*
X164316267Y-90723507D01*
X164265947Y-90889391D01*
X164184233Y-91042269D01*
X164074265Y-91176265D01*
X163940269Y-91286233D01*
X163787391Y-91367947D01*
X163621507Y-91418267D01*
X163492232Y-91431000D01*
X163405768Y-91431000D01*
X163276493Y-91418267D01*
X163110609Y-91367947D01*
X162957731Y-91286233D01*
X162823735Y-91176265D01*
X162713767Y-91042269D01*
X162632053Y-90889391D01*
X162581733Y-90723507D01*
X162564742Y-90551000D01*
X162581733Y-90378493D01*
X162632053Y-90212609D01*
X162713767Y-90059731D01*
X162823735Y-89925735D01*
X162957731Y-89815767D01*
X163110609Y-89734053D01*
X163276493Y-89683733D01*
X163405768Y-89671000D01*
X163492232Y-89671000D01*
X163621507Y-89683733D01*
X163621507Y-89683733D01*
G37*
G36*
X163621507Y-87143733D02*
X163787391Y-87194053D01*
X163940269Y-87275767D01*
X164074265Y-87385735D01*
X164184233Y-87519731D01*
X164265947Y-87672609D01*
X164316267Y-87838493D01*
X164333258Y-88011000D01*
X164316267Y-88183507D01*
X164265947Y-88349391D01*
X164184233Y-88502269D01*
X164074265Y-88636265D01*
X163940269Y-88746233D01*
X163787391Y-88827947D01*
X163621507Y-88878267D01*
X163492232Y-88891000D01*
X163405768Y-88891000D01*
X163276493Y-88878267D01*
X163110609Y-88827947D01*
X162957731Y-88746233D01*
X162823735Y-88636265D01*
X162713767Y-88502269D01*
X162632053Y-88349391D01*
X162581733Y-88183507D01*
X162564742Y-88011000D01*
X162581733Y-87838493D01*
X162632053Y-87672609D01*
X162713767Y-87519731D01*
X162823735Y-87385735D01*
X162957731Y-87275767D01*
X163110609Y-87194053D01*
X163276493Y-87143733D01*
X163405768Y-87131000D01*
X163492232Y-87131000D01*
X163621507Y-87143733D01*
X163621507Y-87143733D01*
G37*
G36*
X170567136Y-84232040D02*
X170567138Y-84232041D01*
X170567139Y-84232041D01*
X170991167Y-84407680D01*
X170991169Y-84407681D01*
X171372789Y-84662671D01*
X171697329Y-84987211D01*
X171952319Y-85368831D01*
X172127960Y-85792864D01*
X172217500Y-86243015D01*
X172217500Y-86701984D01*
X172127959Y-87152139D01*
X171975696Y-87519733D01*
X171952319Y-87576169D01*
X171697329Y-87957789D01*
X171372789Y-88282329D01*
X170991169Y-88537319D01*
X170991168Y-88537320D01*
X170991167Y-88537320D01*
X170567139Y-88712959D01*
X170567138Y-88712959D01*
X170567136Y-88712960D01*
X170116985Y-88802500D01*
X169658015Y-88802500D01*
X169207864Y-88712960D01*
X169207862Y-88712959D01*
X169207861Y-88712959D01*
X168783833Y-88537320D01*
X168783832Y-88537320D01*
X168783831Y-88537319D01*
X168402211Y-88282329D01*
X168077671Y-87957789D01*
X167822681Y-87576169D01*
X167799304Y-87519733D01*
X167647041Y-87152139D01*
X167557500Y-86701984D01*
X167557500Y-86243015D01*
X167647040Y-85792864D01*
X167822681Y-85368831D01*
X168077671Y-84987211D01*
X168402211Y-84662671D01*
X168783831Y-84407681D01*
X168783833Y-84407680D01*
X169207861Y-84232041D01*
X169207862Y-84232041D01*
X169207864Y-84232040D01*
X169658015Y-84142500D01*
X170116985Y-84142500D01*
X170567136Y-84232040D01*
X170567136Y-84232040D01*
G37*
G36*
X116069000Y-86351000D02*
X114309000Y-86351000D01*
X114309000Y-84591000D01*
X116069000Y-84591000D01*
X116069000Y-86351000D01*
X116069000Y-86351000D01*
G37*
G36*
X163621507Y-84603733D02*
X163787391Y-84654053D01*
X163940269Y-84735767D01*
X164074265Y-84845735D01*
X164184233Y-84979731D01*
X164265947Y-85132609D01*
X164316267Y-85298493D01*
X164333258Y-85471000D01*
X164316267Y-85643507D01*
X164265947Y-85809391D01*
X164184233Y-85962269D01*
X164074265Y-86096265D01*
X163940269Y-86206233D01*
X163787391Y-86287947D01*
X163621507Y-86338267D01*
X163492232Y-86351000D01*
X163405768Y-86351000D01*
X163276493Y-86338267D01*
X163110609Y-86287947D01*
X162957731Y-86206233D01*
X162823735Y-86096265D01*
X162713767Y-85962269D01*
X162632053Y-85809391D01*
X162581733Y-85643507D01*
X162564742Y-85471000D01*
X162581733Y-85298493D01*
X162632053Y-85132609D01*
X162713767Y-84979731D01*
X162823735Y-84845735D01*
X162957731Y-84735767D01*
X163110609Y-84654053D01*
X163276493Y-84603733D01*
X163405768Y-84591000D01*
X163492232Y-84591000D01*
X163621507Y-84603733D01*
X163621507Y-84603733D01*
G37*
G36*
X28798523Y-80805528D02*
X29050457Y-80855640D01*
X29347093Y-80978512D01*
X29347095Y-80978513D01*
X29614065Y-81156896D01*
X29841104Y-81383935D01*
X30019487Y-81650905D01*
X30019488Y-81650907D01*
X30142360Y-81947543D01*
X30205000Y-82262460D01*
X30205000Y-82583540D01*
X30142360Y-82898457D01*
X30057423Y-83103510D01*
X30019487Y-83195095D01*
X29841104Y-83462065D01*
X29614065Y-83689104D01*
X29347095Y-83867487D01*
X29347094Y-83867488D01*
X29347093Y-83867488D01*
X29050457Y-83990360D01*
X28798523Y-84040472D01*
X28735541Y-84053000D01*
X28414459Y-84053000D01*
X28351477Y-84040472D01*
X28099543Y-83990360D01*
X27802907Y-83867488D01*
X27802906Y-83867488D01*
X27802905Y-83867487D01*
X27535935Y-83689104D01*
X27308896Y-83462065D01*
X27130513Y-83195095D01*
X27092577Y-83103510D01*
X27007640Y-82898457D01*
X26945000Y-82583540D01*
X26945000Y-82262460D01*
X27007640Y-81947543D01*
X27130512Y-81650907D01*
X27130513Y-81650905D01*
X27308896Y-81383935D01*
X27535935Y-81156896D01*
X27802905Y-80978513D01*
X27802907Y-80978512D01*
X28099543Y-80855640D01*
X28351477Y-80805528D01*
X28414459Y-80793000D01*
X28735541Y-80793000D01*
X28798523Y-80805528D01*
X28798523Y-80805528D01*
G37*
G36*
X115361507Y-82063733D02*
X115527391Y-82114053D01*
X115680269Y-82195767D01*
X115814265Y-82305735D01*
X115924233Y-82439731D01*
X116005947Y-82592609D01*
X116056267Y-82758493D01*
X116073258Y-82931000D01*
X116056267Y-83103507D01*
X116005947Y-83269391D01*
X115924233Y-83422269D01*
X115814265Y-83556265D01*
X115680269Y-83666233D01*
X115527391Y-83747947D01*
X115361507Y-83798267D01*
X115232232Y-83811000D01*
X115145768Y-83811000D01*
X115016493Y-83798267D01*
X114850609Y-83747947D01*
X114697731Y-83666233D01*
X114563735Y-83556265D01*
X114453767Y-83422269D01*
X114372053Y-83269391D01*
X114321733Y-83103507D01*
X114304742Y-82931000D01*
X114321733Y-82758493D01*
X114372053Y-82592609D01*
X114453767Y-82439731D01*
X114563735Y-82305735D01*
X114697731Y-82195767D01*
X114850609Y-82114053D01*
X115016493Y-82063733D01*
X115145768Y-82051000D01*
X115232232Y-82051000D01*
X115361507Y-82063733D01*
X115361507Y-82063733D01*
G37*
G36*
X77397500Y-83557000D02*
X75637500Y-83557000D01*
X75637500Y-81797000D01*
X77397500Y-81797000D01*
X77397500Y-83557000D01*
X77397500Y-83557000D01*
G37*
G36*
X164329000Y-82287000D02*
X162569000Y-82287000D01*
X162569000Y-80527000D01*
X164329000Y-80527000D01*
X164329000Y-82287000D01*
X164329000Y-82287000D01*
G37*
G36*
X115361507Y-79523733D02*
X115527391Y-79574053D01*
X115680269Y-79655767D01*
X115814265Y-79765735D01*
X115924233Y-79899731D01*
X116005947Y-80052609D01*
X116056267Y-80218493D01*
X116073258Y-80391000D01*
X116056267Y-80563507D01*
X116005947Y-80729391D01*
X115924233Y-80882269D01*
X115814265Y-81016265D01*
X115680269Y-81126233D01*
X115527391Y-81207947D01*
X115361507Y-81258267D01*
X115232232Y-81271000D01*
X115145768Y-81271000D01*
X115016493Y-81258267D01*
X114850609Y-81207947D01*
X114697731Y-81126233D01*
X114563735Y-81016265D01*
X114453767Y-80882269D01*
X114372053Y-80729391D01*
X114321733Y-80563507D01*
X114304742Y-80391000D01*
X114321733Y-80218493D01*
X114372053Y-80052609D01*
X114453767Y-79899731D01*
X114563735Y-79765735D01*
X114697731Y-79655767D01*
X114850609Y-79574053D01*
X115016493Y-79523733D01*
X115145768Y-79511000D01*
X115232232Y-79511000D01*
X115361507Y-79523733D01*
X115361507Y-79523733D01*
G37*
G36*
X76690007Y-79269733D02*
X76855891Y-79320053D01*
X77008769Y-79401767D01*
X77142765Y-79511735D01*
X77252733Y-79645731D01*
X77334447Y-79798609D01*
X77384767Y-79964493D01*
X77401758Y-80137000D01*
X77384767Y-80309507D01*
X77334447Y-80475391D01*
X77252733Y-80628269D01*
X77142765Y-80762265D01*
X77008769Y-80872233D01*
X76855891Y-80953947D01*
X76690007Y-81004267D01*
X76560732Y-81017000D01*
X76474268Y-81017000D01*
X76344993Y-81004267D01*
X76179109Y-80953947D01*
X76026231Y-80872233D01*
X75892235Y-80762265D01*
X75782267Y-80628269D01*
X75700553Y-80475391D01*
X75650233Y-80309507D01*
X75633242Y-80137000D01*
X75650233Y-79964493D01*
X75700553Y-79798609D01*
X75782267Y-79645731D01*
X75892235Y-79511735D01*
X76026231Y-79401767D01*
X76179109Y-79320053D01*
X76344993Y-79269733D01*
X76474268Y-79257000D01*
X76560732Y-79257000D01*
X76690007Y-79269733D01*
X76690007Y-79269733D01*
G37*
G36*
X168724190Y-78611318D02*
X168884335Y-78677653D01*
X168945116Y-78718266D01*
X169024100Y-78771041D01*
X169028468Y-78773960D01*
X169151040Y-78896532D01*
X169247347Y-79040665D01*
X169313682Y-79200810D01*
X169347500Y-79370828D01*
X169347500Y-79544172D01*
X169313682Y-79714190D01*
X169247347Y-79874335D01*
X169151040Y-80018468D01*
X169028468Y-80141040D01*
X168884335Y-80237347D01*
X168724190Y-80303682D01*
X168554172Y-80337500D01*
X168380828Y-80337500D01*
X168210810Y-80303682D01*
X168050665Y-80237347D01*
X167906532Y-80141040D01*
X167783960Y-80018468D01*
X167687653Y-79874335D01*
X167621318Y-79714190D01*
X167587500Y-79544172D01*
X167587500Y-79370828D01*
X167621318Y-79200810D01*
X167687653Y-79040665D01*
X167783960Y-78896532D01*
X167906532Y-78773960D01*
X167910901Y-78771041D01*
X167989884Y-78718266D01*
X168050665Y-78677653D01*
X168210810Y-78611318D01*
X168380828Y-78577500D01*
X168554172Y-78577500D01*
X168724190Y-78611318D01*
X168724190Y-78611318D01*
G37*
G36*
X163621507Y-77999733D02*
X163787391Y-78050053D01*
X163940269Y-78131767D01*
X164074265Y-78241735D01*
X164184233Y-78375731D01*
X164265947Y-78528609D01*
X164316267Y-78694493D01*
X164333258Y-78867000D01*
X164316267Y-79039507D01*
X164265947Y-79205391D01*
X164184233Y-79358269D01*
X164074265Y-79492265D01*
X163940269Y-79602233D01*
X163787391Y-79683947D01*
X163621507Y-79734267D01*
X163492232Y-79747000D01*
X163405768Y-79747000D01*
X163276493Y-79734267D01*
X163110609Y-79683947D01*
X162957731Y-79602233D01*
X162823735Y-79492265D01*
X162713767Y-79358269D01*
X162632053Y-79205391D01*
X162581733Y-79039507D01*
X162564742Y-78867000D01*
X162581733Y-78694493D01*
X162632053Y-78528609D01*
X162713767Y-78375731D01*
X162823735Y-78241735D01*
X162957731Y-78131767D01*
X163110609Y-78050053D01*
X163276493Y-77999733D01*
X163405768Y-77987000D01*
X163492232Y-77987000D01*
X163621507Y-77999733D01*
X163621507Y-77999733D01*
G37*
G36*
X171564190Y-77241318D02*
X171724335Y-77307653D01*
X171724336Y-77307654D01*
X171864100Y-77401041D01*
X171868468Y-77403960D01*
X171991040Y-77526532D01*
X172087347Y-77670665D01*
X172153682Y-77830810D01*
X172187500Y-78000828D01*
X172187500Y-78174172D01*
X172153682Y-78344190D01*
X172087347Y-78504335D01*
X171991041Y-78648467D01*
X171868467Y-78771041D01*
X171864098Y-78773960D01*
X171724335Y-78867347D01*
X171564190Y-78933682D01*
X171394172Y-78967500D01*
X171220828Y-78967500D01*
X171050810Y-78933682D01*
X170890665Y-78867347D01*
X170750902Y-78773960D01*
X170746533Y-78771041D01*
X170623959Y-78648467D01*
X170527653Y-78504335D01*
X170461318Y-78344190D01*
X170427500Y-78174172D01*
X170427500Y-78000828D01*
X170461318Y-77830810D01*
X170527653Y-77670665D01*
X170623960Y-77526532D01*
X170746532Y-77403960D01*
X170750901Y-77401041D01*
X170890664Y-77307654D01*
X170890665Y-77307653D01*
X171050810Y-77241318D01*
X171220828Y-77207500D01*
X171394172Y-77207500D01*
X171564190Y-77241318D01*
X171564190Y-77241318D01*
G37*
G36*
X115361507Y-76983733D02*
X115527391Y-77034053D01*
X115680269Y-77115767D01*
X115814265Y-77225735D01*
X115924233Y-77359731D01*
X116005947Y-77512609D01*
X116056267Y-77678493D01*
X116073258Y-77851000D01*
X116056267Y-78023507D01*
X116005947Y-78189391D01*
X115924233Y-78342269D01*
X115814265Y-78476265D01*
X115680269Y-78586233D01*
X115527391Y-78667947D01*
X115361507Y-78718267D01*
X115232232Y-78731000D01*
X115145768Y-78731000D01*
X115016493Y-78718267D01*
X114850609Y-78667947D01*
X114697731Y-78586233D01*
X114563735Y-78476265D01*
X114453767Y-78342269D01*
X114372053Y-78189391D01*
X114321733Y-78023507D01*
X114304742Y-77851000D01*
X114321733Y-77678493D01*
X114372053Y-77512609D01*
X114453767Y-77359731D01*
X114563735Y-77225735D01*
X114697731Y-77115767D01*
X114850609Y-77034053D01*
X115016493Y-76983733D01*
X115145768Y-76971000D01*
X115232232Y-76971000D01*
X115361507Y-76983733D01*
X115361507Y-76983733D01*
G37*
G36*
X76690007Y-76729733D02*
X76855891Y-76780053D01*
X77008769Y-76861767D01*
X77142765Y-76971735D01*
X77252733Y-77105731D01*
X77334447Y-77258609D01*
X77384767Y-77424493D01*
X77401758Y-77597000D01*
X77384767Y-77769507D01*
X77334447Y-77935391D01*
X77252733Y-78088269D01*
X77142765Y-78222265D01*
X77008769Y-78332233D01*
X76855891Y-78413947D01*
X76690007Y-78464267D01*
X76560732Y-78477000D01*
X76474268Y-78477000D01*
X76344993Y-78464267D01*
X76179109Y-78413947D01*
X76026231Y-78332233D01*
X75892235Y-78222265D01*
X75782267Y-78088269D01*
X75700553Y-77935391D01*
X75650233Y-77769507D01*
X75633242Y-77597000D01*
X75650233Y-77424493D01*
X75700553Y-77258609D01*
X75782267Y-77105731D01*
X75892235Y-76971735D01*
X76026231Y-76861767D01*
X76179109Y-76780053D01*
X76344993Y-76729733D01*
X76474268Y-76717000D01*
X76560732Y-76717000D01*
X76690007Y-76729733D01*
X76690007Y-76729733D01*
G37*
G36*
X168724190Y-75871318D02*
X168884335Y-75937653D01*
X168884336Y-75937654D01*
X169024100Y-76031041D01*
X169028468Y-76033960D01*
X169151040Y-76156532D01*
X169247347Y-76300665D01*
X169313682Y-76460810D01*
X169347500Y-76630828D01*
X169347500Y-76804172D01*
X169313682Y-76974190D01*
X169247347Y-77134335D01*
X169199193Y-77206402D01*
X169151041Y-77278467D01*
X169028467Y-77401041D01*
X168884335Y-77497347D01*
X168724190Y-77563682D01*
X168554172Y-77597500D01*
X168380828Y-77597500D01*
X168210810Y-77563682D01*
X168050665Y-77497347D01*
X167906533Y-77401041D01*
X167783959Y-77278467D01*
X167735807Y-77206402D01*
X167687653Y-77134335D01*
X167621318Y-76974190D01*
X167587500Y-76804172D01*
X167587500Y-76630828D01*
X167621318Y-76460810D01*
X167687653Y-76300665D01*
X167783960Y-76156532D01*
X167906532Y-76033960D01*
X167910901Y-76031041D01*
X168050664Y-75937654D01*
X168050665Y-75937653D01*
X168210810Y-75871318D01*
X168380828Y-75837500D01*
X168554172Y-75837500D01*
X168724190Y-75871318D01*
X168724190Y-75871318D01*
G37*
G36*
X163621507Y-75459733D02*
X163787391Y-75510053D01*
X163940269Y-75591767D01*
X164074265Y-75701735D01*
X164184233Y-75835731D01*
X164265947Y-75988609D01*
X164316267Y-76154493D01*
X164333258Y-76327000D01*
X164316267Y-76499507D01*
X164265947Y-76665391D01*
X164184233Y-76818269D01*
X164074265Y-76952265D01*
X163940269Y-77062233D01*
X163787391Y-77143947D01*
X163621507Y-77194267D01*
X163492232Y-77207000D01*
X163405768Y-77207000D01*
X163276493Y-77194267D01*
X163110609Y-77143947D01*
X162957731Y-77062233D01*
X162823735Y-76952265D01*
X162713767Y-76818269D01*
X162632053Y-76665391D01*
X162581733Y-76499507D01*
X162564742Y-76327000D01*
X162581733Y-76154493D01*
X162632053Y-75988609D01*
X162713767Y-75835731D01*
X162823735Y-75701735D01*
X162957731Y-75591767D01*
X163110609Y-75510053D01*
X163276493Y-75459733D01*
X163405768Y-75447000D01*
X163492232Y-75447000D01*
X163621507Y-75459733D01*
X163621507Y-75459733D01*
G37*
G36*
X171564190Y-74501318D02*
X171724335Y-74567653D01*
X171796402Y-74615807D01*
X171864100Y-74661041D01*
X171868468Y-74663960D01*
X171991040Y-74786532D01*
X172087347Y-74930665D01*
X172153682Y-75090810D01*
X172187500Y-75260828D01*
X172187500Y-75434172D01*
X172153682Y-75604190D01*
X172087347Y-75764335D01*
X172062000Y-75802269D01*
X171991041Y-75908467D01*
X171868467Y-76031041D01*
X171796402Y-76079193D01*
X171724335Y-76127347D01*
X171564190Y-76193682D01*
X171394172Y-76227500D01*
X171220828Y-76227500D01*
X171050810Y-76193682D01*
X170890665Y-76127347D01*
X170818598Y-76079193D01*
X170746533Y-76031041D01*
X170623959Y-75908467D01*
X170553000Y-75802269D01*
X170527653Y-75764335D01*
X170461318Y-75604190D01*
X170427500Y-75434172D01*
X170427500Y-75260828D01*
X170461318Y-75090810D01*
X170527653Y-74930665D01*
X170623960Y-74786532D01*
X170746532Y-74663960D01*
X170750901Y-74661041D01*
X170818598Y-74615807D01*
X170890665Y-74567653D01*
X171050810Y-74501318D01*
X171220828Y-74467500D01*
X171394172Y-74467500D01*
X171564190Y-74501318D01*
X171564190Y-74501318D01*
G37*
G36*
X115361507Y-74443733D02*
X115527391Y-74494053D01*
X115680269Y-74575767D01*
X115814265Y-74685735D01*
X115924233Y-74819731D01*
X116005947Y-74972609D01*
X116056267Y-75138493D01*
X116073258Y-75311000D01*
X116056267Y-75483507D01*
X116005947Y-75649391D01*
X115924233Y-75802269D01*
X115814265Y-75936265D01*
X115680269Y-76046233D01*
X115527391Y-76127947D01*
X115361507Y-76178267D01*
X115232232Y-76191000D01*
X115145768Y-76191000D01*
X115016493Y-76178267D01*
X114850609Y-76127947D01*
X114697731Y-76046233D01*
X114563735Y-75936265D01*
X114453767Y-75802269D01*
X114372053Y-75649391D01*
X114321733Y-75483507D01*
X114304742Y-75311000D01*
X114321733Y-75138493D01*
X114372053Y-74972609D01*
X114453767Y-74819731D01*
X114563735Y-74685735D01*
X114697731Y-74575767D01*
X114850609Y-74494053D01*
X115016493Y-74443733D01*
X115145768Y-74431000D01*
X115232232Y-74431000D01*
X115361507Y-74443733D01*
X115361507Y-74443733D01*
G37*
G36*
X76690007Y-74189733D02*
X76855891Y-74240053D01*
X77008769Y-74321767D01*
X77142765Y-74431735D01*
X77252733Y-74565731D01*
X77334447Y-74718609D01*
X77384767Y-74884493D01*
X77401758Y-75057000D01*
X77384767Y-75229507D01*
X77334447Y-75395391D01*
X77252733Y-75548269D01*
X77142765Y-75682265D01*
X77008769Y-75792233D01*
X76855891Y-75873947D01*
X76690007Y-75924267D01*
X76560732Y-75937000D01*
X76474268Y-75937000D01*
X76344993Y-75924267D01*
X76179109Y-75873947D01*
X76026231Y-75792233D01*
X75892235Y-75682265D01*
X75782267Y-75548269D01*
X75700553Y-75395391D01*
X75650233Y-75229507D01*
X75633242Y-75057000D01*
X75650233Y-74884493D01*
X75700553Y-74718609D01*
X75782267Y-74565731D01*
X75892235Y-74431735D01*
X76026231Y-74321767D01*
X76179109Y-74240053D01*
X76344993Y-74189733D01*
X76474268Y-74177000D01*
X76560732Y-74177000D01*
X76690007Y-74189733D01*
X76690007Y-74189733D01*
G37*
G36*
X168724190Y-73131318D02*
X168884335Y-73197653D01*
X168884336Y-73197654D01*
X169024100Y-73291041D01*
X169028468Y-73293960D01*
X169151040Y-73416532D01*
X169247347Y-73560665D01*
X169313682Y-73720810D01*
X169347500Y-73890828D01*
X169347500Y-74064172D01*
X169313682Y-74234190D01*
X169247347Y-74394335D01*
X169199193Y-74466402D01*
X169151041Y-74538467D01*
X169028467Y-74661041D01*
X168991508Y-74685736D01*
X168884335Y-74757347D01*
X168724190Y-74823682D01*
X168554172Y-74857500D01*
X168380828Y-74857500D01*
X168210810Y-74823682D01*
X168050665Y-74757347D01*
X167943492Y-74685736D01*
X167906533Y-74661041D01*
X167783959Y-74538467D01*
X167735807Y-74466402D01*
X167687653Y-74394335D01*
X167621318Y-74234190D01*
X167587500Y-74064172D01*
X167587500Y-73890828D01*
X167621318Y-73720810D01*
X167687653Y-73560665D01*
X167783960Y-73416532D01*
X167906532Y-73293960D01*
X167910901Y-73291041D01*
X168050664Y-73197654D01*
X168050665Y-73197653D01*
X168210810Y-73131318D01*
X168380828Y-73097500D01*
X168554172Y-73097500D01*
X168724190Y-73131318D01*
X168724190Y-73131318D01*
G37*
G36*
X163621507Y-72919733D02*
X163787391Y-72970053D01*
X163940269Y-73051767D01*
X164074265Y-73161735D01*
X164184233Y-73295731D01*
X164265947Y-73448609D01*
X164316267Y-73614493D01*
X164333258Y-73787000D01*
X164316267Y-73959507D01*
X164265947Y-74125391D01*
X164184233Y-74278269D01*
X164074265Y-74412265D01*
X163940269Y-74522233D01*
X163787391Y-74603947D01*
X163621507Y-74654267D01*
X163492232Y-74667000D01*
X163405768Y-74667000D01*
X163276493Y-74654267D01*
X163110609Y-74603947D01*
X162957731Y-74522233D01*
X162823735Y-74412265D01*
X162713767Y-74278269D01*
X162632053Y-74125391D01*
X162581733Y-73959507D01*
X162564742Y-73787000D01*
X162581733Y-73614493D01*
X162632053Y-73448609D01*
X162713767Y-73295731D01*
X162823735Y-73161735D01*
X162957731Y-73051767D01*
X163110609Y-72970053D01*
X163276493Y-72919733D01*
X163405768Y-72907000D01*
X163492232Y-72907000D01*
X163621507Y-72919733D01*
X163621507Y-72919733D01*
G37*
G36*
X115361507Y-71903733D02*
X115527391Y-71954053D01*
X115680269Y-72035767D01*
X115814265Y-72145735D01*
X115924233Y-72279731D01*
X116005947Y-72432609D01*
X116056267Y-72598493D01*
X116073258Y-72771000D01*
X116056267Y-72943507D01*
X116005947Y-73109391D01*
X115924233Y-73262269D01*
X115814265Y-73396265D01*
X115680269Y-73506233D01*
X115527391Y-73587947D01*
X115361507Y-73638267D01*
X115232232Y-73651000D01*
X115145768Y-73651000D01*
X115016493Y-73638267D01*
X114850609Y-73587947D01*
X114697731Y-73506233D01*
X114563735Y-73396265D01*
X114453767Y-73262269D01*
X114372053Y-73109391D01*
X114321733Y-72943507D01*
X114304742Y-72771000D01*
X114321733Y-72598493D01*
X114372053Y-72432609D01*
X114453767Y-72279731D01*
X114563735Y-72145735D01*
X114697731Y-72035767D01*
X114850609Y-71954053D01*
X115016493Y-71903733D01*
X115145768Y-71891000D01*
X115232232Y-71891000D01*
X115361507Y-71903733D01*
X115361507Y-71903733D01*
G37*
G36*
X171564190Y-71761318D02*
X171724335Y-71827653D01*
X171724336Y-71827654D01*
X171868467Y-71923959D01*
X171991041Y-72046533D01*
X172015863Y-72083682D01*
X172087347Y-72190665D01*
X172153682Y-72350810D01*
X172187500Y-72520828D01*
X172187500Y-72694172D01*
X172153682Y-72864190D01*
X172087347Y-73024335D01*
X172087346Y-73024336D01*
X171991041Y-73168467D01*
X171868467Y-73291041D01*
X171724335Y-73387347D01*
X171564190Y-73453682D01*
X171394172Y-73487500D01*
X171220828Y-73487500D01*
X171050810Y-73453682D01*
X170890665Y-73387347D01*
X170746533Y-73291041D01*
X170623959Y-73168467D01*
X170527654Y-73024336D01*
X170527653Y-73024335D01*
X170461318Y-72864190D01*
X170427500Y-72694172D01*
X170427500Y-72520828D01*
X170461318Y-72350810D01*
X170527653Y-72190665D01*
X170599137Y-72083682D01*
X170623959Y-72046533D01*
X170746533Y-71923959D01*
X170890664Y-71827654D01*
X170890665Y-71827653D01*
X171050810Y-71761318D01*
X171220828Y-71727500D01*
X171394172Y-71727500D01*
X171564190Y-71761318D01*
X171564190Y-71761318D01*
G37*
G36*
X163621507Y-70379733D02*
X163787391Y-70430053D01*
X163940269Y-70511767D01*
X164074265Y-70621735D01*
X164184233Y-70755731D01*
X164265947Y-70908609D01*
X164316267Y-71074493D01*
X164333258Y-71247000D01*
X164316267Y-71419507D01*
X164265947Y-71585391D01*
X164184233Y-71738269D01*
X164074265Y-71872265D01*
X163940269Y-71982233D01*
X163787391Y-72063947D01*
X163621507Y-72114267D01*
X163492232Y-72127000D01*
X163405768Y-72127000D01*
X163276493Y-72114267D01*
X163110609Y-72063947D01*
X162957731Y-71982233D01*
X162823735Y-71872265D01*
X162713767Y-71738269D01*
X162632053Y-71585391D01*
X162581733Y-71419507D01*
X162564742Y-71247000D01*
X162581733Y-71074493D01*
X162632053Y-70908609D01*
X162713767Y-70755731D01*
X162823735Y-70621735D01*
X162957731Y-70511767D01*
X163110609Y-70430053D01*
X163276493Y-70379733D01*
X163405768Y-70367000D01*
X163492232Y-70367000D01*
X163621507Y-70379733D01*
X163621507Y-70379733D01*
G37*
G36*
X168724190Y-70391318D02*
X168884335Y-70457653D01*
X168884336Y-70457654D01*
X169024100Y-70551041D01*
X169028468Y-70553960D01*
X169151040Y-70676532D01*
X169247347Y-70820665D01*
X169313682Y-70980810D01*
X169347500Y-71150828D01*
X169347500Y-71324172D01*
X169313682Y-71494190D01*
X169247347Y-71654335D01*
X169247346Y-71654336D01*
X169151041Y-71798467D01*
X169028467Y-71921041D01*
X169024098Y-71923960D01*
X168884335Y-72017347D01*
X168724190Y-72083682D01*
X168554172Y-72117500D01*
X168380828Y-72117500D01*
X168210810Y-72083682D01*
X168050665Y-72017347D01*
X167910902Y-71923960D01*
X167906533Y-71921041D01*
X167783959Y-71798467D01*
X167687654Y-71654336D01*
X167687653Y-71654335D01*
X167621318Y-71494190D01*
X167587500Y-71324172D01*
X167587500Y-71150828D01*
X167621318Y-70980810D01*
X167687653Y-70820665D01*
X167783960Y-70676532D01*
X167906532Y-70553960D01*
X167910901Y-70551041D01*
X168050664Y-70457654D01*
X168050665Y-70457653D01*
X168210810Y-70391318D01*
X168380828Y-70357500D01*
X168554172Y-70357500D01*
X168724190Y-70391318D01*
X168724190Y-70391318D01*
G37*
G36*
X115361507Y-69363733D02*
X115527391Y-69414053D01*
X115680269Y-69495767D01*
X115814265Y-69605735D01*
X115924233Y-69739731D01*
X116005947Y-69892609D01*
X116056267Y-70058493D01*
X116073258Y-70231000D01*
X116056267Y-70403507D01*
X116005947Y-70569391D01*
X115924233Y-70722269D01*
X115814265Y-70856265D01*
X115680269Y-70966233D01*
X115527391Y-71047947D01*
X115361507Y-71098267D01*
X115232232Y-71111000D01*
X115145768Y-71111000D01*
X115016493Y-71098267D01*
X114850609Y-71047947D01*
X114697731Y-70966233D01*
X114563735Y-70856265D01*
X114453767Y-70722269D01*
X114372053Y-70569391D01*
X114321733Y-70403507D01*
X114304742Y-70231000D01*
X114321733Y-70058493D01*
X114372053Y-69892609D01*
X114453767Y-69739731D01*
X114563735Y-69605735D01*
X114697731Y-69495767D01*
X114850609Y-69414053D01*
X115016493Y-69363733D01*
X115145768Y-69351000D01*
X115232232Y-69351000D01*
X115361507Y-69363733D01*
X115361507Y-69363733D01*
G37*
G36*
X171564190Y-69021318D02*
X171724335Y-69087653D01*
X171724336Y-69087654D01*
X171868467Y-69183959D01*
X171991041Y-69306533D01*
X172015863Y-69343682D01*
X172087347Y-69450665D01*
X172153682Y-69610810D01*
X172187500Y-69780828D01*
X172187500Y-69954172D01*
X172153682Y-70124190D01*
X172087347Y-70284335D01*
X172087346Y-70284336D01*
X171991041Y-70428467D01*
X171868467Y-70551041D01*
X171864098Y-70553960D01*
X171724335Y-70647347D01*
X171564190Y-70713682D01*
X171394172Y-70747500D01*
X171220828Y-70747500D01*
X171050810Y-70713682D01*
X170890665Y-70647347D01*
X170750902Y-70553960D01*
X170746533Y-70551041D01*
X170623959Y-70428467D01*
X170527654Y-70284336D01*
X170527653Y-70284335D01*
X170461318Y-70124190D01*
X170427500Y-69954172D01*
X170427500Y-69780828D01*
X170461318Y-69610810D01*
X170527653Y-69450665D01*
X170599137Y-69343682D01*
X170623959Y-69306533D01*
X170746533Y-69183959D01*
X170890664Y-69087654D01*
X170890665Y-69087653D01*
X171050810Y-69021318D01*
X171220828Y-68987500D01*
X171394172Y-68987500D01*
X171564190Y-69021318D01*
X171564190Y-69021318D01*
G37*
G36*
X163621507Y-67839733D02*
X163787391Y-67890053D01*
X163940269Y-67971767D01*
X164074265Y-68081735D01*
X164184233Y-68215731D01*
X164265947Y-68368609D01*
X164316267Y-68534493D01*
X164333258Y-68707000D01*
X164316267Y-68879507D01*
X164265947Y-69045391D01*
X164184233Y-69198269D01*
X164074265Y-69332265D01*
X163940269Y-69442233D01*
X163787391Y-69523947D01*
X163621507Y-69574267D01*
X163492232Y-69587000D01*
X163405768Y-69587000D01*
X163276493Y-69574267D01*
X163110609Y-69523947D01*
X162957731Y-69442233D01*
X162823735Y-69332265D01*
X162713767Y-69198269D01*
X162632053Y-69045391D01*
X162581733Y-68879507D01*
X162564742Y-68707000D01*
X162581733Y-68534493D01*
X162632053Y-68368609D01*
X162713767Y-68215731D01*
X162823735Y-68081735D01*
X162957731Y-67971767D01*
X163110609Y-67890053D01*
X163276493Y-67839733D01*
X163405768Y-67827000D01*
X163492232Y-67827000D01*
X163621507Y-67839733D01*
X163621507Y-67839733D01*
G37*
G36*
X168724190Y-67651318D02*
X168884335Y-67717653D01*
X168884336Y-67717654D01*
X169028467Y-67813959D01*
X169151041Y-67936533D01*
X169247347Y-68080665D01*
X169313682Y-68240810D01*
X169347500Y-68410828D01*
X169347500Y-68584172D01*
X169313682Y-68754190D01*
X169247347Y-68914335D01*
X169247346Y-68914336D01*
X169151041Y-69058467D01*
X169028467Y-69181041D01*
X169024098Y-69183960D01*
X168884335Y-69277347D01*
X168724190Y-69343682D01*
X168554172Y-69377500D01*
X168380828Y-69377500D01*
X168210810Y-69343682D01*
X168050665Y-69277347D01*
X167910902Y-69183960D01*
X167906533Y-69181041D01*
X167783959Y-69058467D01*
X167687654Y-68914336D01*
X167687653Y-68914335D01*
X167621318Y-68754190D01*
X167587500Y-68584172D01*
X167587500Y-68410828D01*
X167621318Y-68240810D01*
X167687653Y-68080665D01*
X167783959Y-67936533D01*
X167906533Y-67813959D01*
X168050664Y-67717654D01*
X168050665Y-67717653D01*
X168210810Y-67651318D01*
X168380828Y-67617500D01*
X168554172Y-67617500D01*
X168724190Y-67651318D01*
X168724190Y-67651318D01*
G37*
G36*
X115361507Y-66823733D02*
X115527391Y-66874053D01*
X115680269Y-66955767D01*
X115814265Y-67065735D01*
X115924233Y-67199731D01*
X116005947Y-67352609D01*
X116056267Y-67518493D01*
X116073258Y-67691000D01*
X116056267Y-67863507D01*
X116005947Y-68029391D01*
X115924233Y-68182269D01*
X115814265Y-68316265D01*
X115680269Y-68426233D01*
X115527391Y-68507947D01*
X115361507Y-68558267D01*
X115232232Y-68571000D01*
X115145768Y-68571000D01*
X115016493Y-68558267D01*
X114850609Y-68507947D01*
X114697731Y-68426233D01*
X114563735Y-68316265D01*
X114453767Y-68182269D01*
X114372053Y-68029391D01*
X114321733Y-67863507D01*
X114304742Y-67691000D01*
X114321733Y-67518493D01*
X114372053Y-67352609D01*
X114453767Y-67199731D01*
X114563735Y-67065735D01*
X114697731Y-66955767D01*
X114850609Y-66874053D01*
X115016493Y-66823733D01*
X115145768Y-66811000D01*
X115232232Y-66811000D01*
X115361507Y-66823733D01*
X115361507Y-66823733D01*
G37*
G36*
X28798523Y-63914528D02*
X29050457Y-63964640D01*
X29347093Y-64087512D01*
X29347095Y-64087513D01*
X29614065Y-64265896D01*
X29841104Y-64492935D01*
X30019487Y-64759905D01*
X30019488Y-64759907D01*
X30142360Y-65056543D01*
X30205000Y-65371460D01*
X30205000Y-65692540D01*
X30142360Y-66007457D01*
X30076274Y-66167000D01*
X30019487Y-66304095D01*
X29841104Y-66571065D01*
X29614065Y-66798104D01*
X29347095Y-66976487D01*
X29347094Y-66976488D01*
X29347093Y-66976488D01*
X29050457Y-67099360D01*
X28798523Y-67149472D01*
X28735541Y-67162000D01*
X28414459Y-67162000D01*
X28351477Y-67149472D01*
X28099543Y-67099360D01*
X27802907Y-66976488D01*
X27802906Y-66976488D01*
X27802905Y-66976487D01*
X27535935Y-66798104D01*
X27308896Y-66571065D01*
X27130513Y-66304095D01*
X27073726Y-66167000D01*
X27007640Y-66007457D01*
X26945000Y-65692540D01*
X26945000Y-65371460D01*
X27007640Y-65056543D01*
X27130512Y-64759907D01*
X27130513Y-64759905D01*
X27308896Y-64492935D01*
X27535935Y-64265896D01*
X27802905Y-64087513D01*
X27802907Y-64087512D01*
X28099543Y-63964640D01*
X28351477Y-63914528D01*
X28414459Y-63902000D01*
X28735541Y-63902000D01*
X28798523Y-63914528D01*
X28798523Y-63914528D01*
G37*
G36*
X163621507Y-65299733D02*
X163787391Y-65350053D01*
X163940269Y-65431767D01*
X164074265Y-65541735D01*
X164184233Y-65675731D01*
X164265947Y-65828609D01*
X164316267Y-65994493D01*
X164333258Y-66167000D01*
X164316267Y-66339507D01*
X164265947Y-66505391D01*
X164184233Y-66658269D01*
X164074265Y-66792265D01*
X163940269Y-66902233D01*
X163787391Y-66983947D01*
X163621507Y-67034267D01*
X163492232Y-67047000D01*
X163405768Y-67047000D01*
X163276493Y-67034267D01*
X163110609Y-66983947D01*
X162957731Y-66902233D01*
X162823735Y-66792265D01*
X162713767Y-66658269D01*
X162632053Y-66505391D01*
X162581733Y-66339507D01*
X162564742Y-66167000D01*
X162581733Y-65994493D01*
X162632053Y-65828609D01*
X162713767Y-65675731D01*
X162823735Y-65541735D01*
X162957731Y-65431767D01*
X163110609Y-65350053D01*
X163276493Y-65299733D01*
X163405768Y-65287000D01*
X163492232Y-65287000D01*
X163621507Y-65299733D01*
X163621507Y-65299733D01*
G37*
G36*
X163621507Y-62759733D02*
X163787391Y-62810053D01*
X163940269Y-62891767D01*
X164074265Y-63001735D01*
X164184233Y-63135731D01*
X164265947Y-63288609D01*
X164316267Y-63454493D01*
X164333258Y-63627000D01*
X164316267Y-63799507D01*
X164265947Y-63965391D01*
X164184233Y-64118269D01*
X164074265Y-64252265D01*
X163940269Y-64362233D01*
X163787391Y-64443947D01*
X163621507Y-64494267D01*
X163492232Y-64507000D01*
X163405768Y-64507000D01*
X163276493Y-64494267D01*
X163110609Y-64443947D01*
X162957731Y-64362233D01*
X162823735Y-64252265D01*
X162713767Y-64118269D01*
X162632053Y-63965391D01*
X162581733Y-63799507D01*
X162564742Y-63627000D01*
X162581733Y-63454493D01*
X162632053Y-63288609D01*
X162713767Y-63135731D01*
X162823735Y-63001735D01*
X162957731Y-62891767D01*
X163110609Y-62810053D01*
X163276493Y-62759733D01*
X163405768Y-62747000D01*
X163492232Y-62747000D01*
X163621507Y-62759733D01*
X163621507Y-62759733D01*
G37*
G36*
X170567136Y-59242040D02*
X170567138Y-59242041D01*
X170567139Y-59242041D01*
X170841701Y-59355769D01*
X170991169Y-59417681D01*
X171099049Y-59489764D01*
X171372789Y-59672671D01*
X171697329Y-59997211D01*
X171952320Y-60378833D01*
X172053193Y-60622360D01*
X172127960Y-60802864D01*
X172217500Y-61253015D01*
X172217500Y-61711985D01*
X172180944Y-61895767D01*
X172127959Y-62162139D01*
X172082550Y-62271766D01*
X171952319Y-62586169D01*
X171697329Y-62967789D01*
X171372789Y-63292329D01*
X170991169Y-63547319D01*
X170991168Y-63547320D01*
X170991167Y-63547320D01*
X170567139Y-63722959D01*
X170567138Y-63722959D01*
X170567136Y-63722960D01*
X170116985Y-63812500D01*
X169658015Y-63812500D01*
X169207864Y-63722960D01*
X169207862Y-63722959D01*
X169207861Y-63722959D01*
X168783833Y-63547320D01*
X168783832Y-63547320D01*
X168783831Y-63547319D01*
X168402211Y-63292329D01*
X168077671Y-62967789D01*
X167822681Y-62586169D01*
X167692450Y-62271766D01*
X167647041Y-62162139D01*
X167594057Y-61895767D01*
X167557500Y-61711985D01*
X167557500Y-61253015D01*
X167647040Y-60802864D01*
X167721808Y-60622360D01*
X167822680Y-60378833D01*
X168077671Y-59997211D01*
X168402211Y-59672671D01*
X168675951Y-59489764D01*
X168783831Y-59417681D01*
X168933299Y-59355769D01*
X169207861Y-59242041D01*
X169207862Y-59242041D01*
X169207864Y-59242040D01*
X169658015Y-59152500D01*
X170116985Y-59152500D01*
X170567136Y-59242040D01*
X170567136Y-59242040D01*
G37*
G36*
X124315007Y-60537233D02*
X124480891Y-60587553D01*
X124633769Y-60669267D01*
X124767765Y-60779235D01*
X124877733Y-60913231D01*
X124959447Y-61066109D01*
X125009767Y-61231993D01*
X125026758Y-61404500D01*
X125009767Y-61577007D01*
X124959447Y-61742891D01*
X124877733Y-61895769D01*
X124767765Y-62029765D01*
X124633769Y-62139733D01*
X124480891Y-62221447D01*
X124315007Y-62271767D01*
X124185732Y-62284500D01*
X124099268Y-62284500D01*
X123969993Y-62271767D01*
X123804109Y-62221447D01*
X123651231Y-62139733D01*
X123517235Y-62029765D01*
X123407267Y-61895769D01*
X123325553Y-61742891D01*
X123275233Y-61577007D01*
X123258242Y-61404500D01*
X123275233Y-61231993D01*
X123325553Y-61066109D01*
X123407267Y-60913231D01*
X123517235Y-60779235D01*
X123651231Y-60669267D01*
X123804109Y-60587553D01*
X123969993Y-60537233D01*
X124099268Y-60524500D01*
X124185732Y-60524500D01*
X124315007Y-60537233D01*
X124315007Y-60537233D01*
G37*
G36*
X121775007Y-60537233D02*
X121940891Y-60587553D01*
X122093769Y-60669267D01*
X122227765Y-60779235D01*
X122337733Y-60913231D01*
X122419447Y-61066109D01*
X122469767Y-61231993D01*
X122486758Y-61404500D01*
X122469767Y-61577007D01*
X122419447Y-61742891D01*
X122337733Y-61895769D01*
X122227765Y-62029765D01*
X122093769Y-62139733D01*
X121940891Y-62221447D01*
X121775007Y-62271767D01*
X121645732Y-62284500D01*
X121559268Y-62284500D01*
X121429993Y-62271767D01*
X121264109Y-62221447D01*
X121111231Y-62139733D01*
X120977235Y-62029765D01*
X120867267Y-61895769D01*
X120785553Y-61742891D01*
X120735233Y-61577007D01*
X120718242Y-61404500D01*
X120735233Y-61231993D01*
X120785553Y-61066109D01*
X120867267Y-60913231D01*
X120977235Y-60779235D01*
X121111231Y-60669267D01*
X121264109Y-60587553D01*
X121429993Y-60537233D01*
X121559268Y-60524500D01*
X121645732Y-60524500D01*
X121775007Y-60537233D01*
X121775007Y-60537233D01*
G37*
G36*
X115412523Y-57437528D02*
X115664457Y-57487640D01*
X115961093Y-57610512D01*
X115961095Y-57610513D01*
X116228065Y-57788896D01*
X116455104Y-58015935D01*
X116604308Y-58239236D01*
X116633488Y-58282907D01*
X116756360Y-58579543D01*
X116819000Y-58894460D01*
X116819000Y-59215540D01*
X116756360Y-59530457D01*
X116633488Y-59827093D01*
X116633487Y-59827095D01*
X116455104Y-60094065D01*
X116228065Y-60321104D01*
X115961095Y-60499487D01*
X115961094Y-60499488D01*
X115961093Y-60499488D01*
X115664457Y-60622360D01*
X115428636Y-60669267D01*
X115349541Y-60685000D01*
X115028459Y-60685000D01*
X114949364Y-60669267D01*
X114713543Y-60622360D01*
X114416907Y-60499488D01*
X114416906Y-60499488D01*
X114416905Y-60499487D01*
X114149935Y-60321104D01*
X113922896Y-60094065D01*
X113744513Y-59827095D01*
X113744512Y-59827093D01*
X113621640Y-59530457D01*
X113559000Y-59215540D01*
X113559000Y-58894460D01*
X113621640Y-58579543D01*
X113744512Y-58282907D01*
X113773692Y-58239236D01*
X113922896Y-58015935D01*
X114149935Y-57788896D01*
X114416905Y-57610513D01*
X114416907Y-57610512D01*
X114713543Y-57487640D01*
X114965477Y-57437528D01*
X115028459Y-57425000D01*
X115349541Y-57425000D01*
X115412523Y-57437528D01*
X115412523Y-57437528D01*
G37*
G36*
X121775007Y-57997233D02*
X121940891Y-58047553D01*
X122093769Y-58129267D01*
X122227765Y-58239235D01*
X122337733Y-58373231D01*
X122419447Y-58526109D01*
X122469767Y-58691993D01*
X122486758Y-58864500D01*
X122469767Y-59037007D01*
X122419447Y-59202891D01*
X122337733Y-59355769D01*
X122227765Y-59489765D01*
X122093769Y-59599733D01*
X121940891Y-59681447D01*
X121775007Y-59731767D01*
X121645732Y-59744500D01*
X121559268Y-59744500D01*
X121429993Y-59731767D01*
X121264109Y-59681447D01*
X121111231Y-59599733D01*
X120977235Y-59489765D01*
X120867267Y-59355769D01*
X120785553Y-59202891D01*
X120735233Y-59037007D01*
X120718242Y-58864500D01*
X120735233Y-58691993D01*
X120785553Y-58526109D01*
X120867267Y-58373231D01*
X120977235Y-58239235D01*
X121111231Y-58129267D01*
X121264109Y-58047553D01*
X121429993Y-57997233D01*
X121559268Y-57984500D01*
X121645732Y-57984500D01*
X121775007Y-57997233D01*
X121775007Y-57997233D01*
G37*
G36*
X125022500Y-59744500D02*
X123262500Y-59744500D01*
X123262500Y-57984500D01*
X125022500Y-57984500D01*
X125022500Y-59744500D01*
X125022500Y-59744500D01*
G37*
G36*
X105807856Y-56433415D02*
X105949859Y-56461661D01*
X106128203Y-56535534D01*
X106128204Y-56535535D01*
X106288714Y-56642784D01*
X106425216Y-56779286D01*
X106478051Y-56858360D01*
X106532466Y-56939797D01*
X106606339Y-57118141D01*
X106644000Y-57307479D01*
X106644000Y-57500521D01*
X106606339Y-57689859D01*
X106532466Y-57868203D01*
X106532465Y-57868204D01*
X106425216Y-58028714D01*
X106288714Y-58165216D01*
X106177936Y-58239235D01*
X106128203Y-58272466D01*
X105949859Y-58346339D01*
X105814661Y-58373231D01*
X105760522Y-58384000D01*
X105567478Y-58384000D01*
X105513339Y-58373231D01*
X105378141Y-58346339D01*
X105199797Y-58272466D01*
X105150064Y-58239235D01*
X105039286Y-58165216D01*
X104902784Y-58028714D01*
X104795535Y-57868204D01*
X104795534Y-57868203D01*
X104721661Y-57689859D01*
X104684000Y-57500521D01*
X104684000Y-57307479D01*
X104721661Y-57118141D01*
X104795534Y-56939797D01*
X104849949Y-56858360D01*
X104902784Y-56779286D01*
X105039286Y-56642784D01*
X105199796Y-56535535D01*
X105199797Y-56535534D01*
X105378141Y-56461661D01*
X105520144Y-56433415D01*
X105567478Y-56424000D01*
X105760522Y-56424000D01*
X105807856Y-56433415D01*
X105807856Y-56433415D01*
G37*
G36*
X103267856Y-56433415D02*
X103409859Y-56461661D01*
X103588203Y-56535534D01*
X103588204Y-56535535D01*
X103748714Y-56642784D01*
X103885216Y-56779286D01*
X103938051Y-56858360D01*
X103992466Y-56939797D01*
X104066339Y-57118141D01*
X104104000Y-57307479D01*
X104104000Y-57500521D01*
X104066339Y-57689859D01*
X103992466Y-57868203D01*
X103992465Y-57868204D01*
X103885216Y-58028714D01*
X103748714Y-58165216D01*
X103637936Y-58239235D01*
X103588203Y-58272466D01*
X103409859Y-58346339D01*
X103274661Y-58373231D01*
X103220522Y-58384000D01*
X103027478Y-58384000D01*
X102973339Y-58373231D01*
X102838141Y-58346339D01*
X102659797Y-58272466D01*
X102610064Y-58239235D01*
X102499286Y-58165216D01*
X102362784Y-58028714D01*
X102255535Y-57868204D01*
X102255534Y-57868203D01*
X102181661Y-57689859D01*
X102144000Y-57500521D01*
X102144000Y-57307479D01*
X102181661Y-57118141D01*
X102255534Y-56939797D01*
X102309949Y-56858360D01*
X102362784Y-56779286D01*
X102499286Y-56642784D01*
X102659796Y-56535535D01*
X102659797Y-56535534D01*
X102838141Y-56461661D01*
X102980144Y-56433415D01*
X103027478Y-56424000D01*
X103220522Y-56424000D01*
X103267856Y-56433415D01*
X103267856Y-56433415D01*
G37*
G36*
X100727856Y-56433415D02*
X100869859Y-56461661D01*
X101048203Y-56535534D01*
X101048204Y-56535535D01*
X101208714Y-56642784D01*
X101345216Y-56779286D01*
X101398051Y-56858360D01*
X101452466Y-56939797D01*
X101526339Y-57118141D01*
X101564000Y-57307479D01*
X101564000Y-57500521D01*
X101526339Y-57689859D01*
X101452466Y-57868203D01*
X101452465Y-57868204D01*
X101345216Y-58028714D01*
X101208714Y-58165216D01*
X101097936Y-58239235D01*
X101048203Y-58272466D01*
X100869859Y-58346339D01*
X100734661Y-58373231D01*
X100680522Y-58384000D01*
X100487478Y-58384000D01*
X100433339Y-58373231D01*
X100298141Y-58346339D01*
X100119797Y-58272466D01*
X100070064Y-58239235D01*
X99959286Y-58165216D01*
X99822784Y-58028714D01*
X99715535Y-57868204D01*
X99715534Y-57868203D01*
X99641661Y-57689859D01*
X99604000Y-57500521D01*
X99604000Y-57307479D01*
X99641661Y-57118141D01*
X99715534Y-56939797D01*
X99769949Y-56858360D01*
X99822784Y-56779286D01*
X99959286Y-56642784D01*
X100119796Y-56535535D01*
X100119797Y-56535534D01*
X100298141Y-56461661D01*
X100440144Y-56433415D01*
X100487478Y-56424000D01*
X100680522Y-56424000D01*
X100727856Y-56433415D01*
X100727856Y-56433415D01*
G37*
G36*
X98187856Y-56433415D02*
X98329859Y-56461661D01*
X98508203Y-56535534D01*
X98508204Y-56535535D01*
X98668714Y-56642784D01*
X98805216Y-56779286D01*
X98858051Y-56858360D01*
X98912466Y-56939797D01*
X98986339Y-57118141D01*
X99024000Y-57307479D01*
X99024000Y-57500521D01*
X98986339Y-57689859D01*
X98912466Y-57868203D01*
X98912465Y-57868204D01*
X98805216Y-58028714D01*
X98668714Y-58165216D01*
X98557936Y-58239235D01*
X98508203Y-58272466D01*
X98329859Y-58346339D01*
X98194661Y-58373231D01*
X98140522Y-58384000D01*
X97947478Y-58384000D01*
X97893339Y-58373231D01*
X97758141Y-58346339D01*
X97579797Y-58272466D01*
X97530064Y-58239235D01*
X97419286Y-58165216D01*
X97282784Y-58028714D01*
X97175535Y-57868204D01*
X97175534Y-57868203D01*
X97101661Y-57689859D01*
X97064000Y-57500521D01*
X97064000Y-57307479D01*
X97101661Y-57118141D01*
X97175534Y-56939797D01*
X97229949Y-56858360D01*
X97282784Y-56779286D01*
X97419286Y-56642784D01*
X97579796Y-56535535D01*
X97579797Y-56535534D01*
X97758141Y-56461661D01*
X97900144Y-56433415D01*
X97947478Y-56424000D01*
X98140522Y-56424000D01*
X98187856Y-56433415D01*
X98187856Y-56433415D01*
G37*
G36*
X176272502Y-55711116D02*
X176391257Y-55747140D01*
X176500703Y-55805640D01*
X176596633Y-55884367D01*
X176675360Y-55980297D01*
X176733860Y-56089743D01*
X176769884Y-56208498D01*
X176782048Y-56332000D01*
X176769884Y-56455502D01*
X176733860Y-56574257D01*
X176675360Y-56683703D01*
X176596633Y-56779633D01*
X176500703Y-56858360D01*
X176391257Y-56916860D01*
X176272502Y-56952884D01*
X176179947Y-56962000D01*
X175418053Y-56962000D01*
X175325498Y-56952884D01*
X175206743Y-56916860D01*
X175097297Y-56858360D01*
X175001367Y-56779633D01*
X174922640Y-56683703D01*
X174864140Y-56574257D01*
X174828116Y-56455502D01*
X174815952Y-56332000D01*
X174828116Y-56208498D01*
X174864140Y-56089743D01*
X174922640Y-55980297D01*
X175001367Y-55884367D01*
X175097297Y-55805640D01*
X175206743Y-55747140D01*
X175325498Y-55711116D01*
X175418053Y-55702000D01*
X176179947Y-55702000D01*
X176272502Y-55711116D01*
X176272502Y-55711116D01*
G37*
G36*
X173319225Y-54606014D02*
X173319227Y-54606015D01*
X173319228Y-54606015D01*
X173456625Y-54662927D01*
X173456627Y-54662928D01*
X173580284Y-54745553D01*
X173685447Y-54850716D01*
X173768072Y-54974373D01*
X173824986Y-55111775D01*
X173832561Y-55149859D01*
X173854000Y-55257640D01*
X173854000Y-55406360D01*
X173824985Y-55552228D01*
X173794752Y-55625216D01*
X173768072Y-55689627D01*
X173685447Y-55813284D01*
X173580284Y-55918447D01*
X173456627Y-56001072D01*
X173456626Y-56001073D01*
X173456625Y-56001073D01*
X173319228Y-56057985D01*
X173319227Y-56057985D01*
X173319225Y-56057986D01*
X173173361Y-56087000D01*
X173024639Y-56087000D01*
X172878775Y-56057986D01*
X172878773Y-56057985D01*
X172878772Y-56057985D01*
X172741375Y-56001073D01*
X172741374Y-56001073D01*
X172741373Y-56001072D01*
X172617716Y-55918447D01*
X172512553Y-55813284D01*
X172429928Y-55689627D01*
X172403248Y-55625216D01*
X172373015Y-55552228D01*
X172344000Y-55406360D01*
X172344000Y-55257640D01*
X172365439Y-55149859D01*
X172373014Y-55111775D01*
X172429928Y-54974373D01*
X172512553Y-54850716D01*
X172617716Y-54745553D01*
X172741373Y-54662928D01*
X172741375Y-54662927D01*
X172878772Y-54606015D01*
X172878773Y-54606015D01*
X172878775Y-54606014D01*
X173024639Y-54577000D01*
X173173361Y-54577000D01*
X173319225Y-54606014D01*
X173319225Y-54606014D01*
G37*
G36*
X101997855Y-53893415D02*
X102139859Y-53921661D01*
X102318203Y-53995534D01*
X102318204Y-53995535D01*
X102478714Y-54102784D01*
X102615216Y-54239286D01*
X102695744Y-54359806D01*
X102722466Y-54399797D01*
X102796339Y-54578141D01*
X102834000Y-54767479D01*
X102834000Y-54960521D01*
X102796339Y-55149859D01*
X102722466Y-55328203D01*
X102722465Y-55328204D01*
X102615216Y-55488714D01*
X102478714Y-55625216D01*
X102382319Y-55689625D01*
X102318203Y-55732466D01*
X102139859Y-55806339D01*
X101997855Y-55834585D01*
X101950522Y-55844000D01*
X101757478Y-55844000D01*
X101710145Y-55834585D01*
X101568141Y-55806339D01*
X101389797Y-55732466D01*
X101325681Y-55689625D01*
X101229286Y-55625216D01*
X101092784Y-55488714D01*
X100985535Y-55328204D01*
X100985534Y-55328203D01*
X100911661Y-55149859D01*
X100874000Y-54960521D01*
X100874000Y-54767479D01*
X100911661Y-54578141D01*
X100985534Y-54399797D01*
X101012256Y-54359806D01*
X101092784Y-54239286D01*
X101229286Y-54102784D01*
X101389796Y-53995535D01*
X101389797Y-53995534D01*
X101568141Y-53921661D01*
X101710145Y-53893415D01*
X101757478Y-53884000D01*
X101950522Y-53884000D01*
X101997855Y-53893415D01*
X101997855Y-53893415D01*
G37*
G36*
X104537855Y-53893415D02*
X104679859Y-53921661D01*
X104858203Y-53995534D01*
X104858204Y-53995535D01*
X105018714Y-54102784D01*
X105155216Y-54239286D01*
X105235744Y-54359806D01*
X105262466Y-54399797D01*
X105336339Y-54578141D01*
X105374000Y-54767479D01*
X105374000Y-54960521D01*
X105336339Y-55149859D01*
X105262466Y-55328203D01*
X105262465Y-55328204D01*
X105155216Y-55488714D01*
X105018714Y-55625216D01*
X104922319Y-55689625D01*
X104858203Y-55732466D01*
X104679859Y-55806339D01*
X104537855Y-55834585D01*
X104490522Y-55844000D01*
X104297478Y-55844000D01*
X104250145Y-55834585D01*
X104108141Y-55806339D01*
X103929797Y-55732466D01*
X103865681Y-55689625D01*
X103769286Y-55625216D01*
X103632784Y-55488714D01*
X103525535Y-55328204D01*
X103525534Y-55328203D01*
X103451661Y-55149859D01*
X103414000Y-54960521D01*
X103414000Y-54767479D01*
X103451661Y-54578141D01*
X103525534Y-54399797D01*
X103552256Y-54359806D01*
X103632784Y-54239286D01*
X103769286Y-54102784D01*
X103929796Y-53995535D01*
X103929797Y-53995534D01*
X104108141Y-53921661D01*
X104250145Y-53893415D01*
X104297478Y-53884000D01*
X104490522Y-53884000D01*
X104537855Y-53893415D01*
X104537855Y-53893415D01*
G37*
G36*
X99457855Y-53893415D02*
X99599859Y-53921661D01*
X99778203Y-53995534D01*
X99778204Y-53995535D01*
X99938714Y-54102784D01*
X100075216Y-54239286D01*
X100155744Y-54359806D01*
X100182466Y-54399797D01*
X100256339Y-54578141D01*
X100294000Y-54767479D01*
X100294000Y-54960521D01*
X100256339Y-55149859D01*
X100182466Y-55328203D01*
X100182465Y-55328204D01*
X100075216Y-55488714D01*
X99938714Y-55625216D01*
X99842319Y-55689625D01*
X99778203Y-55732466D01*
X99599859Y-55806339D01*
X99457855Y-55834585D01*
X99410522Y-55844000D01*
X99217478Y-55844000D01*
X99170145Y-55834585D01*
X99028141Y-55806339D01*
X98849797Y-55732466D01*
X98785681Y-55689625D01*
X98689286Y-55625216D01*
X98552784Y-55488714D01*
X98445535Y-55328204D01*
X98445534Y-55328203D01*
X98371661Y-55149859D01*
X98334000Y-54960521D01*
X98334000Y-54767479D01*
X98371661Y-54578141D01*
X98445534Y-54399797D01*
X98472256Y-54359806D01*
X98552784Y-54239286D01*
X98689286Y-54102784D01*
X98849796Y-53995535D01*
X98849797Y-53995534D01*
X99028141Y-53921661D01*
X99170145Y-53893415D01*
X99217478Y-53884000D01*
X99410522Y-53884000D01*
X99457855Y-53893415D01*
X99457855Y-53893415D01*
G37*
G36*
X107914000Y-55844000D02*
X105954000Y-55844000D01*
X105954000Y-53884000D01*
X107914000Y-53884000D01*
X107914000Y-55844000D01*
X107914000Y-55844000D01*
G37*
G36*
X110459232Y-50256778D02*
X110651950Y-50295111D01*
X110893990Y-50395368D01*
X111111827Y-50540922D01*
X111297078Y-50726173D01*
X111442632Y-50944010D01*
X111542889Y-51186050D01*
X111594000Y-51443007D01*
X111594000Y-51704993D01*
X111542889Y-51961950D01*
X111442632Y-52203990D01*
X111297078Y-52421827D01*
X111111827Y-52607078D01*
X110893990Y-52752632D01*
X110651950Y-52852889D01*
X110459232Y-52891222D01*
X110394994Y-52904000D01*
X110133006Y-52904000D01*
X110068768Y-52891222D01*
X109876050Y-52852889D01*
X109634010Y-52752632D01*
X109416173Y-52607078D01*
X109230922Y-52421827D01*
X109085368Y-52203990D01*
X108985111Y-51961950D01*
X108934000Y-51704993D01*
X108934000Y-51443007D01*
X108985111Y-51186050D01*
X109085368Y-50944010D01*
X109230922Y-50726173D01*
X109416173Y-50540922D01*
X109634010Y-50395368D01*
X109876050Y-50295111D01*
X110068768Y-50256778D01*
X110133006Y-50244000D01*
X110394994Y-50244000D01*
X110459232Y-50256778D01*
X110459232Y-50256778D01*
G37*
G36*
X94909232Y-50256778D02*
X95101950Y-50295111D01*
X95343990Y-50395368D01*
X95561827Y-50540922D01*
X95747078Y-50726173D01*
X95892632Y-50944010D01*
X95992889Y-51186050D01*
X96044000Y-51443007D01*
X96044000Y-51704993D01*
X95992889Y-51961950D01*
X95892632Y-52203990D01*
X95747078Y-52421827D01*
X95561827Y-52607078D01*
X95343990Y-52752632D01*
X95101950Y-52852889D01*
X94909232Y-52891222D01*
X94844994Y-52904000D01*
X94583006Y-52904000D01*
X94518768Y-52891222D01*
X94326050Y-52852889D01*
X94084010Y-52752632D01*
X93866173Y-52607078D01*
X93680922Y-52421827D01*
X93535368Y-52203990D01*
X93435111Y-51961950D01*
X93384000Y-51704993D01*
X93384000Y-51443007D01*
X93435111Y-51186050D01*
X93535368Y-50944010D01*
X93680922Y-50726173D01*
X93866173Y-50540922D01*
X94084010Y-50395368D01*
X94326050Y-50295111D01*
X94518768Y-50256778D01*
X94583006Y-50244000D01*
X94844994Y-50244000D01*
X94909232Y-50256778D01*
X94909232Y-50256778D01*
G37*
G36*
X173319225Y-49606014D02*
X173319227Y-49606015D01*
X173319228Y-49606015D01*
X173456625Y-49662927D01*
X173456627Y-49662928D01*
X173580284Y-49745553D01*
X173685447Y-49850716D01*
X173768072Y-49974373D01*
X173824986Y-50111775D01*
X173854000Y-50257639D01*
X173854000Y-50406361D01*
X173824986Y-50552225D01*
X173768072Y-50689627D01*
X173685447Y-50813284D01*
X173580284Y-50918447D01*
X173456627Y-51001072D01*
X173456626Y-51001073D01*
X173456625Y-51001073D01*
X173319228Y-51057985D01*
X173319227Y-51057985D01*
X173319225Y-51057986D01*
X173173361Y-51087000D01*
X173024639Y-51087000D01*
X172878775Y-51057986D01*
X172878773Y-51057985D01*
X172878772Y-51057985D01*
X172741375Y-51001073D01*
X172741374Y-51001073D01*
X172741373Y-51001072D01*
X172617716Y-50918447D01*
X172512553Y-50813284D01*
X172429928Y-50689627D01*
X172373014Y-50552225D01*
X172344000Y-50406361D01*
X172344000Y-50257639D01*
X172373014Y-50111775D01*
X172429928Y-49974373D01*
X172512553Y-49850716D01*
X172617716Y-49745553D01*
X172741373Y-49662928D01*
X172741375Y-49662927D01*
X172878772Y-49606015D01*
X172878773Y-49606015D01*
X172878775Y-49606014D01*
X173024639Y-49577000D01*
X173173361Y-49577000D01*
X173319225Y-49606014D01*
X173319225Y-49606014D01*
G37*
G36*
X108446939Y-46884900D02*
X108686749Y-46932601D01*
X108980371Y-47054224D01*
X108987937Y-47057358D01*
X109259001Y-47238477D01*
X109489523Y-47468999D01*
X109512814Y-47503856D01*
X109670643Y-47740065D01*
X109795399Y-48041251D01*
X109828492Y-48207622D01*
X109859000Y-48360997D01*
X109859000Y-48687003D01*
X109853429Y-48715011D01*
X109795399Y-49006749D01*
X109711831Y-49208498D01*
X109670642Y-49307937D01*
X109489523Y-49579001D01*
X109259001Y-49809523D01*
X108987937Y-49990642D01*
X108987936Y-49990643D01*
X108987935Y-49990643D01*
X108686749Y-50115399D01*
X108446939Y-50163100D01*
X108367003Y-50179000D01*
X108040997Y-50179000D01*
X107961061Y-50163100D01*
X107721251Y-50115399D01*
X107420065Y-49990643D01*
X107420064Y-49990643D01*
X107420063Y-49990642D01*
X107148999Y-49809523D01*
X106918477Y-49579001D01*
X106737358Y-49307937D01*
X106696169Y-49208498D01*
X106612601Y-49006749D01*
X106554571Y-48715011D01*
X106549000Y-48687003D01*
X106549000Y-48360997D01*
X106579508Y-48207622D01*
X106612601Y-48041251D01*
X106737357Y-47740065D01*
X106895187Y-47503856D01*
X106918477Y-47468999D01*
X107148999Y-47238477D01*
X107420063Y-47057358D01*
X107427629Y-47054224D01*
X107721251Y-46932601D01*
X107961061Y-46884900D01*
X108040997Y-46869000D01*
X108367003Y-46869000D01*
X108446939Y-46884900D01*
X108446939Y-46884900D01*
G37*
G36*
X97016939Y-46884900D02*
X97256749Y-46932601D01*
X97550371Y-47054224D01*
X97557937Y-47057358D01*
X97829001Y-47238477D01*
X98059523Y-47468999D01*
X98082814Y-47503856D01*
X98240643Y-47740065D01*
X98365399Y-48041251D01*
X98398492Y-48207622D01*
X98429000Y-48360997D01*
X98429000Y-48687003D01*
X98423429Y-48715011D01*
X98365399Y-49006749D01*
X98281831Y-49208498D01*
X98240642Y-49307937D01*
X98059523Y-49579001D01*
X97829001Y-49809523D01*
X97557937Y-49990642D01*
X97557936Y-49990643D01*
X97557935Y-49990643D01*
X97256749Y-50115399D01*
X97016939Y-50163100D01*
X96937003Y-50179000D01*
X96610997Y-50179000D01*
X96531061Y-50163100D01*
X96291251Y-50115399D01*
X95990065Y-49990643D01*
X95990064Y-49990643D01*
X95990063Y-49990642D01*
X95718999Y-49809523D01*
X95488477Y-49579001D01*
X95307358Y-49307937D01*
X95266169Y-49208498D01*
X95182601Y-49006749D01*
X95124571Y-48715011D01*
X95119000Y-48687003D01*
X95119000Y-48360997D01*
X95149508Y-48207622D01*
X95182601Y-48041251D01*
X95307357Y-47740065D01*
X95465187Y-47503856D01*
X95488477Y-47468999D01*
X95718999Y-47238477D01*
X95990063Y-47057358D01*
X95997629Y-47054224D01*
X96291251Y-46932601D01*
X96531061Y-46884900D01*
X96610997Y-46869000D01*
X96937003Y-46869000D01*
X97016939Y-46884900D01*
X97016939Y-46884900D01*
G37*
G36*
X176272502Y-48711116D02*
X176391257Y-48747140D01*
X176500703Y-48805640D01*
X176596633Y-48884367D01*
X176675360Y-48980297D01*
X176733860Y-49089743D01*
X176769884Y-49208498D01*
X176782048Y-49332000D01*
X176769884Y-49455502D01*
X176733860Y-49574257D01*
X176675360Y-49683703D01*
X176596633Y-49779633D01*
X176500703Y-49858360D01*
X176391257Y-49916860D01*
X176272502Y-49952884D01*
X176179947Y-49962000D01*
X175418053Y-49962000D01*
X175325498Y-49952884D01*
X175206743Y-49916860D01*
X175097297Y-49858360D01*
X175001367Y-49779633D01*
X174922640Y-49683703D01*
X174864140Y-49574257D01*
X174828116Y-49455502D01*
X174815952Y-49332000D01*
X174828116Y-49208498D01*
X174864140Y-49089743D01*
X174922640Y-48980297D01*
X175001367Y-48884367D01*
X175097297Y-48805640D01*
X175206743Y-48747140D01*
X175325498Y-48711116D01*
X175418053Y-48702000D01*
X176179947Y-48702000D01*
X176272502Y-48711116D01*
X176272502Y-48711116D01*
G37*
G36*
X46873781Y-46442268D02*
X47097622Y-46534987D01*
X47299080Y-46669597D01*
X47470403Y-46840920D01*
X47605013Y-47042378D01*
X47697732Y-47266219D01*
X47745000Y-47503856D01*
X47745000Y-47746144D01*
X47697732Y-47983781D01*
X47605013Y-48207622D01*
X47470403Y-48409080D01*
X47299080Y-48580403D01*
X47097622Y-48715013D01*
X46873781Y-48807732D01*
X46636144Y-48855000D01*
X46393856Y-48855000D01*
X46156219Y-48807732D01*
X45932378Y-48715013D01*
X45730920Y-48580403D01*
X45559597Y-48409080D01*
X45424987Y-48207622D01*
X45332268Y-47983781D01*
X45285000Y-47746144D01*
X45285000Y-47503856D01*
X45332268Y-47266219D01*
X45424987Y-47042378D01*
X45559597Y-46840920D01*
X45730920Y-46669597D01*
X45932378Y-46534987D01*
X46156219Y-46442268D01*
X46393856Y-46395000D01*
X46636144Y-46395000D01*
X46873781Y-46442268D01*
X46873781Y-46442268D01*
G37*
G36*
X41873781Y-46442268D02*
X42097622Y-46534987D01*
X42299080Y-46669597D01*
X42470403Y-46840920D01*
X42605013Y-47042378D01*
X42697732Y-47266219D01*
X42745000Y-47503856D01*
X42745000Y-47746144D01*
X42697732Y-47983781D01*
X42605013Y-48207622D01*
X42470403Y-48409080D01*
X42299080Y-48580403D01*
X42097622Y-48715013D01*
X41873781Y-48807732D01*
X41636144Y-48855000D01*
X41393856Y-48855000D01*
X41156219Y-48807732D01*
X40932378Y-48715013D01*
X40730920Y-48580403D01*
X40559597Y-48409080D01*
X40424987Y-48207622D01*
X40332268Y-47983781D01*
X40285000Y-47746144D01*
X40285000Y-47503856D01*
X40332268Y-47266219D01*
X40424987Y-47042378D01*
X40559597Y-46840920D01*
X40730920Y-46669597D01*
X40932378Y-46534987D01*
X41156219Y-46442268D01*
X41393856Y-46395000D01*
X41636144Y-46395000D01*
X41873781Y-46442268D01*
X41873781Y-46442268D01*
G37*
G36*
X56873781Y-46442268D02*
X57097622Y-46534987D01*
X57299080Y-46669597D01*
X57470403Y-46840920D01*
X57605013Y-47042378D01*
X57697732Y-47266219D01*
X57745000Y-47503856D01*
X57745000Y-47746144D01*
X57697732Y-47983781D01*
X57605013Y-48207622D01*
X57470403Y-48409080D01*
X57299080Y-48580403D01*
X57097622Y-48715013D01*
X56873781Y-48807732D01*
X56636144Y-48855000D01*
X56393856Y-48855000D01*
X56156219Y-48807732D01*
X55932378Y-48715013D01*
X55730920Y-48580403D01*
X55559597Y-48409080D01*
X55424987Y-48207622D01*
X55332268Y-47983781D01*
X55285000Y-47746144D01*
X55285000Y-47503856D01*
X55332268Y-47266219D01*
X55424987Y-47042378D01*
X55559597Y-46840920D01*
X55730920Y-46669597D01*
X55932378Y-46534987D01*
X56156219Y-46442268D01*
X56393856Y-46395000D01*
X56636144Y-46395000D01*
X56873781Y-46442268D01*
X56873781Y-46442268D01*
G37*
G36*
X51873781Y-46442268D02*
X52097622Y-46534987D01*
X52299080Y-46669597D01*
X52470403Y-46840920D01*
X52605013Y-47042378D01*
X52697732Y-47266219D01*
X52745000Y-47503856D01*
X52745000Y-47746144D01*
X52697732Y-47983781D01*
X52605013Y-48207622D01*
X52470403Y-48409080D01*
X52299080Y-48580403D01*
X52097622Y-48715013D01*
X51873781Y-48807732D01*
X51636144Y-48855000D01*
X51393856Y-48855000D01*
X51156219Y-48807732D01*
X50932378Y-48715013D01*
X50730920Y-48580403D01*
X50559597Y-48409080D01*
X50424987Y-48207622D01*
X50332268Y-47983781D01*
X50285000Y-47746144D01*
X50285000Y-47503856D01*
X50332268Y-47266219D01*
X50424987Y-47042378D01*
X50559597Y-46840920D01*
X50730920Y-46669597D01*
X50932378Y-46534987D01*
X51156219Y-46442268D01*
X51393856Y-46395000D01*
X51636144Y-46395000D01*
X51873781Y-46442268D01*
X51873781Y-46442268D01*
G37*
G36*
X170561883Y-42861776D02*
X170561885Y-42861777D01*
X170561886Y-42861777D01*
X170958616Y-43026108D01*
X171315670Y-43264684D01*
X171619316Y-43568330D01*
X171857892Y-43925384D01*
X172012651Y-44299006D01*
X172022224Y-44322117D01*
X172106000Y-44743289D01*
X172106000Y-45172711D01*
X172029163Y-45559000D01*
X172022223Y-45593886D01*
X171857892Y-45990616D01*
X171619316Y-46347670D01*
X171315670Y-46651316D01*
X170958616Y-46889892D01*
X170561886Y-47054223D01*
X170561885Y-47054223D01*
X170561883Y-47054224D01*
X170140711Y-47138000D01*
X169711289Y-47138000D01*
X169290117Y-47054224D01*
X169290115Y-47054223D01*
X169290114Y-47054223D01*
X168893384Y-46889892D01*
X168536330Y-46651316D01*
X168232684Y-46347670D01*
X167994108Y-45990616D01*
X167829777Y-45593886D01*
X167822838Y-45559000D01*
X167746000Y-45172711D01*
X167746000Y-44743289D01*
X167829776Y-44322117D01*
X167839349Y-44299006D01*
X167994108Y-43925384D01*
X168232684Y-43568330D01*
X168536330Y-43264684D01*
X168893384Y-43026108D01*
X169290114Y-42861777D01*
X169290115Y-42861777D01*
X169290117Y-42861776D01*
X169711289Y-42778000D01*
X170140711Y-42778000D01*
X170561883Y-42861776D01*
X170561883Y-42861776D01*
G37*
G36*
X29147383Y-42861776D02*
X29147385Y-42861777D01*
X29147386Y-42861777D01*
X29544116Y-43026108D01*
X29901170Y-43264684D01*
X30204816Y-43568330D01*
X30443392Y-43925384D01*
X30598151Y-44299006D01*
X30607724Y-44322117D01*
X30691500Y-44743289D01*
X30691500Y-45172711D01*
X30614663Y-45559000D01*
X30607723Y-45593886D01*
X30443392Y-45990616D01*
X30204816Y-46347670D01*
X29901170Y-46651316D01*
X29544116Y-46889892D01*
X29147386Y-47054223D01*
X29147385Y-47054223D01*
X29147383Y-47054224D01*
X28726211Y-47138000D01*
X28296789Y-47138000D01*
X27875617Y-47054224D01*
X27875615Y-47054223D01*
X27875614Y-47054223D01*
X27478884Y-46889892D01*
X27121830Y-46651316D01*
X26818184Y-46347670D01*
X26579608Y-45990616D01*
X26415277Y-45593886D01*
X26408338Y-45559000D01*
X26331500Y-45172711D01*
X26331500Y-44743289D01*
X26415276Y-44322117D01*
X26424849Y-44299006D01*
X26579608Y-43925384D01*
X26818184Y-43568330D01*
X27121830Y-43264684D01*
X27478884Y-43026108D01*
X27875614Y-42861777D01*
X27875615Y-42861777D01*
X27875617Y-42861776D01*
X28296789Y-42778000D01*
X28726211Y-42778000D01*
X29147383Y-42861776D01*
X29147383Y-42861776D01*
G37*
G36*
X106558397Y-44206468D02*
X106558399Y-44206469D01*
X106558400Y-44206469D01*
X106694534Y-44262858D01*
X106735836Y-44279966D01*
X106895527Y-44386668D01*
X107031332Y-44522473D01*
X107136593Y-44680007D01*
X107138035Y-44682166D01*
X107201591Y-44835602D01*
X107211532Y-44859603D01*
X107239615Y-45000790D01*
X107249000Y-45047972D01*
X107249000Y-45240028D01*
X107211531Y-45428400D01*
X107171044Y-45526143D01*
X107138034Y-45605836D01*
X107031332Y-45765527D01*
X106895527Y-45901332D01*
X106735836Y-46008034D01*
X106735835Y-46008035D01*
X106735834Y-46008035D01*
X106558400Y-46081531D01*
X106558399Y-46081531D01*
X106558397Y-46081532D01*
X106370029Y-46119000D01*
X106177971Y-46119000D01*
X105989603Y-46081532D01*
X105989601Y-46081531D01*
X105989600Y-46081531D01*
X105812166Y-46008035D01*
X105812165Y-46008035D01*
X105812164Y-46008034D01*
X105652473Y-45901332D01*
X105516668Y-45765527D01*
X105409966Y-45605836D01*
X105376956Y-45526143D01*
X105336469Y-45428400D01*
X105299000Y-45240028D01*
X105299000Y-45047972D01*
X105308385Y-45000790D01*
X105336468Y-44859603D01*
X105346410Y-44835602D01*
X105409965Y-44682166D01*
X105411408Y-44680007D01*
X105516668Y-44522473D01*
X105652473Y-44386668D01*
X105812164Y-44279966D01*
X105853466Y-44262858D01*
X105989600Y-44206469D01*
X105989601Y-44206469D01*
X105989603Y-44206468D01*
X106177971Y-44169000D01*
X106370029Y-44169000D01*
X106558397Y-44206468D01*
X106558397Y-44206468D01*
G37*
G36*
X96448397Y-44206468D02*
X96448399Y-44206469D01*
X96448400Y-44206469D01*
X96584534Y-44262858D01*
X96625836Y-44279966D01*
X96785527Y-44386668D01*
X96921332Y-44522473D01*
X97026593Y-44680007D01*
X97028035Y-44682166D01*
X97091591Y-44835602D01*
X97101532Y-44859603D01*
X97129615Y-45000790D01*
X97139000Y-45047972D01*
X97139000Y-45240028D01*
X97101531Y-45428400D01*
X97061044Y-45526143D01*
X97028034Y-45605836D01*
X96921332Y-45765527D01*
X96785527Y-45901332D01*
X96625836Y-46008034D01*
X96625835Y-46008035D01*
X96625834Y-46008035D01*
X96448400Y-46081531D01*
X96448399Y-46081531D01*
X96448397Y-46081532D01*
X96260029Y-46119000D01*
X96067971Y-46119000D01*
X95879603Y-46081532D01*
X95879601Y-46081531D01*
X95879600Y-46081531D01*
X95702166Y-46008035D01*
X95702165Y-46008035D01*
X95702164Y-46008034D01*
X95542473Y-45901332D01*
X95406668Y-45765527D01*
X95299966Y-45605836D01*
X95266956Y-45526143D01*
X95226469Y-45428400D01*
X95189000Y-45240028D01*
X95189000Y-45047972D01*
X95198385Y-45000790D01*
X95226468Y-44859603D01*
X95236410Y-44835602D01*
X95299965Y-44682166D01*
X95301408Y-44680007D01*
X95406668Y-44522473D01*
X95542473Y-44386668D01*
X95702164Y-44279966D01*
X95743466Y-44262858D01*
X95879600Y-44206469D01*
X95879601Y-44206469D01*
X95879603Y-44206468D01*
X96067971Y-44169000D01*
X96260029Y-44169000D01*
X96448397Y-44206468D01*
X96448397Y-44206468D01*
G37*
G36*
X132743394Y-44262857D02*
X132743395Y-44262857D01*
X132743398Y-44262858D01*
X132898993Y-44327308D01*
X132898994Y-44327309D01*
X133039031Y-44420878D01*
X133158122Y-44539969D01*
X133197565Y-44599000D01*
X133251692Y-44680007D01*
X133316142Y-44835602D01*
X133316143Y-44835605D01*
X133316143Y-44835606D01*
X133349000Y-45000790D01*
X133349000Y-45169210D01*
X133333123Y-45249031D01*
X133316142Y-45334398D01*
X133251692Y-45489993D01*
X133251691Y-45489994D01*
X133158122Y-45630031D01*
X133039031Y-45749122D01*
X132992604Y-45780143D01*
X132898993Y-45842692D01*
X132743398Y-45907142D01*
X132743395Y-45907143D01*
X132743394Y-45907143D01*
X132578210Y-45940000D01*
X132409790Y-45940000D01*
X132244606Y-45907143D01*
X132244605Y-45907143D01*
X132244602Y-45907142D01*
X132089007Y-45842692D01*
X131995396Y-45780143D01*
X131948969Y-45749122D01*
X131829878Y-45630031D01*
X131736309Y-45489994D01*
X131736308Y-45489993D01*
X131671858Y-45334398D01*
X131654878Y-45249031D01*
X131639000Y-45169210D01*
X131639000Y-45000790D01*
X131671857Y-44835606D01*
X131671857Y-44835605D01*
X131671858Y-44835602D01*
X131736308Y-44680007D01*
X131790435Y-44599000D01*
X131829878Y-44539969D01*
X131948969Y-44420878D01*
X132089006Y-44327309D01*
X132089007Y-44327308D01*
X132244602Y-44262858D01*
X132244605Y-44262857D01*
X132244606Y-44262857D01*
X132409790Y-44230000D01*
X132578210Y-44230000D01*
X132743394Y-44262857D01*
X132743394Y-44262857D01*
G37*
G36*
X130243394Y-44262857D02*
X130243395Y-44262857D01*
X130243398Y-44262858D01*
X130398993Y-44327308D01*
X130398994Y-44327309D01*
X130539031Y-44420878D01*
X130658122Y-44539969D01*
X130697565Y-44599000D01*
X130751692Y-44680007D01*
X130816142Y-44835602D01*
X130816143Y-44835605D01*
X130816143Y-44835606D01*
X130849000Y-45000790D01*
X130849000Y-45169210D01*
X130833123Y-45249031D01*
X130816142Y-45334398D01*
X130751692Y-45489993D01*
X130751691Y-45489994D01*
X130658122Y-45630031D01*
X130539031Y-45749122D01*
X130492604Y-45780143D01*
X130398993Y-45842692D01*
X130243398Y-45907142D01*
X130243395Y-45907143D01*
X130243394Y-45907143D01*
X130078210Y-45940000D01*
X129909790Y-45940000D01*
X129744606Y-45907143D01*
X129744605Y-45907143D01*
X129744602Y-45907142D01*
X129589007Y-45842692D01*
X129495396Y-45780143D01*
X129448969Y-45749122D01*
X129329878Y-45630031D01*
X129236309Y-45489994D01*
X129236308Y-45489993D01*
X129171858Y-45334398D01*
X129154878Y-45249031D01*
X129139000Y-45169210D01*
X129139000Y-45000790D01*
X129171857Y-44835606D01*
X129171857Y-44835605D01*
X129171858Y-44835602D01*
X129236308Y-44680007D01*
X129290435Y-44599000D01*
X129329878Y-44539969D01*
X129448969Y-44420878D01*
X129589006Y-44327309D01*
X129589007Y-44327308D01*
X129744602Y-44262858D01*
X129744605Y-44262857D01*
X129744606Y-44262857D01*
X129909790Y-44230000D01*
X130078210Y-44230000D01*
X130243394Y-44262857D01*
X130243394Y-44262857D01*
G37*
G36*
X135243394Y-44262857D02*
X135243395Y-44262857D01*
X135243398Y-44262858D01*
X135398993Y-44327308D01*
X135398994Y-44327309D01*
X135539031Y-44420878D01*
X135658122Y-44539969D01*
X135697565Y-44599000D01*
X135751692Y-44680007D01*
X135816142Y-44835602D01*
X135816143Y-44835605D01*
X135816143Y-44835606D01*
X135849000Y-45000790D01*
X135849000Y-45169210D01*
X135833123Y-45249031D01*
X135816142Y-45334398D01*
X135751692Y-45489993D01*
X135751691Y-45489994D01*
X135658122Y-45630031D01*
X135539031Y-45749122D01*
X135492604Y-45780143D01*
X135398993Y-45842692D01*
X135243398Y-45907142D01*
X135243395Y-45907143D01*
X135243394Y-45907143D01*
X135078210Y-45940000D01*
X134909790Y-45940000D01*
X134744606Y-45907143D01*
X134744605Y-45907143D01*
X134744602Y-45907142D01*
X134589007Y-45842692D01*
X134495396Y-45780143D01*
X134448969Y-45749122D01*
X134329878Y-45630031D01*
X134236309Y-45489994D01*
X134236308Y-45489993D01*
X134171858Y-45334398D01*
X134154878Y-45249031D01*
X134139000Y-45169210D01*
X134139000Y-45000790D01*
X134171857Y-44835606D01*
X134171857Y-44835605D01*
X134171858Y-44835602D01*
X134236308Y-44680007D01*
X134290435Y-44599000D01*
X134329878Y-44539969D01*
X134448969Y-44420878D01*
X134589006Y-44327309D01*
X134589007Y-44327308D01*
X134744602Y-44262858D01*
X134744605Y-44262857D01*
X134744606Y-44262857D01*
X134909790Y-44230000D01*
X135078210Y-44230000D01*
X135243394Y-44262857D01*
X135243394Y-44262857D01*
G37*
G36*
X140243394Y-44262857D02*
X140243395Y-44262857D01*
X140243398Y-44262858D01*
X140398993Y-44327308D01*
X140398994Y-44327309D01*
X140539031Y-44420878D01*
X140658122Y-44539969D01*
X140697565Y-44599000D01*
X140751692Y-44680007D01*
X140816142Y-44835602D01*
X140816143Y-44835605D01*
X140816143Y-44835606D01*
X140849000Y-45000790D01*
X140849000Y-45169210D01*
X140833123Y-45249031D01*
X140816142Y-45334398D01*
X140751692Y-45489993D01*
X140751691Y-45489994D01*
X140658122Y-45630031D01*
X140539031Y-45749122D01*
X140492604Y-45780143D01*
X140398993Y-45842692D01*
X140243398Y-45907142D01*
X140243395Y-45907143D01*
X140243394Y-45907143D01*
X140078210Y-45940000D01*
X139909790Y-45940000D01*
X139744606Y-45907143D01*
X139744605Y-45907143D01*
X139744602Y-45907142D01*
X139589007Y-45842692D01*
X139495396Y-45780143D01*
X139448969Y-45749122D01*
X139329878Y-45630031D01*
X139236309Y-45489994D01*
X139236308Y-45489993D01*
X139171858Y-45334398D01*
X139154878Y-45249031D01*
X139139000Y-45169210D01*
X139139000Y-45000790D01*
X139171857Y-44835606D01*
X139171857Y-44835605D01*
X139171858Y-44835602D01*
X139236308Y-44680007D01*
X139290435Y-44599000D01*
X139329878Y-44539969D01*
X139448969Y-44420878D01*
X139589006Y-44327309D01*
X139589007Y-44327308D01*
X139744602Y-44262858D01*
X139744605Y-44262857D01*
X139744606Y-44262857D01*
X139909790Y-44230000D01*
X140078210Y-44230000D01*
X140243394Y-44262857D01*
X140243394Y-44262857D01*
G37*
G36*
X142743394Y-44262857D02*
X142743395Y-44262857D01*
X142743398Y-44262858D01*
X142898993Y-44327308D01*
X142898994Y-44327309D01*
X143039031Y-44420878D01*
X143158122Y-44539969D01*
X143197565Y-44599000D01*
X143251692Y-44680007D01*
X143316142Y-44835602D01*
X143316143Y-44835605D01*
X143316143Y-44835606D01*
X143349000Y-45000790D01*
X143349000Y-45169210D01*
X143333123Y-45249031D01*
X143316142Y-45334398D01*
X143251692Y-45489993D01*
X143251691Y-45489994D01*
X143158122Y-45630031D01*
X143039031Y-45749122D01*
X142992604Y-45780143D01*
X142898993Y-45842692D01*
X142743398Y-45907142D01*
X142743395Y-45907143D01*
X142743394Y-45907143D01*
X142578210Y-45940000D01*
X142409790Y-45940000D01*
X142244606Y-45907143D01*
X142244605Y-45907143D01*
X142244602Y-45907142D01*
X142089007Y-45842692D01*
X141995396Y-45780143D01*
X141948969Y-45749122D01*
X141829878Y-45630031D01*
X141736309Y-45489994D01*
X141736308Y-45489993D01*
X141671858Y-45334398D01*
X141654878Y-45249031D01*
X141639000Y-45169210D01*
X141639000Y-45000790D01*
X141671857Y-44835606D01*
X141671857Y-44835605D01*
X141671858Y-44835602D01*
X141736308Y-44680007D01*
X141790435Y-44599000D01*
X141829878Y-44539969D01*
X141948969Y-44420878D01*
X142089006Y-44327309D01*
X142089007Y-44327308D01*
X142244602Y-44262858D01*
X142244605Y-44262857D01*
X142244606Y-44262857D01*
X142409790Y-44230000D01*
X142578210Y-44230000D01*
X142743394Y-44262857D01*
X142743394Y-44262857D01*
G37*
G36*
X155436394Y-44262857D02*
X155436395Y-44262857D01*
X155436398Y-44262858D01*
X155591993Y-44327308D01*
X155591994Y-44327309D01*
X155732031Y-44420878D01*
X155851122Y-44539969D01*
X155890565Y-44599000D01*
X155944692Y-44680007D01*
X156009142Y-44835602D01*
X156009143Y-44835605D01*
X156009143Y-44835606D01*
X156042000Y-45000790D01*
X156042000Y-45169210D01*
X156026123Y-45249031D01*
X156009142Y-45334398D01*
X155944692Y-45489993D01*
X155944691Y-45489994D01*
X155851122Y-45630031D01*
X155732031Y-45749122D01*
X155685604Y-45780143D01*
X155591993Y-45842692D01*
X155436398Y-45907142D01*
X155436395Y-45907143D01*
X155436394Y-45907143D01*
X155271210Y-45940000D01*
X155102790Y-45940000D01*
X154937606Y-45907143D01*
X154937605Y-45907143D01*
X154937602Y-45907142D01*
X154782007Y-45842692D01*
X154688396Y-45780143D01*
X154641969Y-45749122D01*
X154522878Y-45630031D01*
X154429309Y-45489994D01*
X154429308Y-45489993D01*
X154364858Y-45334398D01*
X154347878Y-45249031D01*
X154332000Y-45169210D01*
X154332000Y-45000790D01*
X154364857Y-44835606D01*
X154364857Y-44835605D01*
X154364858Y-44835602D01*
X154429308Y-44680007D01*
X154483435Y-44599000D01*
X154522878Y-44539969D01*
X154641969Y-44420878D01*
X154782006Y-44327309D01*
X154782007Y-44327308D01*
X154937602Y-44262858D01*
X154937605Y-44262857D01*
X154937606Y-44262857D01*
X155102790Y-44230000D01*
X155271210Y-44230000D01*
X155436394Y-44262857D01*
X155436394Y-44262857D01*
G37*
G36*
X157936394Y-44262857D02*
X157936395Y-44262857D01*
X157936398Y-44262858D01*
X158091993Y-44327308D01*
X158091994Y-44327309D01*
X158232031Y-44420878D01*
X158351122Y-44539969D01*
X158390565Y-44599000D01*
X158444692Y-44680007D01*
X158509142Y-44835602D01*
X158509143Y-44835605D01*
X158509143Y-44835606D01*
X158542000Y-45000790D01*
X158542000Y-45169210D01*
X158526123Y-45249031D01*
X158509142Y-45334398D01*
X158444692Y-45489993D01*
X158444691Y-45489994D01*
X158351122Y-45630031D01*
X158232031Y-45749122D01*
X158185604Y-45780143D01*
X158091993Y-45842692D01*
X157936398Y-45907142D01*
X157936395Y-45907143D01*
X157936394Y-45907143D01*
X157771210Y-45940000D01*
X157602790Y-45940000D01*
X157437606Y-45907143D01*
X157437605Y-45907143D01*
X157437602Y-45907142D01*
X157282007Y-45842692D01*
X157188396Y-45780143D01*
X157141969Y-45749122D01*
X157022878Y-45630031D01*
X156929309Y-45489994D01*
X156929308Y-45489993D01*
X156864858Y-45334398D01*
X156847878Y-45249031D01*
X156832000Y-45169210D01*
X156832000Y-45000790D01*
X156864857Y-44835606D01*
X156864857Y-44835605D01*
X156864858Y-44835602D01*
X156929308Y-44680007D01*
X156983435Y-44599000D01*
X157022878Y-44539969D01*
X157141969Y-44420878D01*
X157282006Y-44327309D01*
X157282007Y-44327308D01*
X157437602Y-44262858D01*
X157437605Y-44262857D01*
X157437606Y-44262857D01*
X157602790Y-44230000D01*
X157771210Y-44230000D01*
X157936394Y-44262857D01*
X157936394Y-44262857D01*
G37*
G36*
X160436394Y-44262857D02*
X160436395Y-44262857D01*
X160436398Y-44262858D01*
X160591993Y-44327308D01*
X160591994Y-44327309D01*
X160732031Y-44420878D01*
X160851122Y-44539969D01*
X160890565Y-44599000D01*
X160944692Y-44680007D01*
X161009142Y-44835602D01*
X161009143Y-44835605D01*
X161009143Y-44835606D01*
X161042000Y-45000790D01*
X161042000Y-45169210D01*
X161026123Y-45249031D01*
X161009142Y-45334398D01*
X160944692Y-45489993D01*
X160944691Y-45489994D01*
X160851122Y-45630031D01*
X160732031Y-45749122D01*
X160685604Y-45780143D01*
X160591993Y-45842692D01*
X160436398Y-45907142D01*
X160436395Y-45907143D01*
X160436394Y-45907143D01*
X160271210Y-45940000D01*
X160102790Y-45940000D01*
X159937606Y-45907143D01*
X159937605Y-45907143D01*
X159937602Y-45907142D01*
X159782007Y-45842692D01*
X159688396Y-45780143D01*
X159641969Y-45749122D01*
X159522878Y-45630031D01*
X159429309Y-45489994D01*
X159429308Y-45489993D01*
X159364858Y-45334398D01*
X159347878Y-45249031D01*
X159332000Y-45169210D01*
X159332000Y-45000790D01*
X159364857Y-44835606D01*
X159364857Y-44835605D01*
X159364858Y-44835602D01*
X159429308Y-44680007D01*
X159483435Y-44599000D01*
X159522878Y-44539969D01*
X159641969Y-44420878D01*
X159782006Y-44327309D01*
X159782007Y-44327308D01*
X159937602Y-44262858D01*
X159937605Y-44262857D01*
X159937606Y-44262857D01*
X160102790Y-44230000D01*
X160271210Y-44230000D01*
X160436394Y-44262857D01*
X160436394Y-44262857D01*
G37*
G36*
X162936394Y-44262857D02*
X162936395Y-44262857D01*
X162936398Y-44262858D01*
X163091993Y-44327308D01*
X163091994Y-44327309D01*
X163232031Y-44420878D01*
X163351122Y-44539969D01*
X163390565Y-44599000D01*
X163444692Y-44680007D01*
X163509142Y-44835602D01*
X163509143Y-44835605D01*
X163509143Y-44835606D01*
X163542000Y-45000790D01*
X163542000Y-45169210D01*
X163526123Y-45249031D01*
X163509142Y-45334398D01*
X163444692Y-45489993D01*
X163444691Y-45489994D01*
X163351122Y-45630031D01*
X163232031Y-45749122D01*
X163185604Y-45780143D01*
X163091993Y-45842692D01*
X162936398Y-45907142D01*
X162936395Y-45907143D01*
X162936394Y-45907143D01*
X162771210Y-45940000D01*
X162602790Y-45940000D01*
X162437606Y-45907143D01*
X162437605Y-45907143D01*
X162437602Y-45907142D01*
X162282007Y-45842692D01*
X162188396Y-45780143D01*
X162141969Y-45749122D01*
X162022878Y-45630031D01*
X161929309Y-45489994D01*
X161929308Y-45489993D01*
X161864858Y-45334398D01*
X161847878Y-45249031D01*
X161832000Y-45169210D01*
X161832000Y-45000790D01*
X161864857Y-44835606D01*
X161864857Y-44835605D01*
X161864858Y-44835602D01*
X161929308Y-44680007D01*
X161983435Y-44599000D01*
X162022878Y-44539969D01*
X162141969Y-44420878D01*
X162282006Y-44327309D01*
X162282007Y-44327308D01*
X162437602Y-44262858D01*
X162437605Y-44262857D01*
X162437606Y-44262857D01*
X162602790Y-44230000D01*
X162771210Y-44230000D01*
X162936394Y-44262857D01*
X162936394Y-44262857D01*
G37*
G36*
X137743394Y-44262857D02*
X137743395Y-44262857D01*
X137743398Y-44262858D01*
X137898993Y-44327308D01*
X137898994Y-44327309D01*
X138039031Y-44420878D01*
X138158122Y-44539969D01*
X138197565Y-44599000D01*
X138251692Y-44680007D01*
X138316142Y-44835602D01*
X138316143Y-44835605D01*
X138316143Y-44835606D01*
X138349000Y-45000790D01*
X138349000Y-45169210D01*
X138333123Y-45249031D01*
X138316142Y-45334398D01*
X138251692Y-45489993D01*
X138251691Y-45489994D01*
X138158122Y-45630031D01*
X138039031Y-45749122D01*
X137992604Y-45780143D01*
X137898993Y-45842692D01*
X137743398Y-45907142D01*
X137743395Y-45907143D01*
X137743394Y-45907143D01*
X137578210Y-45940000D01*
X137409790Y-45940000D01*
X137244606Y-45907143D01*
X137244605Y-45907143D01*
X137244602Y-45907142D01*
X137089007Y-45842692D01*
X136995396Y-45780143D01*
X136948969Y-45749122D01*
X136829878Y-45630031D01*
X136736309Y-45489994D01*
X136736308Y-45489993D01*
X136671858Y-45334398D01*
X136654878Y-45249031D01*
X136639000Y-45169210D01*
X136639000Y-45000790D01*
X136671857Y-44835606D01*
X136671857Y-44835605D01*
X136671858Y-44835602D01*
X136736308Y-44680007D01*
X136790435Y-44599000D01*
X136829878Y-44539969D01*
X136948969Y-44420878D01*
X137089006Y-44327309D01*
X137089007Y-44327308D01*
X137244602Y-44262858D01*
X137244605Y-44262857D01*
X137244606Y-44262857D01*
X137409790Y-44230000D01*
X137578210Y-44230000D01*
X137743394Y-44262857D01*
X137743394Y-44262857D01*
G37*
G36*
X152936394Y-44262857D02*
X152936395Y-44262857D01*
X152936398Y-44262858D01*
X153091993Y-44327308D01*
X153091994Y-44327309D01*
X153232031Y-44420878D01*
X153351122Y-44539969D01*
X153390565Y-44599000D01*
X153444692Y-44680007D01*
X153509142Y-44835602D01*
X153509143Y-44835605D01*
X153509143Y-44835606D01*
X153542000Y-45000790D01*
X153542000Y-45169210D01*
X153526123Y-45249031D01*
X153509142Y-45334398D01*
X153444692Y-45489993D01*
X153444691Y-45489994D01*
X153351122Y-45630031D01*
X153232031Y-45749122D01*
X153185604Y-45780143D01*
X153091993Y-45842692D01*
X152936398Y-45907142D01*
X152936395Y-45907143D01*
X152936394Y-45907143D01*
X152771210Y-45940000D01*
X152602790Y-45940000D01*
X152437606Y-45907143D01*
X152437605Y-45907143D01*
X152437602Y-45907142D01*
X152282007Y-45842692D01*
X152188396Y-45780143D01*
X152141969Y-45749122D01*
X152022878Y-45630031D01*
X151929309Y-45489994D01*
X151929308Y-45489993D01*
X151864858Y-45334398D01*
X151847878Y-45249031D01*
X151832000Y-45169210D01*
X151832000Y-45000790D01*
X151864857Y-44835606D01*
X151864857Y-44835605D01*
X151864858Y-44835602D01*
X151929308Y-44680007D01*
X151983435Y-44599000D01*
X152022878Y-44539969D01*
X152141969Y-44420878D01*
X152282006Y-44327309D01*
X152282007Y-44327308D01*
X152437602Y-44262858D01*
X152437605Y-44262857D01*
X152437606Y-44262857D01*
X152602790Y-44230000D01*
X152771210Y-44230000D01*
X152936394Y-44262857D01*
X152936394Y-44262857D01*
G37*
G36*
X76863394Y-44135857D02*
X76863395Y-44135857D01*
X76863398Y-44135858D01*
X77018993Y-44200308D01*
X77053884Y-44223621D01*
X77159031Y-44293878D01*
X77278122Y-44412969D01*
X77328278Y-44488034D01*
X77371692Y-44553007D01*
X77436142Y-44708602D01*
X77469000Y-44873791D01*
X77469000Y-45042209D01*
X77436142Y-45207398D01*
X77371692Y-45362993D01*
X77368265Y-45368122D01*
X77278122Y-45503031D01*
X77159031Y-45622122D01*
X77053884Y-45692379D01*
X77018993Y-45715692D01*
X76863398Y-45780142D01*
X76863395Y-45780143D01*
X76863394Y-45780143D01*
X76698210Y-45813000D01*
X76529790Y-45813000D01*
X76364606Y-45780143D01*
X76364605Y-45780143D01*
X76364602Y-45780142D01*
X76209007Y-45715692D01*
X76174116Y-45692379D01*
X76068969Y-45622122D01*
X75949878Y-45503031D01*
X75859735Y-45368122D01*
X75856308Y-45362993D01*
X75791858Y-45207398D01*
X75759000Y-45042209D01*
X75759000Y-44873791D01*
X75791858Y-44708602D01*
X75856308Y-44553007D01*
X75899722Y-44488034D01*
X75949878Y-44412969D01*
X76068969Y-44293878D01*
X76174116Y-44223621D01*
X76209007Y-44200308D01*
X76364602Y-44135858D01*
X76364605Y-44135857D01*
X76364606Y-44135857D01*
X76529790Y-44103000D01*
X76698210Y-44103000D01*
X76863394Y-44135857D01*
X76863394Y-44135857D01*
G37*
G36*
X86863394Y-44135857D02*
X86863395Y-44135857D01*
X86863398Y-44135858D01*
X87018993Y-44200308D01*
X87053884Y-44223621D01*
X87159031Y-44293878D01*
X87278122Y-44412969D01*
X87328278Y-44488034D01*
X87371692Y-44553007D01*
X87436142Y-44708602D01*
X87469000Y-44873791D01*
X87469000Y-45042209D01*
X87436142Y-45207398D01*
X87371692Y-45362993D01*
X87368265Y-45368122D01*
X87278122Y-45503031D01*
X87159031Y-45622122D01*
X87053884Y-45692379D01*
X87018993Y-45715692D01*
X86863398Y-45780142D01*
X86863395Y-45780143D01*
X86863394Y-45780143D01*
X86698210Y-45813000D01*
X86529790Y-45813000D01*
X86364606Y-45780143D01*
X86364605Y-45780143D01*
X86364602Y-45780142D01*
X86209007Y-45715692D01*
X86174116Y-45692379D01*
X86068969Y-45622122D01*
X85949878Y-45503031D01*
X85859735Y-45368122D01*
X85856308Y-45362993D01*
X85791858Y-45207398D01*
X85759000Y-45042209D01*
X85759000Y-44873791D01*
X85791858Y-44708602D01*
X85856308Y-44553007D01*
X85899722Y-44488034D01*
X85949878Y-44412969D01*
X86068969Y-44293878D01*
X86174116Y-44223621D01*
X86209007Y-44200308D01*
X86364602Y-44135858D01*
X86364605Y-44135857D01*
X86364606Y-44135857D01*
X86529790Y-44103000D01*
X86698210Y-44103000D01*
X86863394Y-44135857D01*
X86863394Y-44135857D01*
G37*
G36*
X84363394Y-44135857D02*
X84363395Y-44135857D01*
X84363398Y-44135858D01*
X84518993Y-44200308D01*
X84553884Y-44223621D01*
X84659031Y-44293878D01*
X84778122Y-44412969D01*
X84828278Y-44488034D01*
X84871692Y-44553007D01*
X84936142Y-44708602D01*
X84969000Y-44873791D01*
X84969000Y-45042209D01*
X84936142Y-45207398D01*
X84871692Y-45362993D01*
X84868265Y-45368122D01*
X84778122Y-45503031D01*
X84659031Y-45622122D01*
X84553884Y-45692379D01*
X84518993Y-45715692D01*
X84363398Y-45780142D01*
X84363395Y-45780143D01*
X84363394Y-45780143D01*
X84198210Y-45813000D01*
X84029790Y-45813000D01*
X83864606Y-45780143D01*
X83864605Y-45780143D01*
X83864602Y-45780142D01*
X83709007Y-45715692D01*
X83674116Y-45692379D01*
X83568969Y-45622122D01*
X83449878Y-45503031D01*
X83359735Y-45368122D01*
X83356308Y-45362993D01*
X83291858Y-45207398D01*
X83259000Y-45042209D01*
X83259000Y-44873791D01*
X83291858Y-44708602D01*
X83356308Y-44553007D01*
X83399722Y-44488034D01*
X83449878Y-44412969D01*
X83568969Y-44293878D01*
X83674116Y-44223621D01*
X83709007Y-44200308D01*
X83864602Y-44135858D01*
X83864605Y-44135857D01*
X83864606Y-44135857D01*
X84029790Y-44103000D01*
X84198210Y-44103000D01*
X84363394Y-44135857D01*
X84363394Y-44135857D01*
G37*
G36*
X81863394Y-44135857D02*
X81863395Y-44135857D01*
X81863398Y-44135858D01*
X82018993Y-44200308D01*
X82053884Y-44223621D01*
X82159031Y-44293878D01*
X82278122Y-44412969D01*
X82328278Y-44488034D01*
X82371692Y-44553007D01*
X82436142Y-44708602D01*
X82469000Y-44873791D01*
X82469000Y-45042209D01*
X82436142Y-45207398D01*
X82371692Y-45362993D01*
X82368265Y-45368122D01*
X82278122Y-45503031D01*
X82159031Y-45622122D01*
X82053884Y-45692379D01*
X82018993Y-45715692D01*
X81863398Y-45780142D01*
X81863395Y-45780143D01*
X81863394Y-45780143D01*
X81698210Y-45813000D01*
X81529790Y-45813000D01*
X81364606Y-45780143D01*
X81364605Y-45780143D01*
X81364602Y-45780142D01*
X81209007Y-45715692D01*
X81174116Y-45692379D01*
X81068969Y-45622122D01*
X80949878Y-45503031D01*
X80859735Y-45368122D01*
X80856308Y-45362993D01*
X80791858Y-45207398D01*
X80759000Y-45042209D01*
X80759000Y-44873791D01*
X80791858Y-44708602D01*
X80856308Y-44553007D01*
X80899722Y-44488034D01*
X80949878Y-44412969D01*
X81068969Y-44293878D01*
X81174116Y-44223621D01*
X81209007Y-44200308D01*
X81364602Y-44135858D01*
X81364605Y-44135857D01*
X81364606Y-44135857D01*
X81529790Y-44103000D01*
X81698210Y-44103000D01*
X81863394Y-44135857D01*
X81863394Y-44135857D01*
G37*
G36*
X79363394Y-44135857D02*
X79363395Y-44135857D01*
X79363398Y-44135858D01*
X79518993Y-44200308D01*
X79553884Y-44223621D01*
X79659031Y-44293878D01*
X79778122Y-44412969D01*
X79828278Y-44488034D01*
X79871692Y-44553007D01*
X79936142Y-44708602D01*
X79969000Y-44873791D01*
X79969000Y-45042209D01*
X79936142Y-45207398D01*
X79871692Y-45362993D01*
X79868265Y-45368122D01*
X79778122Y-45503031D01*
X79659031Y-45622122D01*
X79553884Y-45692379D01*
X79518993Y-45715692D01*
X79363398Y-45780142D01*
X79363395Y-45780143D01*
X79363394Y-45780143D01*
X79198210Y-45813000D01*
X79029790Y-45813000D01*
X78864606Y-45780143D01*
X78864605Y-45780143D01*
X78864602Y-45780142D01*
X78709007Y-45715692D01*
X78674116Y-45692379D01*
X78568969Y-45622122D01*
X78449878Y-45503031D01*
X78359735Y-45368122D01*
X78356308Y-45362993D01*
X78291858Y-45207398D01*
X78259000Y-45042209D01*
X78259000Y-44873791D01*
X78291858Y-44708602D01*
X78356308Y-44553007D01*
X78399722Y-44488034D01*
X78449878Y-44412969D01*
X78568969Y-44293878D01*
X78674116Y-44223621D01*
X78709007Y-44200308D01*
X78864602Y-44135858D01*
X78864605Y-44135857D01*
X78864606Y-44135857D01*
X79029790Y-44103000D01*
X79198210Y-44103000D01*
X79363394Y-44135857D01*
X79363394Y-44135857D01*
G37*
G36*
X74363394Y-44135857D02*
X74363395Y-44135857D01*
X74363398Y-44135858D01*
X74518993Y-44200308D01*
X74553884Y-44223621D01*
X74659031Y-44293878D01*
X74778122Y-44412969D01*
X74828278Y-44488034D01*
X74871692Y-44553007D01*
X74936142Y-44708602D01*
X74969000Y-44873791D01*
X74969000Y-45042209D01*
X74936142Y-45207398D01*
X74871692Y-45362993D01*
X74868265Y-45368122D01*
X74778122Y-45503031D01*
X74659031Y-45622122D01*
X74553884Y-45692379D01*
X74518993Y-45715692D01*
X74363398Y-45780142D01*
X74363395Y-45780143D01*
X74363394Y-45780143D01*
X74198210Y-45813000D01*
X74029790Y-45813000D01*
X73864606Y-45780143D01*
X73864605Y-45780143D01*
X73864602Y-45780142D01*
X73709007Y-45715692D01*
X73674116Y-45692379D01*
X73568969Y-45622122D01*
X73449878Y-45503031D01*
X73359735Y-45368122D01*
X73356308Y-45362993D01*
X73291858Y-45207398D01*
X73259000Y-45042209D01*
X73259000Y-44873791D01*
X73291858Y-44708602D01*
X73356308Y-44553007D01*
X73399722Y-44488034D01*
X73449878Y-44412969D01*
X73568969Y-44293878D01*
X73674116Y-44223621D01*
X73709007Y-44200308D01*
X73864602Y-44135858D01*
X73864605Y-44135857D01*
X73864606Y-44135857D01*
X74029790Y-44103000D01*
X74198210Y-44103000D01*
X74363394Y-44135857D01*
X74363394Y-44135857D01*
G37*
G36*
X71863394Y-44135857D02*
X71863395Y-44135857D01*
X71863398Y-44135858D01*
X72018993Y-44200308D01*
X72053884Y-44223621D01*
X72159031Y-44293878D01*
X72278122Y-44412969D01*
X72328278Y-44488034D01*
X72371692Y-44553007D01*
X72436142Y-44708602D01*
X72469000Y-44873791D01*
X72469000Y-45042209D01*
X72436142Y-45207398D01*
X72371692Y-45362993D01*
X72368265Y-45368122D01*
X72278122Y-45503031D01*
X72159031Y-45622122D01*
X72053884Y-45692379D01*
X72018993Y-45715692D01*
X71863398Y-45780142D01*
X71863395Y-45780143D01*
X71863394Y-45780143D01*
X71698210Y-45813000D01*
X71529790Y-45813000D01*
X71364606Y-45780143D01*
X71364605Y-45780143D01*
X71364602Y-45780142D01*
X71209007Y-45715692D01*
X71174116Y-45692379D01*
X71068969Y-45622122D01*
X70949878Y-45503031D01*
X70859735Y-45368122D01*
X70856308Y-45362993D01*
X70791858Y-45207398D01*
X70759000Y-45042209D01*
X70759000Y-44873791D01*
X70791858Y-44708602D01*
X70856308Y-44553007D01*
X70899722Y-44488034D01*
X70949878Y-44412969D01*
X71068969Y-44293878D01*
X71174116Y-44223621D01*
X71209007Y-44200308D01*
X71364602Y-44135858D01*
X71364605Y-44135857D01*
X71364606Y-44135857D01*
X71529790Y-44103000D01*
X71698210Y-44103000D01*
X71863394Y-44135857D01*
X71863394Y-44135857D01*
G37*
G36*
X117089394Y-43881857D02*
X117089395Y-43881857D01*
X117089398Y-43881858D01*
X117244993Y-43946308D01*
X117244994Y-43946309D01*
X117385031Y-44039878D01*
X117504122Y-44158969D01*
X117535860Y-44206469D01*
X117597692Y-44299007D01*
X117662142Y-44454602D01*
X117662143Y-44454605D01*
X117662143Y-44454606D01*
X117695000Y-44619790D01*
X117695000Y-44788209D01*
X117662142Y-44953398D01*
X117597692Y-45108993D01*
X117597691Y-45108994D01*
X117504122Y-45249031D01*
X117385031Y-45368122D01*
X117294822Y-45428397D01*
X117244993Y-45461692D01*
X117089398Y-45526142D01*
X117089395Y-45526143D01*
X117089394Y-45526143D01*
X116924210Y-45559000D01*
X116755790Y-45559000D01*
X116590606Y-45526143D01*
X116590605Y-45526143D01*
X116590602Y-45526142D01*
X116435007Y-45461692D01*
X116385178Y-45428397D01*
X116294969Y-45368122D01*
X116175878Y-45249031D01*
X116082309Y-45108994D01*
X116082308Y-45108993D01*
X116017858Y-44953398D01*
X115985000Y-44788209D01*
X115985000Y-44619790D01*
X116017857Y-44454606D01*
X116017857Y-44454605D01*
X116017858Y-44454602D01*
X116082308Y-44299007D01*
X116144140Y-44206469D01*
X116175878Y-44158969D01*
X116294969Y-44039878D01*
X116435006Y-43946309D01*
X116435007Y-43946308D01*
X116590602Y-43881858D01*
X116590605Y-43881857D01*
X116590606Y-43881857D01*
X116755790Y-43849000D01*
X116924210Y-43849000D01*
X117089394Y-43881857D01*
X117089394Y-43881857D01*
G37*
G36*
X119589394Y-43881857D02*
X119589395Y-43881857D01*
X119589398Y-43881858D01*
X119744993Y-43946308D01*
X119744994Y-43946309D01*
X119885031Y-44039878D01*
X120004122Y-44158969D01*
X120035860Y-44206469D01*
X120097692Y-44299007D01*
X120162142Y-44454602D01*
X120162143Y-44454605D01*
X120162143Y-44454606D01*
X120195000Y-44619790D01*
X120195000Y-44788209D01*
X120162142Y-44953398D01*
X120097692Y-45108993D01*
X120097691Y-45108994D01*
X120004122Y-45249031D01*
X119885031Y-45368122D01*
X119794822Y-45428397D01*
X119744993Y-45461692D01*
X119589398Y-45526142D01*
X119589395Y-45526143D01*
X119589394Y-45526143D01*
X119424210Y-45559000D01*
X119255790Y-45559000D01*
X119090606Y-45526143D01*
X119090605Y-45526143D01*
X119090602Y-45526142D01*
X118935007Y-45461692D01*
X118885178Y-45428397D01*
X118794969Y-45368122D01*
X118675878Y-45249031D01*
X118582309Y-45108994D01*
X118582308Y-45108993D01*
X118517858Y-44953398D01*
X118485000Y-44788209D01*
X118485000Y-44619790D01*
X118517857Y-44454606D01*
X118517857Y-44454605D01*
X118517858Y-44454602D01*
X118582308Y-44299007D01*
X118644140Y-44206469D01*
X118675878Y-44158969D01*
X118794969Y-44039878D01*
X118935006Y-43946309D01*
X118935007Y-43946308D01*
X119090602Y-43881858D01*
X119090605Y-43881857D01*
X119090606Y-43881857D01*
X119255790Y-43849000D01*
X119424210Y-43849000D01*
X119589394Y-43881857D01*
X119589394Y-43881857D01*
G37*
G36*
X98988397Y-42686468D02*
X98988399Y-42686469D01*
X98988400Y-42686469D01*
X99165834Y-42759965D01*
X99165836Y-42759966D01*
X99318206Y-42861776D01*
X99325527Y-42866668D01*
X99461332Y-43002473D01*
X99568035Y-43162166D01*
X99610500Y-43264684D01*
X99641532Y-43339603D01*
X99679000Y-43527971D01*
X99679000Y-43720029D01*
X99641532Y-43908397D01*
X99568034Y-44085836D01*
X99461332Y-44245527D01*
X99325527Y-44381332D01*
X99165836Y-44488034D01*
X99165835Y-44488035D01*
X99165834Y-44488035D01*
X98988400Y-44561531D01*
X98988399Y-44561531D01*
X98988397Y-44561532D01*
X98800029Y-44599000D01*
X98607971Y-44599000D01*
X98419603Y-44561532D01*
X98419601Y-44561531D01*
X98419600Y-44561531D01*
X98242166Y-44488035D01*
X98242165Y-44488035D01*
X98242164Y-44488034D01*
X98082473Y-44381332D01*
X97946668Y-44245527D01*
X97839966Y-44085836D01*
X97766468Y-43908397D01*
X97729000Y-43720029D01*
X97729000Y-43527971D01*
X97766468Y-43339603D01*
X97797501Y-43264684D01*
X97839965Y-43162166D01*
X97946668Y-43002473D01*
X98082473Y-42866668D01*
X98089794Y-42861776D01*
X98242164Y-42759966D01*
X98242166Y-42759965D01*
X98419600Y-42686469D01*
X98419601Y-42686469D01*
X98419603Y-42686468D01*
X98607971Y-42649000D01*
X98800029Y-42649000D01*
X98988397Y-42686468D01*
X98988397Y-42686468D01*
G37*
G36*
X109098397Y-42686468D02*
X109098399Y-42686469D01*
X109098400Y-42686469D01*
X109275834Y-42759965D01*
X109275836Y-42759966D01*
X109428206Y-42861776D01*
X109435527Y-42866668D01*
X109571332Y-43002473D01*
X109678035Y-43162166D01*
X109720500Y-43264684D01*
X109751532Y-43339603D01*
X109789000Y-43527971D01*
X109789000Y-43720029D01*
X109751532Y-43908397D01*
X109678034Y-44085836D01*
X109571332Y-44245527D01*
X109435527Y-44381332D01*
X109275836Y-44488034D01*
X109275835Y-44488035D01*
X109275834Y-44488035D01*
X109098400Y-44561531D01*
X109098399Y-44561531D01*
X109098397Y-44561532D01*
X108910029Y-44599000D01*
X108717971Y-44599000D01*
X108529603Y-44561532D01*
X108529601Y-44561531D01*
X108529600Y-44561531D01*
X108352166Y-44488035D01*
X108352165Y-44488035D01*
X108352164Y-44488034D01*
X108192473Y-44381332D01*
X108056668Y-44245527D01*
X107949966Y-44085836D01*
X107876468Y-43908397D01*
X107839000Y-43720029D01*
X107839000Y-43527971D01*
X107876468Y-43339603D01*
X107907501Y-43264684D01*
X107949965Y-43162166D01*
X108056668Y-43002473D01*
X108192473Y-42866668D01*
X108199794Y-42861776D01*
X108352164Y-42759966D01*
X108352166Y-42759965D01*
X108529600Y-42686469D01*
X108529601Y-42686469D01*
X108529603Y-42686468D01*
X108717971Y-42649000D01*
X108910029Y-42649000D01*
X109098397Y-42686468D01*
X109098397Y-42686468D01*
G37*
M02*
