G04 #@! TF.GenerationSoftware,KiCad,Pcbnew,5.0.2-bee76a0~70~ubuntu18.04.1*
G04 #@! TF.CreationDate,2019-05-01T02:24:17+02:00*
G04 #@! TF.ProjectId,mainPCB,6d61696e-5043-4422-9e6b-696361645f70,rev?*
G04 #@! TF.SameCoordinates,Original*
G04 #@! TF.FileFunction,Soldermask,Bot*
G04 #@! TF.FilePolarity,Negative*
%FSLAX46Y46*%
G04 Gerber Fmt 4.6, Leading zero omitted, Abs format (unit mm)*
G04 Created by KiCad (PCBNEW 5.0.2-bee76a0~70~ubuntu18.04.1) date Mi 01 Mai 2019 02:24:17 CEST*
%MOMM*%
%LPD*%
G01*
G04 APERTURE LIST*
%ADD10C,0.150000*%
%ADD11C,0.100000*%
G04 APERTURE END LIST*
D10*
X17462500Y-37465000D02*
X17462500Y-110617000D01*
X177482500Y-37465000D02*
X17462500Y-37465000D01*
X177482500Y-110617000D02*
X177482500Y-37465000D01*
X17462500Y-110617000D02*
X177482500Y-110617000D01*
D11*
G36*
X148527972Y-104187416D02*
X148685912Y-104218832D01*
X148983463Y-104342082D01*
X149251252Y-104521013D01*
X149478987Y-104748748D01*
X149657918Y-105016537D01*
X149781168Y-105314088D01*
X149781168Y-105314090D01*
X149825974Y-105539341D01*
X149844000Y-105629967D01*
X149844000Y-105952033D01*
X149781168Y-106267912D01*
X149657918Y-106565463D01*
X149478987Y-106833252D01*
X149251252Y-107060987D01*
X148983463Y-107239918D01*
X148685912Y-107363168D01*
X148527972Y-107394584D01*
X148370035Y-107426000D01*
X148047965Y-107426000D01*
X147890028Y-107394584D01*
X147732088Y-107363168D01*
X147434537Y-107239918D01*
X147166748Y-107060987D01*
X146939013Y-106833252D01*
X146760082Y-106565463D01*
X146636832Y-106267912D01*
X146574000Y-105952033D01*
X146574000Y-105629967D01*
X146592027Y-105539341D01*
X146636832Y-105314090D01*
X146636832Y-105314088D01*
X146760082Y-105016537D01*
X146939013Y-104748748D01*
X147166748Y-104521013D01*
X147434537Y-104342082D01*
X147732088Y-104218832D01*
X147890028Y-104187416D01*
X148047965Y-104156000D01*
X148370035Y-104156000D01*
X148527972Y-104187416D01*
X148527972Y-104187416D01*
G37*
G36*
X170753839Y-102800968D02*
X171151488Y-102965678D01*
X171509358Y-103204800D01*
X171813700Y-103509142D01*
X172052822Y-103867012D01*
X172217532Y-104264661D01*
X172301500Y-104686795D01*
X172301500Y-105117205D01*
X172217532Y-105539339D01*
X172052822Y-105936988D01*
X171813700Y-106294858D01*
X171509358Y-106599200D01*
X171151488Y-106838322D01*
X170753839Y-107003032D01*
X170331705Y-107087000D01*
X169901295Y-107087000D01*
X169479161Y-107003032D01*
X169081512Y-106838322D01*
X168723642Y-106599200D01*
X168419300Y-106294858D01*
X168180178Y-105936988D01*
X168015468Y-105539339D01*
X167931500Y-105117205D01*
X167931500Y-104686795D01*
X168015468Y-104264661D01*
X168180178Y-103867012D01*
X168419300Y-103509142D01*
X168723642Y-103204800D01*
X169081512Y-102965678D01*
X169479161Y-102800968D01*
X169901295Y-102717000D01*
X170331705Y-102717000D01*
X170753839Y-102800968D01*
X170753839Y-102800968D01*
G37*
G36*
X28958339Y-102800968D02*
X29355988Y-102965678D01*
X29713858Y-103204800D01*
X30018200Y-103509142D01*
X30257322Y-103867012D01*
X30422032Y-104264661D01*
X30506000Y-104686795D01*
X30506000Y-105117205D01*
X30422032Y-105539339D01*
X30257322Y-105936988D01*
X30018200Y-106294858D01*
X29713858Y-106599200D01*
X29355988Y-106838322D01*
X28958339Y-107003032D01*
X28536205Y-107087000D01*
X28105795Y-107087000D01*
X27683661Y-107003032D01*
X27286012Y-106838322D01*
X26928142Y-106599200D01*
X26623800Y-106294858D01*
X26384678Y-105936988D01*
X26219968Y-105539339D01*
X26136000Y-105117205D01*
X26136000Y-104686795D01*
X26219968Y-104264661D01*
X26384678Y-103867012D01*
X26623800Y-103509142D01*
X26928142Y-103204800D01*
X27286012Y-102965678D01*
X27683661Y-102800968D01*
X28105795Y-102717000D01*
X28536205Y-102717000D01*
X28958339Y-102800968D01*
X28958339Y-102800968D01*
G37*
G36*
X164334000Y-104136000D02*
X162564000Y-104136000D01*
X162564000Y-102366000D01*
X164334000Y-102366000D01*
X164334000Y-104136000D01*
X164334000Y-104136000D01*
G37*
G36*
X163622490Y-99838805D02*
X163682687Y-99857066D01*
X163789312Y-99889410D01*
X163860880Y-99927664D01*
X163943059Y-99971589D01*
X164077817Y-100082183D01*
X164188411Y-100216941D01*
X164232336Y-100299120D01*
X164270590Y-100370688D01*
X164289920Y-100434411D01*
X164321195Y-100537510D01*
X164338282Y-100711000D01*
X164321195Y-100884490D01*
X164321194Y-100884492D01*
X164270590Y-101051312D01*
X164270589Y-101051313D01*
X164188411Y-101205059D01*
X164077817Y-101339817D01*
X163943059Y-101450411D01*
X163860880Y-101494336D01*
X163789312Y-101532590D01*
X163682687Y-101564934D01*
X163622490Y-101583195D01*
X163492477Y-101596000D01*
X163405523Y-101596000D01*
X163275510Y-101583195D01*
X163215313Y-101564934D01*
X163108688Y-101532590D01*
X163037120Y-101494336D01*
X162954941Y-101450411D01*
X162820183Y-101339817D01*
X162709589Y-101205059D01*
X162627411Y-101051313D01*
X162627410Y-101051312D01*
X162576806Y-100884492D01*
X162576805Y-100884490D01*
X162559718Y-100711000D01*
X162576805Y-100537510D01*
X162608080Y-100434411D01*
X162627410Y-100370688D01*
X162665664Y-100299120D01*
X162709589Y-100216941D01*
X162820183Y-100082183D01*
X162954941Y-99971589D01*
X163037120Y-99927664D01*
X163108688Y-99889410D01*
X163215313Y-99857066D01*
X163275510Y-99838805D01*
X163405523Y-99826000D01*
X163492477Y-99826000D01*
X163622490Y-99838805D01*
X163622490Y-99838805D01*
G37*
G36*
X139809990Y-98822805D02*
X139870187Y-98841066D01*
X139976812Y-98873410D01*
X140046036Y-98910411D01*
X140130559Y-98955589D01*
X140265317Y-99066183D01*
X140375911Y-99200941D01*
X140419836Y-99283120D01*
X140458090Y-99354688D01*
X140490434Y-99461313D01*
X140508695Y-99521510D01*
X140525782Y-99695000D01*
X140508695Y-99868490D01*
X140490434Y-99928688D01*
X140458090Y-100035312D01*
X140458089Y-100035313D01*
X140375911Y-100189059D01*
X140265317Y-100323817D01*
X140130559Y-100434411D01*
X140048380Y-100478336D01*
X139976812Y-100516590D01*
X139870187Y-100548934D01*
X139809990Y-100567195D01*
X139679977Y-100580000D01*
X139593023Y-100580000D01*
X139463010Y-100567195D01*
X139402813Y-100548934D01*
X139296188Y-100516590D01*
X139224620Y-100478336D01*
X139142441Y-100434411D01*
X139007683Y-100323817D01*
X138897089Y-100189059D01*
X138814911Y-100035313D01*
X138814910Y-100035312D01*
X138782566Y-99928687D01*
X138764305Y-99868490D01*
X138747218Y-99695000D01*
X138764305Y-99521510D01*
X138782566Y-99461313D01*
X138814910Y-99354688D01*
X138853164Y-99283120D01*
X138897089Y-99200941D01*
X139007683Y-99066183D01*
X139142441Y-98955589D01*
X139226964Y-98910411D01*
X139296188Y-98873410D01*
X139402813Y-98841066D01*
X139463010Y-98822805D01*
X139593023Y-98810000D01*
X139679977Y-98810000D01*
X139809990Y-98822805D01*
X139809990Y-98822805D01*
G37*
G36*
X143061500Y-100580000D02*
X141291500Y-100580000D01*
X141291500Y-98810000D01*
X143061500Y-98810000D01*
X143061500Y-100580000D01*
X143061500Y-100580000D01*
G37*
G36*
X137269990Y-98822805D02*
X137330187Y-98841066D01*
X137436812Y-98873410D01*
X137506036Y-98910411D01*
X137590559Y-98955589D01*
X137725317Y-99066183D01*
X137835911Y-99200941D01*
X137879836Y-99283120D01*
X137918090Y-99354688D01*
X137950434Y-99461313D01*
X137968695Y-99521510D01*
X137985782Y-99695000D01*
X137968695Y-99868490D01*
X137950434Y-99928688D01*
X137918090Y-100035312D01*
X137918089Y-100035313D01*
X137835911Y-100189059D01*
X137725317Y-100323817D01*
X137590559Y-100434411D01*
X137508380Y-100478336D01*
X137436812Y-100516590D01*
X137330187Y-100548934D01*
X137269990Y-100567195D01*
X137139977Y-100580000D01*
X137053023Y-100580000D01*
X136923010Y-100567195D01*
X136862813Y-100548934D01*
X136756188Y-100516590D01*
X136684620Y-100478336D01*
X136602441Y-100434411D01*
X136467683Y-100323817D01*
X136357089Y-100189059D01*
X136274911Y-100035313D01*
X136274910Y-100035312D01*
X136242566Y-99928687D01*
X136224305Y-99868490D01*
X136207218Y-99695000D01*
X136224305Y-99521510D01*
X136242566Y-99461313D01*
X136274910Y-99354688D01*
X136313164Y-99283120D01*
X136357089Y-99200941D01*
X136467683Y-99066183D01*
X136602441Y-98955589D01*
X136686964Y-98910411D01*
X136756188Y-98873410D01*
X136862813Y-98841066D01*
X136923010Y-98822805D01*
X137053023Y-98810000D01*
X137139977Y-98810000D01*
X137269990Y-98822805D01*
X137269990Y-98822805D01*
G37*
G36*
X134729990Y-98822805D02*
X134790187Y-98841066D01*
X134896812Y-98873410D01*
X134966036Y-98910411D01*
X135050559Y-98955589D01*
X135185317Y-99066183D01*
X135295911Y-99200941D01*
X135339836Y-99283120D01*
X135378090Y-99354688D01*
X135410434Y-99461313D01*
X135428695Y-99521510D01*
X135445782Y-99695000D01*
X135428695Y-99868490D01*
X135410434Y-99928688D01*
X135378090Y-100035312D01*
X135378089Y-100035313D01*
X135295911Y-100189059D01*
X135185317Y-100323817D01*
X135050559Y-100434411D01*
X134968380Y-100478336D01*
X134896812Y-100516590D01*
X134790187Y-100548934D01*
X134729990Y-100567195D01*
X134599977Y-100580000D01*
X134513023Y-100580000D01*
X134383010Y-100567195D01*
X134322813Y-100548934D01*
X134216188Y-100516590D01*
X134144620Y-100478336D01*
X134062441Y-100434411D01*
X133927683Y-100323817D01*
X133817089Y-100189059D01*
X133734911Y-100035313D01*
X133734910Y-100035312D01*
X133702566Y-99928687D01*
X133684305Y-99868490D01*
X133667218Y-99695000D01*
X133684305Y-99521510D01*
X133702566Y-99461313D01*
X133734910Y-99354688D01*
X133773164Y-99283120D01*
X133817089Y-99200941D01*
X133927683Y-99066183D01*
X134062441Y-98955589D01*
X134146964Y-98910411D01*
X134216188Y-98873410D01*
X134322813Y-98841066D01*
X134383010Y-98822805D01*
X134513023Y-98810000D01*
X134599977Y-98810000D01*
X134729990Y-98822805D01*
X134729990Y-98822805D01*
G37*
G36*
X163622490Y-97298805D02*
X163682687Y-97317066D01*
X163789312Y-97349410D01*
X163860880Y-97387664D01*
X163943059Y-97431589D01*
X164077817Y-97542183D01*
X164188411Y-97676941D01*
X164232336Y-97759120D01*
X164270590Y-97830688D01*
X164302934Y-97937312D01*
X164321195Y-97997510D01*
X164338282Y-98171000D01*
X164321195Y-98344490D01*
X164321194Y-98344492D01*
X164270590Y-98511312D01*
X164270589Y-98511313D01*
X164188411Y-98665059D01*
X164077817Y-98799817D01*
X163943059Y-98910411D01*
X163860880Y-98954336D01*
X163789312Y-98992590D01*
X163682687Y-99024934D01*
X163622490Y-99043195D01*
X163492477Y-99056000D01*
X163405523Y-99056000D01*
X163275510Y-99043195D01*
X163215313Y-99024934D01*
X163108688Y-98992590D01*
X163037120Y-98954336D01*
X162954941Y-98910411D01*
X162820183Y-98799817D01*
X162709589Y-98665059D01*
X162627411Y-98511313D01*
X162627410Y-98511312D01*
X162576806Y-98344492D01*
X162576805Y-98344490D01*
X162559718Y-98171000D01*
X162576805Y-97997510D01*
X162595066Y-97937312D01*
X162627410Y-97830688D01*
X162665664Y-97759120D01*
X162709589Y-97676941D01*
X162820183Y-97542183D01*
X162954941Y-97431589D01*
X163037120Y-97387664D01*
X163108688Y-97349410D01*
X163215313Y-97317066D01*
X163275510Y-97298805D01*
X163405523Y-97286000D01*
X163492477Y-97286000D01*
X163622490Y-97298805D01*
X163622490Y-97298805D01*
G37*
G36*
X163622490Y-94758805D02*
X163682687Y-94777066D01*
X163789312Y-94809410D01*
X163860880Y-94847664D01*
X163943059Y-94891589D01*
X164077817Y-95002183D01*
X164188411Y-95136941D01*
X164232336Y-95219120D01*
X164270590Y-95290688D01*
X164302934Y-95397313D01*
X164321195Y-95457510D01*
X164338282Y-95631000D01*
X164321195Y-95804490D01*
X164321194Y-95804492D01*
X164270590Y-95971312D01*
X164270589Y-95971313D01*
X164188411Y-96125059D01*
X164077817Y-96259817D01*
X163943059Y-96370411D01*
X163860880Y-96414336D01*
X163789312Y-96452590D01*
X163682687Y-96484934D01*
X163622490Y-96503195D01*
X163492477Y-96516000D01*
X163405523Y-96516000D01*
X163275510Y-96503195D01*
X163215313Y-96484934D01*
X163108688Y-96452590D01*
X163037120Y-96414336D01*
X162954941Y-96370411D01*
X162820183Y-96259817D01*
X162709589Y-96125059D01*
X162627411Y-95971313D01*
X162627410Y-95971312D01*
X162576806Y-95804492D01*
X162576805Y-95804490D01*
X162559718Y-95631000D01*
X162576805Y-95457510D01*
X162595066Y-95397313D01*
X162627410Y-95290688D01*
X162665664Y-95219120D01*
X162709589Y-95136941D01*
X162820183Y-95002183D01*
X162954941Y-94891589D01*
X163037120Y-94847664D01*
X163108688Y-94809410D01*
X163215313Y-94777066D01*
X163275510Y-94758805D01*
X163405523Y-94746000D01*
X163492477Y-94746000D01*
X163622490Y-94758805D01*
X163622490Y-94758805D01*
G37*
G36*
X163622490Y-92218805D02*
X163682687Y-92237066D01*
X163789312Y-92269410D01*
X163860880Y-92307664D01*
X163943059Y-92351589D01*
X164077817Y-92462183D01*
X164188411Y-92596941D01*
X164232336Y-92679120D01*
X164270590Y-92750688D01*
X164302934Y-92857313D01*
X164321195Y-92917510D01*
X164338282Y-93091000D01*
X164321195Y-93264490D01*
X164321194Y-93264492D01*
X164270590Y-93431312D01*
X164270589Y-93431313D01*
X164188411Y-93585059D01*
X164077817Y-93719817D01*
X163943059Y-93830411D01*
X163860880Y-93874336D01*
X163789312Y-93912590D01*
X163682687Y-93944934D01*
X163622490Y-93963195D01*
X163492477Y-93976000D01*
X163405523Y-93976000D01*
X163275510Y-93963195D01*
X163215313Y-93944934D01*
X163108688Y-93912590D01*
X163037120Y-93874336D01*
X162954941Y-93830411D01*
X162820183Y-93719817D01*
X162709589Y-93585059D01*
X162627411Y-93431313D01*
X162627410Y-93431312D01*
X162576806Y-93264492D01*
X162576805Y-93264490D01*
X162559718Y-93091000D01*
X162576805Y-92917510D01*
X162595066Y-92857313D01*
X162627410Y-92750688D01*
X162665664Y-92679120D01*
X162709589Y-92596941D01*
X162820183Y-92462183D01*
X162954941Y-92351589D01*
X163037120Y-92307664D01*
X163108688Y-92269410D01*
X163215313Y-92237066D01*
X163275510Y-92218805D01*
X163405523Y-92206000D01*
X163492477Y-92206000D01*
X163622490Y-92218805D01*
X163622490Y-92218805D01*
G37*
G36*
X163622490Y-89678805D02*
X163682687Y-89697066D01*
X163789312Y-89729410D01*
X163860880Y-89767664D01*
X163943059Y-89811589D01*
X164077817Y-89922183D01*
X164188411Y-90056941D01*
X164232336Y-90139120D01*
X164270590Y-90210688D01*
X164302934Y-90317313D01*
X164321195Y-90377510D01*
X164338282Y-90551000D01*
X164321195Y-90724490D01*
X164321194Y-90724492D01*
X164270590Y-90891312D01*
X164270589Y-90891313D01*
X164188411Y-91045059D01*
X164077817Y-91179817D01*
X163943059Y-91290411D01*
X163860880Y-91334336D01*
X163789312Y-91372590D01*
X163682687Y-91404934D01*
X163622490Y-91423195D01*
X163492477Y-91436000D01*
X163405523Y-91436000D01*
X163275510Y-91423195D01*
X163215313Y-91404934D01*
X163108688Y-91372590D01*
X163037120Y-91334336D01*
X162954941Y-91290411D01*
X162820183Y-91179817D01*
X162709589Y-91045059D01*
X162627411Y-90891313D01*
X162627410Y-90891312D01*
X162576806Y-90724492D01*
X162576805Y-90724490D01*
X162559718Y-90551000D01*
X162576805Y-90377510D01*
X162595066Y-90317313D01*
X162627410Y-90210688D01*
X162665664Y-90139120D01*
X162709589Y-90056941D01*
X162820183Y-89922183D01*
X162954941Y-89811589D01*
X163037120Y-89767664D01*
X163108688Y-89729410D01*
X163215313Y-89697066D01*
X163275510Y-89678805D01*
X163405523Y-89666000D01*
X163492477Y-89666000D01*
X163622490Y-89678805D01*
X163622490Y-89678805D01*
G37*
G36*
X163622490Y-87138805D02*
X163671242Y-87153594D01*
X163789312Y-87189410D01*
X163860880Y-87227664D01*
X163943059Y-87271589D01*
X164077817Y-87382183D01*
X164188411Y-87516941D01*
X164221334Y-87578537D01*
X164270590Y-87670688D01*
X164302934Y-87777313D01*
X164321195Y-87837510D01*
X164338282Y-88011000D01*
X164321195Y-88184490D01*
X164321194Y-88184492D01*
X164270590Y-88351312D01*
X164270589Y-88351313D01*
X164188411Y-88505059D01*
X164077817Y-88639817D01*
X163943059Y-88750411D01*
X163860880Y-88794336D01*
X163789312Y-88832590D01*
X163682687Y-88864934D01*
X163622490Y-88883195D01*
X163492477Y-88896000D01*
X163405523Y-88896000D01*
X163275510Y-88883195D01*
X163215313Y-88864934D01*
X163108688Y-88832590D01*
X163037120Y-88794336D01*
X162954941Y-88750411D01*
X162820183Y-88639817D01*
X162709589Y-88505059D01*
X162627411Y-88351313D01*
X162627410Y-88351312D01*
X162576806Y-88184492D01*
X162576805Y-88184490D01*
X162559718Y-88011000D01*
X162576805Y-87837510D01*
X162595066Y-87777313D01*
X162627410Y-87670688D01*
X162676666Y-87578537D01*
X162709589Y-87516941D01*
X162820183Y-87382183D01*
X162954941Y-87271589D01*
X163037120Y-87227664D01*
X163108688Y-87189410D01*
X163226758Y-87153594D01*
X163275510Y-87138805D01*
X163405523Y-87126000D01*
X163492477Y-87126000D01*
X163622490Y-87138805D01*
X163622490Y-87138805D01*
G37*
G36*
X170343035Y-84182366D02*
X170568594Y-84227233D01*
X170993537Y-84403250D01*
X170993539Y-84403251D01*
X171186055Y-84531886D01*
X171375976Y-84658787D01*
X171701213Y-84984024D01*
X171956750Y-85366463D01*
X172132767Y-85791406D01*
X172222500Y-86242523D01*
X172222500Y-86702477D01*
X172132767Y-87153594D01*
X172117931Y-87189411D01*
X171956749Y-87578539D01*
X171701212Y-87960977D01*
X171375977Y-88286212D01*
X170993539Y-88541749D01*
X170993538Y-88541750D01*
X170993537Y-88541750D01*
X170568594Y-88717767D01*
X170404482Y-88750411D01*
X170117478Y-88807500D01*
X169657522Y-88807500D01*
X169370518Y-88750411D01*
X169206406Y-88717767D01*
X168781463Y-88541750D01*
X168781462Y-88541750D01*
X168781461Y-88541749D01*
X168399023Y-88286212D01*
X168073788Y-87960977D01*
X167818251Y-87578539D01*
X167657069Y-87189411D01*
X167642233Y-87153594D01*
X167552500Y-86702477D01*
X167552500Y-86242523D01*
X167642233Y-85791406D01*
X167818250Y-85366463D01*
X168073787Y-84984024D01*
X168399024Y-84658787D01*
X168588945Y-84531886D01*
X168781461Y-84403251D01*
X168781463Y-84403250D01*
X169206406Y-84227233D01*
X169431965Y-84182366D01*
X169657522Y-84137500D01*
X170117478Y-84137500D01*
X170343035Y-84182366D01*
X170343035Y-84182366D01*
G37*
G36*
X116074000Y-86356000D02*
X114304000Y-86356000D01*
X114304000Y-84586000D01*
X116074000Y-84586000D01*
X116074000Y-86356000D01*
X116074000Y-86356000D01*
G37*
G36*
X163622490Y-84598805D02*
X163682687Y-84617066D01*
X163789312Y-84649410D01*
X163860880Y-84687664D01*
X163943059Y-84731589D01*
X164077817Y-84842183D01*
X164188411Y-84976941D01*
X164232336Y-85059120D01*
X164270590Y-85130688D01*
X164302934Y-85237313D01*
X164321195Y-85297510D01*
X164338282Y-85471000D01*
X164321195Y-85644490D01*
X164321194Y-85644492D01*
X164270590Y-85811312D01*
X164270589Y-85811313D01*
X164188411Y-85965059D01*
X164077817Y-86099817D01*
X163943059Y-86210411D01*
X163882983Y-86242522D01*
X163789312Y-86292590D01*
X163682687Y-86324934D01*
X163622490Y-86343195D01*
X163492477Y-86356000D01*
X163405523Y-86356000D01*
X163275510Y-86343195D01*
X163215313Y-86324934D01*
X163108688Y-86292590D01*
X163015017Y-86242522D01*
X162954941Y-86210411D01*
X162820183Y-86099817D01*
X162709589Y-85965059D01*
X162627411Y-85811313D01*
X162627410Y-85811312D01*
X162576806Y-85644492D01*
X162576805Y-85644490D01*
X162559718Y-85471000D01*
X162576805Y-85297510D01*
X162595066Y-85237313D01*
X162627410Y-85130688D01*
X162665664Y-85059120D01*
X162709589Y-84976941D01*
X162820183Y-84842183D01*
X162954941Y-84731589D01*
X163037120Y-84687664D01*
X163108688Y-84649410D01*
X163215313Y-84617066D01*
X163275510Y-84598805D01*
X163405523Y-84586000D01*
X163492477Y-84586000D01*
X163622490Y-84598805D01*
X163622490Y-84598805D01*
G37*
G36*
X28893972Y-80819416D02*
X29051912Y-80850832D01*
X29349463Y-80974082D01*
X29617252Y-81153013D01*
X29844987Y-81380748D01*
X30023918Y-81648537D01*
X30147168Y-81946088D01*
X30147168Y-81946090D01*
X30210000Y-82261965D01*
X30210000Y-82584035D01*
X30178584Y-82741973D01*
X30147168Y-82899912D01*
X30023918Y-83197463D01*
X29844987Y-83465252D01*
X29617252Y-83692987D01*
X29349463Y-83871918D01*
X29051912Y-83995168D01*
X28893973Y-84026584D01*
X28736035Y-84058000D01*
X28413965Y-84058000D01*
X28256027Y-84026584D01*
X28098088Y-83995168D01*
X27800537Y-83871918D01*
X27532748Y-83692987D01*
X27305013Y-83465252D01*
X27126082Y-83197463D01*
X27002832Y-82899912D01*
X26971416Y-82741972D01*
X26940000Y-82584035D01*
X26940000Y-82261965D01*
X27002832Y-81946090D01*
X27002832Y-81946088D01*
X27126082Y-81648537D01*
X27305013Y-81380748D01*
X27532748Y-81153013D01*
X27800537Y-80974082D01*
X28098088Y-80850832D01*
X28256028Y-80819416D01*
X28413965Y-80788000D01*
X28736035Y-80788000D01*
X28893972Y-80819416D01*
X28893972Y-80819416D01*
G37*
G36*
X115362490Y-82058805D02*
X115422687Y-82077066D01*
X115529312Y-82109410D01*
X115600880Y-82147664D01*
X115683059Y-82191589D01*
X115817817Y-82302183D01*
X115928411Y-82436941D01*
X115972336Y-82519120D01*
X116010590Y-82590688D01*
X116042934Y-82697313D01*
X116061195Y-82757510D01*
X116078282Y-82931000D01*
X116061195Y-83104490D01*
X116061194Y-83104492D01*
X116010590Y-83271312D01*
X116010589Y-83271313D01*
X115928411Y-83425059D01*
X115817817Y-83559817D01*
X115683059Y-83670411D01*
X115600880Y-83714336D01*
X115529312Y-83752590D01*
X115422687Y-83784934D01*
X115362490Y-83803195D01*
X115232477Y-83816000D01*
X115145523Y-83816000D01*
X115015510Y-83803195D01*
X114955313Y-83784934D01*
X114848688Y-83752590D01*
X114777120Y-83714336D01*
X114694941Y-83670411D01*
X114560183Y-83559817D01*
X114449589Y-83425059D01*
X114367411Y-83271313D01*
X114367410Y-83271312D01*
X114316806Y-83104492D01*
X114316805Y-83104490D01*
X114299718Y-82931000D01*
X114316805Y-82757510D01*
X114335066Y-82697312D01*
X114367410Y-82590688D01*
X114405664Y-82519120D01*
X114449589Y-82436941D01*
X114560183Y-82302183D01*
X114694941Y-82191589D01*
X114777120Y-82147664D01*
X114848688Y-82109410D01*
X114955313Y-82077066D01*
X115015510Y-82058805D01*
X115145523Y-82046000D01*
X115232477Y-82046000D01*
X115362490Y-82058805D01*
X115362490Y-82058805D01*
G37*
G36*
X77402500Y-83562000D02*
X75632500Y-83562000D01*
X75632500Y-81792000D01*
X77402500Y-81792000D01*
X77402500Y-83562000D01*
X77402500Y-83562000D01*
G37*
G36*
X164334000Y-82292000D02*
X162564000Y-82292000D01*
X162564000Y-80522000D01*
X164334000Y-80522000D01*
X164334000Y-82292000D01*
X164334000Y-82292000D01*
G37*
G36*
X115362490Y-79518805D02*
X115422687Y-79537066D01*
X115529312Y-79569410D01*
X115598536Y-79606411D01*
X115683059Y-79651589D01*
X115817817Y-79762183D01*
X115928411Y-79896941D01*
X115963991Y-79963508D01*
X116010590Y-80050688D01*
X116036772Y-80137000D01*
X116061195Y-80217510D01*
X116078282Y-80391000D01*
X116061195Y-80564490D01*
X116061194Y-80564492D01*
X116010590Y-80731312D01*
X115980290Y-80788000D01*
X115928411Y-80885059D01*
X115817817Y-81019817D01*
X115683059Y-81130411D01*
X115640773Y-81153013D01*
X115529312Y-81212590D01*
X115422687Y-81244934D01*
X115362490Y-81263195D01*
X115232477Y-81276000D01*
X115145523Y-81276000D01*
X115015510Y-81263195D01*
X114955313Y-81244934D01*
X114848688Y-81212590D01*
X114737227Y-81153013D01*
X114694941Y-81130411D01*
X114560183Y-81019817D01*
X114449589Y-80885059D01*
X114397710Y-80788000D01*
X114367410Y-80731312D01*
X114316806Y-80564492D01*
X114316805Y-80564490D01*
X114299718Y-80391000D01*
X114316805Y-80217510D01*
X114341228Y-80137000D01*
X114367410Y-80050688D01*
X114414009Y-79963508D01*
X114449589Y-79896941D01*
X114560183Y-79762183D01*
X114694941Y-79651589D01*
X114779464Y-79606411D01*
X114848688Y-79569410D01*
X114955313Y-79537066D01*
X115015510Y-79518805D01*
X115145523Y-79506000D01*
X115232477Y-79506000D01*
X115362490Y-79518805D01*
X115362490Y-79518805D01*
G37*
G36*
X76690990Y-79264805D02*
X76751187Y-79283066D01*
X76857812Y-79315410D01*
X76929380Y-79353664D01*
X77011559Y-79397589D01*
X77146317Y-79508183D01*
X77256911Y-79642941D01*
X77295771Y-79715643D01*
X77339090Y-79796688D01*
X77363363Y-79876705D01*
X77389695Y-79963510D01*
X77406782Y-80137000D01*
X77389695Y-80310490D01*
X77389694Y-80310492D01*
X77339090Y-80477312D01*
X77339089Y-80477313D01*
X77256911Y-80631059D01*
X77146317Y-80765817D01*
X77011559Y-80876411D01*
X76929380Y-80920336D01*
X76857812Y-80958590D01*
X76751187Y-80990934D01*
X76690990Y-81009195D01*
X76560977Y-81022000D01*
X76474023Y-81022000D01*
X76344010Y-81009195D01*
X76283813Y-80990934D01*
X76177188Y-80958590D01*
X76105620Y-80920336D01*
X76023441Y-80876411D01*
X75888683Y-80765817D01*
X75778089Y-80631059D01*
X75695911Y-80477313D01*
X75695910Y-80477312D01*
X75645306Y-80310492D01*
X75645305Y-80310490D01*
X75628218Y-80137000D01*
X75645305Y-79963510D01*
X75671637Y-79876705D01*
X75695910Y-79796688D01*
X75739229Y-79715643D01*
X75778089Y-79642941D01*
X75888683Y-79508183D01*
X76023441Y-79397589D01*
X76105620Y-79353664D01*
X76177188Y-79315410D01*
X76283813Y-79283066D01*
X76344010Y-79264805D01*
X76474023Y-79252000D01*
X76560977Y-79252000D01*
X76690990Y-79264805D01*
X76690990Y-79264805D01*
G37*
G36*
X168725645Y-78606510D02*
X168886705Y-78673223D01*
X169031655Y-78770076D01*
X169154924Y-78893345D01*
X169251777Y-79038295D01*
X169318490Y-79199355D01*
X169352500Y-79370335D01*
X169352500Y-79544665D01*
X169318490Y-79715645D01*
X169251777Y-79876705D01*
X169154924Y-80021655D01*
X169031655Y-80144924D01*
X168886705Y-80241777D01*
X168725645Y-80308490D01*
X168554665Y-80342500D01*
X168380335Y-80342500D01*
X168209355Y-80308490D01*
X168048295Y-80241777D01*
X167903345Y-80144924D01*
X167780076Y-80021655D01*
X167683223Y-79876705D01*
X167616510Y-79715645D01*
X167582500Y-79544665D01*
X167582500Y-79370335D01*
X167616510Y-79199355D01*
X167683223Y-79038295D01*
X167780076Y-78893345D01*
X167903345Y-78770076D01*
X168048295Y-78673223D01*
X168209355Y-78606510D01*
X168380335Y-78572500D01*
X168554665Y-78572500D01*
X168725645Y-78606510D01*
X168725645Y-78606510D01*
G37*
G36*
X163622490Y-77994805D02*
X163682687Y-78013066D01*
X163789312Y-78045410D01*
X163860880Y-78083664D01*
X163943059Y-78127589D01*
X164077817Y-78238183D01*
X164188411Y-78372941D01*
X164232336Y-78455120D01*
X164270590Y-78526688D01*
X164302934Y-78633313D01*
X164321195Y-78693510D01*
X164338282Y-78867000D01*
X164321195Y-79040490D01*
X164321194Y-79040492D01*
X164270590Y-79207312D01*
X164270589Y-79207313D01*
X164188411Y-79361059D01*
X164077817Y-79495817D01*
X163943059Y-79606411D01*
X163860880Y-79650336D01*
X163789312Y-79688590D01*
X163700123Y-79715645D01*
X163622490Y-79739195D01*
X163492477Y-79752000D01*
X163405523Y-79752000D01*
X163275510Y-79739195D01*
X163197877Y-79715645D01*
X163108688Y-79688590D01*
X163037120Y-79650336D01*
X162954941Y-79606411D01*
X162820183Y-79495817D01*
X162709589Y-79361059D01*
X162627411Y-79207313D01*
X162627410Y-79207312D01*
X162576806Y-79040492D01*
X162576805Y-79040490D01*
X162559718Y-78867000D01*
X162576805Y-78693510D01*
X162595066Y-78633313D01*
X162627410Y-78526688D01*
X162665664Y-78455120D01*
X162709589Y-78372941D01*
X162820183Y-78238183D01*
X162954941Y-78127589D01*
X163037120Y-78083664D01*
X163108688Y-78045410D01*
X163215313Y-78013066D01*
X163275510Y-77994805D01*
X163405523Y-77982000D01*
X163492477Y-77982000D01*
X163622490Y-77994805D01*
X163622490Y-77994805D01*
G37*
G36*
X171565645Y-77236510D02*
X171726705Y-77303223D01*
X171871655Y-77400076D01*
X171994924Y-77523345D01*
X172091777Y-77668295D01*
X172158490Y-77829355D01*
X172192500Y-78000335D01*
X172192500Y-78174665D01*
X172158490Y-78345645D01*
X172091777Y-78506705D01*
X171994924Y-78651655D01*
X171871655Y-78774924D01*
X171726705Y-78871777D01*
X171565645Y-78938490D01*
X171394665Y-78972500D01*
X171220335Y-78972500D01*
X171049355Y-78938490D01*
X170888295Y-78871777D01*
X170743345Y-78774924D01*
X170620076Y-78651655D01*
X170523223Y-78506705D01*
X170456510Y-78345645D01*
X170422500Y-78174665D01*
X170422500Y-78000335D01*
X170456510Y-77829355D01*
X170523223Y-77668295D01*
X170620076Y-77523345D01*
X170743345Y-77400076D01*
X170888295Y-77303223D01*
X171049355Y-77236510D01*
X171220335Y-77202500D01*
X171394665Y-77202500D01*
X171565645Y-77236510D01*
X171565645Y-77236510D01*
G37*
G36*
X115362490Y-76978805D02*
X115422687Y-76997066D01*
X115529312Y-77029410D01*
X115598536Y-77066411D01*
X115683059Y-77111589D01*
X115817817Y-77222183D01*
X115928411Y-77356941D01*
X115954058Y-77404924D01*
X116010590Y-77510688D01*
X116014429Y-77523344D01*
X116061195Y-77677510D01*
X116078282Y-77851000D01*
X116061195Y-78024490D01*
X116042934Y-78084687D01*
X116010590Y-78191312D01*
X115985537Y-78238183D01*
X115928411Y-78345059D01*
X115817817Y-78479817D01*
X115683059Y-78590411D01*
X115600880Y-78634336D01*
X115529312Y-78672590D01*
X115422688Y-78704934D01*
X115362490Y-78723195D01*
X115232477Y-78736000D01*
X115145523Y-78736000D01*
X115015510Y-78723195D01*
X114955313Y-78704934D01*
X114848688Y-78672590D01*
X114777120Y-78634336D01*
X114694941Y-78590411D01*
X114560183Y-78479817D01*
X114449589Y-78345059D01*
X114392463Y-78238183D01*
X114367410Y-78191312D01*
X114335066Y-78084687D01*
X114316805Y-78024490D01*
X114299718Y-77851000D01*
X114316805Y-77677510D01*
X114363571Y-77523344D01*
X114367410Y-77510688D01*
X114423942Y-77404924D01*
X114449589Y-77356941D01*
X114560183Y-77222183D01*
X114694941Y-77111589D01*
X114779464Y-77066411D01*
X114848688Y-77029410D01*
X114955313Y-76997066D01*
X115015510Y-76978805D01*
X115145523Y-76966000D01*
X115232477Y-76966000D01*
X115362490Y-76978805D01*
X115362490Y-76978805D01*
G37*
G36*
X76690990Y-76724805D02*
X76751187Y-76743066D01*
X76857812Y-76775410D01*
X76912544Y-76804665D01*
X77011559Y-76857589D01*
X77146317Y-76968183D01*
X77256911Y-77102941D01*
X77300836Y-77185120D01*
X77339090Y-77256688D01*
X77353206Y-77303223D01*
X77389695Y-77423510D01*
X77406782Y-77597000D01*
X77389695Y-77770490D01*
X77389694Y-77770492D01*
X77339090Y-77937312D01*
X77339089Y-77937313D01*
X77256911Y-78091059D01*
X77146317Y-78225817D01*
X77011559Y-78336411D01*
X76929380Y-78380336D01*
X76857812Y-78418590D01*
X76751187Y-78450934D01*
X76690990Y-78469195D01*
X76560977Y-78482000D01*
X76474023Y-78482000D01*
X76344010Y-78469195D01*
X76283813Y-78450934D01*
X76177188Y-78418590D01*
X76105620Y-78380336D01*
X76023441Y-78336411D01*
X75888683Y-78225817D01*
X75778089Y-78091059D01*
X75695911Y-77937313D01*
X75695910Y-77937312D01*
X75645306Y-77770492D01*
X75645305Y-77770490D01*
X75628218Y-77597000D01*
X75645305Y-77423510D01*
X75681794Y-77303223D01*
X75695910Y-77256688D01*
X75734164Y-77185120D01*
X75778089Y-77102941D01*
X75888683Y-76968183D01*
X76023441Y-76857589D01*
X76122456Y-76804665D01*
X76177188Y-76775410D01*
X76283812Y-76743066D01*
X76344010Y-76724805D01*
X76474023Y-76712000D01*
X76560977Y-76712000D01*
X76690990Y-76724805D01*
X76690990Y-76724805D01*
G37*
G36*
X168725645Y-75866510D02*
X168886705Y-75933223D01*
X169031655Y-76030076D01*
X169154924Y-76153345D01*
X169251777Y-76298295D01*
X169318490Y-76459355D01*
X169352500Y-76630335D01*
X169352500Y-76804665D01*
X169318490Y-76975645D01*
X169251777Y-77136705D01*
X169154924Y-77281655D01*
X169031655Y-77404924D01*
X168886705Y-77501777D01*
X168725645Y-77568490D01*
X168554665Y-77602500D01*
X168380335Y-77602500D01*
X168209355Y-77568490D01*
X168048295Y-77501777D01*
X167903345Y-77404924D01*
X167780076Y-77281655D01*
X167683223Y-77136705D01*
X167616510Y-76975645D01*
X167582500Y-76804665D01*
X167582500Y-76630335D01*
X167616510Y-76459355D01*
X167683223Y-76298295D01*
X167780076Y-76153345D01*
X167903345Y-76030076D01*
X168048295Y-75933223D01*
X168209355Y-75866510D01*
X168380335Y-75832500D01*
X168554665Y-75832500D01*
X168725645Y-75866510D01*
X168725645Y-75866510D01*
G37*
G36*
X163622490Y-75454805D02*
X163682687Y-75473066D01*
X163789312Y-75505410D01*
X163860880Y-75543664D01*
X163943059Y-75587589D01*
X164077817Y-75698183D01*
X164188411Y-75832941D01*
X164230484Y-75911655D01*
X164270590Y-75986688D01*
X164285222Y-76034924D01*
X164321195Y-76153510D01*
X164338282Y-76327000D01*
X164321195Y-76500490D01*
X164321194Y-76500492D01*
X164270590Y-76667312D01*
X164270589Y-76667313D01*
X164188411Y-76821059D01*
X164077817Y-76955817D01*
X163943059Y-77066411D01*
X163860880Y-77110336D01*
X163789312Y-77148590D01*
X163682687Y-77180934D01*
X163622490Y-77199195D01*
X163492477Y-77212000D01*
X163405523Y-77212000D01*
X163275510Y-77199195D01*
X163215313Y-77180934D01*
X163108688Y-77148590D01*
X163037120Y-77110336D01*
X162954941Y-77066411D01*
X162820183Y-76955817D01*
X162709589Y-76821059D01*
X162627411Y-76667313D01*
X162627410Y-76667312D01*
X162576806Y-76500492D01*
X162576805Y-76500490D01*
X162559718Y-76327000D01*
X162576805Y-76153510D01*
X162612778Y-76034924D01*
X162627410Y-75986688D01*
X162667516Y-75911655D01*
X162709589Y-75832941D01*
X162820183Y-75698183D01*
X162954941Y-75587589D01*
X163037120Y-75543664D01*
X163108688Y-75505410D01*
X163215313Y-75473066D01*
X163275510Y-75454805D01*
X163405523Y-75442000D01*
X163492477Y-75442000D01*
X163622490Y-75454805D01*
X163622490Y-75454805D01*
G37*
G36*
X171565645Y-74496510D02*
X171726705Y-74563223D01*
X171871655Y-74660076D01*
X171994924Y-74783345D01*
X172091777Y-74928295D01*
X172158490Y-75089355D01*
X172192500Y-75260335D01*
X172192500Y-75434665D01*
X172158490Y-75605645D01*
X172091777Y-75766705D01*
X171994924Y-75911655D01*
X171871655Y-76034924D01*
X171726705Y-76131777D01*
X171565645Y-76198490D01*
X171394665Y-76232500D01*
X171220335Y-76232500D01*
X171049355Y-76198490D01*
X170888295Y-76131777D01*
X170743345Y-76034924D01*
X170620076Y-75911655D01*
X170523223Y-75766705D01*
X170456510Y-75605645D01*
X170422500Y-75434665D01*
X170422500Y-75260335D01*
X170456510Y-75089355D01*
X170523223Y-74928295D01*
X170620076Y-74783345D01*
X170743345Y-74660076D01*
X170888295Y-74563223D01*
X171049355Y-74496510D01*
X171220335Y-74462500D01*
X171394665Y-74462500D01*
X171565645Y-74496510D01*
X171565645Y-74496510D01*
G37*
G36*
X115362490Y-74438805D02*
X115422687Y-74457066D01*
X115529312Y-74489410D01*
X115598536Y-74526411D01*
X115683059Y-74571589D01*
X115817817Y-74682183D01*
X115928411Y-74816941D01*
X115963991Y-74883508D01*
X116010590Y-74970688D01*
X116036772Y-75057000D01*
X116061195Y-75137510D01*
X116078282Y-75311000D01*
X116061195Y-75484490D01*
X116042934Y-75544687D01*
X116010590Y-75651312D01*
X115985537Y-75698183D01*
X115928411Y-75805059D01*
X115817817Y-75939817D01*
X115683059Y-76050411D01*
X115600880Y-76094336D01*
X115529312Y-76132590D01*
X115422688Y-76164934D01*
X115362490Y-76183195D01*
X115232477Y-76196000D01*
X115145523Y-76196000D01*
X115015510Y-76183195D01*
X114955313Y-76164934D01*
X114848688Y-76132590D01*
X114777120Y-76094336D01*
X114694941Y-76050411D01*
X114560183Y-75939817D01*
X114449589Y-75805059D01*
X114392463Y-75698183D01*
X114367410Y-75651312D01*
X114335066Y-75544687D01*
X114316805Y-75484490D01*
X114299718Y-75311000D01*
X114316805Y-75137510D01*
X114341228Y-75057000D01*
X114367410Y-74970688D01*
X114414009Y-74883508D01*
X114449589Y-74816941D01*
X114560183Y-74682183D01*
X114694941Y-74571589D01*
X114779464Y-74526411D01*
X114848688Y-74489410D01*
X114955313Y-74457066D01*
X115015510Y-74438805D01*
X115145523Y-74426000D01*
X115232477Y-74426000D01*
X115362490Y-74438805D01*
X115362490Y-74438805D01*
G37*
G36*
X76690990Y-74184805D02*
X76751187Y-74203066D01*
X76857812Y-74235410D01*
X76929380Y-74273664D01*
X77011559Y-74317589D01*
X77146317Y-74428183D01*
X77256911Y-74562941D01*
X77300836Y-74645120D01*
X77339090Y-74716688D01*
X77359310Y-74783345D01*
X77389695Y-74883510D01*
X77406782Y-75057000D01*
X77389695Y-75230490D01*
X77389694Y-75230492D01*
X77339090Y-75397312D01*
X77339089Y-75397313D01*
X77256911Y-75551059D01*
X77146317Y-75685817D01*
X77011559Y-75796411D01*
X76929380Y-75840336D01*
X76857812Y-75878590D01*
X76751187Y-75910934D01*
X76690990Y-75929195D01*
X76560977Y-75942000D01*
X76474023Y-75942000D01*
X76344010Y-75929195D01*
X76283813Y-75910934D01*
X76177188Y-75878590D01*
X76105620Y-75840336D01*
X76023441Y-75796411D01*
X75888683Y-75685817D01*
X75778089Y-75551059D01*
X75695911Y-75397313D01*
X75695910Y-75397312D01*
X75645306Y-75230492D01*
X75645305Y-75230490D01*
X75628218Y-75057000D01*
X75645305Y-74883510D01*
X75675690Y-74783345D01*
X75695910Y-74716688D01*
X75734164Y-74645120D01*
X75778089Y-74562941D01*
X75888683Y-74428183D01*
X76023441Y-74317589D01*
X76105620Y-74273664D01*
X76177188Y-74235410D01*
X76283813Y-74203066D01*
X76344010Y-74184805D01*
X76474023Y-74172000D01*
X76560977Y-74172000D01*
X76690990Y-74184805D01*
X76690990Y-74184805D01*
G37*
G36*
X168725645Y-73126510D02*
X168886705Y-73193223D01*
X169031655Y-73290076D01*
X169154924Y-73413345D01*
X169251777Y-73558295D01*
X169318490Y-73719355D01*
X169352500Y-73890335D01*
X169352500Y-74064665D01*
X169318490Y-74235645D01*
X169251777Y-74396705D01*
X169154924Y-74541655D01*
X169031655Y-74664924D01*
X168886705Y-74761777D01*
X168725645Y-74828490D01*
X168554665Y-74862500D01*
X168380335Y-74862500D01*
X168209355Y-74828490D01*
X168048295Y-74761777D01*
X167903345Y-74664924D01*
X167780076Y-74541655D01*
X167683223Y-74396705D01*
X167616510Y-74235645D01*
X167582500Y-74064665D01*
X167582500Y-73890335D01*
X167616510Y-73719355D01*
X167683223Y-73558295D01*
X167780076Y-73413345D01*
X167903345Y-73290076D01*
X168048295Y-73193223D01*
X168209355Y-73126510D01*
X168380335Y-73092500D01*
X168554665Y-73092500D01*
X168725645Y-73126510D01*
X168725645Y-73126510D01*
G37*
G36*
X163622490Y-72914805D02*
X163682687Y-72933066D01*
X163789312Y-72965410D01*
X163860880Y-73003664D01*
X163943059Y-73047589D01*
X164077817Y-73158183D01*
X164188411Y-73292941D01*
X164232336Y-73375120D01*
X164270590Y-73446688D01*
X164289920Y-73510411D01*
X164321195Y-73613510D01*
X164338282Y-73787000D01*
X164321195Y-73960490D01*
X164321194Y-73960492D01*
X164270590Y-74127312D01*
X164270589Y-74127313D01*
X164188411Y-74281059D01*
X164077817Y-74415817D01*
X163943059Y-74526411D01*
X163874188Y-74563223D01*
X163789312Y-74608590D01*
X163682688Y-74640934D01*
X163622490Y-74659195D01*
X163492477Y-74672000D01*
X163405523Y-74672000D01*
X163275510Y-74659195D01*
X163215313Y-74640934D01*
X163108688Y-74608590D01*
X163023812Y-74563223D01*
X162954941Y-74526411D01*
X162820183Y-74415817D01*
X162709589Y-74281059D01*
X162627411Y-74127313D01*
X162627410Y-74127312D01*
X162576806Y-73960492D01*
X162576805Y-73960490D01*
X162559718Y-73787000D01*
X162576805Y-73613510D01*
X162608080Y-73510411D01*
X162627410Y-73446688D01*
X162665664Y-73375120D01*
X162709589Y-73292941D01*
X162820183Y-73158183D01*
X162954941Y-73047589D01*
X163037120Y-73003664D01*
X163108688Y-72965410D01*
X163215313Y-72933066D01*
X163275510Y-72914805D01*
X163405523Y-72902000D01*
X163492477Y-72902000D01*
X163622490Y-72914805D01*
X163622490Y-72914805D01*
G37*
G36*
X115362490Y-71898805D02*
X115422687Y-71917066D01*
X115529312Y-71949410D01*
X115598536Y-71986411D01*
X115683059Y-72031589D01*
X115817817Y-72142183D01*
X115928411Y-72276941D01*
X115967117Y-72349355D01*
X116010590Y-72430688D01*
X116037784Y-72520335D01*
X116061195Y-72597510D01*
X116078282Y-72771000D01*
X116061195Y-72944490D01*
X116042934Y-73004687D01*
X116010590Y-73111312D01*
X116010589Y-73111313D01*
X115928411Y-73265059D01*
X115817817Y-73399817D01*
X115683059Y-73510411D01*
X115600880Y-73554336D01*
X115529312Y-73592590D01*
X115422687Y-73624934D01*
X115362490Y-73643195D01*
X115232477Y-73656000D01*
X115145523Y-73656000D01*
X115015510Y-73643195D01*
X114955313Y-73624934D01*
X114848688Y-73592590D01*
X114777120Y-73554336D01*
X114694941Y-73510411D01*
X114560183Y-73399817D01*
X114449589Y-73265059D01*
X114367411Y-73111313D01*
X114367410Y-73111312D01*
X114335066Y-73004687D01*
X114316805Y-72944490D01*
X114299718Y-72771000D01*
X114316805Y-72597510D01*
X114340216Y-72520335D01*
X114367410Y-72430688D01*
X114410883Y-72349355D01*
X114449589Y-72276941D01*
X114560183Y-72142183D01*
X114694941Y-72031589D01*
X114779464Y-71986411D01*
X114848688Y-71949410D01*
X114955313Y-71917066D01*
X115015510Y-71898805D01*
X115145523Y-71886000D01*
X115232477Y-71886000D01*
X115362490Y-71898805D01*
X115362490Y-71898805D01*
G37*
G36*
X171565645Y-71756510D02*
X171726705Y-71823223D01*
X171871655Y-71920076D01*
X171994924Y-72043345D01*
X172091777Y-72188295D01*
X172158490Y-72349355D01*
X172192500Y-72520335D01*
X172192500Y-72694665D01*
X172158490Y-72865645D01*
X172091777Y-73026705D01*
X171994924Y-73171655D01*
X171871655Y-73294924D01*
X171726705Y-73391777D01*
X171565645Y-73458490D01*
X171394665Y-73492500D01*
X171220335Y-73492500D01*
X171049355Y-73458490D01*
X170888295Y-73391777D01*
X170743345Y-73294924D01*
X170620076Y-73171655D01*
X170523223Y-73026705D01*
X170456510Y-72865645D01*
X170422500Y-72694665D01*
X170422500Y-72520335D01*
X170456510Y-72349355D01*
X170523223Y-72188295D01*
X170620076Y-72043345D01*
X170743345Y-71920076D01*
X170888295Y-71823223D01*
X171049355Y-71756510D01*
X171220335Y-71722500D01*
X171394665Y-71722500D01*
X171565645Y-71756510D01*
X171565645Y-71756510D01*
G37*
G36*
X163622490Y-70374805D02*
X163682687Y-70393066D01*
X163789312Y-70425410D01*
X163800997Y-70431656D01*
X163943059Y-70507589D01*
X164077817Y-70618183D01*
X164188411Y-70752941D01*
X164223343Y-70818295D01*
X164270590Y-70906688D01*
X164289920Y-70970411D01*
X164321195Y-71073510D01*
X164338282Y-71247000D01*
X164321195Y-71420490D01*
X164321194Y-71420492D01*
X164270590Y-71587312D01*
X164270589Y-71587313D01*
X164188411Y-71741059D01*
X164077817Y-71875817D01*
X163943059Y-71986411D01*
X163876895Y-72021776D01*
X163789312Y-72068590D01*
X163682687Y-72100934D01*
X163622490Y-72119195D01*
X163492477Y-72132000D01*
X163405523Y-72132000D01*
X163275510Y-72119195D01*
X163215313Y-72100934D01*
X163108688Y-72068590D01*
X163021105Y-72021776D01*
X162954941Y-71986411D01*
X162820183Y-71875817D01*
X162709589Y-71741059D01*
X162627411Y-71587313D01*
X162627410Y-71587312D01*
X162576806Y-71420492D01*
X162576805Y-71420490D01*
X162559718Y-71247000D01*
X162576805Y-71073510D01*
X162608080Y-70970411D01*
X162627410Y-70906688D01*
X162674657Y-70818295D01*
X162709589Y-70752941D01*
X162820183Y-70618183D01*
X162954941Y-70507589D01*
X163097003Y-70431656D01*
X163108688Y-70425410D01*
X163215313Y-70393066D01*
X163275510Y-70374805D01*
X163405523Y-70362000D01*
X163492477Y-70362000D01*
X163622490Y-70374805D01*
X163622490Y-70374805D01*
G37*
G36*
X168725645Y-70386510D02*
X168886705Y-70453223D01*
X169031655Y-70550076D01*
X169154924Y-70673345D01*
X169251777Y-70818295D01*
X169318490Y-70979355D01*
X169352500Y-71150335D01*
X169352500Y-71324665D01*
X169318490Y-71495645D01*
X169251777Y-71656705D01*
X169154924Y-71801655D01*
X169031655Y-71924924D01*
X168886705Y-72021777D01*
X168725645Y-72088490D01*
X168554665Y-72122500D01*
X168380335Y-72122500D01*
X168209355Y-72088490D01*
X168048295Y-72021777D01*
X167903345Y-71924924D01*
X167780076Y-71801655D01*
X167683223Y-71656705D01*
X167616510Y-71495645D01*
X167582500Y-71324665D01*
X167582500Y-71150335D01*
X167616510Y-70979355D01*
X167683223Y-70818295D01*
X167780076Y-70673345D01*
X167903345Y-70550076D01*
X168048295Y-70453223D01*
X168209355Y-70386510D01*
X168380335Y-70352500D01*
X168554665Y-70352500D01*
X168725645Y-70386510D01*
X168725645Y-70386510D01*
G37*
G36*
X115362490Y-69358805D02*
X115422687Y-69377066D01*
X115529312Y-69409410D01*
X115598536Y-69446411D01*
X115683059Y-69491589D01*
X115817817Y-69602183D01*
X115928411Y-69736941D01*
X115951605Y-69780335D01*
X116010590Y-69890688D01*
X116029997Y-69954665D01*
X116061195Y-70057510D01*
X116078282Y-70231000D01*
X116061195Y-70404490D01*
X116052954Y-70431655D01*
X116010590Y-70571312D01*
X116010589Y-70571313D01*
X115928411Y-70725059D01*
X115817817Y-70859817D01*
X115683059Y-70970411D01*
X115600880Y-71014336D01*
X115529312Y-71052590D01*
X115422688Y-71084934D01*
X115362490Y-71103195D01*
X115232477Y-71116000D01*
X115145523Y-71116000D01*
X115015510Y-71103195D01*
X114955313Y-71084934D01*
X114848688Y-71052590D01*
X114777120Y-71014336D01*
X114694941Y-70970411D01*
X114560183Y-70859817D01*
X114449589Y-70725059D01*
X114367411Y-70571313D01*
X114367410Y-70571312D01*
X114325046Y-70431655D01*
X114316805Y-70404490D01*
X114299718Y-70231000D01*
X114316805Y-70057510D01*
X114348003Y-69954665D01*
X114367410Y-69890688D01*
X114426395Y-69780335D01*
X114449589Y-69736941D01*
X114560183Y-69602183D01*
X114694941Y-69491589D01*
X114779464Y-69446411D01*
X114848688Y-69409410D01*
X114955313Y-69377066D01*
X115015510Y-69358805D01*
X115145523Y-69346000D01*
X115232477Y-69346000D01*
X115362490Y-69358805D01*
X115362490Y-69358805D01*
G37*
G36*
X171565645Y-69016510D02*
X171726705Y-69083223D01*
X171871655Y-69180076D01*
X171994924Y-69303345D01*
X172091777Y-69448295D01*
X172158490Y-69609355D01*
X172192500Y-69780335D01*
X172192500Y-69954665D01*
X172158490Y-70125645D01*
X172091777Y-70286705D01*
X171994924Y-70431655D01*
X171871655Y-70554924D01*
X171726705Y-70651777D01*
X171565645Y-70718490D01*
X171394665Y-70752500D01*
X171220335Y-70752500D01*
X171049355Y-70718490D01*
X170888295Y-70651777D01*
X170743345Y-70554924D01*
X170620076Y-70431655D01*
X170523223Y-70286705D01*
X170456510Y-70125645D01*
X170422500Y-69954665D01*
X170422500Y-69780335D01*
X170456510Y-69609355D01*
X170523223Y-69448295D01*
X170620076Y-69303345D01*
X170743345Y-69180076D01*
X170888295Y-69083223D01*
X171049355Y-69016510D01*
X171220335Y-68982500D01*
X171394665Y-68982500D01*
X171565645Y-69016510D01*
X171565645Y-69016510D01*
G37*
G36*
X163622490Y-67834805D02*
X163682687Y-67853066D01*
X163789312Y-67885410D01*
X163860880Y-67923664D01*
X163943059Y-67967589D01*
X164077817Y-68078183D01*
X164188411Y-68212941D01*
X164202529Y-68239355D01*
X164270590Y-68366688D01*
X164283830Y-68410335D01*
X164321195Y-68533510D01*
X164338282Y-68707000D01*
X164321195Y-68880490D01*
X164321194Y-68880492D01*
X164270590Y-69047312D01*
X164232336Y-69118880D01*
X164188411Y-69201059D01*
X164077817Y-69335817D01*
X163943059Y-69446411D01*
X163860880Y-69490336D01*
X163789312Y-69528590D01*
X163682687Y-69560934D01*
X163622490Y-69579195D01*
X163492477Y-69592000D01*
X163405523Y-69592000D01*
X163275510Y-69579195D01*
X163215313Y-69560934D01*
X163108688Y-69528590D01*
X163037120Y-69490336D01*
X162954941Y-69446411D01*
X162820183Y-69335817D01*
X162709589Y-69201059D01*
X162665664Y-69118880D01*
X162627410Y-69047312D01*
X162576806Y-68880492D01*
X162576805Y-68880490D01*
X162559718Y-68707000D01*
X162576805Y-68533510D01*
X162614170Y-68410335D01*
X162627410Y-68366688D01*
X162695471Y-68239355D01*
X162709589Y-68212941D01*
X162820183Y-68078183D01*
X162954941Y-67967589D01*
X163037120Y-67923664D01*
X163108688Y-67885410D01*
X163215313Y-67853066D01*
X163275510Y-67834805D01*
X163405523Y-67822000D01*
X163492477Y-67822000D01*
X163622490Y-67834805D01*
X163622490Y-67834805D01*
G37*
G36*
X168725645Y-67646510D02*
X168886705Y-67713223D01*
X169031655Y-67810076D01*
X169154924Y-67933345D01*
X169251777Y-68078295D01*
X169318490Y-68239355D01*
X169352500Y-68410335D01*
X169352500Y-68584665D01*
X169318490Y-68755645D01*
X169251777Y-68916705D01*
X169154924Y-69061655D01*
X169031655Y-69184924D01*
X168886705Y-69281777D01*
X168725645Y-69348490D01*
X168554665Y-69382500D01*
X168380335Y-69382500D01*
X168209355Y-69348490D01*
X168048295Y-69281777D01*
X167903345Y-69184924D01*
X167780076Y-69061655D01*
X167683223Y-68916705D01*
X167616510Y-68755645D01*
X167582500Y-68584665D01*
X167582500Y-68410335D01*
X167616510Y-68239355D01*
X167683223Y-68078295D01*
X167780076Y-67933345D01*
X167903345Y-67810076D01*
X168048295Y-67713223D01*
X168209355Y-67646510D01*
X168380335Y-67612500D01*
X168554665Y-67612500D01*
X168725645Y-67646510D01*
X168725645Y-67646510D01*
G37*
G36*
X115362490Y-66818805D02*
X115422687Y-66837066D01*
X115529312Y-66869410D01*
X115598536Y-66906411D01*
X115683059Y-66951589D01*
X115817817Y-67062183D01*
X115928411Y-67196941D01*
X115972336Y-67279120D01*
X116010590Y-67350688D01*
X116042934Y-67457313D01*
X116061195Y-67517510D01*
X116078282Y-67691000D01*
X116061195Y-67864490D01*
X116042934Y-67924688D01*
X116010590Y-68031312D01*
X115985477Y-68078295D01*
X115928411Y-68185059D01*
X115817817Y-68319817D01*
X115683059Y-68430411D01*
X115600880Y-68474336D01*
X115529312Y-68512590D01*
X115422687Y-68544934D01*
X115362490Y-68563195D01*
X115232477Y-68576000D01*
X115145523Y-68576000D01*
X115015510Y-68563195D01*
X114955313Y-68544934D01*
X114848688Y-68512590D01*
X114777120Y-68474336D01*
X114694941Y-68430411D01*
X114560183Y-68319817D01*
X114449589Y-68185059D01*
X114392523Y-68078295D01*
X114367410Y-68031312D01*
X114335066Y-67924687D01*
X114316805Y-67864490D01*
X114299718Y-67691000D01*
X114316805Y-67517510D01*
X114335066Y-67457312D01*
X114367410Y-67350688D01*
X114405664Y-67279120D01*
X114449589Y-67196941D01*
X114560183Y-67062183D01*
X114694941Y-66951589D01*
X114779464Y-66906411D01*
X114848688Y-66869410D01*
X114955313Y-66837066D01*
X115015510Y-66818805D01*
X115145523Y-66806000D01*
X115232477Y-66806000D01*
X115362490Y-66818805D01*
X115362490Y-66818805D01*
G37*
G36*
X28893973Y-63928416D02*
X29051912Y-63959832D01*
X29349463Y-64083082D01*
X29617252Y-64262013D01*
X29844987Y-64489748D01*
X30023918Y-64757537D01*
X30147168Y-65055088D01*
X30147168Y-65055090D01*
X30210000Y-65370965D01*
X30210000Y-65693035D01*
X30178584Y-65850973D01*
X30147168Y-66008912D01*
X30023918Y-66306463D01*
X29844987Y-66574252D01*
X29617252Y-66801987D01*
X29349463Y-66980918D01*
X29051912Y-67104168D01*
X28893973Y-67135584D01*
X28736035Y-67167000D01*
X28413965Y-67167000D01*
X28256027Y-67135584D01*
X28098088Y-67104168D01*
X27800537Y-66980918D01*
X27532748Y-66801987D01*
X27305013Y-66574252D01*
X27126082Y-66306463D01*
X27002832Y-66008912D01*
X26971416Y-65850973D01*
X26940000Y-65693035D01*
X26940000Y-65370965D01*
X27002832Y-65055090D01*
X27002832Y-65055088D01*
X27126082Y-64757537D01*
X27305013Y-64489748D01*
X27532748Y-64262013D01*
X27800537Y-64083082D01*
X28098088Y-63959832D01*
X28256027Y-63928416D01*
X28413965Y-63897000D01*
X28736035Y-63897000D01*
X28893973Y-63928416D01*
X28893973Y-63928416D01*
G37*
G36*
X163622490Y-65294805D02*
X163682687Y-65313066D01*
X163789312Y-65345410D01*
X163860880Y-65383664D01*
X163943059Y-65427589D01*
X164077817Y-65538183D01*
X164188411Y-65672941D01*
X164199150Y-65693033D01*
X164270590Y-65826688D01*
X164302934Y-65933312D01*
X164321195Y-65993510D01*
X164338282Y-66167000D01*
X164321195Y-66340490D01*
X164321194Y-66340492D01*
X164270590Y-66507312D01*
X164270589Y-66507313D01*
X164188411Y-66661059D01*
X164077817Y-66795817D01*
X163943059Y-66906411D01*
X163860880Y-66950336D01*
X163789312Y-66988590D01*
X163682688Y-67020934D01*
X163622490Y-67039195D01*
X163492477Y-67052000D01*
X163405523Y-67052000D01*
X163275510Y-67039195D01*
X163215313Y-67020934D01*
X163108688Y-66988590D01*
X163037120Y-66950336D01*
X162954941Y-66906411D01*
X162820183Y-66795817D01*
X162709589Y-66661059D01*
X162627411Y-66507313D01*
X162627410Y-66507312D01*
X162576806Y-66340492D01*
X162576805Y-66340490D01*
X162559718Y-66167000D01*
X162576805Y-65993510D01*
X162595066Y-65933312D01*
X162627410Y-65826688D01*
X162698850Y-65693033D01*
X162709589Y-65672941D01*
X162820183Y-65538183D01*
X162954941Y-65427589D01*
X163037120Y-65383664D01*
X163108688Y-65345410D01*
X163215313Y-65313066D01*
X163275510Y-65294805D01*
X163405523Y-65282000D01*
X163492477Y-65282000D01*
X163622490Y-65294805D01*
X163622490Y-65294805D01*
G37*
G36*
X163622490Y-62754805D02*
X163682687Y-62773066D01*
X163789312Y-62805410D01*
X163860880Y-62843664D01*
X163943059Y-62887589D01*
X164077817Y-62998183D01*
X164188411Y-63132941D01*
X164232336Y-63215120D01*
X164270590Y-63286688D01*
X164273479Y-63296213D01*
X164321195Y-63453510D01*
X164338282Y-63627000D01*
X164321195Y-63800490D01*
X164321194Y-63800492D01*
X164270590Y-63967312D01*
X164270589Y-63967313D01*
X164188411Y-64121059D01*
X164077817Y-64255817D01*
X163943059Y-64366411D01*
X163860880Y-64410336D01*
X163789312Y-64448590D01*
X163682688Y-64480934D01*
X163622490Y-64499195D01*
X163492477Y-64512000D01*
X163405523Y-64512000D01*
X163275510Y-64499195D01*
X163215313Y-64480934D01*
X163108688Y-64448590D01*
X163037120Y-64410336D01*
X162954941Y-64366411D01*
X162820183Y-64255817D01*
X162709589Y-64121059D01*
X162627411Y-63967313D01*
X162627410Y-63967312D01*
X162576806Y-63800492D01*
X162576805Y-63800490D01*
X162559718Y-63627000D01*
X162576805Y-63453510D01*
X162624521Y-63296213D01*
X162627410Y-63286688D01*
X162665664Y-63215120D01*
X162709589Y-63132941D01*
X162820183Y-62998183D01*
X162954941Y-62887589D01*
X163037120Y-62843664D01*
X163108688Y-62805410D01*
X163215313Y-62773066D01*
X163275510Y-62754805D01*
X163405523Y-62742000D01*
X163492477Y-62742000D01*
X163622490Y-62754805D01*
X163622490Y-62754805D01*
G37*
G36*
X170343035Y-59192366D02*
X170568594Y-59237233D01*
X170861501Y-59358559D01*
X170993539Y-59413251D01*
X171113366Y-59493317D01*
X171375976Y-59668787D01*
X171701213Y-59994024D01*
X171956750Y-60376463D01*
X172076303Y-60665089D01*
X172132767Y-60801407D01*
X172218221Y-61231008D01*
X172222500Y-61252523D01*
X172222500Y-61712477D01*
X172132767Y-62163594D01*
X172106880Y-62226090D01*
X171956749Y-62588539D01*
X171701212Y-62970977D01*
X171375977Y-63296212D01*
X170993539Y-63551749D01*
X170993538Y-63551750D01*
X170993537Y-63551750D01*
X170568594Y-63727767D01*
X170343036Y-63772633D01*
X170117478Y-63817500D01*
X169657522Y-63817500D01*
X169431964Y-63772633D01*
X169206406Y-63727767D01*
X168781463Y-63551750D01*
X168781462Y-63551750D01*
X168781461Y-63551749D01*
X168399023Y-63296212D01*
X168073788Y-62970977D01*
X167818251Y-62588539D01*
X167668120Y-62226090D01*
X167642233Y-62163594D01*
X167552500Y-61712477D01*
X167552500Y-61252523D01*
X167556780Y-61231008D01*
X167642233Y-60801407D01*
X167698698Y-60665089D01*
X167818250Y-60376463D01*
X168073787Y-59994024D01*
X168399024Y-59668787D01*
X168661634Y-59493317D01*
X168781461Y-59413251D01*
X168913499Y-59358559D01*
X169206406Y-59237233D01*
X169431965Y-59192366D01*
X169657522Y-59147500D01*
X170117478Y-59147500D01*
X170343035Y-59192366D01*
X170343035Y-59192366D01*
G37*
G36*
X124315990Y-60532305D02*
X124376187Y-60550566D01*
X124482812Y-60582910D01*
X124554380Y-60621164D01*
X124636559Y-60665089D01*
X124771317Y-60775683D01*
X124881911Y-60910441D01*
X124925836Y-60992620D01*
X124964090Y-61064188D01*
X124996434Y-61170813D01*
X125014695Y-61231010D01*
X125031782Y-61404500D01*
X125014695Y-61577990D01*
X125014694Y-61577992D01*
X124964090Y-61744812D01*
X124964089Y-61744813D01*
X124881911Y-61898559D01*
X124771317Y-62033317D01*
X124636559Y-62143911D01*
X124599736Y-62163593D01*
X124482812Y-62226090D01*
X124376187Y-62258434D01*
X124315990Y-62276695D01*
X124185977Y-62289500D01*
X124099023Y-62289500D01*
X123969010Y-62276695D01*
X123908813Y-62258434D01*
X123802188Y-62226090D01*
X123685264Y-62163593D01*
X123648441Y-62143911D01*
X123513683Y-62033317D01*
X123403089Y-61898559D01*
X123320911Y-61744813D01*
X123320910Y-61744812D01*
X123270306Y-61577992D01*
X123270305Y-61577990D01*
X123253218Y-61404500D01*
X123270305Y-61231010D01*
X123288566Y-61170812D01*
X123320910Y-61064188D01*
X123359164Y-60992620D01*
X123403089Y-60910441D01*
X123513683Y-60775683D01*
X123648441Y-60665089D01*
X123730620Y-60621164D01*
X123802188Y-60582910D01*
X123908813Y-60550566D01*
X123969010Y-60532305D01*
X124099023Y-60519500D01*
X124185977Y-60519500D01*
X124315990Y-60532305D01*
X124315990Y-60532305D01*
G37*
G36*
X121775990Y-60532305D02*
X121836187Y-60550566D01*
X121942812Y-60582910D01*
X122014380Y-60621164D01*
X122096559Y-60665089D01*
X122231317Y-60775683D01*
X122341911Y-60910441D01*
X122385836Y-60992620D01*
X122424090Y-61064188D01*
X122456434Y-61170813D01*
X122474695Y-61231010D01*
X122491782Y-61404500D01*
X122474695Y-61577990D01*
X122474694Y-61577992D01*
X122424090Y-61744812D01*
X122424089Y-61744813D01*
X122341911Y-61898559D01*
X122231317Y-62033317D01*
X122096559Y-62143911D01*
X122059736Y-62163593D01*
X121942812Y-62226090D01*
X121836187Y-62258434D01*
X121775990Y-62276695D01*
X121645977Y-62289500D01*
X121559023Y-62289500D01*
X121429010Y-62276695D01*
X121368813Y-62258434D01*
X121262188Y-62226090D01*
X121145264Y-62163593D01*
X121108441Y-62143911D01*
X120973683Y-62033317D01*
X120863089Y-61898559D01*
X120780911Y-61744813D01*
X120780910Y-61744812D01*
X120730306Y-61577992D01*
X120730305Y-61577990D01*
X120713218Y-61404500D01*
X120730305Y-61231010D01*
X120748566Y-61170812D01*
X120780910Y-61064188D01*
X120819164Y-60992620D01*
X120863089Y-60910441D01*
X120973683Y-60775683D01*
X121108441Y-60665089D01*
X121190620Y-60621164D01*
X121262188Y-60582910D01*
X121368813Y-60550566D01*
X121429010Y-60532305D01*
X121559023Y-60519500D01*
X121645977Y-60519500D01*
X121775990Y-60532305D01*
X121775990Y-60532305D01*
G37*
G36*
X115507973Y-57451416D02*
X115665912Y-57482832D01*
X115963463Y-57606082D01*
X116231252Y-57785013D01*
X116458987Y-58012748D01*
X116637918Y-58280537D01*
X116761168Y-58578088D01*
X116824000Y-58893967D01*
X116824000Y-59216033D01*
X116761168Y-59531912D01*
X116637918Y-59829463D01*
X116458987Y-60097252D01*
X116231252Y-60324987D01*
X115963463Y-60503918D01*
X115665912Y-60627168D01*
X115507972Y-60658584D01*
X115350035Y-60690000D01*
X115027965Y-60690000D01*
X114870028Y-60658584D01*
X114712088Y-60627168D01*
X114414537Y-60503918D01*
X114146748Y-60324987D01*
X113919013Y-60097252D01*
X113740082Y-59829463D01*
X113616832Y-59531912D01*
X113554000Y-59216033D01*
X113554000Y-58893967D01*
X113616832Y-58578088D01*
X113740082Y-58280537D01*
X113919013Y-58012748D01*
X114146748Y-57785013D01*
X114414537Y-57606082D01*
X114712088Y-57482832D01*
X114870027Y-57451416D01*
X115027965Y-57420000D01*
X115350035Y-57420000D01*
X115507973Y-57451416D01*
X115507973Y-57451416D01*
G37*
G36*
X121775990Y-57992305D02*
X121836187Y-58010566D01*
X121942812Y-58042910D01*
X122014380Y-58081164D01*
X122096559Y-58125089D01*
X122231317Y-58235683D01*
X122341911Y-58370441D01*
X122385836Y-58452620D01*
X122424090Y-58524188D01*
X122440440Y-58578088D01*
X122474695Y-58691010D01*
X122491782Y-58864500D01*
X122474695Y-59037990D01*
X122474694Y-59037992D01*
X122424090Y-59204812D01*
X122385836Y-59276380D01*
X122341911Y-59358559D01*
X122231317Y-59493317D01*
X122096559Y-59603911D01*
X122014380Y-59647836D01*
X121942812Y-59686090D01*
X121836187Y-59718434D01*
X121775990Y-59736695D01*
X121645977Y-59749500D01*
X121559023Y-59749500D01*
X121429010Y-59736695D01*
X121368813Y-59718434D01*
X121262188Y-59686090D01*
X121190620Y-59647836D01*
X121108441Y-59603911D01*
X120973683Y-59493317D01*
X120863089Y-59358559D01*
X120819164Y-59276380D01*
X120780910Y-59204812D01*
X120730306Y-59037992D01*
X120730305Y-59037990D01*
X120713218Y-58864500D01*
X120730305Y-58691010D01*
X120764560Y-58578088D01*
X120780910Y-58524188D01*
X120819164Y-58452620D01*
X120863089Y-58370441D01*
X120973683Y-58235683D01*
X121108441Y-58125089D01*
X121190620Y-58081164D01*
X121262188Y-58042910D01*
X121368813Y-58010566D01*
X121429010Y-57992305D01*
X121559023Y-57979500D01*
X121645977Y-57979500D01*
X121775990Y-57992305D01*
X121775990Y-57992305D01*
G37*
G36*
X125027500Y-59749500D02*
X123257500Y-59749500D01*
X123257500Y-57979500D01*
X125027500Y-57979500D01*
X125027500Y-59749500D01*
X125027500Y-59749500D01*
G37*
G36*
X105951314Y-56456853D02*
X106130572Y-56531104D01*
X106130574Y-56531105D01*
X106198031Y-56576179D01*
X106291901Y-56638901D01*
X106429099Y-56776099D01*
X106536896Y-56937428D01*
X106611147Y-57116686D01*
X106649000Y-57306986D01*
X106649000Y-57501014D01*
X106611147Y-57691314D01*
X106536896Y-57870572D01*
X106441897Y-58012748D01*
X106429098Y-58031902D01*
X106291902Y-58169098D01*
X106130574Y-58276895D01*
X106130573Y-58276896D01*
X106130572Y-58276896D01*
X105951314Y-58351147D01*
X105761014Y-58389000D01*
X105566986Y-58389000D01*
X105376686Y-58351147D01*
X105197428Y-58276896D01*
X105197427Y-58276896D01*
X105197426Y-58276895D01*
X105036098Y-58169098D01*
X104898902Y-58031902D01*
X104886104Y-58012748D01*
X104791104Y-57870572D01*
X104716853Y-57691314D01*
X104679000Y-57501014D01*
X104679000Y-57306986D01*
X104716853Y-57116686D01*
X104791104Y-56937428D01*
X104898901Y-56776099D01*
X105036099Y-56638901D01*
X105129969Y-56576179D01*
X105197426Y-56531105D01*
X105197428Y-56531104D01*
X105376686Y-56456853D01*
X105566986Y-56419000D01*
X105761014Y-56419000D01*
X105951314Y-56456853D01*
X105951314Y-56456853D01*
G37*
G36*
X103411314Y-56456853D02*
X103590572Y-56531104D01*
X103590574Y-56531105D01*
X103658031Y-56576179D01*
X103751901Y-56638901D01*
X103889099Y-56776099D01*
X103996896Y-56937428D01*
X104071147Y-57116686D01*
X104109000Y-57306986D01*
X104109000Y-57501014D01*
X104071147Y-57691314D01*
X103996896Y-57870572D01*
X103901897Y-58012748D01*
X103889098Y-58031902D01*
X103751902Y-58169098D01*
X103590574Y-58276895D01*
X103590573Y-58276896D01*
X103590572Y-58276896D01*
X103411314Y-58351147D01*
X103221014Y-58389000D01*
X103026986Y-58389000D01*
X102836686Y-58351147D01*
X102657428Y-58276896D01*
X102657427Y-58276896D01*
X102657426Y-58276895D01*
X102496098Y-58169098D01*
X102358902Y-58031902D01*
X102346104Y-58012748D01*
X102251104Y-57870572D01*
X102176853Y-57691314D01*
X102139000Y-57501014D01*
X102139000Y-57306986D01*
X102176853Y-57116686D01*
X102251104Y-56937428D01*
X102358901Y-56776099D01*
X102496099Y-56638901D01*
X102589969Y-56576179D01*
X102657426Y-56531105D01*
X102657428Y-56531104D01*
X102836686Y-56456853D01*
X103026986Y-56419000D01*
X103221014Y-56419000D01*
X103411314Y-56456853D01*
X103411314Y-56456853D01*
G37*
G36*
X100871314Y-56456853D02*
X101050572Y-56531104D01*
X101050574Y-56531105D01*
X101118031Y-56576179D01*
X101211901Y-56638901D01*
X101349099Y-56776099D01*
X101456896Y-56937428D01*
X101531147Y-57116686D01*
X101569000Y-57306986D01*
X101569000Y-57501014D01*
X101531147Y-57691314D01*
X101456896Y-57870572D01*
X101361897Y-58012748D01*
X101349098Y-58031902D01*
X101211902Y-58169098D01*
X101050574Y-58276895D01*
X101050573Y-58276896D01*
X101050572Y-58276896D01*
X100871314Y-58351147D01*
X100681014Y-58389000D01*
X100486986Y-58389000D01*
X100296686Y-58351147D01*
X100117428Y-58276896D01*
X100117427Y-58276896D01*
X100117426Y-58276895D01*
X99956098Y-58169098D01*
X99818902Y-58031902D01*
X99806104Y-58012748D01*
X99711104Y-57870572D01*
X99636853Y-57691314D01*
X99599000Y-57501014D01*
X99599000Y-57306986D01*
X99636853Y-57116686D01*
X99711104Y-56937428D01*
X99818901Y-56776099D01*
X99956099Y-56638901D01*
X100049969Y-56576179D01*
X100117426Y-56531105D01*
X100117428Y-56531104D01*
X100296686Y-56456853D01*
X100486986Y-56419000D01*
X100681014Y-56419000D01*
X100871314Y-56456853D01*
X100871314Y-56456853D01*
G37*
G36*
X98331314Y-56456853D02*
X98510572Y-56531104D01*
X98510574Y-56531105D01*
X98578031Y-56576179D01*
X98671901Y-56638901D01*
X98809099Y-56776099D01*
X98916896Y-56937428D01*
X98991147Y-57116686D01*
X99029000Y-57306986D01*
X99029000Y-57501014D01*
X98991147Y-57691314D01*
X98916896Y-57870572D01*
X98821897Y-58012748D01*
X98809098Y-58031902D01*
X98671902Y-58169098D01*
X98510574Y-58276895D01*
X98510573Y-58276896D01*
X98510572Y-58276896D01*
X98331314Y-58351147D01*
X98141014Y-58389000D01*
X97946986Y-58389000D01*
X97756686Y-58351147D01*
X97577428Y-58276896D01*
X97577427Y-58276896D01*
X97577426Y-58276895D01*
X97416098Y-58169098D01*
X97278902Y-58031902D01*
X97266104Y-58012748D01*
X97171104Y-57870572D01*
X97096853Y-57691314D01*
X97059000Y-57501014D01*
X97059000Y-57306986D01*
X97096853Y-57116686D01*
X97171104Y-56937428D01*
X97278901Y-56776099D01*
X97416099Y-56638901D01*
X97509969Y-56576179D01*
X97577426Y-56531105D01*
X97577428Y-56531104D01*
X97756686Y-56456853D01*
X97946986Y-56419000D01*
X98141014Y-56419000D01*
X98331314Y-56456853D01*
X98331314Y-56456853D01*
G37*
G36*
X176273482Y-55706188D02*
X176393180Y-55742498D01*
X176452144Y-55774015D01*
X176503493Y-55801462D01*
X176503495Y-55801463D01*
X176503494Y-55801463D01*
X176600185Y-55880815D01*
X176679537Y-55977506D01*
X176738502Y-56087820D01*
X176774812Y-56207518D01*
X176787072Y-56332000D01*
X176774812Y-56456482D01*
X176738502Y-56576180D01*
X176706985Y-56635144D01*
X176679538Y-56686493D01*
X176600185Y-56783185D01*
X176503493Y-56862538D01*
X176452144Y-56889985D01*
X176393180Y-56921502D01*
X176273482Y-56957812D01*
X176180192Y-56967000D01*
X175417808Y-56967000D01*
X175324518Y-56957812D01*
X175204820Y-56921502D01*
X175145856Y-56889985D01*
X175094507Y-56862538D01*
X174997815Y-56783185D01*
X174918462Y-56686493D01*
X174891015Y-56635144D01*
X174859498Y-56576180D01*
X174823188Y-56456482D01*
X174810928Y-56332000D01*
X174823188Y-56207518D01*
X174859498Y-56087820D01*
X174918463Y-55977506D01*
X174997815Y-55880815D01*
X175094506Y-55801463D01*
X175094505Y-55801463D01*
X175094507Y-55801462D01*
X175145856Y-55774015D01*
X175204820Y-55742498D01*
X175324518Y-55706188D01*
X175417808Y-55697000D01*
X176180192Y-55697000D01*
X176273482Y-55706188D01*
X176273482Y-55706188D01*
G37*
G36*
X173320682Y-54601206D02*
X173458998Y-54658497D01*
X173583474Y-54741670D01*
X173689330Y-54847526D01*
X173772503Y-54972002D01*
X173829794Y-55110318D01*
X173859000Y-55257145D01*
X173859000Y-55406855D01*
X173829794Y-55553682D01*
X173772503Y-55691998D01*
X173689330Y-55816474D01*
X173583474Y-55922330D01*
X173458998Y-56005503D01*
X173320682Y-56062794D01*
X173173855Y-56092000D01*
X173024145Y-56092000D01*
X172877318Y-56062794D01*
X172739002Y-56005503D01*
X172614526Y-55922330D01*
X172508670Y-55816474D01*
X172425497Y-55691998D01*
X172368206Y-55553682D01*
X172339000Y-55406855D01*
X172339000Y-55257145D01*
X172368206Y-55110318D01*
X172425497Y-54972002D01*
X172508670Y-54847526D01*
X172614526Y-54741670D01*
X172739002Y-54658497D01*
X172877318Y-54601206D01*
X173024145Y-54572000D01*
X173173855Y-54572000D01*
X173320682Y-54601206D01*
X173320682Y-54601206D01*
G37*
G36*
X102141314Y-53916853D02*
X102320572Y-53991104D01*
X102320574Y-53991105D01*
X102401786Y-54045370D01*
X102481901Y-54098901D01*
X102619099Y-54236099D01*
X102726896Y-54397428D01*
X102801147Y-54576686D01*
X102839000Y-54766986D01*
X102839000Y-54961014D01*
X102801147Y-55151314D01*
X102726896Y-55330572D01*
X102726895Y-55330574D01*
X102619098Y-55491902D01*
X102481902Y-55629098D01*
X102320574Y-55736895D01*
X102320573Y-55736896D01*
X102320572Y-55736896D01*
X102141314Y-55811147D01*
X101951014Y-55849000D01*
X101756986Y-55849000D01*
X101566686Y-55811147D01*
X101387428Y-55736896D01*
X101387427Y-55736896D01*
X101387426Y-55736895D01*
X101226098Y-55629098D01*
X101088902Y-55491902D01*
X100981105Y-55330574D01*
X100981104Y-55330572D01*
X100906853Y-55151314D01*
X100869000Y-54961014D01*
X100869000Y-54766986D01*
X100906853Y-54576686D01*
X100981104Y-54397428D01*
X101088901Y-54236099D01*
X101226099Y-54098901D01*
X101306214Y-54045370D01*
X101387426Y-53991105D01*
X101387428Y-53991104D01*
X101566686Y-53916853D01*
X101756986Y-53879000D01*
X101951014Y-53879000D01*
X102141314Y-53916853D01*
X102141314Y-53916853D01*
G37*
G36*
X104681314Y-53916853D02*
X104860572Y-53991104D01*
X104860574Y-53991105D01*
X104941786Y-54045370D01*
X105021901Y-54098901D01*
X105159099Y-54236099D01*
X105266896Y-54397428D01*
X105341147Y-54576686D01*
X105379000Y-54766986D01*
X105379000Y-54961014D01*
X105341147Y-55151314D01*
X105266896Y-55330572D01*
X105266895Y-55330574D01*
X105159098Y-55491902D01*
X105021902Y-55629098D01*
X104860574Y-55736895D01*
X104860573Y-55736896D01*
X104860572Y-55736896D01*
X104681314Y-55811147D01*
X104491014Y-55849000D01*
X104296986Y-55849000D01*
X104106686Y-55811147D01*
X103927428Y-55736896D01*
X103927427Y-55736896D01*
X103927426Y-55736895D01*
X103766098Y-55629098D01*
X103628902Y-55491902D01*
X103521105Y-55330574D01*
X103521104Y-55330572D01*
X103446853Y-55151314D01*
X103409000Y-54961014D01*
X103409000Y-54766986D01*
X103446853Y-54576686D01*
X103521104Y-54397428D01*
X103628901Y-54236099D01*
X103766099Y-54098901D01*
X103846214Y-54045370D01*
X103927426Y-53991105D01*
X103927428Y-53991104D01*
X104106686Y-53916853D01*
X104296986Y-53879000D01*
X104491014Y-53879000D01*
X104681314Y-53916853D01*
X104681314Y-53916853D01*
G37*
G36*
X99601314Y-53916853D02*
X99780572Y-53991104D01*
X99780574Y-53991105D01*
X99861786Y-54045370D01*
X99941901Y-54098901D01*
X100079099Y-54236099D01*
X100186896Y-54397428D01*
X100261147Y-54576686D01*
X100299000Y-54766986D01*
X100299000Y-54961014D01*
X100261147Y-55151314D01*
X100186896Y-55330572D01*
X100186895Y-55330574D01*
X100079098Y-55491902D01*
X99941902Y-55629098D01*
X99780574Y-55736895D01*
X99780573Y-55736896D01*
X99780572Y-55736896D01*
X99601314Y-55811147D01*
X99411014Y-55849000D01*
X99216986Y-55849000D01*
X99026686Y-55811147D01*
X98847428Y-55736896D01*
X98847427Y-55736896D01*
X98847426Y-55736895D01*
X98686098Y-55629098D01*
X98548902Y-55491902D01*
X98441105Y-55330574D01*
X98441104Y-55330572D01*
X98366853Y-55151314D01*
X98329000Y-54961014D01*
X98329000Y-54766986D01*
X98366853Y-54576686D01*
X98441104Y-54397428D01*
X98548901Y-54236099D01*
X98686099Y-54098901D01*
X98766214Y-54045370D01*
X98847426Y-53991105D01*
X98847428Y-53991104D01*
X99026686Y-53916853D01*
X99216986Y-53879000D01*
X99411014Y-53879000D01*
X99601314Y-53916853D01*
X99601314Y-53916853D01*
G37*
G36*
X107919000Y-55849000D02*
X105949000Y-55849000D01*
X105949000Y-53879000D01*
X107919000Y-53879000D01*
X107919000Y-55849000D01*
X107919000Y-55849000D01*
G37*
G36*
X110653404Y-50290303D02*
X110896361Y-50390939D01*
X111115015Y-50537039D01*
X111300961Y-50722985D01*
X111447061Y-50941639D01*
X111547697Y-51184596D01*
X111599000Y-51442512D01*
X111599000Y-51705488D01*
X111547697Y-51963404D01*
X111447061Y-52206361D01*
X111300961Y-52425015D01*
X111115015Y-52610961D01*
X110896361Y-52757061D01*
X110653404Y-52857697D01*
X110395488Y-52909000D01*
X110132512Y-52909000D01*
X109874596Y-52857697D01*
X109631639Y-52757061D01*
X109412985Y-52610961D01*
X109227039Y-52425015D01*
X109080939Y-52206361D01*
X108980303Y-51963404D01*
X108929000Y-51705488D01*
X108929000Y-51442512D01*
X108980303Y-51184596D01*
X109080939Y-50941639D01*
X109227039Y-50722985D01*
X109412985Y-50537039D01*
X109631639Y-50390939D01*
X109874596Y-50290303D01*
X110132512Y-50239000D01*
X110395488Y-50239000D01*
X110653404Y-50290303D01*
X110653404Y-50290303D01*
G37*
G36*
X95103404Y-50290303D02*
X95346361Y-50390939D01*
X95565015Y-50537039D01*
X95750961Y-50722985D01*
X95897061Y-50941639D01*
X95997697Y-51184596D01*
X96049000Y-51442512D01*
X96049000Y-51705488D01*
X95997697Y-51963404D01*
X95897061Y-52206361D01*
X95750961Y-52425015D01*
X95565015Y-52610961D01*
X95346361Y-52757061D01*
X95103404Y-52857697D01*
X94845488Y-52909000D01*
X94582512Y-52909000D01*
X94324596Y-52857697D01*
X94081639Y-52757061D01*
X93862985Y-52610961D01*
X93677039Y-52425015D01*
X93530939Y-52206361D01*
X93430303Y-51963404D01*
X93379000Y-51705488D01*
X93379000Y-51442512D01*
X93430303Y-51184596D01*
X93530939Y-50941639D01*
X93677039Y-50722985D01*
X93862985Y-50537039D01*
X94081639Y-50390939D01*
X94324596Y-50290303D01*
X94582512Y-50239000D01*
X94845488Y-50239000D01*
X95103404Y-50290303D01*
X95103404Y-50290303D01*
G37*
G36*
X173320682Y-49601206D02*
X173458998Y-49658497D01*
X173583474Y-49741670D01*
X173689330Y-49847526D01*
X173772503Y-49972002D01*
X173829794Y-50110318D01*
X173859000Y-50257145D01*
X173859000Y-50406855D01*
X173829794Y-50553682D01*
X173772503Y-50691998D01*
X173689330Y-50816474D01*
X173583474Y-50922330D01*
X173458998Y-51005503D01*
X173320682Y-51062794D01*
X173173855Y-51092000D01*
X173024145Y-51092000D01*
X172877318Y-51062794D01*
X172739002Y-51005503D01*
X172614526Y-50922330D01*
X172508670Y-50816474D01*
X172425497Y-50691998D01*
X172368206Y-50553682D01*
X172339000Y-50406855D01*
X172339000Y-50257145D01*
X172368206Y-50110318D01*
X172425497Y-49972002D01*
X172508670Y-49847526D01*
X172614526Y-49741670D01*
X172739002Y-49658497D01*
X172877318Y-49601206D01*
X173024145Y-49572000D01*
X173173855Y-49572000D01*
X173320682Y-49601206D01*
X173320682Y-49601206D01*
G37*
G36*
X108688204Y-46927793D02*
X108990305Y-47052927D01*
X108990307Y-47052928D01*
X109262190Y-47234595D01*
X109493405Y-47465810D01*
X109518497Y-47503363D01*
X109675073Y-47737695D01*
X109800207Y-48039796D01*
X109864000Y-48360504D01*
X109864000Y-48687496D01*
X109800207Y-49008204D01*
X109675073Y-49310305D01*
X109675072Y-49310307D01*
X109493405Y-49582190D01*
X109262190Y-49813405D01*
X108990307Y-49995072D01*
X108990306Y-49995073D01*
X108990305Y-49995073D01*
X108688204Y-50120207D01*
X108367496Y-50184000D01*
X108040504Y-50184000D01*
X107719796Y-50120207D01*
X107417695Y-49995073D01*
X107417694Y-49995073D01*
X107417693Y-49995072D01*
X107145810Y-49813405D01*
X106914595Y-49582190D01*
X106732928Y-49310307D01*
X106732927Y-49310305D01*
X106607793Y-49008204D01*
X106544000Y-48687496D01*
X106544000Y-48360504D01*
X106607793Y-48039796D01*
X106732927Y-47737695D01*
X106889503Y-47503363D01*
X106914595Y-47465810D01*
X107145810Y-47234595D01*
X107417693Y-47052928D01*
X107417695Y-47052927D01*
X107719796Y-46927793D01*
X108040504Y-46864000D01*
X108367496Y-46864000D01*
X108688204Y-46927793D01*
X108688204Y-46927793D01*
G37*
G36*
X97258204Y-46927793D02*
X97560305Y-47052927D01*
X97560307Y-47052928D01*
X97832190Y-47234595D01*
X98063405Y-47465810D01*
X98088497Y-47503363D01*
X98245073Y-47737695D01*
X98370207Y-48039796D01*
X98434000Y-48360504D01*
X98434000Y-48687496D01*
X98370207Y-49008204D01*
X98245073Y-49310305D01*
X98245072Y-49310307D01*
X98063405Y-49582190D01*
X97832190Y-49813405D01*
X97560307Y-49995072D01*
X97560306Y-49995073D01*
X97560305Y-49995073D01*
X97258204Y-50120207D01*
X96937496Y-50184000D01*
X96610504Y-50184000D01*
X96289796Y-50120207D01*
X95987695Y-49995073D01*
X95987694Y-49995073D01*
X95987693Y-49995072D01*
X95715810Y-49813405D01*
X95484595Y-49582190D01*
X95302928Y-49310307D01*
X95302927Y-49310305D01*
X95177793Y-49008204D01*
X95114000Y-48687496D01*
X95114000Y-48360504D01*
X95177793Y-48039796D01*
X95302927Y-47737695D01*
X95459503Y-47503363D01*
X95484595Y-47465810D01*
X95715810Y-47234595D01*
X95987693Y-47052928D01*
X95987695Y-47052927D01*
X96289796Y-46927793D01*
X96610504Y-46864000D01*
X96937496Y-46864000D01*
X97258204Y-46927793D01*
X97258204Y-46927793D01*
G37*
G36*
X176273482Y-48706188D02*
X176393180Y-48742498D01*
X176452144Y-48774015D01*
X176503493Y-48801462D01*
X176574822Y-48860000D01*
X176600185Y-48880815D01*
X176679537Y-48977506D01*
X176738502Y-49087820D01*
X176774812Y-49207518D01*
X176787072Y-49332000D01*
X176774812Y-49456482D01*
X176738502Y-49576180D01*
X176706985Y-49635144D01*
X176679538Y-49686493D01*
X176600185Y-49783185D01*
X176503493Y-49862538D01*
X176452144Y-49889985D01*
X176393180Y-49921502D01*
X176273482Y-49957812D01*
X176180192Y-49967000D01*
X175417808Y-49967000D01*
X175324518Y-49957812D01*
X175204820Y-49921502D01*
X175145856Y-49889985D01*
X175094507Y-49862538D01*
X174997815Y-49783185D01*
X174918462Y-49686493D01*
X174891015Y-49635144D01*
X174859498Y-49576180D01*
X174823188Y-49456482D01*
X174810928Y-49332000D01*
X174823188Y-49207518D01*
X174859498Y-49087820D01*
X174918463Y-48977506D01*
X174997815Y-48880815D01*
X175023178Y-48860000D01*
X175094507Y-48801462D01*
X175145856Y-48774015D01*
X175204820Y-48742498D01*
X175324518Y-48706188D01*
X175417808Y-48697000D01*
X176180192Y-48697000D01*
X176273482Y-48706188D01*
X176273482Y-48706188D01*
G37*
G36*
X46875236Y-46437460D02*
X47099992Y-46530557D01*
X47099994Y-46530558D01*
X47201818Y-46598595D01*
X47302267Y-46665713D01*
X47474287Y-46837733D01*
X47609443Y-47040008D01*
X47702540Y-47264764D01*
X47750000Y-47503363D01*
X47750000Y-47746637D01*
X47702540Y-47985236D01*
X47609443Y-48209992D01*
X47609442Y-48209994D01*
X47474286Y-48412268D01*
X47302268Y-48584286D01*
X47099994Y-48719442D01*
X47099993Y-48719443D01*
X47099992Y-48719443D01*
X46875236Y-48812540D01*
X46755936Y-48836270D01*
X46636638Y-48860000D01*
X46393362Y-48860000D01*
X46274064Y-48836270D01*
X46154764Y-48812540D01*
X45930008Y-48719443D01*
X45930007Y-48719443D01*
X45930006Y-48719442D01*
X45727732Y-48584286D01*
X45555714Y-48412268D01*
X45420558Y-48209994D01*
X45420557Y-48209992D01*
X45327460Y-47985236D01*
X45280000Y-47746637D01*
X45280000Y-47503363D01*
X45327460Y-47264764D01*
X45420557Y-47040008D01*
X45555713Y-46837733D01*
X45727733Y-46665713D01*
X45828182Y-46598595D01*
X45930006Y-46530558D01*
X45930008Y-46530557D01*
X46154764Y-46437460D01*
X46393362Y-46390000D01*
X46636638Y-46390000D01*
X46875236Y-46437460D01*
X46875236Y-46437460D01*
G37*
G36*
X41875236Y-46437460D02*
X42099992Y-46530557D01*
X42099994Y-46530558D01*
X42201818Y-46598595D01*
X42302267Y-46665713D01*
X42474287Y-46837733D01*
X42609443Y-47040008D01*
X42702540Y-47264764D01*
X42750000Y-47503363D01*
X42750000Y-47746637D01*
X42702540Y-47985236D01*
X42609443Y-48209992D01*
X42609442Y-48209994D01*
X42474286Y-48412268D01*
X42302268Y-48584286D01*
X42099994Y-48719442D01*
X42099993Y-48719443D01*
X42099992Y-48719443D01*
X41875236Y-48812540D01*
X41755936Y-48836270D01*
X41636638Y-48860000D01*
X41393362Y-48860000D01*
X41274064Y-48836270D01*
X41154764Y-48812540D01*
X40930008Y-48719443D01*
X40930007Y-48719443D01*
X40930006Y-48719442D01*
X40727732Y-48584286D01*
X40555714Y-48412268D01*
X40420558Y-48209994D01*
X40420557Y-48209992D01*
X40327460Y-47985236D01*
X40280000Y-47746637D01*
X40280000Y-47503363D01*
X40327460Y-47264764D01*
X40420557Y-47040008D01*
X40555713Y-46837733D01*
X40727733Y-46665713D01*
X40828182Y-46598595D01*
X40930006Y-46530558D01*
X40930008Y-46530557D01*
X41154764Y-46437460D01*
X41393362Y-46390000D01*
X41636638Y-46390000D01*
X41875236Y-46437460D01*
X41875236Y-46437460D01*
G37*
G36*
X56875236Y-46437460D02*
X57099992Y-46530557D01*
X57099994Y-46530558D01*
X57201818Y-46598595D01*
X57302267Y-46665713D01*
X57474287Y-46837733D01*
X57609443Y-47040008D01*
X57702540Y-47264764D01*
X57750000Y-47503363D01*
X57750000Y-47746637D01*
X57702540Y-47985236D01*
X57609443Y-48209992D01*
X57609442Y-48209994D01*
X57474286Y-48412268D01*
X57302268Y-48584286D01*
X57099994Y-48719442D01*
X57099993Y-48719443D01*
X57099992Y-48719443D01*
X56875236Y-48812540D01*
X56755936Y-48836270D01*
X56636638Y-48860000D01*
X56393362Y-48860000D01*
X56274064Y-48836270D01*
X56154764Y-48812540D01*
X55930008Y-48719443D01*
X55930007Y-48719443D01*
X55930006Y-48719442D01*
X55727732Y-48584286D01*
X55555714Y-48412268D01*
X55420558Y-48209994D01*
X55420557Y-48209992D01*
X55327460Y-47985236D01*
X55280000Y-47746637D01*
X55280000Y-47503363D01*
X55327460Y-47264764D01*
X55420557Y-47040008D01*
X55555713Y-46837733D01*
X55727733Y-46665713D01*
X55828182Y-46598595D01*
X55930006Y-46530558D01*
X55930008Y-46530557D01*
X56154764Y-46437460D01*
X56393362Y-46390000D01*
X56636638Y-46390000D01*
X56875236Y-46437460D01*
X56875236Y-46437460D01*
G37*
G36*
X51875236Y-46437460D02*
X52099992Y-46530557D01*
X52099994Y-46530558D01*
X52201818Y-46598595D01*
X52302267Y-46665713D01*
X52474287Y-46837733D01*
X52609443Y-47040008D01*
X52702540Y-47264764D01*
X52750000Y-47503363D01*
X52750000Y-47746637D01*
X52702540Y-47985236D01*
X52609443Y-48209992D01*
X52609442Y-48209994D01*
X52474286Y-48412268D01*
X52302268Y-48584286D01*
X52099994Y-48719442D01*
X52099993Y-48719443D01*
X52099992Y-48719443D01*
X51875236Y-48812540D01*
X51755936Y-48836270D01*
X51636638Y-48860000D01*
X51393362Y-48860000D01*
X51274064Y-48836270D01*
X51154764Y-48812540D01*
X50930008Y-48719443D01*
X50930007Y-48719443D01*
X50930006Y-48719442D01*
X50727732Y-48584286D01*
X50555714Y-48412268D01*
X50420558Y-48209994D01*
X50420557Y-48209992D01*
X50327460Y-47985236D01*
X50280000Y-47746637D01*
X50280000Y-47503363D01*
X50327460Y-47264764D01*
X50420557Y-47040008D01*
X50555713Y-46837733D01*
X50727733Y-46665713D01*
X50828182Y-46598595D01*
X50930006Y-46530558D01*
X50930008Y-46530557D01*
X51154764Y-46437460D01*
X51393362Y-46390000D01*
X51636638Y-46390000D01*
X51875236Y-46437460D01*
X51875236Y-46437460D01*
G37*
G36*
X170563339Y-42856968D02*
X170960988Y-43021678D01*
X171318858Y-43260800D01*
X171623200Y-43565142D01*
X171862322Y-43923012D01*
X172027032Y-44320661D01*
X172111000Y-44742795D01*
X172111000Y-45173205D01*
X172027032Y-45595339D01*
X171862322Y-45992988D01*
X171623200Y-46350858D01*
X171318858Y-46655200D01*
X170960988Y-46894322D01*
X170563339Y-47059032D01*
X170141205Y-47143000D01*
X169710795Y-47143000D01*
X169288661Y-47059032D01*
X168891012Y-46894322D01*
X168533142Y-46655200D01*
X168228800Y-46350858D01*
X167989678Y-45992988D01*
X167824968Y-45595339D01*
X167741000Y-45173205D01*
X167741000Y-44742795D01*
X167824968Y-44320661D01*
X167989678Y-43923012D01*
X168228800Y-43565142D01*
X168533142Y-43260800D01*
X168891012Y-43021678D01*
X169288661Y-42856968D01*
X169710795Y-42773000D01*
X170141205Y-42773000D01*
X170563339Y-42856968D01*
X170563339Y-42856968D01*
G37*
G36*
X29148839Y-42856968D02*
X29546488Y-43021678D01*
X29904358Y-43260800D01*
X30208700Y-43565142D01*
X30447822Y-43923012D01*
X30612532Y-44320661D01*
X30696500Y-44742795D01*
X30696500Y-45173205D01*
X30612532Y-45595339D01*
X30447822Y-45992988D01*
X30208700Y-46350858D01*
X29904358Y-46655200D01*
X29546488Y-46894322D01*
X29148839Y-47059032D01*
X28726705Y-47143000D01*
X28296295Y-47143000D01*
X27874161Y-47059032D01*
X27476512Y-46894322D01*
X27118642Y-46655200D01*
X26814300Y-46350858D01*
X26575178Y-45992988D01*
X26410468Y-45595339D01*
X26326500Y-45173205D01*
X26326500Y-44742795D01*
X26410468Y-44320661D01*
X26575178Y-43923012D01*
X26814300Y-43565142D01*
X27118642Y-43260800D01*
X27476512Y-43021678D01*
X27874161Y-42856968D01*
X28296295Y-42773000D01*
X28726705Y-42773000D01*
X29148839Y-42856968D01*
X29148839Y-42856968D01*
G37*
G36*
X106559856Y-44201661D02*
X106616201Y-44225000D01*
X106738207Y-44275536D01*
X106898715Y-44382785D01*
X107035215Y-44519285D01*
X107142464Y-44679793D01*
X107142465Y-44679796D01*
X107216339Y-44858144D01*
X107254000Y-45047478D01*
X107254000Y-45240522D01*
X107216339Y-45429856D01*
X107201317Y-45466122D01*
X107142464Y-45608207D01*
X107067685Y-45720121D01*
X107035216Y-45768714D01*
X106898714Y-45905216D01*
X106888634Y-45911951D01*
X106738207Y-46012464D01*
X106672324Y-46039753D01*
X106559856Y-46086339D01*
X106370522Y-46124000D01*
X106177478Y-46124000D01*
X105988144Y-46086339D01*
X105875676Y-46039753D01*
X105809793Y-46012464D01*
X105659366Y-45911951D01*
X105649286Y-45905216D01*
X105512784Y-45768714D01*
X105480315Y-45720121D01*
X105405536Y-45608207D01*
X105346683Y-45466122D01*
X105331661Y-45429856D01*
X105294000Y-45240522D01*
X105294000Y-45047478D01*
X105331661Y-44858144D01*
X105405535Y-44679796D01*
X105405536Y-44679793D01*
X105512785Y-44519285D01*
X105649285Y-44382785D01*
X105809793Y-44275536D01*
X105931799Y-44225000D01*
X105988144Y-44201661D01*
X106177478Y-44164000D01*
X106370522Y-44164000D01*
X106559856Y-44201661D01*
X106559856Y-44201661D01*
G37*
G36*
X96449856Y-44201661D02*
X96506201Y-44225000D01*
X96628207Y-44275536D01*
X96788715Y-44382785D01*
X96925215Y-44519285D01*
X97032464Y-44679793D01*
X97032465Y-44679796D01*
X97106339Y-44858144D01*
X97144000Y-45047478D01*
X97144000Y-45240522D01*
X97106339Y-45429856D01*
X97091317Y-45466122D01*
X97032464Y-45608207D01*
X96957685Y-45720121D01*
X96925216Y-45768714D01*
X96788714Y-45905216D01*
X96778634Y-45911951D01*
X96628207Y-46012464D01*
X96562324Y-46039753D01*
X96449856Y-46086339D01*
X96260522Y-46124000D01*
X96067478Y-46124000D01*
X95878144Y-46086339D01*
X95765676Y-46039753D01*
X95699793Y-46012464D01*
X95549366Y-45911951D01*
X95539286Y-45905216D01*
X95402784Y-45768714D01*
X95370315Y-45720121D01*
X95295536Y-45608207D01*
X95236683Y-45466122D01*
X95221661Y-45429856D01*
X95184000Y-45240522D01*
X95184000Y-45047478D01*
X95221661Y-44858144D01*
X95295535Y-44679796D01*
X95295536Y-44679793D01*
X95402785Y-44519285D01*
X95539285Y-44382785D01*
X95699793Y-44275536D01*
X95821799Y-44225000D01*
X95878144Y-44201661D01*
X96067478Y-44164000D01*
X96260522Y-44164000D01*
X96449856Y-44201661D01*
X96449856Y-44201661D01*
G37*
G36*
X132744853Y-44258049D02*
X132901363Y-44322878D01*
X132901365Y-44322879D01*
X133042220Y-44416996D01*
X133162004Y-44536780D01*
X133217141Y-44619298D01*
X133256122Y-44677637D01*
X133320951Y-44834147D01*
X133354000Y-45000297D01*
X133354000Y-45169703D01*
X133320951Y-45335853D01*
X133266991Y-45466122D01*
X133256121Y-45492365D01*
X133162004Y-45633220D01*
X133042220Y-45753004D01*
X132901365Y-45847121D01*
X132901364Y-45847122D01*
X132901363Y-45847122D01*
X132744853Y-45911951D01*
X132578703Y-45945000D01*
X132409297Y-45945000D01*
X132243147Y-45911951D01*
X132086637Y-45847122D01*
X132086636Y-45847122D01*
X132086635Y-45847121D01*
X131945780Y-45753004D01*
X131825996Y-45633220D01*
X131731879Y-45492365D01*
X131721009Y-45466122D01*
X131667049Y-45335853D01*
X131634000Y-45169703D01*
X131634000Y-45000297D01*
X131667049Y-44834147D01*
X131731878Y-44677637D01*
X131770859Y-44619298D01*
X131825996Y-44536780D01*
X131945780Y-44416996D01*
X132086635Y-44322879D01*
X132086637Y-44322878D01*
X132243147Y-44258049D01*
X132409297Y-44225000D01*
X132578703Y-44225000D01*
X132744853Y-44258049D01*
X132744853Y-44258049D01*
G37*
G36*
X130244853Y-44258049D02*
X130401363Y-44322878D01*
X130401365Y-44322879D01*
X130542220Y-44416996D01*
X130662004Y-44536780D01*
X130717141Y-44619298D01*
X130756122Y-44677637D01*
X130820951Y-44834147D01*
X130854000Y-45000297D01*
X130854000Y-45169703D01*
X130820951Y-45335853D01*
X130766991Y-45466122D01*
X130756121Y-45492365D01*
X130662004Y-45633220D01*
X130542220Y-45753004D01*
X130401365Y-45847121D01*
X130401364Y-45847122D01*
X130401363Y-45847122D01*
X130244853Y-45911951D01*
X130078703Y-45945000D01*
X129909297Y-45945000D01*
X129743147Y-45911951D01*
X129586637Y-45847122D01*
X129586636Y-45847122D01*
X129586635Y-45847121D01*
X129445780Y-45753004D01*
X129325996Y-45633220D01*
X129231879Y-45492365D01*
X129221009Y-45466122D01*
X129167049Y-45335853D01*
X129134000Y-45169703D01*
X129134000Y-45000297D01*
X129167049Y-44834147D01*
X129231878Y-44677637D01*
X129270859Y-44619298D01*
X129325996Y-44536780D01*
X129445780Y-44416996D01*
X129586635Y-44322879D01*
X129586637Y-44322878D01*
X129743147Y-44258049D01*
X129909297Y-44225000D01*
X130078703Y-44225000D01*
X130244853Y-44258049D01*
X130244853Y-44258049D01*
G37*
G36*
X135244853Y-44258049D02*
X135401363Y-44322878D01*
X135401365Y-44322879D01*
X135542220Y-44416996D01*
X135662004Y-44536780D01*
X135717141Y-44619298D01*
X135756122Y-44677637D01*
X135820951Y-44834147D01*
X135854000Y-45000297D01*
X135854000Y-45169703D01*
X135820951Y-45335853D01*
X135766991Y-45466122D01*
X135756121Y-45492365D01*
X135662004Y-45633220D01*
X135542220Y-45753004D01*
X135401365Y-45847121D01*
X135401364Y-45847122D01*
X135401363Y-45847122D01*
X135244853Y-45911951D01*
X135078703Y-45945000D01*
X134909297Y-45945000D01*
X134743147Y-45911951D01*
X134586637Y-45847122D01*
X134586636Y-45847122D01*
X134586635Y-45847121D01*
X134445780Y-45753004D01*
X134325996Y-45633220D01*
X134231879Y-45492365D01*
X134221009Y-45466122D01*
X134167049Y-45335853D01*
X134134000Y-45169703D01*
X134134000Y-45000297D01*
X134167049Y-44834147D01*
X134231878Y-44677637D01*
X134270859Y-44619298D01*
X134325996Y-44536780D01*
X134445780Y-44416996D01*
X134586635Y-44322879D01*
X134586637Y-44322878D01*
X134743147Y-44258049D01*
X134909297Y-44225000D01*
X135078703Y-44225000D01*
X135244853Y-44258049D01*
X135244853Y-44258049D01*
G37*
G36*
X140244853Y-44258049D02*
X140401363Y-44322878D01*
X140401365Y-44322879D01*
X140542220Y-44416996D01*
X140662004Y-44536780D01*
X140717141Y-44619298D01*
X140756122Y-44677637D01*
X140820951Y-44834147D01*
X140854000Y-45000297D01*
X140854000Y-45169703D01*
X140820951Y-45335853D01*
X140766991Y-45466122D01*
X140756121Y-45492365D01*
X140662004Y-45633220D01*
X140542220Y-45753004D01*
X140401365Y-45847121D01*
X140401364Y-45847122D01*
X140401363Y-45847122D01*
X140244853Y-45911951D01*
X140078703Y-45945000D01*
X139909297Y-45945000D01*
X139743147Y-45911951D01*
X139586637Y-45847122D01*
X139586636Y-45847122D01*
X139586635Y-45847121D01*
X139445780Y-45753004D01*
X139325996Y-45633220D01*
X139231879Y-45492365D01*
X139221009Y-45466122D01*
X139167049Y-45335853D01*
X139134000Y-45169703D01*
X139134000Y-45000297D01*
X139167049Y-44834147D01*
X139231878Y-44677637D01*
X139270859Y-44619298D01*
X139325996Y-44536780D01*
X139445780Y-44416996D01*
X139586635Y-44322879D01*
X139586637Y-44322878D01*
X139743147Y-44258049D01*
X139909297Y-44225000D01*
X140078703Y-44225000D01*
X140244853Y-44258049D01*
X140244853Y-44258049D01*
G37*
G36*
X142744853Y-44258049D02*
X142901363Y-44322878D01*
X142901365Y-44322879D01*
X143042220Y-44416996D01*
X143162004Y-44536780D01*
X143217141Y-44619298D01*
X143256122Y-44677637D01*
X143320951Y-44834147D01*
X143354000Y-45000297D01*
X143354000Y-45169703D01*
X143320951Y-45335853D01*
X143266991Y-45466122D01*
X143256121Y-45492365D01*
X143162004Y-45633220D01*
X143042220Y-45753004D01*
X142901365Y-45847121D01*
X142901364Y-45847122D01*
X142901363Y-45847122D01*
X142744853Y-45911951D01*
X142578703Y-45945000D01*
X142409297Y-45945000D01*
X142243147Y-45911951D01*
X142086637Y-45847122D01*
X142086636Y-45847122D01*
X142086635Y-45847121D01*
X141945780Y-45753004D01*
X141825996Y-45633220D01*
X141731879Y-45492365D01*
X141721009Y-45466122D01*
X141667049Y-45335853D01*
X141634000Y-45169703D01*
X141634000Y-45000297D01*
X141667049Y-44834147D01*
X141731878Y-44677637D01*
X141770859Y-44619298D01*
X141825996Y-44536780D01*
X141945780Y-44416996D01*
X142086635Y-44322879D01*
X142086637Y-44322878D01*
X142243147Y-44258049D01*
X142409297Y-44225000D01*
X142578703Y-44225000D01*
X142744853Y-44258049D01*
X142744853Y-44258049D01*
G37*
G36*
X155437853Y-44258049D02*
X155594363Y-44322878D01*
X155594365Y-44322879D01*
X155735220Y-44416996D01*
X155855004Y-44536780D01*
X155910141Y-44619298D01*
X155949122Y-44677637D01*
X156013951Y-44834147D01*
X156047000Y-45000297D01*
X156047000Y-45169703D01*
X156013951Y-45335853D01*
X155959991Y-45466122D01*
X155949121Y-45492365D01*
X155855004Y-45633220D01*
X155735220Y-45753004D01*
X155594365Y-45847121D01*
X155594364Y-45847122D01*
X155594363Y-45847122D01*
X155437853Y-45911951D01*
X155271703Y-45945000D01*
X155102297Y-45945000D01*
X154936147Y-45911951D01*
X154779637Y-45847122D01*
X154779636Y-45847122D01*
X154779635Y-45847121D01*
X154638780Y-45753004D01*
X154518996Y-45633220D01*
X154424879Y-45492365D01*
X154414009Y-45466122D01*
X154360049Y-45335853D01*
X154327000Y-45169703D01*
X154327000Y-45000297D01*
X154360049Y-44834147D01*
X154424878Y-44677637D01*
X154463859Y-44619298D01*
X154518996Y-44536780D01*
X154638780Y-44416996D01*
X154779635Y-44322879D01*
X154779637Y-44322878D01*
X154936147Y-44258049D01*
X155102297Y-44225000D01*
X155271703Y-44225000D01*
X155437853Y-44258049D01*
X155437853Y-44258049D01*
G37*
G36*
X157937853Y-44258049D02*
X158094363Y-44322878D01*
X158094365Y-44322879D01*
X158235220Y-44416996D01*
X158355004Y-44536780D01*
X158410141Y-44619298D01*
X158449122Y-44677637D01*
X158513951Y-44834147D01*
X158547000Y-45000297D01*
X158547000Y-45169703D01*
X158513951Y-45335853D01*
X158459991Y-45466122D01*
X158449121Y-45492365D01*
X158355004Y-45633220D01*
X158235220Y-45753004D01*
X158094365Y-45847121D01*
X158094364Y-45847122D01*
X158094363Y-45847122D01*
X157937853Y-45911951D01*
X157771703Y-45945000D01*
X157602297Y-45945000D01*
X157436147Y-45911951D01*
X157279637Y-45847122D01*
X157279636Y-45847122D01*
X157279635Y-45847121D01*
X157138780Y-45753004D01*
X157018996Y-45633220D01*
X156924879Y-45492365D01*
X156914009Y-45466122D01*
X156860049Y-45335853D01*
X156827000Y-45169703D01*
X156827000Y-45000297D01*
X156860049Y-44834147D01*
X156924878Y-44677637D01*
X156963859Y-44619298D01*
X157018996Y-44536780D01*
X157138780Y-44416996D01*
X157279635Y-44322879D01*
X157279637Y-44322878D01*
X157436147Y-44258049D01*
X157602297Y-44225000D01*
X157771703Y-44225000D01*
X157937853Y-44258049D01*
X157937853Y-44258049D01*
G37*
G36*
X160437853Y-44258049D02*
X160594363Y-44322878D01*
X160594365Y-44322879D01*
X160735220Y-44416996D01*
X160855004Y-44536780D01*
X160910141Y-44619298D01*
X160949122Y-44677637D01*
X161013951Y-44834147D01*
X161047000Y-45000297D01*
X161047000Y-45169703D01*
X161013951Y-45335853D01*
X160959991Y-45466122D01*
X160949121Y-45492365D01*
X160855004Y-45633220D01*
X160735220Y-45753004D01*
X160594365Y-45847121D01*
X160594364Y-45847122D01*
X160594363Y-45847122D01*
X160437853Y-45911951D01*
X160271703Y-45945000D01*
X160102297Y-45945000D01*
X159936147Y-45911951D01*
X159779637Y-45847122D01*
X159779636Y-45847122D01*
X159779635Y-45847121D01*
X159638780Y-45753004D01*
X159518996Y-45633220D01*
X159424879Y-45492365D01*
X159414009Y-45466122D01*
X159360049Y-45335853D01*
X159327000Y-45169703D01*
X159327000Y-45000297D01*
X159360049Y-44834147D01*
X159424878Y-44677637D01*
X159463859Y-44619298D01*
X159518996Y-44536780D01*
X159638780Y-44416996D01*
X159779635Y-44322879D01*
X159779637Y-44322878D01*
X159936147Y-44258049D01*
X160102297Y-44225000D01*
X160271703Y-44225000D01*
X160437853Y-44258049D01*
X160437853Y-44258049D01*
G37*
G36*
X162937853Y-44258049D02*
X163094363Y-44322878D01*
X163094365Y-44322879D01*
X163235220Y-44416996D01*
X163355004Y-44536780D01*
X163410141Y-44619298D01*
X163449122Y-44677637D01*
X163513951Y-44834147D01*
X163547000Y-45000297D01*
X163547000Y-45169703D01*
X163513951Y-45335853D01*
X163459991Y-45466122D01*
X163449121Y-45492365D01*
X163355004Y-45633220D01*
X163235220Y-45753004D01*
X163094365Y-45847121D01*
X163094364Y-45847122D01*
X163094363Y-45847122D01*
X162937853Y-45911951D01*
X162771703Y-45945000D01*
X162602297Y-45945000D01*
X162436147Y-45911951D01*
X162279637Y-45847122D01*
X162279636Y-45847122D01*
X162279635Y-45847121D01*
X162138780Y-45753004D01*
X162018996Y-45633220D01*
X161924879Y-45492365D01*
X161914009Y-45466122D01*
X161860049Y-45335853D01*
X161827000Y-45169703D01*
X161827000Y-45000297D01*
X161860049Y-44834147D01*
X161924878Y-44677637D01*
X161963859Y-44619298D01*
X162018996Y-44536780D01*
X162138780Y-44416996D01*
X162279635Y-44322879D01*
X162279637Y-44322878D01*
X162436147Y-44258049D01*
X162602297Y-44225000D01*
X162771703Y-44225000D01*
X162937853Y-44258049D01*
X162937853Y-44258049D01*
G37*
G36*
X137744853Y-44258049D02*
X137901363Y-44322878D01*
X137901365Y-44322879D01*
X138042220Y-44416996D01*
X138162004Y-44536780D01*
X138217141Y-44619298D01*
X138256122Y-44677637D01*
X138320951Y-44834147D01*
X138354000Y-45000297D01*
X138354000Y-45169703D01*
X138320951Y-45335853D01*
X138266991Y-45466122D01*
X138256121Y-45492365D01*
X138162004Y-45633220D01*
X138042220Y-45753004D01*
X137901365Y-45847121D01*
X137901364Y-45847122D01*
X137901363Y-45847122D01*
X137744853Y-45911951D01*
X137578703Y-45945000D01*
X137409297Y-45945000D01*
X137243147Y-45911951D01*
X137086637Y-45847122D01*
X137086636Y-45847122D01*
X137086635Y-45847121D01*
X136945780Y-45753004D01*
X136825996Y-45633220D01*
X136731879Y-45492365D01*
X136721009Y-45466122D01*
X136667049Y-45335853D01*
X136634000Y-45169703D01*
X136634000Y-45000297D01*
X136667049Y-44834147D01*
X136731878Y-44677637D01*
X136770859Y-44619298D01*
X136825996Y-44536780D01*
X136945780Y-44416996D01*
X137086635Y-44322879D01*
X137086637Y-44322878D01*
X137243147Y-44258049D01*
X137409297Y-44225000D01*
X137578703Y-44225000D01*
X137744853Y-44258049D01*
X137744853Y-44258049D01*
G37*
G36*
X152937853Y-44258049D02*
X153094363Y-44322878D01*
X153094365Y-44322879D01*
X153235220Y-44416996D01*
X153355004Y-44536780D01*
X153410141Y-44619298D01*
X153449122Y-44677637D01*
X153513951Y-44834147D01*
X153547000Y-45000297D01*
X153547000Y-45169703D01*
X153513951Y-45335853D01*
X153459991Y-45466122D01*
X153449121Y-45492365D01*
X153355004Y-45633220D01*
X153235220Y-45753004D01*
X153094365Y-45847121D01*
X153094364Y-45847122D01*
X153094363Y-45847122D01*
X152937853Y-45911951D01*
X152771703Y-45945000D01*
X152602297Y-45945000D01*
X152436147Y-45911951D01*
X152279637Y-45847122D01*
X152279636Y-45847122D01*
X152279635Y-45847121D01*
X152138780Y-45753004D01*
X152018996Y-45633220D01*
X151924879Y-45492365D01*
X151914009Y-45466122D01*
X151860049Y-45335853D01*
X151827000Y-45169703D01*
X151827000Y-45000297D01*
X151860049Y-44834147D01*
X151924878Y-44677637D01*
X151963859Y-44619298D01*
X152018996Y-44536780D01*
X152138780Y-44416996D01*
X152279635Y-44322879D01*
X152279637Y-44322878D01*
X152436147Y-44258049D01*
X152602297Y-44225000D01*
X152771703Y-44225000D01*
X152937853Y-44258049D01*
X152937853Y-44258049D01*
G37*
G36*
X76864853Y-44131049D02*
X77021363Y-44195878D01*
X77021365Y-44195879D01*
X77162220Y-44289996D01*
X77282004Y-44409780D01*
X77376121Y-44550635D01*
X77376122Y-44550637D01*
X77440951Y-44707147D01*
X77474000Y-44873297D01*
X77474000Y-45042703D01*
X77440951Y-45208853D01*
X77376122Y-45365363D01*
X77376121Y-45365365D01*
X77282004Y-45506220D01*
X77162220Y-45626004D01*
X77021365Y-45720121D01*
X77021364Y-45720122D01*
X77021363Y-45720122D01*
X76864853Y-45784951D01*
X76698703Y-45818000D01*
X76529297Y-45818000D01*
X76363147Y-45784951D01*
X76206637Y-45720122D01*
X76206636Y-45720122D01*
X76206635Y-45720121D01*
X76065780Y-45626004D01*
X75945996Y-45506220D01*
X75851879Y-45365365D01*
X75851878Y-45365363D01*
X75787049Y-45208853D01*
X75754000Y-45042703D01*
X75754000Y-44873297D01*
X75787049Y-44707147D01*
X75851878Y-44550637D01*
X75851879Y-44550635D01*
X75945996Y-44409780D01*
X76065780Y-44289996D01*
X76206635Y-44195879D01*
X76206637Y-44195878D01*
X76363147Y-44131049D01*
X76529297Y-44098000D01*
X76698703Y-44098000D01*
X76864853Y-44131049D01*
X76864853Y-44131049D01*
G37*
G36*
X86864853Y-44131049D02*
X87021363Y-44195878D01*
X87021365Y-44195879D01*
X87162220Y-44289996D01*
X87282004Y-44409780D01*
X87376121Y-44550635D01*
X87376122Y-44550637D01*
X87440951Y-44707147D01*
X87474000Y-44873297D01*
X87474000Y-45042703D01*
X87440951Y-45208853D01*
X87376122Y-45365363D01*
X87376121Y-45365365D01*
X87282004Y-45506220D01*
X87162220Y-45626004D01*
X87021365Y-45720121D01*
X87021364Y-45720122D01*
X87021363Y-45720122D01*
X86864853Y-45784951D01*
X86698703Y-45818000D01*
X86529297Y-45818000D01*
X86363147Y-45784951D01*
X86206637Y-45720122D01*
X86206636Y-45720122D01*
X86206635Y-45720121D01*
X86065780Y-45626004D01*
X85945996Y-45506220D01*
X85851879Y-45365365D01*
X85851878Y-45365363D01*
X85787049Y-45208853D01*
X85754000Y-45042703D01*
X85754000Y-44873297D01*
X85787049Y-44707147D01*
X85851878Y-44550637D01*
X85851879Y-44550635D01*
X85945996Y-44409780D01*
X86065780Y-44289996D01*
X86206635Y-44195879D01*
X86206637Y-44195878D01*
X86363147Y-44131049D01*
X86529297Y-44098000D01*
X86698703Y-44098000D01*
X86864853Y-44131049D01*
X86864853Y-44131049D01*
G37*
G36*
X84364853Y-44131049D02*
X84521363Y-44195878D01*
X84521365Y-44195879D01*
X84662220Y-44289996D01*
X84782004Y-44409780D01*
X84876121Y-44550635D01*
X84876122Y-44550637D01*
X84940951Y-44707147D01*
X84974000Y-44873297D01*
X84974000Y-45042703D01*
X84940951Y-45208853D01*
X84876122Y-45365363D01*
X84876121Y-45365365D01*
X84782004Y-45506220D01*
X84662220Y-45626004D01*
X84521365Y-45720121D01*
X84521364Y-45720122D01*
X84521363Y-45720122D01*
X84364853Y-45784951D01*
X84198703Y-45818000D01*
X84029297Y-45818000D01*
X83863147Y-45784951D01*
X83706637Y-45720122D01*
X83706636Y-45720122D01*
X83706635Y-45720121D01*
X83565780Y-45626004D01*
X83445996Y-45506220D01*
X83351879Y-45365365D01*
X83351878Y-45365363D01*
X83287049Y-45208853D01*
X83254000Y-45042703D01*
X83254000Y-44873297D01*
X83287049Y-44707147D01*
X83351878Y-44550637D01*
X83351879Y-44550635D01*
X83445996Y-44409780D01*
X83565780Y-44289996D01*
X83706635Y-44195879D01*
X83706637Y-44195878D01*
X83863147Y-44131049D01*
X84029297Y-44098000D01*
X84198703Y-44098000D01*
X84364853Y-44131049D01*
X84364853Y-44131049D01*
G37*
G36*
X81864853Y-44131049D02*
X82021363Y-44195878D01*
X82021365Y-44195879D01*
X82162220Y-44289996D01*
X82282004Y-44409780D01*
X82376121Y-44550635D01*
X82376122Y-44550637D01*
X82440951Y-44707147D01*
X82474000Y-44873297D01*
X82474000Y-45042703D01*
X82440951Y-45208853D01*
X82376122Y-45365363D01*
X82376121Y-45365365D01*
X82282004Y-45506220D01*
X82162220Y-45626004D01*
X82021365Y-45720121D01*
X82021364Y-45720122D01*
X82021363Y-45720122D01*
X81864853Y-45784951D01*
X81698703Y-45818000D01*
X81529297Y-45818000D01*
X81363147Y-45784951D01*
X81206637Y-45720122D01*
X81206636Y-45720122D01*
X81206635Y-45720121D01*
X81065780Y-45626004D01*
X80945996Y-45506220D01*
X80851879Y-45365365D01*
X80851878Y-45365363D01*
X80787049Y-45208853D01*
X80754000Y-45042703D01*
X80754000Y-44873297D01*
X80787049Y-44707147D01*
X80851878Y-44550637D01*
X80851879Y-44550635D01*
X80945996Y-44409780D01*
X81065780Y-44289996D01*
X81206635Y-44195879D01*
X81206637Y-44195878D01*
X81363147Y-44131049D01*
X81529297Y-44098000D01*
X81698703Y-44098000D01*
X81864853Y-44131049D01*
X81864853Y-44131049D01*
G37*
G36*
X79364853Y-44131049D02*
X79521363Y-44195878D01*
X79521365Y-44195879D01*
X79662220Y-44289996D01*
X79782004Y-44409780D01*
X79876121Y-44550635D01*
X79876122Y-44550637D01*
X79940951Y-44707147D01*
X79974000Y-44873297D01*
X79974000Y-45042703D01*
X79940951Y-45208853D01*
X79876122Y-45365363D01*
X79876121Y-45365365D01*
X79782004Y-45506220D01*
X79662220Y-45626004D01*
X79521365Y-45720121D01*
X79521364Y-45720122D01*
X79521363Y-45720122D01*
X79364853Y-45784951D01*
X79198703Y-45818000D01*
X79029297Y-45818000D01*
X78863147Y-45784951D01*
X78706637Y-45720122D01*
X78706636Y-45720122D01*
X78706635Y-45720121D01*
X78565780Y-45626004D01*
X78445996Y-45506220D01*
X78351879Y-45365365D01*
X78351878Y-45365363D01*
X78287049Y-45208853D01*
X78254000Y-45042703D01*
X78254000Y-44873297D01*
X78287049Y-44707147D01*
X78351878Y-44550637D01*
X78351879Y-44550635D01*
X78445996Y-44409780D01*
X78565780Y-44289996D01*
X78706635Y-44195879D01*
X78706637Y-44195878D01*
X78863147Y-44131049D01*
X79029297Y-44098000D01*
X79198703Y-44098000D01*
X79364853Y-44131049D01*
X79364853Y-44131049D01*
G37*
G36*
X74364853Y-44131049D02*
X74521363Y-44195878D01*
X74521365Y-44195879D01*
X74662220Y-44289996D01*
X74782004Y-44409780D01*
X74876121Y-44550635D01*
X74876122Y-44550637D01*
X74940951Y-44707147D01*
X74974000Y-44873297D01*
X74974000Y-45042703D01*
X74940951Y-45208853D01*
X74876122Y-45365363D01*
X74876121Y-45365365D01*
X74782004Y-45506220D01*
X74662220Y-45626004D01*
X74521365Y-45720121D01*
X74521364Y-45720122D01*
X74521363Y-45720122D01*
X74364853Y-45784951D01*
X74198703Y-45818000D01*
X74029297Y-45818000D01*
X73863147Y-45784951D01*
X73706637Y-45720122D01*
X73706636Y-45720122D01*
X73706635Y-45720121D01*
X73565780Y-45626004D01*
X73445996Y-45506220D01*
X73351879Y-45365365D01*
X73351878Y-45365363D01*
X73287049Y-45208853D01*
X73254000Y-45042703D01*
X73254000Y-44873297D01*
X73287049Y-44707147D01*
X73351878Y-44550637D01*
X73351879Y-44550635D01*
X73445996Y-44409780D01*
X73565780Y-44289996D01*
X73706635Y-44195879D01*
X73706637Y-44195878D01*
X73863147Y-44131049D01*
X74029297Y-44098000D01*
X74198703Y-44098000D01*
X74364853Y-44131049D01*
X74364853Y-44131049D01*
G37*
G36*
X71864853Y-44131049D02*
X72021363Y-44195878D01*
X72021365Y-44195879D01*
X72162220Y-44289996D01*
X72282004Y-44409780D01*
X72376121Y-44550635D01*
X72376122Y-44550637D01*
X72440951Y-44707147D01*
X72474000Y-44873297D01*
X72474000Y-45042703D01*
X72440951Y-45208853D01*
X72376122Y-45365363D01*
X72376121Y-45365365D01*
X72282004Y-45506220D01*
X72162220Y-45626004D01*
X72021365Y-45720121D01*
X72021364Y-45720122D01*
X72021363Y-45720122D01*
X71864853Y-45784951D01*
X71698703Y-45818000D01*
X71529297Y-45818000D01*
X71363147Y-45784951D01*
X71206637Y-45720122D01*
X71206636Y-45720122D01*
X71206635Y-45720121D01*
X71065780Y-45626004D01*
X70945996Y-45506220D01*
X70851879Y-45365365D01*
X70851878Y-45365363D01*
X70787049Y-45208853D01*
X70754000Y-45042703D01*
X70754000Y-44873297D01*
X70787049Y-44707147D01*
X70851878Y-44550637D01*
X70851879Y-44550635D01*
X70945996Y-44409780D01*
X71065780Y-44289996D01*
X71206635Y-44195879D01*
X71206637Y-44195878D01*
X71363147Y-44131049D01*
X71529297Y-44098000D01*
X71698703Y-44098000D01*
X71864853Y-44131049D01*
X71864853Y-44131049D01*
G37*
G36*
X117090853Y-43877049D02*
X117247363Y-43941878D01*
X117247365Y-43941879D01*
X117388220Y-44035996D01*
X117508004Y-44155780D01*
X117576338Y-44258049D01*
X117602122Y-44296637D01*
X117666951Y-44453147D01*
X117700000Y-44619297D01*
X117700000Y-44788703D01*
X117666951Y-44954853D01*
X117602122Y-45111363D01*
X117602121Y-45111365D01*
X117508004Y-45252220D01*
X117388220Y-45372004D01*
X117247365Y-45466121D01*
X117247364Y-45466122D01*
X117247363Y-45466122D01*
X117090853Y-45530951D01*
X116924703Y-45564000D01*
X116755297Y-45564000D01*
X116589147Y-45530951D01*
X116432637Y-45466122D01*
X116432636Y-45466122D01*
X116432635Y-45466121D01*
X116291780Y-45372004D01*
X116171996Y-45252220D01*
X116077879Y-45111365D01*
X116077878Y-45111363D01*
X116013049Y-44954853D01*
X115980000Y-44788703D01*
X115980000Y-44619297D01*
X116013049Y-44453147D01*
X116077878Y-44296637D01*
X116103662Y-44258049D01*
X116171996Y-44155780D01*
X116291780Y-44035996D01*
X116432635Y-43941879D01*
X116432637Y-43941878D01*
X116589147Y-43877049D01*
X116755297Y-43844000D01*
X116924703Y-43844000D01*
X117090853Y-43877049D01*
X117090853Y-43877049D01*
G37*
G36*
X119590853Y-43877049D02*
X119747363Y-43941878D01*
X119747365Y-43941879D01*
X119888220Y-44035996D01*
X120008004Y-44155780D01*
X120076338Y-44258049D01*
X120102122Y-44296637D01*
X120166951Y-44453147D01*
X120200000Y-44619297D01*
X120200000Y-44788703D01*
X120166951Y-44954853D01*
X120102122Y-45111363D01*
X120102121Y-45111365D01*
X120008004Y-45252220D01*
X119888220Y-45372004D01*
X119747365Y-45466121D01*
X119747364Y-45466122D01*
X119747363Y-45466122D01*
X119590853Y-45530951D01*
X119424703Y-45564000D01*
X119255297Y-45564000D01*
X119089147Y-45530951D01*
X118932637Y-45466122D01*
X118932636Y-45466122D01*
X118932635Y-45466121D01*
X118791780Y-45372004D01*
X118671996Y-45252220D01*
X118577879Y-45111365D01*
X118577878Y-45111363D01*
X118513049Y-44954853D01*
X118480000Y-44788703D01*
X118480000Y-44619297D01*
X118513049Y-44453147D01*
X118577878Y-44296637D01*
X118603662Y-44258049D01*
X118671996Y-44155780D01*
X118791780Y-44035996D01*
X118932635Y-43941879D01*
X118932637Y-43941878D01*
X119089147Y-43877049D01*
X119255297Y-43844000D01*
X119424703Y-43844000D01*
X119590853Y-43877049D01*
X119590853Y-43877049D01*
G37*
G36*
X98989856Y-42681661D02*
X99102324Y-42728247D01*
X99168207Y-42755536D01*
X99288860Y-42836154D01*
X99320010Y-42856968D01*
X99328715Y-42862785D01*
X99465215Y-42999285D01*
X99572464Y-43159793D01*
X99572465Y-43159796D01*
X99646339Y-43338144D01*
X99684000Y-43527478D01*
X99684000Y-43720522D01*
X99646339Y-43909856D01*
X99599753Y-44022324D01*
X99572464Y-44088207D01*
X99465215Y-44248715D01*
X99328715Y-44385215D01*
X99168207Y-44492464D01*
X99103455Y-44519285D01*
X98989856Y-44566339D01*
X98800522Y-44604000D01*
X98607478Y-44604000D01*
X98418144Y-44566339D01*
X98304545Y-44519285D01*
X98239793Y-44492464D01*
X98079285Y-44385215D01*
X97942785Y-44248715D01*
X97835536Y-44088207D01*
X97808247Y-44022324D01*
X97761661Y-43909856D01*
X97724000Y-43720522D01*
X97724000Y-43527478D01*
X97761661Y-43338144D01*
X97835535Y-43159796D01*
X97835536Y-43159793D01*
X97942785Y-42999285D01*
X98079285Y-42862785D01*
X98087991Y-42856968D01*
X98119140Y-42836154D01*
X98239793Y-42755536D01*
X98305676Y-42728247D01*
X98418144Y-42681661D01*
X98607478Y-42644000D01*
X98800522Y-42644000D01*
X98989856Y-42681661D01*
X98989856Y-42681661D01*
G37*
G36*
X109099856Y-42681661D02*
X109212324Y-42728247D01*
X109278207Y-42755536D01*
X109398860Y-42836154D01*
X109430010Y-42856968D01*
X109438715Y-42862785D01*
X109575215Y-42999285D01*
X109682464Y-43159793D01*
X109682465Y-43159796D01*
X109756339Y-43338144D01*
X109794000Y-43527478D01*
X109794000Y-43720522D01*
X109756339Y-43909856D01*
X109709753Y-44022324D01*
X109682464Y-44088207D01*
X109575215Y-44248715D01*
X109438715Y-44385215D01*
X109278207Y-44492464D01*
X109213455Y-44519285D01*
X109099856Y-44566339D01*
X108910522Y-44604000D01*
X108717478Y-44604000D01*
X108528144Y-44566339D01*
X108414545Y-44519285D01*
X108349793Y-44492464D01*
X108189285Y-44385215D01*
X108052785Y-44248715D01*
X107945536Y-44088207D01*
X107918247Y-44022324D01*
X107871661Y-43909856D01*
X107834000Y-43720522D01*
X107834000Y-43527478D01*
X107871661Y-43338144D01*
X107945535Y-43159796D01*
X107945536Y-43159793D01*
X108052785Y-42999285D01*
X108189285Y-42862785D01*
X108197991Y-42856968D01*
X108229140Y-42836154D01*
X108349793Y-42755536D01*
X108415676Y-42728247D01*
X108528144Y-42681661D01*
X108717478Y-42644000D01*
X108910522Y-42644000D01*
X109099856Y-42681661D01*
X109099856Y-42681661D01*
G37*
M02*
