G04 #@! TF.GenerationSoftware,KiCad,Pcbnew,5.0.2-bee76a0~70~ubuntu18.04.1*
G04 #@! TF.CreationDate,2019-04-25T16:13:16+02:00*
G04 #@! TF.ProjectId,mainPCB,6d61696e-5043-4422-9e6b-696361645f70,rev?*
G04 #@! TF.SameCoordinates,Original*
G04 #@! TF.FileFunction,Soldermask,Bot*
G04 #@! TF.FilePolarity,Negative*
%FSLAX46Y46*%
G04 Gerber Fmt 4.6, Leading zero omitted, Abs format (unit mm)*
G04 Created by KiCad (PCBNEW 5.0.2-bee76a0~70~ubuntu18.04.1) date Do 25 Apr 2019 16:13:16 CEST*
%MOMM*%
%LPD*%
G01*
G04 APERTURE LIST*
%ADD10C,0.150000*%
%ADD11C,0.100000*%
G04 APERTURE END LIST*
D10*
X17462500Y-37465000D02*
X17462500Y-110617000D01*
X177482500Y-37465000D02*
X17462500Y-37465000D01*
X177482500Y-110617000D02*
X177482500Y-37465000D01*
X17462500Y-110617000D02*
X177482500Y-110617000D01*
D11*
G36*
X148584256Y-104182298D02*
X148690579Y-104203447D01*
X148991042Y-104327903D01*
X149257852Y-104506180D01*
X149261454Y-104508587D01*
X149491413Y-104738546D01*
X149491415Y-104738549D01*
X149672097Y-105008958D01*
X149796553Y-105309421D01*
X149860000Y-105628391D01*
X149860000Y-105953609D01*
X149796553Y-106272579D01*
X149783099Y-106305059D01*
X149672098Y-106573040D01*
X149491413Y-106843454D01*
X149261454Y-107073413D01*
X149261451Y-107073415D01*
X148991042Y-107254097D01*
X148690579Y-107378553D01*
X148584256Y-107399702D01*
X148371611Y-107442000D01*
X148046389Y-107442000D01*
X147833744Y-107399702D01*
X147727421Y-107378553D01*
X147426958Y-107254097D01*
X147156549Y-107073415D01*
X147156546Y-107073413D01*
X146926587Y-106843454D01*
X146745902Y-106573040D01*
X146634901Y-106305059D01*
X146621447Y-106272579D01*
X146558000Y-105953609D01*
X146558000Y-105628391D01*
X146621447Y-105309421D01*
X146745903Y-105008958D01*
X146926585Y-104738549D01*
X146926587Y-104738546D01*
X147156546Y-104508587D01*
X147160148Y-104506180D01*
X147426958Y-104327903D01*
X147727421Y-104203447D01*
X147833744Y-104182298D01*
X148046389Y-104140000D01*
X148371611Y-104140000D01*
X148584256Y-104182298D01*
X148584256Y-104182298D01*
G37*
G36*
X170758506Y-102785582D02*
X171159065Y-102951499D01*
X171519559Y-103192373D01*
X171826127Y-103498941D01*
X172067001Y-103859435D01*
X172232918Y-104259994D01*
X172317500Y-104685219D01*
X172317500Y-105118781D01*
X172232918Y-105544006D01*
X172067001Y-105944565D01*
X171826127Y-106305059D01*
X171519559Y-106611627D01*
X171159065Y-106852501D01*
X170758506Y-107018418D01*
X170333281Y-107103000D01*
X169899719Y-107103000D01*
X169474494Y-107018418D01*
X169073935Y-106852501D01*
X168713441Y-106611627D01*
X168406873Y-106305059D01*
X168165999Y-105944565D01*
X168000082Y-105544006D01*
X167915500Y-105118781D01*
X167915500Y-104685219D01*
X168000082Y-104259994D01*
X168165999Y-103859435D01*
X168406873Y-103498941D01*
X168713441Y-103192373D01*
X169073935Y-102951499D01*
X169474494Y-102785582D01*
X169899719Y-102701000D01*
X170333281Y-102701000D01*
X170758506Y-102785582D01*
X170758506Y-102785582D01*
G37*
G36*
X28963006Y-102785582D02*
X29363565Y-102951499D01*
X29724059Y-103192373D01*
X30030627Y-103498941D01*
X30271501Y-103859435D01*
X30437418Y-104259994D01*
X30522000Y-104685219D01*
X30522000Y-105118781D01*
X30437418Y-105544006D01*
X30271501Y-105944565D01*
X30030627Y-106305059D01*
X29724059Y-106611627D01*
X29363565Y-106852501D01*
X28963006Y-107018418D01*
X28537781Y-107103000D01*
X28104219Y-107103000D01*
X27678994Y-107018418D01*
X27278435Y-106852501D01*
X26917941Y-106611627D01*
X26611373Y-106305059D01*
X26370499Y-105944565D01*
X26204582Y-105544006D01*
X26120000Y-105118781D01*
X26120000Y-104685219D01*
X26204582Y-104259994D01*
X26370499Y-103859435D01*
X26611373Y-103498941D01*
X26917941Y-103192373D01*
X27278435Y-102951499D01*
X27678994Y-102785582D01*
X28104219Y-102701000D01*
X28537781Y-102701000D01*
X28963006Y-102785582D01*
X28963006Y-102785582D01*
G37*
G36*
X164350000Y-104152000D02*
X162548000Y-104152000D01*
X162548000Y-102350000D01*
X164350000Y-102350000D01*
X164350000Y-104152000D01*
X164350000Y-104152000D01*
G37*
G36*
X163559442Y-99816518D02*
X163625627Y-99823037D01*
X163738853Y-99857384D01*
X163795467Y-99874557D01*
X163934087Y-99948652D01*
X163951991Y-99958222D01*
X163987729Y-99987552D01*
X164089186Y-100070814D01*
X164172448Y-100172271D01*
X164201778Y-100208009D01*
X164201779Y-100208011D01*
X164285443Y-100364533D01*
X164285443Y-100364534D01*
X164336963Y-100534373D01*
X164354359Y-100711000D01*
X164336963Y-100887627D01*
X164302616Y-101000853D01*
X164285443Y-101057467D01*
X164211348Y-101196087D01*
X164201778Y-101213991D01*
X164172448Y-101249729D01*
X164089186Y-101351186D01*
X163987729Y-101434448D01*
X163951991Y-101463778D01*
X163951989Y-101463779D01*
X163795467Y-101547443D01*
X163738853Y-101564616D01*
X163625627Y-101598963D01*
X163559442Y-101605482D01*
X163493260Y-101612000D01*
X163404740Y-101612000D01*
X163338557Y-101605481D01*
X163272373Y-101598963D01*
X163159147Y-101564616D01*
X163102533Y-101547443D01*
X162946011Y-101463779D01*
X162946009Y-101463778D01*
X162910271Y-101434448D01*
X162808814Y-101351186D01*
X162725552Y-101249729D01*
X162696222Y-101213991D01*
X162686652Y-101196087D01*
X162612557Y-101057467D01*
X162595384Y-101000853D01*
X162561037Y-100887627D01*
X162543641Y-100711000D01*
X162561037Y-100534373D01*
X162612557Y-100364534D01*
X162612557Y-100364533D01*
X162696221Y-100208011D01*
X162696222Y-100208009D01*
X162725552Y-100172271D01*
X162808814Y-100070814D01*
X162910271Y-99987552D01*
X162946009Y-99958222D01*
X162963913Y-99948652D01*
X163102533Y-99874557D01*
X163159147Y-99857384D01*
X163272373Y-99823037D01*
X163338558Y-99816518D01*
X163404740Y-99810000D01*
X163493260Y-99810000D01*
X163559442Y-99816518D01*
X163559442Y-99816518D01*
G37*
G36*
X139746943Y-98800519D02*
X139813127Y-98807037D01*
X139926353Y-98841384D01*
X139982967Y-98858557D01*
X140104985Y-98923778D01*
X140139491Y-98942222D01*
X140175229Y-98971552D01*
X140276686Y-99054814D01*
X140359948Y-99156271D01*
X140389278Y-99192009D01*
X140389279Y-99192011D01*
X140472943Y-99348533D01*
X140472943Y-99348534D01*
X140524463Y-99518373D01*
X140541859Y-99695000D01*
X140524463Y-99871627D01*
X140523574Y-99874557D01*
X140472943Y-100041467D01*
X140457256Y-100070814D01*
X140389278Y-100197991D01*
X140359948Y-100233729D01*
X140276686Y-100335186D01*
X140175229Y-100418448D01*
X140139491Y-100447778D01*
X140139489Y-100447779D01*
X139982967Y-100531443D01*
X139926353Y-100548616D01*
X139813127Y-100582963D01*
X139746943Y-100589481D01*
X139680760Y-100596000D01*
X139592240Y-100596000D01*
X139526057Y-100589481D01*
X139459873Y-100582963D01*
X139346647Y-100548616D01*
X139290033Y-100531443D01*
X139133511Y-100447779D01*
X139133509Y-100447778D01*
X139097771Y-100418448D01*
X138996314Y-100335186D01*
X138913052Y-100233729D01*
X138883722Y-100197991D01*
X138815744Y-100070814D01*
X138800057Y-100041467D01*
X138749426Y-99874557D01*
X138748537Y-99871627D01*
X138731141Y-99695000D01*
X138748537Y-99518373D01*
X138800057Y-99348534D01*
X138800057Y-99348533D01*
X138883721Y-99192011D01*
X138883722Y-99192009D01*
X138913052Y-99156271D01*
X138996314Y-99054814D01*
X139097771Y-98971552D01*
X139133509Y-98942222D01*
X139168015Y-98923778D01*
X139290033Y-98858557D01*
X139346647Y-98841384D01*
X139459873Y-98807037D01*
X139526057Y-98800519D01*
X139592240Y-98794000D01*
X139680760Y-98794000D01*
X139746943Y-98800519D01*
X139746943Y-98800519D01*
G37*
G36*
X143077500Y-100596000D02*
X141275500Y-100596000D01*
X141275500Y-98794000D01*
X143077500Y-98794000D01*
X143077500Y-100596000D01*
X143077500Y-100596000D01*
G37*
G36*
X137206943Y-98800519D02*
X137273127Y-98807037D01*
X137386353Y-98841384D01*
X137442967Y-98858557D01*
X137564985Y-98923778D01*
X137599491Y-98942222D01*
X137635229Y-98971552D01*
X137736686Y-99054814D01*
X137819948Y-99156271D01*
X137849278Y-99192009D01*
X137849279Y-99192011D01*
X137932943Y-99348533D01*
X137932943Y-99348534D01*
X137984463Y-99518373D01*
X138001859Y-99695000D01*
X137984463Y-99871627D01*
X137983574Y-99874557D01*
X137932943Y-100041467D01*
X137917256Y-100070814D01*
X137849278Y-100197991D01*
X137819948Y-100233729D01*
X137736686Y-100335186D01*
X137635229Y-100418448D01*
X137599491Y-100447778D01*
X137599489Y-100447779D01*
X137442967Y-100531443D01*
X137386353Y-100548616D01*
X137273127Y-100582963D01*
X137206943Y-100589481D01*
X137140760Y-100596000D01*
X137052240Y-100596000D01*
X136986057Y-100589481D01*
X136919873Y-100582963D01*
X136806647Y-100548616D01*
X136750033Y-100531443D01*
X136593511Y-100447779D01*
X136593509Y-100447778D01*
X136557771Y-100418448D01*
X136456314Y-100335186D01*
X136373052Y-100233729D01*
X136343722Y-100197991D01*
X136275744Y-100070814D01*
X136260057Y-100041467D01*
X136209426Y-99874557D01*
X136208537Y-99871627D01*
X136191141Y-99695000D01*
X136208537Y-99518373D01*
X136260057Y-99348534D01*
X136260057Y-99348533D01*
X136343721Y-99192011D01*
X136343722Y-99192009D01*
X136373052Y-99156271D01*
X136456314Y-99054814D01*
X136557771Y-98971552D01*
X136593509Y-98942222D01*
X136628015Y-98923778D01*
X136750033Y-98858557D01*
X136806647Y-98841384D01*
X136919873Y-98807037D01*
X136986057Y-98800519D01*
X137052240Y-98794000D01*
X137140760Y-98794000D01*
X137206943Y-98800519D01*
X137206943Y-98800519D01*
G37*
G36*
X134666943Y-98800519D02*
X134733127Y-98807037D01*
X134846353Y-98841384D01*
X134902967Y-98858557D01*
X135024985Y-98923778D01*
X135059491Y-98942222D01*
X135095229Y-98971552D01*
X135196686Y-99054814D01*
X135279948Y-99156271D01*
X135309278Y-99192009D01*
X135309279Y-99192011D01*
X135392943Y-99348533D01*
X135392943Y-99348534D01*
X135444463Y-99518373D01*
X135461859Y-99695000D01*
X135444463Y-99871627D01*
X135443574Y-99874557D01*
X135392943Y-100041467D01*
X135377256Y-100070814D01*
X135309278Y-100197991D01*
X135279948Y-100233729D01*
X135196686Y-100335186D01*
X135095229Y-100418448D01*
X135059491Y-100447778D01*
X135059489Y-100447779D01*
X134902967Y-100531443D01*
X134846353Y-100548616D01*
X134733127Y-100582963D01*
X134666943Y-100589481D01*
X134600760Y-100596000D01*
X134512240Y-100596000D01*
X134446057Y-100589481D01*
X134379873Y-100582963D01*
X134266647Y-100548616D01*
X134210033Y-100531443D01*
X134053511Y-100447779D01*
X134053509Y-100447778D01*
X134017771Y-100418448D01*
X133916314Y-100335186D01*
X133833052Y-100233729D01*
X133803722Y-100197991D01*
X133735744Y-100070814D01*
X133720057Y-100041467D01*
X133669426Y-99874557D01*
X133668537Y-99871627D01*
X133651141Y-99695000D01*
X133668537Y-99518373D01*
X133720057Y-99348534D01*
X133720057Y-99348533D01*
X133803721Y-99192011D01*
X133803722Y-99192009D01*
X133833052Y-99156271D01*
X133916314Y-99054814D01*
X134017771Y-98971552D01*
X134053509Y-98942222D01*
X134088015Y-98923778D01*
X134210033Y-98858557D01*
X134266647Y-98841384D01*
X134379873Y-98807037D01*
X134446057Y-98800519D01*
X134512240Y-98794000D01*
X134600760Y-98794000D01*
X134666943Y-98800519D01*
X134666943Y-98800519D01*
G37*
G36*
X163559443Y-97276519D02*
X163625627Y-97283037D01*
X163738853Y-97317384D01*
X163795467Y-97334557D01*
X163934087Y-97408652D01*
X163951991Y-97418222D01*
X163987729Y-97447552D01*
X164089186Y-97530814D01*
X164172448Y-97632271D01*
X164201778Y-97668009D01*
X164201779Y-97668011D01*
X164285443Y-97824533D01*
X164285443Y-97824534D01*
X164336963Y-97994373D01*
X164354359Y-98171000D01*
X164336963Y-98347627D01*
X164302616Y-98460853D01*
X164285443Y-98517467D01*
X164211348Y-98656087D01*
X164201778Y-98673991D01*
X164172448Y-98709729D01*
X164089186Y-98811186D01*
X163987729Y-98894448D01*
X163951991Y-98923778D01*
X163951989Y-98923779D01*
X163795467Y-99007443D01*
X163738853Y-99024616D01*
X163625627Y-99058963D01*
X163559442Y-99065482D01*
X163493260Y-99072000D01*
X163404740Y-99072000D01*
X163338558Y-99065482D01*
X163272373Y-99058963D01*
X163159147Y-99024616D01*
X163102533Y-99007443D01*
X162946011Y-98923779D01*
X162946009Y-98923778D01*
X162910271Y-98894448D01*
X162808814Y-98811186D01*
X162725552Y-98709729D01*
X162696222Y-98673991D01*
X162686652Y-98656087D01*
X162612557Y-98517467D01*
X162595384Y-98460853D01*
X162561037Y-98347627D01*
X162543641Y-98171000D01*
X162561037Y-97994373D01*
X162612557Y-97824534D01*
X162612557Y-97824533D01*
X162696221Y-97668011D01*
X162696222Y-97668009D01*
X162725552Y-97632271D01*
X162808814Y-97530814D01*
X162910271Y-97447552D01*
X162946009Y-97418222D01*
X162963913Y-97408652D01*
X163102533Y-97334557D01*
X163159147Y-97317384D01*
X163272373Y-97283037D01*
X163338557Y-97276519D01*
X163404740Y-97270000D01*
X163493260Y-97270000D01*
X163559443Y-97276519D01*
X163559443Y-97276519D01*
G37*
G36*
X163559442Y-94736518D02*
X163625627Y-94743037D01*
X163738853Y-94777384D01*
X163795467Y-94794557D01*
X163934087Y-94868652D01*
X163951991Y-94878222D01*
X163987729Y-94907552D01*
X164089186Y-94990814D01*
X164172448Y-95092271D01*
X164201778Y-95128009D01*
X164201779Y-95128011D01*
X164285443Y-95284533D01*
X164285443Y-95284534D01*
X164336963Y-95454373D01*
X164354359Y-95631000D01*
X164336963Y-95807627D01*
X164302616Y-95920853D01*
X164285443Y-95977467D01*
X164211348Y-96116087D01*
X164201778Y-96133991D01*
X164172448Y-96169729D01*
X164089186Y-96271186D01*
X163987729Y-96354448D01*
X163951991Y-96383778D01*
X163951989Y-96383779D01*
X163795467Y-96467443D01*
X163738853Y-96484616D01*
X163625627Y-96518963D01*
X163559443Y-96525481D01*
X163493260Y-96532000D01*
X163404740Y-96532000D01*
X163338557Y-96525481D01*
X163272373Y-96518963D01*
X163159147Y-96484616D01*
X163102533Y-96467443D01*
X162946011Y-96383779D01*
X162946009Y-96383778D01*
X162910271Y-96354448D01*
X162808814Y-96271186D01*
X162725552Y-96169729D01*
X162696222Y-96133991D01*
X162686652Y-96116087D01*
X162612557Y-95977467D01*
X162595384Y-95920853D01*
X162561037Y-95807627D01*
X162543641Y-95631000D01*
X162561037Y-95454373D01*
X162612557Y-95284534D01*
X162612557Y-95284533D01*
X162696221Y-95128011D01*
X162696222Y-95128009D01*
X162725552Y-95092271D01*
X162808814Y-94990814D01*
X162910271Y-94907552D01*
X162946009Y-94878222D01*
X162963913Y-94868652D01*
X163102533Y-94794557D01*
X163159147Y-94777384D01*
X163272373Y-94743037D01*
X163338557Y-94736519D01*
X163404740Y-94730000D01*
X163493260Y-94730000D01*
X163559442Y-94736518D01*
X163559442Y-94736518D01*
G37*
G36*
X163559442Y-92196518D02*
X163625627Y-92203037D01*
X163738853Y-92237384D01*
X163795467Y-92254557D01*
X163934087Y-92328652D01*
X163951991Y-92338222D01*
X163987729Y-92367552D01*
X164089186Y-92450814D01*
X164172448Y-92552271D01*
X164201778Y-92588009D01*
X164201779Y-92588011D01*
X164285443Y-92744533D01*
X164285443Y-92744534D01*
X164336963Y-92914373D01*
X164354359Y-93091000D01*
X164336963Y-93267627D01*
X164302616Y-93380853D01*
X164285443Y-93437467D01*
X164211348Y-93576087D01*
X164201778Y-93593991D01*
X164172448Y-93629729D01*
X164089186Y-93731186D01*
X163987729Y-93814448D01*
X163951991Y-93843778D01*
X163951989Y-93843779D01*
X163795467Y-93927443D01*
X163738853Y-93944616D01*
X163625627Y-93978963D01*
X163559442Y-93985482D01*
X163493260Y-93992000D01*
X163404740Y-93992000D01*
X163338558Y-93985482D01*
X163272373Y-93978963D01*
X163159147Y-93944616D01*
X163102533Y-93927443D01*
X162946011Y-93843779D01*
X162946009Y-93843778D01*
X162910271Y-93814448D01*
X162808814Y-93731186D01*
X162725552Y-93629729D01*
X162696222Y-93593991D01*
X162686652Y-93576087D01*
X162612557Y-93437467D01*
X162595384Y-93380853D01*
X162561037Y-93267627D01*
X162543641Y-93091000D01*
X162561037Y-92914373D01*
X162612557Y-92744534D01*
X162612557Y-92744533D01*
X162696221Y-92588011D01*
X162696222Y-92588009D01*
X162725552Y-92552271D01*
X162808814Y-92450814D01*
X162910271Y-92367552D01*
X162946009Y-92338222D01*
X162963913Y-92328652D01*
X163102533Y-92254557D01*
X163159147Y-92237384D01*
X163272373Y-92203037D01*
X163338558Y-92196518D01*
X163404740Y-92190000D01*
X163493260Y-92190000D01*
X163559442Y-92196518D01*
X163559442Y-92196518D01*
G37*
G36*
X163559443Y-89656519D02*
X163625627Y-89663037D01*
X163738853Y-89697384D01*
X163795467Y-89714557D01*
X163934087Y-89788652D01*
X163951991Y-89798222D01*
X163987729Y-89827552D01*
X164089186Y-89910814D01*
X164172448Y-90012271D01*
X164201778Y-90048009D01*
X164201779Y-90048011D01*
X164285443Y-90204533D01*
X164285443Y-90204534D01*
X164336963Y-90374373D01*
X164354359Y-90551000D01*
X164336963Y-90727627D01*
X164302616Y-90840853D01*
X164285443Y-90897467D01*
X164211348Y-91036087D01*
X164201778Y-91053991D01*
X164172448Y-91089729D01*
X164089186Y-91191186D01*
X163987729Y-91274448D01*
X163951991Y-91303778D01*
X163951989Y-91303779D01*
X163795467Y-91387443D01*
X163738853Y-91404616D01*
X163625627Y-91438963D01*
X163559443Y-91445481D01*
X163493260Y-91452000D01*
X163404740Y-91452000D01*
X163338557Y-91445481D01*
X163272373Y-91438963D01*
X163159147Y-91404616D01*
X163102533Y-91387443D01*
X162946011Y-91303779D01*
X162946009Y-91303778D01*
X162910271Y-91274448D01*
X162808814Y-91191186D01*
X162725552Y-91089729D01*
X162696222Y-91053991D01*
X162686652Y-91036087D01*
X162612557Y-90897467D01*
X162595384Y-90840853D01*
X162561037Y-90727627D01*
X162543641Y-90551000D01*
X162561037Y-90374373D01*
X162612557Y-90204534D01*
X162612557Y-90204533D01*
X162696221Y-90048011D01*
X162696222Y-90048009D01*
X162725552Y-90012271D01*
X162808814Y-89910814D01*
X162910271Y-89827552D01*
X162946009Y-89798222D01*
X162963913Y-89788652D01*
X163102533Y-89714557D01*
X163159147Y-89697384D01*
X163272373Y-89663037D01*
X163338557Y-89656519D01*
X163404740Y-89650000D01*
X163493260Y-89650000D01*
X163559443Y-89656519D01*
X163559443Y-89656519D01*
G37*
G36*
X163559443Y-87116519D02*
X163625627Y-87123037D01*
X163738853Y-87157384D01*
X163795467Y-87174557D01*
X163934087Y-87248652D01*
X163951991Y-87258222D01*
X163987729Y-87287552D01*
X164089186Y-87370814D01*
X164172448Y-87472271D01*
X164201778Y-87508009D01*
X164201779Y-87508011D01*
X164285443Y-87664533D01*
X164285443Y-87664534D01*
X164336963Y-87834373D01*
X164354359Y-88011000D01*
X164336963Y-88187627D01*
X164303288Y-88298639D01*
X164285443Y-88357467D01*
X164211348Y-88496087D01*
X164201778Y-88513991D01*
X164172448Y-88549729D01*
X164089186Y-88651186D01*
X163989309Y-88733152D01*
X163951991Y-88763778D01*
X163951989Y-88763779D01*
X163795467Y-88847443D01*
X163738853Y-88864616D01*
X163625627Y-88898963D01*
X163559442Y-88905482D01*
X163493260Y-88912000D01*
X163404740Y-88912000D01*
X163338558Y-88905482D01*
X163272373Y-88898963D01*
X163159147Y-88864616D01*
X163102533Y-88847443D01*
X162946011Y-88763779D01*
X162946009Y-88763778D01*
X162908691Y-88733152D01*
X162808814Y-88651186D01*
X162725552Y-88549729D01*
X162696222Y-88513991D01*
X162686652Y-88496087D01*
X162612557Y-88357467D01*
X162594712Y-88298639D01*
X162561037Y-88187627D01*
X162543641Y-88011000D01*
X162561037Y-87834373D01*
X162612557Y-87664534D01*
X162612557Y-87664533D01*
X162696221Y-87508011D01*
X162696222Y-87508009D01*
X162725552Y-87472271D01*
X162808814Y-87370814D01*
X162910271Y-87287552D01*
X162946009Y-87258222D01*
X162963913Y-87248652D01*
X163102533Y-87174557D01*
X163159147Y-87157384D01*
X163272373Y-87123037D01*
X163338557Y-87116519D01*
X163404740Y-87110000D01*
X163493260Y-87110000D01*
X163559443Y-87116519D01*
X163559443Y-87116519D01*
G37*
G36*
X170573261Y-84211848D02*
X171001116Y-84389071D01*
X171291407Y-84583037D01*
X171386178Y-84646361D01*
X171713639Y-84973822D01*
X171713641Y-84973825D01*
X171970929Y-85358884D01*
X172148152Y-85786739D01*
X172238500Y-86240947D01*
X172238500Y-86704053D01*
X172148152Y-87158261D01*
X171970929Y-87586116D01*
X171805049Y-87834373D01*
X171713639Y-87971178D01*
X171386178Y-88298639D01*
X171386175Y-88298641D01*
X171001116Y-88555929D01*
X170573261Y-88733152D01*
X170119054Y-88823500D01*
X169655946Y-88823500D01*
X169201739Y-88733152D01*
X168773884Y-88555929D01*
X168388825Y-88298641D01*
X168388822Y-88298639D01*
X168061361Y-87971178D01*
X167969951Y-87834373D01*
X167804071Y-87586116D01*
X167626848Y-87158261D01*
X167536500Y-86704053D01*
X167536500Y-86240947D01*
X167626848Y-85786739D01*
X167804071Y-85358884D01*
X168061359Y-84973825D01*
X168061361Y-84973822D01*
X168388822Y-84646361D01*
X168483593Y-84583037D01*
X168773884Y-84389071D01*
X169201739Y-84211848D01*
X169655946Y-84121500D01*
X170119054Y-84121500D01*
X170573261Y-84211848D01*
X170573261Y-84211848D01*
G37*
G36*
X116090000Y-86372000D02*
X114288000Y-86372000D01*
X114288000Y-84570000D01*
X116090000Y-84570000D01*
X116090000Y-86372000D01*
X116090000Y-86372000D01*
G37*
G36*
X163559443Y-84576519D02*
X163625627Y-84583037D01*
X163738853Y-84617384D01*
X163795467Y-84634557D01*
X163817550Y-84646361D01*
X163951991Y-84718222D01*
X163987729Y-84747552D01*
X164089186Y-84830814D01*
X164172448Y-84932271D01*
X164201778Y-84968009D01*
X164201779Y-84968011D01*
X164285443Y-85124533D01*
X164285443Y-85124534D01*
X164336963Y-85294373D01*
X164354359Y-85471000D01*
X164336963Y-85647627D01*
X164302616Y-85760853D01*
X164285443Y-85817467D01*
X164211348Y-85956087D01*
X164201778Y-85973991D01*
X164172448Y-86009729D01*
X164089186Y-86111186D01*
X163987729Y-86194448D01*
X163951991Y-86223778D01*
X163951989Y-86223779D01*
X163795467Y-86307443D01*
X163738853Y-86324616D01*
X163625627Y-86358963D01*
X163559443Y-86365481D01*
X163493260Y-86372000D01*
X163404740Y-86372000D01*
X163338557Y-86365481D01*
X163272373Y-86358963D01*
X163159147Y-86324616D01*
X163102533Y-86307443D01*
X162946011Y-86223779D01*
X162946009Y-86223778D01*
X162910271Y-86194448D01*
X162808814Y-86111186D01*
X162725552Y-86009729D01*
X162696222Y-85973991D01*
X162686652Y-85956087D01*
X162612557Y-85817467D01*
X162595384Y-85760853D01*
X162561037Y-85647627D01*
X162543641Y-85471000D01*
X162561037Y-85294373D01*
X162612557Y-85124534D01*
X162612557Y-85124533D01*
X162696221Y-84968011D01*
X162696222Y-84968009D01*
X162725552Y-84932271D01*
X162808814Y-84830814D01*
X162910271Y-84747552D01*
X162946009Y-84718222D01*
X163080450Y-84646361D01*
X163102533Y-84634557D01*
X163159147Y-84617384D01*
X163272373Y-84583037D01*
X163338557Y-84576519D01*
X163404740Y-84570000D01*
X163493260Y-84570000D01*
X163559443Y-84576519D01*
X163559443Y-84576519D01*
G37*
G36*
X28950256Y-80814298D02*
X29056579Y-80835447D01*
X29357042Y-80959903D01*
X29463724Y-81031186D01*
X29627454Y-81140587D01*
X29857413Y-81370546D01*
X30038098Y-81640960D01*
X30162553Y-81941422D01*
X30209656Y-82178221D01*
X30226000Y-82260391D01*
X30226000Y-82585609D01*
X30162553Y-82904579D01*
X30038097Y-83205042D01*
X29989704Y-83277467D01*
X29857413Y-83475454D01*
X29627454Y-83705413D01*
X29627451Y-83705415D01*
X29357042Y-83886097D01*
X29056579Y-84010553D01*
X28950256Y-84031702D01*
X28737611Y-84074000D01*
X28412389Y-84074000D01*
X28199744Y-84031702D01*
X28093421Y-84010553D01*
X27792958Y-83886097D01*
X27522549Y-83705415D01*
X27522546Y-83705413D01*
X27292587Y-83475454D01*
X27160296Y-83277467D01*
X27111903Y-83205042D01*
X26987447Y-82904579D01*
X26924000Y-82585609D01*
X26924000Y-82260391D01*
X26940345Y-82178221D01*
X26987447Y-81941422D01*
X27111902Y-81640960D01*
X27292587Y-81370546D01*
X27522546Y-81140587D01*
X27686276Y-81031186D01*
X27792958Y-80959903D01*
X28093421Y-80835447D01*
X28199744Y-80814298D01*
X28412389Y-80772000D01*
X28737611Y-80772000D01*
X28950256Y-80814298D01*
X28950256Y-80814298D01*
G37*
G36*
X115299442Y-82036518D02*
X115365627Y-82043037D01*
X115478853Y-82077384D01*
X115535467Y-82094557D01*
X115674087Y-82168652D01*
X115691991Y-82178222D01*
X115727729Y-82207552D01*
X115829186Y-82290814D01*
X115912448Y-82392271D01*
X115941778Y-82428009D01*
X115941779Y-82428011D01*
X116025443Y-82584533D01*
X116025443Y-82584534D01*
X116076963Y-82754373D01*
X116094359Y-82931000D01*
X116076963Y-83107627D01*
X116042616Y-83220853D01*
X116025443Y-83277467D01*
X115951348Y-83416087D01*
X115941778Y-83433991D01*
X115912448Y-83469729D01*
X115829186Y-83571186D01*
X115727729Y-83654448D01*
X115691991Y-83683778D01*
X115691989Y-83683779D01*
X115535467Y-83767443D01*
X115478853Y-83784616D01*
X115365627Y-83818963D01*
X115299442Y-83825482D01*
X115233260Y-83832000D01*
X115144740Y-83832000D01*
X115078558Y-83825482D01*
X115012373Y-83818963D01*
X114899147Y-83784616D01*
X114842533Y-83767443D01*
X114686011Y-83683779D01*
X114686009Y-83683778D01*
X114650271Y-83654448D01*
X114548814Y-83571186D01*
X114465552Y-83469729D01*
X114436222Y-83433991D01*
X114426652Y-83416087D01*
X114352557Y-83277467D01*
X114335384Y-83220853D01*
X114301037Y-83107627D01*
X114283641Y-82931000D01*
X114301037Y-82754373D01*
X114352557Y-82584534D01*
X114352557Y-82584533D01*
X114436221Y-82428011D01*
X114436222Y-82428009D01*
X114465552Y-82392271D01*
X114548814Y-82290814D01*
X114650271Y-82207552D01*
X114686009Y-82178222D01*
X114703913Y-82168652D01*
X114842533Y-82094557D01*
X114899147Y-82077384D01*
X115012373Y-82043037D01*
X115078558Y-82036518D01*
X115144740Y-82030000D01*
X115233260Y-82030000D01*
X115299442Y-82036518D01*
X115299442Y-82036518D01*
G37*
G36*
X77418500Y-83578000D02*
X75616500Y-83578000D01*
X75616500Y-81776000D01*
X77418500Y-81776000D01*
X77418500Y-83578000D01*
X77418500Y-83578000D01*
G37*
G36*
X164350000Y-82308000D02*
X162548000Y-82308000D01*
X162548000Y-80506000D01*
X164350000Y-80506000D01*
X164350000Y-82308000D01*
X164350000Y-82308000D01*
G37*
G36*
X115299443Y-79496519D02*
X115365627Y-79503037D01*
X115478853Y-79537384D01*
X115535467Y-79554557D01*
X115657485Y-79619778D01*
X115691991Y-79638222D01*
X115727729Y-79667552D01*
X115829186Y-79750814D01*
X115912448Y-79852271D01*
X115941778Y-79888009D01*
X115941779Y-79888011D01*
X116025443Y-80044533D01*
X116025443Y-80044534D01*
X116076963Y-80214373D01*
X116094359Y-80391000D01*
X116076963Y-80567627D01*
X116042616Y-80680853D01*
X116025443Y-80737467D01*
X116006984Y-80772000D01*
X115941778Y-80893991D01*
X115912448Y-80929729D01*
X115829186Y-81031186D01*
X115727729Y-81114448D01*
X115691991Y-81143778D01*
X115691989Y-81143779D01*
X115535467Y-81227443D01*
X115478853Y-81244616D01*
X115365627Y-81278963D01*
X115299443Y-81285481D01*
X115233260Y-81292000D01*
X115144740Y-81292000D01*
X115078557Y-81285481D01*
X115012373Y-81278963D01*
X114899147Y-81244616D01*
X114842533Y-81227443D01*
X114686011Y-81143779D01*
X114686009Y-81143778D01*
X114650271Y-81114448D01*
X114548814Y-81031186D01*
X114465552Y-80929729D01*
X114436222Y-80893991D01*
X114371016Y-80772000D01*
X114352557Y-80737467D01*
X114335384Y-80680853D01*
X114301037Y-80567627D01*
X114283641Y-80391000D01*
X114301037Y-80214373D01*
X114352557Y-80044534D01*
X114352557Y-80044533D01*
X114436221Y-79888011D01*
X114436222Y-79888009D01*
X114465552Y-79852271D01*
X114548814Y-79750814D01*
X114650271Y-79667552D01*
X114686009Y-79638222D01*
X114720515Y-79619778D01*
X114842533Y-79554557D01*
X114899147Y-79537384D01*
X115012373Y-79503037D01*
X115078557Y-79496519D01*
X115144740Y-79490000D01*
X115233260Y-79490000D01*
X115299443Y-79496519D01*
X115299443Y-79496519D01*
G37*
G36*
X76627942Y-79242518D02*
X76694127Y-79249037D01*
X76807353Y-79283384D01*
X76863967Y-79300557D01*
X76991562Y-79368759D01*
X77020491Y-79384222D01*
X77056229Y-79413552D01*
X77157686Y-79496814D01*
X77240948Y-79598271D01*
X77270278Y-79634009D01*
X77270279Y-79634011D01*
X77353943Y-79790533D01*
X77353943Y-79790534D01*
X77405463Y-79960373D01*
X77422859Y-80137000D01*
X77405463Y-80313627D01*
X77391851Y-80358500D01*
X77353943Y-80483467D01*
X77308959Y-80567625D01*
X77270278Y-80639991D01*
X77240948Y-80675729D01*
X77157686Y-80777186D01*
X77056229Y-80860448D01*
X77020491Y-80889778D01*
X77020489Y-80889779D01*
X76863967Y-80973443D01*
X76807353Y-80990616D01*
X76694127Y-81024963D01*
X76630953Y-81031185D01*
X76561760Y-81038000D01*
X76473240Y-81038000D01*
X76404047Y-81031185D01*
X76340873Y-81024963D01*
X76227647Y-80990616D01*
X76171033Y-80973443D01*
X76014511Y-80889779D01*
X76014509Y-80889778D01*
X75978771Y-80860448D01*
X75877314Y-80777186D01*
X75794052Y-80675729D01*
X75764722Y-80639991D01*
X75726041Y-80567625D01*
X75681057Y-80483467D01*
X75643149Y-80358500D01*
X75629537Y-80313627D01*
X75612141Y-80137000D01*
X75629537Y-79960373D01*
X75681057Y-79790534D01*
X75681057Y-79790533D01*
X75764721Y-79634011D01*
X75764722Y-79634009D01*
X75794052Y-79598271D01*
X75877314Y-79496814D01*
X75978771Y-79413552D01*
X76014509Y-79384222D01*
X76043438Y-79368759D01*
X76171033Y-79300557D01*
X76227647Y-79283384D01*
X76340873Y-79249037D01*
X76407058Y-79242518D01*
X76473240Y-79236000D01*
X76561760Y-79236000D01*
X76627942Y-79242518D01*
X76627942Y-79242518D01*
G37*
G36*
X168730312Y-78591124D02*
X168894284Y-78659044D01*
X169041854Y-78757647D01*
X169167353Y-78883146D01*
X169265956Y-79030716D01*
X169333876Y-79194688D01*
X169368500Y-79368759D01*
X169368500Y-79546241D01*
X169333876Y-79720312D01*
X169265956Y-79884284D01*
X169167353Y-80031854D01*
X169041854Y-80157353D01*
X168894284Y-80255956D01*
X168730312Y-80323876D01*
X168556241Y-80358500D01*
X168378759Y-80358500D01*
X168204688Y-80323876D01*
X168040716Y-80255956D01*
X167893146Y-80157353D01*
X167767647Y-80031854D01*
X167669044Y-79884284D01*
X167601124Y-79720312D01*
X167566500Y-79546241D01*
X167566500Y-79368759D01*
X167601124Y-79194688D01*
X167669044Y-79030716D01*
X167767647Y-78883146D01*
X167893146Y-78757647D01*
X168040716Y-78659044D01*
X168204688Y-78591124D01*
X168378759Y-78556500D01*
X168556241Y-78556500D01*
X168730312Y-78591124D01*
X168730312Y-78591124D01*
G37*
G36*
X163559443Y-77972519D02*
X163625627Y-77979037D01*
X163738853Y-78013384D01*
X163795467Y-78030557D01*
X163925363Y-78099989D01*
X163951991Y-78114222D01*
X163987729Y-78143552D01*
X164089186Y-78226814D01*
X164172448Y-78328271D01*
X164201778Y-78364009D01*
X164201779Y-78364011D01*
X164285443Y-78520533D01*
X164285443Y-78520534D01*
X164336963Y-78690373D01*
X164354359Y-78867000D01*
X164336963Y-79043627D01*
X164302616Y-79156853D01*
X164285443Y-79213467D01*
X164266430Y-79249037D01*
X164201778Y-79369991D01*
X164172448Y-79405729D01*
X164089186Y-79507186D01*
X163987729Y-79590448D01*
X163951991Y-79619778D01*
X163951989Y-79619779D01*
X163795467Y-79703443D01*
X163739856Y-79720312D01*
X163625627Y-79754963D01*
X163559442Y-79761482D01*
X163493260Y-79768000D01*
X163404740Y-79768000D01*
X163338558Y-79761482D01*
X163272373Y-79754963D01*
X163158144Y-79720312D01*
X163102533Y-79703443D01*
X162946011Y-79619779D01*
X162946009Y-79619778D01*
X162910271Y-79590448D01*
X162808814Y-79507186D01*
X162725552Y-79405729D01*
X162696222Y-79369991D01*
X162631570Y-79249037D01*
X162612557Y-79213467D01*
X162595384Y-79156853D01*
X162561037Y-79043627D01*
X162543641Y-78867000D01*
X162561037Y-78690373D01*
X162612557Y-78520534D01*
X162612557Y-78520533D01*
X162696221Y-78364011D01*
X162696222Y-78364009D01*
X162725552Y-78328271D01*
X162808814Y-78226814D01*
X162910271Y-78143552D01*
X162946009Y-78114222D01*
X162972637Y-78099989D01*
X163102533Y-78030557D01*
X163159147Y-78013384D01*
X163272373Y-77979037D01*
X163338557Y-77972519D01*
X163404740Y-77966000D01*
X163493260Y-77966000D01*
X163559443Y-77972519D01*
X163559443Y-77972519D01*
G37*
G36*
X171570312Y-77221124D02*
X171734284Y-77289044D01*
X171881854Y-77387647D01*
X172007353Y-77513146D01*
X172105956Y-77660716D01*
X172173876Y-77824688D01*
X172208500Y-77998759D01*
X172208500Y-78176241D01*
X172173876Y-78350312D01*
X172105956Y-78514284D01*
X172007353Y-78661854D01*
X171881854Y-78787353D01*
X171734284Y-78885956D01*
X171570312Y-78953876D01*
X171396241Y-78988500D01*
X171218759Y-78988500D01*
X171044688Y-78953876D01*
X170880716Y-78885956D01*
X170733146Y-78787353D01*
X170607647Y-78661854D01*
X170509044Y-78514284D01*
X170441124Y-78350312D01*
X170406500Y-78176241D01*
X170406500Y-77998759D01*
X170441124Y-77824688D01*
X170509044Y-77660716D01*
X170607647Y-77513146D01*
X170733146Y-77387647D01*
X170880716Y-77289044D01*
X171044688Y-77221124D01*
X171218759Y-77186500D01*
X171396241Y-77186500D01*
X171570312Y-77221124D01*
X171570312Y-77221124D01*
G37*
G36*
X115299442Y-76956518D02*
X115365627Y-76963037D01*
X115478853Y-76997384D01*
X115535467Y-77014557D01*
X115657485Y-77079778D01*
X115691991Y-77098222D01*
X115727729Y-77127552D01*
X115829186Y-77210814D01*
X115895695Y-77291857D01*
X115941778Y-77348009D01*
X115941779Y-77348011D01*
X116025443Y-77504533D01*
X116028908Y-77515956D01*
X116076963Y-77674373D01*
X116094359Y-77851000D01*
X116076963Y-78027627D01*
X116050695Y-78114221D01*
X116025443Y-78197467D01*
X116009756Y-78226814D01*
X115941778Y-78353991D01*
X115912448Y-78389729D01*
X115829186Y-78491186D01*
X115749599Y-78556500D01*
X115691991Y-78603778D01*
X115691989Y-78603779D01*
X115535467Y-78687443D01*
X115478853Y-78704616D01*
X115365627Y-78738963D01*
X115299443Y-78745481D01*
X115233260Y-78752000D01*
X115144740Y-78752000D01*
X115078557Y-78745481D01*
X115012373Y-78738963D01*
X114899147Y-78704616D01*
X114842533Y-78687443D01*
X114686011Y-78603779D01*
X114686009Y-78603778D01*
X114628401Y-78556500D01*
X114548814Y-78491186D01*
X114465552Y-78389729D01*
X114436222Y-78353991D01*
X114368244Y-78226814D01*
X114352557Y-78197467D01*
X114327305Y-78114221D01*
X114301037Y-78027627D01*
X114283641Y-77851000D01*
X114301037Y-77674373D01*
X114349092Y-77515956D01*
X114352557Y-77504533D01*
X114436221Y-77348011D01*
X114436222Y-77348009D01*
X114482305Y-77291857D01*
X114548814Y-77210814D01*
X114650271Y-77127552D01*
X114686009Y-77098222D01*
X114720515Y-77079778D01*
X114842533Y-77014557D01*
X114899147Y-76997384D01*
X115012373Y-76963037D01*
X115078558Y-76956518D01*
X115144740Y-76950000D01*
X115233260Y-76950000D01*
X115299442Y-76956518D01*
X115299442Y-76956518D01*
G37*
G36*
X76627943Y-76702519D02*
X76694127Y-76709037D01*
X76807353Y-76743384D01*
X76863967Y-76760557D01*
X76949434Y-76806241D01*
X77020491Y-76844222D01*
X77056229Y-76873552D01*
X77157686Y-76956814D01*
X77240948Y-77058271D01*
X77270278Y-77094009D01*
X77270279Y-77094011D01*
X77353943Y-77250533D01*
X77353943Y-77250534D01*
X77405463Y-77420373D01*
X77422859Y-77597000D01*
X77405463Y-77773627D01*
X77389974Y-77824688D01*
X77353943Y-77943467D01*
X77334930Y-77979037D01*
X77270278Y-78099991D01*
X77240948Y-78135729D01*
X77157686Y-78237186D01*
X77056229Y-78320448D01*
X77020491Y-78349778D01*
X77020489Y-78349779D01*
X76863967Y-78433443D01*
X76807353Y-78450616D01*
X76694127Y-78484963D01*
X76630953Y-78491185D01*
X76561760Y-78498000D01*
X76473240Y-78498000D01*
X76404047Y-78491185D01*
X76340873Y-78484963D01*
X76227647Y-78450616D01*
X76171033Y-78433443D01*
X76014511Y-78349779D01*
X76014509Y-78349778D01*
X75978771Y-78320448D01*
X75877314Y-78237186D01*
X75794052Y-78135729D01*
X75764722Y-78099991D01*
X75700070Y-77979037D01*
X75681057Y-77943467D01*
X75645026Y-77824688D01*
X75629537Y-77773627D01*
X75612141Y-77597000D01*
X75629537Y-77420373D01*
X75681057Y-77250534D01*
X75681057Y-77250533D01*
X75764721Y-77094011D01*
X75764722Y-77094009D01*
X75794052Y-77058271D01*
X75877314Y-76956814D01*
X75978771Y-76873552D01*
X76014509Y-76844222D01*
X76085566Y-76806241D01*
X76171033Y-76760557D01*
X76227647Y-76743384D01*
X76340873Y-76709037D01*
X76407057Y-76702519D01*
X76473240Y-76696000D01*
X76561760Y-76696000D01*
X76627943Y-76702519D01*
X76627943Y-76702519D01*
G37*
G36*
X168730312Y-75851124D02*
X168894284Y-75919044D01*
X169041854Y-76017647D01*
X169167353Y-76143146D01*
X169265956Y-76290716D01*
X169333876Y-76454688D01*
X169368500Y-76628759D01*
X169368500Y-76806241D01*
X169333876Y-76980312D01*
X169265956Y-77144284D01*
X169167353Y-77291854D01*
X169041854Y-77417353D01*
X168894284Y-77515956D01*
X168730312Y-77583876D01*
X168556241Y-77618500D01*
X168378759Y-77618500D01*
X168204688Y-77583876D01*
X168040716Y-77515956D01*
X167893146Y-77417353D01*
X167767647Y-77291854D01*
X167669044Y-77144284D01*
X167601124Y-76980312D01*
X167566500Y-76806241D01*
X167566500Y-76628759D01*
X167601124Y-76454688D01*
X167669044Y-76290716D01*
X167767647Y-76143146D01*
X167893146Y-76017647D01*
X168040716Y-75919044D01*
X168204688Y-75851124D01*
X168378759Y-75816500D01*
X168556241Y-75816500D01*
X168730312Y-75851124D01*
X168730312Y-75851124D01*
G37*
G36*
X163559443Y-75432519D02*
X163625627Y-75439037D01*
X163738853Y-75473384D01*
X163795467Y-75490557D01*
X163925363Y-75559989D01*
X163951991Y-75574222D01*
X163987729Y-75603552D01*
X164089186Y-75686814D01*
X164172448Y-75788271D01*
X164201778Y-75824009D01*
X164201779Y-75824011D01*
X164285443Y-75980533D01*
X164285443Y-75980534D01*
X164336963Y-76150373D01*
X164354359Y-76327000D01*
X164336963Y-76503627D01*
X164302616Y-76616853D01*
X164285443Y-76673467D01*
X164266430Y-76709037D01*
X164201778Y-76829991D01*
X164172448Y-76865729D01*
X164089186Y-76967186D01*
X163987729Y-77050448D01*
X163951991Y-77079778D01*
X163951989Y-77079779D01*
X163795467Y-77163443D01*
X163738853Y-77180616D01*
X163625627Y-77214963D01*
X163563072Y-77221124D01*
X163493260Y-77228000D01*
X163404740Y-77228000D01*
X163334928Y-77221124D01*
X163272373Y-77214963D01*
X163159147Y-77180616D01*
X163102533Y-77163443D01*
X162946011Y-77079779D01*
X162946009Y-77079778D01*
X162910271Y-77050448D01*
X162808814Y-76967186D01*
X162725552Y-76865729D01*
X162696222Y-76829991D01*
X162631570Y-76709037D01*
X162612557Y-76673467D01*
X162595384Y-76616853D01*
X162561037Y-76503627D01*
X162543641Y-76327000D01*
X162561037Y-76150373D01*
X162612557Y-75980534D01*
X162612557Y-75980533D01*
X162696221Y-75824011D01*
X162696222Y-75824009D01*
X162725552Y-75788271D01*
X162808814Y-75686814D01*
X162910271Y-75603552D01*
X162946009Y-75574222D01*
X162972637Y-75559989D01*
X163102533Y-75490557D01*
X163159147Y-75473384D01*
X163272373Y-75439037D01*
X163338557Y-75432519D01*
X163404740Y-75426000D01*
X163493260Y-75426000D01*
X163559443Y-75432519D01*
X163559443Y-75432519D01*
G37*
G36*
X171570312Y-74481124D02*
X171734284Y-74549044D01*
X171881854Y-74647647D01*
X172007353Y-74773146D01*
X172105956Y-74920716D01*
X172173876Y-75084688D01*
X172208500Y-75258759D01*
X172208500Y-75436241D01*
X172173876Y-75610312D01*
X172105956Y-75774284D01*
X172007353Y-75921854D01*
X171881854Y-76047353D01*
X171734284Y-76145956D01*
X171570312Y-76213876D01*
X171396241Y-76248500D01*
X171218759Y-76248500D01*
X171044688Y-76213876D01*
X170880716Y-76145956D01*
X170733146Y-76047353D01*
X170607647Y-75921854D01*
X170509044Y-75774284D01*
X170441124Y-75610312D01*
X170406500Y-75436241D01*
X170406500Y-75258759D01*
X170441124Y-75084688D01*
X170509044Y-74920716D01*
X170607647Y-74773146D01*
X170733146Y-74647647D01*
X170880716Y-74549044D01*
X171044688Y-74481124D01*
X171218759Y-74446500D01*
X171396241Y-74446500D01*
X171570312Y-74481124D01*
X171570312Y-74481124D01*
G37*
G36*
X115299443Y-74416519D02*
X115365627Y-74423037D01*
X115442974Y-74446500D01*
X115535467Y-74474557D01*
X115657485Y-74539778D01*
X115691991Y-74558222D01*
X115727729Y-74587552D01*
X115829186Y-74670814D01*
X115912448Y-74772271D01*
X115941778Y-74808009D01*
X115941779Y-74808011D01*
X116025443Y-74964533D01*
X116025443Y-74964534D01*
X116076963Y-75134373D01*
X116094359Y-75311000D01*
X116076963Y-75487627D01*
X116050695Y-75574221D01*
X116025443Y-75657467D01*
X116009756Y-75686814D01*
X115941778Y-75813991D01*
X115912448Y-75849729D01*
X115829186Y-75951186D01*
X115748198Y-76017650D01*
X115691991Y-76063778D01*
X115691989Y-76063779D01*
X115535467Y-76147443D01*
X115478853Y-76164616D01*
X115365627Y-76198963D01*
X115299443Y-76205481D01*
X115233260Y-76212000D01*
X115144740Y-76212000D01*
X115078557Y-76205481D01*
X115012373Y-76198963D01*
X114899147Y-76164616D01*
X114842533Y-76147443D01*
X114686011Y-76063779D01*
X114686009Y-76063778D01*
X114629802Y-76017650D01*
X114548814Y-75951186D01*
X114465552Y-75849729D01*
X114436222Y-75813991D01*
X114368244Y-75686814D01*
X114352557Y-75657467D01*
X114327305Y-75574221D01*
X114301037Y-75487627D01*
X114283641Y-75311000D01*
X114301037Y-75134373D01*
X114352557Y-74964534D01*
X114352557Y-74964533D01*
X114436221Y-74808011D01*
X114436222Y-74808009D01*
X114465552Y-74772271D01*
X114548814Y-74670814D01*
X114650271Y-74587552D01*
X114686009Y-74558222D01*
X114720515Y-74539778D01*
X114842533Y-74474557D01*
X114935026Y-74446500D01*
X115012373Y-74423037D01*
X115078557Y-74416519D01*
X115144740Y-74410000D01*
X115233260Y-74410000D01*
X115299443Y-74416519D01*
X115299443Y-74416519D01*
G37*
G36*
X76627942Y-74162518D02*
X76694127Y-74169037D01*
X76807353Y-74203384D01*
X76863967Y-74220557D01*
X76900925Y-74240312D01*
X77020491Y-74304222D01*
X77056229Y-74333552D01*
X77157686Y-74416814D01*
X77240948Y-74518271D01*
X77270278Y-74554009D01*
X77270279Y-74554011D01*
X77353943Y-74710533D01*
X77353943Y-74710534D01*
X77405463Y-74880373D01*
X77422859Y-75057000D01*
X77405463Y-75233627D01*
X77397839Y-75258759D01*
X77353943Y-75403467D01*
X77334930Y-75439037D01*
X77270278Y-75559991D01*
X77240948Y-75595729D01*
X77157686Y-75697186D01*
X77063743Y-75774282D01*
X77020491Y-75809778D01*
X77020489Y-75809779D01*
X76863967Y-75893443D01*
X76807353Y-75910616D01*
X76694127Y-75944963D01*
X76630953Y-75951185D01*
X76561760Y-75958000D01*
X76473240Y-75958000D01*
X76404047Y-75951185D01*
X76340873Y-75944963D01*
X76227647Y-75910616D01*
X76171033Y-75893443D01*
X76014511Y-75809779D01*
X76014509Y-75809778D01*
X75971257Y-75774282D01*
X75877314Y-75697186D01*
X75794052Y-75595729D01*
X75764722Y-75559991D01*
X75700070Y-75439037D01*
X75681057Y-75403467D01*
X75637161Y-75258759D01*
X75629537Y-75233627D01*
X75612141Y-75057000D01*
X75629537Y-74880373D01*
X75681057Y-74710534D01*
X75681057Y-74710533D01*
X75764721Y-74554011D01*
X75764722Y-74554009D01*
X75794052Y-74518271D01*
X75877314Y-74416814D01*
X75978771Y-74333552D01*
X76014509Y-74304222D01*
X76134075Y-74240312D01*
X76171033Y-74220557D01*
X76227647Y-74203384D01*
X76340873Y-74169037D01*
X76407058Y-74162518D01*
X76473240Y-74156000D01*
X76561760Y-74156000D01*
X76627942Y-74162518D01*
X76627942Y-74162518D01*
G37*
G36*
X168730312Y-73111124D02*
X168894284Y-73179044D01*
X169041854Y-73277647D01*
X169167353Y-73403146D01*
X169265956Y-73550716D01*
X169333876Y-73714688D01*
X169368500Y-73888759D01*
X169368500Y-74066241D01*
X169333876Y-74240312D01*
X169265956Y-74404284D01*
X169167353Y-74551854D01*
X169041854Y-74677353D01*
X168894284Y-74775956D01*
X168730312Y-74843876D01*
X168556241Y-74878500D01*
X168378759Y-74878500D01*
X168204688Y-74843876D01*
X168040716Y-74775956D01*
X167893146Y-74677353D01*
X167767647Y-74551854D01*
X167669044Y-74404284D01*
X167601124Y-74240312D01*
X167566500Y-74066241D01*
X167566500Y-73888759D01*
X167601124Y-73714688D01*
X167669044Y-73550716D01*
X167767647Y-73403146D01*
X167893146Y-73277647D01*
X168040716Y-73179044D01*
X168204688Y-73111124D01*
X168378759Y-73076500D01*
X168556241Y-73076500D01*
X168730312Y-73111124D01*
X168730312Y-73111124D01*
G37*
G36*
X163559442Y-72892518D02*
X163625627Y-72899037D01*
X163738853Y-72933384D01*
X163795467Y-72950557D01*
X163934087Y-73024652D01*
X163951991Y-73034222D01*
X163987729Y-73063552D01*
X164089186Y-73146814D01*
X164172448Y-73248271D01*
X164201778Y-73284009D01*
X164201779Y-73284011D01*
X164285443Y-73440533D01*
X164285443Y-73440534D01*
X164336963Y-73610373D01*
X164354359Y-73787000D01*
X164336963Y-73963627D01*
X164305835Y-74066241D01*
X164285443Y-74133467D01*
X164266430Y-74169037D01*
X164201778Y-74289991D01*
X164172448Y-74325729D01*
X164089186Y-74427186D01*
X163987729Y-74510448D01*
X163951991Y-74539778D01*
X163951989Y-74539779D01*
X163795467Y-74623443D01*
X163738853Y-74640616D01*
X163625627Y-74674963D01*
X163559442Y-74681482D01*
X163493260Y-74688000D01*
X163404740Y-74688000D01*
X163338558Y-74681482D01*
X163272373Y-74674963D01*
X163159147Y-74640616D01*
X163102533Y-74623443D01*
X162946011Y-74539779D01*
X162946009Y-74539778D01*
X162910271Y-74510448D01*
X162808814Y-74427186D01*
X162725552Y-74325729D01*
X162696222Y-74289991D01*
X162631570Y-74169037D01*
X162612557Y-74133467D01*
X162592165Y-74066241D01*
X162561037Y-73963627D01*
X162543641Y-73787000D01*
X162561037Y-73610373D01*
X162612557Y-73440534D01*
X162612557Y-73440533D01*
X162696221Y-73284011D01*
X162696222Y-73284009D01*
X162725552Y-73248271D01*
X162808814Y-73146814D01*
X162910271Y-73063552D01*
X162946009Y-73034222D01*
X162963913Y-73024652D01*
X163102533Y-72950557D01*
X163159147Y-72933384D01*
X163272373Y-72899037D01*
X163338558Y-72892518D01*
X163404740Y-72886000D01*
X163493260Y-72886000D01*
X163559442Y-72892518D01*
X163559442Y-72892518D01*
G37*
G36*
X115299442Y-71876518D02*
X115365627Y-71883037D01*
X115446755Y-71907647D01*
X115535467Y-71934557D01*
X115657485Y-71999778D01*
X115691991Y-72018222D01*
X115727729Y-72047552D01*
X115829186Y-72130814D01*
X115912448Y-72232271D01*
X115941778Y-72268009D01*
X115941779Y-72268011D01*
X116025443Y-72424533D01*
X116025443Y-72424534D01*
X116076963Y-72594373D01*
X116094359Y-72771000D01*
X116076963Y-72947627D01*
X116050676Y-73034284D01*
X116025443Y-73117467D01*
X116009756Y-73146814D01*
X115941778Y-73273991D01*
X115914401Y-73307350D01*
X115829186Y-73411186D01*
X115727729Y-73494448D01*
X115691991Y-73523778D01*
X115691989Y-73523779D01*
X115535467Y-73607443D01*
X115478853Y-73624616D01*
X115365627Y-73658963D01*
X115299442Y-73665482D01*
X115233260Y-73672000D01*
X115144740Y-73672000D01*
X115078558Y-73665482D01*
X115012373Y-73658963D01*
X114899147Y-73624616D01*
X114842533Y-73607443D01*
X114686011Y-73523779D01*
X114686009Y-73523778D01*
X114650271Y-73494448D01*
X114548814Y-73411186D01*
X114463599Y-73307350D01*
X114436222Y-73273991D01*
X114368244Y-73146814D01*
X114352557Y-73117467D01*
X114327324Y-73034284D01*
X114301037Y-72947627D01*
X114283641Y-72771000D01*
X114301037Y-72594373D01*
X114352557Y-72424534D01*
X114352557Y-72424533D01*
X114436221Y-72268011D01*
X114436222Y-72268009D01*
X114465552Y-72232271D01*
X114548814Y-72130814D01*
X114650271Y-72047552D01*
X114686009Y-72018222D01*
X114720515Y-71999778D01*
X114842533Y-71934557D01*
X114931245Y-71907647D01*
X115012373Y-71883037D01*
X115078558Y-71876518D01*
X115144740Y-71870000D01*
X115233260Y-71870000D01*
X115299442Y-71876518D01*
X115299442Y-71876518D01*
G37*
G36*
X171570312Y-71741124D02*
X171734284Y-71809044D01*
X171881854Y-71907647D01*
X172007353Y-72033146D01*
X172105956Y-72180716D01*
X172173876Y-72344688D01*
X172208500Y-72518759D01*
X172208500Y-72696241D01*
X172173876Y-72870312D01*
X172105956Y-73034284D01*
X172007353Y-73181854D01*
X171881854Y-73307353D01*
X171734284Y-73405956D01*
X171570312Y-73473876D01*
X171396241Y-73508500D01*
X171218759Y-73508500D01*
X171044688Y-73473876D01*
X170880716Y-73405956D01*
X170733146Y-73307353D01*
X170607647Y-73181854D01*
X170509044Y-73034284D01*
X170441124Y-72870312D01*
X170406500Y-72696241D01*
X170406500Y-72518759D01*
X170441124Y-72344688D01*
X170509044Y-72180716D01*
X170607647Y-72033146D01*
X170733146Y-71907647D01*
X170880716Y-71809044D01*
X171044688Y-71741124D01*
X171218759Y-71706500D01*
X171396241Y-71706500D01*
X171570312Y-71741124D01*
X171570312Y-71741124D01*
G37*
G36*
X163559443Y-70352519D02*
X163625627Y-70359037D01*
X163738853Y-70393384D01*
X163795467Y-70410557D01*
X163854024Y-70441857D01*
X163951991Y-70494222D01*
X163987729Y-70523552D01*
X164089186Y-70606814D01*
X164172448Y-70708271D01*
X164201778Y-70744009D01*
X164201779Y-70744011D01*
X164285443Y-70900533D01*
X164285443Y-70900534D01*
X164336963Y-71070373D01*
X164354359Y-71247000D01*
X164336963Y-71423627D01*
X164313701Y-71500312D01*
X164285443Y-71593467D01*
X164247591Y-71664282D01*
X164201778Y-71749991D01*
X164172448Y-71785729D01*
X164089186Y-71887186D01*
X164028056Y-71937353D01*
X163951991Y-71999778D01*
X163951989Y-71999779D01*
X163795467Y-72083443D01*
X163738853Y-72100616D01*
X163625627Y-72134963D01*
X163559443Y-72141481D01*
X163493260Y-72148000D01*
X163404740Y-72148000D01*
X163338557Y-72141481D01*
X163272373Y-72134963D01*
X163159147Y-72100616D01*
X163102533Y-72083443D01*
X162946011Y-71999779D01*
X162946009Y-71999778D01*
X162869944Y-71937353D01*
X162808814Y-71887186D01*
X162725552Y-71785729D01*
X162696222Y-71749991D01*
X162650409Y-71664282D01*
X162612557Y-71593467D01*
X162584299Y-71500312D01*
X162561037Y-71423627D01*
X162543641Y-71247000D01*
X162561037Y-71070373D01*
X162612557Y-70900534D01*
X162612557Y-70900533D01*
X162696221Y-70744011D01*
X162696222Y-70744009D01*
X162725552Y-70708271D01*
X162808814Y-70606814D01*
X162910271Y-70523552D01*
X162946009Y-70494222D01*
X163043976Y-70441857D01*
X163102533Y-70410557D01*
X163159147Y-70393384D01*
X163272373Y-70359037D01*
X163338557Y-70352519D01*
X163404740Y-70346000D01*
X163493260Y-70346000D01*
X163559443Y-70352519D01*
X163559443Y-70352519D01*
G37*
G36*
X168730312Y-70371124D02*
X168894284Y-70439044D01*
X169041854Y-70537647D01*
X169167353Y-70663146D01*
X169265956Y-70810716D01*
X169333876Y-70974688D01*
X169368500Y-71148759D01*
X169368500Y-71326241D01*
X169333876Y-71500312D01*
X169265956Y-71664284D01*
X169167353Y-71811854D01*
X169041854Y-71937353D01*
X168894284Y-72035956D01*
X168730312Y-72103876D01*
X168556241Y-72138500D01*
X168378759Y-72138500D01*
X168204688Y-72103876D01*
X168040716Y-72035956D01*
X167893146Y-71937353D01*
X167767647Y-71811854D01*
X167669044Y-71664284D01*
X167601124Y-71500312D01*
X167566500Y-71326241D01*
X167566500Y-71148759D01*
X167601124Y-70974688D01*
X167669044Y-70810716D01*
X167767647Y-70663146D01*
X167893146Y-70537647D01*
X168040716Y-70439044D01*
X168204688Y-70371124D01*
X168378759Y-70336500D01*
X168556241Y-70336500D01*
X168730312Y-70371124D01*
X168730312Y-70371124D01*
G37*
G36*
X115299443Y-69336519D02*
X115365627Y-69343037D01*
X115478853Y-69377384D01*
X115535467Y-69394557D01*
X115657485Y-69459778D01*
X115691991Y-69478222D01*
X115727729Y-69507552D01*
X115829186Y-69590814D01*
X115912448Y-69692271D01*
X115941778Y-69728009D01*
X115941779Y-69728011D01*
X116025443Y-69884533D01*
X116025443Y-69884534D01*
X116076963Y-70054373D01*
X116094359Y-70231000D01*
X116076963Y-70407627D01*
X116066580Y-70441854D01*
X116025443Y-70577467D01*
X115979646Y-70663146D01*
X115941778Y-70733991D01*
X115913457Y-70768500D01*
X115829186Y-70871186D01*
X115727729Y-70954448D01*
X115691991Y-70983778D01*
X115691989Y-70983779D01*
X115535467Y-71067443D01*
X115478853Y-71084616D01*
X115365627Y-71118963D01*
X115299443Y-71125481D01*
X115233260Y-71132000D01*
X115144740Y-71132000D01*
X115078557Y-71125481D01*
X115012373Y-71118963D01*
X114899147Y-71084616D01*
X114842533Y-71067443D01*
X114686011Y-70983779D01*
X114686009Y-70983778D01*
X114650271Y-70954448D01*
X114548814Y-70871186D01*
X114464543Y-70768500D01*
X114436222Y-70733991D01*
X114398354Y-70663146D01*
X114352557Y-70577467D01*
X114311420Y-70441854D01*
X114301037Y-70407627D01*
X114283641Y-70231000D01*
X114301037Y-70054373D01*
X114352557Y-69884534D01*
X114352557Y-69884533D01*
X114436221Y-69728011D01*
X114436222Y-69728009D01*
X114465552Y-69692271D01*
X114548814Y-69590814D01*
X114650271Y-69507552D01*
X114686009Y-69478222D01*
X114720515Y-69459778D01*
X114842533Y-69394557D01*
X114899147Y-69377384D01*
X115012373Y-69343037D01*
X115078557Y-69336519D01*
X115144740Y-69330000D01*
X115233260Y-69330000D01*
X115299443Y-69336519D01*
X115299443Y-69336519D01*
G37*
G36*
X171570312Y-69001124D02*
X171734284Y-69069044D01*
X171881854Y-69167647D01*
X172007353Y-69293146D01*
X172105956Y-69440716D01*
X172173876Y-69604688D01*
X172208500Y-69778759D01*
X172208500Y-69956241D01*
X172173876Y-70130312D01*
X172105956Y-70294284D01*
X172007353Y-70441854D01*
X171881854Y-70567353D01*
X171734284Y-70665956D01*
X171570312Y-70733876D01*
X171396241Y-70768500D01*
X171218759Y-70768500D01*
X171044688Y-70733876D01*
X170880716Y-70665956D01*
X170733146Y-70567353D01*
X170607647Y-70441854D01*
X170509044Y-70294284D01*
X170441124Y-70130312D01*
X170406500Y-69956241D01*
X170406500Y-69778759D01*
X170441124Y-69604688D01*
X170509044Y-69440716D01*
X170607647Y-69293146D01*
X170733146Y-69167647D01*
X170880716Y-69069044D01*
X171044688Y-69001124D01*
X171218759Y-68966500D01*
X171396241Y-68966500D01*
X171570312Y-69001124D01*
X171570312Y-69001124D01*
G37*
G36*
X163559443Y-67812519D02*
X163625627Y-67819037D01*
X163738853Y-67853384D01*
X163795467Y-67870557D01*
X163934087Y-67944652D01*
X163951991Y-67954222D01*
X163987729Y-67983552D01*
X164089186Y-68066814D01*
X164172448Y-68168271D01*
X164201778Y-68204009D01*
X164201779Y-68204011D01*
X164285443Y-68360533D01*
X164285443Y-68360534D01*
X164336963Y-68530373D01*
X164354359Y-68707000D01*
X164336963Y-68883627D01*
X164311824Y-68966500D01*
X164285443Y-69053467D01*
X164275613Y-69071857D01*
X164201778Y-69209991D01*
X164172448Y-69245729D01*
X164089186Y-69347186D01*
X163987729Y-69430448D01*
X163951991Y-69459778D01*
X163951989Y-69459779D01*
X163795467Y-69543443D01*
X163738853Y-69560616D01*
X163625627Y-69594963D01*
X163559443Y-69601481D01*
X163493260Y-69608000D01*
X163404740Y-69608000D01*
X163338557Y-69601481D01*
X163272373Y-69594963D01*
X163159147Y-69560616D01*
X163102533Y-69543443D01*
X162946011Y-69459779D01*
X162946009Y-69459778D01*
X162910271Y-69430448D01*
X162808814Y-69347186D01*
X162725552Y-69245729D01*
X162696222Y-69209991D01*
X162622387Y-69071857D01*
X162612557Y-69053467D01*
X162586176Y-68966500D01*
X162561037Y-68883627D01*
X162543641Y-68707000D01*
X162561037Y-68530373D01*
X162612557Y-68360534D01*
X162612557Y-68360533D01*
X162696221Y-68204011D01*
X162696222Y-68204009D01*
X162725552Y-68168271D01*
X162808814Y-68066814D01*
X162910271Y-67983552D01*
X162946009Y-67954222D01*
X162963913Y-67944652D01*
X163102533Y-67870557D01*
X163159147Y-67853384D01*
X163272373Y-67819037D01*
X163338557Y-67812519D01*
X163404740Y-67806000D01*
X163493260Y-67806000D01*
X163559443Y-67812519D01*
X163559443Y-67812519D01*
G37*
G36*
X168730312Y-67631124D02*
X168894284Y-67699044D01*
X169041854Y-67797647D01*
X169167353Y-67923146D01*
X169265956Y-68070716D01*
X169333876Y-68234688D01*
X169368500Y-68408759D01*
X169368500Y-68586241D01*
X169333876Y-68760312D01*
X169265956Y-68924284D01*
X169167353Y-69071854D01*
X169041854Y-69197353D01*
X168894284Y-69295956D01*
X168730312Y-69363876D01*
X168556241Y-69398500D01*
X168378759Y-69398500D01*
X168204688Y-69363876D01*
X168040716Y-69295956D01*
X167893146Y-69197353D01*
X167767647Y-69071854D01*
X167669044Y-68924284D01*
X167601124Y-68760312D01*
X167566500Y-68586241D01*
X167566500Y-68408759D01*
X167601124Y-68234688D01*
X167669044Y-68070716D01*
X167767647Y-67923146D01*
X167893146Y-67797647D01*
X168040716Y-67699044D01*
X168204688Y-67631124D01*
X168378759Y-67596500D01*
X168556241Y-67596500D01*
X168730312Y-67631124D01*
X168730312Y-67631124D01*
G37*
G36*
X115299442Y-66796518D02*
X115365627Y-66803037D01*
X115478853Y-66837384D01*
X115535467Y-66854557D01*
X115657485Y-66919778D01*
X115691991Y-66938222D01*
X115727729Y-66967552D01*
X115829186Y-67050814D01*
X115912448Y-67152271D01*
X115941778Y-67188009D01*
X115941779Y-67188011D01*
X116025443Y-67344533D01*
X116025443Y-67344534D01*
X116076963Y-67514373D01*
X116094359Y-67691000D01*
X116076963Y-67867627D01*
X116050695Y-67954221D01*
X116025443Y-68037467D01*
X115951348Y-68176087D01*
X115941778Y-68193991D01*
X115912448Y-68229729D01*
X115829186Y-68331186D01*
X115727729Y-68414448D01*
X115691991Y-68443778D01*
X115691989Y-68443779D01*
X115535467Y-68527443D01*
X115478853Y-68544616D01*
X115365627Y-68578963D01*
X115299443Y-68585481D01*
X115233260Y-68592000D01*
X115144740Y-68592000D01*
X115078557Y-68585481D01*
X115012373Y-68578963D01*
X114899147Y-68544616D01*
X114842533Y-68527443D01*
X114686011Y-68443779D01*
X114686009Y-68443778D01*
X114650271Y-68414448D01*
X114548814Y-68331186D01*
X114465552Y-68229729D01*
X114436222Y-68193991D01*
X114426652Y-68176087D01*
X114352557Y-68037467D01*
X114327305Y-67954221D01*
X114301037Y-67867627D01*
X114283641Y-67691000D01*
X114301037Y-67514373D01*
X114352557Y-67344534D01*
X114352557Y-67344533D01*
X114436221Y-67188011D01*
X114436222Y-67188009D01*
X114465552Y-67152271D01*
X114548814Y-67050814D01*
X114650271Y-66967552D01*
X114686009Y-66938222D01*
X114720515Y-66919778D01*
X114842533Y-66854557D01*
X114899147Y-66837384D01*
X115012373Y-66803037D01*
X115078558Y-66796518D01*
X115144740Y-66790000D01*
X115233260Y-66790000D01*
X115299442Y-66796518D01*
X115299442Y-66796518D01*
G37*
G36*
X28950256Y-63923298D02*
X29056579Y-63944447D01*
X29357042Y-64068903D01*
X29448463Y-64129989D01*
X29627454Y-64249587D01*
X29857413Y-64479546D01*
X30038098Y-64749960D01*
X30162553Y-65050422D01*
X30218276Y-65330557D01*
X30226000Y-65369391D01*
X30226000Y-65694609D01*
X30167169Y-65990375D01*
X30162553Y-66013578D01*
X30038098Y-66314040D01*
X29857413Y-66584454D01*
X29627454Y-66814413D01*
X29627451Y-66814415D01*
X29357042Y-66995097D01*
X29056579Y-67119553D01*
X28950256Y-67140702D01*
X28737611Y-67183000D01*
X28412389Y-67183000D01*
X28199744Y-67140702D01*
X28093421Y-67119553D01*
X27792958Y-66995097D01*
X27522549Y-66814415D01*
X27522546Y-66814413D01*
X27292587Y-66584454D01*
X27111902Y-66314040D01*
X26987447Y-66013578D01*
X26982832Y-65990375D01*
X26924000Y-65694609D01*
X26924000Y-65369391D01*
X26931725Y-65330557D01*
X26987447Y-65050422D01*
X27111902Y-64749960D01*
X27292587Y-64479546D01*
X27522546Y-64249587D01*
X27701537Y-64129989D01*
X27792958Y-64068903D01*
X28093421Y-63944447D01*
X28199744Y-63923298D01*
X28412389Y-63881000D01*
X28737611Y-63881000D01*
X28950256Y-63923298D01*
X28950256Y-63923298D01*
G37*
G36*
X163559443Y-65272519D02*
X163625627Y-65279037D01*
X163738853Y-65313384D01*
X163795467Y-65330557D01*
X163868115Y-65369389D01*
X163951991Y-65414222D01*
X163987729Y-65443552D01*
X164089186Y-65526814D01*
X164172448Y-65628271D01*
X164201778Y-65664009D01*
X164201779Y-65664011D01*
X164285443Y-65820533D01*
X164285443Y-65820534D01*
X164336963Y-65990373D01*
X164354359Y-66167000D01*
X164336963Y-66343627D01*
X164302616Y-66456853D01*
X164285443Y-66513467D01*
X164247499Y-66584454D01*
X164201778Y-66669991D01*
X164172448Y-66705729D01*
X164089186Y-66807186D01*
X163987729Y-66890448D01*
X163951991Y-66919778D01*
X163951989Y-66919779D01*
X163795467Y-67003443D01*
X163738853Y-67020616D01*
X163625627Y-67054963D01*
X163559443Y-67061481D01*
X163493260Y-67068000D01*
X163404740Y-67068000D01*
X163338557Y-67061481D01*
X163272373Y-67054963D01*
X163159147Y-67020616D01*
X163102533Y-67003443D01*
X162946011Y-66919779D01*
X162946009Y-66919778D01*
X162910271Y-66890448D01*
X162808814Y-66807186D01*
X162725552Y-66705729D01*
X162696222Y-66669991D01*
X162650501Y-66584454D01*
X162612557Y-66513467D01*
X162595384Y-66456853D01*
X162561037Y-66343627D01*
X162543641Y-66167000D01*
X162561037Y-65990373D01*
X162612557Y-65820534D01*
X162612557Y-65820533D01*
X162696221Y-65664011D01*
X162696222Y-65664009D01*
X162725552Y-65628271D01*
X162808814Y-65526814D01*
X162910271Y-65443552D01*
X162946009Y-65414222D01*
X163029885Y-65369389D01*
X163102533Y-65330557D01*
X163159147Y-65313384D01*
X163272373Y-65279037D01*
X163338557Y-65272519D01*
X163404740Y-65266000D01*
X163493260Y-65266000D01*
X163559443Y-65272519D01*
X163559443Y-65272519D01*
G37*
G36*
X163559442Y-62732518D02*
X163625627Y-62739037D01*
X163738853Y-62773384D01*
X163795467Y-62790557D01*
X163934087Y-62864652D01*
X163951991Y-62874222D01*
X163987729Y-62903552D01*
X164089186Y-62986814D01*
X164172448Y-63088271D01*
X164201778Y-63124009D01*
X164201779Y-63124011D01*
X164285443Y-63280533D01*
X164285443Y-63280534D01*
X164336963Y-63450373D01*
X164354359Y-63627000D01*
X164336963Y-63803627D01*
X164327901Y-63833500D01*
X164285443Y-63973467D01*
X164211348Y-64112087D01*
X164201778Y-64129991D01*
X164172448Y-64165729D01*
X164089186Y-64267186D01*
X163987729Y-64350448D01*
X163951991Y-64379778D01*
X163951989Y-64379779D01*
X163795467Y-64463443D01*
X163742381Y-64479546D01*
X163625627Y-64514963D01*
X163559442Y-64521482D01*
X163493260Y-64528000D01*
X163404740Y-64528000D01*
X163338558Y-64521482D01*
X163272373Y-64514963D01*
X163155619Y-64479546D01*
X163102533Y-64463443D01*
X162946011Y-64379779D01*
X162946009Y-64379778D01*
X162910271Y-64350448D01*
X162808814Y-64267186D01*
X162725552Y-64165729D01*
X162696222Y-64129991D01*
X162686652Y-64112087D01*
X162612557Y-63973467D01*
X162570099Y-63833500D01*
X162561037Y-63803627D01*
X162543641Y-63627000D01*
X162561037Y-63450373D01*
X162612557Y-63280534D01*
X162612557Y-63280533D01*
X162696221Y-63124011D01*
X162696222Y-63124009D01*
X162725552Y-63088271D01*
X162808814Y-62986814D01*
X162910271Y-62903552D01*
X162946009Y-62874222D01*
X162963913Y-62864652D01*
X163102533Y-62790557D01*
X163159147Y-62773384D01*
X163272373Y-62739037D01*
X163338558Y-62732518D01*
X163404740Y-62726000D01*
X163493260Y-62726000D01*
X163559442Y-62732518D01*
X163559442Y-62732518D01*
G37*
G36*
X170518554Y-59210966D02*
X170573261Y-59221848D01*
X171001116Y-59399071D01*
X171383583Y-59654627D01*
X171386178Y-59656361D01*
X171713639Y-59983822D01*
X171713641Y-59983825D01*
X171970929Y-60368884D01*
X172148152Y-60796739D01*
X172238500Y-61250947D01*
X172238500Y-61714053D01*
X172148152Y-62168261D01*
X171970929Y-62596116D01*
X171715373Y-62978582D01*
X171713639Y-62981178D01*
X171386178Y-63308639D01*
X171386175Y-63308641D01*
X171001116Y-63565929D01*
X170853677Y-63627000D01*
X170573261Y-63743152D01*
X170119054Y-63833500D01*
X169655946Y-63833500D01*
X169201739Y-63743152D01*
X168921323Y-63627000D01*
X168773884Y-63565929D01*
X168388825Y-63308641D01*
X168388822Y-63308639D01*
X168061361Y-62981178D01*
X168059627Y-62978583D01*
X167804071Y-62596116D01*
X167626848Y-62168261D01*
X167536500Y-61714053D01*
X167536500Y-61250947D01*
X167626848Y-60796739D01*
X167804071Y-60368884D01*
X168061359Y-59983825D01*
X168061361Y-59983822D01*
X168388822Y-59656361D01*
X168391417Y-59654627D01*
X168773884Y-59399071D01*
X169201739Y-59221848D01*
X169256446Y-59210966D01*
X169655946Y-59131500D01*
X170119054Y-59131500D01*
X170518554Y-59210966D01*
X170518554Y-59210966D01*
G37*
G36*
X124252942Y-60510018D02*
X124319127Y-60516537D01*
X124432353Y-60550884D01*
X124488967Y-60568057D01*
X124627587Y-60642152D01*
X124645491Y-60651722D01*
X124681229Y-60681052D01*
X124782686Y-60764314D01*
X124865948Y-60865771D01*
X124895278Y-60901509D01*
X124895279Y-60901511D01*
X124978943Y-61058033D01*
X124978943Y-61058034D01*
X125030463Y-61227873D01*
X125047859Y-61404500D01*
X125030463Y-61581127D01*
X124996116Y-61694353D01*
X124978943Y-61750967D01*
X124904848Y-61889587D01*
X124895278Y-61907491D01*
X124865948Y-61943229D01*
X124782686Y-62044686D01*
X124681229Y-62127948D01*
X124645491Y-62157278D01*
X124645489Y-62157279D01*
X124488967Y-62240943D01*
X124432353Y-62258116D01*
X124319127Y-62292463D01*
X124252943Y-62298981D01*
X124186760Y-62305500D01*
X124098240Y-62305500D01*
X124032057Y-62298981D01*
X123965873Y-62292463D01*
X123852647Y-62258116D01*
X123796033Y-62240943D01*
X123639511Y-62157279D01*
X123639509Y-62157278D01*
X123603771Y-62127948D01*
X123502314Y-62044686D01*
X123419052Y-61943229D01*
X123389722Y-61907491D01*
X123380152Y-61889587D01*
X123306057Y-61750967D01*
X123288884Y-61694353D01*
X123254537Y-61581127D01*
X123237141Y-61404500D01*
X123254537Y-61227873D01*
X123306057Y-61058034D01*
X123306057Y-61058033D01*
X123389721Y-60901511D01*
X123389722Y-60901509D01*
X123419052Y-60865771D01*
X123502314Y-60764314D01*
X123603771Y-60681052D01*
X123639509Y-60651722D01*
X123657413Y-60642152D01*
X123796033Y-60568057D01*
X123852647Y-60550884D01*
X123965873Y-60516537D01*
X124032058Y-60510018D01*
X124098240Y-60503500D01*
X124186760Y-60503500D01*
X124252942Y-60510018D01*
X124252942Y-60510018D01*
G37*
G36*
X121712942Y-60510018D02*
X121779127Y-60516537D01*
X121892353Y-60550884D01*
X121948967Y-60568057D01*
X122087587Y-60642152D01*
X122105491Y-60651722D01*
X122141229Y-60681052D01*
X122242686Y-60764314D01*
X122325948Y-60865771D01*
X122355278Y-60901509D01*
X122355279Y-60901511D01*
X122438943Y-61058033D01*
X122438943Y-61058034D01*
X122490463Y-61227873D01*
X122507859Y-61404500D01*
X122490463Y-61581127D01*
X122456116Y-61694353D01*
X122438943Y-61750967D01*
X122364848Y-61889587D01*
X122355278Y-61907491D01*
X122325948Y-61943229D01*
X122242686Y-62044686D01*
X122141229Y-62127948D01*
X122105491Y-62157278D01*
X122105489Y-62157279D01*
X121948967Y-62240943D01*
X121892353Y-62258116D01*
X121779127Y-62292463D01*
X121712943Y-62298981D01*
X121646760Y-62305500D01*
X121558240Y-62305500D01*
X121492057Y-62298981D01*
X121425873Y-62292463D01*
X121312647Y-62258116D01*
X121256033Y-62240943D01*
X121099511Y-62157279D01*
X121099509Y-62157278D01*
X121063771Y-62127948D01*
X120962314Y-62044686D01*
X120879052Y-61943229D01*
X120849722Y-61907491D01*
X120840152Y-61889587D01*
X120766057Y-61750967D01*
X120748884Y-61694353D01*
X120714537Y-61581127D01*
X120697141Y-61404500D01*
X120714537Y-61227873D01*
X120766057Y-61058034D01*
X120766057Y-61058033D01*
X120849721Y-60901511D01*
X120849722Y-60901509D01*
X120879052Y-60865771D01*
X120962314Y-60764314D01*
X121063771Y-60681052D01*
X121099509Y-60651722D01*
X121117413Y-60642152D01*
X121256033Y-60568057D01*
X121312647Y-60550884D01*
X121425873Y-60516537D01*
X121492058Y-60510018D01*
X121558240Y-60503500D01*
X121646760Y-60503500D01*
X121712942Y-60510018D01*
X121712942Y-60510018D01*
G37*
G36*
X115564256Y-57446298D02*
X115670579Y-57467447D01*
X115971042Y-57591903D01*
X116126805Y-57695981D01*
X116241454Y-57772587D01*
X116471413Y-58002546D01*
X116471415Y-58002549D01*
X116652097Y-58272958D01*
X116776553Y-58573421D01*
X116840000Y-58892391D01*
X116840000Y-59217609D01*
X116776553Y-59536579D01*
X116708471Y-59700943D01*
X116652098Y-59837040D01*
X116471413Y-60107454D01*
X116241454Y-60337413D01*
X116241451Y-60337415D01*
X115971042Y-60518097D01*
X115670579Y-60642553D01*
X115624488Y-60651721D01*
X115351611Y-60706000D01*
X115026389Y-60706000D01*
X114753512Y-60651721D01*
X114707421Y-60642553D01*
X114406958Y-60518097D01*
X114136549Y-60337415D01*
X114136546Y-60337413D01*
X113906587Y-60107454D01*
X113725902Y-59837040D01*
X113669529Y-59700943D01*
X113601447Y-59536579D01*
X113538000Y-59217609D01*
X113538000Y-58892391D01*
X113601447Y-58573421D01*
X113725903Y-58272958D01*
X113906585Y-58002549D01*
X113906587Y-58002546D01*
X114136546Y-57772587D01*
X114251195Y-57695981D01*
X114406958Y-57591903D01*
X114707421Y-57467447D01*
X114813744Y-57446298D01*
X115026389Y-57404000D01*
X115351611Y-57404000D01*
X115564256Y-57446298D01*
X115564256Y-57446298D01*
G37*
G36*
X121712943Y-57970019D02*
X121779127Y-57976537D01*
X121864867Y-58002546D01*
X121948967Y-58028057D01*
X122087587Y-58102152D01*
X122105491Y-58111722D01*
X122141229Y-58141052D01*
X122242686Y-58224314D01*
X122325948Y-58325771D01*
X122355278Y-58361509D01*
X122355279Y-58361511D01*
X122438943Y-58518033D01*
X122438943Y-58518034D01*
X122490463Y-58687873D01*
X122507859Y-58864500D01*
X122490463Y-59041127D01*
X122463049Y-59131500D01*
X122438943Y-59210967D01*
X122364848Y-59349587D01*
X122355278Y-59367491D01*
X122329361Y-59399071D01*
X122242686Y-59504686D01*
X122141229Y-59587948D01*
X122105491Y-59617278D01*
X122105489Y-59617279D01*
X121948967Y-59700943D01*
X121892353Y-59718116D01*
X121779127Y-59752463D01*
X121712942Y-59758982D01*
X121646760Y-59765500D01*
X121558240Y-59765500D01*
X121492058Y-59758982D01*
X121425873Y-59752463D01*
X121312647Y-59718116D01*
X121256033Y-59700943D01*
X121099511Y-59617279D01*
X121099509Y-59617278D01*
X121063771Y-59587948D01*
X120962314Y-59504686D01*
X120875639Y-59399071D01*
X120849722Y-59367491D01*
X120840152Y-59349587D01*
X120766057Y-59210967D01*
X120741951Y-59131500D01*
X120714537Y-59041127D01*
X120697141Y-58864500D01*
X120714537Y-58687873D01*
X120766057Y-58518034D01*
X120766057Y-58518033D01*
X120849721Y-58361511D01*
X120849722Y-58361509D01*
X120879052Y-58325771D01*
X120962314Y-58224314D01*
X121063771Y-58141052D01*
X121099509Y-58111722D01*
X121117413Y-58102152D01*
X121256033Y-58028057D01*
X121340133Y-58002546D01*
X121425873Y-57976537D01*
X121492057Y-57970019D01*
X121558240Y-57963500D01*
X121646760Y-57963500D01*
X121712943Y-57970019D01*
X121712943Y-57970019D01*
G37*
G36*
X125043500Y-59765500D02*
X123241500Y-59765500D01*
X123241500Y-57963500D01*
X125043500Y-57963500D01*
X125043500Y-59765500D01*
X125043500Y-59765500D01*
G37*
G36*
X105955981Y-56441468D02*
X106138150Y-56516925D01*
X106302103Y-56626475D01*
X106441525Y-56765897D01*
X106551075Y-56929850D01*
X106626532Y-57112019D01*
X106665000Y-57305410D01*
X106665000Y-57502590D01*
X106626532Y-57695981D01*
X106551075Y-57878150D01*
X106441525Y-58042103D01*
X106302103Y-58181525D01*
X106138150Y-58291075D01*
X105968103Y-58361511D01*
X105955981Y-58366532D01*
X105762590Y-58405000D01*
X105565410Y-58405000D01*
X105372019Y-58366532D01*
X105359897Y-58361511D01*
X105189850Y-58291075D01*
X105025897Y-58181525D01*
X104886475Y-58042103D01*
X104776925Y-57878150D01*
X104701468Y-57695981D01*
X104663000Y-57502590D01*
X104663000Y-57305410D01*
X104701468Y-57112019D01*
X104776925Y-56929850D01*
X104886475Y-56765897D01*
X105025897Y-56626475D01*
X105189850Y-56516925D01*
X105372019Y-56441468D01*
X105565410Y-56403000D01*
X105762590Y-56403000D01*
X105955981Y-56441468D01*
X105955981Y-56441468D01*
G37*
G36*
X103415981Y-56441468D02*
X103598150Y-56516925D01*
X103762103Y-56626475D01*
X103901525Y-56765897D01*
X104011075Y-56929850D01*
X104086532Y-57112019D01*
X104125000Y-57305410D01*
X104125000Y-57502590D01*
X104086532Y-57695981D01*
X104011075Y-57878150D01*
X103901525Y-58042103D01*
X103762103Y-58181525D01*
X103598150Y-58291075D01*
X103428103Y-58361511D01*
X103415981Y-58366532D01*
X103222590Y-58405000D01*
X103025410Y-58405000D01*
X102832019Y-58366532D01*
X102819897Y-58361511D01*
X102649850Y-58291075D01*
X102485897Y-58181525D01*
X102346475Y-58042103D01*
X102236925Y-57878150D01*
X102161468Y-57695981D01*
X102123000Y-57502590D01*
X102123000Y-57305410D01*
X102161468Y-57112019D01*
X102236925Y-56929850D01*
X102346475Y-56765897D01*
X102485897Y-56626475D01*
X102649850Y-56516925D01*
X102832019Y-56441468D01*
X103025410Y-56403000D01*
X103222590Y-56403000D01*
X103415981Y-56441468D01*
X103415981Y-56441468D01*
G37*
G36*
X100875981Y-56441468D02*
X101058150Y-56516925D01*
X101222103Y-56626475D01*
X101361525Y-56765897D01*
X101471075Y-56929850D01*
X101546532Y-57112019D01*
X101585000Y-57305410D01*
X101585000Y-57502590D01*
X101546532Y-57695981D01*
X101471075Y-57878150D01*
X101361525Y-58042103D01*
X101222103Y-58181525D01*
X101058150Y-58291075D01*
X100888103Y-58361511D01*
X100875981Y-58366532D01*
X100682590Y-58405000D01*
X100485410Y-58405000D01*
X100292019Y-58366532D01*
X100279897Y-58361511D01*
X100109850Y-58291075D01*
X99945897Y-58181525D01*
X99806475Y-58042103D01*
X99696925Y-57878150D01*
X99621468Y-57695981D01*
X99583000Y-57502590D01*
X99583000Y-57305410D01*
X99621468Y-57112019D01*
X99696925Y-56929850D01*
X99806475Y-56765897D01*
X99945897Y-56626475D01*
X100109850Y-56516925D01*
X100292019Y-56441468D01*
X100485410Y-56403000D01*
X100682590Y-56403000D01*
X100875981Y-56441468D01*
X100875981Y-56441468D01*
G37*
G36*
X98335981Y-56441468D02*
X98518150Y-56516925D01*
X98682103Y-56626475D01*
X98821525Y-56765897D01*
X98931075Y-56929850D01*
X99006532Y-57112019D01*
X99045000Y-57305410D01*
X99045000Y-57502590D01*
X99006532Y-57695981D01*
X98931075Y-57878150D01*
X98821525Y-58042103D01*
X98682103Y-58181525D01*
X98518150Y-58291075D01*
X98348103Y-58361511D01*
X98335981Y-58366532D01*
X98142590Y-58405000D01*
X97945410Y-58405000D01*
X97752019Y-58366532D01*
X97739897Y-58361511D01*
X97569850Y-58291075D01*
X97405897Y-58181525D01*
X97266475Y-58042103D01*
X97156925Y-57878150D01*
X97081468Y-57695981D01*
X97043000Y-57502590D01*
X97043000Y-57305410D01*
X97081468Y-57112019D01*
X97156925Y-56929850D01*
X97266475Y-56765897D01*
X97405897Y-56626475D01*
X97569850Y-56516925D01*
X97752019Y-56441468D01*
X97945410Y-56403000D01*
X98142590Y-56403000D01*
X98335981Y-56441468D01*
X98335981Y-56441468D01*
G37*
G36*
X176212855Y-55684140D02*
X176276618Y-55690420D01*
X176358427Y-55715237D01*
X176399333Y-55727645D01*
X176499491Y-55781181D01*
X176512426Y-55788095D01*
X176611553Y-55869447D01*
X176692905Y-55968574D01*
X176692906Y-55968576D01*
X176753355Y-56081667D01*
X176753355Y-56081668D01*
X176790580Y-56204382D01*
X176803149Y-56332000D01*
X176790580Y-56459618D01*
X176773196Y-56516925D01*
X176753355Y-56582333D01*
X176729761Y-56626473D01*
X176692905Y-56695426D01*
X176611553Y-56794553D01*
X176512426Y-56875905D01*
X176512424Y-56875906D01*
X176399333Y-56936355D01*
X176358427Y-56948763D01*
X176276618Y-56973580D01*
X176212855Y-56979860D01*
X176180974Y-56983000D01*
X175417026Y-56983000D01*
X175385145Y-56979860D01*
X175321382Y-56973580D01*
X175239573Y-56948763D01*
X175198667Y-56936355D01*
X175085576Y-56875906D01*
X175085574Y-56875905D01*
X174986447Y-56794553D01*
X174905095Y-56695426D01*
X174868239Y-56626473D01*
X174844645Y-56582333D01*
X174824804Y-56516925D01*
X174807420Y-56459618D01*
X174794851Y-56332000D01*
X174807420Y-56204382D01*
X174844645Y-56081668D01*
X174844645Y-56081667D01*
X174905094Y-55968576D01*
X174905095Y-55968574D01*
X174986447Y-55869447D01*
X175085574Y-55788095D01*
X175098509Y-55781181D01*
X175198667Y-55727645D01*
X175239573Y-55715237D01*
X175321382Y-55690420D01*
X175385145Y-55684140D01*
X175417026Y-55681000D01*
X176180974Y-55681000D01*
X176212855Y-55684140D01*
X176212855Y-55684140D01*
G37*
G36*
X173325349Y-54585820D02*
X173325352Y-54585821D01*
X173325351Y-54585821D01*
X173466574Y-54644317D01*
X173466575Y-54644318D01*
X173593674Y-54729243D01*
X173701757Y-54837326D01*
X173701759Y-54837329D01*
X173786683Y-54964426D01*
X173831927Y-55073657D01*
X173845180Y-55105651D01*
X173875000Y-55255569D01*
X173875000Y-55408431D01*
X173845180Y-55558349D01*
X173845179Y-55558351D01*
X173786683Y-55699574D01*
X173752271Y-55751075D01*
X173701757Y-55826674D01*
X173593674Y-55934757D01*
X173593671Y-55934759D01*
X173466574Y-56019683D01*
X173357343Y-56064927D01*
X173325349Y-56078180D01*
X173175431Y-56108000D01*
X173022569Y-56108000D01*
X172872651Y-56078180D01*
X172840657Y-56064927D01*
X172731426Y-56019683D01*
X172604329Y-55934759D01*
X172604326Y-55934757D01*
X172496243Y-55826674D01*
X172445729Y-55751075D01*
X172411317Y-55699574D01*
X172352821Y-55558351D01*
X172352820Y-55558349D01*
X172323000Y-55408431D01*
X172323000Y-55255569D01*
X172352820Y-55105651D01*
X172366073Y-55073657D01*
X172411317Y-54964426D01*
X172496241Y-54837329D01*
X172496243Y-54837326D01*
X172604326Y-54729243D01*
X172731425Y-54644318D01*
X172731426Y-54644317D01*
X172872649Y-54585821D01*
X172872648Y-54585821D01*
X172872651Y-54585820D01*
X173022569Y-54556000D01*
X173175431Y-54556000D01*
X173325349Y-54585820D01*
X173325349Y-54585820D01*
G37*
G36*
X102145981Y-53901468D02*
X102328150Y-53976925D01*
X102492103Y-54086475D01*
X102631525Y-54225897D01*
X102741075Y-54389850D01*
X102816532Y-54572019D01*
X102855000Y-54765410D01*
X102855000Y-54962590D01*
X102816532Y-55155981D01*
X102741075Y-55338150D01*
X102631525Y-55502103D01*
X102492103Y-55641525D01*
X102328150Y-55751075D01*
X102145981Y-55826532D01*
X101952590Y-55865000D01*
X101755410Y-55865000D01*
X101562019Y-55826532D01*
X101379850Y-55751075D01*
X101215897Y-55641525D01*
X101076475Y-55502103D01*
X100966925Y-55338150D01*
X100891468Y-55155981D01*
X100853000Y-54962590D01*
X100853000Y-54765410D01*
X100891468Y-54572019D01*
X100966925Y-54389850D01*
X101076475Y-54225897D01*
X101215897Y-54086475D01*
X101379850Y-53976925D01*
X101562019Y-53901468D01*
X101755410Y-53863000D01*
X101952590Y-53863000D01*
X102145981Y-53901468D01*
X102145981Y-53901468D01*
G37*
G36*
X104685981Y-53901468D02*
X104868150Y-53976925D01*
X105032103Y-54086475D01*
X105171525Y-54225897D01*
X105281075Y-54389850D01*
X105356532Y-54572019D01*
X105395000Y-54765410D01*
X105395000Y-54962590D01*
X105356532Y-55155981D01*
X105281075Y-55338150D01*
X105171525Y-55502103D01*
X105032103Y-55641525D01*
X104868150Y-55751075D01*
X104685981Y-55826532D01*
X104492590Y-55865000D01*
X104295410Y-55865000D01*
X104102019Y-55826532D01*
X103919850Y-55751075D01*
X103755897Y-55641525D01*
X103616475Y-55502103D01*
X103506925Y-55338150D01*
X103431468Y-55155981D01*
X103393000Y-54962590D01*
X103393000Y-54765410D01*
X103431468Y-54572019D01*
X103506925Y-54389850D01*
X103616475Y-54225897D01*
X103755897Y-54086475D01*
X103919850Y-53976925D01*
X104102019Y-53901468D01*
X104295410Y-53863000D01*
X104492590Y-53863000D01*
X104685981Y-53901468D01*
X104685981Y-53901468D01*
G37*
G36*
X99605981Y-53901468D02*
X99788150Y-53976925D01*
X99952103Y-54086475D01*
X100091525Y-54225897D01*
X100201075Y-54389850D01*
X100276532Y-54572019D01*
X100315000Y-54765410D01*
X100315000Y-54962590D01*
X100276532Y-55155981D01*
X100201075Y-55338150D01*
X100091525Y-55502103D01*
X99952103Y-55641525D01*
X99788150Y-55751075D01*
X99605981Y-55826532D01*
X99412590Y-55865000D01*
X99215410Y-55865000D01*
X99022019Y-55826532D01*
X98839850Y-55751075D01*
X98675897Y-55641525D01*
X98536475Y-55502103D01*
X98426925Y-55338150D01*
X98351468Y-55155981D01*
X98313000Y-54962590D01*
X98313000Y-54765410D01*
X98351468Y-54572019D01*
X98426925Y-54389850D01*
X98536475Y-54225897D01*
X98675897Y-54086475D01*
X98839850Y-53976925D01*
X99022019Y-53901468D01*
X99215410Y-53863000D01*
X99412590Y-53863000D01*
X99605981Y-53901468D01*
X99605981Y-53901468D01*
G37*
G36*
X107935000Y-55865000D02*
X105933000Y-55865000D01*
X105933000Y-53863000D01*
X107935000Y-53863000D01*
X107935000Y-55865000D01*
X107935000Y-55865000D01*
G37*
G36*
X110527567Y-50248959D02*
X110658072Y-50274918D01*
X110903939Y-50376759D01*
X111124464Y-50524110D01*
X111125215Y-50524612D01*
X111313388Y-50712785D01*
X111313390Y-50712788D01*
X111461241Y-50934061D01*
X111563082Y-51179928D01*
X111615000Y-51440938D01*
X111615000Y-51707062D01*
X111563082Y-51968072D01*
X111461241Y-52213939D01*
X111313890Y-52434464D01*
X111313388Y-52435215D01*
X111125215Y-52623388D01*
X111125212Y-52623390D01*
X110903939Y-52771241D01*
X110658072Y-52873082D01*
X110527567Y-52899041D01*
X110397063Y-52925000D01*
X110130937Y-52925000D01*
X110000433Y-52899041D01*
X109869928Y-52873082D01*
X109624061Y-52771241D01*
X109402788Y-52623390D01*
X109402785Y-52623388D01*
X109214612Y-52435215D01*
X109214110Y-52434464D01*
X109066759Y-52213939D01*
X108964918Y-51968072D01*
X108913000Y-51707062D01*
X108913000Y-51440938D01*
X108964918Y-51179928D01*
X109066759Y-50934061D01*
X109214610Y-50712788D01*
X109214612Y-50712785D01*
X109402785Y-50524612D01*
X109403536Y-50524110D01*
X109624061Y-50376759D01*
X109869928Y-50274918D01*
X110000433Y-50248959D01*
X110130937Y-50223000D01*
X110397063Y-50223000D01*
X110527567Y-50248959D01*
X110527567Y-50248959D01*
G37*
G36*
X94977567Y-50248959D02*
X95108072Y-50274918D01*
X95353939Y-50376759D01*
X95574464Y-50524110D01*
X95575215Y-50524612D01*
X95763388Y-50712785D01*
X95763390Y-50712788D01*
X95911241Y-50934061D01*
X96013082Y-51179928D01*
X96065000Y-51440938D01*
X96065000Y-51707062D01*
X96013082Y-51968072D01*
X95911241Y-52213939D01*
X95763890Y-52434464D01*
X95763388Y-52435215D01*
X95575215Y-52623388D01*
X95575212Y-52623390D01*
X95353939Y-52771241D01*
X95108072Y-52873082D01*
X94977567Y-52899041D01*
X94847063Y-52925000D01*
X94580937Y-52925000D01*
X94450433Y-52899041D01*
X94319928Y-52873082D01*
X94074061Y-52771241D01*
X93852788Y-52623390D01*
X93852785Y-52623388D01*
X93664612Y-52435215D01*
X93664110Y-52434464D01*
X93516759Y-52213939D01*
X93414918Y-51968072D01*
X93363000Y-51707062D01*
X93363000Y-51440938D01*
X93414918Y-51179928D01*
X93516759Y-50934061D01*
X93664610Y-50712788D01*
X93664612Y-50712785D01*
X93852785Y-50524612D01*
X93853536Y-50524110D01*
X94074061Y-50376759D01*
X94319928Y-50274918D01*
X94450433Y-50248959D01*
X94580937Y-50223000D01*
X94847063Y-50223000D01*
X94977567Y-50248959D01*
X94977567Y-50248959D01*
G37*
G36*
X173325349Y-49585820D02*
X173325352Y-49585821D01*
X173325351Y-49585821D01*
X173466574Y-49644317D01*
X173591956Y-49728095D01*
X173593674Y-49729243D01*
X173701757Y-49837326D01*
X173701759Y-49837329D01*
X173786683Y-49964426D01*
X173805250Y-50009252D01*
X173845180Y-50105651D01*
X173875000Y-50255569D01*
X173875000Y-50408431D01*
X173845180Y-50558349D01*
X173845179Y-50558351D01*
X173786683Y-50699574D01*
X173702905Y-50824956D01*
X173701757Y-50826674D01*
X173593674Y-50934757D01*
X173593671Y-50934759D01*
X173466574Y-51019683D01*
X173357343Y-51064927D01*
X173325349Y-51078180D01*
X173175431Y-51108000D01*
X173022569Y-51108000D01*
X172872651Y-51078180D01*
X172840657Y-51064927D01*
X172731426Y-51019683D01*
X172604329Y-50934759D01*
X172604326Y-50934757D01*
X172496243Y-50826674D01*
X172495095Y-50824956D01*
X172411317Y-50699574D01*
X172352821Y-50558351D01*
X172352820Y-50558349D01*
X172323000Y-50408431D01*
X172323000Y-50255569D01*
X172352820Y-50105651D01*
X172392750Y-50009252D01*
X172411317Y-49964426D01*
X172496241Y-49837329D01*
X172496243Y-49837326D01*
X172604326Y-49729243D01*
X172606044Y-49728095D01*
X172731426Y-49644317D01*
X172872649Y-49585821D01*
X172872648Y-49585821D01*
X172872651Y-49585820D01*
X173022569Y-49556000D01*
X173175431Y-49556000D01*
X173325349Y-49585820D01*
X173325349Y-49585820D01*
G37*
G36*
X108692871Y-46912408D02*
X108997883Y-47038748D01*
X109270538Y-47220930D01*
X109272390Y-47222168D01*
X109505832Y-47455610D01*
X109505834Y-47455613D01*
X109689252Y-47730117D01*
X109815592Y-48035129D01*
X109880000Y-48358928D01*
X109880000Y-48689072D01*
X109815592Y-49012871D01*
X109689252Y-49317883D01*
X109530147Y-49556000D01*
X109505832Y-49592390D01*
X109272390Y-49825832D01*
X109272387Y-49825834D01*
X108997883Y-50009252D01*
X108692871Y-50135592D01*
X108369072Y-50200000D01*
X108038928Y-50200000D01*
X107715129Y-50135592D01*
X107410117Y-50009252D01*
X107135613Y-49825834D01*
X107135610Y-49825832D01*
X106902168Y-49592390D01*
X106877853Y-49556000D01*
X106718748Y-49317883D01*
X106592408Y-49012871D01*
X106528000Y-48689072D01*
X106528000Y-48358928D01*
X106592408Y-48035129D01*
X106718748Y-47730117D01*
X106902166Y-47455613D01*
X106902168Y-47455610D01*
X107135610Y-47222168D01*
X107137462Y-47220930D01*
X107410117Y-47038748D01*
X107715129Y-46912408D01*
X108038928Y-46848000D01*
X108369072Y-46848000D01*
X108692871Y-46912408D01*
X108692871Y-46912408D01*
G37*
G36*
X97262871Y-46912408D02*
X97567883Y-47038748D01*
X97840538Y-47220930D01*
X97842390Y-47222168D01*
X98075832Y-47455610D01*
X98075834Y-47455613D01*
X98259252Y-47730117D01*
X98385592Y-48035129D01*
X98450000Y-48358928D01*
X98450000Y-48689072D01*
X98385592Y-49012871D01*
X98259252Y-49317883D01*
X98100147Y-49556000D01*
X98075832Y-49592390D01*
X97842390Y-49825832D01*
X97842387Y-49825834D01*
X97567883Y-50009252D01*
X97262871Y-50135592D01*
X96939072Y-50200000D01*
X96608928Y-50200000D01*
X96285129Y-50135592D01*
X95980117Y-50009252D01*
X95705613Y-49825834D01*
X95705610Y-49825832D01*
X95472168Y-49592390D01*
X95447853Y-49556000D01*
X95288748Y-49317883D01*
X95162408Y-49012871D01*
X95098000Y-48689072D01*
X95098000Y-48358928D01*
X95162408Y-48035129D01*
X95288748Y-47730117D01*
X95472166Y-47455613D01*
X95472168Y-47455610D01*
X95705610Y-47222168D01*
X95707462Y-47220930D01*
X95980117Y-47038748D01*
X96285129Y-46912408D01*
X96608928Y-46848000D01*
X96939072Y-46848000D01*
X97262871Y-46912408D01*
X97262871Y-46912408D01*
G37*
G36*
X176212855Y-48684140D02*
X176276618Y-48690420D01*
X176358427Y-48715237D01*
X176399333Y-48727645D01*
X176499491Y-48781181D01*
X176512426Y-48788095D01*
X176611553Y-48869447D01*
X176692905Y-48968574D01*
X176692906Y-48968576D01*
X176753355Y-49081667D01*
X176753355Y-49081668D01*
X176790580Y-49204382D01*
X176803149Y-49332000D01*
X176790580Y-49459618D01*
X176765763Y-49541427D01*
X176753355Y-49582333D01*
X176720223Y-49644318D01*
X176692905Y-49695426D01*
X176611553Y-49794553D01*
X176512426Y-49875905D01*
X176512424Y-49875906D01*
X176399333Y-49936355D01*
X176358427Y-49948763D01*
X176276618Y-49973580D01*
X176212855Y-49979860D01*
X176180974Y-49983000D01*
X175417026Y-49983000D01*
X175385145Y-49979860D01*
X175321382Y-49973580D01*
X175239573Y-49948763D01*
X175198667Y-49936355D01*
X175085576Y-49875906D01*
X175085574Y-49875905D01*
X174986447Y-49794553D01*
X174905095Y-49695426D01*
X174877777Y-49644318D01*
X174844645Y-49582333D01*
X174832237Y-49541427D01*
X174807420Y-49459618D01*
X174794851Y-49332000D01*
X174807420Y-49204382D01*
X174844645Y-49081668D01*
X174844645Y-49081667D01*
X174905094Y-48968576D01*
X174905095Y-48968574D01*
X174986447Y-48869447D01*
X175085574Y-48788095D01*
X175098509Y-48781181D01*
X175198667Y-48727645D01*
X175239573Y-48715237D01*
X175321382Y-48690420D01*
X175385145Y-48684140D01*
X175417026Y-48681000D01*
X176180974Y-48681000D01*
X176212855Y-48684140D01*
X176212855Y-48684140D01*
G37*
G36*
X46698635Y-46386019D02*
X46879903Y-46422075D01*
X47107571Y-46516378D01*
X47311542Y-46652668D01*
X47312469Y-46653287D01*
X47486713Y-46827531D01*
X47486715Y-46827534D01*
X47623622Y-47032429D01*
X47717925Y-47260097D01*
X47766000Y-47501787D01*
X47766000Y-47748213D01*
X47717925Y-47989903D01*
X47623622Y-48217571D01*
X47529170Y-48358928D01*
X47486713Y-48422469D01*
X47312469Y-48596713D01*
X47312466Y-48596715D01*
X47107571Y-48733622D01*
X46879903Y-48827925D01*
X46698636Y-48863981D01*
X46638214Y-48876000D01*
X46391786Y-48876000D01*
X46331364Y-48863981D01*
X46150097Y-48827925D01*
X45922429Y-48733622D01*
X45717534Y-48596715D01*
X45717531Y-48596713D01*
X45543287Y-48422469D01*
X45500830Y-48358928D01*
X45406378Y-48217571D01*
X45312075Y-47989903D01*
X45264000Y-47748213D01*
X45264000Y-47501787D01*
X45312075Y-47260097D01*
X45406378Y-47032429D01*
X45543285Y-46827534D01*
X45543287Y-46827531D01*
X45717531Y-46653287D01*
X45718458Y-46652668D01*
X45922429Y-46516378D01*
X46150097Y-46422075D01*
X46331365Y-46386019D01*
X46391786Y-46374000D01*
X46638214Y-46374000D01*
X46698635Y-46386019D01*
X46698635Y-46386019D01*
G37*
G36*
X41698635Y-46386019D02*
X41879903Y-46422075D01*
X42107571Y-46516378D01*
X42311542Y-46652668D01*
X42312469Y-46653287D01*
X42486713Y-46827531D01*
X42486715Y-46827534D01*
X42623622Y-47032429D01*
X42717925Y-47260097D01*
X42766000Y-47501787D01*
X42766000Y-47748213D01*
X42717925Y-47989903D01*
X42623622Y-48217571D01*
X42529170Y-48358928D01*
X42486713Y-48422469D01*
X42312469Y-48596713D01*
X42312466Y-48596715D01*
X42107571Y-48733622D01*
X41879903Y-48827925D01*
X41698636Y-48863981D01*
X41638214Y-48876000D01*
X41391786Y-48876000D01*
X41331364Y-48863981D01*
X41150097Y-48827925D01*
X40922429Y-48733622D01*
X40717534Y-48596715D01*
X40717531Y-48596713D01*
X40543287Y-48422469D01*
X40500830Y-48358928D01*
X40406378Y-48217571D01*
X40312075Y-47989903D01*
X40264000Y-47748213D01*
X40264000Y-47501787D01*
X40312075Y-47260097D01*
X40406378Y-47032429D01*
X40543285Y-46827534D01*
X40543287Y-46827531D01*
X40717531Y-46653287D01*
X40718458Y-46652668D01*
X40922429Y-46516378D01*
X41150097Y-46422075D01*
X41331365Y-46386019D01*
X41391786Y-46374000D01*
X41638214Y-46374000D01*
X41698635Y-46386019D01*
X41698635Y-46386019D01*
G37*
G36*
X56698635Y-46386019D02*
X56879903Y-46422075D01*
X57107571Y-46516378D01*
X57311542Y-46652668D01*
X57312469Y-46653287D01*
X57486713Y-46827531D01*
X57486715Y-46827534D01*
X57623622Y-47032429D01*
X57717925Y-47260097D01*
X57766000Y-47501787D01*
X57766000Y-47748213D01*
X57717925Y-47989903D01*
X57623622Y-48217571D01*
X57529170Y-48358928D01*
X57486713Y-48422469D01*
X57312469Y-48596713D01*
X57312466Y-48596715D01*
X57107571Y-48733622D01*
X56879903Y-48827925D01*
X56698636Y-48863981D01*
X56638214Y-48876000D01*
X56391786Y-48876000D01*
X56331364Y-48863981D01*
X56150097Y-48827925D01*
X55922429Y-48733622D01*
X55717534Y-48596715D01*
X55717531Y-48596713D01*
X55543287Y-48422469D01*
X55500830Y-48358928D01*
X55406378Y-48217571D01*
X55312075Y-47989903D01*
X55264000Y-47748213D01*
X55264000Y-47501787D01*
X55312075Y-47260097D01*
X55406378Y-47032429D01*
X55543285Y-46827534D01*
X55543287Y-46827531D01*
X55717531Y-46653287D01*
X55718458Y-46652668D01*
X55922429Y-46516378D01*
X56150097Y-46422075D01*
X56331365Y-46386019D01*
X56391786Y-46374000D01*
X56638214Y-46374000D01*
X56698635Y-46386019D01*
X56698635Y-46386019D01*
G37*
G36*
X51698635Y-46386019D02*
X51879903Y-46422075D01*
X52107571Y-46516378D01*
X52311542Y-46652668D01*
X52312469Y-46653287D01*
X52486713Y-46827531D01*
X52486715Y-46827534D01*
X52623622Y-47032429D01*
X52717925Y-47260097D01*
X52766000Y-47501787D01*
X52766000Y-47748213D01*
X52717925Y-47989903D01*
X52623622Y-48217571D01*
X52529170Y-48358928D01*
X52486713Y-48422469D01*
X52312469Y-48596713D01*
X52312466Y-48596715D01*
X52107571Y-48733622D01*
X51879903Y-48827925D01*
X51698636Y-48863981D01*
X51638214Y-48876000D01*
X51391786Y-48876000D01*
X51331364Y-48863981D01*
X51150097Y-48827925D01*
X50922429Y-48733622D01*
X50717534Y-48596715D01*
X50717531Y-48596713D01*
X50543287Y-48422469D01*
X50500830Y-48358928D01*
X50406378Y-48217571D01*
X50312075Y-47989903D01*
X50264000Y-47748213D01*
X50264000Y-47501787D01*
X50312075Y-47260097D01*
X50406378Y-47032429D01*
X50543285Y-46827534D01*
X50543287Y-46827531D01*
X50717531Y-46653287D01*
X50718458Y-46652668D01*
X50922429Y-46516378D01*
X51150097Y-46422075D01*
X51331365Y-46386019D01*
X51391786Y-46374000D01*
X51638214Y-46374000D01*
X51698635Y-46386019D01*
X51698635Y-46386019D01*
G37*
G36*
X170568006Y-42841582D02*
X170968565Y-43007499D01*
X171329059Y-43248373D01*
X171635627Y-43554941D01*
X171876501Y-43915435D01*
X172042418Y-44315994D01*
X172127000Y-44741219D01*
X172127000Y-45174781D01*
X172042418Y-45600006D01*
X171876501Y-46000565D01*
X171635627Y-46361059D01*
X171329059Y-46667627D01*
X170968565Y-46908501D01*
X170568006Y-47074418D01*
X170142781Y-47159000D01*
X169709219Y-47159000D01*
X169283994Y-47074418D01*
X168883435Y-46908501D01*
X168522941Y-46667627D01*
X168216373Y-46361059D01*
X167975499Y-46000565D01*
X167809582Y-45600006D01*
X167725000Y-45174781D01*
X167725000Y-44741219D01*
X167809582Y-44315994D01*
X167975499Y-43915435D01*
X168216373Y-43554941D01*
X168522941Y-43248373D01*
X168883435Y-43007499D01*
X169283994Y-42841582D01*
X169709219Y-42757000D01*
X170142781Y-42757000D01*
X170568006Y-42841582D01*
X170568006Y-42841582D01*
G37*
G36*
X29153506Y-42841582D02*
X29554065Y-43007499D01*
X29914559Y-43248373D01*
X30221127Y-43554941D01*
X30462001Y-43915435D01*
X30627918Y-44315994D01*
X30712500Y-44741219D01*
X30712500Y-45174781D01*
X30627918Y-45600006D01*
X30462001Y-46000565D01*
X30221127Y-46361059D01*
X29914559Y-46667627D01*
X29554065Y-46908501D01*
X29153506Y-47074418D01*
X28728281Y-47159000D01*
X28294719Y-47159000D01*
X27869494Y-47074418D01*
X27468935Y-46908501D01*
X27108441Y-46667627D01*
X26801873Y-46361059D01*
X26560999Y-46000565D01*
X26395082Y-45600006D01*
X26310500Y-45174781D01*
X26310500Y-44741219D01*
X26395082Y-44315994D01*
X26560999Y-43915435D01*
X26801873Y-43554941D01*
X27108441Y-43248373D01*
X27468935Y-43007499D01*
X27869494Y-42841582D01*
X28294719Y-42757000D01*
X28728281Y-42757000D01*
X29153506Y-42841582D01*
X29153506Y-42841582D01*
G37*
G36*
X106564520Y-44186275D02*
X106564523Y-44186276D01*
X106564522Y-44186276D01*
X106745783Y-44261356D01*
X106906716Y-44368888D01*
X106908916Y-44370358D01*
X107047642Y-44509084D01*
X107047644Y-44509087D01*
X107156644Y-44672217D01*
X107205546Y-44790279D01*
X107231725Y-44853480D01*
X107270000Y-45045901D01*
X107270000Y-45242099D01*
X107231725Y-45434520D01*
X107231724Y-45434522D01*
X107156644Y-45615783D01*
X107077453Y-45734300D01*
X107047642Y-45778916D01*
X106908916Y-45917642D01*
X106908913Y-45917644D01*
X106745783Y-46026644D01*
X106605585Y-46084715D01*
X106564520Y-46101725D01*
X106372099Y-46140000D01*
X106175901Y-46140000D01*
X105983480Y-46101725D01*
X105942415Y-46084715D01*
X105802217Y-46026644D01*
X105639087Y-45917644D01*
X105639084Y-45917642D01*
X105500358Y-45778916D01*
X105470547Y-45734300D01*
X105391356Y-45615783D01*
X105316276Y-45434522D01*
X105316275Y-45434520D01*
X105278000Y-45242099D01*
X105278000Y-45045901D01*
X105316275Y-44853480D01*
X105342454Y-44790279D01*
X105391356Y-44672217D01*
X105500356Y-44509087D01*
X105500358Y-44509084D01*
X105639084Y-44370358D01*
X105641284Y-44368888D01*
X105802217Y-44261356D01*
X105983478Y-44186276D01*
X105983477Y-44186276D01*
X105983480Y-44186275D01*
X106175901Y-44148000D01*
X106372099Y-44148000D01*
X106564520Y-44186275D01*
X106564520Y-44186275D01*
G37*
G36*
X96454520Y-44186275D02*
X96454523Y-44186276D01*
X96454522Y-44186276D01*
X96635783Y-44261356D01*
X96796716Y-44368888D01*
X96798916Y-44370358D01*
X96937642Y-44509084D01*
X96937644Y-44509087D01*
X97046644Y-44672217D01*
X97095546Y-44790279D01*
X97121725Y-44853480D01*
X97160000Y-45045901D01*
X97160000Y-45242099D01*
X97121725Y-45434520D01*
X97121724Y-45434522D01*
X97046644Y-45615783D01*
X96967453Y-45734300D01*
X96937642Y-45778916D01*
X96798916Y-45917642D01*
X96798913Y-45917644D01*
X96635783Y-46026644D01*
X96495585Y-46084715D01*
X96454520Y-46101725D01*
X96262099Y-46140000D01*
X96065901Y-46140000D01*
X95873480Y-46101725D01*
X95832415Y-46084715D01*
X95692217Y-46026644D01*
X95529087Y-45917644D01*
X95529084Y-45917642D01*
X95390358Y-45778916D01*
X95360547Y-45734300D01*
X95281356Y-45615783D01*
X95206276Y-45434522D01*
X95206275Y-45434520D01*
X95168000Y-45242099D01*
X95168000Y-45045901D01*
X95206275Y-44853480D01*
X95232454Y-44790279D01*
X95281356Y-44672217D01*
X95390356Y-44509087D01*
X95390358Y-44509084D01*
X95529084Y-44370358D01*
X95531284Y-44368888D01*
X95692217Y-44261356D01*
X95873478Y-44186276D01*
X95873477Y-44186276D01*
X95873480Y-44186275D01*
X96065901Y-44148000D01*
X96262099Y-44148000D01*
X96454520Y-44186275D01*
X96454520Y-44186275D01*
G37*
G36*
X132622589Y-44217416D02*
X132749520Y-44242664D01*
X132908942Y-44308699D01*
X133052418Y-44404566D01*
X133174434Y-44526582D01*
X133270301Y-44670058D01*
X133336336Y-44829480D01*
X133344738Y-44871720D01*
X133370000Y-44998720D01*
X133370000Y-45171280D01*
X133361598Y-45213517D01*
X133336336Y-45340520D01*
X133270301Y-45499942D01*
X133174434Y-45643418D01*
X133052418Y-45765434D01*
X132908942Y-45861301D01*
X132749520Y-45927336D01*
X132622589Y-45952584D01*
X132580280Y-45961000D01*
X132407720Y-45961000D01*
X132365411Y-45952584D01*
X132238480Y-45927336D01*
X132079058Y-45861301D01*
X131935582Y-45765434D01*
X131813566Y-45643418D01*
X131717699Y-45499942D01*
X131651664Y-45340520D01*
X131626402Y-45213517D01*
X131618000Y-45171280D01*
X131618000Y-44998720D01*
X131643262Y-44871720D01*
X131651664Y-44829480D01*
X131717699Y-44670058D01*
X131813566Y-44526582D01*
X131935582Y-44404566D01*
X132079058Y-44308699D01*
X132238480Y-44242664D01*
X132365411Y-44217416D01*
X132407720Y-44209000D01*
X132580280Y-44209000D01*
X132622589Y-44217416D01*
X132622589Y-44217416D01*
G37*
G36*
X130122589Y-44217416D02*
X130249520Y-44242664D01*
X130408942Y-44308699D01*
X130552418Y-44404566D01*
X130674434Y-44526582D01*
X130770301Y-44670058D01*
X130836336Y-44829480D01*
X130844738Y-44871720D01*
X130870000Y-44998720D01*
X130870000Y-45171280D01*
X130861598Y-45213517D01*
X130836336Y-45340520D01*
X130770301Y-45499942D01*
X130674434Y-45643418D01*
X130552418Y-45765434D01*
X130408942Y-45861301D01*
X130249520Y-45927336D01*
X130122589Y-45952584D01*
X130080280Y-45961000D01*
X129907720Y-45961000D01*
X129865411Y-45952584D01*
X129738480Y-45927336D01*
X129579058Y-45861301D01*
X129435582Y-45765434D01*
X129313566Y-45643418D01*
X129217699Y-45499942D01*
X129151664Y-45340520D01*
X129126402Y-45213517D01*
X129118000Y-45171280D01*
X129118000Y-44998720D01*
X129143262Y-44871720D01*
X129151664Y-44829480D01*
X129217699Y-44670058D01*
X129313566Y-44526582D01*
X129435582Y-44404566D01*
X129579058Y-44308699D01*
X129738480Y-44242664D01*
X129865411Y-44217416D01*
X129907720Y-44209000D01*
X130080280Y-44209000D01*
X130122589Y-44217416D01*
X130122589Y-44217416D01*
G37*
G36*
X135122589Y-44217416D02*
X135249520Y-44242664D01*
X135408942Y-44308699D01*
X135552418Y-44404566D01*
X135674434Y-44526582D01*
X135770301Y-44670058D01*
X135836336Y-44829480D01*
X135844738Y-44871720D01*
X135870000Y-44998720D01*
X135870000Y-45171280D01*
X135861598Y-45213517D01*
X135836336Y-45340520D01*
X135770301Y-45499942D01*
X135674434Y-45643418D01*
X135552418Y-45765434D01*
X135408942Y-45861301D01*
X135249520Y-45927336D01*
X135122589Y-45952584D01*
X135080280Y-45961000D01*
X134907720Y-45961000D01*
X134865411Y-45952584D01*
X134738480Y-45927336D01*
X134579058Y-45861301D01*
X134435582Y-45765434D01*
X134313566Y-45643418D01*
X134217699Y-45499942D01*
X134151664Y-45340520D01*
X134126402Y-45213517D01*
X134118000Y-45171280D01*
X134118000Y-44998720D01*
X134143262Y-44871720D01*
X134151664Y-44829480D01*
X134217699Y-44670058D01*
X134313566Y-44526582D01*
X134435582Y-44404566D01*
X134579058Y-44308699D01*
X134738480Y-44242664D01*
X134865411Y-44217416D01*
X134907720Y-44209000D01*
X135080280Y-44209000D01*
X135122589Y-44217416D01*
X135122589Y-44217416D01*
G37*
G36*
X140122589Y-44217416D02*
X140249520Y-44242664D01*
X140408942Y-44308699D01*
X140552418Y-44404566D01*
X140674434Y-44526582D01*
X140770301Y-44670058D01*
X140836336Y-44829480D01*
X140844738Y-44871720D01*
X140870000Y-44998720D01*
X140870000Y-45171280D01*
X140861598Y-45213517D01*
X140836336Y-45340520D01*
X140770301Y-45499942D01*
X140674434Y-45643418D01*
X140552418Y-45765434D01*
X140408942Y-45861301D01*
X140249520Y-45927336D01*
X140122589Y-45952584D01*
X140080280Y-45961000D01*
X139907720Y-45961000D01*
X139865411Y-45952584D01*
X139738480Y-45927336D01*
X139579058Y-45861301D01*
X139435582Y-45765434D01*
X139313566Y-45643418D01*
X139217699Y-45499942D01*
X139151664Y-45340520D01*
X139126402Y-45213517D01*
X139118000Y-45171280D01*
X139118000Y-44998720D01*
X139143262Y-44871720D01*
X139151664Y-44829480D01*
X139217699Y-44670058D01*
X139313566Y-44526582D01*
X139435582Y-44404566D01*
X139579058Y-44308699D01*
X139738480Y-44242664D01*
X139865411Y-44217416D01*
X139907720Y-44209000D01*
X140080280Y-44209000D01*
X140122589Y-44217416D01*
X140122589Y-44217416D01*
G37*
G36*
X142622589Y-44217416D02*
X142749520Y-44242664D01*
X142908942Y-44308699D01*
X143052418Y-44404566D01*
X143174434Y-44526582D01*
X143270301Y-44670058D01*
X143336336Y-44829480D01*
X143344738Y-44871720D01*
X143370000Y-44998720D01*
X143370000Y-45171280D01*
X143361598Y-45213517D01*
X143336336Y-45340520D01*
X143270301Y-45499942D01*
X143174434Y-45643418D01*
X143052418Y-45765434D01*
X142908942Y-45861301D01*
X142749520Y-45927336D01*
X142622589Y-45952584D01*
X142580280Y-45961000D01*
X142407720Y-45961000D01*
X142365411Y-45952584D01*
X142238480Y-45927336D01*
X142079058Y-45861301D01*
X141935582Y-45765434D01*
X141813566Y-45643418D01*
X141717699Y-45499942D01*
X141651664Y-45340520D01*
X141626402Y-45213517D01*
X141618000Y-45171280D01*
X141618000Y-44998720D01*
X141643262Y-44871720D01*
X141651664Y-44829480D01*
X141717699Y-44670058D01*
X141813566Y-44526582D01*
X141935582Y-44404566D01*
X142079058Y-44308699D01*
X142238480Y-44242664D01*
X142365411Y-44217416D01*
X142407720Y-44209000D01*
X142580280Y-44209000D01*
X142622589Y-44217416D01*
X142622589Y-44217416D01*
G37*
G36*
X155315589Y-44217416D02*
X155442520Y-44242664D01*
X155601942Y-44308699D01*
X155745418Y-44404566D01*
X155867434Y-44526582D01*
X155963301Y-44670058D01*
X156029336Y-44829480D01*
X156037738Y-44871720D01*
X156063000Y-44998720D01*
X156063000Y-45171280D01*
X156054598Y-45213517D01*
X156029336Y-45340520D01*
X155963301Y-45499942D01*
X155867434Y-45643418D01*
X155745418Y-45765434D01*
X155601942Y-45861301D01*
X155442520Y-45927336D01*
X155315589Y-45952584D01*
X155273280Y-45961000D01*
X155100720Y-45961000D01*
X155058411Y-45952584D01*
X154931480Y-45927336D01*
X154772058Y-45861301D01*
X154628582Y-45765434D01*
X154506566Y-45643418D01*
X154410699Y-45499942D01*
X154344664Y-45340520D01*
X154319402Y-45213517D01*
X154311000Y-45171280D01*
X154311000Y-44998720D01*
X154336262Y-44871720D01*
X154344664Y-44829480D01*
X154410699Y-44670058D01*
X154506566Y-44526582D01*
X154628582Y-44404566D01*
X154772058Y-44308699D01*
X154931480Y-44242664D01*
X155058411Y-44217416D01*
X155100720Y-44209000D01*
X155273280Y-44209000D01*
X155315589Y-44217416D01*
X155315589Y-44217416D01*
G37*
G36*
X157815589Y-44217416D02*
X157942520Y-44242664D01*
X158101942Y-44308699D01*
X158245418Y-44404566D01*
X158367434Y-44526582D01*
X158463301Y-44670058D01*
X158529336Y-44829480D01*
X158537738Y-44871720D01*
X158563000Y-44998720D01*
X158563000Y-45171280D01*
X158554598Y-45213517D01*
X158529336Y-45340520D01*
X158463301Y-45499942D01*
X158367434Y-45643418D01*
X158245418Y-45765434D01*
X158101942Y-45861301D01*
X157942520Y-45927336D01*
X157815589Y-45952584D01*
X157773280Y-45961000D01*
X157600720Y-45961000D01*
X157558411Y-45952584D01*
X157431480Y-45927336D01*
X157272058Y-45861301D01*
X157128582Y-45765434D01*
X157006566Y-45643418D01*
X156910699Y-45499942D01*
X156844664Y-45340520D01*
X156819402Y-45213517D01*
X156811000Y-45171280D01*
X156811000Y-44998720D01*
X156836262Y-44871720D01*
X156844664Y-44829480D01*
X156910699Y-44670058D01*
X157006566Y-44526582D01*
X157128582Y-44404566D01*
X157272058Y-44308699D01*
X157431480Y-44242664D01*
X157558411Y-44217416D01*
X157600720Y-44209000D01*
X157773280Y-44209000D01*
X157815589Y-44217416D01*
X157815589Y-44217416D01*
G37*
G36*
X160315589Y-44217416D02*
X160442520Y-44242664D01*
X160601942Y-44308699D01*
X160745418Y-44404566D01*
X160867434Y-44526582D01*
X160963301Y-44670058D01*
X161029336Y-44829480D01*
X161037738Y-44871720D01*
X161063000Y-44998720D01*
X161063000Y-45171280D01*
X161054598Y-45213517D01*
X161029336Y-45340520D01*
X160963301Y-45499942D01*
X160867434Y-45643418D01*
X160745418Y-45765434D01*
X160601942Y-45861301D01*
X160442520Y-45927336D01*
X160315589Y-45952584D01*
X160273280Y-45961000D01*
X160100720Y-45961000D01*
X160058411Y-45952584D01*
X159931480Y-45927336D01*
X159772058Y-45861301D01*
X159628582Y-45765434D01*
X159506566Y-45643418D01*
X159410699Y-45499942D01*
X159344664Y-45340520D01*
X159319402Y-45213517D01*
X159311000Y-45171280D01*
X159311000Y-44998720D01*
X159336262Y-44871720D01*
X159344664Y-44829480D01*
X159410699Y-44670058D01*
X159506566Y-44526582D01*
X159628582Y-44404566D01*
X159772058Y-44308699D01*
X159931480Y-44242664D01*
X160058411Y-44217416D01*
X160100720Y-44209000D01*
X160273280Y-44209000D01*
X160315589Y-44217416D01*
X160315589Y-44217416D01*
G37*
G36*
X162815589Y-44217416D02*
X162942520Y-44242664D01*
X163101942Y-44308699D01*
X163245418Y-44404566D01*
X163367434Y-44526582D01*
X163463301Y-44670058D01*
X163529336Y-44829480D01*
X163537738Y-44871720D01*
X163563000Y-44998720D01*
X163563000Y-45171280D01*
X163554598Y-45213517D01*
X163529336Y-45340520D01*
X163463301Y-45499942D01*
X163367434Y-45643418D01*
X163245418Y-45765434D01*
X163101942Y-45861301D01*
X162942520Y-45927336D01*
X162815589Y-45952584D01*
X162773280Y-45961000D01*
X162600720Y-45961000D01*
X162558411Y-45952584D01*
X162431480Y-45927336D01*
X162272058Y-45861301D01*
X162128582Y-45765434D01*
X162006566Y-45643418D01*
X161910699Y-45499942D01*
X161844664Y-45340520D01*
X161819402Y-45213517D01*
X161811000Y-45171280D01*
X161811000Y-44998720D01*
X161836262Y-44871720D01*
X161844664Y-44829480D01*
X161910699Y-44670058D01*
X162006566Y-44526582D01*
X162128582Y-44404566D01*
X162272058Y-44308699D01*
X162431480Y-44242664D01*
X162558411Y-44217416D01*
X162600720Y-44209000D01*
X162773280Y-44209000D01*
X162815589Y-44217416D01*
X162815589Y-44217416D01*
G37*
G36*
X137622589Y-44217416D02*
X137749520Y-44242664D01*
X137908942Y-44308699D01*
X138052418Y-44404566D01*
X138174434Y-44526582D01*
X138270301Y-44670058D01*
X138336336Y-44829480D01*
X138344738Y-44871720D01*
X138370000Y-44998720D01*
X138370000Y-45171280D01*
X138361598Y-45213517D01*
X138336336Y-45340520D01*
X138270301Y-45499942D01*
X138174434Y-45643418D01*
X138052418Y-45765434D01*
X137908942Y-45861301D01*
X137749520Y-45927336D01*
X137622589Y-45952584D01*
X137580280Y-45961000D01*
X137407720Y-45961000D01*
X137365411Y-45952584D01*
X137238480Y-45927336D01*
X137079058Y-45861301D01*
X136935582Y-45765434D01*
X136813566Y-45643418D01*
X136717699Y-45499942D01*
X136651664Y-45340520D01*
X136626402Y-45213517D01*
X136618000Y-45171280D01*
X136618000Y-44998720D01*
X136643262Y-44871720D01*
X136651664Y-44829480D01*
X136717699Y-44670058D01*
X136813566Y-44526582D01*
X136935582Y-44404566D01*
X137079058Y-44308699D01*
X137238480Y-44242664D01*
X137365411Y-44217416D01*
X137407720Y-44209000D01*
X137580280Y-44209000D01*
X137622589Y-44217416D01*
X137622589Y-44217416D01*
G37*
G36*
X152815589Y-44217416D02*
X152942520Y-44242664D01*
X153101942Y-44308699D01*
X153245418Y-44404566D01*
X153367434Y-44526582D01*
X153463301Y-44670058D01*
X153529336Y-44829480D01*
X153537738Y-44871720D01*
X153563000Y-44998720D01*
X153563000Y-45171280D01*
X153554598Y-45213517D01*
X153529336Y-45340520D01*
X153463301Y-45499942D01*
X153367434Y-45643418D01*
X153245418Y-45765434D01*
X153101942Y-45861301D01*
X152942520Y-45927336D01*
X152815589Y-45952584D01*
X152773280Y-45961000D01*
X152600720Y-45961000D01*
X152558411Y-45952584D01*
X152431480Y-45927336D01*
X152272058Y-45861301D01*
X152128582Y-45765434D01*
X152006566Y-45643418D01*
X151910699Y-45499942D01*
X151844664Y-45340520D01*
X151819402Y-45213517D01*
X151811000Y-45171280D01*
X151811000Y-44998720D01*
X151836262Y-44871720D01*
X151844664Y-44829480D01*
X151910699Y-44670058D01*
X152006566Y-44526582D01*
X152128582Y-44404566D01*
X152272058Y-44308699D01*
X152431480Y-44242664D01*
X152558411Y-44217416D01*
X152600720Y-44209000D01*
X152773280Y-44209000D01*
X152815589Y-44217416D01*
X152815589Y-44217416D01*
G37*
G36*
X76742589Y-44090416D02*
X76869520Y-44115664D01*
X77028942Y-44181699D01*
X77172418Y-44277566D01*
X77294434Y-44399582D01*
X77390301Y-44543058D01*
X77456336Y-44702480D01*
X77473800Y-44790279D01*
X77490000Y-44871720D01*
X77490000Y-45044280D01*
X77489677Y-45045903D01*
X77456336Y-45213520D01*
X77390301Y-45372942D01*
X77294434Y-45516418D01*
X77172418Y-45638434D01*
X77028942Y-45734301D01*
X76869520Y-45800336D01*
X76742589Y-45825584D01*
X76700280Y-45834000D01*
X76527720Y-45834000D01*
X76485411Y-45825584D01*
X76358480Y-45800336D01*
X76199058Y-45734301D01*
X76055582Y-45638434D01*
X75933566Y-45516418D01*
X75837699Y-45372942D01*
X75771664Y-45213520D01*
X75738323Y-45045903D01*
X75738000Y-45044280D01*
X75738000Y-44871720D01*
X75754200Y-44790279D01*
X75771664Y-44702480D01*
X75837699Y-44543058D01*
X75933566Y-44399582D01*
X76055582Y-44277566D01*
X76199058Y-44181699D01*
X76358480Y-44115664D01*
X76485411Y-44090416D01*
X76527720Y-44082000D01*
X76700280Y-44082000D01*
X76742589Y-44090416D01*
X76742589Y-44090416D01*
G37*
G36*
X86742589Y-44090416D02*
X86869520Y-44115664D01*
X87028942Y-44181699D01*
X87172418Y-44277566D01*
X87294434Y-44399582D01*
X87390301Y-44543058D01*
X87456336Y-44702480D01*
X87473800Y-44790279D01*
X87490000Y-44871720D01*
X87490000Y-45044280D01*
X87489677Y-45045903D01*
X87456336Y-45213520D01*
X87390301Y-45372942D01*
X87294434Y-45516418D01*
X87172418Y-45638434D01*
X87028942Y-45734301D01*
X86869520Y-45800336D01*
X86742589Y-45825584D01*
X86700280Y-45834000D01*
X86527720Y-45834000D01*
X86485411Y-45825584D01*
X86358480Y-45800336D01*
X86199058Y-45734301D01*
X86055582Y-45638434D01*
X85933566Y-45516418D01*
X85837699Y-45372942D01*
X85771664Y-45213520D01*
X85738323Y-45045903D01*
X85738000Y-45044280D01*
X85738000Y-44871720D01*
X85754200Y-44790279D01*
X85771664Y-44702480D01*
X85837699Y-44543058D01*
X85933566Y-44399582D01*
X86055582Y-44277566D01*
X86199058Y-44181699D01*
X86358480Y-44115664D01*
X86485411Y-44090416D01*
X86527720Y-44082000D01*
X86700280Y-44082000D01*
X86742589Y-44090416D01*
X86742589Y-44090416D01*
G37*
G36*
X84242589Y-44090416D02*
X84369520Y-44115664D01*
X84528942Y-44181699D01*
X84672418Y-44277566D01*
X84794434Y-44399582D01*
X84890301Y-44543058D01*
X84956336Y-44702480D01*
X84973800Y-44790279D01*
X84990000Y-44871720D01*
X84990000Y-45044280D01*
X84989677Y-45045903D01*
X84956336Y-45213520D01*
X84890301Y-45372942D01*
X84794434Y-45516418D01*
X84672418Y-45638434D01*
X84528942Y-45734301D01*
X84369520Y-45800336D01*
X84242589Y-45825584D01*
X84200280Y-45834000D01*
X84027720Y-45834000D01*
X83985411Y-45825584D01*
X83858480Y-45800336D01*
X83699058Y-45734301D01*
X83555582Y-45638434D01*
X83433566Y-45516418D01*
X83337699Y-45372942D01*
X83271664Y-45213520D01*
X83238323Y-45045903D01*
X83238000Y-45044280D01*
X83238000Y-44871720D01*
X83254200Y-44790279D01*
X83271664Y-44702480D01*
X83337699Y-44543058D01*
X83433566Y-44399582D01*
X83555582Y-44277566D01*
X83699058Y-44181699D01*
X83858480Y-44115664D01*
X83985411Y-44090416D01*
X84027720Y-44082000D01*
X84200280Y-44082000D01*
X84242589Y-44090416D01*
X84242589Y-44090416D01*
G37*
G36*
X81742589Y-44090416D02*
X81869520Y-44115664D01*
X82028942Y-44181699D01*
X82172418Y-44277566D01*
X82294434Y-44399582D01*
X82390301Y-44543058D01*
X82456336Y-44702480D01*
X82473800Y-44790279D01*
X82490000Y-44871720D01*
X82490000Y-45044280D01*
X82489677Y-45045903D01*
X82456336Y-45213520D01*
X82390301Y-45372942D01*
X82294434Y-45516418D01*
X82172418Y-45638434D01*
X82028942Y-45734301D01*
X81869520Y-45800336D01*
X81742589Y-45825584D01*
X81700280Y-45834000D01*
X81527720Y-45834000D01*
X81485411Y-45825584D01*
X81358480Y-45800336D01*
X81199058Y-45734301D01*
X81055582Y-45638434D01*
X80933566Y-45516418D01*
X80837699Y-45372942D01*
X80771664Y-45213520D01*
X80738323Y-45045903D01*
X80738000Y-45044280D01*
X80738000Y-44871720D01*
X80754200Y-44790279D01*
X80771664Y-44702480D01*
X80837699Y-44543058D01*
X80933566Y-44399582D01*
X81055582Y-44277566D01*
X81199058Y-44181699D01*
X81358480Y-44115664D01*
X81485411Y-44090416D01*
X81527720Y-44082000D01*
X81700280Y-44082000D01*
X81742589Y-44090416D01*
X81742589Y-44090416D01*
G37*
G36*
X79242589Y-44090416D02*
X79369520Y-44115664D01*
X79528942Y-44181699D01*
X79672418Y-44277566D01*
X79794434Y-44399582D01*
X79890301Y-44543058D01*
X79956336Y-44702480D01*
X79973800Y-44790279D01*
X79990000Y-44871720D01*
X79990000Y-45044280D01*
X79989677Y-45045903D01*
X79956336Y-45213520D01*
X79890301Y-45372942D01*
X79794434Y-45516418D01*
X79672418Y-45638434D01*
X79528942Y-45734301D01*
X79369520Y-45800336D01*
X79242589Y-45825584D01*
X79200280Y-45834000D01*
X79027720Y-45834000D01*
X78985411Y-45825584D01*
X78858480Y-45800336D01*
X78699058Y-45734301D01*
X78555582Y-45638434D01*
X78433566Y-45516418D01*
X78337699Y-45372942D01*
X78271664Y-45213520D01*
X78238323Y-45045903D01*
X78238000Y-45044280D01*
X78238000Y-44871720D01*
X78254200Y-44790279D01*
X78271664Y-44702480D01*
X78337699Y-44543058D01*
X78433566Y-44399582D01*
X78555582Y-44277566D01*
X78699058Y-44181699D01*
X78858480Y-44115664D01*
X78985411Y-44090416D01*
X79027720Y-44082000D01*
X79200280Y-44082000D01*
X79242589Y-44090416D01*
X79242589Y-44090416D01*
G37*
G36*
X74242589Y-44090416D02*
X74369520Y-44115664D01*
X74528942Y-44181699D01*
X74672418Y-44277566D01*
X74794434Y-44399582D01*
X74890301Y-44543058D01*
X74956336Y-44702480D01*
X74973800Y-44790279D01*
X74990000Y-44871720D01*
X74990000Y-45044280D01*
X74989677Y-45045903D01*
X74956336Y-45213520D01*
X74890301Y-45372942D01*
X74794434Y-45516418D01*
X74672418Y-45638434D01*
X74528942Y-45734301D01*
X74369520Y-45800336D01*
X74242589Y-45825584D01*
X74200280Y-45834000D01*
X74027720Y-45834000D01*
X73985411Y-45825584D01*
X73858480Y-45800336D01*
X73699058Y-45734301D01*
X73555582Y-45638434D01*
X73433566Y-45516418D01*
X73337699Y-45372942D01*
X73271664Y-45213520D01*
X73238323Y-45045903D01*
X73238000Y-45044280D01*
X73238000Y-44871720D01*
X73254200Y-44790279D01*
X73271664Y-44702480D01*
X73337699Y-44543058D01*
X73433566Y-44399582D01*
X73555582Y-44277566D01*
X73699058Y-44181699D01*
X73858480Y-44115664D01*
X73985411Y-44090416D01*
X74027720Y-44082000D01*
X74200280Y-44082000D01*
X74242589Y-44090416D01*
X74242589Y-44090416D01*
G37*
G36*
X71742589Y-44090416D02*
X71869520Y-44115664D01*
X72028942Y-44181699D01*
X72172418Y-44277566D01*
X72294434Y-44399582D01*
X72390301Y-44543058D01*
X72456336Y-44702480D01*
X72473800Y-44790279D01*
X72490000Y-44871720D01*
X72490000Y-45044280D01*
X72489677Y-45045903D01*
X72456336Y-45213520D01*
X72390301Y-45372942D01*
X72294434Y-45516418D01*
X72172418Y-45638434D01*
X72028942Y-45734301D01*
X71869520Y-45800336D01*
X71742589Y-45825584D01*
X71700280Y-45834000D01*
X71527720Y-45834000D01*
X71485411Y-45825584D01*
X71358480Y-45800336D01*
X71199058Y-45734301D01*
X71055582Y-45638434D01*
X70933566Y-45516418D01*
X70837699Y-45372942D01*
X70771664Y-45213520D01*
X70738323Y-45045903D01*
X70738000Y-45044280D01*
X70738000Y-44871720D01*
X70754200Y-44790279D01*
X70771664Y-44702480D01*
X70837699Y-44543058D01*
X70933566Y-44399582D01*
X71055582Y-44277566D01*
X71199058Y-44181699D01*
X71358480Y-44115664D01*
X71485411Y-44090416D01*
X71527720Y-44082000D01*
X71700280Y-44082000D01*
X71742589Y-44090416D01*
X71742589Y-44090416D01*
G37*
G36*
X116968589Y-43836416D02*
X117095520Y-43861664D01*
X117254942Y-43927699D01*
X117398418Y-44023566D01*
X117520434Y-44145582D01*
X117616301Y-44289058D01*
X117682336Y-44448480D01*
X117716000Y-44617721D01*
X117716000Y-44790279D01*
X117682336Y-44959520D01*
X117616301Y-45118942D01*
X117520434Y-45262418D01*
X117398418Y-45384434D01*
X117254942Y-45480301D01*
X117095520Y-45546336D01*
X116968589Y-45571584D01*
X116926280Y-45580000D01*
X116753720Y-45580000D01*
X116711411Y-45571584D01*
X116584480Y-45546336D01*
X116425058Y-45480301D01*
X116281582Y-45384434D01*
X116159566Y-45262418D01*
X116063699Y-45118942D01*
X115997664Y-44959520D01*
X115964000Y-44790279D01*
X115964000Y-44617721D01*
X115997664Y-44448480D01*
X116063699Y-44289058D01*
X116159566Y-44145582D01*
X116281582Y-44023566D01*
X116425058Y-43927699D01*
X116584480Y-43861664D01*
X116711411Y-43836416D01*
X116753720Y-43828000D01*
X116926280Y-43828000D01*
X116968589Y-43836416D01*
X116968589Y-43836416D01*
G37*
G36*
X119468589Y-43836416D02*
X119595520Y-43861664D01*
X119754942Y-43927699D01*
X119898418Y-44023566D01*
X120020434Y-44145582D01*
X120116301Y-44289058D01*
X120182336Y-44448480D01*
X120216000Y-44617721D01*
X120216000Y-44790279D01*
X120182336Y-44959520D01*
X120116301Y-45118942D01*
X120020434Y-45262418D01*
X119898418Y-45384434D01*
X119754942Y-45480301D01*
X119595520Y-45546336D01*
X119468589Y-45571584D01*
X119426280Y-45580000D01*
X119253720Y-45580000D01*
X119211411Y-45571584D01*
X119084480Y-45546336D01*
X118925058Y-45480301D01*
X118781582Y-45384434D01*
X118659566Y-45262418D01*
X118563699Y-45118942D01*
X118497664Y-44959520D01*
X118464000Y-44790279D01*
X118464000Y-44617721D01*
X118497664Y-44448480D01*
X118563699Y-44289058D01*
X118659566Y-44145582D01*
X118781582Y-44023566D01*
X118925058Y-43927699D01*
X119084480Y-43861664D01*
X119211411Y-43836416D01*
X119253720Y-43828000D01*
X119426280Y-43828000D01*
X119468589Y-43836416D01*
X119468589Y-43836416D01*
G37*
G36*
X98994520Y-42666275D02*
X98994523Y-42666276D01*
X98994522Y-42666276D01*
X99175783Y-42741356D01*
X99325782Y-42841582D01*
X99338916Y-42850358D01*
X99477642Y-42989084D01*
X99477644Y-42989087D01*
X99586644Y-43152217D01*
X99626472Y-43248371D01*
X99661725Y-43333480D01*
X99700000Y-43525901D01*
X99700000Y-43722099D01*
X99661725Y-43914520D01*
X99661724Y-43914522D01*
X99586644Y-44095783D01*
X99510995Y-44209000D01*
X99477642Y-44258916D01*
X99338916Y-44397642D01*
X99338913Y-44397644D01*
X99175783Y-44506644D01*
X99035585Y-44564715D01*
X98994520Y-44581725D01*
X98802099Y-44620000D01*
X98605901Y-44620000D01*
X98413480Y-44581725D01*
X98372415Y-44564715D01*
X98232217Y-44506644D01*
X98069087Y-44397644D01*
X98069084Y-44397642D01*
X97930358Y-44258916D01*
X97897005Y-44209000D01*
X97821356Y-44095783D01*
X97746276Y-43914522D01*
X97746275Y-43914520D01*
X97708000Y-43722099D01*
X97708000Y-43525901D01*
X97746275Y-43333480D01*
X97781528Y-43248371D01*
X97821356Y-43152217D01*
X97930356Y-42989087D01*
X97930358Y-42989084D01*
X98069084Y-42850358D01*
X98082218Y-42841582D01*
X98232217Y-42741356D01*
X98413478Y-42666276D01*
X98413477Y-42666276D01*
X98413480Y-42666275D01*
X98605901Y-42628000D01*
X98802099Y-42628000D01*
X98994520Y-42666275D01*
X98994520Y-42666275D01*
G37*
G36*
X109104520Y-42666275D02*
X109104523Y-42666276D01*
X109104522Y-42666276D01*
X109285783Y-42741356D01*
X109435782Y-42841582D01*
X109448916Y-42850358D01*
X109587642Y-42989084D01*
X109587644Y-42989087D01*
X109696644Y-43152217D01*
X109736472Y-43248371D01*
X109771725Y-43333480D01*
X109810000Y-43525901D01*
X109810000Y-43722099D01*
X109771725Y-43914520D01*
X109771724Y-43914522D01*
X109696644Y-44095783D01*
X109620995Y-44209000D01*
X109587642Y-44258916D01*
X109448916Y-44397642D01*
X109448913Y-44397644D01*
X109285783Y-44506644D01*
X109145585Y-44564715D01*
X109104520Y-44581725D01*
X108912099Y-44620000D01*
X108715901Y-44620000D01*
X108523480Y-44581725D01*
X108482415Y-44564715D01*
X108342217Y-44506644D01*
X108179087Y-44397644D01*
X108179084Y-44397642D01*
X108040358Y-44258916D01*
X108007005Y-44209000D01*
X107931356Y-44095783D01*
X107856276Y-43914522D01*
X107856275Y-43914520D01*
X107818000Y-43722099D01*
X107818000Y-43525901D01*
X107856275Y-43333480D01*
X107891528Y-43248371D01*
X107931356Y-43152217D01*
X108040356Y-42989087D01*
X108040358Y-42989084D01*
X108179084Y-42850358D01*
X108192218Y-42841582D01*
X108342217Y-42741356D01*
X108523478Y-42666276D01*
X108523477Y-42666276D01*
X108523480Y-42666275D01*
X108715901Y-42628000D01*
X108912099Y-42628000D01*
X109104520Y-42666275D01*
X109104520Y-42666275D01*
G37*
M02*
