M48
METRIC,TZ
T1C0.400
T2C0.800
T3C1.000
T4C1.100
T5C1.200
T6C1.300
%
G90
G05
T1
X149.225Y-18.415
X151.765Y-51.435
X153.67Y-15.24
X154.305Y-27.305
X155.194Y-44.196
X158.115Y-50.667
X160.782Y-46.65
X161.036Y-45.1
X163.83Y-53.34
X165.735Y-39.37
X166.71Y-38.608
X167.15Y-31.75
X168.91Y-26.035
X172.33Y-64.135
X175.7Y-57.15
X175.927Y-43.466
X175.927Y-43.466
X176.53Y-59.69
X177.165Y-66.675
X177.8Y-62.23
X180.34Y-26.035
X181.94Y-64.77
X185.039Y-36.322
X186.563Y-41.783
X199.245Y-14.46
X202.184Y-81.28
X204.724Y-77.47
X211.734Y-70.968
X213.614Y-60.452
X213.614Y-63.5
X213.614Y-66.04
X213.614Y-70.968
X214.884Y-61.976
X215.9Y-63.5
X215.9Y-64.77
X217.17Y-29.21
X217.424Y-61.976
X217.424Y-66.802
X218.694Y-58.166
X218.694Y-60.452
X218.694Y-66.802
X218.694Y-68.58
X219.964Y-61.976
X219.964Y-66.802
X221.488Y-52.324
X221.742Y-63.5
X221.742Y-64.77
X222.25Y-76.2
X222.504Y-60.452
X222.504Y-61.976
X224.155Y-29.21
X224.79Y-76.2
X226.06Y-24.765
X226.06Y-52.315
X226.06Y-54.61
X233.426Y-65.532
X234.95Y-59.436
X234.95Y-62.484
X234.95Y-65.532
X234.95Y-70.104
X235.948Y-13.571
X236.22Y-57.912
X236.22Y-60.96
X236.22Y-62.484
X236.22Y-64.008
X236.22Y-65.532
X236.22Y-67.056
X236.22Y-68.58
X236.22Y-70.104
X236.22Y-71.374
X236.22Y-73.152
X237.49Y-62.484
X237.49Y-65.532
X237.49Y-70.104
X238.76Y-56.896
X238.76Y-65.532
X238.76Y-75.692
X240.03Y-62.484
X240.03Y-65.532
X241.046Y-70.104
X241.046Y-71.374
X241.046Y-72.925
X241.046Y-74.422
X241.046Y-75.692
X241.3Y-56.896
X241.3Y-58.166
X241.3Y-59.621
X241.3Y-61.214
X241.3Y-62.484
X241.3Y-65.532
X242.57Y-65.532
X242.824Y-59.621
X242.824Y-72.925
X244.348Y-54.601
X245.11Y-28.575
X245.11Y-31.75
X245.11Y-34.29
X245.11Y-37.465
X245.571Y-77.978
X246.38Y-31.75
X246.38Y-34.22
X246.38Y-37.465
X246.888Y-70.625
X247.142Y-57.321
X247.65Y-32.385
X247.65Y-39.37
X247.65Y-61.976
X248.92Y-28.575
X248.92Y-32.385
X248.92Y-33.655
X248.92Y-37.465
X250.19Y-28.575
X250.19Y-32.385
X250.19Y-41.91
X250.562Y-59.278
X250.562Y-61.722
X250.562Y-64.008
X250.562Y-66.294
X250.562Y-68.716
X251.46Y-32.655
X251.46Y-33.655
X251.46Y-37.465
X252.73Y-31.75
X252.73Y-34.29
X252.73Y-37.465
X253.365Y-41.91
X254.Y-28.575
X254.Y-31.75
X254.Y-34.29
X254.Y-37.465
X255.905Y-40.64
X257.81Y-28.575
X257.81Y-31.75
X257.81Y-34.29
X257.81Y-37.465
X258.074Y-55.88
X258.074Y-59.055
X258.074Y-62.23
X259.08Y-31.75
X259.08Y-34.29
X259.08Y-37.465
X260.35Y-31.75
X261.62Y-28.575
X261.62Y-32.385
X261.62Y-33.655
X261.62Y-37.465
X261.874Y-43.18
X261.874Y-46.99
X261.874Y-55.245
X261.874Y-58.42
X261.874Y-62.23
X262.89Y-28.575
X262.89Y-32.385
X263.915Y-37.71
X264.16Y-32.655
X264.16Y-33.655
X265.43Y-31.75
X265.43Y-34.29
X265.43Y-37.465
X266.7Y-28.575
X266.7Y-31.75
X266.7Y-34.29
X266.7Y-37.465
X268.224Y-66.675
X271.78Y-66.675
X272.415Y-22.86
X272.415Y-24.765
X272.415Y-26.67
X272.415Y-28.575
X272.415Y-30.48
X272.415Y-32.385
X274.32Y-22.86
X274.32Y-30.48
X274.32Y-32.385
X274.955Y-42.545
X276.225Y-22.86
X276.225Y-30.48
X276.225Y-32.385
X277.59Y-63.405
X278.13Y-22.86
X278.13Y-30.48
X278.13Y-32.385
X281.305Y-32.385
X281.59Y-30.48
X281.59Y-40.64
X281.59Y-46.355
T2
X258.074Y-51.435
X261.874Y-51.435
T3
X190.798Y-37.211
X190.798Y-39.751
X190.798Y-42.291
X190.798Y-44.831
X190.798Y-47.371
X190.798Y-49.911
X190.798Y-52.451
X190.798Y-54.991
X203.2Y-19.05
X203.2Y-21.59
X203.2Y-24.13
X203.2Y-26.67
X203.2Y-29.21
X203.2Y-31.75
X203.2Y-34.29
X203.2Y-36.83
X203.2Y-39.37
X203.2Y-41.91
X203.2Y-44.45
X203.2Y-46.99
X203.2Y-49.53
X203.2Y-52.07
X203.2Y-54.61
X196.85Y-38.608
X196.85Y-41.148
X196.85Y-43.688
X196.85Y-46.228
X228.6Y-19.05
X228.6Y-21.59
X228.6Y-24.13
X228.6Y-26.67
X228.6Y-29.21
X228.6Y-31.75
X228.6Y-34.29
X228.6Y-36.83
X228.6Y-39.37
X228.6Y-41.91
X228.6Y-44.45
X228.6Y-46.99
X228.6Y-49.53
X228.6Y-52.07
X228.6Y-54.61
X142.538Y-41.275
X142.538Y-43.815
X142.538Y-46.355
X142.538Y-48.895
X142.538Y-51.435
X142.538Y-53.975
X142.538Y-56.515
X142.538Y-59.055
X196.85Y-30.099
X196.85Y-32.639
X190.798Y-59.055
X190.798Y-61.595
X190.798Y-64.135
X190.798Y-66.675
X190.798Y-69.215
X190.798Y-71.755
X190.798Y-74.295
X190.798Y-76.835
X237.871Y-21.209
X237.871Y-23.749
X237.871Y-26.289
X237.871Y-28.829
X202.184Y-72.898
X204.724Y-72.898
X207.264Y-72.898
X209.804Y-72.898
T4
X158.115Y-16.51
X160.655Y-16.51
X163.195Y-16.51
X165.735Y-16.51
X168.275Y-16.51
X170.815Y-16.51
X173.355Y-16.51
X175.895Y-16.51
T5
X256.112Y-66.675
X261.112Y-66.675
T6
X256.54Y-19.05
X261.62Y-19.05
X276.86Y-26.67
X281.94Y-26.67
X245.11Y-19.05
X250.19Y-19.05
X269.59Y-51.205
X269.59Y-63.405
X275.59Y-65.405
X281.59Y-51.205
X281.59Y-63.405
T0
M30
