M48
METRIC,TZ
T1C0.400
T2C0.600
T3C0.850
T4C0.890
T5C0.900
T6C1.000
T7C1.100
T8C1.300
T9C1.600
T10C3.200
%
G90
G05
T1
X19.525Y-90.645
X20.828Y-92.075
X21.702Y-84.938
X21.717Y-83.439
X21.717Y-86.614
X21.844Y-92.964
X22.098Y-97.409
X22.098Y-104.013
X22.225Y-87.757
X22.86Y-93.98
X24.066Y-90.551
X24.066Y-91.885
X24.13Y-52.324
X24.13Y-56.134
X24.13Y-57.404
X24.32Y-73.343
X24.32Y-74.549
X24.384Y-72.009
X24.384Y-80.137
X24.384Y-84.836
X25.617Y-63.119
X25.654Y-68.135
X25.654Y-97.346
X27.114Y-54.864
X27.178Y-91.948
X27.305Y-56.134
X27.305Y-57.404
X27.305Y-90.424
X27.432Y-73.279
X27.432Y-74.549
X27.813Y-93.091
X27.859Y-75.849
X28.003Y-58.674
X28.067Y-89.281
X28.321Y-52.324
X28.956Y-57.023
X29.083Y-74.549
X29.21Y-72.009
X29.21Y-89.281
X29.591Y-91.948
X31.115Y-63.246
X31.115Y-68.135
X31.432Y-97.282
X32.258Y-80.137
X32.258Y-84.836
X32.512Y-91.694
X33.528Y-52.197
X33.528Y-53.594
X33.655Y-63.246
X33.655Y-65.405
X33.655Y-67.437
X34.925Y-93.091
X35.029Y-74.216
X35.052Y-57.277
X35.052Y-75.819
X35.115Y-58.674
X35.179Y-95.631
X35.179Y-97.282
X35.179Y-104.14
X35.306Y-80.137
X35.306Y-82.614
X35.306Y-84.836
X35.306Y-91.694
X39.751Y-94.615
X41.529Y-69.342
X41.656Y-63.5
X41.656Y-66.294
X41.783Y-94.615
X41.91Y-77.597
X41.91Y-82.867
X41.91Y-84.836
X41.91Y-91.821
X41.91Y-97.536
X41.974Y-73.533
X41.974Y-74.93
X41.974Y-78.994
X41.974Y-81.216
X42.291Y-86.614
X43.624Y-73.533
X43.624Y-86.614
X44.069Y-52.578
X45.148Y-73.533
X45.148Y-86.55
X46.355Y-52.197
X46.355Y-69.469
X46.355Y-94.615
X46.418Y-78.994
X46.418Y-81.216
X46.482Y-54.864
X46.482Y-63.373
X46.482Y-66.167
X46.482Y-91.821
X46.482Y-97.536
X46.609Y-86.36
X46.799Y-73.533
X48.26Y-52.197
X48.26Y-54.864
X48.26Y-94.615
X48.387Y-63.344
X48.392Y-66.197
X48.641Y-71.691
X50.292Y-52.121
X50.292Y-53.137
X50.292Y-54.204
X50.546Y-106.299
X51.435Y-71.628
X51.435Y-76.073
X51.562Y-67.31
X51.773Y-101.176
X53.086Y-67.246
X53.149Y-75.946
X53.33Y-107.594
X53.614Y-104.145
X54.483Y-71.628
X54.61Y-67.437
X54.864Y-75.946
X54.915Y-45.847
X54.915Y-47.117
X54.915Y-48.387
X54.915Y-49.632
X55.138Y-101.961
X55.181Y-98.234
X56.325Y-67.31
X56.337Y-49.657
X56.54Y-45.847
X56.642Y-75.946
X56.769Y-71.501
X57.641Y-69.596
X57.658Y-49.657
X57.912Y-45.847
X58.593Y-68.644
X59.182Y-45.847
X59.182Y-47.752
X59.182Y-49.657
X59.81Y-87.038
X59.81Y-89.535
X60.008Y-69.913
X60.452Y-47.752
X60.452Y-49.657
X60.579Y-45.847
X60.96Y-71.247
X60.96Y-94.615
X61.087Y-73.279
X61.087Y-74.549
X61.214Y-75.819
X61.377Y-85.471
X62.484Y-84.364
X66.675Y-94.361
X66.802Y-91.821
X67.818Y-91.821
X67.818Y-94.361
X69.088Y-53.467
X69.723Y-69.342
X69.85Y-71.247
X72.136Y-96.52
X72.263Y-94.488
X73.061Y-83.107
X73.731Y-101.707
X74.231Y-81.407
X74.231Y-95.504
X75.084Y-99.318
X75.936Y-96.119
X76.475Y-96.961
X76.599Y-84.836
X76.708Y-94.488
X77.44Y-88.499
X77.592Y-107.701
X77.962Y-102.108
X78.76Y-95.357
X79.184Y-85.026
X79.185Y-93.916
X80.002Y-97.347
X80.015Y-83.414
X80.772Y-76.581
X80.821Y-96.774
X80.835Y-82.132
X81.546Y-98.044
X81.978Y-71.628
X81.978Y-79.692
X82.271Y-105.679
X82.296Y-109.474
X83.121Y-104.394
X83.566Y-88.01
X83.693Y-89.535
X83.697Y-95.784
X84.461Y-88.736
X84.501Y-92.969
X84.582Y-108.077
X84.582Y-106.934
X84.645Y-103.124
X84.645Y-99.377
X84.646Y-100.584
X85.084Y-86.487
X85.788Y-87.212
X86.741Y-80.454
X87.82Y-80.454
X89.027Y-80.454
X89.281Y-67.437
X90.17Y-109.474
X90.297Y-80.454
X90.932Y-58.293
X91.567Y-80.454
X91.694Y-48.705
X92.964Y-80.454
X94.996Y-70.485
X94.996Y-82.132
X95.006Y-71.485
X95.758Y-73.152
X96.139Y-69.977
X96.852Y-67.564
X99.822Y-68.707
X99.822Y-109.474
X101.409Y-91.948
X101.854Y-64.262
X101.981Y-69.977
X101.981Y-71.501
X102.616Y-76.073
X103.505Y-69.977
X103.505Y-71.501
X103.822Y-76.073
X104.365Y-85.344
X104.365Y-92.9
X104.648Y-109.474
X105.219Y-95.313
X105.268Y-83.104
X105.574Y-74.613
X105.994Y-71.248
X106.426Y-69.747
X107.061Y-107.315
X107.137Y-73.579
X107.569Y-67.691
X107.569Y-69.178
X107.746Y-70.485
X107.759Y-97.409
X107.762Y-76.789
X109.347Y-78.994
X109.347Y-96.203
X109.347Y-109.093
X110.934Y-73.215
X111.225Y-71.628
X111.867Y-61.722
X112.141Y-67.31
X112.828Y-58.515
X113.447Y-50.648
X114.046Y-109.093
X121.641Y-50.866
X121.773Y-93.975
X122.773Y-102.337
X122.819Y-48.021
X123.509Y-86.604
X124.042Y-84.264
X124.236Y-49.596
X124.767Y-90.17
X124.904Y-106.172
X125.106Y-83.509
X125.603Y-82.614
X125.92Y-77.724
X125.928Y-106.172
X126.428Y-45.72
X126.873Y-100.748
X126.936Y-106.172
X127.063Y-81.471
X128.841Y-53.53
X128.841Y-92.139
X128.841Y-101.536
X128.841Y-104.775
X129.451Y-75.265
X129.553Y-68.199
X130.048Y-102.87
X130.81Y-62.293
X131.282Y-42.964
X131.508Y-75.501
X132.588Y-54.165
X133.604Y-54.102
X134.493Y-84.899
X134.493Y-92.456
X135.763Y-82.105
X136.525Y-68.453
X136.588Y-75.565
X136.652Y-83.629
X137.096Y-90.17
X138.367Y-103.632
X138.369Y-75.789
X138.43Y-50.673
X140.653Y-75.755
X140.97Y-60.579
X140.97Y-106.717
X142.177Y-91.313
X142.179Y-77.729
X142.43Y-68.77
X142.494Y-75.565
X143.256Y-60.706
X143.378Y-96.728
X144.059Y-48.519
X144.069Y-87.294
X144.369Y-104.775
X144.59Y-72.801
X145.041Y-87.531
X145.288Y-40.767
X145.561Y-105.992
X145.715Y-88.549
X147.31Y-82.744
X147.34Y-75.392
X147.879Y-81.922
X148.052Y-80.879
X148.854Y-87.432
X149.572Y-82.325
X150.312Y-69.794
X150.317Y-108.234
X150.939Y-60.373
X151.13Y-94.361
X151.305Y-77.671
X153.099Y-55.128
X153.954Y-49.85
X154.544Y-86.053
X154.94Y-106.108
X154.96Y-100.741
X155.56Y-77.607
X155.766Y-55.816
X155.778Y-57.328
X156.019Y-106.108
X156.273Y-61.658
X156.964Y-107.005
X157.21Y-62.422
X157.29Y-55.816
X157.29Y-57.277
X157.48Y-64.643
X159.385Y-90.361
X160.447Y-100.741
X160.719Y-66.103
X164.633Y-45.034
X165.1Y-96.837
X165.862Y-94.361
X167.761Y-55.437
X168.003Y-53.919
T3
X172.891Y-51.292
X172.891Y-56.292
T4
X96.164Y-45.144
X98.704Y-43.624
X106.274Y-45.144
X108.814Y-43.624
T5
X71.617Y-44.976
X74.117Y-44.976
X76.617Y-44.976
X79.117Y-44.976
X81.617Y-44.976
X84.117Y-44.976
X86.617Y-44.976
X98.044Y-57.404
X99.314Y-54.864
X100.584Y-57.404
X101.854Y-54.864
X103.124Y-57.404
X104.394Y-54.864
X105.664Y-57.404
X106.934Y-54.864
X130.006Y-45.031
X132.506Y-45.031
X135.006Y-45.031
X137.506Y-45.031
X140.006Y-45.031
X142.506Y-45.031
X152.744Y-45.006
X155.244Y-45.006
X157.744Y-45.006
X160.244Y-45.006
X162.744Y-45.006
X116.845Y-44.715
X119.345Y-44.715
T6
X121.602Y-58.864
X121.602Y-61.404
X124.142Y-58.864
X124.142Y-61.404
X163.449Y-85.471
X163.449Y-88.011
X163.449Y-90.551
X163.449Y-93.091
X163.449Y-95.631
X163.449Y-98.171
X163.449Y-100.711
X163.449Y-103.251
X115.189Y-67.691
X115.189Y-70.231
X115.189Y-72.771
X115.189Y-75.311
X115.189Y-77.851
X115.189Y-80.391
X115.189Y-82.931
X115.189Y-85.471
X71.196Y-75.016
X73.736Y-75.016
X76.276Y-75.016
X78.816Y-75.016
X134.556Y-99.695
X137.096Y-99.695
X139.636Y-99.695
X142.177Y-99.695
X163.449Y-63.627
X163.449Y-66.167
X163.449Y-68.707
X163.449Y-71.247
X163.449Y-73.787
X163.449Y-76.327
X163.449Y-78.867
X163.449Y-81.407
X167.66Y-60.559
X170.2Y-60.559
T7
X168.18Y-74.251
X168.18Y-76.991
X168.18Y-79.731
X168.18Y-82.471
X168.18Y-85.211
X171.02Y-75.621
X171.02Y-78.361
X171.02Y-81.101
X171.02Y-83.841
T8
X41.563Y-47.578
X46.563Y-47.578
X51.563Y-47.578
X56.563Y-47.578
T9
X94.714Y-51.574
X110.264Y-51.574
T10
X169.6Y-67.236
X169.6Y-92.226
T2
X175.241Y-50.292G85X175.941Y-50.292
G05
X175.941Y-57.292G85X175.241Y-57.292
G05
T0
M30
