%FSLAX45Y45*%
G04 Gerber Fmt 4.5, Leading zero omitted, Abs format (unit mm)*
G04 Created by KiCad (PCBNEW 5.0.2-bee76a0~70~ubuntu18.04.1) date Mi 24 Apr 2019 00:28:15 CEST*
%MOMM*%
%LPD*%
G01*
G04 APERTURE LIST*
%ADD10C,0.150000*%
%ADD11C,0.200000*%
%ADD12C,0.300000*%
G04 APERTURE END LIST*
D10*
X1746250Y-3746500D02*
X1746250Y-11061700D01*
X17748250Y-3746500D02*
X1746250Y-3746500D01*
X17748250Y-11061700D02*
X17748250Y-3746500D01*
X1746250Y-11061700D02*
X17748250Y-11061700D01*
D11*
X1932499Y-9044499D02*
X1972499Y-9084499D01*
X1972499Y-9044499D02*
X1932499Y-9084499D01*
X1932499Y-9044499D02*
X1972499Y-9084499D01*
X1972499Y-9044499D02*
X1932499Y-9084499D01*
X1932499Y-9044499D02*
X1972499Y-9084499D01*
X1972499Y-9044499D02*
X1932499Y-9084499D01*
X1932499Y-9044499D02*
X1972499Y-9084499D01*
X1972499Y-9044499D02*
X1932499Y-9084499D01*
X2062800Y-9187500D02*
X2102800Y-9227500D01*
X2102800Y-9187500D02*
X2062800Y-9227500D01*
X2151700Y-8323900D02*
X2191700Y-8363900D01*
X2191700Y-8323900D02*
X2151700Y-8363900D01*
X2151700Y-8425500D02*
X2191700Y-8465500D01*
X2191700Y-8425500D02*
X2151700Y-8465500D01*
X2151700Y-8527100D02*
X2191700Y-8567100D01*
X2191700Y-8527100D02*
X2151700Y-8567100D01*
X2151700Y-8641400D02*
X2191700Y-8681400D01*
X2191700Y-8641400D02*
X2151700Y-8681400D01*
X2164400Y-9276400D02*
X2204400Y-9316400D01*
X2204400Y-9276400D02*
X2164400Y-9316400D01*
X2189800Y-9720900D02*
X2229800Y-9760900D01*
X2229800Y-9720900D02*
X2189800Y-9760900D01*
X2189800Y-10381300D02*
X2229800Y-10421300D01*
X2229800Y-10381300D02*
X2189800Y-10421300D01*
X2202500Y-8755700D02*
X2242500Y-8795700D01*
X2242500Y-8755700D02*
X2202500Y-8795700D01*
X2266000Y-9378000D02*
X2306000Y-9418000D01*
X2306000Y-9378000D02*
X2266000Y-9418000D01*
X2342200Y-9174800D02*
X2382200Y-9214800D01*
X2382200Y-9174800D02*
X2342200Y-9214800D01*
X2354900Y-9035100D02*
X2394900Y-9075100D01*
X2394900Y-9035100D02*
X2354900Y-9075100D01*
X2393000Y-5212400D02*
X2433000Y-5252400D01*
X2433000Y-5212400D02*
X2393000Y-5252400D01*
X2393000Y-5466400D02*
X2433000Y-5506400D01*
X2433000Y-5466400D02*
X2393000Y-5506400D01*
X2393000Y-5593400D02*
X2433000Y-5633400D01*
X2433000Y-5593400D02*
X2393000Y-5633400D01*
X2393000Y-5720400D02*
X2433000Y-5760400D01*
X2433000Y-5720400D02*
X2393000Y-5760400D01*
X2412050Y-7314250D02*
X2452050Y-7354250D01*
X2452050Y-7314250D02*
X2412050Y-7354250D01*
X2412050Y-7434900D02*
X2452050Y-7474900D01*
X2452050Y-7434900D02*
X2412050Y-7474900D01*
X2418400Y-7180900D02*
X2458400Y-7220900D01*
X2458400Y-7180900D02*
X2418400Y-7220900D01*
X2418400Y-7993700D02*
X2458400Y-8033700D01*
X2458400Y-7993700D02*
X2418400Y-8033700D01*
X2418400Y-8463600D02*
X2458400Y-8503600D01*
X2458400Y-8463600D02*
X2418400Y-8503600D01*
X2541701Y-6291900D02*
X2581701Y-6331900D01*
X2581701Y-6291900D02*
X2541701Y-6331900D01*
X2545400Y-6711000D02*
X2585400Y-6751000D01*
X2585400Y-6711000D02*
X2545400Y-6751000D01*
X2545400Y-9714550D02*
X2585400Y-9754550D01*
X2585400Y-9714550D02*
X2545400Y-9754550D01*
X2697800Y-9174800D02*
X2737800Y-9214800D01*
X2737800Y-9174800D02*
X2697800Y-9214800D01*
X2710500Y-5593400D02*
X2750500Y-5633400D01*
X2750500Y-5593400D02*
X2710500Y-5633400D01*
X2710500Y-5720400D02*
X2750500Y-5760400D01*
X2750500Y-5720400D02*
X2710500Y-5760400D01*
X2710500Y-9022400D02*
X2750500Y-9062400D01*
X2750500Y-9022400D02*
X2710500Y-9062400D01*
X2723200Y-7307900D02*
X2763200Y-7347900D01*
X2763200Y-7307900D02*
X2723200Y-7347900D01*
X2723200Y-7434900D02*
X2763200Y-7474900D01*
X2763200Y-7434900D02*
X2723200Y-7474900D01*
X2748600Y-7561900D02*
X2788600Y-7601900D01*
X2788600Y-7561900D02*
X2748600Y-7601900D01*
X2761300Y-5847400D02*
X2801300Y-5887400D01*
X2801300Y-5847400D02*
X2761300Y-5887400D01*
X2761300Y-9289100D02*
X2801300Y-9329100D01*
X2801300Y-9289100D02*
X2761300Y-9329100D01*
X2786700Y-8908100D02*
X2826700Y-8948100D01*
X2826700Y-8908100D02*
X2786700Y-8948100D01*
X2812100Y-5212400D02*
X2852100Y-5252400D01*
X2852100Y-5212400D02*
X2812100Y-5252400D01*
X2875600Y-5682300D02*
X2915600Y-5722300D01*
X2915600Y-5682300D02*
X2875600Y-5722300D01*
X2888300Y-7434900D02*
X2928300Y-7474900D01*
X2928300Y-7434900D02*
X2888300Y-7474900D01*
X2901000Y-7180900D02*
X2941000Y-7220900D01*
X2941000Y-7180900D02*
X2901000Y-7220900D01*
X2901000Y-8908100D02*
X2941000Y-8948100D01*
X2941000Y-8908100D02*
X2901000Y-8948100D01*
X2939100Y-9174800D02*
X2979100Y-9214800D01*
X2979100Y-9174800D02*
X2939100Y-9214800D01*
X3091500Y-6304600D02*
X3131500Y-6344600D01*
X3131500Y-6304600D02*
X3091500Y-6344600D01*
X3091500Y-6723700D02*
X3131500Y-6763700D01*
X3131500Y-6723700D02*
X3091500Y-6763700D01*
X3123250Y-9708200D02*
X3163250Y-9748200D01*
X3163250Y-9708200D02*
X3123250Y-9748200D01*
X3205800Y-7993700D02*
X3245800Y-8033700D01*
X3245800Y-7993700D02*
X3205800Y-8033700D01*
X3205800Y-8463600D02*
X3245800Y-8503600D01*
X3245800Y-8463600D02*
X3205800Y-8503600D01*
X3231200Y-9149400D02*
X3271200Y-9189400D01*
X3271200Y-9149400D02*
X3231200Y-9189400D01*
X3243900Y-5847400D02*
X3283900Y-5887400D01*
X3283900Y-5847400D02*
X3243900Y-5887400D01*
X3256600Y-7561900D02*
X3296600Y-7601900D01*
X3296600Y-7561900D02*
X3256600Y-7601900D01*
X3332800Y-5199700D02*
X3372800Y-5239700D01*
X3372800Y-5199700D02*
X3332800Y-5239700D01*
X3332800Y-5339400D02*
X3372800Y-5379400D01*
X3372800Y-5339400D02*
X3332800Y-5379400D01*
X3345500Y-6304600D02*
X3385500Y-6344600D01*
X3385500Y-6304600D02*
X3345500Y-6344600D01*
X3345500Y-6520500D02*
X3385500Y-6560500D01*
X3385500Y-6520500D02*
X3345500Y-6560500D01*
X3345500Y-6723700D02*
X3385500Y-6763700D01*
X3385500Y-6723700D02*
X3345500Y-6763700D01*
X3472500Y-9289100D02*
X3512500Y-9329100D01*
X3512500Y-9289100D02*
X3472500Y-9329100D01*
X3482899Y-7401650D02*
X3522899Y-7441650D01*
X3522899Y-7401650D02*
X3482899Y-7441650D01*
X3485200Y-5707700D02*
X3525200Y-5747700D01*
X3525200Y-5707700D02*
X3485200Y-5747700D01*
X3497900Y-9543100D02*
X3537900Y-9583100D01*
X3537900Y-9543100D02*
X3497900Y-9583100D01*
X3497900Y-9708200D02*
X3537900Y-9748200D01*
X3537900Y-9708200D02*
X3497900Y-9748200D01*
X3497900Y-10394000D02*
X3537900Y-10434000D01*
X3537900Y-10394000D02*
X3497900Y-10434000D01*
X3510600Y-7993700D02*
X3550600Y-8033700D01*
X3550600Y-7993700D02*
X3510600Y-8033700D01*
X3510600Y-8241350D02*
X3550600Y-8281350D01*
X3550600Y-8241350D02*
X3510600Y-8281350D01*
X3510600Y-8463600D02*
X3550600Y-8503600D01*
X3550600Y-8463600D02*
X3510600Y-8503600D01*
X3510600Y-9149400D02*
X3550600Y-9189400D01*
X3550600Y-9149400D02*
X3510600Y-9189400D01*
X3955100Y-9441500D02*
X3995100Y-9481500D01*
X3995100Y-9441500D02*
X3955100Y-9481500D01*
X4132900Y-6914200D02*
X4172900Y-6954200D01*
X4172900Y-6914200D02*
X4132900Y-6954200D01*
X4145600Y-6330000D02*
X4185600Y-6370000D01*
X4185600Y-6330000D02*
X4145600Y-6370000D01*
X4145600Y-6609400D02*
X4185600Y-6649400D01*
X4185600Y-6609400D02*
X4145600Y-6649400D01*
X4158300Y-9441500D02*
X4198300Y-9481500D01*
X4198300Y-9441500D02*
X4158300Y-9481500D01*
X4171000Y-9162100D02*
X4211000Y-9202100D01*
X4211000Y-9162100D02*
X4171000Y-9202100D01*
X4171000Y-9733600D02*
X4211000Y-9773600D01*
X4211000Y-9733600D02*
X4171000Y-9773600D01*
X4209100Y-8006400D02*
X4249100Y-8046400D01*
X4249100Y-8006400D02*
X4209100Y-8046400D01*
X4209100Y-8641400D02*
X4249100Y-8681400D01*
X4249100Y-8641400D02*
X4209100Y-8681400D01*
X4615500Y-5199700D02*
X4655500Y-5239700D01*
X4655500Y-5199700D02*
X4615500Y-5239700D01*
X4615500Y-6926900D02*
X4655500Y-6966900D01*
X4655500Y-6926900D02*
X4615500Y-6966900D01*
X4615500Y-9441500D02*
X4655500Y-9481500D01*
X4655500Y-9441500D02*
X4615500Y-9481500D01*
X4628200Y-5466400D02*
X4668200Y-5506400D01*
X4668200Y-5466400D02*
X4628200Y-5506400D01*
X4628200Y-6317300D02*
X4668200Y-6357300D01*
X4668200Y-6317300D02*
X4628200Y-6357300D01*
X4628200Y-6596700D02*
X4668200Y-6636700D01*
X4668200Y-6596700D02*
X4628200Y-6636700D01*
X4628200Y-9162100D02*
X4668200Y-9202100D01*
X4668200Y-9162100D02*
X4628200Y-9202100D01*
X4628200Y-9733600D02*
X4668200Y-9773600D01*
X4668200Y-9733600D02*
X4628200Y-9773600D01*
X4640900Y-7396800D02*
X4680900Y-7436800D01*
X4680900Y-7396800D02*
X4640900Y-7436800D01*
X4640900Y-8006400D02*
X4680900Y-8046400D01*
X4680900Y-8006400D02*
X4640900Y-8046400D01*
X4640900Y-8616000D02*
X4680900Y-8656000D01*
X4680900Y-8616000D02*
X4640900Y-8656000D01*
X4806000Y-5199700D02*
X4846000Y-5239700D01*
X4846000Y-5199700D02*
X4806000Y-5239700D01*
X4806000Y-5466400D02*
X4846000Y-5506400D01*
X4846000Y-5466400D02*
X4806000Y-5506400D01*
X4806000Y-9441500D02*
X4846000Y-9481500D01*
X4846000Y-9441500D02*
X4806000Y-9481500D01*
X4818700Y-6314400D02*
X4858700Y-6354400D01*
X4858700Y-6314400D02*
X4818700Y-6354400D01*
X5009200Y-5192080D02*
X5049200Y-5232080D01*
X5049200Y-5192080D02*
X5009200Y-5232080D01*
X5009200Y-5293680D02*
X5049200Y-5333680D01*
X5049200Y-5293680D02*
X5009200Y-5333680D01*
X5009200Y-5400360D02*
X5049200Y-5440360D01*
X5049200Y-5400360D02*
X5009200Y-5440360D01*
X5034600Y-10609900D02*
X5074600Y-10649900D01*
X5074600Y-10609900D02*
X5034600Y-10649900D01*
X5123500Y-7142800D02*
X5163500Y-7182800D01*
X5163500Y-7142800D02*
X5123500Y-7182800D01*
X5123500Y-7587300D02*
X5163500Y-7627300D01*
X5163500Y-7587300D02*
X5123500Y-7627300D01*
X5136200Y-6711000D02*
X5176200Y-6751000D01*
X5176200Y-6711000D02*
X5136200Y-6751000D01*
X5275900Y-10762300D02*
X5315900Y-10802300D01*
X5315900Y-10762300D02*
X5275900Y-10802300D01*
X5288600Y-10228900D02*
X5328600Y-10268900D01*
X5328600Y-10228900D02*
X5288600Y-10268900D01*
X5415600Y-9847900D02*
X5455600Y-9887900D01*
X5455600Y-9847900D02*
X5415600Y-9887900D01*
X5415600Y-10013000D02*
X5455600Y-10053000D01*
X5455600Y-10013000D02*
X5415600Y-10053000D01*
X5428300Y-7142800D02*
X5468300Y-7182800D01*
X5468300Y-7142800D02*
X5428300Y-7182800D01*
X5441000Y-6723700D02*
X5481000Y-6763700D01*
X5481000Y-6723700D02*
X5441000Y-6763700D01*
X5471480Y-4564700D02*
X5511480Y-4604700D01*
X5511480Y-4564700D02*
X5471480Y-4604700D01*
X5471480Y-4691700D02*
X5511480Y-4731700D01*
X5511480Y-4691700D02*
X5471480Y-4731700D01*
X5471480Y-4818700D02*
X5511480Y-4858700D01*
X5511480Y-4818700D02*
X5471480Y-4858700D01*
X5471480Y-4943160D02*
X5511480Y-4983160D01*
X5511480Y-4943160D02*
X5471480Y-4983160D01*
X5504500Y-10216200D02*
X5544500Y-10256200D01*
X5544500Y-10216200D02*
X5504500Y-10256200D01*
X5613720Y-4945700D02*
X5653720Y-4985700D01*
X5653720Y-4945700D02*
X5613720Y-4985700D01*
X5634040Y-4564700D02*
X5674040Y-4604700D01*
X5674040Y-4564700D02*
X5634040Y-4604700D01*
X5644200Y-7320600D02*
X5684200Y-7360600D01*
X5684200Y-7320600D02*
X5644200Y-7360600D01*
X5644200Y-7574600D02*
X5684200Y-7614600D01*
X5684200Y-7574600D02*
X5644200Y-7614600D01*
X5656900Y-7130100D02*
X5696900Y-7170100D01*
X5696900Y-7130100D02*
X5656900Y-7170100D01*
X5744100Y-6939600D02*
X5784100Y-6979600D01*
X5784100Y-6939600D02*
X5744100Y-6979600D01*
X5745800Y-4945700D02*
X5785800Y-4985700D01*
X5785800Y-4945700D02*
X5745800Y-4985700D01*
X5771200Y-4564700D02*
X5811200Y-4604700D01*
X5811200Y-4564700D02*
X5771200Y-4604700D01*
X5898200Y-4564700D02*
X5938200Y-4604700D01*
X5938200Y-4564700D02*
X5898200Y-4604700D01*
X5898200Y-4755200D02*
X5938200Y-4795200D01*
X5938200Y-4755200D02*
X5898200Y-4795200D01*
X5898200Y-4945700D02*
X5938200Y-4985700D01*
X5938200Y-4945700D02*
X5898200Y-4985700D01*
X5960951Y-8683799D02*
X6000951Y-8723799D01*
X6000951Y-8683799D02*
X5960951Y-8723799D01*
X5960951Y-8933500D02*
X6000951Y-8973500D01*
X6000951Y-8933500D02*
X5960951Y-8973500D01*
X6025200Y-4755200D02*
X6065200Y-4795200D01*
X6065200Y-4755200D02*
X6025200Y-4795200D01*
X6025200Y-4945700D02*
X6065200Y-4985700D01*
X6065200Y-4945700D02*
X6025200Y-4985700D01*
X6037900Y-4564700D02*
X6077900Y-4604700D01*
X6077900Y-4564700D02*
X6037900Y-4604700D01*
X6076000Y-7104700D02*
X6116000Y-7144700D01*
X6116000Y-7104700D02*
X6076000Y-7144700D01*
X6076000Y-9441500D02*
X6116000Y-9481500D01*
X6116000Y-9441500D02*
X6076000Y-9481500D01*
X6088700Y-7307900D02*
X6128700Y-7347900D01*
X6128700Y-7307900D02*
X6088700Y-7347900D01*
X6101400Y-7561900D02*
X6141400Y-7601900D01*
X6141400Y-7561900D02*
X6101400Y-7601900D01*
X6117650Y-8527100D02*
X6157650Y-8567100D01*
X6157650Y-8527100D02*
X6117650Y-8567100D01*
X6228400Y-8416350D02*
X6268400Y-8456350D01*
X6268400Y-8416350D02*
X6228400Y-8456350D01*
X6584000Y-10902000D02*
X6624000Y-10942000D01*
X6624000Y-10902000D02*
X6584000Y-10942000D01*
X6647500Y-9416100D02*
X6687500Y-9456100D01*
X6687500Y-9416100D02*
X6647500Y-9456100D01*
X6660200Y-9162100D02*
X6700200Y-9202100D01*
X6700200Y-9162100D02*
X6660200Y-9202100D01*
X6761800Y-9162100D02*
X6801800Y-9202100D01*
X6801800Y-9162100D02*
X6761800Y-9202100D01*
X6774500Y-9416100D02*
X6814500Y-9456100D01*
X6814500Y-9416100D02*
X6774500Y-9456100D01*
X6888800Y-5326700D02*
X6928800Y-5366700D01*
X6928800Y-5326700D02*
X6888800Y-5366700D01*
X6952300Y-6914200D02*
X6992300Y-6954200D01*
X6992300Y-6914200D02*
X6952300Y-6954200D01*
X6965000Y-7104700D02*
X7005000Y-7144700D01*
X7005000Y-7104700D02*
X6965000Y-7144700D01*
X7117404Y-9943150D02*
X7157404Y-9983150D01*
X7157404Y-9943150D02*
X7117404Y-9983150D01*
X7193600Y-9632000D02*
X7233600Y-9672000D01*
X7233600Y-9632000D02*
X7193600Y-9672000D01*
X7206300Y-9428800D02*
X7246300Y-9468800D01*
X7246300Y-9428800D02*
X7206300Y-9468800D01*
X7231700Y-9996300D02*
X7271700Y-10036300D01*
X7271700Y-9996300D02*
X7231700Y-10036300D01*
X7384100Y-10190800D02*
X7424100Y-10230800D01*
X7424100Y-10190800D02*
X7384100Y-10230800D01*
X7403150Y-8120700D02*
X7443150Y-8160700D01*
X7443150Y-8120700D02*
X7403150Y-8160700D01*
X7403150Y-9530400D02*
X7443150Y-9570400D01*
X7443150Y-9530400D02*
X7403150Y-9570400D01*
X7488356Y-9911763D02*
X7528356Y-9951763D01*
X7528356Y-9911763D02*
X7488356Y-9951763D01*
X7561899Y-9751699D02*
X7601899Y-9791699D01*
X7601899Y-9751699D02*
X7561899Y-9791699D01*
X7606716Y-9588120D02*
X7646716Y-9628120D01*
X7646716Y-9588120D02*
X7606716Y-9628120D01*
X7639850Y-8463600D02*
X7679850Y-8503600D01*
X7679850Y-8463600D02*
X7639850Y-8503600D01*
X7644681Y-9695589D02*
X7684681Y-9735589D01*
X7684681Y-9695589D02*
X7644681Y-9735589D01*
X7650800Y-9428800D02*
X7690800Y-9468800D01*
X7690800Y-9428800D02*
X7650800Y-9468800D01*
X7676200Y-10190800D02*
X7716200Y-10230800D01*
X7716200Y-10190800D02*
X7676200Y-10230800D01*
X7765100Y-9479600D02*
X7805100Y-9519600D01*
X7805100Y-9479600D02*
X7765100Y-9519600D01*
X7776200Y-10190800D02*
X7816200Y-10230800D01*
X7816200Y-10190800D02*
X7776200Y-10230800D01*
X7898450Y-8482650D02*
X7938450Y-8522650D01*
X7938450Y-8482650D02*
X7898450Y-8522650D01*
X7898451Y-9371650D02*
X7938451Y-9411650D01*
X7938451Y-9371650D02*
X7898451Y-9411650D01*
X8057200Y-7638100D02*
X8097200Y-7678100D01*
X8097200Y-7638100D02*
X8057200Y-7678100D01*
X8062149Y-9657400D02*
X8102149Y-9697400D01*
X8102149Y-9657400D02*
X8062149Y-9697400D01*
X8063550Y-8193200D02*
X8103550Y-8233200D01*
X8103550Y-8193200D02*
X8063550Y-8233200D01*
X8134649Y-9784400D02*
X8174649Y-9824400D01*
X8174649Y-9784400D02*
X8134649Y-9824400D01*
X8171500Y-10482900D02*
X8211500Y-10522900D01*
X8211500Y-10482900D02*
X8171500Y-10522900D01*
X8177850Y-7142800D02*
X8217850Y-7182800D01*
X8217850Y-7142800D02*
X8177850Y-7182800D01*
X8177850Y-7949250D02*
X8217850Y-7989250D01*
X8217850Y-7949250D02*
X8177850Y-7989250D01*
X8209600Y-10927400D02*
X8249600Y-10967400D01*
X8249600Y-10927400D02*
X8209600Y-10967400D01*
X8292150Y-10419400D02*
X8332150Y-10459400D01*
X8332150Y-10419400D02*
X8292150Y-10459400D01*
X8336600Y-8781048D02*
X8376600Y-8821048D01*
X8376600Y-8781048D02*
X8336600Y-8821048D01*
X8349300Y-8933500D02*
X8389300Y-8973500D01*
X8389300Y-8933500D02*
X8349300Y-8973500D01*
X8349724Y-9558450D02*
X8389724Y-9598450D01*
X8389724Y-9558450D02*
X8349724Y-9598450D01*
X8425500Y-9301800D02*
X8465500Y-9341800D01*
X8465500Y-9301800D02*
X8425500Y-9341800D01*
X8426122Y-8853601D02*
X8466122Y-8893601D01*
X8466122Y-8853601D02*
X8426122Y-8893601D01*
X8438200Y-10787700D02*
X8478200Y-10827700D01*
X8478200Y-10787700D02*
X8438200Y-10827700D01*
X8438201Y-10673400D02*
X8478201Y-10713400D01*
X8478201Y-10673400D02*
X8438201Y-10713400D01*
X8444550Y-10292400D02*
X8484550Y-10332400D01*
X8484550Y-10292400D02*
X8444550Y-10332400D01*
X8444550Y-9917750D02*
X8484550Y-9957750D01*
X8484550Y-9917750D02*
X8444550Y-9957750D01*
X8444550Y-10038400D02*
X8484550Y-10078400D01*
X8484550Y-10038400D02*
X8444550Y-10078400D01*
X8488415Y-8628700D02*
X8528415Y-8668700D01*
X8528415Y-8628700D02*
X8488415Y-8668700D01*
X8565200Y-8720250D02*
X8605200Y-8760250D01*
X8605200Y-8720250D02*
X8565200Y-8760250D01*
X8654100Y-8025450D02*
X8694100Y-8065450D01*
X8694100Y-8025450D02*
X8654100Y-8065450D01*
X8762050Y-8025450D02*
X8802050Y-8065450D01*
X8802050Y-8025450D02*
X8762050Y-8065450D01*
X8870000Y-9009700D02*
X8910000Y-9049700D01*
X8910000Y-9009700D02*
X8870000Y-9049700D01*
X8876350Y-8753050D02*
X8916350Y-8793050D01*
X8916350Y-8753050D02*
X8876350Y-8793050D01*
X8882700Y-8025450D02*
X8922700Y-8065450D01*
X8922700Y-8025450D02*
X8882700Y-8065450D01*
X8908100Y-6723700D02*
X8948100Y-6763700D01*
X8948100Y-6723700D02*
X8908100Y-6763700D01*
X8997000Y-10927400D02*
X9037000Y-10967400D01*
X9037000Y-10927400D02*
X8997000Y-10967400D01*
X9009700Y-8025450D02*
X9049700Y-8065450D01*
X9049700Y-8025450D02*
X9009700Y-8065450D01*
X9073200Y-5809300D02*
X9113200Y-5849300D01*
X9113200Y-5809300D02*
X9073200Y-5849300D01*
X9136700Y-8025450D02*
X9176700Y-8065450D01*
X9176700Y-8025450D02*
X9136700Y-8065450D01*
X9149400Y-4850450D02*
X9189400Y-4890450D01*
X9189400Y-4850450D02*
X9149400Y-4890450D01*
X9276400Y-8025450D02*
X9316400Y-8065450D01*
X9316400Y-8025450D02*
X9276400Y-8065450D01*
X9479600Y-7028500D02*
X9519600Y-7068500D01*
X9519600Y-7028500D02*
X9479600Y-7068500D01*
X9479600Y-8193200D02*
X9519600Y-8233200D01*
X9519600Y-8193200D02*
X9479600Y-8233200D01*
X9480611Y-7128495D02*
X9520611Y-7168495D01*
X9520611Y-7128495D02*
X9480611Y-7168495D01*
X9555800Y-7295200D02*
X9595800Y-7335200D01*
X9595800Y-7295200D02*
X9555800Y-7335200D01*
X9593900Y-6977700D02*
X9633900Y-7017700D01*
X9633900Y-6977700D02*
X9593900Y-7017700D01*
X9665250Y-6736400D02*
X9705250Y-6776400D01*
X9705250Y-6736400D02*
X9665250Y-6776400D01*
X9962200Y-6850700D02*
X10002200Y-6890700D01*
X10002200Y-6850700D02*
X9962200Y-6890700D01*
X9962200Y-10927400D02*
X10002200Y-10967400D01*
X10002200Y-10927400D02*
X9962200Y-10967400D01*
X10120950Y-9174800D02*
X10160950Y-9214800D01*
X10160950Y-9174800D02*
X10120950Y-9214800D01*
X10165400Y-6406200D02*
X10205400Y-6446200D01*
X10205400Y-6406200D02*
X10165400Y-6446200D01*
X10178100Y-6977700D02*
X10218100Y-7017700D01*
X10218100Y-6977700D02*
X10178100Y-7017700D01*
X10178100Y-7130100D02*
X10218100Y-7170100D01*
X10218100Y-7130100D02*
X10178100Y-7170100D01*
X10241600Y-7587300D02*
X10281600Y-7627300D01*
X10281600Y-7587300D02*
X10241600Y-7627300D01*
X10279700Y-6228400D02*
X10319700Y-6268400D01*
X10319700Y-6228400D02*
X10279700Y-6268400D01*
X10330500Y-6977700D02*
X10370500Y-7017700D01*
X10370500Y-6977700D02*
X10330500Y-7017700D01*
X10330500Y-7130100D02*
X10370500Y-7170100D01*
X10370500Y-7130100D02*
X10330500Y-7170100D01*
X10362250Y-7587300D02*
X10402250Y-7627300D01*
X10402250Y-7587300D02*
X10362250Y-7627300D01*
X10432100Y-8514400D02*
X10472100Y-8554400D01*
X10472100Y-8514400D02*
X10432100Y-8554400D01*
X10444800Y-10927400D02*
X10484800Y-10967400D01*
X10484800Y-10927400D02*
X10444800Y-10967400D01*
X10463850Y-9270050D02*
X10503850Y-9310050D01*
X10503850Y-9270050D02*
X10463850Y-9310050D01*
X10482900Y-6482400D02*
X10522900Y-6522400D01*
X10522900Y-6482400D02*
X10482900Y-6522400D01*
X10501950Y-9511350D02*
X10541950Y-9551350D01*
X10541950Y-9511350D02*
X10501950Y-9551350D01*
X10542099Y-7180900D02*
X10582099Y-7220900D01*
X10582099Y-7180900D02*
X10542099Y-7220900D01*
X10542099Y-7441250D02*
X10582099Y-7481250D01*
X10582099Y-7441250D02*
X10542099Y-7481250D01*
X10609599Y-7094900D02*
X10649599Y-7134900D01*
X10649599Y-7094900D02*
X10609599Y-7134900D01*
X10640077Y-6932801D02*
X10680077Y-6972801D01*
X10680077Y-6932801D02*
X10640077Y-6972801D01*
X10686100Y-10711500D02*
X10726100Y-10751500D01*
X10726100Y-10711500D02*
X10686100Y-10751500D01*
X10736900Y-6749100D02*
X10776900Y-6789100D01*
X10776900Y-6749100D02*
X10736900Y-6789100D01*
X10736900Y-6897800D02*
X10776900Y-6937800D01*
X10776900Y-6897800D02*
X10736900Y-6937800D01*
X10754601Y-7028500D02*
X10794601Y-7068500D01*
X10794601Y-7028500D02*
X10754601Y-7068500D01*
X10755950Y-7650800D02*
X10795950Y-7690800D01*
X10795950Y-7650800D02*
X10755950Y-7690800D01*
X10755950Y-9720900D02*
X10795950Y-9760900D01*
X10795950Y-9720900D02*
X10755950Y-9760900D01*
X10914700Y-7879401D02*
X10954700Y-7919401D01*
X10954700Y-7879401D02*
X10914700Y-7919401D01*
X10914700Y-9600250D02*
X10954700Y-9640250D01*
X10954700Y-9600250D02*
X10914700Y-9640250D01*
X10914700Y-10889300D02*
X10954700Y-10929300D01*
X10954700Y-10889300D02*
X10914700Y-10929300D01*
X11073450Y-7301550D02*
X11113450Y-7341550D01*
X11113450Y-7301550D02*
X11073450Y-7341550D01*
X11102549Y-7142800D02*
X11142549Y-7182800D01*
X11142549Y-7142800D02*
X11102549Y-7182800D01*
X11145951Y-9936800D02*
X11185951Y-9976800D01*
X11185951Y-9936800D02*
X11145951Y-9976800D01*
X11194100Y-6711000D02*
X11234100Y-6751000D01*
X11234100Y-6711000D02*
X11194100Y-6751000D01*
X11306400Y-6150200D02*
X11346400Y-6190200D01*
X11346400Y-6150200D02*
X11306400Y-6190200D01*
X11384600Y-10889300D02*
X11424600Y-10929300D01*
X11424600Y-10889300D02*
X11384600Y-10929300D01*
X11465650Y-4907600D02*
X11505650Y-4947600D01*
X11505650Y-4907600D02*
X11465650Y-4947600D01*
X11568750Y-5377499D02*
X11608750Y-5417499D01*
X11608750Y-5377499D02*
X11568750Y-5417499D01*
X11765600Y-5396550D02*
X11805600Y-5436550D01*
X11805600Y-5396550D02*
X11765600Y-5436550D01*
X11803700Y-5051950D02*
X11843700Y-5091950D01*
X11843700Y-5051950D02*
X11803700Y-5091950D01*
X11816400Y-10219900D02*
X11856400Y-10259900D01*
X11856400Y-10219900D02*
X11816400Y-10259900D01*
X12057700Y-9092250D02*
X12097700Y-9132250D01*
X12097700Y-9092250D02*
X12057700Y-9132250D01*
X12254550Y-5047300D02*
X12294550Y-5087300D01*
X12294550Y-5047300D02*
X12254550Y-5087300D01*
X12273600Y-8641400D02*
X12313600Y-8681400D01*
X12313600Y-8641400D02*
X12273600Y-8681400D01*
X12343450Y-4958400D02*
X12383450Y-4998400D01*
X12383450Y-4958400D02*
X12343450Y-4998400D01*
X12384201Y-8406450D02*
X12424201Y-8446450D01*
X12424201Y-8406450D02*
X12384201Y-8446450D01*
X12456701Y-8997000D02*
X12496701Y-9037000D01*
X12496701Y-8997000D02*
X12456701Y-9037000D01*
X12470450Y-10597200D02*
X12510450Y-10637200D01*
X12510450Y-10597200D02*
X12470450Y-10637200D01*
X12490636Y-8330897D02*
X12530636Y-8370897D01*
X12530636Y-8330897D02*
X12490636Y-8370897D01*
X12540300Y-8241350D02*
X12580300Y-8281350D01*
X12580300Y-8241350D02*
X12540300Y-8281350D01*
X12572048Y-7752402D02*
X12612048Y-7792402D01*
X12612048Y-7752402D02*
X12572048Y-7792402D01*
X12572050Y-4310700D02*
X12612050Y-4350700D01*
X12612050Y-4310700D02*
X12572050Y-4350700D01*
X12572850Y-10597200D02*
X12612850Y-10637200D01*
X12612850Y-10597200D02*
X12572850Y-10637200D01*
X12622849Y-4552000D02*
X12662849Y-4592000D01*
X12662849Y-4552000D02*
X12622849Y-4592000D01*
X12667300Y-10054800D02*
X12707300Y-10094800D01*
X12707300Y-10054800D02*
X12667300Y-10094800D01*
X12673650Y-10597200D02*
X12713650Y-10637200D01*
X12713650Y-10597200D02*
X12673650Y-10637200D01*
X12686350Y-8127050D02*
X12726350Y-8167050D01*
X12726350Y-8127050D02*
X12686350Y-8167050D01*
X12686350Y-9489550D02*
X12726350Y-9529550D01*
X12726350Y-9489550D02*
X12686350Y-9529550D01*
X12864150Y-5333050D02*
X12904150Y-5373050D01*
X12904150Y-5333050D02*
X12864150Y-5373050D01*
X12864150Y-9193850D02*
X12904150Y-9233850D01*
X12904150Y-9193850D02*
X12864150Y-9233850D01*
X12864150Y-10133650D02*
X12904150Y-10173650D01*
X12904150Y-10133650D02*
X12864150Y-10173650D01*
X12864150Y-10457500D02*
X12904150Y-10497500D01*
X12904150Y-10457500D02*
X12864150Y-10497500D01*
X12925144Y-7506507D02*
X12965144Y-7546507D01*
X12965144Y-7506507D02*
X12925144Y-7546507D01*
X12935251Y-6799900D02*
X12975251Y-6839900D01*
X12975251Y-6799900D02*
X12935251Y-6839900D01*
X12984799Y-10267000D02*
X13024799Y-10307000D01*
X13024799Y-10267000D02*
X12984799Y-10307000D01*
X13061000Y-6209350D02*
X13101000Y-6249350D01*
X13101000Y-6209350D02*
X13061000Y-6249350D01*
X13130850Y-7530150D02*
X13170850Y-7570150D01*
X13170850Y-7530150D02*
X13130850Y-7570150D01*
X13238800Y-5396550D02*
X13278800Y-5436550D01*
X13278800Y-5396550D02*
X13238800Y-5436550D01*
X13340400Y-5390200D02*
X13380400Y-5430200D01*
X13380400Y-5390200D02*
X13340400Y-5430200D01*
X13429300Y-8469950D02*
X13469300Y-8509950D01*
X13469300Y-8469950D02*
X13429300Y-8509950D01*
X13429300Y-9225600D02*
X13469300Y-9265600D01*
X13469300Y-9225600D02*
X13429300Y-9265600D01*
X13556300Y-8190550D02*
X13596300Y-8230550D01*
X13596300Y-8190550D02*
X13556300Y-8230550D01*
X13632500Y-6825300D02*
X13672500Y-6865300D01*
X13672500Y-6825300D02*
X13632500Y-6865300D01*
X13638850Y-7536500D02*
X13678850Y-7576500D01*
X13678850Y-7536500D02*
X13638850Y-7576500D01*
X13645200Y-8342950D02*
X13685200Y-8382950D01*
X13685200Y-8342950D02*
X13645200Y-8382950D01*
X13689650Y-8997000D02*
X13729650Y-9037000D01*
X13729650Y-8997000D02*
X13689650Y-9037000D01*
X13816650Y-10343200D02*
X13856650Y-10383200D01*
X13856650Y-10343200D02*
X13816650Y-10383200D01*
X13823000Y-5047300D02*
X13863000Y-5087300D01*
X13863000Y-5047300D02*
X13823000Y-5087300D01*
X13829350Y-7549200D02*
X13869350Y-7589200D01*
X13869350Y-7549200D02*
X13829350Y-7589200D01*
X14045250Y-7555550D02*
X14085250Y-7595550D01*
X14085250Y-7555550D02*
X14045250Y-7595550D01*
X14077000Y-6037900D02*
X14117000Y-6077900D01*
X14117000Y-6037900D02*
X14077000Y-6077900D01*
X14077000Y-10651700D02*
X14117000Y-10691700D01*
X14117000Y-10651700D02*
X14077000Y-10691700D01*
X14197650Y-9111300D02*
X14237650Y-9151300D01*
X14237650Y-9111300D02*
X14197650Y-9151300D01*
X14197652Y-7758750D02*
X14237652Y-7798750D01*
X14237652Y-7758750D02*
X14197652Y-7798750D01*
X14223050Y-6857050D02*
X14263050Y-6897050D01*
X14263050Y-6857050D02*
X14223050Y-6897050D01*
X14229400Y-7536500D02*
X14269400Y-7576500D01*
X14269400Y-7536500D02*
X14229400Y-7576500D01*
X14305600Y-6050600D02*
X14345600Y-6090600D01*
X14345600Y-6050600D02*
X14305600Y-6090600D01*
X14343700Y-10673400D02*
X14383700Y-10713400D01*
X14383700Y-10673400D02*
X14343700Y-10713400D01*
X14394500Y-7803200D02*
X14434500Y-7843200D01*
X14434500Y-7803200D02*
X14394500Y-7843200D01*
X14394500Y-8673150D02*
X14434500Y-8713150D01*
X14434500Y-8673150D02*
X14394500Y-8713150D01*
X14394500Y-4818700D02*
X14434500Y-4858700D01*
X14434500Y-4818700D02*
X14394500Y-4858700D01*
X14478771Y-7993700D02*
X14518771Y-8033700D01*
X14518771Y-7993700D02*
X14478771Y-8033700D01*
X14478771Y-8735828D02*
X14518771Y-8775828D01*
X14518771Y-8735828D02*
X14478771Y-8775828D01*
X14508800Y-4056700D02*
X14548800Y-4096700D01*
X14548800Y-4056700D02*
X14508800Y-4096700D01*
X14553250Y-8803850D02*
X14593250Y-8843850D01*
X14593250Y-8803850D02*
X14553250Y-8843850D01*
X14629450Y-8876350D02*
X14669450Y-8916350D01*
X14669450Y-8876350D02*
X14629450Y-8916350D01*
X14701950Y-7422200D02*
X14741950Y-7462200D01*
X14741950Y-7422200D02*
X14701950Y-7462200D01*
X14902500Y-4780600D02*
X14942500Y-4820600D01*
X14942500Y-4780600D02*
X14902500Y-4820600D01*
X15073950Y-6260150D02*
X15113950Y-6300150D01*
X15113950Y-6260150D02*
X15073950Y-6300150D01*
X15093000Y-9416100D02*
X15133000Y-9456100D01*
X15133000Y-9416100D02*
X15093000Y-9456100D01*
X15289850Y-5492850D02*
X15329850Y-5532850D01*
X15329850Y-5492850D02*
X15289850Y-5532850D01*
X15391450Y-4869500D02*
X15431450Y-4909500D01*
X15431450Y-4869500D02*
X15391450Y-4909500D01*
X15416850Y-10013000D02*
X15456850Y-10053000D01*
X15456850Y-10013000D02*
X15416850Y-10053000D01*
X15474000Y-10590850D02*
X15514000Y-10630850D01*
X15514000Y-10590850D02*
X15474000Y-10630850D01*
X15556550Y-5561650D02*
X15596550Y-5601650D01*
X15596550Y-5561650D02*
X15556550Y-5601650D01*
X15557750Y-5712850D02*
X15597750Y-5752850D01*
X15597750Y-5712850D02*
X15557750Y-5752850D01*
X15581950Y-10590850D02*
X15621950Y-10630850D01*
X15621950Y-10590850D02*
X15581950Y-10630850D01*
X15607350Y-6145850D02*
X15647350Y-6185850D01*
X15647350Y-6145850D02*
X15607350Y-6185850D01*
X15676400Y-10680550D02*
X15716400Y-10720550D01*
X15716400Y-10680550D02*
X15676400Y-10720550D01*
X15700983Y-6222200D02*
X15740983Y-6262200D01*
X15740983Y-6222200D02*
X15700983Y-6262200D01*
X15708950Y-5561650D02*
X15748950Y-5601650D01*
X15748950Y-5561650D02*
X15708950Y-5601650D01*
X15708950Y-5707700D02*
X15748950Y-5747700D01*
X15748950Y-5707700D02*
X15708950Y-5747700D01*
X15728000Y-6444300D02*
X15768000Y-6484300D01*
X15768000Y-6444300D02*
X15728000Y-6484300D01*
X15810550Y-10013000D02*
X15850550Y-10053000D01*
X15850550Y-10013000D02*
X15810550Y-10053000D01*
X15899450Y-4869500D02*
X15939450Y-4909500D01*
X15939450Y-4869500D02*
X15899450Y-4909500D01*
X15918500Y-9016050D02*
X15958500Y-9056050D01*
X15958500Y-9016050D02*
X15918500Y-9056050D01*
X15931200Y-10377600D02*
X15971200Y-10417600D01*
X15971200Y-10377600D02*
X15931200Y-10417600D01*
X16007400Y-5307650D02*
X16047400Y-5347650D01*
X16047400Y-5307650D02*
X16007400Y-5347650D01*
X16051850Y-6590350D02*
X16091850Y-6630350D01*
X16091850Y-6590350D02*
X16051850Y-6630350D01*
X16134400Y-4151950D02*
X16174400Y-4191950D01*
X16174400Y-4151950D02*
X16134400Y-4191950D01*
X16490000Y-9663750D02*
X16530000Y-9703750D01*
X16530000Y-9663750D02*
X16490000Y-9703750D01*
X16566200Y-9416100D02*
X16606200Y-9456100D01*
X16606200Y-9416100D02*
X16566200Y-9456100D01*
X16680500Y-9111300D02*
X16720500Y-9151300D01*
X16720500Y-9111300D02*
X16680500Y-9151300D01*
X16686850Y-9536750D02*
X16726850Y-9576750D01*
X16726850Y-9536750D02*
X16686850Y-9576750D01*
X16765600Y-5133200D02*
X16805600Y-5173200D01*
X16805600Y-5133200D02*
X16765600Y-5173200D01*
X16776905Y-5427686D02*
X16816905Y-5467686D01*
X16816905Y-5427686D02*
X16776905Y-5467686D01*
X16801150Y-5275900D02*
X16841150Y-5315900D01*
X16841150Y-5275900D02*
X16801150Y-5315900D01*
X16890050Y-9911407D02*
X16930050Y-9951407D01*
X16930050Y-9911407D02*
X16890050Y-9951407D01*
X17034227Y-9909527D02*
X17074227Y-9949527D01*
X17074227Y-9909527D02*
X17034227Y-9949527D01*
X17152273Y-9710073D02*
X17192273Y-9750073D01*
X17192273Y-9710073D02*
X17152273Y-9750073D01*
X17156748Y-10019199D02*
X17196748Y-10059199D01*
X17196748Y-10019199D02*
X17156748Y-10059199D01*
X17525050Y-9212900D02*
X17565050Y-9252900D01*
X17565050Y-9212900D02*
X17525050Y-9252900D01*
X17633000Y-9606600D02*
X17673000Y-9646600D01*
X17673000Y-9606600D02*
X17633000Y-9646600D01*
X17609900Y-4933200D02*
G75*
G03X17609900Y-4933200I-30000J0D01*
G01*
X17544900Y-4953200D02*
X17614900Y-4953200D01*
X17544900Y-4913200D02*
X17614900Y-4913200D01*
X17614900Y-4953200D02*
G75*
G03X17614900Y-4913200I0J20000D01*
G01*
X17544900Y-4913200D02*
G75*
G03X17544900Y-4953200I0J-20000D01*
G01*
X17609900Y-5633200D02*
G75*
G03X17609900Y-5633200I-30000J0D01*
G01*
X17614900Y-5613200D02*
X17544900Y-5613200D01*
X17614900Y-5653200D02*
X17544900Y-5653200D01*
X17544900Y-5613200D02*
G75*
G03X17544900Y-5653200I0J-20000D01*
G01*
X17614900Y-5653200D02*
G75*
G03X17614900Y-5613200I0J20000D01*
G01*
X17309900Y-4990700D02*
X17309900Y-5075700D01*
X17267400Y-5033200D02*
X17352400Y-5033200D01*
X17309900Y-5490700D02*
X17309900Y-5575700D01*
X17267400Y-5533200D02*
X17352400Y-5533200D01*
X9647867Y-4545867D02*
X9647867Y-4482933D01*
X9584933Y-4482933D01*
X9584933Y-4545867D01*
X9647867Y-4545867D01*
X9901867Y-4393867D02*
X9901867Y-4330933D01*
X9838933Y-4330933D01*
X9838933Y-4393867D01*
X9901867Y-4393867D01*
X10658867Y-4545867D02*
X10658867Y-4482933D01*
X10595933Y-4482933D01*
X10595933Y-4545867D01*
X10658867Y-4545867D01*
X10912867Y-4393867D02*
X10912867Y-4330933D01*
X10849933Y-4330933D01*
X10849933Y-4393867D01*
X10912867Y-4393867D01*
X9804400Y-5785400D02*
X9849400Y-5740400D01*
X9804400Y-5695400D01*
X9759400Y-5740400D01*
X9804400Y-5785400D01*
X9931400Y-5531400D02*
X9976400Y-5486400D01*
X9931400Y-5441400D01*
X9886400Y-5486400D01*
X9931400Y-5531400D01*
X10058400Y-5785400D02*
X10103400Y-5740400D01*
X10058400Y-5695400D01*
X10013400Y-5740400D01*
X10058400Y-5785400D01*
X10185400Y-5531400D02*
X10230400Y-5486400D01*
X10185400Y-5441400D01*
X10140400Y-5486400D01*
X10185400Y-5531400D01*
X10312400Y-5785400D02*
X10357400Y-5740400D01*
X10312400Y-5695400D01*
X10267400Y-5740400D01*
X10312400Y-5785400D01*
X10439400Y-5531400D02*
X10484400Y-5486400D01*
X10439400Y-5441400D01*
X10394400Y-5486400D01*
X10439400Y-5531400D01*
X10566400Y-5785400D02*
X10611400Y-5740400D01*
X10566400Y-5695400D01*
X10521400Y-5740400D01*
X10566400Y-5785400D01*
X10693400Y-5531400D02*
X10738400Y-5486400D01*
X10693400Y-5441400D01*
X10648400Y-5486400D01*
X10693400Y-5531400D01*
X13405650Y-9919500D02*
X13505650Y-10019500D01*
X13505650Y-9919500D02*
X13405650Y-10019500D01*
X13505650Y-9969500D02*
G75*
G03X13505650Y-9969500I-50000J0D01*
G01*
X13659650Y-9919500D02*
X13759650Y-10019500D01*
X13759650Y-9919500D02*
X13659650Y-10019500D01*
X13759650Y-9969500D02*
G75*
G03X13759650Y-9969500I-50000J0D01*
G01*
X13913650Y-9919500D02*
X14013650Y-10019500D01*
X14013650Y-9919500D02*
X13913650Y-10019500D01*
X14013650Y-9969500D02*
G75*
G03X14013650Y-9969500I-50000J0D01*
G01*
X14167650Y-9919500D02*
X14267650Y-10019500D01*
X14267650Y-9919500D02*
X14167650Y-10019500D01*
X14267650Y-9969500D02*
G75*
G03X14267650Y-9969500I-50000J0D01*
G01*
X16294900Y-6312700D02*
X16394900Y-6412700D01*
X16394900Y-6312700D02*
X16294900Y-6412700D01*
X16394900Y-6362700D02*
G75*
G03X16394900Y-6362700I-50000J0D01*
G01*
X16294900Y-6566700D02*
X16394900Y-6666700D01*
X16394900Y-6566700D02*
X16294900Y-6666700D01*
X16394900Y-6616700D02*
G75*
G03X16394900Y-6616700I-50000J0D01*
G01*
X16294900Y-6820700D02*
X16394900Y-6920700D01*
X16394900Y-6820700D02*
X16294900Y-6920700D01*
X16394900Y-6870700D02*
G75*
G03X16394900Y-6870700I-50000J0D01*
G01*
X16294900Y-7074700D02*
X16394900Y-7174700D01*
X16394900Y-7074700D02*
X16294900Y-7174700D01*
X16394900Y-7124700D02*
G75*
G03X16394900Y-7124700I-50000J0D01*
G01*
X16294900Y-7328700D02*
X16394900Y-7428700D01*
X16394900Y-7328700D02*
X16294900Y-7428700D01*
X16394900Y-7378700D02*
G75*
G03X16394900Y-7378700I-50000J0D01*
G01*
X16294900Y-7582700D02*
X16394900Y-7682700D01*
X16394900Y-7582700D02*
X16294900Y-7682700D01*
X16394900Y-7632700D02*
G75*
G03X16394900Y-7632700I-50000J0D01*
G01*
X16294900Y-7836700D02*
X16394900Y-7936700D01*
X16394900Y-7836700D02*
X16294900Y-7936700D01*
X16394900Y-7886700D02*
G75*
G03X16394900Y-7886700I-50000J0D01*
G01*
X16294900Y-8090700D02*
X16394900Y-8190700D01*
X16394900Y-8090700D02*
X16294900Y-8190700D01*
X16394900Y-8140700D02*
G75*
G03X16394900Y-8140700I-50000J0D01*
G01*
X7601750Y-7455700D02*
X7701750Y-7555700D01*
X7701750Y-7455700D02*
X7601750Y-7555700D01*
X7701750Y-7505700D02*
G75*
G03X7701750Y-7505700I-50000J0D01*
G01*
X7601750Y-7709700D02*
X7701750Y-7809700D01*
X7701750Y-7709700D02*
X7601750Y-7809700D01*
X7701750Y-7759700D02*
G75*
G03X7701750Y-7759700I-50000J0D01*
G01*
X7601750Y-7963700D02*
X7701750Y-8063700D01*
X7701750Y-7963700D02*
X7601750Y-8063700D01*
X7701750Y-8013700D02*
G75*
G03X7701750Y-8013700I-50000J0D01*
G01*
X7601750Y-8217700D02*
X7701750Y-8317700D01*
X7701750Y-8217700D02*
X7601750Y-8317700D01*
X7701750Y-8267700D02*
G75*
G03X7701750Y-8267700I-50000J0D01*
G01*
X12110250Y-5836450D02*
X12210250Y-5936450D01*
X12210250Y-5836450D02*
X12110250Y-5936450D01*
X12210250Y-5886450D02*
G75*
G03X12210250Y-5886450I-50000J0D01*
G01*
X12110250Y-6090450D02*
X12210250Y-6190450D01*
X12210250Y-6090450D02*
X12110250Y-6190450D01*
X12210250Y-6140450D02*
G75*
G03X12210250Y-6140450I-50000J0D01*
G01*
X12364250Y-5836450D02*
X12464250Y-5936450D01*
X12464250Y-5836450D02*
X12364250Y-5936450D01*
X12464250Y-5886450D02*
G75*
G03X12464250Y-5886450I-50000J0D01*
G01*
X12364250Y-6090450D02*
X12464250Y-6190450D01*
X12464250Y-6090450D02*
X12364250Y-6190450D01*
X12464250Y-6140450D02*
G75*
G03X12464250Y-6140450I-50000J0D01*
G01*
X16294900Y-8497100D02*
X16394900Y-8597100D01*
X16394900Y-8497100D02*
X16294900Y-8597100D01*
X16394900Y-8547100D02*
G75*
G03X16394900Y-8547100I-50000J0D01*
G01*
X16294900Y-8751100D02*
X16394900Y-8851100D01*
X16394900Y-8751100D02*
X16294900Y-8851100D01*
X16394900Y-8801100D02*
G75*
G03X16394900Y-8801100I-50000J0D01*
G01*
X16294900Y-9005100D02*
X16394900Y-9105100D01*
X16394900Y-9005100D02*
X16294900Y-9105100D01*
X16394900Y-9055100D02*
G75*
G03X16394900Y-9055100I-50000J0D01*
G01*
X16294900Y-9259100D02*
X16394900Y-9359100D01*
X16394900Y-9259100D02*
X16294900Y-9359100D01*
X16394900Y-9309100D02*
G75*
G03X16394900Y-9309100I-50000J0D01*
G01*
X16294900Y-9513100D02*
X16394900Y-9613100D01*
X16394900Y-9513100D02*
X16294900Y-9613100D01*
X16394900Y-9563100D02*
G75*
G03X16394900Y-9563100I-50000J0D01*
G01*
X16294900Y-9767100D02*
X16394900Y-9867100D01*
X16394900Y-9767100D02*
X16294900Y-9867100D01*
X16394900Y-9817100D02*
G75*
G03X16394900Y-9817100I-50000J0D01*
G01*
X16294900Y-10021100D02*
X16394900Y-10121100D01*
X16394900Y-10021100D02*
X16294900Y-10121100D01*
X16394900Y-10071100D02*
G75*
G03X16394900Y-10071100I-50000J0D01*
G01*
X16294900Y-10275100D02*
X16394900Y-10375100D01*
X16394900Y-10275100D02*
X16294900Y-10375100D01*
X16394900Y-10325100D02*
G75*
G03X16394900Y-10325100I-50000J0D01*
G01*
X11468900Y-6719100D02*
X11568900Y-6819100D01*
X11568900Y-6719100D02*
X11468900Y-6819100D01*
X11568900Y-6769100D02*
G75*
G03X11568900Y-6769100I-50000J0D01*
G01*
X11468900Y-6973100D02*
X11568900Y-7073100D01*
X11568900Y-6973100D02*
X11468900Y-7073100D01*
X11568900Y-7023100D02*
G75*
G03X11568900Y-7023100I-50000J0D01*
G01*
X11468900Y-7227100D02*
X11568900Y-7327100D01*
X11568900Y-7227100D02*
X11468900Y-7327100D01*
X11568900Y-7277100D02*
G75*
G03X11568900Y-7277100I-50000J0D01*
G01*
X11468900Y-7481100D02*
X11568900Y-7581100D01*
X11568900Y-7481100D02*
X11468900Y-7581100D01*
X11568900Y-7531100D02*
G75*
G03X11568900Y-7531100I-50000J0D01*
G01*
X11468900Y-7735100D02*
X11568900Y-7835100D01*
X11568900Y-7735100D02*
X11468900Y-7835100D01*
X11568900Y-7785100D02*
G75*
G03X11568900Y-7785100I-50000J0D01*
G01*
X11468900Y-7989100D02*
X11568900Y-8089100D01*
X11568900Y-7989100D02*
X11468900Y-8089100D01*
X11568900Y-8039100D02*
G75*
G03X11568900Y-8039100I-50000J0D01*
G01*
X11468900Y-8243100D02*
X11568900Y-8343100D01*
X11568900Y-8243100D02*
X11468900Y-8343100D01*
X11568900Y-8293100D02*
G75*
G03X11568900Y-8293100I-50000J0D01*
G01*
X11468900Y-8497100D02*
X11568900Y-8597100D01*
X11568900Y-8497100D02*
X11468900Y-8597100D01*
X11568900Y-8547100D02*
G75*
G03X11568900Y-8547100I-50000J0D01*
G01*
X7106400Y-4440800D02*
X7216400Y-4550800D01*
X7216400Y-4440800D02*
X7106400Y-4550800D01*
X7161400Y-4440800D02*
X7161400Y-4550800D01*
X7106400Y-4495800D02*
X7216400Y-4495800D01*
X7356400Y-4440800D02*
X7466400Y-4550800D01*
X7466400Y-4440800D02*
X7356400Y-4550800D01*
X7411400Y-4440800D02*
X7411400Y-4550800D01*
X7356400Y-4495800D02*
X7466400Y-4495800D01*
X7606400Y-4440800D02*
X7716400Y-4550800D01*
X7716400Y-4440800D02*
X7606400Y-4550800D01*
X7661400Y-4440800D02*
X7661400Y-4550800D01*
X7606400Y-4495800D02*
X7716400Y-4495800D01*
X7856400Y-4440800D02*
X7966400Y-4550800D01*
X7966400Y-4440800D02*
X7856400Y-4550800D01*
X7911400Y-4440800D02*
X7911400Y-4550800D01*
X7856400Y-4495800D02*
X7966400Y-4495800D01*
X8106400Y-4440800D02*
X8216400Y-4550800D01*
X8216400Y-4440800D02*
X8106400Y-4550800D01*
X8161400Y-4440800D02*
X8161400Y-4550800D01*
X8106400Y-4495800D02*
X8216400Y-4495800D01*
X8356400Y-4440800D02*
X8466400Y-4550800D01*
X8466400Y-4440800D02*
X8356400Y-4550800D01*
X8411400Y-4440800D02*
X8411400Y-4550800D01*
X8356400Y-4495800D02*
X8466400Y-4495800D01*
X8606400Y-4440800D02*
X8716400Y-4550800D01*
X8716400Y-4440800D02*
X8606400Y-4550800D01*
X8661400Y-4440800D02*
X8661400Y-4550800D01*
X8606400Y-4495800D02*
X8716400Y-4495800D01*
X11629000Y-4415400D02*
X11739000Y-4525400D01*
X11739000Y-4415400D02*
X11629000Y-4525400D01*
X11684000Y-4415400D02*
X11684000Y-4525400D01*
X11629000Y-4470400D02*
X11739000Y-4470400D01*
X11879000Y-4415400D02*
X11989000Y-4525400D01*
X11989000Y-4415400D02*
X11879000Y-4525400D01*
X11934000Y-4415400D02*
X11934000Y-4525400D01*
X11879000Y-4470400D02*
X11989000Y-4470400D01*
X15213700Y-4453500D02*
X15323700Y-4563500D01*
X15323700Y-4453500D02*
X15213700Y-4563500D01*
X15268700Y-4453500D02*
X15268700Y-4563500D01*
X15213700Y-4508500D02*
X15323700Y-4508500D01*
X15463700Y-4453500D02*
X15573700Y-4563500D01*
X15573700Y-4453500D02*
X15463700Y-4563500D01*
X15518700Y-4453500D02*
X15518700Y-4563500D01*
X15463700Y-4508500D02*
X15573700Y-4508500D01*
X15713700Y-4453500D02*
X15823700Y-4563500D01*
X15823700Y-4453500D02*
X15713700Y-4563500D01*
X15768700Y-4453500D02*
X15768700Y-4563500D01*
X15713700Y-4508500D02*
X15823700Y-4508500D01*
X15963700Y-4453500D02*
X16073700Y-4563500D01*
X16073700Y-4453500D02*
X15963700Y-4563500D01*
X16018700Y-4453500D02*
X16018700Y-4563500D01*
X15963700Y-4508500D02*
X16073700Y-4508500D01*
X16213700Y-4453500D02*
X16323700Y-4563500D01*
X16323700Y-4453500D02*
X16213700Y-4563500D01*
X16268700Y-4453500D02*
X16268700Y-4563500D01*
X16213700Y-4508500D02*
X16323700Y-4508500D01*
X12944400Y-4453500D02*
X13054400Y-4563500D01*
X13054400Y-4453500D02*
X12944400Y-4563500D01*
X12999400Y-4453500D02*
X12999400Y-4563500D01*
X12944400Y-4508500D02*
X13054400Y-4508500D01*
X13194400Y-4453500D02*
X13304400Y-4563500D01*
X13304400Y-4453500D02*
X13194400Y-4563500D01*
X13249400Y-4453500D02*
X13249400Y-4563500D01*
X13194400Y-4508500D02*
X13304400Y-4508500D01*
X13444400Y-4453500D02*
X13554400Y-4563500D01*
X13554400Y-4453500D02*
X13444400Y-4563500D01*
X13499400Y-4453500D02*
X13499400Y-4563500D01*
X13444400Y-4508500D02*
X13554400Y-4508500D01*
X13694400Y-4453500D02*
X13804400Y-4563500D01*
X13804400Y-4453500D02*
X13694400Y-4563500D01*
X13749400Y-4453500D02*
X13749400Y-4563500D01*
X13694400Y-4508500D02*
X13804400Y-4508500D01*
X13944400Y-4453500D02*
X14054400Y-4563500D01*
X14054400Y-4453500D02*
X13944400Y-4563500D01*
X13999400Y-4453500D02*
X13999400Y-4563500D01*
X13944400Y-4508500D02*
X14054400Y-4508500D01*
X14194400Y-4453500D02*
X14304400Y-4563500D01*
X14304400Y-4453500D02*
X14194400Y-4563500D01*
X14249400Y-4453500D02*
X14249400Y-4563500D01*
X14194400Y-4508500D02*
X14304400Y-4508500D01*
X16791750Y-6794750D02*
X16901750Y-6904750D01*
X16901750Y-6794750D02*
X16791750Y-6904750D01*
X16846750Y-6794750D02*
X16846750Y-6904750D01*
X16791750Y-6849750D02*
X16901750Y-6849750D01*
X16791750Y-7068750D02*
X16901750Y-7178750D01*
X16901750Y-7068750D02*
X16791750Y-7178750D01*
X16846750Y-7068750D02*
X16846750Y-7178750D01*
X16791750Y-7123750D02*
X16901750Y-7123750D01*
X16791750Y-7342750D02*
X16901750Y-7452750D01*
X16901750Y-7342750D02*
X16791750Y-7452750D01*
X16846750Y-7342750D02*
X16846750Y-7452750D01*
X16791750Y-7397750D02*
X16901750Y-7397750D01*
X16791750Y-7616750D02*
X16901750Y-7726750D01*
X16901750Y-7616750D02*
X16791750Y-7726750D01*
X16846750Y-7616750D02*
X16846750Y-7726750D01*
X16791750Y-7671750D02*
X16901750Y-7671750D01*
X16791750Y-7890750D02*
X16901750Y-8000750D01*
X16901750Y-7890750D02*
X16791750Y-8000750D01*
X16846750Y-7890750D02*
X16846750Y-8000750D01*
X16791750Y-7945750D02*
X16901750Y-7945750D01*
X17075750Y-6931750D02*
X17185750Y-7041750D01*
X17185750Y-6931750D02*
X17075750Y-7041750D01*
X17130750Y-6931750D02*
X17130750Y-7041750D01*
X17075750Y-6986750D02*
X17185750Y-6986750D01*
X17075750Y-7205750D02*
X17185750Y-7315750D01*
X17185750Y-7205750D02*
X17075750Y-7315750D01*
X17130750Y-7205750D02*
X17130750Y-7315750D01*
X17075750Y-7260750D02*
X17185750Y-7260750D01*
X17075750Y-7479750D02*
X17185750Y-7589750D01*
X17185750Y-7479750D02*
X17075750Y-7589750D01*
X17130750Y-7479750D02*
X17130750Y-7589750D01*
X17075750Y-7534750D02*
X17185750Y-7534750D01*
X17075750Y-7753750D02*
X17185750Y-7863750D01*
X17185750Y-7753750D02*
X17075750Y-7863750D01*
X17130750Y-7753750D02*
X17130750Y-7863750D01*
X17075750Y-7808750D02*
X17185750Y-7808750D01*
X4071500Y-4682500D02*
X4231500Y-4842500D01*
X4231500Y-4682500D02*
X4071500Y-4842500D01*
X4208069Y-4819069D02*
X4208069Y-4705931D01*
X4094931Y-4705931D01*
X4094931Y-4819069D01*
X4208069Y-4819069D01*
X4571500Y-4682500D02*
X4731500Y-4842500D01*
X4731500Y-4682500D02*
X4571500Y-4842500D01*
X4708069Y-4819069D02*
X4708069Y-4705931D01*
X4594931Y-4705931D01*
X4594931Y-4819069D01*
X4708069Y-4819069D01*
X5071500Y-4682500D02*
X5231500Y-4842500D01*
X5231500Y-4682500D02*
X5071500Y-4842500D01*
X5208069Y-4819069D02*
X5208069Y-4705931D01*
X5094931Y-4705931D01*
X5094931Y-4819069D01*
X5208069Y-4819069D01*
X5571500Y-4682500D02*
X5731500Y-4842500D01*
X5731500Y-4682500D02*
X5571500Y-4842500D01*
X5708069Y-4819069D02*
X5708069Y-4705931D01*
X5594931Y-4705931D01*
X5594931Y-4819069D01*
X5708069Y-4819069D01*
X9391400Y-5077400D02*
X9551400Y-5237400D01*
X9551400Y-5077400D02*
X9391400Y-5237400D01*
X9527969Y-5213969D02*
X9527969Y-5100831D01*
X9414831Y-5100831D01*
X9414831Y-5213969D01*
X9527969Y-5213969D01*
X10946400Y-5077400D02*
X11106400Y-5237400D01*
X11106400Y-5077400D02*
X10946400Y-5237400D01*
X11082969Y-5213969D02*
X11082969Y-5100831D01*
X10969831Y-5100831D01*
X10969831Y-5213969D01*
X11082969Y-5213969D01*
X16828750Y-5988250D02*
X17148750Y-6308250D01*
X17148750Y-5988250D02*
X16828750Y-6308250D01*
X16988750Y-6308250D02*
X17148750Y-6148250D01*
X16988750Y-5988250D01*
X16828750Y-6148250D01*
X16988750Y-6308250D01*
X16828750Y-8487250D02*
X17148750Y-8807250D01*
X17148750Y-8487250D02*
X16828750Y-8807250D01*
X16988750Y-8807250D02*
X17148750Y-8647250D01*
X16988750Y-8487250D01*
X16828750Y-8647250D01*
X16988750Y-8807250D01*
D12*
X2025178Y-11534914D02*
X2025178Y-11234914D01*
X2096607Y-11234914D01*
X2139464Y-11249200D01*
X2168036Y-11277771D01*
X2182321Y-11306343D01*
X2196607Y-11363486D01*
X2196607Y-11406343D01*
X2182321Y-11463486D01*
X2168036Y-11492057D01*
X2139464Y-11520629D01*
X2096607Y-11534914D01*
X2025178Y-11534914D01*
X2325178Y-11534914D02*
X2325178Y-11334914D01*
X2325178Y-11392057D02*
X2339464Y-11363486D01*
X2353750Y-11349200D01*
X2382321Y-11334914D01*
X2410893Y-11334914D01*
X2510893Y-11534914D02*
X2510893Y-11334914D01*
X2510893Y-11234914D02*
X2496607Y-11249200D01*
X2510893Y-11263486D01*
X2525178Y-11249200D01*
X2510893Y-11234914D01*
X2510893Y-11263486D01*
X2696607Y-11534914D02*
X2668036Y-11520629D01*
X2653750Y-11492057D01*
X2653750Y-11234914D01*
X2853750Y-11534914D02*
X2825178Y-11520629D01*
X2810893Y-11492057D01*
X2810893Y-11234914D01*
X3196607Y-11534914D02*
X3196607Y-11234914D01*
X3296607Y-11449200D01*
X3396607Y-11234914D01*
X3396607Y-11534914D01*
X3668036Y-11534914D02*
X3668036Y-11377771D01*
X3653750Y-11349200D01*
X3625178Y-11334914D01*
X3568036Y-11334914D01*
X3539464Y-11349200D01*
X3668036Y-11520629D02*
X3639464Y-11534914D01*
X3568036Y-11534914D01*
X3539464Y-11520629D01*
X3525178Y-11492057D01*
X3525178Y-11463486D01*
X3539464Y-11434914D01*
X3568036Y-11420629D01*
X3639464Y-11420629D01*
X3668036Y-11406343D01*
X3810893Y-11334914D02*
X3810893Y-11634914D01*
X3810893Y-11349200D02*
X3839464Y-11334914D01*
X3896607Y-11334914D01*
X3925178Y-11349200D01*
X3939464Y-11363486D01*
X3953750Y-11392057D01*
X3953750Y-11477771D01*
X3939464Y-11506343D01*
X3925178Y-11520629D01*
X3896607Y-11534914D01*
X3839464Y-11534914D01*
X3810893Y-11520629D01*
X4082321Y-11506343D02*
X4096607Y-11520629D01*
X4082321Y-11534914D01*
X4068036Y-11520629D01*
X4082321Y-11506343D01*
X4082321Y-11534914D01*
X4082321Y-11349200D02*
X4096607Y-11363486D01*
X4082321Y-11377771D01*
X4068036Y-11363486D01*
X4082321Y-11349200D01*
X4082321Y-11377771D01*
X1698750Y-12009200D02*
X1738750Y-12049200D01*
X1738750Y-12009200D02*
X1698750Y-12049200D01*
X2082321Y-11864914D02*
X2110893Y-11864914D01*
X2139464Y-11879200D01*
X2153750Y-11893486D01*
X2168036Y-11922057D01*
X2182321Y-11979200D01*
X2182321Y-12050629D01*
X2168036Y-12107771D01*
X2153750Y-12136343D01*
X2139464Y-12150629D01*
X2110893Y-12164914D01*
X2082321Y-12164914D01*
X2053750Y-12150629D01*
X2039464Y-12136343D01*
X2025178Y-12107771D01*
X2010893Y-12050629D01*
X2010893Y-11979200D01*
X2025178Y-11922057D01*
X2039464Y-11893486D01*
X2053750Y-11879200D01*
X2082321Y-11864914D01*
X2310893Y-12136343D02*
X2325178Y-12150629D01*
X2310893Y-12164914D01*
X2296607Y-12150629D01*
X2310893Y-12136343D01*
X2310893Y-12164914D01*
X2582321Y-11964914D02*
X2582321Y-12164914D01*
X2510893Y-11850629D02*
X2439464Y-12064914D01*
X2625178Y-12064914D01*
X2796607Y-11864914D02*
X2825178Y-11864914D01*
X2853750Y-11879200D01*
X2868036Y-11893486D01*
X2882321Y-11922057D01*
X2896607Y-11979200D01*
X2896607Y-12050629D01*
X2882321Y-12107771D01*
X2868036Y-12136343D01*
X2853750Y-12150629D01*
X2825178Y-12164914D01*
X2796607Y-12164914D01*
X2768036Y-12150629D01*
X2753750Y-12136343D01*
X2739464Y-12107771D01*
X2725178Y-12050629D01*
X2725178Y-11979200D01*
X2739464Y-11922057D01*
X2753750Y-11893486D01*
X2768036Y-11879200D01*
X2796607Y-11864914D01*
X3025178Y-12164914D02*
X3025178Y-11964914D01*
X3025178Y-11993486D02*
X3039464Y-11979200D01*
X3068036Y-11964914D01*
X3110893Y-11964914D01*
X3139464Y-11979200D01*
X3153750Y-12007771D01*
X3153750Y-12164914D01*
X3153750Y-12007771D02*
X3168036Y-11979200D01*
X3196607Y-11964914D01*
X3239464Y-11964914D01*
X3268036Y-11979200D01*
X3282321Y-12007771D01*
X3282321Y-12164914D01*
X3425178Y-12164914D02*
X3425178Y-11964914D01*
X3425178Y-11993486D02*
X3439464Y-11979200D01*
X3468036Y-11964914D01*
X3510893Y-11964914D01*
X3539464Y-11979200D01*
X3553750Y-12007771D01*
X3553750Y-12164914D01*
X3553750Y-12007771D02*
X3568036Y-11979200D01*
X3596607Y-11964914D01*
X3639464Y-11964914D01*
X3668036Y-11979200D01*
X3682321Y-12007771D01*
X3682321Y-12164914D01*
X4268036Y-11850629D02*
X4010893Y-12236343D01*
X4653750Y-11864914D02*
X4682321Y-11864914D01*
X4710893Y-11879200D01*
X4725178Y-11893486D01*
X4739464Y-11922057D01*
X4753750Y-11979200D01*
X4753750Y-12050629D01*
X4739464Y-12107771D01*
X4725178Y-12136343D01*
X4710893Y-12150629D01*
X4682321Y-12164914D01*
X4653750Y-12164914D01*
X4625178Y-12150629D01*
X4610893Y-12136343D01*
X4596607Y-12107771D01*
X4582321Y-12050629D01*
X4582321Y-11979200D01*
X4596607Y-11922057D01*
X4610893Y-11893486D01*
X4625178Y-11879200D01*
X4653750Y-11864914D01*
X4882321Y-12136343D02*
X4896607Y-12150629D01*
X4882321Y-12164914D01*
X4868036Y-12150629D01*
X4882321Y-12136343D01*
X4882321Y-12164914D01*
X5082321Y-11864914D02*
X5110893Y-11864914D01*
X5139464Y-11879200D01*
X5153750Y-11893486D01*
X5168036Y-11922057D01*
X5182321Y-11979200D01*
X5182321Y-12050629D01*
X5168036Y-12107771D01*
X5153750Y-12136343D01*
X5139464Y-12150629D01*
X5110893Y-12164914D01*
X5082321Y-12164914D01*
X5053750Y-12150629D01*
X5039464Y-12136343D01*
X5025178Y-12107771D01*
X5010893Y-12050629D01*
X5010893Y-11979200D01*
X5025178Y-11922057D01*
X5039464Y-11893486D01*
X5053750Y-11879200D01*
X5082321Y-11864914D01*
X5468036Y-12164914D02*
X5296607Y-12164914D01*
X5382321Y-12164914D02*
X5382321Y-11864914D01*
X5353750Y-11907771D01*
X5325178Y-11936343D01*
X5296607Y-11950629D01*
X5725178Y-11864914D02*
X5668036Y-11864914D01*
X5639464Y-11879200D01*
X5625178Y-11893486D01*
X5596607Y-11936343D01*
X5582321Y-11993486D01*
X5582321Y-12107771D01*
X5596607Y-12136343D01*
X5610893Y-12150629D01*
X5639464Y-12164914D01*
X5696607Y-12164914D01*
X5725178Y-12150629D01*
X5739464Y-12136343D01*
X5753750Y-12107771D01*
X5753750Y-12036343D01*
X5739464Y-12007771D01*
X5725178Y-11993486D01*
X5696607Y-11979200D01*
X5639464Y-11979200D01*
X5610893Y-11993486D01*
X5596607Y-12007771D01*
X5582321Y-12036343D01*
X5868036Y-11864914D02*
X5868036Y-11922057D01*
X5982321Y-11864914D02*
X5982321Y-11922057D01*
X6425178Y-12279200D02*
X6410893Y-12264914D01*
X6382321Y-12222057D01*
X6368036Y-12193486D01*
X6353750Y-12150629D01*
X6339464Y-12079200D01*
X6339464Y-12022057D01*
X6353750Y-11950629D01*
X6368036Y-11907771D01*
X6382321Y-11879200D01*
X6410893Y-11836343D01*
X6425178Y-11822057D01*
X6510893Y-11864914D02*
X6696607Y-11864914D01*
X6596607Y-11979200D01*
X6639464Y-11979200D01*
X6668036Y-11993486D01*
X6682321Y-12007771D01*
X6696607Y-12036343D01*
X6696607Y-12107771D01*
X6682321Y-12136343D01*
X6668036Y-12150629D01*
X6639464Y-12164914D01*
X6553750Y-12164914D01*
X6525178Y-12150629D01*
X6510893Y-12136343D01*
X6810893Y-11893486D02*
X6825178Y-11879200D01*
X6853750Y-11864914D01*
X6925178Y-11864914D01*
X6953750Y-11879200D01*
X6968036Y-11893486D01*
X6982321Y-11922057D01*
X6982321Y-11950629D01*
X6968036Y-11993486D01*
X6796607Y-12164914D01*
X6982321Y-12164914D01*
X7153750Y-11993486D02*
X7125178Y-11979200D01*
X7110893Y-11964914D01*
X7096607Y-11936343D01*
X7096607Y-11922057D01*
X7110893Y-11893486D01*
X7125178Y-11879200D01*
X7153750Y-11864914D01*
X7210893Y-11864914D01*
X7239464Y-11879200D01*
X7253750Y-11893486D01*
X7268036Y-11922057D01*
X7268036Y-11936343D01*
X7253750Y-11964914D01*
X7239464Y-11979200D01*
X7210893Y-11993486D01*
X7153750Y-11993486D01*
X7125178Y-12007771D01*
X7110893Y-12022057D01*
X7096607Y-12050629D01*
X7096607Y-12107771D01*
X7110893Y-12136343D01*
X7125178Y-12150629D01*
X7153750Y-12164914D01*
X7210893Y-12164914D01*
X7239464Y-12150629D01*
X7253750Y-12136343D01*
X7268036Y-12107771D01*
X7268036Y-12050629D01*
X7253750Y-12022057D01*
X7239464Y-12007771D01*
X7210893Y-11993486D01*
X7625178Y-12164914D02*
X7625178Y-11864914D01*
X7753750Y-12164914D02*
X7753750Y-12007771D01*
X7739464Y-11979200D01*
X7710893Y-11964914D01*
X7668036Y-11964914D01*
X7639464Y-11979200D01*
X7625178Y-11993486D01*
X7939464Y-12164914D02*
X7910893Y-12150629D01*
X7896607Y-12136343D01*
X7882321Y-12107771D01*
X7882321Y-12022057D01*
X7896607Y-11993486D01*
X7910893Y-11979200D01*
X7939464Y-11964914D01*
X7982321Y-11964914D01*
X8010893Y-11979200D01*
X8025178Y-11993486D01*
X8039464Y-12022057D01*
X8039464Y-12107771D01*
X8025178Y-12136343D01*
X8010893Y-12150629D01*
X7982321Y-12164914D01*
X7939464Y-12164914D01*
X8210893Y-12164914D02*
X8182321Y-12150629D01*
X8168036Y-12122057D01*
X8168036Y-11864914D01*
X8439464Y-12150629D02*
X8410893Y-12164914D01*
X8353750Y-12164914D01*
X8325178Y-12150629D01*
X8310893Y-12122057D01*
X8310893Y-12007771D01*
X8325178Y-11979200D01*
X8353750Y-11964914D01*
X8410893Y-11964914D01*
X8439464Y-11979200D01*
X8453750Y-12007771D01*
X8453750Y-12036343D01*
X8310893Y-12064914D01*
X8568036Y-12150629D02*
X8596607Y-12164914D01*
X8653750Y-12164914D01*
X8682321Y-12150629D01*
X8696607Y-12122057D01*
X8696607Y-12107771D01*
X8682321Y-12079200D01*
X8653750Y-12064914D01*
X8610893Y-12064914D01*
X8582321Y-12050629D01*
X8568036Y-12022057D01*
X8568036Y-12007771D01*
X8582321Y-11979200D01*
X8610893Y-11964914D01*
X8653750Y-11964914D01*
X8682321Y-11979200D01*
X8796607Y-12279200D02*
X8810893Y-12264914D01*
X8839464Y-12222057D01*
X8853750Y-12193486D01*
X8868036Y-12150629D01*
X8882321Y-12079200D01*
X8882321Y-12022057D01*
X8868036Y-11950629D01*
X8853750Y-11907771D01*
X8839464Y-11879200D01*
X8810893Y-11836343D01*
X8796607Y-11822057D01*
X1738750Y-12425200D02*
G75*
G03X1738750Y-12425200I-30000J0D01*
G01*
X2082321Y-12260914D02*
X2110893Y-12260914D01*
X2139464Y-12275200D01*
X2153750Y-12289486D01*
X2168036Y-12318057D01*
X2182321Y-12375200D01*
X2182321Y-12446629D01*
X2168036Y-12503771D01*
X2153750Y-12532343D01*
X2139464Y-12546629D01*
X2110893Y-12560914D01*
X2082321Y-12560914D01*
X2053750Y-12546629D01*
X2039464Y-12532343D01*
X2025178Y-12503771D01*
X2010893Y-12446629D01*
X2010893Y-12375200D01*
X2025178Y-12318057D01*
X2039464Y-12289486D01*
X2053750Y-12275200D01*
X2082321Y-12260914D01*
X2310893Y-12532343D02*
X2325178Y-12546629D01*
X2310893Y-12560914D01*
X2296607Y-12546629D01*
X2310893Y-12532343D01*
X2310893Y-12560914D01*
X2582321Y-12260914D02*
X2525178Y-12260914D01*
X2496607Y-12275200D01*
X2482321Y-12289486D01*
X2453750Y-12332343D01*
X2439464Y-12389486D01*
X2439464Y-12503771D01*
X2453750Y-12532343D01*
X2468036Y-12546629D01*
X2496607Y-12560914D01*
X2553750Y-12560914D01*
X2582321Y-12546629D01*
X2596607Y-12532343D01*
X2610893Y-12503771D01*
X2610893Y-12432343D01*
X2596607Y-12403771D01*
X2582321Y-12389486D01*
X2553750Y-12375200D01*
X2496607Y-12375200D01*
X2468036Y-12389486D01*
X2453750Y-12403771D01*
X2439464Y-12432343D01*
X2796607Y-12260914D02*
X2825178Y-12260914D01*
X2853750Y-12275200D01*
X2868036Y-12289486D01*
X2882321Y-12318057D01*
X2896607Y-12375200D01*
X2896607Y-12446629D01*
X2882321Y-12503771D01*
X2868036Y-12532343D01*
X2853750Y-12546629D01*
X2825178Y-12560914D01*
X2796607Y-12560914D01*
X2768036Y-12546629D01*
X2753750Y-12532343D01*
X2739464Y-12503771D01*
X2725178Y-12446629D01*
X2725178Y-12375200D01*
X2739464Y-12318057D01*
X2753750Y-12289486D01*
X2768036Y-12275200D01*
X2796607Y-12260914D01*
X3025178Y-12560914D02*
X3025178Y-12360914D01*
X3025178Y-12389486D02*
X3039464Y-12375200D01*
X3068036Y-12360914D01*
X3110893Y-12360914D01*
X3139464Y-12375200D01*
X3153750Y-12403771D01*
X3153750Y-12560914D01*
X3153750Y-12403771D02*
X3168036Y-12375200D01*
X3196607Y-12360914D01*
X3239464Y-12360914D01*
X3268036Y-12375200D01*
X3282321Y-12403771D01*
X3282321Y-12560914D01*
X3425178Y-12560914D02*
X3425178Y-12360914D01*
X3425178Y-12389486D02*
X3439464Y-12375200D01*
X3468036Y-12360914D01*
X3510893Y-12360914D01*
X3539464Y-12375200D01*
X3553750Y-12403771D01*
X3553750Y-12560914D01*
X3553750Y-12403771D02*
X3568036Y-12375200D01*
X3596607Y-12360914D01*
X3639464Y-12360914D01*
X3668036Y-12375200D01*
X3682321Y-12403771D01*
X3682321Y-12560914D01*
X4268036Y-12246629D02*
X4010893Y-12632343D01*
X4653750Y-12260914D02*
X4682321Y-12260914D01*
X4710893Y-12275200D01*
X4725178Y-12289486D01*
X4739464Y-12318057D01*
X4753750Y-12375200D01*
X4753750Y-12446629D01*
X4739464Y-12503771D01*
X4725178Y-12532343D01*
X4710893Y-12546629D01*
X4682321Y-12560914D01*
X4653750Y-12560914D01*
X4625178Y-12546629D01*
X4610893Y-12532343D01*
X4596607Y-12503771D01*
X4582321Y-12446629D01*
X4582321Y-12375200D01*
X4596607Y-12318057D01*
X4610893Y-12289486D01*
X4625178Y-12275200D01*
X4653750Y-12260914D01*
X4882321Y-12532343D02*
X4896607Y-12546629D01*
X4882321Y-12560914D01*
X4868036Y-12546629D01*
X4882321Y-12532343D01*
X4882321Y-12560914D01*
X5082321Y-12260914D02*
X5110893Y-12260914D01*
X5139464Y-12275200D01*
X5153750Y-12289486D01*
X5168036Y-12318057D01*
X5182321Y-12375200D01*
X5182321Y-12446629D01*
X5168036Y-12503771D01*
X5153750Y-12532343D01*
X5139464Y-12546629D01*
X5110893Y-12560914D01*
X5082321Y-12560914D01*
X5053750Y-12546629D01*
X5039464Y-12532343D01*
X5025178Y-12503771D01*
X5010893Y-12446629D01*
X5010893Y-12375200D01*
X5025178Y-12318057D01*
X5039464Y-12289486D01*
X5053750Y-12275200D01*
X5082321Y-12260914D01*
X5296607Y-12289486D02*
X5310893Y-12275200D01*
X5339464Y-12260914D01*
X5410893Y-12260914D01*
X5439464Y-12275200D01*
X5453750Y-12289486D01*
X5468036Y-12318057D01*
X5468036Y-12346629D01*
X5453750Y-12389486D01*
X5282321Y-12560914D01*
X5468036Y-12560914D01*
X5725178Y-12360914D02*
X5725178Y-12560914D01*
X5653750Y-12246629D02*
X5582321Y-12460914D01*
X5768036Y-12460914D01*
X5868036Y-12260914D02*
X5868036Y-12318057D01*
X5982321Y-12260914D02*
X5982321Y-12318057D01*
X6425178Y-12675200D02*
X6410893Y-12660914D01*
X6382321Y-12618057D01*
X6368036Y-12589486D01*
X6353750Y-12546629D01*
X6339464Y-12475200D01*
X6339464Y-12418057D01*
X6353750Y-12346629D01*
X6368036Y-12303771D01*
X6382321Y-12275200D01*
X6410893Y-12232343D01*
X6425178Y-12218057D01*
X6596607Y-12260914D02*
X6625178Y-12260914D01*
X6653750Y-12275200D01*
X6668036Y-12289486D01*
X6682321Y-12318057D01*
X6696607Y-12375200D01*
X6696607Y-12446629D01*
X6682321Y-12503771D01*
X6668036Y-12532343D01*
X6653750Y-12546629D01*
X6625178Y-12560914D01*
X6596607Y-12560914D01*
X6568036Y-12546629D01*
X6553750Y-12532343D01*
X6539464Y-12503771D01*
X6525178Y-12446629D01*
X6525178Y-12375200D01*
X6539464Y-12318057D01*
X6553750Y-12289486D01*
X6568036Y-12275200D01*
X6596607Y-12260914D01*
X7053750Y-12560914D02*
X7053750Y-12260914D01*
X7182321Y-12560914D02*
X7182321Y-12403771D01*
X7168036Y-12375200D01*
X7139464Y-12360914D01*
X7096607Y-12360914D01*
X7068036Y-12375200D01*
X7053750Y-12389486D01*
X7368036Y-12560914D02*
X7339464Y-12546629D01*
X7325178Y-12532343D01*
X7310893Y-12503771D01*
X7310893Y-12418057D01*
X7325178Y-12389486D01*
X7339464Y-12375200D01*
X7368036Y-12360914D01*
X7410893Y-12360914D01*
X7439464Y-12375200D01*
X7453750Y-12389486D01*
X7468036Y-12418057D01*
X7468036Y-12503771D01*
X7453750Y-12532343D01*
X7439464Y-12546629D01*
X7410893Y-12560914D01*
X7368036Y-12560914D01*
X7639464Y-12560914D02*
X7610893Y-12546629D01*
X7596607Y-12518057D01*
X7596607Y-12260914D01*
X7868036Y-12546629D02*
X7839464Y-12560914D01*
X7782321Y-12560914D01*
X7753750Y-12546629D01*
X7739464Y-12518057D01*
X7739464Y-12403771D01*
X7753750Y-12375200D01*
X7782321Y-12360914D01*
X7839464Y-12360914D01*
X7868036Y-12375200D01*
X7882321Y-12403771D01*
X7882321Y-12432343D01*
X7739464Y-12460914D01*
X7996607Y-12546629D02*
X8025178Y-12560914D01*
X8082321Y-12560914D01*
X8110893Y-12546629D01*
X8125178Y-12518057D01*
X8125178Y-12503771D01*
X8110893Y-12475200D01*
X8082321Y-12460914D01*
X8039464Y-12460914D01*
X8010893Y-12446629D01*
X7996607Y-12418057D01*
X7996607Y-12403771D01*
X8010893Y-12375200D01*
X8039464Y-12360914D01*
X8082321Y-12360914D01*
X8110893Y-12375200D01*
X8482321Y-12446629D02*
X8710893Y-12446629D01*
X8596607Y-12560914D02*
X8596607Y-12332343D01*
X9068036Y-12289486D02*
X9082321Y-12275200D01*
X9110893Y-12260914D01*
X9182321Y-12260914D01*
X9210893Y-12275200D01*
X9225178Y-12289486D01*
X9239464Y-12318057D01*
X9239464Y-12346629D01*
X9225178Y-12389486D01*
X9053750Y-12560914D01*
X9239464Y-12560914D01*
X9582321Y-12546629D02*
X9610893Y-12560914D01*
X9668036Y-12560914D01*
X9696607Y-12546629D01*
X9710893Y-12518057D01*
X9710893Y-12503771D01*
X9696607Y-12475200D01*
X9668036Y-12460914D01*
X9625178Y-12460914D01*
X9596607Y-12446629D01*
X9582321Y-12418057D01*
X9582321Y-12403771D01*
X9596607Y-12375200D01*
X9625178Y-12360914D01*
X9668036Y-12360914D01*
X9696607Y-12375200D01*
X9882321Y-12560914D02*
X9853750Y-12546629D01*
X9839464Y-12518057D01*
X9839464Y-12260914D01*
X10039464Y-12560914D02*
X10010893Y-12546629D01*
X9996607Y-12532343D01*
X9982321Y-12503771D01*
X9982321Y-12418057D01*
X9996607Y-12389486D01*
X10010893Y-12375200D01*
X10039464Y-12360914D01*
X10082321Y-12360914D01*
X10110893Y-12375200D01*
X10125178Y-12389486D01*
X10139464Y-12418057D01*
X10139464Y-12503771D01*
X10125178Y-12532343D01*
X10110893Y-12546629D01*
X10082321Y-12560914D01*
X10039464Y-12560914D01*
X10225178Y-12360914D02*
X10339464Y-12360914D01*
X10268036Y-12260914D02*
X10268036Y-12518057D01*
X10282321Y-12546629D01*
X10310893Y-12560914D01*
X10339464Y-12560914D01*
X10425178Y-12546629D02*
X10453750Y-12560914D01*
X10510893Y-12560914D01*
X10539464Y-12546629D01*
X10553750Y-12518057D01*
X10553750Y-12503771D01*
X10539464Y-12475200D01*
X10510893Y-12460914D01*
X10468036Y-12460914D01*
X10439464Y-12446629D01*
X10425178Y-12418057D01*
X10425178Y-12403771D01*
X10439464Y-12375200D01*
X10468036Y-12360914D01*
X10510893Y-12360914D01*
X10539464Y-12375200D01*
X10653750Y-12675200D02*
X10668036Y-12660914D01*
X10696607Y-12618057D01*
X10710893Y-12589486D01*
X10725178Y-12546629D01*
X10739464Y-12475200D01*
X10739464Y-12418057D01*
X10725178Y-12346629D01*
X10710893Y-12303771D01*
X10696607Y-12275200D01*
X10668036Y-12232343D01*
X10653750Y-12218057D01*
X1696250Y-12778700D02*
X1696250Y-12863700D01*
X1653750Y-12821200D02*
X1738750Y-12821200D01*
X2082321Y-12656914D02*
X2110893Y-12656914D01*
X2139464Y-12671200D01*
X2153750Y-12685486D01*
X2168036Y-12714057D01*
X2182321Y-12771200D01*
X2182321Y-12842629D01*
X2168036Y-12899771D01*
X2153750Y-12928343D01*
X2139464Y-12942629D01*
X2110893Y-12956914D01*
X2082321Y-12956914D01*
X2053750Y-12942629D01*
X2039464Y-12928343D01*
X2025178Y-12899771D01*
X2010893Y-12842629D01*
X2010893Y-12771200D01*
X2025178Y-12714057D01*
X2039464Y-12685486D01*
X2053750Y-12671200D01*
X2082321Y-12656914D01*
X2310893Y-12928343D02*
X2325178Y-12942629D01*
X2310893Y-12956914D01*
X2296607Y-12942629D01*
X2310893Y-12928343D01*
X2310893Y-12956914D01*
X2496607Y-12785486D02*
X2468036Y-12771200D01*
X2453750Y-12756914D01*
X2439464Y-12728343D01*
X2439464Y-12714057D01*
X2453750Y-12685486D01*
X2468036Y-12671200D01*
X2496607Y-12656914D01*
X2553750Y-12656914D01*
X2582321Y-12671200D01*
X2596607Y-12685486D01*
X2610893Y-12714057D01*
X2610893Y-12728343D01*
X2596607Y-12756914D01*
X2582321Y-12771200D01*
X2553750Y-12785486D01*
X2496607Y-12785486D01*
X2468036Y-12799771D01*
X2453750Y-12814057D01*
X2439464Y-12842629D01*
X2439464Y-12899771D01*
X2453750Y-12928343D01*
X2468036Y-12942629D01*
X2496607Y-12956914D01*
X2553750Y-12956914D01*
X2582321Y-12942629D01*
X2596607Y-12928343D01*
X2610893Y-12899771D01*
X2610893Y-12842629D01*
X2596607Y-12814057D01*
X2582321Y-12799771D01*
X2553750Y-12785486D01*
X2882321Y-12656914D02*
X2739464Y-12656914D01*
X2725178Y-12799771D01*
X2739464Y-12785486D01*
X2768036Y-12771200D01*
X2839464Y-12771200D01*
X2868036Y-12785486D01*
X2882321Y-12799771D01*
X2896607Y-12828343D01*
X2896607Y-12899771D01*
X2882321Y-12928343D01*
X2868036Y-12942629D01*
X2839464Y-12956914D01*
X2768036Y-12956914D01*
X2739464Y-12942629D01*
X2725178Y-12928343D01*
X3025178Y-12956914D02*
X3025178Y-12756914D01*
X3025178Y-12785486D02*
X3039464Y-12771200D01*
X3068036Y-12756914D01*
X3110893Y-12756914D01*
X3139464Y-12771200D01*
X3153750Y-12799771D01*
X3153750Y-12956914D01*
X3153750Y-12799771D02*
X3168036Y-12771200D01*
X3196607Y-12756914D01*
X3239464Y-12756914D01*
X3268036Y-12771200D01*
X3282321Y-12799771D01*
X3282321Y-12956914D01*
X3425178Y-12956914D02*
X3425178Y-12756914D01*
X3425178Y-12785486D02*
X3439464Y-12771200D01*
X3468036Y-12756914D01*
X3510893Y-12756914D01*
X3539464Y-12771200D01*
X3553750Y-12799771D01*
X3553750Y-12956914D01*
X3553750Y-12799771D02*
X3568036Y-12771200D01*
X3596607Y-12756914D01*
X3639464Y-12756914D01*
X3668036Y-12771200D01*
X3682321Y-12799771D01*
X3682321Y-12956914D01*
X4268036Y-12642629D02*
X4010893Y-13028343D01*
X4653750Y-12656914D02*
X4682321Y-12656914D01*
X4710893Y-12671200D01*
X4725178Y-12685486D01*
X4739464Y-12714057D01*
X4753750Y-12771200D01*
X4753750Y-12842629D01*
X4739464Y-12899771D01*
X4725178Y-12928343D01*
X4710893Y-12942629D01*
X4682321Y-12956914D01*
X4653750Y-12956914D01*
X4625178Y-12942629D01*
X4610893Y-12928343D01*
X4596607Y-12899771D01*
X4582321Y-12842629D01*
X4582321Y-12771200D01*
X4596607Y-12714057D01*
X4610893Y-12685486D01*
X4625178Y-12671200D01*
X4653750Y-12656914D01*
X4882321Y-12928343D02*
X4896607Y-12942629D01*
X4882321Y-12956914D01*
X4868036Y-12942629D01*
X4882321Y-12928343D01*
X4882321Y-12956914D01*
X5082321Y-12656914D02*
X5110893Y-12656914D01*
X5139464Y-12671200D01*
X5153750Y-12685486D01*
X5168036Y-12714057D01*
X5182321Y-12771200D01*
X5182321Y-12842629D01*
X5168036Y-12899771D01*
X5153750Y-12928343D01*
X5139464Y-12942629D01*
X5110893Y-12956914D01*
X5082321Y-12956914D01*
X5053750Y-12942629D01*
X5039464Y-12928343D01*
X5025178Y-12899771D01*
X5010893Y-12842629D01*
X5010893Y-12771200D01*
X5025178Y-12714057D01*
X5039464Y-12685486D01*
X5053750Y-12671200D01*
X5082321Y-12656914D01*
X5282321Y-12656914D02*
X5468036Y-12656914D01*
X5368036Y-12771200D01*
X5410893Y-12771200D01*
X5439464Y-12785486D01*
X5453750Y-12799771D01*
X5468036Y-12828343D01*
X5468036Y-12899771D01*
X5453750Y-12928343D01*
X5439464Y-12942629D01*
X5410893Y-12956914D01*
X5325178Y-12956914D01*
X5296607Y-12942629D01*
X5282321Y-12928343D01*
X5568036Y-12656914D02*
X5753750Y-12656914D01*
X5653750Y-12771200D01*
X5696607Y-12771200D01*
X5725178Y-12785486D01*
X5739464Y-12799771D01*
X5753750Y-12828343D01*
X5753750Y-12899771D01*
X5739464Y-12928343D01*
X5725178Y-12942629D01*
X5696607Y-12956914D01*
X5610893Y-12956914D01*
X5582321Y-12942629D01*
X5568036Y-12928343D01*
X5868036Y-12656914D02*
X5868036Y-12714057D01*
X5982321Y-12656914D02*
X5982321Y-12714057D01*
X6425178Y-13071200D02*
X6410893Y-13056914D01*
X6382321Y-13014057D01*
X6368036Y-12985486D01*
X6353750Y-12942629D01*
X6339464Y-12871200D01*
X6339464Y-12814057D01*
X6353750Y-12742629D01*
X6368036Y-12699771D01*
X6382321Y-12671200D01*
X6410893Y-12628343D01*
X6425178Y-12614057D01*
X6525178Y-12685486D02*
X6539464Y-12671200D01*
X6568036Y-12656914D01*
X6639464Y-12656914D01*
X6668036Y-12671200D01*
X6682321Y-12685486D01*
X6696607Y-12714057D01*
X6696607Y-12742629D01*
X6682321Y-12785486D01*
X6510893Y-12956914D01*
X6696607Y-12956914D01*
X7053750Y-12956914D02*
X7053750Y-12656914D01*
X7182321Y-12956914D02*
X7182321Y-12799771D01*
X7168036Y-12771200D01*
X7139464Y-12756914D01*
X7096607Y-12756914D01*
X7068036Y-12771200D01*
X7053750Y-12785486D01*
X7368036Y-12956914D02*
X7339464Y-12942629D01*
X7325178Y-12928343D01*
X7310893Y-12899771D01*
X7310893Y-12814057D01*
X7325178Y-12785486D01*
X7339464Y-12771200D01*
X7368036Y-12756914D01*
X7410893Y-12756914D01*
X7439464Y-12771200D01*
X7453750Y-12785486D01*
X7468036Y-12814057D01*
X7468036Y-12899771D01*
X7453750Y-12928343D01*
X7439464Y-12942629D01*
X7410893Y-12956914D01*
X7368036Y-12956914D01*
X7639464Y-12956914D02*
X7610893Y-12942629D01*
X7596607Y-12914057D01*
X7596607Y-12656914D01*
X7868036Y-12942629D02*
X7839464Y-12956914D01*
X7782321Y-12956914D01*
X7753750Y-12942629D01*
X7739464Y-12914057D01*
X7739464Y-12799771D01*
X7753750Y-12771200D01*
X7782321Y-12756914D01*
X7839464Y-12756914D01*
X7868036Y-12771200D01*
X7882321Y-12799771D01*
X7882321Y-12828343D01*
X7739464Y-12856914D01*
X7996607Y-12942629D02*
X8025178Y-12956914D01*
X8082321Y-12956914D01*
X8110893Y-12942629D01*
X8125178Y-12914057D01*
X8125178Y-12899771D01*
X8110893Y-12871200D01*
X8082321Y-12856914D01*
X8039464Y-12856914D01*
X8010893Y-12842629D01*
X7996607Y-12814057D01*
X7996607Y-12799771D01*
X8010893Y-12771200D01*
X8039464Y-12756914D01*
X8082321Y-12756914D01*
X8110893Y-12771200D01*
X8225178Y-13071200D02*
X8239464Y-13056914D01*
X8268036Y-13014057D01*
X8282321Y-12985486D01*
X8296607Y-12942629D01*
X8310893Y-12871200D01*
X8310893Y-12814057D01*
X8296607Y-12742629D01*
X8282321Y-12699771D01*
X8268036Y-12671200D01*
X8239464Y-12628343D01*
X8225178Y-12614057D01*
X1725716Y-13248667D02*
X1725716Y-13185733D01*
X1662783Y-13185733D01*
X1662783Y-13248667D01*
X1725716Y-13248667D01*
X2082321Y-13052914D02*
X2110893Y-13052914D01*
X2139464Y-13067200D01*
X2153750Y-13081486D01*
X2168036Y-13110057D01*
X2182321Y-13167200D01*
X2182321Y-13238629D01*
X2168036Y-13295771D01*
X2153750Y-13324343D01*
X2139464Y-13338629D01*
X2110893Y-13352914D01*
X2082321Y-13352914D01*
X2053750Y-13338629D01*
X2039464Y-13324343D01*
X2025178Y-13295771D01*
X2010893Y-13238629D01*
X2010893Y-13167200D01*
X2025178Y-13110057D01*
X2039464Y-13081486D01*
X2053750Y-13067200D01*
X2082321Y-13052914D01*
X2310893Y-13324343D02*
X2325178Y-13338629D01*
X2310893Y-13352914D01*
X2296607Y-13338629D01*
X2310893Y-13324343D01*
X2310893Y-13352914D01*
X2496607Y-13181486D02*
X2468036Y-13167200D01*
X2453750Y-13152914D01*
X2439464Y-13124343D01*
X2439464Y-13110057D01*
X2453750Y-13081486D01*
X2468036Y-13067200D01*
X2496607Y-13052914D01*
X2553750Y-13052914D01*
X2582321Y-13067200D01*
X2596607Y-13081486D01*
X2610893Y-13110057D01*
X2610893Y-13124343D01*
X2596607Y-13152914D01*
X2582321Y-13167200D01*
X2553750Y-13181486D01*
X2496607Y-13181486D01*
X2468036Y-13195771D01*
X2453750Y-13210057D01*
X2439464Y-13238629D01*
X2439464Y-13295771D01*
X2453750Y-13324343D01*
X2468036Y-13338629D01*
X2496607Y-13352914D01*
X2553750Y-13352914D01*
X2582321Y-13338629D01*
X2596607Y-13324343D01*
X2610893Y-13295771D01*
X2610893Y-13238629D01*
X2596607Y-13210057D01*
X2582321Y-13195771D01*
X2553750Y-13181486D01*
X2753750Y-13352914D02*
X2810893Y-13352914D01*
X2839464Y-13338629D01*
X2853750Y-13324343D01*
X2882321Y-13281486D01*
X2896607Y-13224343D01*
X2896607Y-13110057D01*
X2882321Y-13081486D01*
X2868036Y-13067200D01*
X2839464Y-13052914D01*
X2782321Y-13052914D01*
X2753750Y-13067200D01*
X2739464Y-13081486D01*
X2725178Y-13110057D01*
X2725178Y-13181486D01*
X2739464Y-13210057D01*
X2753750Y-13224343D01*
X2782321Y-13238629D01*
X2839464Y-13238629D01*
X2868036Y-13224343D01*
X2882321Y-13210057D01*
X2896607Y-13181486D01*
X3025178Y-13352914D02*
X3025178Y-13152914D01*
X3025178Y-13181486D02*
X3039464Y-13167200D01*
X3068036Y-13152914D01*
X3110893Y-13152914D01*
X3139464Y-13167200D01*
X3153750Y-13195771D01*
X3153750Y-13352914D01*
X3153750Y-13195771D02*
X3168036Y-13167200D01*
X3196607Y-13152914D01*
X3239464Y-13152914D01*
X3268036Y-13167200D01*
X3282321Y-13195771D01*
X3282321Y-13352914D01*
X3425178Y-13352914D02*
X3425178Y-13152914D01*
X3425178Y-13181486D02*
X3439464Y-13167200D01*
X3468036Y-13152914D01*
X3510893Y-13152914D01*
X3539464Y-13167200D01*
X3553750Y-13195771D01*
X3553750Y-13352914D01*
X3553750Y-13195771D02*
X3568036Y-13167200D01*
X3596607Y-13152914D01*
X3639464Y-13152914D01*
X3668036Y-13167200D01*
X3682321Y-13195771D01*
X3682321Y-13352914D01*
X4268036Y-13038629D02*
X4010893Y-13424343D01*
X4653750Y-13052914D02*
X4682321Y-13052914D01*
X4710893Y-13067200D01*
X4725178Y-13081486D01*
X4739464Y-13110057D01*
X4753750Y-13167200D01*
X4753750Y-13238629D01*
X4739464Y-13295771D01*
X4725178Y-13324343D01*
X4710893Y-13338629D01*
X4682321Y-13352914D01*
X4653750Y-13352914D01*
X4625178Y-13338629D01*
X4610893Y-13324343D01*
X4596607Y-13295771D01*
X4582321Y-13238629D01*
X4582321Y-13167200D01*
X4596607Y-13110057D01*
X4610893Y-13081486D01*
X4625178Y-13067200D01*
X4653750Y-13052914D01*
X4882321Y-13324343D02*
X4896607Y-13338629D01*
X4882321Y-13352914D01*
X4868036Y-13338629D01*
X4882321Y-13324343D01*
X4882321Y-13352914D01*
X5082321Y-13052914D02*
X5110893Y-13052914D01*
X5139464Y-13067200D01*
X5153750Y-13081486D01*
X5168036Y-13110057D01*
X5182321Y-13167200D01*
X5182321Y-13238629D01*
X5168036Y-13295771D01*
X5153750Y-13324343D01*
X5139464Y-13338629D01*
X5110893Y-13352914D01*
X5082321Y-13352914D01*
X5053750Y-13338629D01*
X5039464Y-13324343D01*
X5025178Y-13295771D01*
X5010893Y-13238629D01*
X5010893Y-13167200D01*
X5025178Y-13110057D01*
X5039464Y-13081486D01*
X5053750Y-13067200D01*
X5082321Y-13052914D01*
X5282321Y-13052914D02*
X5468036Y-13052914D01*
X5368036Y-13167200D01*
X5410893Y-13167200D01*
X5439464Y-13181486D01*
X5453750Y-13195771D01*
X5468036Y-13224343D01*
X5468036Y-13295771D01*
X5453750Y-13324343D01*
X5439464Y-13338629D01*
X5410893Y-13352914D01*
X5325178Y-13352914D01*
X5296607Y-13338629D01*
X5282321Y-13324343D01*
X5739464Y-13052914D02*
X5596607Y-13052914D01*
X5582321Y-13195771D01*
X5596607Y-13181486D01*
X5625178Y-13167200D01*
X5696607Y-13167200D01*
X5725178Y-13181486D01*
X5739464Y-13195771D01*
X5753750Y-13224343D01*
X5753750Y-13295771D01*
X5739464Y-13324343D01*
X5725178Y-13338629D01*
X5696607Y-13352914D01*
X5625178Y-13352914D01*
X5596607Y-13338629D01*
X5582321Y-13324343D01*
X5868036Y-13052914D02*
X5868036Y-13110057D01*
X5982321Y-13052914D02*
X5982321Y-13110057D01*
X6425178Y-13467200D02*
X6410893Y-13452914D01*
X6382321Y-13410057D01*
X6368036Y-13381486D01*
X6353750Y-13338629D01*
X6339464Y-13267200D01*
X6339464Y-13210057D01*
X6353750Y-13138629D01*
X6368036Y-13095771D01*
X6382321Y-13067200D01*
X6410893Y-13024343D01*
X6425178Y-13010057D01*
X6668036Y-13152914D02*
X6668036Y-13352914D01*
X6596607Y-13038629D02*
X6525178Y-13252914D01*
X6710893Y-13252914D01*
X7053750Y-13352914D02*
X7053750Y-13052914D01*
X7182321Y-13352914D02*
X7182321Y-13195771D01*
X7168036Y-13167200D01*
X7139464Y-13152914D01*
X7096607Y-13152914D01*
X7068036Y-13167200D01*
X7053750Y-13181486D01*
X7368036Y-13352914D02*
X7339464Y-13338629D01*
X7325178Y-13324343D01*
X7310893Y-13295771D01*
X7310893Y-13210057D01*
X7325178Y-13181486D01*
X7339464Y-13167200D01*
X7368036Y-13152914D01*
X7410893Y-13152914D01*
X7439464Y-13167200D01*
X7453750Y-13181486D01*
X7468036Y-13210057D01*
X7468036Y-13295771D01*
X7453750Y-13324343D01*
X7439464Y-13338629D01*
X7410893Y-13352914D01*
X7368036Y-13352914D01*
X7639464Y-13352914D02*
X7610893Y-13338629D01*
X7596607Y-13310057D01*
X7596607Y-13052914D01*
X7868036Y-13338629D02*
X7839464Y-13352914D01*
X7782321Y-13352914D01*
X7753750Y-13338629D01*
X7739464Y-13310057D01*
X7739464Y-13195771D01*
X7753750Y-13167200D01*
X7782321Y-13152914D01*
X7839464Y-13152914D01*
X7868036Y-13167200D01*
X7882321Y-13195771D01*
X7882321Y-13224343D01*
X7739464Y-13252914D01*
X7996607Y-13338629D02*
X8025178Y-13352914D01*
X8082321Y-13352914D01*
X8110893Y-13338629D01*
X8125178Y-13310057D01*
X8125178Y-13295771D01*
X8110893Y-13267200D01*
X8082321Y-13252914D01*
X8039464Y-13252914D01*
X8010893Y-13238629D01*
X7996607Y-13210057D01*
X7996607Y-13195771D01*
X8010893Y-13167200D01*
X8039464Y-13152914D01*
X8082321Y-13152914D01*
X8110893Y-13167200D01*
X8225178Y-13467200D02*
X8239464Y-13452914D01*
X8268036Y-13410057D01*
X8282321Y-13381486D01*
X8296607Y-13338629D01*
X8310893Y-13267200D01*
X8310893Y-13210057D01*
X8296607Y-13138629D01*
X8282321Y-13095771D01*
X8268036Y-13067200D01*
X8239464Y-13024343D01*
X8225178Y-13010057D01*
X1693750Y-13658200D02*
X1738750Y-13613200D01*
X1693750Y-13568200D01*
X1648750Y-13613200D01*
X1693750Y-13658200D01*
X2082321Y-13448914D02*
X2110893Y-13448914D01*
X2139464Y-13463200D01*
X2153750Y-13477486D01*
X2168036Y-13506057D01*
X2182321Y-13563200D01*
X2182321Y-13634629D01*
X2168036Y-13691771D01*
X2153750Y-13720343D01*
X2139464Y-13734629D01*
X2110893Y-13748914D01*
X2082321Y-13748914D01*
X2053750Y-13734629D01*
X2039464Y-13720343D01*
X2025178Y-13691771D01*
X2010893Y-13634629D01*
X2010893Y-13563200D01*
X2025178Y-13506057D01*
X2039464Y-13477486D01*
X2053750Y-13463200D01*
X2082321Y-13448914D01*
X2310893Y-13720343D02*
X2325178Y-13734629D01*
X2310893Y-13748914D01*
X2296607Y-13734629D01*
X2310893Y-13720343D01*
X2310893Y-13748914D01*
X2468036Y-13748914D02*
X2525178Y-13748914D01*
X2553750Y-13734629D01*
X2568036Y-13720343D01*
X2596607Y-13677486D01*
X2610893Y-13620343D01*
X2610893Y-13506057D01*
X2596607Y-13477486D01*
X2582321Y-13463200D01*
X2553750Y-13448914D01*
X2496607Y-13448914D01*
X2468036Y-13463200D01*
X2453750Y-13477486D01*
X2439464Y-13506057D01*
X2439464Y-13577486D01*
X2453750Y-13606057D01*
X2468036Y-13620343D01*
X2496607Y-13634629D01*
X2553750Y-13634629D01*
X2582321Y-13620343D01*
X2596607Y-13606057D01*
X2610893Y-13577486D01*
X2796607Y-13448914D02*
X2825178Y-13448914D01*
X2853750Y-13463200D01*
X2868036Y-13477486D01*
X2882321Y-13506057D01*
X2896607Y-13563200D01*
X2896607Y-13634629D01*
X2882321Y-13691771D01*
X2868036Y-13720343D01*
X2853750Y-13734629D01*
X2825178Y-13748914D01*
X2796607Y-13748914D01*
X2768036Y-13734629D01*
X2753750Y-13720343D01*
X2739464Y-13691771D01*
X2725178Y-13634629D01*
X2725178Y-13563200D01*
X2739464Y-13506057D01*
X2753750Y-13477486D01*
X2768036Y-13463200D01*
X2796607Y-13448914D01*
X3025178Y-13748914D02*
X3025178Y-13548914D01*
X3025178Y-13577486D02*
X3039464Y-13563200D01*
X3068036Y-13548914D01*
X3110893Y-13548914D01*
X3139464Y-13563200D01*
X3153750Y-13591771D01*
X3153750Y-13748914D01*
X3153750Y-13591771D02*
X3168036Y-13563200D01*
X3196607Y-13548914D01*
X3239464Y-13548914D01*
X3268036Y-13563200D01*
X3282321Y-13591771D01*
X3282321Y-13748914D01*
X3425178Y-13748914D02*
X3425178Y-13548914D01*
X3425178Y-13577486D02*
X3439464Y-13563200D01*
X3468036Y-13548914D01*
X3510893Y-13548914D01*
X3539464Y-13563200D01*
X3553750Y-13591771D01*
X3553750Y-13748914D01*
X3553750Y-13591771D02*
X3568036Y-13563200D01*
X3596607Y-13548914D01*
X3639464Y-13548914D01*
X3668036Y-13563200D01*
X3682321Y-13591771D01*
X3682321Y-13748914D01*
X4268036Y-13434629D02*
X4010893Y-13820343D01*
X4653750Y-13448914D02*
X4682321Y-13448914D01*
X4710893Y-13463200D01*
X4725178Y-13477486D01*
X4739464Y-13506057D01*
X4753750Y-13563200D01*
X4753750Y-13634629D01*
X4739464Y-13691771D01*
X4725178Y-13720343D01*
X4710893Y-13734629D01*
X4682321Y-13748914D01*
X4653750Y-13748914D01*
X4625178Y-13734629D01*
X4610893Y-13720343D01*
X4596607Y-13691771D01*
X4582321Y-13634629D01*
X4582321Y-13563200D01*
X4596607Y-13506057D01*
X4610893Y-13477486D01*
X4625178Y-13463200D01*
X4653750Y-13448914D01*
X4882321Y-13720343D02*
X4896607Y-13734629D01*
X4882321Y-13748914D01*
X4868036Y-13734629D01*
X4882321Y-13720343D01*
X4882321Y-13748914D01*
X5082321Y-13448914D02*
X5110893Y-13448914D01*
X5139464Y-13463200D01*
X5153750Y-13477486D01*
X5168036Y-13506057D01*
X5182321Y-13563200D01*
X5182321Y-13634629D01*
X5168036Y-13691771D01*
X5153750Y-13720343D01*
X5139464Y-13734629D01*
X5110893Y-13748914D01*
X5082321Y-13748914D01*
X5053750Y-13734629D01*
X5039464Y-13720343D01*
X5025178Y-13691771D01*
X5010893Y-13634629D01*
X5010893Y-13563200D01*
X5025178Y-13506057D01*
X5039464Y-13477486D01*
X5053750Y-13463200D01*
X5082321Y-13448914D01*
X5282321Y-13448914D02*
X5468036Y-13448914D01*
X5368036Y-13563200D01*
X5410893Y-13563200D01*
X5439464Y-13577486D01*
X5453750Y-13591771D01*
X5468036Y-13620343D01*
X5468036Y-13691771D01*
X5453750Y-13720343D01*
X5439464Y-13734629D01*
X5410893Y-13748914D01*
X5325178Y-13748914D01*
X5296607Y-13734629D01*
X5282321Y-13720343D01*
X5739464Y-13448914D02*
X5596607Y-13448914D01*
X5582321Y-13591771D01*
X5596607Y-13577486D01*
X5625178Y-13563200D01*
X5696607Y-13563200D01*
X5725178Y-13577486D01*
X5739464Y-13591771D01*
X5753750Y-13620343D01*
X5753750Y-13691771D01*
X5739464Y-13720343D01*
X5725178Y-13734629D01*
X5696607Y-13748914D01*
X5625178Y-13748914D01*
X5596607Y-13734629D01*
X5582321Y-13720343D01*
X5868036Y-13448914D02*
X5868036Y-13506057D01*
X5982321Y-13448914D02*
X5982321Y-13506057D01*
X6425178Y-13863200D02*
X6410893Y-13848914D01*
X6382321Y-13806057D01*
X6368036Y-13777486D01*
X6353750Y-13734629D01*
X6339464Y-13663200D01*
X6339464Y-13606057D01*
X6353750Y-13534629D01*
X6368036Y-13491771D01*
X6382321Y-13463200D01*
X6410893Y-13420343D01*
X6425178Y-13406057D01*
X6582321Y-13577486D02*
X6553750Y-13563200D01*
X6539464Y-13548914D01*
X6525178Y-13520343D01*
X6525178Y-13506057D01*
X6539464Y-13477486D01*
X6553750Y-13463200D01*
X6582321Y-13448914D01*
X6639464Y-13448914D01*
X6668036Y-13463200D01*
X6682321Y-13477486D01*
X6696607Y-13506057D01*
X6696607Y-13520343D01*
X6682321Y-13548914D01*
X6668036Y-13563200D01*
X6639464Y-13577486D01*
X6582321Y-13577486D01*
X6553750Y-13591771D01*
X6539464Y-13606057D01*
X6525178Y-13634629D01*
X6525178Y-13691771D01*
X6539464Y-13720343D01*
X6553750Y-13734629D01*
X6582321Y-13748914D01*
X6639464Y-13748914D01*
X6668036Y-13734629D01*
X6682321Y-13720343D01*
X6696607Y-13691771D01*
X6696607Y-13634629D01*
X6682321Y-13606057D01*
X6668036Y-13591771D01*
X6639464Y-13577486D01*
X7053750Y-13748914D02*
X7053750Y-13448914D01*
X7182321Y-13748914D02*
X7182321Y-13591771D01*
X7168036Y-13563200D01*
X7139464Y-13548914D01*
X7096607Y-13548914D01*
X7068036Y-13563200D01*
X7053750Y-13577486D01*
X7368036Y-13748914D02*
X7339464Y-13734629D01*
X7325178Y-13720343D01*
X7310893Y-13691771D01*
X7310893Y-13606057D01*
X7325178Y-13577486D01*
X7339464Y-13563200D01*
X7368036Y-13548914D01*
X7410893Y-13548914D01*
X7439464Y-13563200D01*
X7453750Y-13577486D01*
X7468036Y-13606057D01*
X7468036Y-13691771D01*
X7453750Y-13720343D01*
X7439464Y-13734629D01*
X7410893Y-13748914D01*
X7368036Y-13748914D01*
X7639464Y-13748914D02*
X7610893Y-13734629D01*
X7596607Y-13706057D01*
X7596607Y-13448914D01*
X7868036Y-13734629D02*
X7839464Y-13748914D01*
X7782321Y-13748914D01*
X7753750Y-13734629D01*
X7739464Y-13706057D01*
X7739464Y-13591771D01*
X7753750Y-13563200D01*
X7782321Y-13548914D01*
X7839464Y-13548914D01*
X7868036Y-13563200D01*
X7882321Y-13591771D01*
X7882321Y-13620343D01*
X7739464Y-13648914D01*
X7996607Y-13734629D02*
X8025178Y-13748914D01*
X8082321Y-13748914D01*
X8110893Y-13734629D01*
X8125178Y-13706057D01*
X8125178Y-13691771D01*
X8110893Y-13663200D01*
X8082321Y-13648914D01*
X8039464Y-13648914D01*
X8010893Y-13634629D01*
X7996607Y-13606057D01*
X7996607Y-13591771D01*
X8010893Y-13563200D01*
X8039464Y-13548914D01*
X8082321Y-13548914D01*
X8110893Y-13563200D01*
X8225178Y-13863200D02*
X8239464Y-13848914D01*
X8268036Y-13806057D01*
X8282321Y-13777486D01*
X8296607Y-13734629D01*
X8310893Y-13663200D01*
X8310893Y-13606057D01*
X8296607Y-13534629D01*
X8282321Y-13491771D01*
X8268036Y-13463200D01*
X8239464Y-13420343D01*
X8225178Y-13406057D01*
X1638750Y-13959200D02*
X1738750Y-14059200D01*
X1738750Y-13959200D02*
X1638750Y-14059200D01*
X1738750Y-14009200D02*
G75*
G03X1738750Y-14009200I-50000J0D01*
G01*
X2182321Y-14144914D02*
X2010893Y-14144914D01*
X2096607Y-14144914D02*
X2096607Y-13844914D01*
X2068036Y-13887771D01*
X2039464Y-13916343D01*
X2010893Y-13930629D01*
X2310893Y-14116343D02*
X2325178Y-14130629D01*
X2310893Y-14144914D01*
X2296607Y-14130629D01*
X2310893Y-14116343D01*
X2310893Y-14144914D01*
X2510893Y-13844914D02*
X2539464Y-13844914D01*
X2568036Y-13859200D01*
X2582321Y-13873486D01*
X2596607Y-13902057D01*
X2610893Y-13959200D01*
X2610893Y-14030629D01*
X2596607Y-14087771D01*
X2582321Y-14116343D01*
X2568036Y-14130629D01*
X2539464Y-14144914D01*
X2510893Y-14144914D01*
X2482321Y-14130629D01*
X2468036Y-14116343D01*
X2453750Y-14087771D01*
X2439464Y-14030629D01*
X2439464Y-13959200D01*
X2453750Y-13902057D01*
X2468036Y-13873486D01*
X2482321Y-13859200D01*
X2510893Y-13844914D01*
X2796607Y-13844914D02*
X2825178Y-13844914D01*
X2853750Y-13859200D01*
X2868036Y-13873486D01*
X2882321Y-13902057D01*
X2896607Y-13959200D01*
X2896607Y-14030629D01*
X2882321Y-14087771D01*
X2868036Y-14116343D01*
X2853750Y-14130629D01*
X2825178Y-14144914D01*
X2796607Y-14144914D01*
X2768036Y-14130629D01*
X2753750Y-14116343D01*
X2739464Y-14087771D01*
X2725178Y-14030629D01*
X2725178Y-13959200D01*
X2739464Y-13902057D01*
X2753750Y-13873486D01*
X2768036Y-13859200D01*
X2796607Y-13844914D01*
X3025178Y-14144914D02*
X3025178Y-13944914D01*
X3025178Y-13973486D02*
X3039464Y-13959200D01*
X3068036Y-13944914D01*
X3110893Y-13944914D01*
X3139464Y-13959200D01*
X3153750Y-13987771D01*
X3153750Y-14144914D01*
X3153750Y-13987771D02*
X3168036Y-13959200D01*
X3196607Y-13944914D01*
X3239464Y-13944914D01*
X3268036Y-13959200D01*
X3282321Y-13987771D01*
X3282321Y-14144914D01*
X3425178Y-14144914D02*
X3425178Y-13944914D01*
X3425178Y-13973486D02*
X3439464Y-13959200D01*
X3468036Y-13944914D01*
X3510893Y-13944914D01*
X3539464Y-13959200D01*
X3553750Y-13987771D01*
X3553750Y-14144914D01*
X3553750Y-13987771D02*
X3568036Y-13959200D01*
X3596607Y-13944914D01*
X3639464Y-13944914D01*
X3668036Y-13959200D01*
X3682321Y-13987771D01*
X3682321Y-14144914D01*
X4268036Y-13830629D02*
X4010893Y-14216343D01*
X4653750Y-13844914D02*
X4682321Y-13844914D01*
X4710893Y-13859200D01*
X4725178Y-13873486D01*
X4739464Y-13902057D01*
X4753750Y-13959200D01*
X4753750Y-14030629D01*
X4739464Y-14087771D01*
X4725178Y-14116343D01*
X4710893Y-14130629D01*
X4682321Y-14144914D01*
X4653750Y-14144914D01*
X4625178Y-14130629D01*
X4610893Y-14116343D01*
X4596607Y-14087771D01*
X4582321Y-14030629D01*
X4582321Y-13959200D01*
X4596607Y-13902057D01*
X4610893Y-13873486D01*
X4625178Y-13859200D01*
X4653750Y-13844914D01*
X4882321Y-14116343D02*
X4896607Y-14130629D01*
X4882321Y-14144914D01*
X4868036Y-14130629D01*
X4882321Y-14116343D01*
X4882321Y-14144914D01*
X5082321Y-13844914D02*
X5110893Y-13844914D01*
X5139464Y-13859200D01*
X5153750Y-13873486D01*
X5168036Y-13902057D01*
X5182321Y-13959200D01*
X5182321Y-14030629D01*
X5168036Y-14087771D01*
X5153750Y-14116343D01*
X5139464Y-14130629D01*
X5110893Y-14144914D01*
X5082321Y-14144914D01*
X5053750Y-14130629D01*
X5039464Y-14116343D01*
X5025178Y-14087771D01*
X5010893Y-14030629D01*
X5010893Y-13959200D01*
X5025178Y-13902057D01*
X5039464Y-13873486D01*
X5053750Y-13859200D01*
X5082321Y-13844914D01*
X5282321Y-13844914D02*
X5468036Y-13844914D01*
X5368036Y-13959200D01*
X5410893Y-13959200D01*
X5439464Y-13973486D01*
X5453750Y-13987771D01*
X5468036Y-14016343D01*
X5468036Y-14087771D01*
X5453750Y-14116343D01*
X5439464Y-14130629D01*
X5410893Y-14144914D01*
X5325178Y-14144914D01*
X5296607Y-14130629D01*
X5282321Y-14116343D01*
X5610893Y-14144914D02*
X5668036Y-14144914D01*
X5696607Y-14130629D01*
X5710893Y-14116343D01*
X5739464Y-14073486D01*
X5753750Y-14016343D01*
X5753750Y-13902057D01*
X5739464Y-13873486D01*
X5725178Y-13859200D01*
X5696607Y-13844914D01*
X5639464Y-13844914D01*
X5610893Y-13859200D01*
X5596607Y-13873486D01*
X5582321Y-13902057D01*
X5582321Y-13973486D01*
X5596607Y-14002057D01*
X5610893Y-14016343D01*
X5639464Y-14030629D01*
X5696607Y-14030629D01*
X5725178Y-14016343D01*
X5739464Y-14002057D01*
X5753750Y-13973486D01*
X5868036Y-13844914D02*
X5868036Y-13902057D01*
X5982321Y-13844914D02*
X5982321Y-13902057D01*
X6425178Y-14259200D02*
X6410893Y-14244914D01*
X6382321Y-14202057D01*
X6368036Y-14173486D01*
X6353750Y-14130629D01*
X6339464Y-14059200D01*
X6339464Y-14002057D01*
X6353750Y-13930629D01*
X6368036Y-13887771D01*
X6382321Y-13859200D01*
X6410893Y-13816343D01*
X6425178Y-13802057D01*
X6510893Y-13844914D02*
X6696607Y-13844914D01*
X6596607Y-13959200D01*
X6639464Y-13959200D01*
X6668036Y-13973486D01*
X6682321Y-13987771D01*
X6696607Y-14016343D01*
X6696607Y-14087771D01*
X6682321Y-14116343D01*
X6668036Y-14130629D01*
X6639464Y-14144914D01*
X6553750Y-14144914D01*
X6525178Y-14130629D01*
X6510893Y-14116343D01*
X6953750Y-13844914D02*
X6896607Y-13844914D01*
X6868036Y-13859200D01*
X6853750Y-13873486D01*
X6825178Y-13916343D01*
X6810893Y-13973486D01*
X6810893Y-14087771D01*
X6825178Y-14116343D01*
X6839464Y-14130629D01*
X6868036Y-14144914D01*
X6925178Y-14144914D01*
X6953750Y-14130629D01*
X6968036Y-14116343D01*
X6982321Y-14087771D01*
X6982321Y-14016343D01*
X6968036Y-13987771D01*
X6953750Y-13973486D01*
X6925178Y-13959200D01*
X6868036Y-13959200D01*
X6839464Y-13973486D01*
X6825178Y-13987771D01*
X6810893Y-14016343D01*
X7339464Y-14144914D02*
X7339464Y-13844914D01*
X7468036Y-14144914D02*
X7468036Y-13987771D01*
X7453750Y-13959200D01*
X7425178Y-13944914D01*
X7382321Y-13944914D01*
X7353750Y-13959200D01*
X7339464Y-13973486D01*
X7653750Y-14144914D02*
X7625178Y-14130629D01*
X7610893Y-14116343D01*
X7596607Y-14087771D01*
X7596607Y-14002057D01*
X7610893Y-13973486D01*
X7625178Y-13959200D01*
X7653750Y-13944914D01*
X7696607Y-13944914D01*
X7725178Y-13959200D01*
X7739464Y-13973486D01*
X7753750Y-14002057D01*
X7753750Y-14087771D01*
X7739464Y-14116343D01*
X7725178Y-14130629D01*
X7696607Y-14144914D01*
X7653750Y-14144914D01*
X7925178Y-14144914D02*
X7896607Y-14130629D01*
X7882321Y-14102057D01*
X7882321Y-13844914D01*
X8153750Y-14130629D02*
X8125178Y-14144914D01*
X8068036Y-14144914D01*
X8039464Y-14130629D01*
X8025178Y-14102057D01*
X8025178Y-13987771D01*
X8039464Y-13959200D01*
X8068036Y-13944914D01*
X8125178Y-13944914D01*
X8153750Y-13959200D01*
X8168036Y-13987771D01*
X8168036Y-14016343D01*
X8025178Y-14044914D01*
X8282321Y-14130629D02*
X8310893Y-14144914D01*
X8368036Y-14144914D01*
X8396607Y-14130629D01*
X8410893Y-14102057D01*
X8410893Y-14087771D01*
X8396607Y-14059200D01*
X8368036Y-14044914D01*
X8325178Y-14044914D01*
X8296607Y-14030629D01*
X8282321Y-14002057D01*
X8282321Y-13987771D01*
X8296607Y-13959200D01*
X8325178Y-13944914D01*
X8368036Y-13944914D01*
X8396607Y-13959200D01*
X8510893Y-14259200D02*
X8525178Y-14244914D01*
X8553750Y-14202057D01*
X8568036Y-14173486D01*
X8582321Y-14130629D01*
X8596607Y-14059200D01*
X8596607Y-14002057D01*
X8582321Y-13930629D01*
X8568036Y-13887771D01*
X8553750Y-13859200D01*
X8525178Y-13816343D01*
X8510893Y-13802057D01*
X1628750Y-14350200D02*
X1738750Y-14460200D01*
X1738750Y-14350200D02*
X1628750Y-14460200D01*
X1683750Y-14350200D02*
X1683750Y-14460200D01*
X1628750Y-14405200D02*
X1738750Y-14405200D01*
X2182321Y-14540914D02*
X2010893Y-14540914D01*
X2096607Y-14540914D02*
X2096607Y-14240914D01*
X2068036Y-14283771D01*
X2039464Y-14312343D01*
X2010893Y-14326629D01*
X2310893Y-14512343D02*
X2325178Y-14526629D01*
X2310893Y-14540914D01*
X2296607Y-14526629D01*
X2310893Y-14512343D01*
X2310893Y-14540914D01*
X2610893Y-14540914D02*
X2439464Y-14540914D01*
X2525178Y-14540914D02*
X2525178Y-14240914D01*
X2496607Y-14283771D01*
X2468036Y-14312343D01*
X2439464Y-14326629D01*
X2796607Y-14240914D02*
X2825178Y-14240914D01*
X2853750Y-14255200D01*
X2868036Y-14269486D01*
X2882321Y-14298057D01*
X2896607Y-14355200D01*
X2896607Y-14426629D01*
X2882321Y-14483771D01*
X2868036Y-14512343D01*
X2853750Y-14526629D01*
X2825178Y-14540914D01*
X2796607Y-14540914D01*
X2768036Y-14526629D01*
X2753750Y-14512343D01*
X2739464Y-14483771D01*
X2725178Y-14426629D01*
X2725178Y-14355200D01*
X2739464Y-14298057D01*
X2753750Y-14269486D01*
X2768036Y-14255200D01*
X2796607Y-14240914D01*
X3025178Y-14540914D02*
X3025178Y-14340914D01*
X3025178Y-14369486D02*
X3039464Y-14355200D01*
X3068036Y-14340914D01*
X3110893Y-14340914D01*
X3139464Y-14355200D01*
X3153750Y-14383771D01*
X3153750Y-14540914D01*
X3153750Y-14383771D02*
X3168036Y-14355200D01*
X3196607Y-14340914D01*
X3239464Y-14340914D01*
X3268036Y-14355200D01*
X3282321Y-14383771D01*
X3282321Y-14540914D01*
X3425178Y-14540914D02*
X3425178Y-14340914D01*
X3425178Y-14369486D02*
X3439464Y-14355200D01*
X3468036Y-14340914D01*
X3510893Y-14340914D01*
X3539464Y-14355200D01*
X3553750Y-14383771D01*
X3553750Y-14540914D01*
X3553750Y-14383771D02*
X3568036Y-14355200D01*
X3596607Y-14340914D01*
X3639464Y-14340914D01*
X3668036Y-14355200D01*
X3682321Y-14383771D01*
X3682321Y-14540914D01*
X4268036Y-14226629D02*
X4010893Y-14612343D01*
X4653750Y-14240914D02*
X4682321Y-14240914D01*
X4710893Y-14255200D01*
X4725178Y-14269486D01*
X4739464Y-14298057D01*
X4753750Y-14355200D01*
X4753750Y-14426629D01*
X4739464Y-14483771D01*
X4725178Y-14512343D01*
X4710893Y-14526629D01*
X4682321Y-14540914D01*
X4653750Y-14540914D01*
X4625178Y-14526629D01*
X4610893Y-14512343D01*
X4596607Y-14483771D01*
X4582321Y-14426629D01*
X4582321Y-14355200D01*
X4596607Y-14298057D01*
X4610893Y-14269486D01*
X4625178Y-14255200D01*
X4653750Y-14240914D01*
X4882321Y-14512343D02*
X4896607Y-14526629D01*
X4882321Y-14540914D01*
X4868036Y-14526629D01*
X4882321Y-14512343D01*
X4882321Y-14540914D01*
X5082321Y-14240914D02*
X5110893Y-14240914D01*
X5139464Y-14255200D01*
X5153750Y-14269486D01*
X5168036Y-14298057D01*
X5182321Y-14355200D01*
X5182321Y-14426629D01*
X5168036Y-14483771D01*
X5153750Y-14512343D01*
X5139464Y-14526629D01*
X5110893Y-14540914D01*
X5082321Y-14540914D01*
X5053750Y-14526629D01*
X5039464Y-14512343D01*
X5025178Y-14483771D01*
X5010893Y-14426629D01*
X5010893Y-14355200D01*
X5025178Y-14298057D01*
X5039464Y-14269486D01*
X5053750Y-14255200D01*
X5082321Y-14240914D01*
X5439464Y-14340914D02*
X5439464Y-14540914D01*
X5368036Y-14226629D02*
X5296607Y-14440914D01*
X5482321Y-14440914D01*
X5568036Y-14240914D02*
X5753750Y-14240914D01*
X5653750Y-14355200D01*
X5696607Y-14355200D01*
X5725178Y-14369486D01*
X5739464Y-14383771D01*
X5753750Y-14412343D01*
X5753750Y-14483771D01*
X5739464Y-14512343D01*
X5725178Y-14526629D01*
X5696607Y-14540914D01*
X5610893Y-14540914D01*
X5582321Y-14526629D01*
X5568036Y-14512343D01*
X5868036Y-14240914D02*
X5868036Y-14298057D01*
X5982321Y-14240914D02*
X5982321Y-14298057D01*
X6425178Y-14655200D02*
X6410893Y-14640914D01*
X6382321Y-14598057D01*
X6368036Y-14569486D01*
X6353750Y-14526629D01*
X6339464Y-14455200D01*
X6339464Y-14398057D01*
X6353750Y-14326629D01*
X6368036Y-14283771D01*
X6382321Y-14255200D01*
X6410893Y-14212343D01*
X6425178Y-14198057D01*
X6525178Y-14269486D02*
X6539464Y-14255200D01*
X6568036Y-14240914D01*
X6639464Y-14240914D01*
X6668036Y-14255200D01*
X6682321Y-14269486D01*
X6696607Y-14298057D01*
X6696607Y-14326629D01*
X6682321Y-14369486D01*
X6510893Y-14540914D01*
X6696607Y-14540914D01*
X6839464Y-14540914D02*
X6896607Y-14540914D01*
X6925178Y-14526629D01*
X6939464Y-14512343D01*
X6968036Y-14469486D01*
X6982321Y-14412343D01*
X6982321Y-14298057D01*
X6968036Y-14269486D01*
X6953750Y-14255200D01*
X6925178Y-14240914D01*
X6868036Y-14240914D01*
X6839464Y-14255200D01*
X6825178Y-14269486D01*
X6810893Y-14298057D01*
X6810893Y-14369486D01*
X6825178Y-14398057D01*
X6839464Y-14412343D01*
X6868036Y-14426629D01*
X6925178Y-14426629D01*
X6953750Y-14412343D01*
X6968036Y-14398057D01*
X6982321Y-14369486D01*
X7339464Y-14540914D02*
X7339464Y-14240914D01*
X7468036Y-14540914D02*
X7468036Y-14383771D01*
X7453750Y-14355200D01*
X7425178Y-14340914D01*
X7382321Y-14340914D01*
X7353750Y-14355200D01*
X7339464Y-14369486D01*
X7653750Y-14540914D02*
X7625178Y-14526629D01*
X7610893Y-14512343D01*
X7596607Y-14483771D01*
X7596607Y-14398057D01*
X7610893Y-14369486D01*
X7625178Y-14355200D01*
X7653750Y-14340914D01*
X7696607Y-14340914D01*
X7725178Y-14355200D01*
X7739464Y-14369486D01*
X7753750Y-14398057D01*
X7753750Y-14483771D01*
X7739464Y-14512343D01*
X7725178Y-14526629D01*
X7696607Y-14540914D01*
X7653750Y-14540914D01*
X7925178Y-14540914D02*
X7896607Y-14526629D01*
X7882321Y-14498057D01*
X7882321Y-14240914D01*
X8153750Y-14526629D02*
X8125178Y-14540914D01*
X8068036Y-14540914D01*
X8039464Y-14526629D01*
X8025178Y-14498057D01*
X8025178Y-14383771D01*
X8039464Y-14355200D01*
X8068036Y-14340914D01*
X8125178Y-14340914D01*
X8153750Y-14355200D01*
X8168036Y-14383771D01*
X8168036Y-14412343D01*
X8025178Y-14440914D01*
X8282321Y-14526629D02*
X8310893Y-14540914D01*
X8368036Y-14540914D01*
X8396607Y-14526629D01*
X8410893Y-14498057D01*
X8410893Y-14483771D01*
X8396607Y-14455200D01*
X8368036Y-14440914D01*
X8325178Y-14440914D01*
X8296607Y-14426629D01*
X8282321Y-14398057D01*
X8282321Y-14383771D01*
X8296607Y-14355200D01*
X8325178Y-14340914D01*
X8368036Y-14340914D01*
X8396607Y-14355200D01*
X8510893Y-14655200D02*
X8525178Y-14640914D01*
X8553750Y-14598057D01*
X8568036Y-14569486D01*
X8582321Y-14526629D01*
X8596607Y-14455200D01*
X8596607Y-14398057D01*
X8582321Y-14326629D01*
X8568036Y-14283771D01*
X8553750Y-14255200D01*
X8525178Y-14212343D01*
X8510893Y-14198057D01*
X1578750Y-14721200D02*
X1738750Y-14881200D01*
X1738750Y-14721200D02*
X1578750Y-14881200D01*
X1715319Y-14857769D02*
X1715319Y-14744631D01*
X1602181Y-14744631D01*
X1602181Y-14857769D01*
X1715319Y-14857769D01*
X2182321Y-14936914D02*
X2010893Y-14936914D01*
X2096607Y-14936914D02*
X2096607Y-14636914D01*
X2068036Y-14679771D01*
X2039464Y-14708343D01*
X2010893Y-14722629D01*
X2310893Y-14908343D02*
X2325178Y-14922629D01*
X2310893Y-14936914D01*
X2296607Y-14922629D01*
X2310893Y-14908343D01*
X2310893Y-14936914D01*
X2582321Y-14636914D02*
X2525178Y-14636914D01*
X2496607Y-14651200D01*
X2482321Y-14665486D01*
X2453750Y-14708343D01*
X2439464Y-14765486D01*
X2439464Y-14879771D01*
X2453750Y-14908343D01*
X2468036Y-14922629D01*
X2496607Y-14936914D01*
X2553750Y-14936914D01*
X2582321Y-14922629D01*
X2596607Y-14908343D01*
X2610893Y-14879771D01*
X2610893Y-14808343D01*
X2596607Y-14779771D01*
X2582321Y-14765486D01*
X2553750Y-14751200D01*
X2496607Y-14751200D01*
X2468036Y-14765486D01*
X2453750Y-14779771D01*
X2439464Y-14808343D01*
X2796607Y-14636914D02*
X2825178Y-14636914D01*
X2853750Y-14651200D01*
X2868036Y-14665486D01*
X2882321Y-14694057D01*
X2896607Y-14751200D01*
X2896607Y-14822629D01*
X2882321Y-14879771D01*
X2868036Y-14908343D01*
X2853750Y-14922629D01*
X2825178Y-14936914D01*
X2796607Y-14936914D01*
X2768036Y-14922629D01*
X2753750Y-14908343D01*
X2739464Y-14879771D01*
X2725178Y-14822629D01*
X2725178Y-14751200D01*
X2739464Y-14694057D01*
X2753750Y-14665486D01*
X2768036Y-14651200D01*
X2796607Y-14636914D01*
X3025178Y-14936914D02*
X3025178Y-14736914D01*
X3025178Y-14765486D02*
X3039464Y-14751200D01*
X3068036Y-14736914D01*
X3110893Y-14736914D01*
X3139464Y-14751200D01*
X3153750Y-14779771D01*
X3153750Y-14936914D01*
X3153750Y-14779771D02*
X3168036Y-14751200D01*
X3196607Y-14736914D01*
X3239464Y-14736914D01*
X3268036Y-14751200D01*
X3282321Y-14779771D01*
X3282321Y-14936914D01*
X3425178Y-14936914D02*
X3425178Y-14736914D01*
X3425178Y-14765486D02*
X3439464Y-14751200D01*
X3468036Y-14736914D01*
X3510893Y-14736914D01*
X3539464Y-14751200D01*
X3553750Y-14779771D01*
X3553750Y-14936914D01*
X3553750Y-14779771D02*
X3568036Y-14751200D01*
X3596607Y-14736914D01*
X3639464Y-14736914D01*
X3668036Y-14751200D01*
X3682321Y-14779771D01*
X3682321Y-14936914D01*
X4268036Y-14622629D02*
X4010893Y-15008343D01*
X4653750Y-14636914D02*
X4682321Y-14636914D01*
X4710893Y-14651200D01*
X4725178Y-14665486D01*
X4739464Y-14694057D01*
X4753750Y-14751200D01*
X4753750Y-14822629D01*
X4739464Y-14879771D01*
X4725178Y-14908343D01*
X4710893Y-14922629D01*
X4682321Y-14936914D01*
X4653750Y-14936914D01*
X4625178Y-14922629D01*
X4610893Y-14908343D01*
X4596607Y-14879771D01*
X4582321Y-14822629D01*
X4582321Y-14751200D01*
X4596607Y-14694057D01*
X4610893Y-14665486D01*
X4625178Y-14651200D01*
X4653750Y-14636914D01*
X4882321Y-14908343D02*
X4896607Y-14922629D01*
X4882321Y-14936914D01*
X4868036Y-14922629D01*
X4882321Y-14908343D01*
X4882321Y-14936914D01*
X5082321Y-14636914D02*
X5110893Y-14636914D01*
X5139464Y-14651200D01*
X5153750Y-14665486D01*
X5168036Y-14694057D01*
X5182321Y-14751200D01*
X5182321Y-14822629D01*
X5168036Y-14879771D01*
X5153750Y-14908343D01*
X5139464Y-14922629D01*
X5110893Y-14936914D01*
X5082321Y-14936914D01*
X5053750Y-14922629D01*
X5039464Y-14908343D01*
X5025178Y-14879771D01*
X5010893Y-14822629D01*
X5010893Y-14751200D01*
X5025178Y-14694057D01*
X5039464Y-14665486D01*
X5053750Y-14651200D01*
X5082321Y-14636914D01*
X5439464Y-14636914D02*
X5382321Y-14636914D01*
X5353750Y-14651200D01*
X5339464Y-14665486D01*
X5310893Y-14708343D01*
X5296607Y-14765486D01*
X5296607Y-14879771D01*
X5310893Y-14908343D01*
X5325178Y-14922629D01*
X5353750Y-14936914D01*
X5410893Y-14936914D01*
X5439464Y-14922629D01*
X5453750Y-14908343D01*
X5468036Y-14879771D01*
X5468036Y-14808343D01*
X5453750Y-14779771D01*
X5439464Y-14765486D01*
X5410893Y-14751200D01*
X5353750Y-14751200D01*
X5325178Y-14765486D01*
X5310893Y-14779771D01*
X5296607Y-14808343D01*
X5568036Y-14636914D02*
X5753750Y-14636914D01*
X5653750Y-14751200D01*
X5696607Y-14751200D01*
X5725178Y-14765486D01*
X5739464Y-14779771D01*
X5753750Y-14808343D01*
X5753750Y-14879771D01*
X5739464Y-14908343D01*
X5725178Y-14922629D01*
X5696607Y-14936914D01*
X5610893Y-14936914D01*
X5582321Y-14922629D01*
X5568036Y-14908343D01*
X5868036Y-14636914D02*
X5868036Y-14694057D01*
X5982321Y-14636914D02*
X5982321Y-14694057D01*
X6425178Y-15051200D02*
X6410893Y-15036914D01*
X6382321Y-14994057D01*
X6368036Y-14965486D01*
X6353750Y-14922629D01*
X6339464Y-14851200D01*
X6339464Y-14794057D01*
X6353750Y-14722629D01*
X6368036Y-14679771D01*
X6382321Y-14651200D01*
X6410893Y-14608343D01*
X6425178Y-14594057D01*
X6668036Y-14636914D02*
X6610893Y-14636914D01*
X6582321Y-14651200D01*
X6568036Y-14665486D01*
X6539464Y-14708343D01*
X6525178Y-14765486D01*
X6525178Y-14879771D01*
X6539464Y-14908343D01*
X6553750Y-14922629D01*
X6582321Y-14936914D01*
X6639464Y-14936914D01*
X6668036Y-14922629D01*
X6682321Y-14908343D01*
X6696607Y-14879771D01*
X6696607Y-14808343D01*
X6682321Y-14779771D01*
X6668036Y-14765486D01*
X6639464Y-14751200D01*
X6582321Y-14751200D01*
X6553750Y-14765486D01*
X6539464Y-14779771D01*
X6525178Y-14808343D01*
X7053750Y-14936914D02*
X7053750Y-14636914D01*
X7182321Y-14936914D02*
X7182321Y-14779771D01*
X7168036Y-14751200D01*
X7139464Y-14736914D01*
X7096607Y-14736914D01*
X7068036Y-14751200D01*
X7053750Y-14765486D01*
X7368036Y-14936914D02*
X7339464Y-14922629D01*
X7325178Y-14908343D01*
X7310893Y-14879771D01*
X7310893Y-14794057D01*
X7325178Y-14765486D01*
X7339464Y-14751200D01*
X7368036Y-14736914D01*
X7410893Y-14736914D01*
X7439464Y-14751200D01*
X7453750Y-14765486D01*
X7468036Y-14794057D01*
X7468036Y-14879771D01*
X7453750Y-14908343D01*
X7439464Y-14922629D01*
X7410893Y-14936914D01*
X7368036Y-14936914D01*
X7639464Y-14936914D02*
X7610893Y-14922629D01*
X7596607Y-14894057D01*
X7596607Y-14636914D01*
X7868036Y-14922629D02*
X7839464Y-14936914D01*
X7782321Y-14936914D01*
X7753750Y-14922629D01*
X7739464Y-14894057D01*
X7739464Y-14779771D01*
X7753750Y-14751200D01*
X7782321Y-14736914D01*
X7839464Y-14736914D01*
X7868036Y-14751200D01*
X7882321Y-14779771D01*
X7882321Y-14808343D01*
X7739464Y-14836914D01*
X7996607Y-14922629D02*
X8025178Y-14936914D01*
X8082321Y-14936914D01*
X8110893Y-14922629D01*
X8125178Y-14894057D01*
X8125178Y-14879771D01*
X8110893Y-14851200D01*
X8082321Y-14836914D01*
X8039464Y-14836914D01*
X8010893Y-14822629D01*
X7996607Y-14794057D01*
X7996607Y-14779771D01*
X8010893Y-14751200D01*
X8039464Y-14736914D01*
X8082321Y-14736914D01*
X8110893Y-14751200D01*
X8225178Y-15051200D02*
X8239464Y-15036914D01*
X8268036Y-14994057D01*
X8282321Y-14965486D01*
X8296607Y-14922629D01*
X8310893Y-14851200D01*
X8310893Y-14794057D01*
X8296607Y-14722629D01*
X8282321Y-14679771D01*
X8268036Y-14651200D01*
X8239464Y-14608343D01*
X8225178Y-14594057D01*
X1418750Y-15037200D02*
X1738750Y-15357200D01*
X1738750Y-15037200D02*
X1418750Y-15357200D01*
X1578750Y-15357200D02*
X1738750Y-15197200D01*
X1578750Y-15037200D01*
X1418750Y-15197200D01*
X1578750Y-15357200D01*
X1996607Y-15032914D02*
X2182321Y-15032914D01*
X2082321Y-15147200D01*
X2125178Y-15147200D01*
X2153750Y-15161486D01*
X2168036Y-15175771D01*
X2182321Y-15204343D01*
X2182321Y-15275771D01*
X2168036Y-15304343D01*
X2153750Y-15318629D01*
X2125178Y-15332914D01*
X2039464Y-15332914D01*
X2010893Y-15318629D01*
X1996607Y-15304343D01*
X2310893Y-15304343D02*
X2325178Y-15318629D01*
X2310893Y-15332914D01*
X2296607Y-15318629D01*
X2310893Y-15304343D01*
X2310893Y-15332914D01*
X2439464Y-15061486D02*
X2453750Y-15047200D01*
X2482321Y-15032914D01*
X2553750Y-15032914D01*
X2582321Y-15047200D01*
X2596607Y-15061486D01*
X2610893Y-15090057D01*
X2610893Y-15118629D01*
X2596607Y-15161486D01*
X2425178Y-15332914D01*
X2610893Y-15332914D01*
X2796607Y-15032914D02*
X2825178Y-15032914D01*
X2853750Y-15047200D01*
X2868036Y-15061486D01*
X2882321Y-15090057D01*
X2896607Y-15147200D01*
X2896607Y-15218629D01*
X2882321Y-15275771D01*
X2868036Y-15304343D01*
X2853750Y-15318629D01*
X2825178Y-15332914D01*
X2796607Y-15332914D01*
X2768036Y-15318629D01*
X2753750Y-15304343D01*
X2739464Y-15275771D01*
X2725178Y-15218629D01*
X2725178Y-15147200D01*
X2739464Y-15090057D01*
X2753750Y-15061486D01*
X2768036Y-15047200D01*
X2796607Y-15032914D01*
X3025178Y-15332914D02*
X3025178Y-15132914D01*
X3025178Y-15161486D02*
X3039464Y-15147200D01*
X3068036Y-15132914D01*
X3110893Y-15132914D01*
X3139464Y-15147200D01*
X3153750Y-15175771D01*
X3153750Y-15332914D01*
X3153750Y-15175771D02*
X3168036Y-15147200D01*
X3196607Y-15132914D01*
X3239464Y-15132914D01*
X3268036Y-15147200D01*
X3282321Y-15175771D01*
X3282321Y-15332914D01*
X3425178Y-15332914D02*
X3425178Y-15132914D01*
X3425178Y-15161486D02*
X3439464Y-15147200D01*
X3468036Y-15132914D01*
X3510893Y-15132914D01*
X3539464Y-15147200D01*
X3553750Y-15175771D01*
X3553750Y-15332914D01*
X3553750Y-15175771D02*
X3568036Y-15147200D01*
X3596607Y-15132914D01*
X3639464Y-15132914D01*
X3668036Y-15147200D01*
X3682321Y-15175771D01*
X3682321Y-15332914D01*
X4268036Y-15018629D02*
X4010893Y-15404343D01*
X4653750Y-15032914D02*
X4682321Y-15032914D01*
X4710893Y-15047200D01*
X4725178Y-15061486D01*
X4739464Y-15090057D01*
X4753750Y-15147200D01*
X4753750Y-15218629D01*
X4739464Y-15275771D01*
X4725178Y-15304343D01*
X4710893Y-15318629D01*
X4682321Y-15332914D01*
X4653750Y-15332914D01*
X4625178Y-15318629D01*
X4610893Y-15304343D01*
X4596607Y-15275771D01*
X4582321Y-15218629D01*
X4582321Y-15147200D01*
X4596607Y-15090057D01*
X4610893Y-15061486D01*
X4625178Y-15047200D01*
X4653750Y-15032914D01*
X4882321Y-15304343D02*
X4896607Y-15318629D01*
X4882321Y-15332914D01*
X4868036Y-15318629D01*
X4882321Y-15304343D01*
X4882321Y-15332914D01*
X5182321Y-15332914D02*
X5010893Y-15332914D01*
X5096607Y-15332914D02*
X5096607Y-15032914D01*
X5068036Y-15075771D01*
X5039464Y-15104343D01*
X5010893Y-15118629D01*
X5296607Y-15061486D02*
X5310893Y-15047200D01*
X5339464Y-15032914D01*
X5410893Y-15032914D01*
X5439464Y-15047200D01*
X5453750Y-15061486D01*
X5468036Y-15090057D01*
X5468036Y-15118629D01*
X5453750Y-15161486D01*
X5282321Y-15332914D01*
X5468036Y-15332914D01*
X5725178Y-15032914D02*
X5668036Y-15032914D01*
X5639464Y-15047200D01*
X5625178Y-15061486D01*
X5596607Y-15104343D01*
X5582321Y-15161486D01*
X5582321Y-15275771D01*
X5596607Y-15304343D01*
X5610893Y-15318629D01*
X5639464Y-15332914D01*
X5696607Y-15332914D01*
X5725178Y-15318629D01*
X5739464Y-15304343D01*
X5753750Y-15275771D01*
X5753750Y-15204343D01*
X5739464Y-15175771D01*
X5725178Y-15161486D01*
X5696607Y-15147200D01*
X5639464Y-15147200D01*
X5610893Y-15161486D01*
X5596607Y-15175771D01*
X5582321Y-15204343D01*
X5868036Y-15032914D02*
X5868036Y-15090057D01*
X5982321Y-15032914D02*
X5982321Y-15090057D01*
X6425178Y-15447200D02*
X6410893Y-15432914D01*
X6382321Y-15390057D01*
X6368036Y-15361486D01*
X6353750Y-15318629D01*
X6339464Y-15247200D01*
X6339464Y-15190057D01*
X6353750Y-15118629D01*
X6368036Y-15075771D01*
X6382321Y-15047200D01*
X6410893Y-15004343D01*
X6425178Y-14990057D01*
X6525178Y-15061486D02*
X6539464Y-15047200D01*
X6568036Y-15032914D01*
X6639464Y-15032914D01*
X6668036Y-15047200D01*
X6682321Y-15061486D01*
X6696607Y-15090057D01*
X6696607Y-15118629D01*
X6682321Y-15161486D01*
X6510893Y-15332914D01*
X6696607Y-15332914D01*
X7053750Y-15332914D02*
X7053750Y-15032914D01*
X7182321Y-15332914D02*
X7182321Y-15175771D01*
X7168036Y-15147200D01*
X7139464Y-15132914D01*
X7096607Y-15132914D01*
X7068036Y-15147200D01*
X7053750Y-15161486D01*
X7368036Y-15332914D02*
X7339464Y-15318629D01*
X7325178Y-15304343D01*
X7310893Y-15275771D01*
X7310893Y-15190057D01*
X7325178Y-15161486D01*
X7339464Y-15147200D01*
X7368036Y-15132914D01*
X7410893Y-15132914D01*
X7439464Y-15147200D01*
X7453750Y-15161486D01*
X7468036Y-15190057D01*
X7468036Y-15275771D01*
X7453750Y-15304343D01*
X7439464Y-15318629D01*
X7410893Y-15332914D01*
X7368036Y-15332914D01*
X7639464Y-15332914D02*
X7610893Y-15318629D01*
X7596607Y-15290057D01*
X7596607Y-15032914D01*
X7868036Y-15318629D02*
X7839464Y-15332914D01*
X7782321Y-15332914D01*
X7753750Y-15318629D01*
X7739464Y-15290057D01*
X7739464Y-15175771D01*
X7753750Y-15147200D01*
X7782321Y-15132914D01*
X7839464Y-15132914D01*
X7868036Y-15147200D01*
X7882321Y-15175771D01*
X7882321Y-15204343D01*
X7739464Y-15232914D01*
X7996607Y-15318629D02*
X8025178Y-15332914D01*
X8082321Y-15332914D01*
X8110893Y-15318629D01*
X8125178Y-15290057D01*
X8125178Y-15275771D01*
X8110893Y-15247200D01*
X8082321Y-15232914D01*
X8039464Y-15232914D01*
X8010893Y-15218629D01*
X7996607Y-15190057D01*
X7996607Y-15175771D01*
X8010893Y-15147200D01*
X8039464Y-15132914D01*
X8082321Y-15132914D01*
X8110893Y-15147200D01*
X8225178Y-15447200D02*
X8239464Y-15432914D01*
X8268036Y-15390057D01*
X8282321Y-15361486D01*
X8296607Y-15318629D01*
X8310893Y-15247200D01*
X8310893Y-15190057D01*
X8296607Y-15118629D01*
X8282321Y-15075771D01*
X8268036Y-15047200D01*
X8239464Y-15004343D01*
X8225178Y-14990057D01*
M02*
