G04 #@! TF.GenerationSoftware,KiCad,Pcbnew,5.0.2-bee76a0~70~ubuntu18.04.1*
G04 #@! TF.CreationDate,2019-05-24T00:41:18+02:00*
G04 #@! TF.ProjectId,mainPCB,6d61696e-5043-4422-9e6b-696361645f70,rev?*
G04 #@! TF.SameCoordinates,Original*
G04 #@! TF.FileFunction,Soldermask,Bot*
G04 #@! TF.FilePolarity,Negative*
%FSLAX46Y46*%
G04 Gerber Fmt 4.6, Leading zero omitted, Abs format (unit mm)*
G04 Created by KiCad (PCBNEW 5.0.2-bee76a0~70~ubuntu18.04.1) date Fr 24 Mai 2019 00:41:18 CEST*
%MOMM*%
%LPD*%
G01*
G04 APERTURE LIST*
%ADD10C,0.150000*%
%ADD11C,0.100000*%
G04 APERTURE END LIST*
D10*
X83500386Y-61178440D02*
G75*
G03X83500386Y-61178440I-1666666J0D01*
G01*
X79333720Y-61178440D02*
X84333720Y-61178440D01*
X81833720Y-58678440D02*
X81833720Y-63678440D01*
X17462500Y-37465000D02*
X17462500Y-110617000D01*
X177482500Y-37465000D02*
X17462500Y-37465000D01*
X177482500Y-110617000D02*
X177482500Y-37465000D01*
X17462500Y-110617000D02*
X177482500Y-110617000D01*
D11*
G36*
X148527972Y-104187416D02*
X148685912Y-104218832D01*
X148983463Y-104342082D01*
X149251252Y-104521013D01*
X149478987Y-104748748D01*
X149657918Y-105016537D01*
X149781168Y-105314088D01*
X149781168Y-105314090D01*
X149825974Y-105539341D01*
X149844000Y-105629967D01*
X149844000Y-105952033D01*
X149781168Y-106267912D01*
X149657918Y-106565463D01*
X149478987Y-106833252D01*
X149251252Y-107060987D01*
X148983463Y-107239918D01*
X148685912Y-107363168D01*
X148527972Y-107394584D01*
X148370035Y-107426000D01*
X148047965Y-107426000D01*
X147890028Y-107394584D01*
X147732088Y-107363168D01*
X147434537Y-107239918D01*
X147166748Y-107060987D01*
X146939013Y-106833252D01*
X146760082Y-106565463D01*
X146636832Y-106267912D01*
X146574000Y-105952033D01*
X146574000Y-105629967D01*
X146592027Y-105539341D01*
X146636832Y-105314090D01*
X146636832Y-105314088D01*
X146760082Y-105016537D01*
X146939013Y-104748748D01*
X147166748Y-104521013D01*
X147434537Y-104342082D01*
X147732088Y-104218832D01*
X147890028Y-104187416D01*
X148047965Y-104156000D01*
X148370035Y-104156000D01*
X148527972Y-104187416D01*
X148527972Y-104187416D01*
G37*
G36*
X170753839Y-102800968D02*
X171151488Y-102965678D01*
X171509358Y-103204800D01*
X171813700Y-103509142D01*
X172052822Y-103867012D01*
X172217532Y-104264661D01*
X172301500Y-104686795D01*
X172301500Y-105117205D01*
X172217532Y-105539339D01*
X172052822Y-105936988D01*
X171813700Y-106294858D01*
X171509358Y-106599200D01*
X171151488Y-106838322D01*
X170753839Y-107003032D01*
X170331705Y-107087000D01*
X169901295Y-107087000D01*
X169479161Y-107003032D01*
X169081512Y-106838322D01*
X168723642Y-106599200D01*
X168419300Y-106294858D01*
X168180178Y-105936988D01*
X168015468Y-105539339D01*
X167931500Y-105117205D01*
X167931500Y-104686795D01*
X168015468Y-104264661D01*
X168180178Y-103867012D01*
X168419300Y-103509142D01*
X168723642Y-103204800D01*
X169081512Y-102965678D01*
X169479161Y-102800968D01*
X169901295Y-102717000D01*
X170331705Y-102717000D01*
X170753839Y-102800968D01*
X170753839Y-102800968D01*
G37*
G36*
X28958339Y-102800968D02*
X29355988Y-102965678D01*
X29713858Y-103204800D01*
X30018200Y-103509142D01*
X30257322Y-103867012D01*
X30422032Y-104264661D01*
X30506000Y-104686795D01*
X30506000Y-105117205D01*
X30422032Y-105539339D01*
X30257322Y-105936988D01*
X30018200Y-106294858D01*
X29713858Y-106599200D01*
X29355988Y-106838322D01*
X28958339Y-107003032D01*
X28536205Y-107087000D01*
X28105795Y-107087000D01*
X27683661Y-107003032D01*
X27286012Y-106838322D01*
X26928142Y-106599200D01*
X26623800Y-106294858D01*
X26384678Y-105936988D01*
X26219968Y-105539339D01*
X26136000Y-105117205D01*
X26136000Y-104686795D01*
X26219968Y-104264661D01*
X26384678Y-103867012D01*
X26623800Y-103509142D01*
X26928142Y-103204800D01*
X27286012Y-102965678D01*
X27683661Y-102800968D01*
X28105795Y-102717000D01*
X28536205Y-102717000D01*
X28958339Y-102800968D01*
X28958339Y-102800968D01*
G37*
G36*
X164334000Y-104136000D02*
X162564000Y-104136000D01*
X162564000Y-102366000D01*
X164334000Y-102366000D01*
X164334000Y-104136000D01*
X164334000Y-104136000D01*
G37*
G36*
X163622490Y-99838805D02*
X163682687Y-99857066D01*
X163789312Y-99889410D01*
X163860880Y-99927664D01*
X163943059Y-99971589D01*
X164077817Y-100082183D01*
X164188411Y-100216941D01*
X164232336Y-100299120D01*
X164270590Y-100370688D01*
X164289920Y-100434411D01*
X164321195Y-100537510D01*
X164338282Y-100711000D01*
X164321195Y-100884490D01*
X164321194Y-100884492D01*
X164270590Y-101051312D01*
X164270589Y-101051313D01*
X164188411Y-101205059D01*
X164077817Y-101339817D01*
X163943059Y-101450411D01*
X163860880Y-101494336D01*
X163789312Y-101532590D01*
X163682687Y-101564934D01*
X163622490Y-101583195D01*
X163492477Y-101596000D01*
X163405523Y-101596000D01*
X163275510Y-101583195D01*
X163215313Y-101564934D01*
X163108688Y-101532590D01*
X163037120Y-101494336D01*
X162954941Y-101450411D01*
X162820183Y-101339817D01*
X162709589Y-101205059D01*
X162627411Y-101051313D01*
X162627410Y-101051312D01*
X162576806Y-100884492D01*
X162576805Y-100884490D01*
X162559718Y-100711000D01*
X162576805Y-100537510D01*
X162608080Y-100434411D01*
X162627410Y-100370688D01*
X162665664Y-100299120D01*
X162709589Y-100216941D01*
X162820183Y-100082183D01*
X162954941Y-99971589D01*
X163037120Y-99927664D01*
X163108688Y-99889410D01*
X163215313Y-99857066D01*
X163275510Y-99838805D01*
X163405523Y-99826000D01*
X163492477Y-99826000D01*
X163622490Y-99838805D01*
X163622490Y-99838805D01*
G37*
G36*
X139809990Y-98822805D02*
X139870187Y-98841066D01*
X139976812Y-98873410D01*
X140046036Y-98910411D01*
X140130559Y-98955589D01*
X140265317Y-99066183D01*
X140375911Y-99200941D01*
X140419836Y-99283120D01*
X140458090Y-99354688D01*
X140490434Y-99461313D01*
X140508695Y-99521510D01*
X140525782Y-99695000D01*
X140508695Y-99868490D01*
X140490434Y-99928688D01*
X140458090Y-100035312D01*
X140458089Y-100035313D01*
X140375911Y-100189059D01*
X140265317Y-100323817D01*
X140130559Y-100434411D01*
X140048380Y-100478336D01*
X139976812Y-100516590D01*
X139870187Y-100548934D01*
X139809990Y-100567195D01*
X139679977Y-100580000D01*
X139593023Y-100580000D01*
X139463010Y-100567195D01*
X139402813Y-100548934D01*
X139296188Y-100516590D01*
X139224620Y-100478336D01*
X139142441Y-100434411D01*
X139007683Y-100323817D01*
X138897089Y-100189059D01*
X138814911Y-100035313D01*
X138814910Y-100035312D01*
X138782566Y-99928687D01*
X138764305Y-99868490D01*
X138747218Y-99695000D01*
X138764305Y-99521510D01*
X138782566Y-99461313D01*
X138814910Y-99354688D01*
X138853164Y-99283120D01*
X138897089Y-99200941D01*
X139007683Y-99066183D01*
X139142441Y-98955589D01*
X139226964Y-98910411D01*
X139296188Y-98873410D01*
X139402813Y-98841066D01*
X139463010Y-98822805D01*
X139593023Y-98810000D01*
X139679977Y-98810000D01*
X139809990Y-98822805D01*
X139809990Y-98822805D01*
G37*
G36*
X143061500Y-100580000D02*
X141291500Y-100580000D01*
X141291500Y-98810000D01*
X143061500Y-98810000D01*
X143061500Y-100580000D01*
X143061500Y-100580000D01*
G37*
G36*
X137269990Y-98822805D02*
X137330187Y-98841066D01*
X137436812Y-98873410D01*
X137506036Y-98910411D01*
X137590559Y-98955589D01*
X137725317Y-99066183D01*
X137835911Y-99200941D01*
X137879836Y-99283120D01*
X137918090Y-99354688D01*
X137950434Y-99461313D01*
X137968695Y-99521510D01*
X137985782Y-99695000D01*
X137968695Y-99868490D01*
X137950434Y-99928688D01*
X137918090Y-100035312D01*
X137918089Y-100035313D01*
X137835911Y-100189059D01*
X137725317Y-100323817D01*
X137590559Y-100434411D01*
X137508380Y-100478336D01*
X137436812Y-100516590D01*
X137330187Y-100548934D01*
X137269990Y-100567195D01*
X137139977Y-100580000D01*
X137053023Y-100580000D01*
X136923010Y-100567195D01*
X136862813Y-100548934D01*
X136756188Y-100516590D01*
X136684620Y-100478336D01*
X136602441Y-100434411D01*
X136467683Y-100323817D01*
X136357089Y-100189059D01*
X136274911Y-100035313D01*
X136274910Y-100035312D01*
X136242566Y-99928687D01*
X136224305Y-99868490D01*
X136207218Y-99695000D01*
X136224305Y-99521510D01*
X136242566Y-99461313D01*
X136274910Y-99354688D01*
X136313164Y-99283120D01*
X136357089Y-99200941D01*
X136467683Y-99066183D01*
X136602441Y-98955589D01*
X136686964Y-98910411D01*
X136756188Y-98873410D01*
X136862813Y-98841066D01*
X136923010Y-98822805D01*
X137053023Y-98810000D01*
X137139977Y-98810000D01*
X137269990Y-98822805D01*
X137269990Y-98822805D01*
G37*
G36*
X134729990Y-98822805D02*
X134790187Y-98841066D01*
X134896812Y-98873410D01*
X134966036Y-98910411D01*
X135050559Y-98955589D01*
X135185317Y-99066183D01*
X135295911Y-99200941D01*
X135339836Y-99283120D01*
X135378090Y-99354688D01*
X135410434Y-99461313D01*
X135428695Y-99521510D01*
X135445782Y-99695000D01*
X135428695Y-99868490D01*
X135410434Y-99928688D01*
X135378090Y-100035312D01*
X135378089Y-100035313D01*
X135295911Y-100189059D01*
X135185317Y-100323817D01*
X135050559Y-100434411D01*
X134968380Y-100478336D01*
X134896812Y-100516590D01*
X134790187Y-100548934D01*
X134729990Y-100567195D01*
X134599977Y-100580000D01*
X134513023Y-100580000D01*
X134383010Y-100567195D01*
X134322813Y-100548934D01*
X134216188Y-100516590D01*
X134144620Y-100478336D01*
X134062441Y-100434411D01*
X133927683Y-100323817D01*
X133817089Y-100189059D01*
X133734911Y-100035313D01*
X133734910Y-100035312D01*
X133702566Y-99928687D01*
X133684305Y-99868490D01*
X133667218Y-99695000D01*
X133684305Y-99521510D01*
X133702566Y-99461313D01*
X133734910Y-99354688D01*
X133773164Y-99283120D01*
X133817089Y-99200941D01*
X133927683Y-99066183D01*
X134062441Y-98955589D01*
X134146964Y-98910411D01*
X134216188Y-98873410D01*
X134322813Y-98841066D01*
X134383010Y-98822805D01*
X134513023Y-98810000D01*
X134599977Y-98810000D01*
X134729990Y-98822805D01*
X134729990Y-98822805D01*
G37*
G36*
X163622490Y-97298805D02*
X163682687Y-97317066D01*
X163789312Y-97349410D01*
X163860880Y-97387664D01*
X163943059Y-97431589D01*
X164077817Y-97542183D01*
X164188411Y-97676941D01*
X164232336Y-97759120D01*
X164270590Y-97830688D01*
X164302934Y-97937312D01*
X164321195Y-97997510D01*
X164338282Y-98171000D01*
X164321195Y-98344490D01*
X164321194Y-98344492D01*
X164270590Y-98511312D01*
X164270589Y-98511313D01*
X164188411Y-98665059D01*
X164077817Y-98799817D01*
X163943059Y-98910411D01*
X163860880Y-98954336D01*
X163789312Y-98992590D01*
X163682687Y-99024934D01*
X163622490Y-99043195D01*
X163492477Y-99056000D01*
X163405523Y-99056000D01*
X163275510Y-99043195D01*
X163215313Y-99024934D01*
X163108688Y-98992590D01*
X163037120Y-98954336D01*
X162954941Y-98910411D01*
X162820183Y-98799817D01*
X162709589Y-98665059D01*
X162627411Y-98511313D01*
X162627410Y-98511312D01*
X162576806Y-98344492D01*
X162576805Y-98344490D01*
X162559718Y-98171000D01*
X162576805Y-97997510D01*
X162595066Y-97937312D01*
X162627410Y-97830688D01*
X162665664Y-97759120D01*
X162709589Y-97676941D01*
X162820183Y-97542183D01*
X162954941Y-97431589D01*
X163037120Y-97387664D01*
X163108688Y-97349410D01*
X163215313Y-97317066D01*
X163275510Y-97298805D01*
X163405523Y-97286000D01*
X163492477Y-97286000D01*
X163622490Y-97298805D01*
X163622490Y-97298805D01*
G37*
G36*
X163622490Y-94758805D02*
X163682687Y-94777066D01*
X163789312Y-94809410D01*
X163860880Y-94847664D01*
X163943059Y-94891589D01*
X164077817Y-95002183D01*
X164188411Y-95136941D01*
X164232336Y-95219120D01*
X164270590Y-95290688D01*
X164302934Y-95397313D01*
X164321195Y-95457510D01*
X164338282Y-95631000D01*
X164321195Y-95804490D01*
X164321194Y-95804492D01*
X164270590Y-95971312D01*
X164270589Y-95971313D01*
X164188411Y-96125059D01*
X164077817Y-96259817D01*
X163943059Y-96370411D01*
X163860880Y-96414336D01*
X163789312Y-96452590D01*
X163682687Y-96484934D01*
X163622490Y-96503195D01*
X163492477Y-96516000D01*
X163405523Y-96516000D01*
X163275510Y-96503195D01*
X163215313Y-96484934D01*
X163108688Y-96452590D01*
X163037120Y-96414336D01*
X162954941Y-96370411D01*
X162820183Y-96259817D01*
X162709589Y-96125059D01*
X162627411Y-95971313D01*
X162627410Y-95971312D01*
X162576806Y-95804492D01*
X162576805Y-95804490D01*
X162559718Y-95631000D01*
X162576805Y-95457510D01*
X162595066Y-95397313D01*
X162627410Y-95290688D01*
X162665664Y-95219120D01*
X162709589Y-95136941D01*
X162820183Y-95002183D01*
X162954941Y-94891589D01*
X163037120Y-94847664D01*
X163108688Y-94809410D01*
X163215313Y-94777066D01*
X163275510Y-94758805D01*
X163405523Y-94746000D01*
X163492477Y-94746000D01*
X163622490Y-94758805D01*
X163622490Y-94758805D01*
G37*
G36*
X169989235Y-89922183D02*
X170281574Y-89980333D01*
X170706517Y-90156350D01*
X170706519Y-90156351D01*
X171088957Y-90411888D01*
X171414192Y-90737123D01*
X171619948Y-91045058D01*
X171669730Y-91119563D01*
X171845747Y-91544506D01*
X171935480Y-91995623D01*
X171935480Y-92455577D01*
X171845747Y-92906694D01*
X171769405Y-93091000D01*
X171669729Y-93331639D01*
X171414192Y-93714077D01*
X171088957Y-94039312D01*
X170706519Y-94294849D01*
X170706518Y-94294850D01*
X170706517Y-94294850D01*
X170281574Y-94470867D01*
X170056015Y-94515734D01*
X169830458Y-94560600D01*
X169370502Y-94560600D01*
X169144945Y-94515734D01*
X168919386Y-94470867D01*
X168494443Y-94294850D01*
X168494442Y-94294850D01*
X168494441Y-94294849D01*
X168112003Y-94039312D01*
X167786768Y-93714077D01*
X167531231Y-93331639D01*
X167431555Y-93091000D01*
X167355213Y-92906694D01*
X167265480Y-92455577D01*
X167265480Y-91995623D01*
X167355213Y-91544506D01*
X167531230Y-91119563D01*
X167581013Y-91045058D01*
X167786768Y-90737123D01*
X168112003Y-90411888D01*
X168494441Y-90156351D01*
X168494443Y-90156350D01*
X168919386Y-89980333D01*
X169211725Y-89922183D01*
X169370502Y-89890600D01*
X169830458Y-89890600D01*
X169989235Y-89922183D01*
X169989235Y-89922183D01*
G37*
G36*
X163622490Y-92218805D02*
X163682687Y-92237066D01*
X163789312Y-92269410D01*
X163860880Y-92307664D01*
X163943059Y-92351589D01*
X164077817Y-92462183D01*
X164188411Y-92596941D01*
X164232336Y-92679120D01*
X164270590Y-92750688D01*
X164302934Y-92857313D01*
X164321195Y-92917510D01*
X164338282Y-93091000D01*
X164321195Y-93264490D01*
X164321194Y-93264492D01*
X164270590Y-93431312D01*
X164270589Y-93431313D01*
X164188411Y-93585059D01*
X164077817Y-93719817D01*
X163943059Y-93830411D01*
X163860880Y-93874336D01*
X163789312Y-93912590D01*
X163682687Y-93944934D01*
X163622490Y-93963195D01*
X163492477Y-93976000D01*
X163405523Y-93976000D01*
X163275510Y-93963195D01*
X163215313Y-93944934D01*
X163108688Y-93912590D01*
X163037120Y-93874336D01*
X162954941Y-93830411D01*
X162820183Y-93719817D01*
X162709589Y-93585059D01*
X162627411Y-93431313D01*
X162627410Y-93431312D01*
X162576806Y-93264492D01*
X162576805Y-93264490D01*
X162559718Y-93091000D01*
X162576805Y-92917510D01*
X162595066Y-92857313D01*
X162627410Y-92750688D01*
X162665664Y-92679120D01*
X162709589Y-92596941D01*
X162820183Y-92462183D01*
X162954941Y-92351589D01*
X163037120Y-92307664D01*
X163108688Y-92269410D01*
X163215313Y-92237066D01*
X163275510Y-92218805D01*
X163405523Y-92206000D01*
X163492477Y-92206000D01*
X163622490Y-92218805D01*
X163622490Y-92218805D01*
G37*
G36*
X163622490Y-89678805D02*
X163682687Y-89697066D01*
X163789312Y-89729410D01*
X163860880Y-89767664D01*
X163943059Y-89811589D01*
X164077817Y-89922183D01*
X164188411Y-90056941D01*
X164232336Y-90139120D01*
X164270590Y-90210688D01*
X164302934Y-90317313D01*
X164321195Y-90377510D01*
X164338282Y-90551000D01*
X164321195Y-90724490D01*
X164317362Y-90737124D01*
X164270590Y-90891312D01*
X164270589Y-90891313D01*
X164188411Y-91045059D01*
X164077817Y-91179817D01*
X163943059Y-91290411D01*
X163860880Y-91334336D01*
X163789312Y-91372590D01*
X163682687Y-91404934D01*
X163622490Y-91423195D01*
X163492477Y-91436000D01*
X163405523Y-91436000D01*
X163275510Y-91423195D01*
X163215313Y-91404934D01*
X163108688Y-91372590D01*
X163037120Y-91334336D01*
X162954941Y-91290411D01*
X162820183Y-91179817D01*
X162709589Y-91045059D01*
X162627411Y-90891313D01*
X162627410Y-90891312D01*
X162580638Y-90737124D01*
X162576805Y-90724490D01*
X162559718Y-90551000D01*
X162576805Y-90377510D01*
X162595066Y-90317313D01*
X162627410Y-90210688D01*
X162665664Y-90139120D01*
X162709589Y-90056941D01*
X162820183Y-89922183D01*
X162954941Y-89811589D01*
X163037120Y-89767664D01*
X163108688Y-89729410D01*
X163215313Y-89697066D01*
X163275510Y-89678805D01*
X163405523Y-89666000D01*
X163492477Y-89666000D01*
X163622490Y-89678805D01*
X163622490Y-89678805D01*
G37*
G36*
X163622490Y-87138805D02*
X163682687Y-87157066D01*
X163789312Y-87189410D01*
X163860880Y-87227664D01*
X163943059Y-87271589D01*
X164077817Y-87382183D01*
X164188411Y-87516941D01*
X164232336Y-87599120D01*
X164270590Y-87670688D01*
X164302934Y-87777313D01*
X164321195Y-87837510D01*
X164338282Y-88011000D01*
X164321195Y-88184490D01*
X164321194Y-88184492D01*
X164270590Y-88351312D01*
X164270589Y-88351313D01*
X164188411Y-88505059D01*
X164077817Y-88639817D01*
X163943059Y-88750411D01*
X163860880Y-88794336D01*
X163789312Y-88832590D01*
X163682687Y-88864934D01*
X163622490Y-88883195D01*
X163492477Y-88896000D01*
X163405523Y-88896000D01*
X163275510Y-88883195D01*
X163215313Y-88864934D01*
X163108688Y-88832590D01*
X163037120Y-88794336D01*
X162954941Y-88750411D01*
X162820183Y-88639817D01*
X162709589Y-88505059D01*
X162627411Y-88351313D01*
X162627410Y-88351312D01*
X162576806Y-88184492D01*
X162576805Y-88184490D01*
X162559718Y-88011000D01*
X162576805Y-87837510D01*
X162595066Y-87777313D01*
X162627410Y-87670688D01*
X162665664Y-87599120D01*
X162709589Y-87516941D01*
X162820183Y-87382183D01*
X162954941Y-87271589D01*
X163037120Y-87227664D01*
X163108688Y-87189410D01*
X163215313Y-87157066D01*
X163275510Y-87138805D01*
X163405523Y-87126000D01*
X163492477Y-87126000D01*
X163622490Y-87138805D01*
X163622490Y-87138805D01*
G37*
G36*
X163622490Y-84598805D02*
X163682687Y-84617066D01*
X163789312Y-84649410D01*
X163860880Y-84687664D01*
X163943059Y-84731589D01*
X164077817Y-84842183D01*
X164188411Y-84976941D01*
X164232336Y-85059120D01*
X164270590Y-85130688D01*
X164302934Y-85237313D01*
X164321195Y-85297510D01*
X164338282Y-85471000D01*
X164321195Y-85644490D01*
X164321194Y-85644492D01*
X164270590Y-85811312D01*
X164270589Y-85811313D01*
X164188411Y-85965059D01*
X164077817Y-86099817D01*
X163943059Y-86210411D01*
X163860880Y-86254336D01*
X163789312Y-86292590D01*
X163682687Y-86324934D01*
X163622490Y-86343195D01*
X163492477Y-86356000D01*
X163405523Y-86356000D01*
X163275510Y-86343195D01*
X163215313Y-86324934D01*
X163108688Y-86292590D01*
X163037120Y-86254336D01*
X162954941Y-86210411D01*
X162820183Y-86099817D01*
X162709589Y-85965059D01*
X162627411Y-85811313D01*
X162627410Y-85811312D01*
X162576806Y-85644492D01*
X162576805Y-85644490D01*
X162559718Y-85471000D01*
X162576805Y-85297510D01*
X162595066Y-85237313D01*
X162627410Y-85130688D01*
X162665664Y-85059120D01*
X162709589Y-84976941D01*
X162820183Y-84842183D01*
X162954941Y-84731589D01*
X163037120Y-84687664D01*
X163108688Y-84649410D01*
X163215313Y-84617066D01*
X163275510Y-84598805D01*
X163405523Y-84586000D01*
X163492477Y-84586000D01*
X163622490Y-84598805D01*
X163622490Y-84598805D01*
G37*
G36*
X116074000Y-86356000D02*
X114304000Y-86356000D01*
X114304000Y-84586000D01*
X116074000Y-84586000D01*
X116074000Y-86356000D01*
X116074000Y-86356000D01*
G37*
G36*
X168438625Y-84359610D02*
X168599685Y-84426323D01*
X168744635Y-84523176D01*
X168867904Y-84646445D01*
X168964757Y-84791395D01*
X169031470Y-84952455D01*
X169065480Y-85123435D01*
X169065480Y-85297765D01*
X169031470Y-85468745D01*
X168964757Y-85629805D01*
X168867904Y-85774755D01*
X168744635Y-85898024D01*
X168599685Y-85994877D01*
X168438625Y-86061590D01*
X168267645Y-86095600D01*
X168093315Y-86095600D01*
X167922335Y-86061590D01*
X167761275Y-85994877D01*
X167616325Y-85898024D01*
X167493056Y-85774755D01*
X167396203Y-85629805D01*
X167329490Y-85468745D01*
X167295480Y-85297765D01*
X167295480Y-85123435D01*
X167329490Y-84952455D01*
X167396203Y-84791395D01*
X167493056Y-84646445D01*
X167616325Y-84523176D01*
X167761275Y-84426323D01*
X167922335Y-84359610D01*
X168093315Y-84325600D01*
X168267645Y-84325600D01*
X168438625Y-84359610D01*
X168438625Y-84359610D01*
G37*
G36*
X171278625Y-82989610D02*
X171439685Y-83056323D01*
X171584635Y-83153176D01*
X171707904Y-83276445D01*
X171804757Y-83421395D01*
X171871470Y-83582455D01*
X171905480Y-83753435D01*
X171905480Y-83927765D01*
X171871470Y-84098745D01*
X171804757Y-84259805D01*
X171707904Y-84404755D01*
X171584635Y-84528024D01*
X171439685Y-84624877D01*
X171278625Y-84691590D01*
X171107645Y-84725600D01*
X170933315Y-84725600D01*
X170762335Y-84691590D01*
X170601275Y-84624877D01*
X170456325Y-84528024D01*
X170333056Y-84404755D01*
X170236203Y-84259805D01*
X170169490Y-84098745D01*
X170135480Y-83927765D01*
X170135480Y-83753435D01*
X170169490Y-83582455D01*
X170236203Y-83421395D01*
X170333056Y-83276445D01*
X170456325Y-83153176D01*
X170601275Y-83056323D01*
X170762335Y-82989610D01*
X170933315Y-82955600D01*
X171107645Y-82955600D01*
X171278625Y-82989610D01*
X171278625Y-82989610D01*
G37*
G36*
X28893972Y-80819416D02*
X29051912Y-80850832D01*
X29349463Y-80974082D01*
X29617252Y-81153013D01*
X29844987Y-81380748D01*
X30023918Y-81648537D01*
X30147168Y-81946088D01*
X30168115Y-82051395D01*
X30210000Y-82261965D01*
X30210000Y-82584035D01*
X30181216Y-82728743D01*
X30147168Y-82899912D01*
X30023918Y-83197463D01*
X29844987Y-83465252D01*
X29617252Y-83692987D01*
X29349463Y-83871918D01*
X29051912Y-83995168D01*
X28893973Y-84026584D01*
X28736035Y-84058000D01*
X28413965Y-84058000D01*
X28256027Y-84026584D01*
X28098088Y-83995168D01*
X27800537Y-83871918D01*
X27532748Y-83692987D01*
X27305013Y-83465252D01*
X27126082Y-83197463D01*
X27002832Y-82899912D01*
X26968784Y-82728743D01*
X26940000Y-82584035D01*
X26940000Y-82261965D01*
X26981885Y-82051395D01*
X27002832Y-81946088D01*
X27126082Y-81648537D01*
X27305013Y-81380748D01*
X27532748Y-81153013D01*
X27800537Y-80974082D01*
X28098088Y-80850832D01*
X28256028Y-80819416D01*
X28413965Y-80788000D01*
X28736035Y-80788000D01*
X28893972Y-80819416D01*
X28893972Y-80819416D01*
G37*
G36*
X115362490Y-82058805D02*
X115422687Y-82077066D01*
X115529312Y-82109410D01*
X115600880Y-82147664D01*
X115683059Y-82191589D01*
X115817817Y-82302183D01*
X115928411Y-82436941D01*
X115972336Y-82519120D01*
X116010590Y-82590688D01*
X116042934Y-82697313D01*
X116061195Y-82757510D01*
X116078282Y-82931000D01*
X116061195Y-83104490D01*
X116061194Y-83104492D01*
X116010590Y-83271312D01*
X116007846Y-83276445D01*
X115928411Y-83425059D01*
X115817817Y-83559817D01*
X115683059Y-83670411D01*
X115600880Y-83714336D01*
X115529312Y-83752590D01*
X115422687Y-83784934D01*
X115362490Y-83803195D01*
X115232477Y-83816000D01*
X115145523Y-83816000D01*
X115015510Y-83803195D01*
X114955313Y-83784934D01*
X114848688Y-83752590D01*
X114777120Y-83714336D01*
X114694941Y-83670411D01*
X114560183Y-83559817D01*
X114449589Y-83425059D01*
X114370154Y-83276445D01*
X114367410Y-83271312D01*
X114316806Y-83104492D01*
X114316805Y-83104490D01*
X114299718Y-82931000D01*
X114316805Y-82757510D01*
X114335066Y-82697312D01*
X114367410Y-82590688D01*
X114405664Y-82519120D01*
X114449589Y-82436941D01*
X114560183Y-82302183D01*
X114694941Y-82191589D01*
X114777120Y-82147664D01*
X114848688Y-82109410D01*
X114955313Y-82077066D01*
X115015510Y-82058805D01*
X115145523Y-82046000D01*
X115232477Y-82046000D01*
X115362490Y-82058805D01*
X115362490Y-82058805D01*
G37*
G36*
X168438625Y-81619610D02*
X168599685Y-81686323D01*
X168744635Y-81783176D01*
X168867904Y-81906445D01*
X168964757Y-82051395D01*
X169031470Y-82212455D01*
X169065480Y-82383435D01*
X169065480Y-82557765D01*
X169031470Y-82728745D01*
X168964757Y-82889805D01*
X168867904Y-83034755D01*
X168744635Y-83158024D01*
X168599685Y-83254877D01*
X168438625Y-83321590D01*
X168267645Y-83355600D01*
X168093315Y-83355600D01*
X167922335Y-83321590D01*
X167761275Y-83254877D01*
X167616325Y-83158024D01*
X167493056Y-83034755D01*
X167396203Y-82889805D01*
X167329490Y-82728745D01*
X167295480Y-82557765D01*
X167295480Y-82383435D01*
X167329490Y-82212455D01*
X167396203Y-82051395D01*
X167493056Y-81906445D01*
X167616325Y-81783176D01*
X167761275Y-81686323D01*
X167922335Y-81619610D01*
X168093315Y-81585600D01*
X168267645Y-81585600D01*
X168438625Y-81619610D01*
X168438625Y-81619610D01*
G37*
G36*
X164334000Y-82292000D02*
X162564000Y-82292000D01*
X162564000Y-80522000D01*
X164334000Y-80522000D01*
X164334000Y-82292000D01*
X164334000Y-82292000D01*
G37*
G36*
X171278625Y-80249610D02*
X171439685Y-80316323D01*
X171584635Y-80413176D01*
X171707904Y-80536445D01*
X171804757Y-80681395D01*
X171871470Y-80842455D01*
X171905480Y-81013435D01*
X171905480Y-81187765D01*
X171871470Y-81358745D01*
X171804757Y-81519805D01*
X171707904Y-81664755D01*
X171584635Y-81788024D01*
X171439685Y-81884877D01*
X171278625Y-81951590D01*
X171107645Y-81985600D01*
X170933315Y-81985600D01*
X170762335Y-81951590D01*
X170601275Y-81884877D01*
X170456325Y-81788024D01*
X170333056Y-81664755D01*
X170236203Y-81519805D01*
X170169490Y-81358745D01*
X170135480Y-81187765D01*
X170135480Y-81013435D01*
X170169490Y-80842455D01*
X170236203Y-80681395D01*
X170333056Y-80536445D01*
X170456325Y-80413176D01*
X170601275Y-80316323D01*
X170762335Y-80249610D01*
X170933315Y-80215600D01*
X171107645Y-80215600D01*
X171278625Y-80249610D01*
X171278625Y-80249610D01*
G37*
G36*
X115362490Y-79518805D02*
X115422687Y-79537066D01*
X115529312Y-79569410D01*
X115598536Y-79606411D01*
X115683059Y-79651589D01*
X115817817Y-79762183D01*
X115928411Y-79896941D01*
X115972336Y-79979120D01*
X116010590Y-80050688D01*
X116040657Y-80149805D01*
X116061195Y-80217510D01*
X116078282Y-80391000D01*
X116061195Y-80564490D01*
X116045691Y-80615600D01*
X116010590Y-80731312D01*
X116010589Y-80731313D01*
X115928411Y-80885059D01*
X115817817Y-81019817D01*
X115683059Y-81130411D01*
X115640773Y-81153013D01*
X115529312Y-81212590D01*
X115422687Y-81244934D01*
X115362490Y-81263195D01*
X115232477Y-81276000D01*
X115145523Y-81276000D01*
X115015510Y-81263195D01*
X114955313Y-81244934D01*
X114848688Y-81212590D01*
X114737227Y-81153013D01*
X114694941Y-81130411D01*
X114560183Y-81019817D01*
X114449589Y-80885059D01*
X114367411Y-80731313D01*
X114367410Y-80731312D01*
X114332309Y-80615600D01*
X114316805Y-80564490D01*
X114299718Y-80391000D01*
X114316805Y-80217510D01*
X114337343Y-80149805D01*
X114367410Y-80050688D01*
X114405664Y-79979120D01*
X114449589Y-79896941D01*
X114560183Y-79762183D01*
X114694941Y-79651589D01*
X114779464Y-79606411D01*
X114848688Y-79569410D01*
X114955313Y-79537066D01*
X115015510Y-79518805D01*
X115145523Y-79506000D01*
X115232477Y-79506000D01*
X115362490Y-79518805D01*
X115362490Y-79518805D01*
G37*
G36*
X168438625Y-78879610D02*
X168599685Y-78946323D01*
X168744635Y-79043176D01*
X168867904Y-79166445D01*
X168964757Y-79311395D01*
X169031470Y-79472455D01*
X169065480Y-79643435D01*
X169065480Y-79817765D01*
X169031470Y-79988745D01*
X168964757Y-80149805D01*
X168867904Y-80294755D01*
X168744635Y-80418024D01*
X168599685Y-80514877D01*
X168438625Y-80581590D01*
X168267645Y-80615600D01*
X168093315Y-80615600D01*
X167922335Y-80581590D01*
X167761275Y-80514877D01*
X167616325Y-80418024D01*
X167493056Y-80294755D01*
X167396203Y-80149805D01*
X167329490Y-79988745D01*
X167295480Y-79817765D01*
X167295480Y-79643435D01*
X167329490Y-79472455D01*
X167396203Y-79311395D01*
X167493056Y-79166445D01*
X167616325Y-79043176D01*
X167761275Y-78946323D01*
X167922335Y-78879610D01*
X168093315Y-78845600D01*
X168267645Y-78845600D01*
X168438625Y-78879610D01*
X168438625Y-78879610D01*
G37*
G36*
X163622490Y-77994805D02*
X163682687Y-78013066D01*
X163789312Y-78045410D01*
X163860880Y-78083664D01*
X163943059Y-78127589D01*
X164077817Y-78238183D01*
X164188411Y-78372941D01*
X164228405Y-78447765D01*
X164270590Y-78526688D01*
X164289920Y-78590411D01*
X164321195Y-78693510D01*
X164338282Y-78867000D01*
X164321195Y-79040490D01*
X164302934Y-79100687D01*
X164270590Y-79207312D01*
X164232336Y-79278880D01*
X164188411Y-79361059D01*
X164077817Y-79495817D01*
X163943059Y-79606411D01*
X163873791Y-79643435D01*
X163789312Y-79688590D01*
X163682688Y-79720934D01*
X163622490Y-79739195D01*
X163492477Y-79752000D01*
X163405523Y-79752000D01*
X163275510Y-79739195D01*
X163215313Y-79720934D01*
X163108688Y-79688590D01*
X163024209Y-79643435D01*
X162954941Y-79606411D01*
X162820183Y-79495817D01*
X162709589Y-79361059D01*
X162665664Y-79278880D01*
X162627410Y-79207312D01*
X162595066Y-79100687D01*
X162576805Y-79040490D01*
X162559718Y-78867000D01*
X162576805Y-78693510D01*
X162608080Y-78590411D01*
X162627410Y-78526688D01*
X162669595Y-78447765D01*
X162709589Y-78372941D01*
X162820183Y-78238183D01*
X162954941Y-78127589D01*
X163037120Y-78083664D01*
X163108688Y-78045410D01*
X163215313Y-78013066D01*
X163275510Y-77994805D01*
X163405523Y-77982000D01*
X163492477Y-77982000D01*
X163622490Y-77994805D01*
X163622490Y-77994805D01*
G37*
G36*
X171278625Y-77509610D02*
X171439685Y-77576323D01*
X171584635Y-77673176D01*
X171707904Y-77796445D01*
X171804757Y-77941395D01*
X171871470Y-78102455D01*
X171905480Y-78273435D01*
X171905480Y-78447765D01*
X171871470Y-78618745D01*
X171804757Y-78779805D01*
X171707904Y-78924755D01*
X171584635Y-79048024D01*
X171439685Y-79144877D01*
X171278625Y-79211590D01*
X171107645Y-79245600D01*
X170933315Y-79245600D01*
X170762335Y-79211590D01*
X170601275Y-79144877D01*
X170456325Y-79048024D01*
X170333056Y-78924755D01*
X170236203Y-78779805D01*
X170169490Y-78618745D01*
X170135480Y-78447765D01*
X170135480Y-78273435D01*
X170169490Y-78102455D01*
X170236203Y-77941395D01*
X170333056Y-77796445D01*
X170456325Y-77673176D01*
X170601275Y-77576323D01*
X170762335Y-77509610D01*
X170933315Y-77475600D01*
X171107645Y-77475600D01*
X171278625Y-77509610D01*
X171278625Y-77509610D01*
G37*
G36*
X115362490Y-76978805D02*
X115422687Y-76997066D01*
X115529312Y-77029410D01*
X115598536Y-77066411D01*
X115683059Y-77111589D01*
X115817817Y-77222183D01*
X115928411Y-77356941D01*
X115972336Y-77439120D01*
X116010590Y-77510688D01*
X116030500Y-77576323D01*
X116061195Y-77677510D01*
X116078282Y-77851000D01*
X116061195Y-78024490D01*
X116042934Y-78084687D01*
X116010590Y-78191312D01*
X116010589Y-78191313D01*
X115928411Y-78345059D01*
X115817817Y-78479817D01*
X115683059Y-78590411D01*
X115630053Y-78618743D01*
X115529312Y-78672590D01*
X115422688Y-78704934D01*
X115362490Y-78723195D01*
X115232477Y-78736000D01*
X115145523Y-78736000D01*
X115015510Y-78723195D01*
X114955313Y-78704934D01*
X114848688Y-78672590D01*
X114747947Y-78618743D01*
X114694941Y-78590411D01*
X114560183Y-78479817D01*
X114449589Y-78345059D01*
X114367411Y-78191313D01*
X114367410Y-78191312D01*
X114335066Y-78084687D01*
X114316805Y-78024490D01*
X114299718Y-77851000D01*
X114316805Y-77677510D01*
X114347500Y-77576323D01*
X114367410Y-77510688D01*
X114405664Y-77439120D01*
X114449589Y-77356941D01*
X114560183Y-77222183D01*
X114694941Y-77111589D01*
X114779464Y-77066411D01*
X114848688Y-77029410D01*
X114955313Y-76997066D01*
X115015510Y-76978805D01*
X115145523Y-76966000D01*
X115232477Y-76966000D01*
X115362490Y-76978805D01*
X115362490Y-76978805D01*
G37*
G36*
X168438625Y-76139610D02*
X168599685Y-76206323D01*
X168744635Y-76303176D01*
X168867904Y-76426445D01*
X168964757Y-76571395D01*
X169031470Y-76732455D01*
X169065480Y-76903435D01*
X169065480Y-77077765D01*
X169031470Y-77248745D01*
X168964757Y-77409805D01*
X168867904Y-77554755D01*
X168744635Y-77678024D01*
X168599685Y-77774877D01*
X168438625Y-77841590D01*
X168267645Y-77875600D01*
X168093315Y-77875600D01*
X167922335Y-77841590D01*
X167761275Y-77774877D01*
X167616325Y-77678024D01*
X167493056Y-77554755D01*
X167396203Y-77409805D01*
X167329490Y-77248745D01*
X167295480Y-77077765D01*
X167295480Y-76903435D01*
X167329490Y-76732455D01*
X167396203Y-76571395D01*
X167493056Y-76426445D01*
X167616325Y-76303176D01*
X167761275Y-76206323D01*
X167922335Y-76139610D01*
X168093315Y-76105600D01*
X168267645Y-76105600D01*
X168438625Y-76139610D01*
X168438625Y-76139610D01*
G37*
G36*
X163622490Y-75454805D02*
X163682687Y-75473066D01*
X163789312Y-75505410D01*
X163841743Y-75533435D01*
X163943059Y-75587589D01*
X164077817Y-75698183D01*
X164188411Y-75832941D01*
X164191088Y-75837950D01*
X164270590Y-75986688D01*
X164286703Y-76039806D01*
X164321195Y-76153510D01*
X164338282Y-76327000D01*
X164321195Y-76500490D01*
X164321194Y-76500492D01*
X164270590Y-76667312D01*
X164270589Y-76667313D01*
X164188411Y-76821059D01*
X164077817Y-76955817D01*
X163943059Y-77066411D01*
X163860880Y-77110336D01*
X163789312Y-77148590D01*
X163682687Y-77180934D01*
X163622490Y-77199195D01*
X163492477Y-77212000D01*
X163405523Y-77212000D01*
X163275510Y-77199195D01*
X163215313Y-77180934D01*
X163108688Y-77148590D01*
X163037120Y-77110336D01*
X162954941Y-77066411D01*
X162820183Y-76955817D01*
X162709589Y-76821059D01*
X162627411Y-76667313D01*
X162627410Y-76667312D01*
X162576806Y-76500492D01*
X162576805Y-76500490D01*
X162559718Y-76327000D01*
X162576805Y-76153510D01*
X162611297Y-76039806D01*
X162627410Y-75986688D01*
X162706912Y-75837950D01*
X162709589Y-75832941D01*
X162820183Y-75698183D01*
X162954941Y-75587589D01*
X163056257Y-75533435D01*
X163108688Y-75505410D01*
X163215313Y-75473066D01*
X163275510Y-75454805D01*
X163405523Y-75442000D01*
X163492477Y-75442000D01*
X163622490Y-75454805D01*
X163622490Y-75454805D01*
G37*
G36*
X171278625Y-74769610D02*
X171439685Y-74836323D01*
X171584635Y-74933176D01*
X171707904Y-75056445D01*
X171804757Y-75201395D01*
X171871470Y-75362455D01*
X171905480Y-75533435D01*
X171905480Y-75707765D01*
X171871470Y-75878745D01*
X171804757Y-76039805D01*
X171707904Y-76184755D01*
X171584635Y-76308024D01*
X171439685Y-76404877D01*
X171278625Y-76471590D01*
X171107645Y-76505600D01*
X170933315Y-76505600D01*
X170762335Y-76471590D01*
X170601275Y-76404877D01*
X170456325Y-76308024D01*
X170333056Y-76184755D01*
X170236203Y-76039805D01*
X170169490Y-75878745D01*
X170135480Y-75707765D01*
X170135480Y-75533435D01*
X170169490Y-75362455D01*
X170236203Y-75201395D01*
X170333056Y-75056445D01*
X170456325Y-74933176D01*
X170601275Y-74836323D01*
X170762335Y-74769610D01*
X170933315Y-74735600D01*
X171107645Y-74735600D01*
X171278625Y-74769610D01*
X171278625Y-74769610D01*
G37*
G36*
X115362490Y-74438805D02*
X115422687Y-74457066D01*
X115529312Y-74489410D01*
X115598536Y-74526411D01*
X115683059Y-74571589D01*
X115817817Y-74682183D01*
X115928411Y-74816941D01*
X115938771Y-74836324D01*
X116010590Y-74970688D01*
X116024444Y-75016360D01*
X116061195Y-75137510D01*
X116078282Y-75311000D01*
X116061195Y-75484490D01*
X116053329Y-75510419D01*
X116010590Y-75651312D01*
X116010589Y-75651313D01*
X115928411Y-75805059D01*
X115817817Y-75939817D01*
X115683059Y-76050411D01*
X115600880Y-76094336D01*
X115529312Y-76132590D01*
X115422688Y-76164934D01*
X115362490Y-76183195D01*
X115232477Y-76196000D01*
X115145523Y-76196000D01*
X115015510Y-76183195D01*
X114955313Y-76164934D01*
X114848688Y-76132590D01*
X114777120Y-76094336D01*
X114694941Y-76050411D01*
X114560183Y-75939817D01*
X114449589Y-75805059D01*
X114367411Y-75651313D01*
X114367410Y-75651312D01*
X114324671Y-75510419D01*
X114316805Y-75484490D01*
X114299718Y-75311000D01*
X114316805Y-75137510D01*
X114353556Y-75016360D01*
X114367410Y-74970688D01*
X114439229Y-74836324D01*
X114449589Y-74816941D01*
X114560183Y-74682183D01*
X114694941Y-74571589D01*
X114779464Y-74526411D01*
X114848688Y-74489410D01*
X114955313Y-74457066D01*
X115015510Y-74438805D01*
X115145523Y-74426000D01*
X115232477Y-74426000D01*
X115362490Y-74438805D01*
X115362490Y-74438805D01*
G37*
G36*
X76449690Y-74144165D02*
X76509887Y-74162426D01*
X76616512Y-74194770D01*
X76688080Y-74233024D01*
X76770259Y-74276949D01*
X76905017Y-74387543D01*
X77015611Y-74522301D01*
X77059536Y-74604480D01*
X77097790Y-74676048D01*
X77130134Y-74782673D01*
X77148395Y-74842870D01*
X77165482Y-75016360D01*
X77148395Y-75189850D01*
X77130134Y-75250047D01*
X77097790Y-75356672D01*
X77059536Y-75428240D01*
X77015611Y-75510419D01*
X76905017Y-75645177D01*
X76770259Y-75755771D01*
X76688080Y-75799696D01*
X76616512Y-75837950D01*
X76509887Y-75870294D01*
X76449690Y-75888555D01*
X76319677Y-75901360D01*
X76232723Y-75901360D01*
X76102710Y-75888555D01*
X76042513Y-75870294D01*
X75935888Y-75837950D01*
X75864320Y-75799696D01*
X75782141Y-75755771D01*
X75647383Y-75645177D01*
X75536789Y-75510419D01*
X75492864Y-75428240D01*
X75454610Y-75356672D01*
X75422266Y-75250047D01*
X75404005Y-75189850D01*
X75386918Y-75016360D01*
X75404005Y-74842870D01*
X75422266Y-74782673D01*
X75454610Y-74676048D01*
X75492864Y-74604480D01*
X75536789Y-74522301D01*
X75647383Y-74387543D01*
X75782141Y-74276949D01*
X75864320Y-74233024D01*
X75935888Y-74194770D01*
X76042513Y-74162426D01*
X76102710Y-74144165D01*
X76232723Y-74131360D01*
X76319677Y-74131360D01*
X76449690Y-74144165D01*
X76449690Y-74144165D01*
G37*
G36*
X78989690Y-74144165D02*
X79049887Y-74162426D01*
X79156512Y-74194770D01*
X79228080Y-74233024D01*
X79310259Y-74276949D01*
X79445017Y-74387543D01*
X79555611Y-74522301D01*
X79599536Y-74604480D01*
X79637790Y-74676048D01*
X79670134Y-74782673D01*
X79688395Y-74842870D01*
X79705482Y-75016360D01*
X79688395Y-75189850D01*
X79670134Y-75250047D01*
X79637790Y-75356672D01*
X79599536Y-75428240D01*
X79555611Y-75510419D01*
X79445017Y-75645177D01*
X79310259Y-75755771D01*
X79228080Y-75799696D01*
X79156512Y-75837950D01*
X79049887Y-75870294D01*
X78989690Y-75888555D01*
X78859677Y-75901360D01*
X78772723Y-75901360D01*
X78642710Y-75888555D01*
X78582513Y-75870294D01*
X78475888Y-75837950D01*
X78404320Y-75799696D01*
X78322141Y-75755771D01*
X78187383Y-75645177D01*
X78076789Y-75510419D01*
X78032864Y-75428240D01*
X77994610Y-75356672D01*
X77962266Y-75250047D01*
X77944005Y-75189850D01*
X77926918Y-75016360D01*
X77944005Y-74842870D01*
X77962266Y-74782673D01*
X77994610Y-74676048D01*
X78032864Y-74604480D01*
X78076789Y-74522301D01*
X78187383Y-74387543D01*
X78322141Y-74276949D01*
X78404320Y-74233024D01*
X78475888Y-74194770D01*
X78582513Y-74162426D01*
X78642710Y-74144165D01*
X78772723Y-74131360D01*
X78859677Y-74131360D01*
X78989690Y-74144165D01*
X78989690Y-74144165D01*
G37*
G36*
X73909690Y-74144165D02*
X73969887Y-74162426D01*
X74076512Y-74194770D01*
X74148080Y-74233024D01*
X74230259Y-74276949D01*
X74365017Y-74387543D01*
X74475611Y-74522301D01*
X74519536Y-74604480D01*
X74557790Y-74676048D01*
X74590134Y-74782673D01*
X74608395Y-74842870D01*
X74625482Y-75016360D01*
X74608395Y-75189850D01*
X74590134Y-75250047D01*
X74557790Y-75356672D01*
X74519536Y-75428240D01*
X74475611Y-75510419D01*
X74365017Y-75645177D01*
X74230259Y-75755771D01*
X74148080Y-75799696D01*
X74076512Y-75837950D01*
X73969887Y-75870294D01*
X73909690Y-75888555D01*
X73779677Y-75901360D01*
X73692723Y-75901360D01*
X73562710Y-75888555D01*
X73502513Y-75870294D01*
X73395888Y-75837950D01*
X73324320Y-75799696D01*
X73242141Y-75755771D01*
X73107383Y-75645177D01*
X72996789Y-75510419D01*
X72952864Y-75428240D01*
X72914610Y-75356672D01*
X72882266Y-75250047D01*
X72864005Y-75189850D01*
X72846918Y-75016360D01*
X72864005Y-74842870D01*
X72882266Y-74782673D01*
X72914610Y-74676048D01*
X72952864Y-74604480D01*
X72996789Y-74522301D01*
X73107383Y-74387543D01*
X73242141Y-74276949D01*
X73324320Y-74233024D01*
X73395888Y-74194770D01*
X73502513Y-74162426D01*
X73562710Y-74144165D01*
X73692723Y-74131360D01*
X73779677Y-74131360D01*
X73909690Y-74144165D01*
X73909690Y-74144165D01*
G37*
G36*
X72081200Y-75901360D02*
X70311200Y-75901360D01*
X70311200Y-74131360D01*
X72081200Y-74131360D01*
X72081200Y-75901360D01*
X72081200Y-75901360D01*
G37*
G36*
X168438625Y-73399610D02*
X168599685Y-73466323D01*
X168744635Y-73563176D01*
X168867904Y-73686445D01*
X168964757Y-73831395D01*
X169031470Y-73992455D01*
X169065480Y-74163435D01*
X169065480Y-74337765D01*
X169031470Y-74508745D01*
X168964757Y-74669805D01*
X168867904Y-74814755D01*
X168744635Y-74938024D01*
X168599685Y-75034877D01*
X168438625Y-75101590D01*
X168267645Y-75135600D01*
X168093315Y-75135600D01*
X167922335Y-75101590D01*
X167761275Y-75034877D01*
X167616325Y-74938024D01*
X167493056Y-74814755D01*
X167396203Y-74669805D01*
X167329490Y-74508745D01*
X167295480Y-74337765D01*
X167295480Y-74163435D01*
X167329490Y-73992455D01*
X167396203Y-73831395D01*
X167493056Y-73686445D01*
X167616325Y-73563176D01*
X167761275Y-73466323D01*
X167922335Y-73399610D01*
X168093315Y-73365600D01*
X168267645Y-73365600D01*
X168438625Y-73399610D01*
X168438625Y-73399610D01*
G37*
G36*
X163622490Y-72914805D02*
X163682687Y-72933066D01*
X163789312Y-72965410D01*
X163860880Y-73003664D01*
X163943059Y-73047589D01*
X164077817Y-73158183D01*
X164188411Y-73292941D01*
X164227248Y-73365600D01*
X164270590Y-73446688D01*
X164276546Y-73466323D01*
X164321195Y-73613510D01*
X164338282Y-73787000D01*
X164321195Y-73960490D01*
X164321194Y-73960492D01*
X164270590Y-74127312D01*
X164270589Y-74127313D01*
X164188411Y-74281059D01*
X164077817Y-74415817D01*
X163943059Y-74526411D01*
X163860880Y-74570336D01*
X163789312Y-74608590D01*
X163682688Y-74640934D01*
X163622490Y-74659195D01*
X163492477Y-74672000D01*
X163405523Y-74672000D01*
X163275510Y-74659195D01*
X163215313Y-74640934D01*
X163108688Y-74608590D01*
X163037120Y-74570336D01*
X162954941Y-74526411D01*
X162820183Y-74415817D01*
X162709589Y-74281059D01*
X162627411Y-74127313D01*
X162627410Y-74127312D01*
X162576806Y-73960492D01*
X162576805Y-73960490D01*
X162559718Y-73787000D01*
X162576805Y-73613510D01*
X162621454Y-73466323D01*
X162627410Y-73446688D01*
X162670752Y-73365600D01*
X162709589Y-73292941D01*
X162820183Y-73158183D01*
X162954941Y-73047589D01*
X163037120Y-73003664D01*
X163108688Y-72965410D01*
X163215313Y-72933066D01*
X163275510Y-72914805D01*
X163405523Y-72902000D01*
X163492477Y-72902000D01*
X163622490Y-72914805D01*
X163622490Y-72914805D01*
G37*
G36*
X115362490Y-71898805D02*
X115422687Y-71917066D01*
X115529312Y-71949410D01*
X115598536Y-71986411D01*
X115683059Y-72031589D01*
X115817817Y-72142183D01*
X115928411Y-72276941D01*
X115972336Y-72359120D01*
X116010590Y-72430688D01*
X116042934Y-72537313D01*
X116061195Y-72597510D01*
X116078282Y-72771000D01*
X116061195Y-72944490D01*
X116042934Y-73004687D01*
X116010590Y-73111312D01*
X116010589Y-73111313D01*
X115928411Y-73265059D01*
X115817817Y-73399817D01*
X115683059Y-73510411D01*
X115600880Y-73554336D01*
X115529312Y-73592590D01*
X115422687Y-73624934D01*
X115362490Y-73643195D01*
X115232477Y-73656000D01*
X115145523Y-73656000D01*
X115015510Y-73643195D01*
X114955313Y-73624934D01*
X114848688Y-73592590D01*
X114777120Y-73554336D01*
X114694941Y-73510411D01*
X114560183Y-73399817D01*
X114449589Y-73265059D01*
X114367411Y-73111313D01*
X114367410Y-73111312D01*
X114335066Y-73004687D01*
X114316805Y-72944490D01*
X114299718Y-72771000D01*
X114316805Y-72597510D01*
X114335066Y-72537313D01*
X114367410Y-72430688D01*
X114405664Y-72359120D01*
X114449589Y-72276941D01*
X114560183Y-72142183D01*
X114694941Y-72031589D01*
X114779464Y-71986411D01*
X114848688Y-71949410D01*
X114955313Y-71917066D01*
X115015510Y-71898805D01*
X115145523Y-71886000D01*
X115232477Y-71886000D01*
X115362490Y-71898805D01*
X115362490Y-71898805D01*
G37*
G36*
X163622490Y-70374805D02*
X163682687Y-70393066D01*
X163789312Y-70425410D01*
X163860880Y-70463664D01*
X163943059Y-70507589D01*
X164077817Y-70618183D01*
X164188411Y-70752941D01*
X164232336Y-70835120D01*
X164270590Y-70906688D01*
X164289920Y-70970411D01*
X164321195Y-71073510D01*
X164338282Y-71247000D01*
X164321195Y-71420490D01*
X164321194Y-71420492D01*
X164270590Y-71587312D01*
X164270589Y-71587313D01*
X164188411Y-71741059D01*
X164077817Y-71875817D01*
X163943059Y-71986411D01*
X163860880Y-72030336D01*
X163789312Y-72068590D01*
X163682687Y-72100934D01*
X163622490Y-72119195D01*
X163492477Y-72132000D01*
X163405523Y-72132000D01*
X163275510Y-72119195D01*
X163215313Y-72100934D01*
X163108688Y-72068590D01*
X163037120Y-72030336D01*
X162954941Y-71986411D01*
X162820183Y-71875817D01*
X162709589Y-71741059D01*
X162627411Y-71587313D01*
X162627410Y-71587312D01*
X162576806Y-71420492D01*
X162576805Y-71420490D01*
X162559718Y-71247000D01*
X162576805Y-71073510D01*
X162608080Y-70970411D01*
X162627410Y-70906688D01*
X162665664Y-70835120D01*
X162709589Y-70752941D01*
X162820183Y-70618183D01*
X162954941Y-70507589D01*
X163037120Y-70463664D01*
X163108688Y-70425410D01*
X163215313Y-70393066D01*
X163275510Y-70374805D01*
X163405523Y-70362000D01*
X163492477Y-70362000D01*
X163622490Y-70374805D01*
X163622490Y-70374805D01*
G37*
G36*
X115362490Y-69358805D02*
X115422687Y-69377066D01*
X115529312Y-69409410D01*
X115598536Y-69446411D01*
X115683059Y-69491589D01*
X115817817Y-69602183D01*
X115928411Y-69736941D01*
X115972336Y-69819120D01*
X116010590Y-69890688D01*
X116042934Y-69997313D01*
X116061195Y-70057510D01*
X116078282Y-70231000D01*
X116061195Y-70404490D01*
X116042934Y-70464687D01*
X116010590Y-70571312D01*
X116010589Y-70571313D01*
X115928411Y-70725059D01*
X115817817Y-70859817D01*
X115683059Y-70970411D01*
X115600880Y-71014336D01*
X115529312Y-71052590D01*
X115422688Y-71084934D01*
X115362490Y-71103195D01*
X115232477Y-71116000D01*
X115145523Y-71116000D01*
X115015510Y-71103195D01*
X114955313Y-71084934D01*
X114848688Y-71052590D01*
X114777120Y-71014336D01*
X114694941Y-70970411D01*
X114560183Y-70859817D01*
X114449589Y-70725059D01*
X114367411Y-70571313D01*
X114367410Y-70571312D01*
X114335066Y-70464687D01*
X114316805Y-70404490D01*
X114299718Y-70231000D01*
X114316805Y-70057510D01*
X114335066Y-69997313D01*
X114367410Y-69890688D01*
X114405664Y-69819120D01*
X114449589Y-69736941D01*
X114560183Y-69602183D01*
X114694941Y-69491589D01*
X114779464Y-69446411D01*
X114848688Y-69409410D01*
X114955313Y-69377066D01*
X115015510Y-69358805D01*
X115145523Y-69346000D01*
X115232477Y-69346000D01*
X115362490Y-69358805D01*
X115362490Y-69358805D01*
G37*
G36*
X163622490Y-67834805D02*
X163682687Y-67853066D01*
X163789312Y-67885410D01*
X163847838Y-67916693D01*
X163943059Y-67967589D01*
X164077817Y-68078183D01*
X164188411Y-68212941D01*
X164232336Y-68295120D01*
X164270590Y-68366688D01*
X164289920Y-68430411D01*
X164321195Y-68533510D01*
X164338282Y-68707000D01*
X164321195Y-68880490D01*
X164321194Y-68880492D01*
X164270590Y-69047312D01*
X164270589Y-69047313D01*
X164188411Y-69201059D01*
X164077817Y-69335817D01*
X163943059Y-69446411D01*
X163860880Y-69490336D01*
X163789312Y-69528590D01*
X163682687Y-69560934D01*
X163622490Y-69579195D01*
X163492477Y-69592000D01*
X163405523Y-69592000D01*
X163275510Y-69579195D01*
X163215313Y-69560934D01*
X163108688Y-69528590D01*
X163037120Y-69490336D01*
X162954941Y-69446411D01*
X162820183Y-69335817D01*
X162709589Y-69201059D01*
X162627411Y-69047313D01*
X162627410Y-69047312D01*
X162576806Y-68880492D01*
X162576805Y-68880490D01*
X162559718Y-68707000D01*
X162576805Y-68533510D01*
X162608080Y-68430411D01*
X162627410Y-68366688D01*
X162665664Y-68295120D01*
X162709589Y-68212941D01*
X162820183Y-68078183D01*
X162954941Y-67967589D01*
X163050162Y-67916693D01*
X163108688Y-67885410D01*
X163215313Y-67853066D01*
X163275510Y-67834805D01*
X163405523Y-67822000D01*
X163492477Y-67822000D01*
X163622490Y-67834805D01*
X163622490Y-67834805D01*
G37*
G36*
X170056016Y-64945467D02*
X170281574Y-64990333D01*
X170437911Y-65055090D01*
X170706519Y-65166351D01*
X170879600Y-65282000D01*
X171012749Y-65370967D01*
X171088957Y-65421888D01*
X171414192Y-65747123D01*
X171589113Y-66008910D01*
X171669730Y-66129563D01*
X171845747Y-66554506D01*
X171866942Y-66661059D01*
X171915746Y-66906411D01*
X171935480Y-67005623D01*
X171935480Y-67465577D01*
X171845747Y-67916694D01*
X171723037Y-68212942D01*
X171669729Y-68341639D01*
X171610413Y-68430411D01*
X171425603Y-68707000D01*
X171414192Y-68724077D01*
X171088957Y-69049312D01*
X170706519Y-69304849D01*
X170706518Y-69304850D01*
X170706517Y-69304850D01*
X170281574Y-69480867D01*
X170056015Y-69525734D01*
X169830458Y-69570600D01*
X169370502Y-69570600D01*
X169144945Y-69525734D01*
X168919386Y-69480867D01*
X168494443Y-69304850D01*
X168494442Y-69304850D01*
X168494441Y-69304849D01*
X168112003Y-69049312D01*
X167786768Y-68724077D01*
X167775358Y-68707000D01*
X167590547Y-68430411D01*
X167531231Y-68341639D01*
X167477923Y-68212942D01*
X167355213Y-67916694D01*
X167265480Y-67465577D01*
X167265480Y-67005623D01*
X167285215Y-66906411D01*
X167334018Y-66661059D01*
X167355213Y-66554506D01*
X167531230Y-66129563D01*
X167611848Y-66008910D01*
X167786768Y-65747123D01*
X168112003Y-65421888D01*
X168188212Y-65370967D01*
X168321360Y-65282000D01*
X168494441Y-65166351D01*
X168763049Y-65055090D01*
X168919386Y-64990333D01*
X169144944Y-64945467D01*
X169370502Y-64900600D01*
X169830458Y-64900600D01*
X170056016Y-64945467D01*
X170056016Y-64945467D01*
G37*
G36*
X115362490Y-66818805D02*
X115422687Y-66837066D01*
X115529312Y-66869410D01*
X115598536Y-66906411D01*
X115683059Y-66951589D01*
X115817817Y-67062183D01*
X115928411Y-67196941D01*
X115972336Y-67279120D01*
X116010590Y-67350688D01*
X116042934Y-67457313D01*
X116061195Y-67517510D01*
X116078282Y-67691000D01*
X116061195Y-67864490D01*
X116045359Y-67916693D01*
X116010590Y-68031312D01*
X116010589Y-68031313D01*
X115928411Y-68185059D01*
X115817817Y-68319817D01*
X115683059Y-68430411D01*
X115600880Y-68474336D01*
X115529312Y-68512590D01*
X115422687Y-68544934D01*
X115362490Y-68563195D01*
X115232477Y-68576000D01*
X115145523Y-68576000D01*
X115015510Y-68563195D01*
X114955313Y-68544934D01*
X114848688Y-68512590D01*
X114777120Y-68474336D01*
X114694941Y-68430411D01*
X114560183Y-68319817D01*
X114449589Y-68185059D01*
X114367411Y-68031313D01*
X114367410Y-68031312D01*
X114332641Y-67916693D01*
X114316805Y-67864490D01*
X114299718Y-67691000D01*
X114316805Y-67517510D01*
X114335066Y-67457312D01*
X114367410Y-67350688D01*
X114405664Y-67279120D01*
X114449589Y-67196941D01*
X114560183Y-67062183D01*
X114694941Y-66951589D01*
X114779464Y-66906411D01*
X114848688Y-66869410D01*
X114955313Y-66837066D01*
X115015510Y-66818805D01*
X115145523Y-66806000D01*
X115232477Y-66806000D01*
X115362490Y-66818805D01*
X115362490Y-66818805D01*
G37*
G36*
X28893973Y-63928416D02*
X29051912Y-63959832D01*
X29349463Y-64083082D01*
X29617252Y-64262013D01*
X29844987Y-64489748D01*
X30023918Y-64757537D01*
X30147168Y-65055088D01*
X30178584Y-65213027D01*
X30210000Y-65370965D01*
X30210000Y-65693035D01*
X30178584Y-65850973D01*
X30147168Y-66008912D01*
X30023918Y-66306463D01*
X29844987Y-66574252D01*
X29617252Y-66801987D01*
X29349463Y-66980918D01*
X29051912Y-67104168D01*
X28893973Y-67135584D01*
X28736035Y-67167000D01*
X28413965Y-67167000D01*
X28256027Y-67135584D01*
X28098088Y-67104168D01*
X27800537Y-66980918D01*
X27532748Y-66801987D01*
X27305013Y-66574252D01*
X27126082Y-66306463D01*
X27002832Y-66008912D01*
X26971416Y-65850973D01*
X26940000Y-65693035D01*
X26940000Y-65370965D01*
X26971416Y-65213028D01*
X27002832Y-65055088D01*
X27126082Y-64757537D01*
X27305013Y-64489748D01*
X27532748Y-64262013D01*
X27800537Y-64083082D01*
X28098088Y-63959832D01*
X28256027Y-63928416D01*
X28413965Y-63897000D01*
X28736035Y-63897000D01*
X28893973Y-63928416D01*
X28893973Y-63928416D01*
G37*
G36*
X163622490Y-65294805D02*
X163682687Y-65313066D01*
X163789312Y-65345410D01*
X163860880Y-65383664D01*
X163943059Y-65427589D01*
X164077817Y-65538183D01*
X164188411Y-65672941D01*
X164199150Y-65693033D01*
X164270590Y-65826688D01*
X164302934Y-65933312D01*
X164321195Y-65993510D01*
X164338282Y-66167000D01*
X164321195Y-66340490D01*
X164321194Y-66340492D01*
X164270590Y-66507312D01*
X164270589Y-66507313D01*
X164188411Y-66661059D01*
X164077817Y-66795817D01*
X163943059Y-66906411D01*
X163860880Y-66950336D01*
X163789312Y-66988590D01*
X163682688Y-67020934D01*
X163622490Y-67039195D01*
X163492477Y-67052000D01*
X163405523Y-67052000D01*
X163275510Y-67039195D01*
X163215313Y-67020934D01*
X163108688Y-66988590D01*
X163037120Y-66950336D01*
X162954941Y-66906411D01*
X162820183Y-66795817D01*
X162709589Y-66661059D01*
X162627411Y-66507313D01*
X162627410Y-66507312D01*
X162576806Y-66340492D01*
X162576805Y-66340490D01*
X162559718Y-66167000D01*
X162576805Y-65993510D01*
X162595066Y-65933312D01*
X162627410Y-65826688D01*
X162698850Y-65693033D01*
X162709589Y-65672941D01*
X162820183Y-65538183D01*
X162954941Y-65427589D01*
X163037120Y-65383664D01*
X163108688Y-65345410D01*
X163215313Y-65313066D01*
X163275510Y-65294805D01*
X163405523Y-65282000D01*
X163492477Y-65282000D01*
X163622490Y-65294805D01*
X163622490Y-65294805D01*
G37*
G36*
X163622490Y-62754805D02*
X163682687Y-62773066D01*
X163789312Y-62805410D01*
X163860880Y-62843664D01*
X163943059Y-62887589D01*
X164077817Y-62998183D01*
X164188411Y-63132941D01*
X164232336Y-63215120D01*
X164270590Y-63286688D01*
X164302934Y-63393313D01*
X164321195Y-63453510D01*
X164338282Y-63627000D01*
X164321195Y-63800490D01*
X164321194Y-63800492D01*
X164270590Y-63967312D01*
X164270589Y-63967313D01*
X164188411Y-64121059D01*
X164077817Y-64255817D01*
X163943059Y-64366411D01*
X163860880Y-64410336D01*
X163789312Y-64448590D01*
X163682688Y-64480934D01*
X163622490Y-64499195D01*
X163492477Y-64512000D01*
X163405523Y-64512000D01*
X163275510Y-64499195D01*
X163215313Y-64480934D01*
X163108688Y-64448590D01*
X163037120Y-64410336D01*
X162954941Y-64366411D01*
X162820183Y-64255817D01*
X162709589Y-64121059D01*
X162627411Y-63967313D01*
X162627410Y-63967312D01*
X162576806Y-63800492D01*
X162576805Y-63800490D01*
X162559718Y-63627000D01*
X162576805Y-63453510D01*
X162595066Y-63393313D01*
X162627410Y-63286688D01*
X162665664Y-63215120D01*
X162709589Y-63132941D01*
X162820183Y-62998183D01*
X162954941Y-62887589D01*
X163037120Y-62843664D01*
X163108688Y-62805410D01*
X163215313Y-62773066D01*
X163275510Y-62754805D01*
X163405523Y-62742000D01*
X163492477Y-62742000D01*
X163622490Y-62754805D01*
X163622490Y-62754805D01*
G37*
G36*
X124315990Y-60532305D02*
X124376187Y-60550566D01*
X124482812Y-60582910D01*
X124554380Y-60621164D01*
X124636559Y-60665089D01*
X124771317Y-60775683D01*
X124881911Y-60910441D01*
X124925836Y-60992620D01*
X124964090Y-61064188D01*
X124996434Y-61170813D01*
X125014695Y-61231010D01*
X125031782Y-61404500D01*
X125014695Y-61577990D01*
X125014694Y-61577992D01*
X124964090Y-61744812D01*
X124964089Y-61744813D01*
X124881911Y-61898559D01*
X124771317Y-62033317D01*
X124636559Y-62143911D01*
X124554380Y-62187836D01*
X124482812Y-62226090D01*
X124376187Y-62258434D01*
X124315990Y-62276695D01*
X124185977Y-62289500D01*
X124099023Y-62289500D01*
X123969010Y-62276695D01*
X123908813Y-62258434D01*
X123802188Y-62226090D01*
X123730620Y-62187836D01*
X123648441Y-62143911D01*
X123513683Y-62033317D01*
X123403089Y-61898559D01*
X123320911Y-61744813D01*
X123320910Y-61744812D01*
X123270306Y-61577992D01*
X123270305Y-61577990D01*
X123253218Y-61404500D01*
X123270305Y-61231010D01*
X123288566Y-61170812D01*
X123320910Y-61064188D01*
X123359164Y-60992620D01*
X123403089Y-60910441D01*
X123513683Y-60775683D01*
X123648441Y-60665089D01*
X123730620Y-60621164D01*
X123802188Y-60582910D01*
X123908813Y-60550566D01*
X123969010Y-60532305D01*
X124099023Y-60519500D01*
X124185977Y-60519500D01*
X124315990Y-60532305D01*
X124315990Y-60532305D01*
G37*
G36*
X121775990Y-60532305D02*
X121836187Y-60550566D01*
X121942812Y-60582910D01*
X122014380Y-60621164D01*
X122096559Y-60665089D01*
X122231317Y-60775683D01*
X122341911Y-60910441D01*
X122385836Y-60992620D01*
X122424090Y-61064188D01*
X122456434Y-61170813D01*
X122474695Y-61231010D01*
X122491782Y-61404500D01*
X122474695Y-61577990D01*
X122474694Y-61577992D01*
X122424090Y-61744812D01*
X122424089Y-61744813D01*
X122341911Y-61898559D01*
X122231317Y-62033317D01*
X122096559Y-62143911D01*
X122014380Y-62187836D01*
X121942812Y-62226090D01*
X121836187Y-62258434D01*
X121775990Y-62276695D01*
X121645977Y-62289500D01*
X121559023Y-62289500D01*
X121429010Y-62276695D01*
X121368813Y-62258434D01*
X121262188Y-62226090D01*
X121190620Y-62187836D01*
X121108441Y-62143911D01*
X120973683Y-62033317D01*
X120863089Y-61898559D01*
X120780911Y-61744813D01*
X120780910Y-61744812D01*
X120730306Y-61577992D01*
X120730305Y-61577990D01*
X120713218Y-61404500D01*
X120730305Y-61231010D01*
X120748566Y-61170812D01*
X120780910Y-61064188D01*
X120819164Y-60992620D01*
X120863089Y-60910441D01*
X120973683Y-60775683D01*
X121108441Y-60665089D01*
X121190620Y-60621164D01*
X121262188Y-60582910D01*
X121368813Y-60550566D01*
X121429010Y-60532305D01*
X121559023Y-60519500D01*
X121645977Y-60519500D01*
X121775990Y-60532305D01*
X121775990Y-60532305D01*
G37*
G36*
X125027500Y-59749500D02*
X123257500Y-59749500D01*
X123257500Y-57979500D01*
X125027500Y-57979500D01*
X125027500Y-59749500D01*
X125027500Y-59749500D01*
G37*
G36*
X121775990Y-57992305D02*
X121836187Y-58010566D01*
X121942812Y-58042910D01*
X122014380Y-58081164D01*
X122096559Y-58125089D01*
X122231317Y-58235683D01*
X122341911Y-58370441D01*
X122385836Y-58452620D01*
X122424090Y-58524188D01*
X122456434Y-58630813D01*
X122474695Y-58691010D01*
X122491782Y-58864500D01*
X122474695Y-59037990D01*
X122474694Y-59037992D01*
X122424090Y-59204812D01*
X122424089Y-59204813D01*
X122341911Y-59358559D01*
X122231317Y-59493317D01*
X122096559Y-59603911D01*
X122014380Y-59647836D01*
X121942812Y-59686090D01*
X121836187Y-59718434D01*
X121775990Y-59736695D01*
X121645977Y-59749500D01*
X121559023Y-59749500D01*
X121429010Y-59736695D01*
X121368813Y-59718434D01*
X121262188Y-59686090D01*
X121190620Y-59647836D01*
X121108441Y-59603911D01*
X120973683Y-59493317D01*
X120863089Y-59358559D01*
X120780911Y-59204813D01*
X120780910Y-59204812D01*
X120730306Y-59037992D01*
X120730305Y-59037990D01*
X120713218Y-58864500D01*
X120730305Y-58691010D01*
X120748566Y-58630813D01*
X120780910Y-58524188D01*
X120819164Y-58452620D01*
X120863089Y-58370441D01*
X120973683Y-58235683D01*
X121108441Y-58125089D01*
X121190620Y-58081164D01*
X121262188Y-58042910D01*
X121368813Y-58010566D01*
X121429010Y-57992305D01*
X121559023Y-57979500D01*
X121645977Y-57979500D01*
X121775990Y-57992305D01*
X121775990Y-57992305D01*
G37*
G36*
X100871314Y-56456853D02*
X101050572Y-56531104D01*
X101050574Y-56531105D01*
X101131787Y-56585370D01*
X101211901Y-56638901D01*
X101349099Y-56776099D01*
X101456896Y-56937428D01*
X101531147Y-57116686D01*
X101569000Y-57306986D01*
X101569000Y-57501014D01*
X101531147Y-57691314D01*
X101456896Y-57870572D01*
X101375556Y-57992306D01*
X101349098Y-58031902D01*
X101211902Y-58169098D01*
X101050574Y-58276895D01*
X101050573Y-58276896D01*
X101050572Y-58276896D01*
X100871314Y-58351147D01*
X100681014Y-58389000D01*
X100486986Y-58389000D01*
X100296686Y-58351147D01*
X100117428Y-58276896D01*
X100117427Y-58276896D01*
X100117426Y-58276895D01*
X99956098Y-58169098D01*
X99818902Y-58031902D01*
X99792445Y-57992306D01*
X99711104Y-57870572D01*
X99636853Y-57691314D01*
X99599000Y-57501014D01*
X99599000Y-57306986D01*
X99636853Y-57116686D01*
X99711104Y-56937428D01*
X99818901Y-56776099D01*
X99956099Y-56638901D01*
X100036214Y-56585370D01*
X100117426Y-56531105D01*
X100117428Y-56531104D01*
X100296686Y-56456853D01*
X100486986Y-56419000D01*
X100681014Y-56419000D01*
X100871314Y-56456853D01*
X100871314Y-56456853D01*
G37*
G36*
X98331314Y-56456853D02*
X98510572Y-56531104D01*
X98510574Y-56531105D01*
X98591787Y-56585370D01*
X98671901Y-56638901D01*
X98809099Y-56776099D01*
X98916896Y-56937428D01*
X98991147Y-57116686D01*
X99029000Y-57306986D01*
X99029000Y-57501014D01*
X98991147Y-57691314D01*
X98916896Y-57870572D01*
X98835556Y-57992306D01*
X98809098Y-58031902D01*
X98671902Y-58169098D01*
X98510574Y-58276895D01*
X98510573Y-58276896D01*
X98510572Y-58276896D01*
X98331314Y-58351147D01*
X98141014Y-58389000D01*
X97946986Y-58389000D01*
X97756686Y-58351147D01*
X97577428Y-58276896D01*
X97577427Y-58276896D01*
X97577426Y-58276895D01*
X97416098Y-58169098D01*
X97278902Y-58031902D01*
X97252445Y-57992306D01*
X97171104Y-57870572D01*
X97096853Y-57691314D01*
X97059000Y-57501014D01*
X97059000Y-57306986D01*
X97096853Y-57116686D01*
X97171104Y-56937428D01*
X97278901Y-56776099D01*
X97416099Y-56638901D01*
X97496214Y-56585370D01*
X97577426Y-56531105D01*
X97577428Y-56531104D01*
X97756686Y-56456853D01*
X97946986Y-56419000D01*
X98141014Y-56419000D01*
X98331314Y-56456853D01*
X98331314Y-56456853D01*
G37*
G36*
X103411314Y-56456853D02*
X103590572Y-56531104D01*
X103590574Y-56531105D01*
X103671787Y-56585370D01*
X103751901Y-56638901D01*
X103889099Y-56776099D01*
X103996896Y-56937428D01*
X104071147Y-57116686D01*
X104109000Y-57306986D01*
X104109000Y-57501014D01*
X104071147Y-57691314D01*
X103996896Y-57870572D01*
X103915556Y-57992306D01*
X103889098Y-58031902D01*
X103751902Y-58169098D01*
X103590574Y-58276895D01*
X103590573Y-58276896D01*
X103590572Y-58276896D01*
X103411314Y-58351147D01*
X103221014Y-58389000D01*
X103026986Y-58389000D01*
X102836686Y-58351147D01*
X102657428Y-58276896D01*
X102657427Y-58276896D01*
X102657426Y-58276895D01*
X102496098Y-58169098D01*
X102358902Y-58031902D01*
X102332445Y-57992306D01*
X102251104Y-57870572D01*
X102176853Y-57691314D01*
X102139000Y-57501014D01*
X102139000Y-57306986D01*
X102176853Y-57116686D01*
X102251104Y-56937428D01*
X102358901Y-56776099D01*
X102496099Y-56638901D01*
X102576214Y-56585370D01*
X102657426Y-56531105D01*
X102657428Y-56531104D01*
X102836686Y-56456853D01*
X103026986Y-56419000D01*
X103221014Y-56419000D01*
X103411314Y-56456853D01*
X103411314Y-56456853D01*
G37*
G36*
X105951314Y-56456853D02*
X106130572Y-56531104D01*
X106130574Y-56531105D01*
X106211787Y-56585370D01*
X106291901Y-56638901D01*
X106429099Y-56776099D01*
X106536896Y-56937428D01*
X106611147Y-57116686D01*
X106649000Y-57306986D01*
X106649000Y-57501014D01*
X106611147Y-57691314D01*
X106536896Y-57870572D01*
X106455556Y-57992306D01*
X106429098Y-58031902D01*
X106291902Y-58169098D01*
X106130574Y-58276895D01*
X106130573Y-58276896D01*
X106130572Y-58276896D01*
X105951314Y-58351147D01*
X105761014Y-58389000D01*
X105566986Y-58389000D01*
X105376686Y-58351147D01*
X105197428Y-58276896D01*
X105197427Y-58276896D01*
X105197426Y-58276895D01*
X105036098Y-58169098D01*
X104898902Y-58031902D01*
X104872445Y-57992306D01*
X104791104Y-57870572D01*
X104716853Y-57691314D01*
X104679000Y-57501014D01*
X104679000Y-57306986D01*
X104716853Y-57116686D01*
X104791104Y-56937428D01*
X104898901Y-56776099D01*
X105036099Y-56638901D01*
X105116214Y-56585370D01*
X105197426Y-56531105D01*
X105197428Y-56531104D01*
X105376686Y-56456853D01*
X105566986Y-56419000D01*
X105761014Y-56419000D01*
X105951314Y-56456853D01*
X105951314Y-56456853D01*
G37*
G36*
X176065202Y-56666308D02*
X176184900Y-56702618D01*
X176243864Y-56734135D01*
X176295213Y-56761582D01*
X176295215Y-56761583D01*
X176295214Y-56761583D01*
X176391905Y-56840935D01*
X176471257Y-56937626D01*
X176530222Y-57047940D01*
X176566532Y-57167638D01*
X176578792Y-57292120D01*
X176566532Y-57416602D01*
X176530222Y-57536300D01*
X176498705Y-57595264D01*
X176471258Y-57646613D01*
X176391905Y-57743305D01*
X176295213Y-57822658D01*
X176243864Y-57850105D01*
X176184900Y-57881622D01*
X176065202Y-57917932D01*
X175971912Y-57927120D01*
X175209528Y-57927120D01*
X175116238Y-57917932D01*
X174996540Y-57881622D01*
X174937576Y-57850105D01*
X174886227Y-57822658D01*
X174789535Y-57743305D01*
X174710182Y-57646613D01*
X174682735Y-57595264D01*
X174651218Y-57536300D01*
X174614908Y-57416602D01*
X174602648Y-57292120D01*
X174614908Y-57167638D01*
X174651218Y-57047940D01*
X174710183Y-56937626D01*
X174789535Y-56840935D01*
X174886226Y-56761583D01*
X174886225Y-56761583D01*
X174886227Y-56761582D01*
X174937576Y-56734135D01*
X174996540Y-56702618D01*
X175116238Y-56666308D01*
X175209528Y-56657120D01*
X175971912Y-56657120D01*
X176065202Y-56666308D01*
X176065202Y-56666308D01*
G37*
G36*
X173112402Y-55561326D02*
X173250718Y-55618617D01*
X173375194Y-55701790D01*
X173481050Y-55807646D01*
X173564223Y-55932122D01*
X173621514Y-56070438D01*
X173650720Y-56217265D01*
X173650720Y-56366975D01*
X173621514Y-56513802D01*
X173564223Y-56652118D01*
X173481050Y-56776594D01*
X173375194Y-56882450D01*
X173250718Y-56965623D01*
X173112402Y-57022914D01*
X172965575Y-57052120D01*
X172815865Y-57052120D01*
X172669038Y-57022914D01*
X172530722Y-56965623D01*
X172406246Y-56882450D01*
X172300390Y-56776594D01*
X172217217Y-56652118D01*
X172159926Y-56513802D01*
X172130720Y-56366975D01*
X172130720Y-56217265D01*
X172159926Y-56070438D01*
X172217217Y-55932122D01*
X172300390Y-55807646D01*
X172406246Y-55701790D01*
X172530722Y-55618617D01*
X172669038Y-55561326D01*
X172815865Y-55532120D01*
X172965575Y-55532120D01*
X173112402Y-55561326D01*
X173112402Y-55561326D01*
G37*
G36*
X107919000Y-55849000D02*
X105949000Y-55849000D01*
X105949000Y-53879000D01*
X107919000Y-53879000D01*
X107919000Y-55849000D01*
X107919000Y-55849000D01*
G37*
G36*
X99601314Y-53916853D02*
X99780572Y-53991104D01*
X99780574Y-53991105D01*
X99861786Y-54045370D01*
X99941901Y-54098901D01*
X100079099Y-54236099D01*
X100186896Y-54397428D01*
X100261147Y-54576686D01*
X100299000Y-54766986D01*
X100299000Y-54961014D01*
X100261147Y-55151314D01*
X100186896Y-55330572D01*
X100186895Y-55330574D01*
X100079098Y-55491902D01*
X99941902Y-55629098D01*
X99780574Y-55736895D01*
X99780573Y-55736896D01*
X99780572Y-55736896D01*
X99601314Y-55811147D01*
X99411014Y-55849000D01*
X99216986Y-55849000D01*
X99026686Y-55811147D01*
X98847428Y-55736896D01*
X98847427Y-55736896D01*
X98847426Y-55736895D01*
X98686098Y-55629098D01*
X98548902Y-55491902D01*
X98441105Y-55330574D01*
X98441104Y-55330572D01*
X98366853Y-55151314D01*
X98329000Y-54961014D01*
X98329000Y-54766986D01*
X98366853Y-54576686D01*
X98441104Y-54397428D01*
X98548901Y-54236099D01*
X98686099Y-54098901D01*
X98766214Y-54045370D01*
X98847426Y-53991105D01*
X98847428Y-53991104D01*
X99026686Y-53916853D01*
X99216986Y-53879000D01*
X99411014Y-53879000D01*
X99601314Y-53916853D01*
X99601314Y-53916853D01*
G37*
G36*
X102141314Y-53916853D02*
X102320572Y-53991104D01*
X102320574Y-53991105D01*
X102401786Y-54045370D01*
X102481901Y-54098901D01*
X102619099Y-54236099D01*
X102726896Y-54397428D01*
X102801147Y-54576686D01*
X102839000Y-54766986D01*
X102839000Y-54961014D01*
X102801147Y-55151314D01*
X102726896Y-55330572D01*
X102726895Y-55330574D01*
X102619098Y-55491902D01*
X102481902Y-55629098D01*
X102320574Y-55736895D01*
X102320573Y-55736896D01*
X102320572Y-55736896D01*
X102141314Y-55811147D01*
X101951014Y-55849000D01*
X101756986Y-55849000D01*
X101566686Y-55811147D01*
X101387428Y-55736896D01*
X101387427Y-55736896D01*
X101387426Y-55736895D01*
X101226098Y-55629098D01*
X101088902Y-55491902D01*
X100981105Y-55330574D01*
X100981104Y-55330572D01*
X100906853Y-55151314D01*
X100869000Y-54961014D01*
X100869000Y-54766986D01*
X100906853Y-54576686D01*
X100981104Y-54397428D01*
X101088901Y-54236099D01*
X101226099Y-54098901D01*
X101306214Y-54045370D01*
X101387426Y-53991105D01*
X101387428Y-53991104D01*
X101566686Y-53916853D01*
X101756986Y-53879000D01*
X101951014Y-53879000D01*
X102141314Y-53916853D01*
X102141314Y-53916853D01*
G37*
G36*
X104681314Y-53916853D02*
X104860572Y-53991104D01*
X104860574Y-53991105D01*
X104941786Y-54045370D01*
X105021901Y-54098901D01*
X105159099Y-54236099D01*
X105266896Y-54397428D01*
X105341147Y-54576686D01*
X105379000Y-54766986D01*
X105379000Y-54961014D01*
X105341147Y-55151314D01*
X105266896Y-55330572D01*
X105266895Y-55330574D01*
X105159098Y-55491902D01*
X105021902Y-55629098D01*
X104860574Y-55736895D01*
X104860573Y-55736896D01*
X104860572Y-55736896D01*
X104681314Y-55811147D01*
X104491014Y-55849000D01*
X104296986Y-55849000D01*
X104106686Y-55811147D01*
X103927428Y-55736896D01*
X103927427Y-55736896D01*
X103927426Y-55736895D01*
X103766098Y-55629098D01*
X103628902Y-55491902D01*
X103521105Y-55330574D01*
X103521104Y-55330572D01*
X103446853Y-55151314D01*
X103409000Y-54961014D01*
X103409000Y-54766986D01*
X103446853Y-54576686D01*
X103521104Y-54397428D01*
X103628901Y-54236099D01*
X103766099Y-54098901D01*
X103846214Y-54045370D01*
X103927426Y-53991105D01*
X103927428Y-53991104D01*
X104106686Y-53916853D01*
X104296986Y-53879000D01*
X104491014Y-53879000D01*
X104681314Y-53916853D01*
X104681314Y-53916853D01*
G37*
G36*
X115487653Y-52102176D02*
X115645592Y-52133592D01*
X115943143Y-52256842D01*
X116210932Y-52435773D01*
X116438667Y-52663508D01*
X116617598Y-52931297D01*
X116740848Y-53228848D01*
X116740848Y-53228850D01*
X116803680Y-53544725D01*
X116803680Y-53866795D01*
X116778953Y-53991104D01*
X116740848Y-54182672D01*
X116617598Y-54480223D01*
X116438667Y-54748012D01*
X116210932Y-54975747D01*
X115943143Y-55154678D01*
X115645592Y-55277928D01*
X115487653Y-55309344D01*
X115329715Y-55340760D01*
X115007645Y-55340760D01*
X114849707Y-55309344D01*
X114691768Y-55277928D01*
X114394217Y-55154678D01*
X114126428Y-54975747D01*
X113898693Y-54748012D01*
X113719762Y-54480223D01*
X113596512Y-54182672D01*
X113558407Y-53991104D01*
X113533680Y-53866795D01*
X113533680Y-53544725D01*
X113596512Y-53228850D01*
X113596512Y-53228848D01*
X113719762Y-52931297D01*
X113898693Y-52663508D01*
X114126428Y-52435773D01*
X114394217Y-52256842D01*
X114691768Y-52133592D01*
X114849708Y-52102176D01*
X115007645Y-52070760D01*
X115329715Y-52070760D01*
X115487653Y-52102176D01*
X115487653Y-52102176D01*
G37*
G36*
X110653404Y-50290303D02*
X110896361Y-50390939D01*
X111115015Y-50537039D01*
X111300961Y-50722985D01*
X111447061Y-50941639D01*
X111547697Y-51184596D01*
X111599000Y-51442512D01*
X111599000Y-51705488D01*
X111547697Y-51963404D01*
X111447061Y-52206361D01*
X111300961Y-52425015D01*
X111115015Y-52610961D01*
X110896361Y-52757061D01*
X110653404Y-52857697D01*
X110395488Y-52909000D01*
X110132512Y-52909000D01*
X109874596Y-52857697D01*
X109631639Y-52757061D01*
X109412985Y-52610961D01*
X109227039Y-52425015D01*
X109080939Y-52206361D01*
X108980303Y-51963404D01*
X108929000Y-51705488D01*
X108929000Y-51442512D01*
X108980303Y-51184596D01*
X109080939Y-50941639D01*
X109227039Y-50722985D01*
X109412985Y-50537039D01*
X109631639Y-50390939D01*
X109874596Y-50290303D01*
X110132512Y-50239000D01*
X110395488Y-50239000D01*
X110653404Y-50290303D01*
X110653404Y-50290303D01*
G37*
G36*
X95103404Y-50290303D02*
X95346361Y-50390939D01*
X95565015Y-50537039D01*
X95750961Y-50722985D01*
X95897061Y-50941639D01*
X95997697Y-51184596D01*
X96049000Y-51442512D01*
X96049000Y-51705488D01*
X95997697Y-51963404D01*
X95897061Y-52206361D01*
X95750961Y-52425015D01*
X95565015Y-52610961D01*
X95346361Y-52757061D01*
X95103404Y-52857697D01*
X94845488Y-52909000D01*
X94582512Y-52909000D01*
X94324596Y-52857697D01*
X94081639Y-52757061D01*
X93862985Y-52610961D01*
X93677039Y-52425015D01*
X93530939Y-52206361D01*
X93430303Y-51963404D01*
X93379000Y-51705488D01*
X93379000Y-51442512D01*
X93430303Y-51184596D01*
X93530939Y-50941639D01*
X93677039Y-50722985D01*
X93862985Y-50537039D01*
X94081639Y-50390939D01*
X94324596Y-50290303D01*
X94582512Y-50239000D01*
X94845488Y-50239000D01*
X95103404Y-50290303D01*
X95103404Y-50290303D01*
G37*
G36*
X173112402Y-50561326D02*
X173250718Y-50618617D01*
X173375194Y-50701790D01*
X173481050Y-50807646D01*
X173564223Y-50932122D01*
X173621514Y-51070438D01*
X173650720Y-51217265D01*
X173650720Y-51366975D01*
X173621514Y-51513802D01*
X173564223Y-51652118D01*
X173481050Y-51776594D01*
X173375194Y-51882450D01*
X173250718Y-51965623D01*
X173112402Y-52022914D01*
X172965575Y-52052120D01*
X172815865Y-52052120D01*
X172669038Y-52022914D01*
X172530722Y-51965623D01*
X172406246Y-51882450D01*
X172300390Y-51776594D01*
X172217217Y-51652118D01*
X172159926Y-51513802D01*
X172130720Y-51366975D01*
X172130720Y-51217265D01*
X172159926Y-51070438D01*
X172217217Y-50932122D01*
X172300390Y-50807646D01*
X172406246Y-50701790D01*
X172530722Y-50618617D01*
X172669038Y-50561326D01*
X172815865Y-50532120D01*
X172965575Y-50532120D01*
X173112402Y-50561326D01*
X173112402Y-50561326D01*
G37*
G36*
X176065202Y-49666308D02*
X176184900Y-49702618D01*
X176243864Y-49734135D01*
X176295213Y-49761582D01*
X176358361Y-49813406D01*
X176391905Y-49840935D01*
X176471257Y-49937626D01*
X176530222Y-50047940D01*
X176566532Y-50167638D01*
X176578792Y-50292120D01*
X176566532Y-50416602D01*
X176530222Y-50536300D01*
X176498705Y-50595264D01*
X176471258Y-50646613D01*
X176391905Y-50743305D01*
X176295213Y-50822658D01*
X176243864Y-50850105D01*
X176184900Y-50881622D01*
X176065202Y-50917932D01*
X175971912Y-50927120D01*
X175209528Y-50927120D01*
X175116238Y-50917932D01*
X174996540Y-50881622D01*
X174937576Y-50850105D01*
X174886227Y-50822658D01*
X174789535Y-50743305D01*
X174710182Y-50646613D01*
X174682735Y-50595264D01*
X174651218Y-50536300D01*
X174614908Y-50416602D01*
X174602648Y-50292120D01*
X174614908Y-50167638D01*
X174651218Y-50047940D01*
X174710183Y-49937626D01*
X174789535Y-49840935D01*
X174823079Y-49813406D01*
X174886227Y-49761582D01*
X174937576Y-49734135D01*
X174996540Y-49702618D01*
X175116238Y-49666308D01*
X175209528Y-49657120D01*
X175971912Y-49657120D01*
X176065202Y-49666308D01*
X176065202Y-49666308D01*
G37*
G36*
X108688204Y-46927793D02*
X108990305Y-47052927D01*
X108990307Y-47052928D01*
X109262190Y-47234595D01*
X109493405Y-47465810D01*
X109675072Y-47737693D01*
X109675073Y-47737695D01*
X109800207Y-48039796D01*
X109864000Y-48360504D01*
X109864000Y-48687496D01*
X109800207Y-49008204D01*
X109675073Y-49310305D01*
X109675072Y-49310307D01*
X109493405Y-49582190D01*
X109262190Y-49813405D01*
X108990307Y-49995072D01*
X108990306Y-49995073D01*
X108990305Y-49995073D01*
X108688204Y-50120207D01*
X108367496Y-50184000D01*
X108040504Y-50184000D01*
X107719796Y-50120207D01*
X107417695Y-49995073D01*
X107417694Y-49995073D01*
X107417693Y-49995072D01*
X107145810Y-49813405D01*
X106914595Y-49582190D01*
X106732928Y-49310307D01*
X106732927Y-49310305D01*
X106607793Y-49008204D01*
X106544000Y-48687496D01*
X106544000Y-48360504D01*
X106607793Y-48039796D01*
X106732927Y-47737695D01*
X106732928Y-47737693D01*
X106914595Y-47465810D01*
X107145810Y-47234595D01*
X107417693Y-47052928D01*
X107417695Y-47052927D01*
X107719796Y-46927793D01*
X108040504Y-46864000D01*
X108367496Y-46864000D01*
X108688204Y-46927793D01*
X108688204Y-46927793D01*
G37*
G36*
X97258204Y-46927793D02*
X97560305Y-47052927D01*
X97560307Y-47052928D01*
X97832190Y-47234595D01*
X98063405Y-47465810D01*
X98245072Y-47737693D01*
X98245073Y-47737695D01*
X98370207Y-48039796D01*
X98434000Y-48360504D01*
X98434000Y-48687496D01*
X98370207Y-49008204D01*
X98245073Y-49310305D01*
X98245072Y-49310307D01*
X98063405Y-49582190D01*
X97832190Y-49813405D01*
X97560307Y-49995072D01*
X97560306Y-49995073D01*
X97560305Y-49995073D01*
X97258204Y-50120207D01*
X96937496Y-50184000D01*
X96610504Y-50184000D01*
X96289796Y-50120207D01*
X95987695Y-49995073D01*
X95987694Y-49995073D01*
X95987693Y-49995072D01*
X95715810Y-49813405D01*
X95484595Y-49582190D01*
X95302928Y-49310307D01*
X95302927Y-49310305D01*
X95177793Y-49008204D01*
X95114000Y-48687496D01*
X95114000Y-48360504D01*
X95177793Y-48039796D01*
X95302927Y-47737695D01*
X95302928Y-47737693D01*
X95484595Y-47465810D01*
X95715810Y-47234595D01*
X95987693Y-47052928D01*
X95987695Y-47052927D01*
X96289796Y-46927793D01*
X96610504Y-46864000D01*
X96937496Y-46864000D01*
X97258204Y-46927793D01*
X97258204Y-46927793D01*
G37*
G36*
X46922876Y-46390860D02*
X47147632Y-46483957D01*
X47147634Y-46483958D01*
X47349908Y-46619114D01*
X47521926Y-46791132D01*
X47613241Y-46927793D01*
X47657083Y-46993408D01*
X47681737Y-47052927D01*
X47750180Y-47218165D01*
X47797640Y-47456762D01*
X47797640Y-47700038D01*
X47773910Y-47819336D01*
X47750180Y-47938636D01*
X47657083Y-48163392D01*
X47525377Y-48360504D01*
X47521926Y-48365668D01*
X47349908Y-48537686D01*
X47147634Y-48672842D01*
X47147633Y-48672843D01*
X47147632Y-48672843D01*
X46922876Y-48765940D01*
X46684278Y-48813400D01*
X46441002Y-48813400D01*
X46202404Y-48765940D01*
X45977648Y-48672843D01*
X45977647Y-48672843D01*
X45977646Y-48672842D01*
X45775372Y-48537686D01*
X45603354Y-48365668D01*
X45599904Y-48360504D01*
X45468197Y-48163392D01*
X45375100Y-47938636D01*
X45351370Y-47819336D01*
X45327640Y-47700038D01*
X45327640Y-47456762D01*
X45375100Y-47218165D01*
X45443544Y-47052927D01*
X45468197Y-46993408D01*
X45512040Y-46927793D01*
X45603354Y-46791132D01*
X45775372Y-46619114D01*
X45977646Y-46483958D01*
X45977648Y-46483957D01*
X46202404Y-46390860D01*
X46321704Y-46367130D01*
X46441002Y-46343400D01*
X46684278Y-46343400D01*
X46922876Y-46390860D01*
X46922876Y-46390860D01*
G37*
G36*
X41922876Y-46390860D02*
X42147632Y-46483957D01*
X42147634Y-46483958D01*
X42349908Y-46619114D01*
X42521926Y-46791132D01*
X42613241Y-46927793D01*
X42657083Y-46993408D01*
X42681737Y-47052927D01*
X42750180Y-47218165D01*
X42797640Y-47456762D01*
X42797640Y-47700038D01*
X42773910Y-47819336D01*
X42750180Y-47938636D01*
X42657083Y-48163392D01*
X42525377Y-48360504D01*
X42521926Y-48365668D01*
X42349908Y-48537686D01*
X42147634Y-48672842D01*
X42147633Y-48672843D01*
X42147632Y-48672843D01*
X41922876Y-48765940D01*
X41684278Y-48813400D01*
X41441002Y-48813400D01*
X41202404Y-48765940D01*
X40977648Y-48672843D01*
X40977647Y-48672843D01*
X40977646Y-48672842D01*
X40775372Y-48537686D01*
X40603354Y-48365668D01*
X40599904Y-48360504D01*
X40468197Y-48163392D01*
X40375100Y-47938636D01*
X40351370Y-47819336D01*
X40327640Y-47700038D01*
X40327640Y-47456762D01*
X40375100Y-47218165D01*
X40443544Y-47052927D01*
X40468197Y-46993408D01*
X40512040Y-46927793D01*
X40603354Y-46791132D01*
X40775372Y-46619114D01*
X40977646Y-46483958D01*
X40977648Y-46483957D01*
X41202404Y-46390860D01*
X41321704Y-46367130D01*
X41441002Y-46343400D01*
X41684278Y-46343400D01*
X41922876Y-46390860D01*
X41922876Y-46390860D01*
G37*
G36*
X51922876Y-46390860D02*
X52147632Y-46483957D01*
X52147634Y-46483958D01*
X52349908Y-46619114D01*
X52521926Y-46791132D01*
X52613241Y-46927793D01*
X52657083Y-46993408D01*
X52681737Y-47052927D01*
X52750180Y-47218165D01*
X52797640Y-47456762D01*
X52797640Y-47700038D01*
X52773910Y-47819336D01*
X52750180Y-47938636D01*
X52657083Y-48163392D01*
X52525377Y-48360504D01*
X52521926Y-48365668D01*
X52349908Y-48537686D01*
X52147634Y-48672842D01*
X52147633Y-48672843D01*
X52147632Y-48672843D01*
X51922876Y-48765940D01*
X51684278Y-48813400D01*
X51441002Y-48813400D01*
X51202404Y-48765940D01*
X50977648Y-48672843D01*
X50977647Y-48672843D01*
X50977646Y-48672842D01*
X50775372Y-48537686D01*
X50603354Y-48365668D01*
X50599904Y-48360504D01*
X50468197Y-48163392D01*
X50375100Y-47938636D01*
X50351370Y-47819336D01*
X50327640Y-47700038D01*
X50327640Y-47456762D01*
X50375100Y-47218165D01*
X50443544Y-47052927D01*
X50468197Y-46993408D01*
X50512040Y-46927793D01*
X50603354Y-46791132D01*
X50775372Y-46619114D01*
X50977646Y-46483958D01*
X50977648Y-46483957D01*
X51202404Y-46390860D01*
X51321704Y-46367130D01*
X51441002Y-46343400D01*
X51684278Y-46343400D01*
X51922876Y-46390860D01*
X51922876Y-46390860D01*
G37*
G36*
X56922876Y-46390860D02*
X57147632Y-46483957D01*
X57147634Y-46483958D01*
X57349908Y-46619114D01*
X57521926Y-46791132D01*
X57613241Y-46927793D01*
X57657083Y-46993408D01*
X57681737Y-47052927D01*
X57750180Y-47218165D01*
X57797640Y-47456762D01*
X57797640Y-47700038D01*
X57773910Y-47819336D01*
X57750180Y-47938636D01*
X57657083Y-48163392D01*
X57525377Y-48360504D01*
X57521926Y-48365668D01*
X57349908Y-48537686D01*
X57147634Y-48672842D01*
X57147633Y-48672843D01*
X57147632Y-48672843D01*
X56922876Y-48765940D01*
X56684278Y-48813400D01*
X56441002Y-48813400D01*
X56202404Y-48765940D01*
X55977648Y-48672843D01*
X55977647Y-48672843D01*
X55977646Y-48672842D01*
X55775372Y-48537686D01*
X55603354Y-48365668D01*
X55599904Y-48360504D01*
X55468197Y-48163392D01*
X55375100Y-47938636D01*
X55351370Y-47819336D01*
X55327640Y-47700038D01*
X55327640Y-47456762D01*
X55375100Y-47218165D01*
X55443544Y-47052927D01*
X55468197Y-46993408D01*
X55512040Y-46927793D01*
X55603354Y-46791132D01*
X55775372Y-46619114D01*
X55977646Y-46483958D01*
X55977648Y-46483957D01*
X56202404Y-46390860D01*
X56321704Y-46367130D01*
X56441002Y-46343400D01*
X56684278Y-46343400D01*
X56922876Y-46390860D01*
X56922876Y-46390860D01*
G37*
G36*
X170563339Y-42856968D02*
X170960988Y-43021678D01*
X171318858Y-43260800D01*
X171623200Y-43565142D01*
X171862322Y-43923012D01*
X172027032Y-44320661D01*
X172111000Y-44742795D01*
X172111000Y-45173205D01*
X172027032Y-45595339D01*
X171862322Y-45992988D01*
X171623200Y-46350858D01*
X171318858Y-46655200D01*
X170960988Y-46894322D01*
X170563339Y-47059032D01*
X170141205Y-47143000D01*
X169710795Y-47143000D01*
X169288661Y-47059032D01*
X168891012Y-46894322D01*
X168533142Y-46655200D01*
X168228800Y-46350858D01*
X167989678Y-45992988D01*
X167824968Y-45595339D01*
X167741000Y-45173205D01*
X167741000Y-44742795D01*
X167824968Y-44320661D01*
X167989678Y-43923012D01*
X168228800Y-43565142D01*
X168533142Y-43260800D01*
X168891012Y-43021678D01*
X169288661Y-42856968D01*
X169710795Y-42773000D01*
X170141205Y-42773000D01*
X170563339Y-42856968D01*
X170563339Y-42856968D01*
G37*
G36*
X29148839Y-42856968D02*
X29546488Y-43021678D01*
X29904358Y-43260800D01*
X30208700Y-43565142D01*
X30447822Y-43923012D01*
X30612532Y-44320661D01*
X30696500Y-44742795D01*
X30696500Y-45173205D01*
X30612532Y-45595339D01*
X30447822Y-45992988D01*
X30208700Y-46350858D01*
X29904358Y-46655200D01*
X29546488Y-46894322D01*
X29148839Y-47059032D01*
X28726705Y-47143000D01*
X28296295Y-47143000D01*
X27874161Y-47059032D01*
X27476512Y-46894322D01*
X27118642Y-46655200D01*
X26814300Y-46350858D01*
X26575178Y-45992988D01*
X26410468Y-45595339D01*
X26326500Y-45173205D01*
X26326500Y-44742795D01*
X26410468Y-44320661D01*
X26575178Y-43923012D01*
X26814300Y-43565142D01*
X27118642Y-43260800D01*
X27476512Y-43021678D01*
X27874161Y-42856968D01*
X28296295Y-42773000D01*
X28726705Y-42773000D01*
X29148839Y-42856968D01*
X29148839Y-42856968D01*
G37*
G36*
X96449856Y-44201661D02*
X96479449Y-44213919D01*
X96628207Y-44275536D01*
X96721684Y-44337996D01*
X96759339Y-44363156D01*
X96788715Y-44382785D01*
X96925215Y-44519285D01*
X97032464Y-44679793D01*
X97032465Y-44679796D01*
X97106339Y-44858144D01*
X97144000Y-45047478D01*
X97144000Y-45240522D01*
X97106339Y-45429856D01*
X97086827Y-45476962D01*
X97032464Y-45608207D01*
X96971688Y-45699164D01*
X96925612Y-45768122D01*
X96925215Y-45768715D01*
X96788715Y-45905215D01*
X96628207Y-46012464D01*
X96562324Y-46039753D01*
X96449856Y-46086339D01*
X96260522Y-46124000D01*
X96067478Y-46124000D01*
X95878144Y-46086339D01*
X95765676Y-46039753D01*
X95699793Y-46012464D01*
X95539285Y-45905215D01*
X95402785Y-45768715D01*
X95402389Y-45768122D01*
X95356312Y-45699164D01*
X95295536Y-45608207D01*
X95241173Y-45476962D01*
X95221661Y-45429856D01*
X95184000Y-45240522D01*
X95184000Y-45047478D01*
X95221661Y-44858144D01*
X95295535Y-44679796D01*
X95295536Y-44679793D01*
X95402785Y-44519285D01*
X95539285Y-44382785D01*
X95568662Y-44363156D01*
X95606316Y-44337996D01*
X95699793Y-44275536D01*
X95848551Y-44213919D01*
X95878144Y-44201661D01*
X96067478Y-44164000D01*
X96260522Y-44164000D01*
X96449856Y-44201661D01*
X96449856Y-44201661D01*
G37*
G36*
X106559856Y-44201661D02*
X106589449Y-44213919D01*
X106738207Y-44275536D01*
X106831684Y-44337996D01*
X106869339Y-44363156D01*
X106898715Y-44382785D01*
X107035215Y-44519285D01*
X107142464Y-44679793D01*
X107142465Y-44679796D01*
X107216339Y-44858144D01*
X107254000Y-45047478D01*
X107254000Y-45240522D01*
X107216339Y-45429856D01*
X107196827Y-45476962D01*
X107142464Y-45608207D01*
X107081688Y-45699164D01*
X107035612Y-45768122D01*
X107035215Y-45768715D01*
X106898715Y-45905215D01*
X106738207Y-46012464D01*
X106672324Y-46039753D01*
X106559856Y-46086339D01*
X106370522Y-46124000D01*
X106177478Y-46124000D01*
X105988144Y-46086339D01*
X105875676Y-46039753D01*
X105809793Y-46012464D01*
X105649285Y-45905215D01*
X105512785Y-45768715D01*
X105512389Y-45768122D01*
X105466312Y-45699164D01*
X105405536Y-45608207D01*
X105351173Y-45476962D01*
X105331661Y-45429856D01*
X105294000Y-45240522D01*
X105294000Y-45047478D01*
X105331661Y-44858144D01*
X105405535Y-44679796D01*
X105405536Y-44679793D01*
X105512785Y-44519285D01*
X105649285Y-44382785D01*
X105678662Y-44363156D01*
X105716316Y-44337996D01*
X105809793Y-44275536D01*
X105958551Y-44213919D01*
X105988144Y-44201661D01*
X106177478Y-44164000D01*
X106370522Y-44164000D01*
X106559856Y-44201661D01*
X106559856Y-44201661D01*
G37*
G36*
X137756613Y-44204209D02*
X137913123Y-44269038D01*
X137913125Y-44269039D01*
X138053980Y-44363156D01*
X138173764Y-44482940D01*
X138251071Y-44598637D01*
X138267882Y-44623797D01*
X138332711Y-44780307D01*
X138365760Y-44946457D01*
X138365760Y-45115863D01*
X138332711Y-45282013D01*
X138271472Y-45429855D01*
X138267881Y-45438525D01*
X138173764Y-45579380D01*
X138053980Y-45699164D01*
X137913125Y-45793281D01*
X137913124Y-45793282D01*
X137913123Y-45793282D01*
X137756613Y-45858111D01*
X137590463Y-45891160D01*
X137421057Y-45891160D01*
X137254907Y-45858111D01*
X137098397Y-45793282D01*
X137098396Y-45793282D01*
X137098395Y-45793281D01*
X136957540Y-45699164D01*
X136837756Y-45579380D01*
X136743639Y-45438525D01*
X136740048Y-45429855D01*
X136678809Y-45282013D01*
X136645760Y-45115863D01*
X136645760Y-44946457D01*
X136678809Y-44780307D01*
X136743638Y-44623797D01*
X136760449Y-44598637D01*
X136837756Y-44482940D01*
X136957540Y-44363156D01*
X137098395Y-44269039D01*
X137098397Y-44269038D01*
X137254907Y-44204209D01*
X137421057Y-44171160D01*
X137590463Y-44171160D01*
X137756613Y-44204209D01*
X137756613Y-44204209D01*
G37*
G36*
X132756613Y-44204209D02*
X132913123Y-44269038D01*
X132913125Y-44269039D01*
X133053980Y-44363156D01*
X133173764Y-44482940D01*
X133251071Y-44598637D01*
X133267882Y-44623797D01*
X133332711Y-44780307D01*
X133365760Y-44946457D01*
X133365760Y-45115863D01*
X133332711Y-45282013D01*
X133271472Y-45429855D01*
X133267881Y-45438525D01*
X133173764Y-45579380D01*
X133053980Y-45699164D01*
X132913125Y-45793281D01*
X132913124Y-45793282D01*
X132913123Y-45793282D01*
X132756613Y-45858111D01*
X132590463Y-45891160D01*
X132421057Y-45891160D01*
X132254907Y-45858111D01*
X132098397Y-45793282D01*
X132098396Y-45793282D01*
X132098395Y-45793281D01*
X131957540Y-45699164D01*
X131837756Y-45579380D01*
X131743639Y-45438525D01*
X131740048Y-45429855D01*
X131678809Y-45282013D01*
X131645760Y-45115863D01*
X131645760Y-44946457D01*
X131678809Y-44780307D01*
X131743638Y-44623797D01*
X131760449Y-44598637D01*
X131837756Y-44482940D01*
X131957540Y-44363156D01*
X132098395Y-44269039D01*
X132098397Y-44269038D01*
X132254907Y-44204209D01*
X132421057Y-44171160D01*
X132590463Y-44171160D01*
X132756613Y-44204209D01*
X132756613Y-44204209D01*
G37*
G36*
X135256613Y-44204209D02*
X135413123Y-44269038D01*
X135413125Y-44269039D01*
X135553980Y-44363156D01*
X135673764Y-44482940D01*
X135751071Y-44598637D01*
X135767882Y-44623797D01*
X135832711Y-44780307D01*
X135865760Y-44946457D01*
X135865760Y-45115863D01*
X135832711Y-45282013D01*
X135771472Y-45429855D01*
X135767881Y-45438525D01*
X135673764Y-45579380D01*
X135553980Y-45699164D01*
X135413125Y-45793281D01*
X135413124Y-45793282D01*
X135413123Y-45793282D01*
X135256613Y-45858111D01*
X135090463Y-45891160D01*
X134921057Y-45891160D01*
X134754907Y-45858111D01*
X134598397Y-45793282D01*
X134598396Y-45793282D01*
X134598395Y-45793281D01*
X134457540Y-45699164D01*
X134337756Y-45579380D01*
X134243639Y-45438525D01*
X134240048Y-45429855D01*
X134178809Y-45282013D01*
X134145760Y-45115863D01*
X134145760Y-44946457D01*
X134178809Y-44780307D01*
X134243638Y-44623797D01*
X134260449Y-44598637D01*
X134337756Y-44482940D01*
X134457540Y-44363156D01*
X134598395Y-44269039D01*
X134598397Y-44269038D01*
X134754907Y-44204209D01*
X134921057Y-44171160D01*
X135090463Y-44171160D01*
X135256613Y-44204209D01*
X135256613Y-44204209D01*
G37*
G36*
X130256613Y-44204209D02*
X130413123Y-44269038D01*
X130413125Y-44269039D01*
X130553980Y-44363156D01*
X130673764Y-44482940D01*
X130751071Y-44598637D01*
X130767882Y-44623797D01*
X130832711Y-44780307D01*
X130865760Y-44946457D01*
X130865760Y-45115863D01*
X130832711Y-45282013D01*
X130771472Y-45429855D01*
X130767881Y-45438525D01*
X130673764Y-45579380D01*
X130553980Y-45699164D01*
X130413125Y-45793281D01*
X130413124Y-45793282D01*
X130413123Y-45793282D01*
X130256613Y-45858111D01*
X130090463Y-45891160D01*
X129921057Y-45891160D01*
X129754907Y-45858111D01*
X129598397Y-45793282D01*
X129598396Y-45793282D01*
X129598395Y-45793281D01*
X129457540Y-45699164D01*
X129337756Y-45579380D01*
X129243639Y-45438525D01*
X129240048Y-45429855D01*
X129178809Y-45282013D01*
X129145760Y-45115863D01*
X129145760Y-44946457D01*
X129178809Y-44780307D01*
X129243638Y-44623797D01*
X129260449Y-44598637D01*
X129337756Y-44482940D01*
X129457540Y-44363156D01*
X129598395Y-44269039D01*
X129598397Y-44269038D01*
X129754907Y-44204209D01*
X129921057Y-44171160D01*
X130090463Y-44171160D01*
X130256613Y-44204209D01*
X130256613Y-44204209D01*
G37*
G36*
X142756613Y-44204209D02*
X142913123Y-44269038D01*
X142913125Y-44269039D01*
X143053980Y-44363156D01*
X143173764Y-44482940D01*
X143251071Y-44598637D01*
X143267882Y-44623797D01*
X143332711Y-44780307D01*
X143365760Y-44946457D01*
X143365760Y-45115863D01*
X143332711Y-45282013D01*
X143271472Y-45429855D01*
X143267881Y-45438525D01*
X143173764Y-45579380D01*
X143053980Y-45699164D01*
X142913125Y-45793281D01*
X142913124Y-45793282D01*
X142913123Y-45793282D01*
X142756613Y-45858111D01*
X142590463Y-45891160D01*
X142421057Y-45891160D01*
X142254907Y-45858111D01*
X142098397Y-45793282D01*
X142098396Y-45793282D01*
X142098395Y-45793281D01*
X141957540Y-45699164D01*
X141837756Y-45579380D01*
X141743639Y-45438525D01*
X141740048Y-45429855D01*
X141678809Y-45282013D01*
X141645760Y-45115863D01*
X141645760Y-44946457D01*
X141678809Y-44780307D01*
X141743638Y-44623797D01*
X141760449Y-44598637D01*
X141837756Y-44482940D01*
X141957540Y-44363156D01*
X142098395Y-44269039D01*
X142098397Y-44269038D01*
X142254907Y-44204209D01*
X142421057Y-44171160D01*
X142590463Y-44171160D01*
X142756613Y-44204209D01*
X142756613Y-44204209D01*
G37*
G36*
X140256613Y-44204209D02*
X140413123Y-44269038D01*
X140413125Y-44269039D01*
X140553980Y-44363156D01*
X140673764Y-44482940D01*
X140751071Y-44598637D01*
X140767882Y-44623797D01*
X140832711Y-44780307D01*
X140865760Y-44946457D01*
X140865760Y-45115863D01*
X140832711Y-45282013D01*
X140771472Y-45429855D01*
X140767881Y-45438525D01*
X140673764Y-45579380D01*
X140553980Y-45699164D01*
X140413125Y-45793281D01*
X140413124Y-45793282D01*
X140413123Y-45793282D01*
X140256613Y-45858111D01*
X140090463Y-45891160D01*
X139921057Y-45891160D01*
X139754907Y-45858111D01*
X139598397Y-45793282D01*
X139598396Y-45793282D01*
X139598395Y-45793281D01*
X139457540Y-45699164D01*
X139337756Y-45579380D01*
X139243639Y-45438525D01*
X139240048Y-45429855D01*
X139178809Y-45282013D01*
X139145760Y-45115863D01*
X139145760Y-44946457D01*
X139178809Y-44780307D01*
X139243638Y-44623797D01*
X139260449Y-44598637D01*
X139337756Y-44482940D01*
X139457540Y-44363156D01*
X139598395Y-44269039D01*
X139598397Y-44269038D01*
X139754907Y-44204209D01*
X139921057Y-44171160D01*
X140090463Y-44171160D01*
X140256613Y-44204209D01*
X140256613Y-44204209D01*
G37*
G36*
X160495013Y-44179049D02*
X160651523Y-44243878D01*
X160651525Y-44243879D01*
X160792380Y-44337996D01*
X160912164Y-44457780D01*
X161006281Y-44598635D01*
X161006282Y-44598637D01*
X161071111Y-44755147D01*
X161104160Y-44921297D01*
X161104160Y-45090703D01*
X161071111Y-45256853D01*
X161018923Y-45382844D01*
X161006281Y-45413365D01*
X160912164Y-45554220D01*
X160792380Y-45674004D01*
X160651525Y-45768121D01*
X160651524Y-45768122D01*
X160651523Y-45768122D01*
X160495013Y-45832951D01*
X160328863Y-45866000D01*
X160159457Y-45866000D01*
X159993307Y-45832951D01*
X159836797Y-45768122D01*
X159836796Y-45768122D01*
X159836795Y-45768121D01*
X159695940Y-45674004D01*
X159576156Y-45554220D01*
X159482039Y-45413365D01*
X159469397Y-45382844D01*
X159417209Y-45256853D01*
X159384160Y-45090703D01*
X159384160Y-44921297D01*
X159417209Y-44755147D01*
X159482038Y-44598637D01*
X159482039Y-44598635D01*
X159576156Y-44457780D01*
X159695940Y-44337996D01*
X159836795Y-44243879D01*
X159836797Y-44243878D01*
X159993307Y-44179049D01*
X160159457Y-44146000D01*
X160328863Y-44146000D01*
X160495013Y-44179049D01*
X160495013Y-44179049D01*
G37*
G36*
X162995013Y-44179049D02*
X163151523Y-44243878D01*
X163151525Y-44243879D01*
X163292380Y-44337996D01*
X163412164Y-44457780D01*
X163506281Y-44598635D01*
X163506282Y-44598637D01*
X163571111Y-44755147D01*
X163604160Y-44921297D01*
X163604160Y-45090703D01*
X163571111Y-45256853D01*
X163518923Y-45382844D01*
X163506281Y-45413365D01*
X163412164Y-45554220D01*
X163292380Y-45674004D01*
X163151525Y-45768121D01*
X163151524Y-45768122D01*
X163151523Y-45768122D01*
X162995013Y-45832951D01*
X162828863Y-45866000D01*
X162659457Y-45866000D01*
X162493307Y-45832951D01*
X162336797Y-45768122D01*
X162336796Y-45768122D01*
X162336795Y-45768121D01*
X162195940Y-45674004D01*
X162076156Y-45554220D01*
X161982039Y-45413365D01*
X161969397Y-45382844D01*
X161917209Y-45256853D01*
X161884160Y-45090703D01*
X161884160Y-44921297D01*
X161917209Y-44755147D01*
X161982038Y-44598637D01*
X161982039Y-44598635D01*
X162076156Y-44457780D01*
X162195940Y-44337996D01*
X162336795Y-44243879D01*
X162336797Y-44243878D01*
X162493307Y-44179049D01*
X162659457Y-44146000D01*
X162828863Y-44146000D01*
X162995013Y-44179049D01*
X162995013Y-44179049D01*
G37*
G36*
X157995013Y-44179049D02*
X158151523Y-44243878D01*
X158151525Y-44243879D01*
X158292380Y-44337996D01*
X158412164Y-44457780D01*
X158506281Y-44598635D01*
X158506282Y-44598637D01*
X158571111Y-44755147D01*
X158604160Y-44921297D01*
X158604160Y-45090703D01*
X158571111Y-45256853D01*
X158518923Y-45382844D01*
X158506281Y-45413365D01*
X158412164Y-45554220D01*
X158292380Y-45674004D01*
X158151525Y-45768121D01*
X158151524Y-45768122D01*
X158151523Y-45768122D01*
X157995013Y-45832951D01*
X157828863Y-45866000D01*
X157659457Y-45866000D01*
X157493307Y-45832951D01*
X157336797Y-45768122D01*
X157336796Y-45768122D01*
X157336795Y-45768121D01*
X157195940Y-45674004D01*
X157076156Y-45554220D01*
X156982039Y-45413365D01*
X156969397Y-45382844D01*
X156917209Y-45256853D01*
X156884160Y-45090703D01*
X156884160Y-44921297D01*
X156917209Y-44755147D01*
X156982038Y-44598637D01*
X156982039Y-44598635D01*
X157076156Y-44457780D01*
X157195940Y-44337996D01*
X157336795Y-44243879D01*
X157336797Y-44243878D01*
X157493307Y-44179049D01*
X157659457Y-44146000D01*
X157828863Y-44146000D01*
X157995013Y-44179049D01*
X157995013Y-44179049D01*
G37*
G36*
X155495013Y-44179049D02*
X155651523Y-44243878D01*
X155651525Y-44243879D01*
X155792380Y-44337996D01*
X155912164Y-44457780D01*
X156006281Y-44598635D01*
X156006282Y-44598637D01*
X156071111Y-44755147D01*
X156104160Y-44921297D01*
X156104160Y-45090703D01*
X156071111Y-45256853D01*
X156018923Y-45382844D01*
X156006281Y-45413365D01*
X155912164Y-45554220D01*
X155792380Y-45674004D01*
X155651525Y-45768121D01*
X155651524Y-45768122D01*
X155651523Y-45768122D01*
X155495013Y-45832951D01*
X155328863Y-45866000D01*
X155159457Y-45866000D01*
X154993307Y-45832951D01*
X154836797Y-45768122D01*
X154836796Y-45768122D01*
X154836795Y-45768121D01*
X154695940Y-45674004D01*
X154576156Y-45554220D01*
X154482039Y-45413365D01*
X154469397Y-45382844D01*
X154417209Y-45256853D01*
X154384160Y-45090703D01*
X154384160Y-44921297D01*
X154417209Y-44755147D01*
X154482038Y-44598637D01*
X154482039Y-44598635D01*
X154576156Y-44457780D01*
X154695940Y-44337996D01*
X154836795Y-44243879D01*
X154836797Y-44243878D01*
X154993307Y-44179049D01*
X155159457Y-44146000D01*
X155328863Y-44146000D01*
X155495013Y-44179049D01*
X155495013Y-44179049D01*
G37*
G36*
X152995013Y-44179049D02*
X153151523Y-44243878D01*
X153151525Y-44243879D01*
X153292380Y-44337996D01*
X153412164Y-44457780D01*
X153506281Y-44598635D01*
X153506282Y-44598637D01*
X153571111Y-44755147D01*
X153604160Y-44921297D01*
X153604160Y-45090703D01*
X153571111Y-45256853D01*
X153518923Y-45382844D01*
X153506281Y-45413365D01*
X153412164Y-45554220D01*
X153292380Y-45674004D01*
X153151525Y-45768121D01*
X153151524Y-45768122D01*
X153151523Y-45768122D01*
X152995013Y-45832951D01*
X152828863Y-45866000D01*
X152659457Y-45866000D01*
X152493307Y-45832951D01*
X152336797Y-45768122D01*
X152336796Y-45768122D01*
X152336795Y-45768121D01*
X152195940Y-45674004D01*
X152076156Y-45554220D01*
X151982039Y-45413365D01*
X151969397Y-45382844D01*
X151917209Y-45256853D01*
X151884160Y-45090703D01*
X151884160Y-44921297D01*
X151917209Y-44755147D01*
X151982038Y-44598637D01*
X151982039Y-44598635D01*
X152076156Y-44457780D01*
X152195940Y-44337996D01*
X152336795Y-44243879D01*
X152336797Y-44243878D01*
X152493307Y-44179049D01*
X152659457Y-44146000D01*
X152828863Y-44146000D01*
X152995013Y-44179049D01*
X152995013Y-44179049D01*
G37*
G36*
X84367853Y-44149089D02*
X84524363Y-44213918D01*
X84524365Y-44213919D01*
X84665220Y-44308036D01*
X84785004Y-44427820D01*
X84846119Y-44519285D01*
X84879122Y-44568677D01*
X84943951Y-44725187D01*
X84977000Y-44891337D01*
X84977000Y-45060743D01*
X84943951Y-45226893D01*
X84879353Y-45382845D01*
X84879121Y-45383405D01*
X84785004Y-45524260D01*
X84665220Y-45644044D01*
X84524365Y-45738161D01*
X84524364Y-45738162D01*
X84524363Y-45738162D01*
X84367853Y-45802991D01*
X84201703Y-45836040D01*
X84032297Y-45836040D01*
X83866147Y-45802991D01*
X83709637Y-45738162D01*
X83709636Y-45738162D01*
X83709635Y-45738161D01*
X83568780Y-45644044D01*
X83448996Y-45524260D01*
X83354879Y-45383405D01*
X83354647Y-45382845D01*
X83290049Y-45226893D01*
X83257000Y-45060743D01*
X83257000Y-44891337D01*
X83290049Y-44725187D01*
X83354878Y-44568677D01*
X83387881Y-44519285D01*
X83448996Y-44427820D01*
X83568780Y-44308036D01*
X83709635Y-44213919D01*
X83709637Y-44213918D01*
X83866147Y-44149089D01*
X84032297Y-44116040D01*
X84201703Y-44116040D01*
X84367853Y-44149089D01*
X84367853Y-44149089D01*
G37*
G36*
X76867853Y-44149089D02*
X77024363Y-44213918D01*
X77024365Y-44213919D01*
X77165220Y-44308036D01*
X77285004Y-44427820D01*
X77346119Y-44519285D01*
X77379122Y-44568677D01*
X77443951Y-44725187D01*
X77477000Y-44891337D01*
X77477000Y-45060743D01*
X77443951Y-45226893D01*
X77379353Y-45382845D01*
X77379121Y-45383405D01*
X77285004Y-45524260D01*
X77165220Y-45644044D01*
X77024365Y-45738161D01*
X77024364Y-45738162D01*
X77024363Y-45738162D01*
X76867853Y-45802991D01*
X76701703Y-45836040D01*
X76532297Y-45836040D01*
X76366147Y-45802991D01*
X76209637Y-45738162D01*
X76209636Y-45738162D01*
X76209635Y-45738161D01*
X76068780Y-45644044D01*
X75948996Y-45524260D01*
X75854879Y-45383405D01*
X75854647Y-45382845D01*
X75790049Y-45226893D01*
X75757000Y-45060743D01*
X75757000Y-44891337D01*
X75790049Y-44725187D01*
X75854878Y-44568677D01*
X75887881Y-44519285D01*
X75948996Y-44427820D01*
X76068780Y-44308036D01*
X76209635Y-44213919D01*
X76209637Y-44213918D01*
X76366147Y-44149089D01*
X76532297Y-44116040D01*
X76701703Y-44116040D01*
X76867853Y-44149089D01*
X76867853Y-44149089D01*
G37*
G36*
X86867853Y-44149089D02*
X87024363Y-44213918D01*
X87024365Y-44213919D01*
X87165220Y-44308036D01*
X87285004Y-44427820D01*
X87346119Y-44519285D01*
X87379122Y-44568677D01*
X87443951Y-44725187D01*
X87477000Y-44891337D01*
X87477000Y-45060743D01*
X87443951Y-45226893D01*
X87379353Y-45382845D01*
X87379121Y-45383405D01*
X87285004Y-45524260D01*
X87165220Y-45644044D01*
X87024365Y-45738161D01*
X87024364Y-45738162D01*
X87024363Y-45738162D01*
X86867853Y-45802991D01*
X86701703Y-45836040D01*
X86532297Y-45836040D01*
X86366147Y-45802991D01*
X86209637Y-45738162D01*
X86209636Y-45738162D01*
X86209635Y-45738161D01*
X86068780Y-45644044D01*
X85948996Y-45524260D01*
X85854879Y-45383405D01*
X85854647Y-45382845D01*
X85790049Y-45226893D01*
X85757000Y-45060743D01*
X85757000Y-44891337D01*
X85790049Y-44725187D01*
X85854878Y-44568677D01*
X85887881Y-44519285D01*
X85948996Y-44427820D01*
X86068780Y-44308036D01*
X86209635Y-44213919D01*
X86209637Y-44213918D01*
X86366147Y-44149089D01*
X86532297Y-44116040D01*
X86701703Y-44116040D01*
X86867853Y-44149089D01*
X86867853Y-44149089D01*
G37*
G36*
X71867853Y-44149089D02*
X72024363Y-44213918D01*
X72024365Y-44213919D01*
X72165220Y-44308036D01*
X72285004Y-44427820D01*
X72346119Y-44519285D01*
X72379122Y-44568677D01*
X72443951Y-44725187D01*
X72477000Y-44891337D01*
X72477000Y-45060743D01*
X72443951Y-45226893D01*
X72379353Y-45382845D01*
X72379121Y-45383405D01*
X72285004Y-45524260D01*
X72165220Y-45644044D01*
X72024365Y-45738161D01*
X72024364Y-45738162D01*
X72024363Y-45738162D01*
X71867853Y-45802991D01*
X71701703Y-45836040D01*
X71532297Y-45836040D01*
X71366147Y-45802991D01*
X71209637Y-45738162D01*
X71209636Y-45738162D01*
X71209635Y-45738161D01*
X71068780Y-45644044D01*
X70948996Y-45524260D01*
X70854879Y-45383405D01*
X70854647Y-45382845D01*
X70790049Y-45226893D01*
X70757000Y-45060743D01*
X70757000Y-44891337D01*
X70790049Y-44725187D01*
X70854878Y-44568677D01*
X70887881Y-44519285D01*
X70948996Y-44427820D01*
X71068780Y-44308036D01*
X71209635Y-44213919D01*
X71209637Y-44213918D01*
X71366147Y-44149089D01*
X71532297Y-44116040D01*
X71701703Y-44116040D01*
X71867853Y-44149089D01*
X71867853Y-44149089D01*
G37*
G36*
X79367853Y-44149089D02*
X79524363Y-44213918D01*
X79524365Y-44213919D01*
X79665220Y-44308036D01*
X79785004Y-44427820D01*
X79846119Y-44519285D01*
X79879122Y-44568677D01*
X79943951Y-44725187D01*
X79977000Y-44891337D01*
X79977000Y-45060743D01*
X79943951Y-45226893D01*
X79879353Y-45382845D01*
X79879121Y-45383405D01*
X79785004Y-45524260D01*
X79665220Y-45644044D01*
X79524365Y-45738161D01*
X79524364Y-45738162D01*
X79524363Y-45738162D01*
X79367853Y-45802991D01*
X79201703Y-45836040D01*
X79032297Y-45836040D01*
X78866147Y-45802991D01*
X78709637Y-45738162D01*
X78709636Y-45738162D01*
X78709635Y-45738161D01*
X78568780Y-45644044D01*
X78448996Y-45524260D01*
X78354879Y-45383405D01*
X78354647Y-45382845D01*
X78290049Y-45226893D01*
X78257000Y-45060743D01*
X78257000Y-44891337D01*
X78290049Y-44725187D01*
X78354878Y-44568677D01*
X78387881Y-44519285D01*
X78448996Y-44427820D01*
X78568780Y-44308036D01*
X78709635Y-44213919D01*
X78709637Y-44213918D01*
X78866147Y-44149089D01*
X79032297Y-44116040D01*
X79201703Y-44116040D01*
X79367853Y-44149089D01*
X79367853Y-44149089D01*
G37*
G36*
X74367853Y-44149089D02*
X74524363Y-44213918D01*
X74524365Y-44213919D01*
X74665220Y-44308036D01*
X74785004Y-44427820D01*
X74846119Y-44519285D01*
X74879122Y-44568677D01*
X74943951Y-44725187D01*
X74977000Y-44891337D01*
X74977000Y-45060743D01*
X74943951Y-45226893D01*
X74879353Y-45382845D01*
X74879121Y-45383405D01*
X74785004Y-45524260D01*
X74665220Y-45644044D01*
X74524365Y-45738161D01*
X74524364Y-45738162D01*
X74524363Y-45738162D01*
X74367853Y-45802991D01*
X74201703Y-45836040D01*
X74032297Y-45836040D01*
X73866147Y-45802991D01*
X73709637Y-45738162D01*
X73709636Y-45738162D01*
X73709635Y-45738161D01*
X73568780Y-45644044D01*
X73448996Y-45524260D01*
X73354879Y-45383405D01*
X73354647Y-45382845D01*
X73290049Y-45226893D01*
X73257000Y-45060743D01*
X73257000Y-44891337D01*
X73290049Y-44725187D01*
X73354878Y-44568677D01*
X73387881Y-44519285D01*
X73448996Y-44427820D01*
X73568780Y-44308036D01*
X73709635Y-44213919D01*
X73709637Y-44213918D01*
X73866147Y-44149089D01*
X74032297Y-44116040D01*
X74201703Y-44116040D01*
X74367853Y-44149089D01*
X74367853Y-44149089D01*
G37*
G36*
X81867853Y-44149089D02*
X82024363Y-44213918D01*
X82024365Y-44213919D01*
X82165220Y-44308036D01*
X82285004Y-44427820D01*
X82346119Y-44519285D01*
X82379122Y-44568677D01*
X82443951Y-44725187D01*
X82477000Y-44891337D01*
X82477000Y-45060743D01*
X82443951Y-45226893D01*
X82379353Y-45382845D01*
X82379121Y-45383405D01*
X82285004Y-45524260D01*
X82165220Y-45644044D01*
X82024365Y-45738161D01*
X82024364Y-45738162D01*
X82024363Y-45738162D01*
X81867853Y-45802991D01*
X81701703Y-45836040D01*
X81532297Y-45836040D01*
X81366147Y-45802991D01*
X81209637Y-45738162D01*
X81209636Y-45738162D01*
X81209635Y-45738161D01*
X81068780Y-45644044D01*
X80948996Y-45524260D01*
X80854879Y-45383405D01*
X80854647Y-45382845D01*
X80790049Y-45226893D01*
X80757000Y-45060743D01*
X80757000Y-44891337D01*
X80790049Y-44725187D01*
X80854878Y-44568677D01*
X80887881Y-44519285D01*
X80948996Y-44427820D01*
X81068780Y-44308036D01*
X81209635Y-44213919D01*
X81209637Y-44213918D01*
X81366147Y-44149089D01*
X81532297Y-44116040D01*
X81701703Y-44116040D01*
X81867853Y-44149089D01*
X81867853Y-44149089D01*
G37*
G36*
X117095613Y-43887889D02*
X117252123Y-43952718D01*
X117252125Y-43952719D01*
X117392980Y-44046836D01*
X117512764Y-44166620D01*
X117585539Y-44275535D01*
X117606882Y-44307477D01*
X117671711Y-44463987D01*
X117704760Y-44630137D01*
X117704760Y-44799543D01*
X117671711Y-44965693D01*
X117609508Y-45115863D01*
X117606881Y-45122205D01*
X117512764Y-45263060D01*
X117392980Y-45382844D01*
X117252125Y-45476961D01*
X117252124Y-45476962D01*
X117252123Y-45476962D01*
X117095613Y-45541791D01*
X116929463Y-45574840D01*
X116760057Y-45574840D01*
X116593907Y-45541791D01*
X116437397Y-45476962D01*
X116437396Y-45476962D01*
X116437395Y-45476961D01*
X116296540Y-45382844D01*
X116176756Y-45263060D01*
X116082639Y-45122205D01*
X116080012Y-45115863D01*
X116017809Y-44965693D01*
X115984760Y-44799543D01*
X115984760Y-44630137D01*
X116017809Y-44463987D01*
X116082638Y-44307477D01*
X116103981Y-44275535D01*
X116176756Y-44166620D01*
X116296540Y-44046836D01*
X116437395Y-43952719D01*
X116437397Y-43952718D01*
X116593907Y-43887889D01*
X116760057Y-43854840D01*
X116929463Y-43854840D01*
X117095613Y-43887889D01*
X117095613Y-43887889D01*
G37*
G36*
X119595613Y-43887889D02*
X119752123Y-43952718D01*
X119752125Y-43952719D01*
X119892980Y-44046836D01*
X120012764Y-44166620D01*
X120085539Y-44275535D01*
X120106882Y-44307477D01*
X120171711Y-44463987D01*
X120204760Y-44630137D01*
X120204760Y-44799543D01*
X120171711Y-44965693D01*
X120109508Y-45115863D01*
X120106881Y-45122205D01*
X120012764Y-45263060D01*
X119892980Y-45382844D01*
X119752125Y-45476961D01*
X119752124Y-45476962D01*
X119752123Y-45476962D01*
X119595613Y-45541791D01*
X119429463Y-45574840D01*
X119260057Y-45574840D01*
X119093907Y-45541791D01*
X118937397Y-45476962D01*
X118937396Y-45476962D01*
X118937395Y-45476961D01*
X118796540Y-45382844D01*
X118676756Y-45263060D01*
X118582639Y-45122205D01*
X118580012Y-45115863D01*
X118517809Y-44965693D01*
X118484760Y-44799543D01*
X118484760Y-44630137D01*
X118517809Y-44463987D01*
X118582638Y-44307477D01*
X118603981Y-44275535D01*
X118676756Y-44166620D01*
X118796540Y-44046836D01*
X118937395Y-43952719D01*
X118937397Y-43952718D01*
X119093907Y-43887889D01*
X119260057Y-43854840D01*
X119429463Y-43854840D01*
X119595613Y-43887889D01*
X119595613Y-43887889D01*
G37*
G36*
X98989856Y-42681661D02*
X99102324Y-42728247D01*
X99168207Y-42755536D01*
X99288860Y-42836154D01*
X99320010Y-42856968D01*
X99328715Y-42862785D01*
X99465215Y-42999285D01*
X99572464Y-43159793D01*
X99572465Y-43159796D01*
X99646339Y-43338144D01*
X99684000Y-43527478D01*
X99684000Y-43720522D01*
X99646339Y-43909856D01*
X99599753Y-44022324D01*
X99572464Y-44088207D01*
X99520068Y-44166622D01*
X99468447Y-44243879D01*
X99465215Y-44248715D01*
X99328715Y-44385215D01*
X99168207Y-44492464D01*
X99103455Y-44519285D01*
X98989856Y-44566339D01*
X98800522Y-44604000D01*
X98607478Y-44604000D01*
X98418144Y-44566339D01*
X98304545Y-44519285D01*
X98239793Y-44492464D01*
X98079285Y-44385215D01*
X97942785Y-44248715D01*
X97939554Y-44243879D01*
X97887932Y-44166622D01*
X97835536Y-44088207D01*
X97808247Y-44022324D01*
X97761661Y-43909856D01*
X97724000Y-43720522D01*
X97724000Y-43527478D01*
X97761661Y-43338144D01*
X97835535Y-43159796D01*
X97835536Y-43159793D01*
X97942785Y-42999285D01*
X98079285Y-42862785D01*
X98087991Y-42856968D01*
X98119140Y-42836154D01*
X98239793Y-42755536D01*
X98305676Y-42728247D01*
X98418144Y-42681661D01*
X98607478Y-42644000D01*
X98800522Y-42644000D01*
X98989856Y-42681661D01*
X98989856Y-42681661D01*
G37*
G36*
X109099856Y-42681661D02*
X109212324Y-42728247D01*
X109278207Y-42755536D01*
X109398860Y-42836154D01*
X109430010Y-42856968D01*
X109438715Y-42862785D01*
X109575215Y-42999285D01*
X109682464Y-43159793D01*
X109682465Y-43159796D01*
X109756339Y-43338144D01*
X109794000Y-43527478D01*
X109794000Y-43720522D01*
X109756339Y-43909856D01*
X109709753Y-44022324D01*
X109682464Y-44088207D01*
X109630068Y-44166622D01*
X109578447Y-44243879D01*
X109575215Y-44248715D01*
X109438715Y-44385215D01*
X109278207Y-44492464D01*
X109213455Y-44519285D01*
X109099856Y-44566339D01*
X108910522Y-44604000D01*
X108717478Y-44604000D01*
X108528144Y-44566339D01*
X108414545Y-44519285D01*
X108349793Y-44492464D01*
X108189285Y-44385215D01*
X108052785Y-44248715D01*
X108049554Y-44243879D01*
X107997932Y-44166622D01*
X107945536Y-44088207D01*
X107918247Y-44022324D01*
X107871661Y-43909856D01*
X107834000Y-43720522D01*
X107834000Y-43527478D01*
X107871661Y-43338144D01*
X107945535Y-43159796D01*
X107945536Y-43159793D01*
X108052785Y-42999285D01*
X108189285Y-42862785D01*
X108197991Y-42856968D01*
X108229140Y-42836154D01*
X108349793Y-42755536D01*
X108415676Y-42728247D01*
X108528144Y-42681661D01*
X108717478Y-42644000D01*
X108910522Y-42644000D01*
X109099856Y-42681661D01*
X109099856Y-42681661D01*
G37*
M02*
