M48
METRIC,TZ
T1C0.400
T2C0.600
T3C0.850
T4C0.890
T5C0.900
T6C1.000
T7C1.100
T8C1.600
T9C3.200
%
G90
G05
T1
X19.525Y-90.645
X19.525Y-90.645
X19.525Y-90.645
X19.525Y-90.645
X20.828Y-92.075
X21.717Y-83.439
X21.717Y-84.455
X21.717Y-85.471
X21.717Y-86.614
X21.844Y-92.964
X22.098Y-97.409
X22.098Y-104.013
X22.225Y-87.757
X22.86Y-93.98
X24.066Y-90.551
X24.066Y-91.885
X24.13Y-52.324
X24.13Y-56.134
X24.13Y-57.404
X24.32Y-73.343
X24.32Y-74.549
X24.384Y-72.009
X24.384Y-80.137
X24.384Y-84.836
X25.617Y-63.119
X25.654Y-68.135
X25.654Y-97.346
X27.114Y-54.864
X27.178Y-91.948
X27.305Y-56.134
X27.305Y-57.404
X27.305Y-90.424
X27.432Y-73.279
X27.432Y-74.549
X27.813Y-93.091
X28.003Y-58.674
X28.003Y-75.819
X28.067Y-89.281
X28.321Y-52.324
X28.956Y-57.023
X29.083Y-74.549
X29.21Y-72.009
X29.21Y-89.281
X29.591Y-91.948
X31.115Y-63.246
X31.115Y-68.135
X31.432Y-97.282
X32.258Y-80.137
X32.258Y-84.836
X32.512Y-91.694
X33.528Y-52.197
X33.528Y-53.594
X33.655Y-63.246
X33.655Y-65.405
X33.655Y-67.437
X34.925Y-93.091
X35.029Y-74.216
X35.052Y-57.277
X35.052Y-75.819
X35.115Y-58.674
X35.179Y-95.631
X35.179Y-97.282
X35.179Y-104.14
X35.306Y-80.137
X35.306Y-82.614
X35.306Y-84.836
X35.306Y-91.694
X39.751Y-94.615
X41.529Y-69.342
X41.656Y-63.5
X41.656Y-66.294
X41.783Y-94.615
X41.91Y-91.821
X41.91Y-97.536
X41.974Y-78.994
X41.974Y-81.216
X42.291Y-86.614
X46.355Y-52.197
X46.355Y-69.469
X46.355Y-94.615
X46.418Y-78.994
X46.418Y-81.216
X46.482Y-54.864
X46.482Y-63.373
X46.482Y-66.167
X46.482Y-91.821
X46.482Y-97.536
X46.609Y-74.168
X46.609Y-86.36
X48.26Y-52.197
X48.26Y-54.864
X48.26Y-94.615
X48.387Y-63.344
X50.292Y-52.121
X50.292Y-53.137
X50.292Y-54.204
X50.546Y-106.299
X51.435Y-71.628
X51.435Y-76.073
X51.562Y-67.31
X52.959Y-107.823
X53.086Y-102.489
X54.356Y-98.679
X54.356Y-100.33
X54.483Y-71.628
X54.61Y-67.437
X54.915Y-45.847
X54.915Y-47.117
X54.915Y-48.387
X54.915Y-49.632
X55.245Y-102.362
X56.337Y-49.657
X56.54Y-45.847
X56.642Y-73.406
X56.642Y-75.946
X56.769Y-71.501
X57.641Y-69.596
X57.658Y-49.657
X57.912Y-45.847
X59.182Y-45.847
X59.182Y-47.752
X59.182Y-49.657
X59.81Y-87.038
X59.81Y-89.535
X60.452Y-47.752
X60.452Y-49.657
X60.579Y-45.847
X60.96Y-71.247
X60.96Y-94.615
X61.087Y-73.279
X61.214Y-75.819
X61.377Y-85.471
X62.484Y-84.364
X66.04Y-109.22
X66.675Y-94.361
X66.802Y-91.821
X67.818Y-91.821
X67.818Y-94.361
X69.088Y-53.467
X69.723Y-69.342
X69.85Y-71.247
X71.374Y-99.631
X72.136Y-96.52
X72.263Y-94.488
X72.517Y-100.163
X74.041Y-102.108
X74.231Y-81.407
X74.231Y-95.504
X75.084Y-99.318
X75.819Y-97.717
X76.267Y-96.081
X76.599Y-84.836
X76.647Y-97.156
X76.708Y-94.488
X76.962Y-102.108
X77.851Y-94.996
X77.962Y-102.108
X79.184Y-85.026
X79.185Y-93.916
X80.772Y-76.581
X80.821Y-96.774
X80.835Y-82.132
X81.546Y-98.044
X81.915Y-105.029
X81.978Y-71.628
X81.978Y-79.692
X82.296Y-109.474
X83.121Y-104.394
X83.566Y-88.01
X83.693Y-89.535
X83.697Y-95.784
X84.455Y-93.218
X84.461Y-88.736
X84.582Y-108.077
X84.582Y-106.934
X84.645Y-103.124
X84.645Y-99.377
X84.646Y-100.584
X85.084Y-86.487
X85.852Y-87.402
X86.741Y-80.454
X87.82Y-80.454
X88.9Y-90.297
X88.963Y-87.73
X89.027Y-80.454
X89.281Y-67.437
X90.17Y-109.474
X90.297Y-80.454
X90.932Y-58.293
X91.567Y-80.454
X91.694Y-48.705
X92.964Y-80.454
X94.996Y-70.485
X94.996Y-82.132
X95.006Y-71.485
X95.758Y-73.152
X96.139Y-69.977
X96.852Y-67.564
X99.822Y-68.707
X99.822Y-109.474
X101.409Y-91.948
X101.854Y-64.262
X101.981Y-69.977
X101.981Y-71.501
X102.616Y-76.073
X102.997Y-62.484
X103.505Y-69.977
X103.505Y-71.501
X103.822Y-76.073
X104.521Y-85.344
X104.648Y-109.474
X104.838Y-92.9
X105.029Y-65.024
X105.219Y-95.313
X105.621Y-72.009
X105.621Y-74.612
X106.296Y-71.149
X106.601Y-69.528
X107.061Y-107.315
X107.569Y-67.691
X107.569Y-69.178
X107.746Y-70.485
X107.759Y-76.708
X107.759Y-97.409
X109.347Y-78.994
X109.347Y-96.203
X109.347Y-109.093
X110.934Y-73.215
X111.225Y-71.628
X111.66Y-99.568
X112.141Y-67.31
X113.264Y-61.702
X114.046Y-109.093
X114.856Y-49.276
X115.887Y-53.975
X117.856Y-54.165
X118.237Y-50.719
X118.364Y-102.399
X120.777Y-91.123
X122.745Y-50.673
X122.936Y-86.614
X123.634Y-49.784
X124.042Y-84.264
X124.767Y-90.17
X124.904Y-106.172
X125.106Y-83.509
X125.603Y-82.614
X125.92Y-77.724
X125.921Y-43.307
X125.928Y-106.172
X126.428Y-45.72
X126.873Y-100.748
X126.936Y-106.172
X127.063Y-81.471
X127.063Y-95.096
X128.841Y-53.53
X128.841Y-92.139
X128.841Y-101.536
X128.841Y-104.775
X129.451Y-75.265
X129.553Y-68.199
X130.048Y-102.87
X130.81Y-62.293
X131.508Y-75.501
X132.588Y-54.165
X133.604Y-54.102
X134.493Y-84.899
X134.493Y-92.456
X135.763Y-82.105
X136.525Y-68.453
X136.588Y-75.565
X136.652Y-83.629
X137.096Y-90.17
X138.367Y-103.632
X138.43Y-50.673
X138.493Y-75.692
X140.653Y-75.755
X140.97Y-60.579
X140.97Y-106.717
X142.177Y-91.313
X142.177Y-77.787
X142.43Y-68.77
X142.494Y-75.565
X143.256Y-60.706
X143.637Y-106.934
X144.145Y-78.232
X144.145Y-86.931
X144.145Y-48.387
X144.988Y-80.137
X144.988Y-87.558
X145.288Y-40.767
X145.732Y-88.239
X146.494Y-88.963
X147.219Y-74.422
X149.225Y-48.006
X150.939Y-62.801
X151.13Y-94.361
X153.099Y-55.128
X154.114Y-48.895
X154.368Y-100.33
X154.94Y-106.108
X155.766Y-55.816
X155.778Y-57.328
X156.019Y-106.108
X156.273Y-61.658
X156.964Y-107.005
X157.21Y-62.422
X157.29Y-55.816
X157.29Y-57.277
X157.48Y-64.643
X158.305Y-100.33
X159.195Y-48.895
X159.385Y-90.361
X159.512Y-103.976
X160.274Y-53.276
X160.719Y-66.103
X161.544Y-41.719
X165.1Y-96.837
X165.862Y-94.361
X167.005Y-91.313
X167.069Y-95.567
X167.856Y-51.532
X167.969Y-54.477
X168.212Y-52.959
X169.1Y-99.314
X170.542Y-99.295
X171.723Y-97.301
X171.767Y-100.392
X175.451Y-92.329
X176.53Y-96.266
T3
X173.099Y-50.332
X173.099Y-55.332
T4
X96.164Y-45.144
X98.704Y-43.624
X106.274Y-45.144
X108.814Y-43.624
T5
X98.044Y-57.404
X99.314Y-54.864
X100.584Y-57.404
X101.854Y-54.864
X103.124Y-57.404
X104.394Y-54.864
X105.664Y-57.404
X106.934Y-54.864
T6
X121.602Y-58.864
X121.602Y-61.404
X124.142Y-58.864
X124.142Y-61.404
X134.556Y-99.695
X137.096Y-99.695
X139.636Y-99.695
X142.177Y-99.695
X163.449Y-85.471
X163.449Y-88.011
X163.449Y-90.551
X163.449Y-93.091
X163.449Y-95.631
X163.449Y-98.171
X163.449Y-100.711
X163.449Y-103.251
X76.517Y-75.057
X76.517Y-77.597
X76.517Y-80.137
X76.517Y-82.677
X163.449Y-63.627
X163.449Y-66.167
X163.449Y-68.707
X163.449Y-71.247
X163.449Y-73.787
X163.449Y-76.327
X163.449Y-78.867
X163.449Y-81.407
X115.189Y-67.691
X115.189Y-70.231
X115.189Y-72.771
X115.189Y-75.311
X115.189Y-77.851
X115.189Y-80.391
X115.189Y-82.931
X115.189Y-85.471
T7
X116.84Y-44.704
X119.34Y-44.704
X168.468Y-68.498
X168.468Y-71.237
X168.468Y-73.977
X168.468Y-76.718
X168.468Y-79.457
X171.308Y-69.867
X171.308Y-72.608
X171.308Y-75.347
X171.308Y-78.087
X129.994Y-45.085
X132.494Y-45.085
X134.994Y-45.085
X137.494Y-45.085
X139.994Y-45.085
X142.494Y-45.085
X152.687Y-45.085
X155.187Y-45.085
X157.687Y-45.085
X160.187Y-45.085
X162.687Y-45.085
X71.614Y-44.958
X74.114Y-44.958
X76.614Y-44.958
X79.114Y-44.958
X81.614Y-44.958
X84.114Y-44.958
X86.614Y-44.958
T8
X94.714Y-51.574
X110.264Y-51.574
X41.515Y-47.625
X46.515Y-47.625
X51.515Y-47.625
X56.515Y-47.625
T9
X169.887Y-61.482
X169.887Y-86.472
T2
X175.449Y-49.332G85X176.149Y-49.332
G05
X176.149Y-56.332G85X175.449Y-56.332
G05
T0
M30
